<?xml version="1.0" encoding="utf-8"?>
<!-- Generator: Adobe Illustrator 19.1.0, SVG Export Plug-In . SVG Version: 6.00 Build 0)  -->
<svg version="1.0" xmlns="http://www.w3.org/2000/svg" xmlns:xlink="http://www.w3.org/1999/xlink" x="0px" y="0px" width="646px"
	 height="409px" viewBox="0 0 646 409" style="enable-background:new 0 0 646 409;" xml:space="preserve">
<style type="text/css">
	.st0{enable-background:new    ;}
	.st1{fill:#F8F8F8;}
	.st2{fill:#E1E0E1;}
	.st3{fill:#8E8E93;}
	.st4{fill:#FCFCFC;}
	.st5{fill:#222222;}
	.st6{fill:#DDDDDD;}
	.st7{fill:#89B6CD;}
	.st8{fill:#999999;}
	.st9{fill:#CCCCCC;}
	.st10{fill:#8AB7CE;}
	.st11{fill:#FFFFFF;}
	.st12{fill:#F89878;}
</style>
<g id="Rechteck_11_1_" class="st0">
	<g id="Rechteck_11">
		<rect x="0" y="38" class="st1" width="646" height="371"/>
	</g>
</g>
<g id="Abgerundetes_Rechteck_13_1_" class="st0">
	<g id="Abgerundetes_Rechteck_13">
		<path class="st2" d="M641,0H5C2.2,0,0,2.2,0,5v33h646V5C646,2.2,643.8,0,641,0z"/>
	</g>
</g>
<g id="Ellipse_35_5_" class="st0">
	<g id="Ellipse_35">
		<circle class="st3" cx="19" cy="18" r="6"/>
	</g>
</g>
<g id="Ellipse_35_4_" class="st0">
	<g id="Ellipse_35_1_">
		<circle class="st3" cx="39" cy="18" r="6"/>
	</g>
</g>
<g id="Ellipse_35_3_" class="st0">
	<g id="Ellipse_35_2_">
		<circle class="st3" cx="58" cy="18" r="6"/>
	</g>
</g>
<g id="Abgerundetes_Rechteck_14_1_" class="st0">
	<g id="Abgerundetes_Rechteck_14">
		<path class="st4" d="M545,7H101c-2.8,0-5,2.2-5,5v12c0,2.8,2.2,5,5,5h444c2.8,0,5-2.2,5-5V12C550,9.2,547.8,7,545,7z"/>
	</g>
</g>
<g id="manager.shortcutmedia.com">
	<g>
		<path class="st5" d="M239.9,22v-6.3h1.3v0.9c0.5-0.7,1.2-1,2-1c0.9,0,1.6,0.4,1.8,1.2c0.6-0.8,1.3-1.2,2.2-1.2
			c1.4,0,2.1,0.9,2.1,2.3V22H248v-3.8c0-0.7-0.2-1.4-1.2-1.4c-0.9,0-1.5,0.6-1.5,1.7V22H244v-3.8c0-0.7-0.2-1.4-1.2-1.4
			c-0.9,0-1.5,0.6-1.5,1.7V22H239.9z"/>
		<path class="st5" d="M256.1,22.1c-0.6,0-1.1-0.3-1.3-0.9c-0.5,0.7-1.4,1-2.1,1c-1.3,0-2.2-0.7-2.2-1.9c0-1.6,1.4-1.8,2.5-1.9
			c0.9-0.1,1.6-0.2,1.6-0.8c0-0.6-0.7-0.8-1.3-0.8c-0.6,0-1.4,0.2-2,0.6l-0.5-1c0.8-0.5,1.6-0.8,2.6-0.8c1.5,0,2.5,0.6,2.5,2.1v2.9
			c0,0.4,0.1,0.6,0.4,0.6c0.1,0,0.3,0,0.3-0.1l0.1,0.9C256.7,22,256.3,22.1,256.1,22.1z M254.6,18.7c-0.4,0.5-0.9,0.5-1.6,0.6
			c-0.7,0.1-1.2,0.3-1.2,1c0,0.7,0.5,0.9,1.2,0.9c0.8,0,1.6-0.4,1.6-1.5V18.7z"/>
		<path class="st5" d="M257.9,22v-6.3h1.3v0.9c0.5-0.7,1.2-1.1,2.1-1.1c1.4,0,2.2,0.9,2.2,2.3V22h-1.3v-3.8c0-0.7-0.2-1.4-1.2-1.4
			c-0.9,0-1.7,0.7-1.7,1.7V22H257.9z"/>
		<path class="st5" d="M270.2,22.1c-0.6,0-1.1-0.3-1.3-0.9c-0.5,0.7-1.4,1-2.1,1c-1.3,0-2.2-0.7-2.2-1.9c0-1.6,1.4-1.8,2.5-1.9
			c0.9-0.1,1.6-0.2,1.6-0.8c0-0.6-0.7-0.8-1.3-0.8c-0.6,0-1.4,0.2-2,0.6l-0.5-1c0.8-0.5,1.6-0.8,2.6-0.8c1.5,0,2.5,0.6,2.5,2.1v2.9
			c0,0.4,0.1,0.6,0.4,0.6c0.1,0,0.3,0,0.3-0.1l0.1,0.9C270.8,22,270.5,22.1,270.2,22.1z M268.8,18.7c-0.4,0.5-0.9,0.5-1.6,0.6
			c-0.7,0.1-1.2,0.3-1.2,1c0,0.7,0.5,0.9,1.2,0.9c0.8,0,1.6-0.4,1.6-1.5V18.7z"/>
		<path class="st5" d="M277.3,23.2c-0.7,0.7-1.7,1-2.8,1c-1,0-1.9-0.2-2.7-0.7l0.6-1.1c0.5,0.4,1.3,0.6,2.1,0.6
			c1.2,0,2.1-0.5,2.1-1.8v-0.6c-0.5,0.7-1.3,1.1-2.2,1.1c-1.7,0-2.8-1.3-2.8-3c0-1.8,1.2-3.1,2.9-3.1c0.9,0,1.6,0.3,2.1,1.1v-0.9
			h1.3v5.2C278,21.9,277.9,22.6,277.3,23.2z M274.9,16.7c-1.2,0-1.8,0.9-1.8,1.9c0,1.1,0.6,1.9,1.8,1.9c1.2,0,1.8-0.9,1.8-1.9
			C276.7,17.6,276.1,16.7,274.9,16.7z"/>
		<path class="st5" d="M285.6,19.2h-4.8c0.1,1.2,0.8,1.8,1.9,1.8c0.7,0,1.4-0.3,1.8-0.8l0.9,0.8c-0.7,0.7-1.5,1.1-2.7,1.1
			c-2.1,0-3.3-1.4-3.3-3.3c0-1.9,1.2-3.3,3.2-3.3c1.9,0,3.1,1.4,3.1,3.2C285.6,18.9,285.6,19.1,285.6,19.2z M284.3,18.2
			c-0.1-1.1-0.8-1.6-1.7-1.6c-1,0-1.7,0.7-1.7,1.6H284.3z"/>
		<path class="st5" d="M290.5,17.1c-0.2-0.1-0.4-0.2-0.7-0.2c-0.8,0-1.5,0.7-1.5,1.9V22h-1.3v-6.3h1.3v1c0.4-0.7,1-1.1,1.8-1.1
			c0.3,0,0.7,0.1,0.8,0.2L290.5,17.1z"/>
		<path class="st5" d="M291.1,22v-1.5h1.5V22H291.1z"/>
		<path class="st5" d="M296.7,22.1c-1.3,0-2.3-0.5-2.9-1.4l0.9-0.7c0.5,0.7,1.2,1,2.1,1c0.8,0,1.3-0.3,1.3-0.8
			c0-0.6-0.6-0.7-1.6-0.9c-1.3-0.2-2.4-0.6-2.4-1.9c0-1.3,1.2-1.9,2.5-1.9c1.3,0,2.2,0.6,2.7,1.1l-0.8,0.8c-0.4-0.5-1.1-0.8-1.9-0.8
			c-0.6,0-1.2,0.2-1.2,0.7c0,0.6,0.7,0.7,1.5,0.8c1.3,0.2,2.5,0.6,2.5,1.9C299.4,21.3,298.4,22.1,296.7,22.1z"/>
		<path class="st5" d="M300.7,22v-8.6h1.3v3.2c0.5-0.7,1.2-1.1,2.1-1.1c1.4,0,2.2,0.9,2.2,2.3V22H305v-3.8c0-0.7-0.2-1.4-1.2-1.4
			c-0.9,0-1.7,0.7-1.7,1.7V22H300.7z"/>
		<path class="st5" d="M310.8,22.1c-2,0-3.2-1.4-3.2-3.3c0-1.9,1.2-3.3,3.2-3.3c2,0,3.2,1.4,3.2,3.3
			C313.9,20.8,312.7,22.1,310.8,22.1z M310.8,16.7c-1.1,0-1.8,0.9-1.8,2.1c0,1.2,0.6,2.1,1.8,2.1c1.1,0,1.8-0.9,1.8-2.1
			C312.5,17.6,311.9,16.7,310.8,16.7z"/>
		<path class="st5" d="M318.9,17.1c-0.2-0.1-0.4-0.2-0.7-0.2c-0.8,0-1.5,0.7-1.5,1.9V22h-1.3v-6.3h1.3v1c0.4-0.7,1-1.1,1.8-1.1
			c0.3,0,0.7,0.1,0.8,0.2L318.9,17.1z"/>
		<path class="st5" d="M324.1,21.7c-0.4,0.3-0.9,0.5-1.5,0.5c-0.8,0-1.4-0.3-1.7-0.8c-0.2-0.3-0.3-0.7-0.3-1.3v-3.3h-1.1v-1h1.1V14
			h1.3v1.7h1.9v1h-1.9V20c0,0.6,0.3,0.9,0.9,0.9c0.3,0,0.6-0.1,0.8-0.3L324.1,21.7z"/>
		<path class="st5" d="M330.5,20.8c-0.5,0.8-1.4,1.4-2.6,1.4c-1.9,0-3.1-1.4-3.1-3.3c0-1.9,1.2-3.3,3.1-3.3c1.2,0,2.1,0.6,2.6,1.4
			l-1,0.7c-0.3-0.6-0.9-0.9-1.5-0.9c-1.1,0-1.8,0.9-1.8,2.1c0,1.2,0.7,2.1,1.8,2.1c0.7,0,1.2-0.4,1.6-0.9L330.5,20.8z"/>
		<path class="st5" d="M337.2,15.7V22h-1.3v-0.9c-0.5,0.7-1.2,1.1-2.1,1.1c-1.4,0-2.2-0.9-2.2-2.3v-4.1h1.3v3.8
			c0,0.7,0.2,1.4,1.2,1.4c0.9,0,1.7-0.7,1.7-1.7v-3.5H337.2z"/>
		<path class="st5" d="M342.8,21.7c-0.4,0.3-0.9,0.5-1.5,0.5c-0.8,0-1.4-0.3-1.7-0.8c-0.2-0.3-0.3-0.7-0.3-1.3v-3.3h-1.1v-1h1.1V14
			h1.3v1.7h1.9v1h-1.9V20c0,0.6,0.3,0.9,0.9,0.9c0.3,0,0.6-0.1,0.8-0.3L342.8,21.7z"/>
		<path class="st5" d="M343.9,22v-6.3h1.3v0.9c0.5-0.7,1.2-1,2-1c0.9,0,1.6,0.4,1.8,1.2c0.6-0.8,1.3-1.2,2.2-1.2
			c1.4,0,2.1,0.9,2.1,2.3V22H352v-3.8c0-0.7-0.2-1.4-1.2-1.4c-0.9,0-1.5,0.6-1.5,1.7V22h-1.3v-3.8c0-0.7-0.2-1.4-1.2-1.4
			c-0.9,0-1.5,0.6-1.5,1.7V22H343.9z"/>
		<path class="st5" d="M360.8,19.2H356c0.1,1.2,0.8,1.8,1.9,1.8c0.7,0,1.4-0.3,1.8-0.8l0.9,0.8c-0.7,0.7-1.5,1.1-2.7,1.1
			c-2.1,0-3.3-1.4-3.3-3.3c0-1.9,1.2-3.3,3.2-3.3c1.9,0,3.1,1.4,3.1,3.2C360.8,18.9,360.8,19.1,360.8,19.2z M359.5,18.2
			c-0.1-1.1-0.8-1.6-1.7-1.6c-1,0-1.7,0.7-1.7,1.6H359.5z"/>
		<path class="st5" d="M366.8,22v-0.9c-0.6,0.8-1.3,1.1-2.1,1.1c-1.8,0-2.9-1.4-2.9-3.3c0-1.9,1.1-3.3,2.9-3.3
			c0.8,0,1.6,0.3,2.1,1.1v-3.2h1.3V22H366.8z M364.9,16.7c-1.2,0-1.8,0.9-1.8,2.1c0,1.2,0.6,2.1,1.8,2.1c1.2,0,1.8-0.9,1.8-2.1
			C366.8,17.7,366.1,16.7,364.9,16.7z"/>
		<path class="st5" d="M369.8,14.7v-1.2h1.3v1.2H369.8z M369.8,22v-6.3h1.3V22H369.8z"/>
		<path class="st5" d="M378,22.1c-0.6,0-1.1-0.3-1.3-0.9c-0.5,0.7-1.4,1-2.1,1c-1.3,0-2.2-0.7-2.2-1.9c0-1.6,1.4-1.8,2.5-1.9
			c0.9-0.1,1.6-0.2,1.6-0.8c0-0.6-0.7-0.8-1.3-0.8c-0.6,0-1.4,0.2-2,0.6l-0.5-1c0.8-0.5,1.6-0.8,2.6-0.8c1.5,0,2.5,0.6,2.5,2.1v2.9
			c0,0.4,0.1,0.6,0.4,0.6c0.1,0,0.3,0,0.3-0.1l0.1,0.9C378.6,22,378.2,22.1,378,22.1z M376.5,18.7c-0.4,0.5-0.9,0.5-1.6,0.6
			c-0.7,0.1-1.2,0.3-1.2,1c0,0.7,0.5,0.9,1.2,0.9c0.8,0,1.6-0.4,1.6-1.5V18.7z"/>
		<path class="st5" d="M379.7,22v-1.5h1.5V22H379.7z"/>
		<path class="st5" d="M388.3,20.8c-0.5,0.8-1.4,1.4-2.6,1.4c-1.9,0-3.1-1.4-3.1-3.3c0-1.9,1.2-3.3,3.1-3.3c1.2,0,2.1,0.6,2.6,1.4
			l-1,0.7c-0.3-0.6-0.9-0.9-1.5-0.9c-1.1,0-1.8,0.9-1.8,2.1c0,1.2,0.7,2.1,1.8,2.1c0.7,0,1.2-0.4,1.6-0.9L388.3,20.8z"/>
		<path class="st5" d="M392.2,22.1c-2,0-3.2-1.4-3.2-3.3c0-1.9,1.2-3.3,3.2-3.3c2,0,3.2,1.4,3.2,3.3
			C395.4,20.8,394.1,22.1,392.2,22.1z M392.2,16.7c-1.1,0-1.8,0.9-1.8,2.1c0,1.2,0.6,2.1,1.8,2.1c1.1,0,1.8-0.9,1.8-2.1
			C394,17.6,393.3,16.7,392.2,16.7z"/>
		<path class="st5" d="M396.7,22v-6.3h1.3v0.9c0.5-0.7,1.2-1,2-1c0.9,0,1.6,0.4,1.8,1.2c0.6-0.8,1.3-1.2,2.2-1.2
			c1.4,0,2.1,0.9,2.1,2.3V22h-1.3v-3.8c0-0.7-0.2-1.4-1.2-1.4c-0.9,0-1.5,0.6-1.5,1.7V22h-1.3v-3.8c0-0.7-0.2-1.4-1.2-1.4
			c-0.9,0-1.5,0.6-1.5,1.7V22H396.7z"/>
	</g>
</g>
<g id="Visual_1_">
	<g id="Manager_content_1_">
		<g id="Rechteck_54">
			<path class="st6" d="M590,109v300H254V109H590 M591,108H253v301h338V108L591,108z"/>
		</g>
		<g id="Rechteck_55">
			<polygon class="st6" points="232,108 52,108 52,109 232,109 232,108 			"/>
		</g>
		<g id="Rechteck_55_1_">
			<polygon class="st6" points="232,151 52,151 52,152 232,152 232,151 			"/>
		</g>
		<g id="Rechteck_55_2_">
			<polygon class="st6" points="232,194 52,194 52,195 232,195 232,194 			"/>
		</g>
		<g id="Rechteck_55_3_">
			<polygon class="st6" points="232,237 52,237 52,238 232,238 232,237 			"/>
		</g>
		<g id="Analytics_Mobile_Deep_Linking_App_Marketing_1_">
			<g>
				<path class="st7" d="M98.5,136l-0.6-1.8h-3.1l-0.6,1.8H92l3.2-8.5h2.4l3.1,8.5H98.5z M96.4,129.2l-1.1,3.4h2.1L96.4,129.2z"/>
				<path class="st7" d="M101.6,136v-6.8h2v0.8c0.5-0.6,1.3-0.9,2-0.9c1.5,0,2.3,1.1,2.3,2.5v4.5h-2v-4.1c0-0.6-0.2-1.2-1.1-1.2
					c-0.7,0-1.3,0.5-1.3,1.4v3.9H101.6z"/>
				<path class="st7" d="M109.3,129.8c0.9-0.5,1.9-0.8,3-0.8c1.7,0,2.9,0.6,2.9,2.4v2.9c0,0.3,0.1,0.4,0.4,0.4c0.1,0,0.3,0,0.3-0.1
					l0.2,1.2c-0.3,0.2-0.7,0.2-1.1,0.2c-0.7,0-1.2-0.3-1.4-0.9c-0.5,0.7-1.4,0.9-2.2,0.9c-1.4,0-2.4-0.8-2.4-2.1
					c0-1.7,1.4-2,2.5-2.1c1.1-0.1,1.7-0.2,1.7-0.7c0-0.5-0.6-0.7-1.1-0.7c-0.7,0-1.5,0.2-2.2,0.6L109.3,129.8z M113.2,132.7
					c-0.3,0.3-0.7,0.4-1.3,0.4c-0.5,0.1-1,0.2-1,0.8c0,0.5,0.4,0.8,1,0.8c0.7,0,1.3-0.4,1.3-1.3V132.7z"/>
				<path class="st7" d="M117,136v-9.1h2v9.1H117z"/>
				<path class="st7" d="M124.4,136.2c-0.6,1.4-1.2,2.2-2.6,2.2c-0.7,0-1.3-0.2-1.8-0.6l0.7-1.3c0.2,0.2,0.5,0.3,0.8,0.3
					c0.4,0,0.7-0.3,0.9-0.7l0.2-0.3l-2.8-6.6h2.2l1.6,4.3l1.4-4.3h2.1L124.4,136.2z"/>
				<path class="st7" d="M132.6,135.6c-0.5,0.4-1.1,0.6-1.9,0.6c-0.9,0-1.5-0.3-1.9-0.9c-0.3-0.4-0.4-0.9-0.4-1.6v-3.1h-1.1v-1.5
					h1.1v-1.7h2v1.7h1.9v1.5h-1.9v3.1c0,0.5,0.3,0.7,0.7,0.7c0.3,0,0.6-0.1,0.8-0.3L132.6,135.6z"/>
				<path class="st7" d="M133.5,128.3v-1.5h2v1.5H133.5z M133.5,136v-6.8h2v6.8H133.5z"/>
				<path class="st7" d="M143.2,134.5c-0.6,0.9-1.5,1.7-3,1.7c-2.2,0-3.5-1.5-3.5-3.6c0-2,1.4-3.6,3.5-3.6c1.5,0,2.5,0.7,3,1.7
					l-1.5,0.9c-0.3-0.6-0.8-1-1.4-1c-1,0-1.5,0.8-1.5,1.9c0,1.1,0.6,1.9,1.6,1.9c0.7,0,1.1-0.4,1.5-0.9L143.2,134.5z"/>
				<path class="st7" d="M147.2,136.2c-1.5,0-2.8-0.5-3.5-1.7l1.3-0.9c0.5,0.7,1.4,1,2.2,1c0.7,0,1.1-0.2,1.1-0.6
					c0-0.5-0.6-0.6-1.5-0.7c-1.6-0.2-2.8-0.7-2.8-2.2c0-1.5,1.3-2.2,2.9-2.2c1.5,0,2.6,0.7,3.3,1.3l-1.2,1c-0.4-0.4-1.2-0.8-2.1-0.8
					c-0.6,0-1,0.2-1,0.5c0,0.4,0.7,0.5,1.5,0.6c1.6,0.3,2.8,0.8,2.8,2.2C150.3,135.2,149.1,136.2,147.2,136.2z"/>
				<path class="st8" d="M100.9,178v-7.3l-2.8,7.3h-1l-2.8-7.3v7.3h-1.2v-8.5h1.8l2.7,7l2.7-7h1.8v8.5H100.9z"/>
				<path class="st8" d="M107.1,178.2c-2,0-3.3-1.5-3.3-3.5c0-2,1.3-3.5,3.3-3.5c2,0,3.3,1.5,3.3,3.5
					C110.4,176.7,109.1,178.2,107.1,178.2z M107.1,172.2c-1.3,0-2.1,1.1-2.1,2.5c0,1.4,0.8,2.5,2.1,2.5s2.1-1.1,2.1-2.5
					C109.2,173.3,108.4,172.2,107.1,172.2z"/>
				<path class="st8" d="M113,168.9v3.6c0.6-0.9,1.5-1.3,2.4-1.3c1.9,0,3.1,1.5,3.1,3.5c0,2-1.2,3.5-3.1,3.5c-0.9,0-1.7-0.3-2.4-1.2
					v1.1h-1.1v-9.1H113z M115.2,177.1c1.4,0,2.1-1.1,2.1-2.4c0-1.4-0.7-2.5-2.1-2.5s-2.2,1.1-2.2,2.5
					C113,176.1,113.8,177.1,115.2,177.1z"/>
				<path class="st8" d="M120,170v-1.2h1.1v1.2H120z M120,178v-6.7h1.1v6.7H120z"/>
				<path class="st8" d="M123.2,178v-9.1h1.1v9.1H123.2z"/>
				<path class="st8" d="M132.3,174.9h-5.2c0.1,1.4,0.9,2.2,2.2,2.2c0.8,0,1.4-0.3,2-0.9l0.7,0.7c-0.7,0.7-1.6,1.2-2.7,1.2
					c-2.2,0-3.4-1.5-3.4-3.5c0-2,1.2-3.5,3.3-3.5c2,0,3.2,1.5,3.2,3.3C132.3,174.7,132.3,174.9,132.3,174.9z M131.2,174.1
					c-0.1-1.3-1-1.9-2-1.9c-1.2,0-1.9,0.8-2,1.9H131.2z"/>
				<path class="st8" d="M137.4,178v-8.5h3.3c2.6,0,4.1,1.8,4.1,4.3c0,2.4-1.5,4.3-4.1,4.3H137.4z M140.7,176.9
					c1.9,0,2.9-1.3,2.9-3.2c0-1.9-1-3.2-2.9-3.2h-2.1v6.3H140.7z"/>
				<path class="st8" d="M152.5,174.9h-5.2c0.1,1.4,0.9,2.2,2.2,2.2c0.8,0,1.4-0.3,2-0.9l0.7,0.7c-0.7,0.7-1.6,1.2-2.7,1.2
					c-2.2,0-3.4-1.5-3.4-3.5c0-2,1.2-3.5,3.3-3.5c2,0,3.2,1.5,3.2,3.3C152.5,174.7,152.5,174.9,152.5,174.9z M151.4,174.1
					c-0.1-1.3-1-1.9-2-1.9c-1.2,0-1.9,0.8-2,1.9H151.4z"/>
				<path class="st8" d="M160,174.9h-5.2c0.1,1.4,0.9,2.2,2.2,2.2c0.8,0,1.4-0.3,2-0.9l0.7,0.7c-0.7,0.7-1.6,1.2-2.7,1.2
					c-2.2,0-3.4-1.5-3.4-3.5c0-2,1.2-3.5,3.3-3.5c2,0,3.2,1.5,3.2,3.3C160,174.7,160,174.9,160,174.9z M158.9,174.1
					c-0.1-1.3-1-1.9-2-1.9c-1.2,0-1.9,0.8-2,1.9H158.9z"/>
				<path class="st8" d="M162.6,171.3v1.1c0.6-0.9,1.5-1.3,2.4-1.3c1.9,0,3.1,1.5,3.1,3.5c0,2-1.2,3.5-3.1,3.5
					c-0.9,0-1.7-0.3-2.4-1.2v3.3h-1.1v-8.9H162.6z M164.8,177.1c1.4,0,2.1-1.1,2.1-2.4c0-1.4-0.7-2.5-2.1-2.5s-2.2,1.1-2.2,2.5
					C162.6,176,163.4,177.1,164.8,177.1z"/>
				<path class="st8" d="M173.2,178v-8.5h1.2v7.4h4.7v1.1H173.2z"/>
				<path class="st8" d="M180.3,170v-1.2h1.1v1.2H180.3z M180.3,178v-6.7h1.1v6.7H180.3z"/>
				<path class="st8" d="M183.4,178v-6.7h1.1v1.1c0.6-0.8,1.3-1.3,2.3-1.3c1.4,0,2.3,0.9,2.3,2.5v4.3h-1.1v-4c0-0.8-0.2-1.7-1.5-1.7
					c-1.1,0-2,0.8-2,2.1v3.7H183.4z"/>
				<path class="st8" d="M195.5,171.3h1.4l-2.7,2.7l3,3.9h-1.4l-2.4-3.2l-1.3,1.3v1.9h-1.1v-9.1h1.1v5.9L195.5,171.3z"/>
				<path class="st8" d="M198.4,170v-1.2h1.1v1.2H198.4z M198.4,178v-6.7h1.1v6.7H198.4z"/>
				<path class="st8" d="M201.5,178v-6.7h1.1v1.1c0.6-0.8,1.3-1.3,2.3-1.3c1.4,0,2.3,0.9,2.3,2.5v4.3h-1.1v-4c0-0.8-0.2-1.7-1.5-1.7
					c-1.1,0-2,0.8-2,2.1v3.7H201.5z"/>
				<path class="st8" d="M215.3,176.9c0,1-0.2,1.8-0.7,2.4c-0.7,0.8-1.7,1-2.8,1c-1.1,0-2-0.3-2.8-0.8l0.6-0.9
					c0.6,0.4,1.3,0.7,2.2,0.7c1.4,0,2.4-0.6,2.4-2.2v-0.7c-0.5,0.8-1.5,1.2-2.4,1.2c-1.8,0-3-1.4-3-3.2c0-1.9,1.3-3.3,3.1-3.3
					c1,0,1.8,0.4,2.4,1.3v-1.1h1.1V176.9z M212,172.2c-1.4,0-2.1,1-2.1,2.2c0,1.2,0.7,2.3,2.1,2.3c1.4,0,2.2-1,2.2-2.3
					C214.2,173.2,213.4,172.2,212,172.2z"/>
				<path class="st8" d="M99.1,220l-0.9-2.4h-3.8l-0.9,2.4h-1.3l3.5-8.5h1.3l3.5,8.5H99.1z M96.3,212.6l-1.5,3.9h3L96.3,212.6z"/>
				<path class="st8" d="M102.6,213.3v1.1c0.6-0.9,1.5-1.3,2.4-1.3c1.9,0,3.1,1.5,3.1,3.5c0,2-1.2,3.5-3.1,3.5
					c-0.9,0-1.7-0.3-2.4-1.2v3.3h-1.1v-8.9H102.6z M104.8,219.1c1.4,0,2.1-1.1,2.1-2.4c0-1.4-0.7-2.5-2.1-2.5s-2.2,1.1-2.2,2.5
					C102.6,218,103.4,219.1,104.8,219.1z"/>
				<path class="st8" d="M110.8,213.3v1.1c0.6-0.9,1.5-1.3,2.4-1.3c1.9,0,3.1,1.5,3.1,3.5c0,2-1.2,3.5-3.1,3.5
					c-0.9,0-1.7-0.3-2.4-1.2v3.3h-1.1v-8.9H110.8z M112.9,219.1c1.4,0,2.1-1.1,2.1-2.4c0-1.4-0.7-2.5-2.1-2.5s-2.2,1.1-2.2,2.5
					C110.8,218,111.5,219.1,112.9,219.1z"/>
				<path class="st8" d="M129.1,220v-7.3l-2.8,7.3h-1l-2.8-7.3v7.3h-1.2v-8.5h1.8l2.7,7l2.7-7h1.8v8.5H129.1z"/>
				<path class="st8" d="M138.6,220c-0.2,0.1-0.6,0.1-0.8,0.1c-0.6,0-1.2-0.3-1.3-1.1c-0.6,0.8-1.5,1.1-2.3,1.1
					c-1.4,0-2.3-0.8-2.3-2c0-1.5,1.4-1.9,2.3-2c1-0.1,2.1-0.1,2.1-1c0-0.7-0.8-1-1.5-1c-0.7,0-1.5,0.2-2.1,0.7l-0.5-0.8
					c0.8-0.5,1.6-0.8,2.7-0.8c1.5,0,2.6,0.6,2.6,2.2v3.1c0,0.5,0.2,0.7,0.5,0.7c0.2,0,0.3,0,0.4-0.1L138.6,220z M136.4,216.3
					c-0.4,0.6-1.1,0.6-1.9,0.7c-0.8,0.1-1.4,0.3-1.4,1.1c0,0.8,0.6,1.1,1.4,1.1c1,0,1.9-0.5,1.9-1.8V216.3z"/>
				<path class="st8" d="M143.3,214.5c-0.2-0.1-0.5-0.2-0.8-0.2c-0.9,0-1.7,0.8-1.7,2.2v3.5h-1.1v-6.7h1.1v1.1
					c0.4-0.7,1.1-1.3,1.9-1.3c0.4,0,0.7,0.1,0.9,0.2L143.3,214.5z"/>
				<path class="st8" d="M149.2,213.3h1.4l-2.7,2.7l3,3.9h-1.4l-2.4-3.2l-1.3,1.3v1.9h-1.1v-9.1h1.1v5.9L149.2,213.3z"/>
				<path class="st8" d="M157.7,216.9h-5.2c0.1,1.4,0.9,2.2,2.2,2.2c0.8,0,1.4-0.3,2-0.9l0.7,0.7c-0.7,0.7-1.6,1.2-2.7,1.2
					c-2.2,0-3.4-1.5-3.4-3.5c0-2,1.2-3.5,3.3-3.5c2,0,3.2,1.5,3.2,3.3C157.8,216.7,157.7,216.9,157.7,216.9z M156.6,216.1
					c-0.1-1.3-1-1.9-2-1.9c-1.2,0-1.9,0.8-2,1.9H156.6z"/>
				<path class="st8" d="M163.1,219.7c-0.4,0.3-0.9,0.4-1.4,0.4c-0.8,0-1.4-0.3-1.7-0.8c-0.2-0.3-0.3-0.7-0.3-1.3v-3.7h-1.2v-0.9
					h1.2v-1.9h1.1v1.9h2.2v0.9h-2.2v3.7c0,0.8,0.3,1.2,1,1.2c0.4,0,0.7-0.1,0.9-0.3L163.1,219.7z"/>
				<path class="st8" d="M164.3,212v-1.2h1.1v1.2H164.3z M164.3,220v-6.7h1.1v6.7H164.3z"/>
				<path class="st8" d="M167.4,220v-6.7h1.1v1.1c0.6-0.8,1.3-1.3,2.3-1.3c1.4,0,2.3,0.9,2.3,2.5v4.3H172v-4c0-0.8-0.2-1.7-1.5-1.7
					c-1.1,0-2,0.8-2,2.1v3.7H167.4z"/>
				<path class="st8" d="M181.2,218.9c0,1-0.2,1.8-0.7,2.4c-0.7,0.8-1.7,1-2.8,1c-1.1,0-2-0.3-2.8-0.8l0.6-0.9
					c0.6,0.4,1.3,0.7,2.2,0.7c1.4,0,2.4-0.6,2.4-2.2v-0.7c-0.5,0.8-1.5,1.2-2.4,1.2c-1.8,0-3-1.4-3-3.2c0-1.9,1.3-3.3,3.1-3.3
					c1,0,1.8,0.4,2.4,1.3v-1.1h1.1V218.9z M177.9,214.2c-1.4,0-2.1,1-2.1,2.2c0,1.2,0.7,2.3,2.1,2.3c1.4,0,2.2-1,2.2-2.3
					C180.1,215.2,179.3,214.2,177.9,214.2z"/>
			</g>
		</g>
		<g id="Form_3">
			<path class="st9" d="M78,161H61v23h1v-13h16l-6-5L78,161z M75.1,170H62v-8h13.1l-3.7,3.2l-1,0.8l1,0.8L75.1,170z"/>
		</g>
		<g id="Form_1">
			<path class="st9" d="M77,206h-9v2h9V206z M64,209c1.1,0,2-0.9,2-2c0-1.1-0.9-2-2-2c-1.1,0-2,0.9-2,2C62,208.1,62.9,209,64,209z
				 M60,203v25h20v-25H60z M79,227H61v-16h18V227z M79,210H61v-6h18V210z"/>
		</g>
		<g id="Form_2">
			<path class="st10" d="M75,123h3v16h1v-17h-5v17h1V123z M73,139v-8h-5v8h-1v-13h-5v13h-2v-20h-1v21h21v-1H73z M66,139h-3v-12h3
				V139z M72,139h-3v-7h3V139z"/>
		</g>
		<g id="Gruppe_3_1_">
			<g id="Abgerundetes_Rechteck_15">
				<path class="st6" d="M228,256h-49c-2.2,0-4,1.8-4,4v15c0,2.2,1.8,4,4,4h49c2.2,0,4-1.8,4-4v-15C232,257.8,230.2,256,228,256z"/>
			</g>
			<g id="EDIT">
				<g>
					<path class="st11" d="M190.2,272v-8.5h6v1.1h-4.8v2.4h4.2v1h-4.2v2.9h5v1.1H190.2z"/>
					<path class="st11" d="M198.1,272v-8.5h3.3c2.6,0,4.1,1.8,4.1,4.3c0,2.4-1.5,4.3-4.1,4.3H198.1z M201.4,270.9
						c1.9,0,2.9-1.3,2.9-3.2c0-1.9-1-3.2-2.9-3.2h-2.1v6.3H201.4z"/>
					<path class="st11" d="M207.3,272v-8.5h1.2v8.5H207.3z"/>
					<path class="st11" d="M214.1,264.6v7.4h-1.2v-7.4H210v-1.1h7v1.1H214.1z"/>
				</g>
			</g>
		</g>
		<g id="Inner_1_">
			<g id="B_Graph_3_">
				<g id="Rectangle_25_copy_2">
					<path class="st12" d="M408,318v40h-6v-40H408 M394,328v30h-6v-30H394 M337,328v30h-6v-30H337 M351,341v17h-6v-17H351 M308,341
						v17h-6v-17H308 M366,347v11h-6v-11H366 M323,347v11h-6v-11H323 M380,348v10h-6v-10H380 M409,317h-8v42h8V317L409,317z M395,327
						h-8v32h8V327L395,327z M338,327h-8v32h8V327L338,327z M352,340h-8v19h8V340L352,340z M309,340h-8v19h8V340L309,340z M367,346
						h-8v13h8V346L367,346z M324,346h-8v13h8V346L324,346z M381,347h-8v12h8V347L381,347z"/>
				</g>
				<g id="Rechteck_56">
					<polygon class="st12" points="295,358 295,290 294,290 294,359 409,359 409,358 					"/>
				</g>
				<g id="Last_Month">
					<g>
						<path class="st8" d="M293.1,260v-8h1.1v7h4.4v1H293.1z"/>
						<path class="st8" d="M305.4,260l-0.9-2.2H301l-0.9,2.2h-1.2l3.3-8h1.2l3.3,8H305.4z M302.8,253.1l-1.4,3.7h2.8L302.8,253.1z"
							/>
						<path class="st8" d="M313.4,253.3l-0.9,0.6c-0.5-0.7-1.3-1-2.2-1c-0.8,0-1.6,0.3-1.6,1.2s0.8,1,1.8,1.3c1.5,0.4,3,0.8,3,2.4
							c0,1.5-1.2,2.4-3,2.4c-1.5,0-2.7-0.6-3.2-1.6l0.9-0.6c0.6,0.9,1.5,1.2,2.4,1.2c1.1,0,1.8-0.5,1.8-1.4c0-0.9-0.9-1.1-2.1-1.4
							c-1.4-0.3-2.6-0.7-2.6-2.3c0-1.4,1.2-2.3,2.8-2.3C311.6,251.9,312.7,252.4,313.4,253.3z"/>
						<path class="st8" d="M318.2,253v7h-1.1v-7h-2.7v-1h6.6v1H318.2z"/>
						<path class="st8" d="M332.9,260v-6.8l-2.6,6.8h-1l-2.6-6.8v6.8h-1.1v-8h1.7l2.5,6.6l2.5-6.6h1.6v8H332.9z"/>
						<path class="st8" d="M339.5,260.1c-2.4,0-3.9-1.8-3.9-4.1s1.5-4.1,3.9-4.1s3.9,1.8,3.9,4.1S341.9,260.1,339.5,260.1z
							 M339.5,252.9c-1.7,0-2.7,1.3-2.7,3.1c0,1.8,1,3.1,2.7,3.1c1.7,0,2.7-1.3,2.7-3.1C342.2,254.2,341.2,252.9,339.5,252.9z"/>
						<path class="st8" d="M350.3,260l-4.2-6.6v6.6h-1.1v-8h1.4l4.1,6.4V252h1.1v8H350.3z"/>
						<path class="st8" d="M356.9,253v7h-1.1v-7h-2.7v-1h6.6v1H356.9z"/>
						<path class="st8" d="M366.5,260v-3.7h-4.3v3.7H361v-8h1.1v3.2h4.3V252h1.1v8H366.5z"/>
					</g>
				</g>
			</g>
			<g id="B_Graph_2_">
				<g id="Rechteck_56_1_">
					<polygon class="st12" points="437,358 437,290 436,290 436,359 551,359 551,358 					"/>
				</g>
				<g id="Rectangle_25_copy_2_1_">
					<path class="st12" d="M550,288v70h-6v-70H550 M522,300v58h-6v-58H522 M536,308v50h-6v-50H536 M493,313v45h-6v-45H493 M450,313
						v45h-6v-45H450 M508,319v39h-6v-39H508 M465,319v39h-6v-39H465 M479,330v28h-6v-28H479 M551,287h-8v72h8V287L551,287z M523,299
						h-8v60h8V299L523,299z M537,307h-8v52h8V307L537,307z M494,312h-8v47h8V312L494,312z M451,312h-8v47h8V312L451,312z M509,318
						h-8v41h8V318L509,318z M466,318h-8v41h8V318L466,318z M480,329h-8v30h8V329L480,329z"/>
				</g>
				<g id="This_Month">
					<g>
						<path class="st8" d="M438.1,253v7H437v-7h-2.7v-1h6.6v1H438.1z"/>
						<path class="st8" d="M447.7,260v-3.7h-4.3v3.7h-1.1v-8h1.1v3.2h4.3V252h1.1v8H447.7z"/>
						<path class="st8" d="M451,260v-8h1.1v8H451z"/>
						<path class="st8" d="M459.8,253.3l-0.9,0.6c-0.5-0.7-1.3-1-2.2-1c-0.8,0-1.6,0.3-1.6,1.2s0.8,1,1.8,1.3c1.5,0.4,3,0.8,3,2.4
							c0,1.5-1.2,2.4-3,2.4c-1.5,0-2.7-0.6-3.3-1.6l0.9-0.6c0.6,0.9,1.5,1.2,2.4,1.2c1.1,0,1.8-0.5,1.8-1.4c0-0.9-0.9-1.1-2.1-1.4
							c-1.4-0.3-2.6-0.7-2.6-2.3c0-1.4,1.2-2.3,2.8-2.3C458,251.9,459.1,252.4,459.8,253.3z"/>
						<path class="st8" d="M472.1,260v-6.8l-2.6,6.8h-1l-2.6-6.8v6.8h-1.1v-8h1.7l2.5,6.6l2.5-6.6h1.6v8H472.1z"/>
						<path class="st8" d="M478.7,260.1c-2.4,0-3.9-1.8-3.9-4.1s1.5-4.1,3.9-4.1s3.9,1.8,3.9,4.1S481.1,260.1,478.7,260.1z
							 M478.7,252.9c-1.7,0-2.7,1.3-2.7,3.1c0,1.8,1,3.1,2.7,3.1c1.7,0,2.7-1.3,2.7-3.1C481.4,254.2,480.4,252.9,478.7,252.9z"/>
						<path class="st8" d="M489.5,260l-4.2-6.6v6.6h-1.1v-8h1.4l4.1,6.4V252h1.1v8H489.5z"/>
						<path class="st8" d="M496.1,253v7H495v-7h-2.7v-1h6.6v1H496.1z"/>
						<path class="st8" d="M505.7,260v-3.7h-4.3v3.7h-1.1v-8h1.1v3.2h4.3V252h1.1v8H505.7z"/>
					</g>
				</g>
			</g>
			<g id="Rechteck_53">
				<path class="st6" d="M294,182v6h227v-6H294z M481,193H294v6h187V193z M294,210.7h217v-6H294V210.7z M294,222h137v-6H294V222z"/>
			</g>
			<g id="Your_campaign">
				<g>
					<path class="st7" d="M302.1,156v5.1h-3.2V156l-5.1-8.2h3.7l3,5.3l3-5.3h3.7L302.1,156z"/>
					<path class="st7" d="M311.8,161.4c-3.5,0-5.7-2.2-5.7-5.6c0-3.3,2.2-5.6,5.7-5.6c3.5,0,5.7,2.3,5.7,5.6
						C317.5,159.1,315.3,161.4,311.8,161.4z M311.8,152.8c-1.6,0-2.4,1.3-2.4,3c0,1.8,0.9,3,2.4,3c1.6,0,2.4-1.3,2.4-3
						C314.2,154,313.4,152.8,311.8,152.8z"/>
					<path class="st7" d="M329.2,150.4v10.7h-3.1v-1.2c-0.8,0.9-2,1.4-3.2,1.4c-2.4,0-3.6-1.7-3.6-3.8v-7.1h3.1v6.4
						c0,0.9,0.3,1.8,1.7,1.8c1.1,0,2.1-0.7,2.1-2.1v-6.1H329.2z"/>
					<path class="st7" d="M338.2,153.6c-0.3-0.2-0.7-0.3-1.2-0.3c-1.3,0-2.2,1.1-2.2,2.6v5.2h-3.1v-10.7h3.1v1.6
						c0.7-1.1,1.7-1.8,2.8-1.8c0.5,0,1.1,0.1,1.4,0.3L338.2,153.6z"/>
					<path class="st7" d="M355.2,158.8c-0.9,1.5-2.4,2.6-4.7,2.6c-3.4,0-5.5-2.4-5.5-5.6c0-3.2,2.1-5.6,5.5-5.6
						c2.3,0,3.9,1.2,4.8,2.7l-2.4,1.4c-0.5-0.9-1.2-1.5-2.2-1.5c-1.5,0-2.4,1.3-2.4,3c0,1.8,0.9,3,2.5,3c1.1,0,1.7-0.6,2.3-1.5
						L355.2,158.8z"/>
					<path class="st7" d="M356.6,151.4c1.5-0.8,3-1.2,4.6-1.2c2.7,0,4.6,1,4.6,3.7v4.6c0,0.5,0.2,0.7,0.6,0.7c0.2,0,0.4,0,0.5-0.1
						l0.3,1.9c-0.4,0.3-1.2,0.4-1.7,0.4c-1,0-1.9-0.4-2.3-1.4c-0.8,1.1-2.1,1.4-3.4,1.4c-2.2,0-3.7-1.2-3.7-3.3
						c0-2.6,2.3-3.1,3.9-3.3c1.7-0.2,2.6-0.2,2.6-1c0-0.8-1-1-1.7-1c-1.1,0-2.4,0.3-3.4,1L356.6,151.4z M362.7,156
						c-0.4,0.5-1.1,0.6-2,0.7c-0.8,0.1-1.5,0.3-1.5,1.3c0,0.8,0.6,1.2,1.5,1.2c1.1,0,2-0.6,2-2V156z"/>
					<path class="st7" d="M368.6,161.1v-10.7h3.1v1.2c0.8-0.9,1.9-1.4,3.1-1.4c1.5,0,2.5,0.7,3,1.8c1-1.3,2.3-1.8,3.6-1.8
						c2.4,0,3.6,1.7,3.6,3.8v7.1h-3.1v-6.4c0-0.9-0.3-1.8-1.6-1.8c-1.1,0-1.9,0.7-1.9,2.1v6.1h-3.1v-6.4c0-0.9-0.3-1.8-1.6-1.8
						c-1.1,0-1.9,0.7-1.9,2.1v6.1H368.6z"/>
					<path class="st7" d="M390.4,150.4v1.2c0.9-1,2-1.5,3.3-1.5c3,0,4.9,2.4,4.9,5.6c0,3.2-1.9,5.6-4.9,5.6c-1.3,0-2.4-0.5-3.3-1.4
						v4.7h-3.1v-14.2H390.4z M392.9,158.7c1.6,0,2.4-1.4,2.4-2.9c0-1.6-0.8-2.9-2.4-2.9c-1.7,0-2.5,1.3-2.5,2.9
						C390.4,157.4,391.2,158.7,392.9,158.7z"/>
					<path class="st7" d="M400.1,151.4c1.5-0.8,3-1.2,4.6-1.2c2.7,0,4.6,1,4.6,3.7v4.6c0,0.5,0.2,0.7,0.6,0.7c0.2,0,0.4,0,0.5-0.1
						l0.3,1.9c-0.4,0.3-1.2,0.4-1.7,0.4c-1,0-1.9-0.4-2.3-1.4c-0.8,1.1-2.1,1.4-3.4,1.4c-2.2,0-3.7-1.2-3.7-3.3
						c0-2.6,2.3-3.1,3.9-3.3c1.7-0.2,2.6-0.2,2.6-1c0-0.8-1-1-1.7-1c-1.1,0-2.4,0.3-3.4,1L400.1,151.4z M406.2,156
						c-0.4,0.5-1.1,0.6-2,0.7c-0.8,0.1-1.5,0.3-1.5,1.3c0,0.8,0.6,1.2,1.5,1.2c1.1,0,2-0.6,2-2V156z"/>
					<path class="st7" d="M412.1,149.1v-2.3h3.1v2.3H412.1z M412.1,161.1v-10.7h3.1v10.7H412.1z"/>
					<path class="st7" d="M428.3,159c0,1.7-0.3,3-1.2,4.1c-1.2,1.4-3.2,1.7-5,1.7c-1.8,0-3.3-0.4-4.7-1.2l1.1-2.4
						c0.9,0.6,2.1,1,3.5,1c1.8,0,3.2-0.7,3.2-2.5V159c-0.8,1-2,1.4-3.3,1.4c-2.9,0-4.8-2.2-4.8-5.1c0-2.9,1.9-5.2,4.8-5.2
						c1.4,0,2.5,0.5,3.3,1.5v-1.2h3.1V159z M422.8,152.7c-1.6,0-2.4,1.1-2.4,2.6s0.8,2.6,2.4,2.6c1.6,0,2.5-1.2,2.5-2.6
						C425.3,153.9,424.4,152.7,422.8,152.7z"/>
					<path class="st7" d="M430.8,161.1v-10.7h3.1v1.2c0.8-0.9,2-1.5,3.2-1.5c2.4,0,3.6,1.7,3.6,3.8v7.1h-3.1v-6.4
						c0-0.9-0.3-1.8-1.7-1.8c-1.1,0-2.1,0.7-2.1,2.1v6.1H430.8z"/>
				</g>
			</g>
		</g>
	</g>
</g>
</svg>
