<?xml version="1.0" encoding="utf-8"?>
<!-- Generator: Adobe Illustrator 19.1.0, SVG Export Plug-In . SVG Version: 6.00 Build 0)  -->
<svg version="1.1" id="Layer_1" xmlns="http://www.w3.org/2000/svg" xmlns:xlink="http://www.w3.org/1999/xlink" x="0px" y="0px"
	 width="318px" height="402.6px" viewBox="-107.5 219.3 318 402.6" style="enable-background:new -107.5 219.3 318 402.6;"
	 xml:space="preserve">
<style type="text/css">
	.st0{fill:#EBEBEB;}
	.st1{fill:#DDDDDD;}
	.st2{fill:#78D298;}
	.st3{fill:#2C2C2C;}
	.st4{fill:#EEEEEE;}
	.st5{fill:#999999;}
</style>
<path class="st0" d="M-41.8,621.6v-7.8c0-2.2,1.8-4,4-4h14.4c2.2,0,4,1.8,4,4v7.8h7.6v-7.8c0-2.2,1.8-4,4-4H6.6c2.2,0,4,1.8,4,4v7.8
	h8.7v-7.8c0-2.2,1.8-4,4-4h14.4c2.2,0,4,1.8,4,4v7.8h8.7v-7.8c0-2.2,1.8-4,4-4h14.4c2.2,0,4,1.8,4,4v7.8H81v-7.8c0-2.2,1.8-4,4-4h14
	c2.2,0,4,1.8,4,4v7.8h8.4v-7.8c0-2.2,1.8-4,4-4h14.4c2.2,0,4,1.8,4,4v7.8h28.9v-45.7H-69.5v45.7H-41.8z M128.1,587.2
	c0-2.2,1.8-4,4-4h14.4c2.2,0,4,1.8,4,4v14.1c0,2.2-1.8,4-4,4h-14.4c-2.2,0-4-1.8-4-4V587.2z M99.2,587.2c0-2.2,1.8-4,4-4h14.4
	c2.2,0,4,1.8,4,4v14.1c0,2.2-1.8,4-4,4h-14.4c-2.2,0-4-1.8-4-4V587.2z M68.7,587.2c0-2.2,1.8-4,4-4h14.1c2.2,0,4,1.8,4,4v14.1
	c0,2.2-1.8,4-4,4H72.7c-2.2,0-4-1.8-4-4V587.2z M38.2,587.2c0-2.2,1.8-4,4-4h14.4c2.2,0,4,1.8,4,4v14.1c0,2.2-1.8,4-4,4H42.2
	c-2.2,0-4-1.8-4-4V587.2z M7.1,587.2c0-2.2,1.8-4,4-4h14.4c2.2,0,4,1.8,4,4v14.1c0,2.2-1.8,4-4,4H11.1c-2.2,0-4-1.8-4-4V587.2z
	 M-24,587.2c0-2.2,1.8-4,4-4h14.4c2.2,0,4,1.8,4,4v14.1c0,2.2-1.8,4-4,4H-20c-2.2,0-4-1.8-4-4V587.2z M-55.1,587.2c0-2.2,1.8-4,4-4
	h14.4c2.2,0,4,1.8,4,4v14.1c0,2.2-1.8,4-4,4h-14.4c-2.2,0-4-1.8-4-4V587.2z"/>
<g id="ear">
	<path class="st1" d="M68.8,261.3c2.4,0,4.4,2,4.4,4.4s-2,4.4-4.4,4.4H29.5c-2.4,0-4.4-2-4.4-4.4s2-4.4,4.4-4.4H68.8 M68.8,260.3
		H29.5c-3,0-5.4,2.4-5.4,5.4s2.4,5.4,5.4,5.4h39.3c3,0,5.4-2.4,5.4-5.4C74.1,262.7,71.7,260.3,68.8,260.3L68.8,260.3z"/>
</g>
<path class="st1" d="M-80.6,621.6V256.1c0-19.2,15.6-34.8,34.9-34.8h189.3c19.2,0,34.9,15.6,34.9,34.8v365.5h2V256.1
	c0-20.3-16.5-36.8-36.9-36.8H-45.7c-20.3,0-36.9,16.5-36.9,36.8v365.5H-80.6z"/>
<path class="st1" d="M-68.9,621.6V298.2h231L162,621.6h1l0.1-323.6c0-0.4-0.3-0.8-0.8-0.8H-69.1c-0.4,0-0.8,0.3-0.8,0.8v323.6H-68.9
	z"/>
<g>
	<path class="st2" d="M135.5,544.6c-1.3,0-1.9,1-1.9,2.3s0.6,2.3,1.9,2.3s2-1,2-2.3S136.8,544.6,135.5,544.6z"/>
	<path class="st2" d="M93,535.4v21h63v-21H93z M112.5,550.5c-1.4,0-2.5-0.5-3.2-1.5l1-0.7c0.5,0.7,1.4,1.1,2.2,1.1s1.4-0.3,1.4-0.9
		c0-0.6-0.6-0.8-1.7-0.9c-1.4-0.2-2.6-0.6-2.6-2.1c0-1.4,1.3-2.1,2.7-2.1s2.4,0.6,2.9,1.2l-0.9,0.8c-0.5-0.5-1.2-0.9-2-0.9
		c-0.6,0-1.3,0.2-1.3,0.8c0,0.6,0.7,0.7,1.6,0.9c1.5,0.3,2.7,0.6,2.7,2.1C115.4,549.6,114.3,550.5,112.5,550.5z M123.2,547.3H118
		c0.1,1.2,0.9,1.9,2.1,1.9c0.8,0,1.5-0.3,2-0.9l0.9,0.9c-0.7,0.8-1.7,1.2-3,1.2c-2.3,0-3.6-1.5-3.6-3.5s1.3-3.6,3.4-3.6
		c2.1,0,3.3,1.5,3.3,3.4C123.2,547,123.2,547.1,123.2,547.3z M130.6,550.3h-1.4v-4.1c0-0.7-0.2-1.5-1.4-1.5c-1,0-1.8,0.7-1.8,1.8
		v3.8h-1.4v-6.8h1.4v1c0.6-0.7,1.3-1.2,2.2-1.2c1.5,0,2.4,1,2.4,2.5V550.3z M138.9,550.3h-1.4v-1c-0.6,0.8-1.4,1.2-2.3,1.2
		c-1.9,0-3.1-1.5-3.1-3.6c0-2,1.2-3.6,3.1-3.6c0.9,0,1.7,0.3,2.3,1.2V541h1.4V550.3z"/>
	<path class="st2" d="M119.9,544.5c-1.1,0-1.8,0.7-1.9,1.7h3.8C121.7,545.1,120.9,544.5,119.9,544.5z"/>
</g>
<g>
	<polygon class="st3" points="-40.9,475.3 -47,475.3 -47,465.6 -48.2,465.6 -48.2,476.3 -40.9,476.3 	"/>
	<path class="st3" d="M-36.1,476.5c2.4,0,3.9-1.9,3.9-4.3c0-2.5-1.5-4.3-3.9-4.3s-3.9,1.9-3.9,4.3S-38.5,476.5-36.1,476.5z
		 M-36.1,468.8c1.8,0,2.8,1.5,2.8,3.3s-1,3.3-2.8,3.3s-2.8-1.5-2.8-3.3S-37.9,468.8-36.1,468.8z"/>
	<path class="st3" d="M-26.6,476.5c2.4,0,4-1.9,4-4.3c0-2.5-1.5-4.3-4-4.3s-3.9,1.9-3.9,4.3C-30.6,474.6-29.1,476.5-26.6,476.5z
		 M-26.6,468.8c1.8,0,2.8,1.5,2.8,3.3s-1,3.3-2.8,3.3s-2.8-1.5-2.8-3.3C-29.5,470.3-28.4,468.8-26.6,468.8z"/>
	<polygon class="st3" points="-19.5,473.9 -17.9,472.2 -14.6,476.3 -13.2,476.3 -17.1,471.5 -13.7,468.1 -15,468.1 -19.5,472.6 
		-19.5,464.9 -20.6,464.9 -20.6,476.3 -19.5,476.3 	"/>
	<polygon class="st3" points="-4.8,476.3 -2.6,469.4 -0.4,476.3 0.8,476.3 3,468.1 2,468.1 0.2,475.2 -2.1,468.1 -3.1,468.1 
		-5.4,475.2 -7.3,468.1 -8.3,468.1 -6,476.3 	"/>
	<path class="st3" d="M5.9,471.8c0-1.7,1.2-2.9,2.8-2.9c1.7,0,2,1.3,2,2.4v5h1V471c0-2.1-1.2-3.2-2.9-3.2c-1.3,0-2.2,0.6-2.9,1.7
		v-4.6h-1v11.4h1V471.8z"/>
	<path class="st3" d="M16.4,471.6c-1.1,0.2-2.8,0.5-2.8,2.4c0,1.5,1.1,2.5,2.8,2.5c1,0,2.1-0.4,2.9-1.5c0.1,1,0.8,1.4,1.6,1.4
		c0.2,0,0.6,0,0.8-0.1l-0.1-0.8c-0.1,0.1-0.3,0.1-0.5,0.1c-0.5,0-0.7-0.3-0.7-1v-4c0-1.8-1.3-2.6-3.1-2.6c-1.3,0-2.3,0.4-3.2,1.1
		l0.6,0.8c0.8-0.6,1.6-0.9,2.6-0.9s2,0.3,2,1.3C19.2,471.4,17.8,471.4,16.4,471.6z M19.3,471.5v1.6c0,1.8-1.4,2.5-2.7,2.5
		c-1.1,0-1.9-0.4-1.9-1.6c0-1.1,0.8-1.4,1.9-1.5C17.7,472.3,18.7,472.3,19.3,471.5z"/>
	<path class="st3" d="M23.7,473.9c0,0.8,0.1,1.2,0.3,1.5c0.4,0.7,1.2,1.1,2.1,1.1c0.6,0,1.2-0.1,1.6-0.5l-0.5-0.8
		c-0.2,0.2-0.6,0.3-1.1,0.3c-1,0-1.4-0.6-1.4-1.6V469h2.8v-0.9h-2.8v-2.4h-1v2.4h-1.5v0.9h1.5L23.7,473.9L23.7,473.9z"/>
	<rect x="33.8" y="465.6" class="st3" width="1.1" height="10.7"/>
	<path class="st3" d="M42.6,476.3h1V469h2v-0.9h-2v-1.2c0-0.9,0.4-1.2,1.2-1.2c0.4,0,0.8,0.1,1,0.1l0.2-0.9
		c-0.2-0.1-0.8-0.2-1.2-0.2c-1.3,0-2.3,0.6-2.3,2.2v1.2H41v0.9h1.5v7.3H42.6z"/>
	<path class="st3" d="M50.7,476.5c2.4,0,3.9-1.9,3.9-4.3c0-2.5-1.5-4.3-3.9-4.3s-3.9,1.9-3.9,4.3S48.3,476.5,50.7,476.5z
		 M50.7,468.8c1.8,0,2.8,1.5,2.8,3.3s-1,3.3-2.8,3.3s-2.8-1.5-2.8-3.3S48.9,468.8,50.7,468.8z"/>
	<path class="st3" d="M59.6,476.5c1.3,0,2.2-0.6,2.9-1.7v1.5h1v-8.2h-1v4.5c0,1.7-1.2,2.9-2.8,2.9c-1.7,0-2-1.3-2-2.4v-5h-1v5.3
		C56.7,475.4,57.8,476.5,59.6,476.5z"/>
	<path class="st3" d="M67.2,471.8c0-1.7,1.2-2.9,2.8-2.9c1.7,0,2,1.3,2,2.4v5h1V471c0-2.1-1.2-3.2-2.9-3.2c-1.3,0-2.2,0.6-2.9,1.7
		V468h-1v8.2h1L67.2,471.8L67.2,471.8z"/>
	<path class="st3" d="M78.9,476.5c1.2,0,2.3-0.4,3.1-1.7v1.5h1v-11.4h-1v4.7c-0.8-1.2-1.9-1.7-3.1-1.7c-2.4,0-3.8,1.9-3.8,4.3
		C75.1,474.6,76.5,476.5,78.9,476.5z M79,468.9c1.9,0,2.9,1.5,2.9,3.3s-1,3.3-2.9,3.3s-2.8-1.5-2.8-3.3
		C76.2,470.3,77.1,468.9,79,468.9z"/>
	<path class="st3" d="M-47.9,493.8c0,0.8,0.1,1.2,0.3,1.5c0.4,0.7,1.2,1.1,2.1,1.1c0.6,0,1.2-0.1,1.6-0.5l-0.5-0.8
		c-0.2,0.2-0.6,0.3-1.1,0.3c-1,0-1.4-0.6-1.4-1.6v-4.9h2.8V488h-2.8v-2.4h-1v2.4h-1.5v0.9h1.5V493.8z"/>
	<path class="st3" d="M-35,492.1c0-2.5-1.5-4.3-4-4.3s-3.9,1.9-3.9,4.3s1.5,4.3,3.9,4.3S-35,494.5-35,492.1z M-41.8,492.1
		c0-1.9,1-3.3,2.8-3.3s2.8,1.5,2.8,3.3s-1,3.3-2.8,3.3C-40.7,495.4-41.8,493.9-41.8,492.1z"/>
	<path class="st3" d="M-25.5,496.2v-11.4h-1v4.7c-0.8-1.2-1.9-1.7-3.1-1.7c-2.4,0-3.8,1.9-3.8,4.3s1.4,4.3,3.8,4.3
		c1.2,0,2.3-0.4,3.1-1.7v1.5L-25.5,496.2L-25.5,496.2z M-29.5,495.4c-1.9,0-2.8-1.5-2.8-3.3c0-1.9,0.9-3.3,2.8-3.3s2.9,1.5,2.9,3.3
		C-26.5,493.9-27.5,495.4-29.5,495.4z"/>
	<path class="st3" d="M-20.7,491.5c-1.1,0.2-2.8,0.5-2.8,2.4c0,1.5,1.1,2.5,2.8,2.5c1,0,2.1-0.4,2.9-1.5c0.1,1,0.8,1.4,1.6,1.4
		c0.2,0,0.6,0,0.8-0.1l-0.1-0.8c-0.1,0.1-0.3,0.1-0.5,0.1c-0.5,0-0.7-0.3-0.7-1v-4c0-1.8-1.3-2.6-3.1-2.6c-1.3,0-2.3,0.4-3.2,1.1
		l0.6,0.8c0.8-0.6,1.6-0.9,2.6-0.9s2,0.3,2,1.3C-17.9,491.3-19.3,491.3-20.7,491.5z M-17.8,491.4v1.6c0,1.8-1.4,2.5-2.7,2.5
		c-1.1,0-1.9-0.4-1.9-1.6c0-1.1,0.8-1.4,1.9-1.5C-19.4,492.2-18.5,492.2-17.8,491.4z"/>
	<path class="st3" d="M-15.2,488l3.5,8.3l-0.2,0.5c-0.3,0.8-0.8,1.4-1.6,1.4c-0.4,0-0.7-0.1-1-0.3l-0.5,0.8c0.4,0.3,0.9,0.4,1.5,0.4
		c1.5,0,2.1-0.9,2.7-2.5l3.3-8.7h-1.1l-2.6,6.9l-2.9-6.9h-1.1V488z"/>
	<path class="st3" d="M-6.5,498.1l0.4,0.4c0.6-0.6,1-1.3,1-2.2v-1.4h-1.4v1.4h0.7v0.4C-5.7,497.1-5.9,497.6-6.5,498.1z"/>
	<path class="st3" d="M2.3,485.5v2.4H0.8v0.9h1.5v4.9c0,0.8,0.1,1.2,0.3,1.5c0.4,0.7,1.2,1.1,2.1,1.1c0.6,0,1.2-0.1,1.6-0.5L5.8,495
		c-0.2,0.2-0.6,0.3-1.1,0.3c-1,0-1.4-0.6-1.4-1.6v-4.8h2.8V488H3.3v-2.4h-1V485.5z"/>
	<path class="st3" d="M8.9,489.5v-4.7h-1v11.4h1v-4.5c0-1.7,1.2-2.9,2.8-2.9c1.7,0,2,1.3,2,2.4v5h1v-5.3c0-2.1-1.2-3.2-2.9-3.2
		C10.5,487.8,9.6,488.4,8.9,489.5z"/>
	<path class="st3" d="M19.4,491.5c-1.1,0.2-2.8,0.5-2.8,2.4c0,1.5,1.1,2.5,2.8,2.5c1,0,2.1-0.4,2.9-1.5c0.1,1,0.8,1.4,1.6,1.4
		c0.2,0,0.6,0,0.8-0.1l-0.1-0.8c-0.1,0.1-0.3,0.1-0.5,0.1c-0.5,0-0.7-0.3-0.7-1v-4c0-1.8-1.3-2.6-3.1-2.6c-1.3,0-2.3,0.4-3.2,1.1
		l0.6,0.8c0.8-0.6,1.6-0.9,2.6-0.9s2,0.3,2,1.3C22.3,491.3,20.8,491.3,19.4,491.5z M22.3,491.4v1.6c0,1.8-1.4,2.5-2.7,2.5
		c-1.1,0-1.9-0.4-1.9-1.6c0-1.1,0.8-1.4,1.9-1.5C20.8,492.2,21.7,492.2,22.3,491.4z"/>
	<path class="st3" d="M26.7,485.5v2.4h-1.5v0.9h1.5v4.9c0,0.8,0.1,1.2,0.3,1.5c0.4,0.7,1.2,1.1,2.1,1.1c0.6,0,1.2-0.1,1.6-0.5
		l-0.5-0.8c-0.2,0.2-0.6,0.3-1.1,0.3c-1,0-1.4-0.6-1.4-1.6v-4.8h2.8V488h-2.8v-2.4h-1V485.5z"/>
	<path class="st3" d="M31.8,488.7l0.4,0.4c0.6-0.6,1-1.3,1-2.2v-1.3h-1.4v1.3h0.7v0.4C32.6,487.7,32.4,488.2,31.8,488.7z"/>
	<path class="st3" d="M37.7,492.4c1.7,0.4,2.4,0.5,2.4,1.5c0,1.1-0.9,1.6-2.1,1.6c-1.2,0-2.1-0.5-2.7-1.4l-0.8,0.7
		c0.7,1,1.9,1.7,3.5,1.7c2,0,3.2-1.1,3.2-2.6c0-1.8-1.6-2.1-3.2-2.4c-1.1-0.2-2.1-0.5-2.1-1.4s1-1.3,1.9-1.3c1,0,1.8,0.4,2.4,1.1
		l0.7-0.8c-0.6-0.6-1.7-1.3-3.1-1.3c-1.5,0-2.9,0.7-2.9,2.3C34.9,491.7,36.2,492.1,37.7,492.4z"/>
	<path class="st3" d="M53.6,494.4v-4c0-1.8-1.3-2.6-3.1-2.6c-1.3,0-2.3,0.4-3.2,1.1l0.6,0.8c0.8-0.6,1.6-0.9,2.6-0.9s2,0.3,2,1.3
		c0,1.2-1.5,1.2-2.8,1.4c-1.1,0.2-2.8,0.5-2.8,2.4c0,1.5,1.1,2.5,2.8,2.5c1,0,2.1-0.4,2.9-1.5c0.1,1,0.8,1.4,1.6,1.4
		c0.2,0,0.6,0,0.8-0.1l-0.1-0.8c-0.1,0.1-0.3,0.1-0.5,0.1C53.8,495.5,53.6,495.1,53.6,494.4z M52.6,493c0,1.8-1.4,2.5-2.7,2.5
		c-1.1,0-1.9-0.4-1.9-1.6c0-1.1,0.8-1.4,1.9-1.5c1.1-0.2,2-0.2,2.7-1V493z"/>
	<polygon class="st3" points="59,496.2 61.2,489.3 63.4,496.2 64.6,496.2 66.9,488 65.9,488 64,495.1 61.8,488 60.7,488 58.5,495.1 
		56.6,488 55.5,488 57.8,496.2 	"/>
	<path class="st3" d="M68.1,492.1c0,2.4,1.5,4.3,4.1,4.3c1.3,0,2.4-0.5,3.2-1.4l-0.7-0.7c-0.7,0.8-1.5,1.1-2.5,1.1
		c-1.8,0-2.9-1.2-3-3.1h6.7c0-0.1,0-0.2,0-0.5c0-2.2-1.5-4.1-3.8-4.1C69.6,487.8,68.1,489.7,68.1,492.1z M74.8,491.4h-5.6
		c0.1-1.6,1.2-2.7,2.8-2.7C73.5,488.7,74.7,489.7,74.8,491.4z"/>
	<path class="st3" d="M80.5,488.7c1,0,1.8,0.4,2.4,1.1l0.7-0.8c-0.6-0.6-1.7-1.3-3.1-1.3c-1.5,0-2.9,0.7-2.9,2.3
		c0,1.6,1.3,2,2.8,2.3c1.7,0.4,2.4,0.5,2.4,1.5c0,1.1-0.9,1.6-2.1,1.6c-1.2,0-2.1-0.5-2.7-1.4l-0.8,0.7c0.7,1,1.9,1.7,3.5,1.7
		c2,0,3.2-1.1,3.2-2.6c0-1.8-1.6-2.1-3.2-2.4c-1.1-0.2-2.1-0.5-2.1-1.4C78.6,489.1,79.6,488.7,80.5,488.7z"/>
	<path class="st3" d="M89.3,496.4c2.4,0,4-1.9,4-4.3c0-2.5-1.5-4.3-4-4.3s-3.9,1.9-3.9,4.3C85.4,494.5,86.9,496.4,89.3,496.4z
		 M89.3,488.7c1.8,0,2.8,1.5,2.8,3.3s-1,3.3-2.8,3.3s-2.8-1.5-2.8-3.3S87.5,488.7,89.3,488.7z"/>
	<path class="st3" d="M104.7,487.8c-1.3,0-2.3,0.7-3,1.8c-0.4-1.2-1.3-1.8-2.5-1.8s-2.1,0.6-2.8,1.7V488h-1v8.2h1v-4.6
		c0-1.7,1.1-2.8,2.6-2.8c1.6,0,1.9,1.2,1.9,2.4v5.1h1v-4.6c0-1.7,1.1-2.8,2.6-2.8c1.6,0,1.9,1.2,1.9,2.4v5.1h1v-5.5
		C107.5,488.9,106.4,487.8,104.7,487.8z"/>
	<path class="st3" d="M113.5,487.8c-2.4,0-3.9,1.9-3.9,4.3s1.5,4.3,4.1,4.3c1.3,0,2.4-0.5,3.2-1.4l-0.7-0.7
		c-0.7,0.8-1.5,1.1-2.5,1.1c-1.8,0-2.9-1.2-3-3.1h6.7c0-0.1,0-0.2,0-0.5C117.3,489.6,115.8,487.8,113.5,487.8z M110.6,491.4
		c0.1-1.6,1.2-2.7,2.8-2.7c1.4,0,2.6,0.9,2.8,2.7H110.6z"/>
	<polygon class="st3" points="119.4,485.5 119.4,487.8 119.8,493.1 120.3,493.1 120.6,487.8 120.6,485.5 	"/>
	<rect x="119.4" y="494.7" class="st3" width="1.2" height="1.6"/>
	<path class="st3" d="M-41.1,515.4v-5.5c0-1.9-1.1-3.1-2.9-3.1c-1.1,0-2.1,0.5-2.8,1.4v-4.3h-1.8v11.4h1.8v-4.7c0-1.4,1-2.3,2.2-2.3
		c1.4,0,1.7,1,1.7,1.9v5.1h1.8V515.4z"/>
	<path class="st3" d="M-37.9,514.5c0.5,0.7,1.2,1.1,2.3,1.1c0.8,0,1.5-0.2,2-0.6l-0.7-1.3c-0.2,0.2-0.6,0.4-1.1,0.4
		c-0.7,0-1.1-0.4-1.1-1.2v-4.4h2.5v-1.4h-2.6v-2.3h-1.8v2.3h-1.4v1.4h1.4v4.4C-38.3,513.6-38.2,514.1-37.9,514.5z"/>
	<path class="st3" d="M-31.3,514.5c0.5,0.7,1.2,1.1,2.3,1.1c0.8,0,1.5-0.2,2-0.6l-0.7-1.3c-0.2,0.2-0.6,0.4-1.1,0.4
		c-0.7,0-1.1-0.4-1.1-1.2v-4.4h2.6v-1.4H-30v-2.3h-1.8v2.3h-1.4v1.4h1.4v4.4C-31.7,513.6-31.6,514.1-31.3,514.5z"/>
	<rect x="-15.3" y="513.4" class="st3" width="2" height="2"/>
	<rect x="-15.3" y="507" class="st3" width="2" height="2"/>
	<path class="st3" d="M3.8,514.2c-1.1,0-2.1-0.4-2.8-1.3l-1.2,0.9c0.8,1.2,2.2,1.9,3.9,1.9c2.2,0,3.6-1.1,3.6-2.8
		c0-1.8-1.5-2.2-3.3-2.6c-1.1-0.2-2-0.4-2-1.1s0.8-0.9,1.6-0.9c1.1,0,2,0.4,2.5,1.1l1.1-1c-0.7-0.7-1.9-1.5-3.6-1.5
		s-3.3,0.8-3.3,2.5s1.4,2.2,3.2,2.5c1.4,0.2,2.1,0.4,2.1,1.2C5.6,513.8,4.9,514.2,3.8,514.2z"/>
	<path class="st3" d="M12.8,508.4c0.9,0,1.6,0.5,2.1,1.3l1.3-0.9c-0.7-1.1-1.9-1.9-3.5-1.9c-2.5,0-4.2,1.9-4.2,4.4s1.6,4.4,4.2,4.4
		c1.6,0,2.8-0.8,3.5-1.9l-1.3-0.9c-0.5,0.7-1.1,1.2-2.1,1.2c-1.5,0-2.4-1.2-2.4-2.8C10.4,509.6,11.3,508.4,12.8,508.4z"/>
	<path class="st3" d="M30.4,515.4v-5.5c0-1.9-1-3.1-2.8-3.1c-1.2,0-2.2,0.6-2.9,1.6c-0.4-1-1.2-1.6-2.4-1.6c-1.1,0-2,0.5-2.6,1.4
		V507h-1.8v8.4h1.8v-4.7c0-1.4,0.9-2.2,2.1-2.2c1.3,0,1.6,0.9,1.6,1.9v5.1h1.8v-4.7c0-1.4,0.9-2.2,2.1-2.2c1.3,0,1.6,0.9,1.6,1.9
		v5.1h1.5V515.4z"/>
	<rect x="32.5" y="513.4" class="st3" width="2" height="2"/>
	<path class="st3" d="M40.1,514.2c-1.1,0-2.1-0.4-2.8-1.3l-1.2,0.9c0.8,1.2,2.2,1.9,3.9,1.9c2.2,0,3.6-1.1,3.6-2.8
		c0-1.8-1.5-2.2-3.3-2.6c-1.1-0.2-2-0.4-2-1.1s0.8-0.9,1.6-0.9c1.1,0,2,0.4,2.5,1.1l1.1-1c-0.7-0.7-1.9-1.5-3.6-1.5
		c-1.7,0-3.3,0.8-3.3,2.5s1.4,2.2,3.2,2.5c1.4,0.2,2.1,0.4,2.1,1.2C41.8,513.8,41.1,514.2,40.1,514.2z"/>
	<path class="st3" d="M46.3,514.5c0.5,0.7,1.2,1.1,2.3,1.1c0.8,0,1.5-0.2,2-0.6l-0.7-1.3c-0.2,0.2-0.6,0.4-1.1,0.4
		c-0.7,0-1.1-0.4-1.1-1.2v-4.4h2.6v-1.4h-2.6v-2.3h-1.8v2.3h-1.4v1.4h1.4v4.4C45.9,513.6,46,514.1,46.3,514.5z"/>
	<path class="st3" d="M58.3,513.9v1.6h7v-1.6h-2.5v-9.1h-1.4c-0.7,0.7-1.7,1.1-3.3,1.4l0.2,1.4c1-0.1,2.1-0.4,2.6-0.7v7L58.3,513.9
		L58.3,513.9z"/>
	<rect x="67.3" y="504" class="st3" width="1.8" height="1.7"/>
	<path class="st3" d="M79.3,507h-1.8v1.2c-0.8-1-1.7-1.4-2.8-1.4c-2.4,0-3.9,1.9-3.9,4.4s1.5,4.4,3.9,4.4c1.1,0,2.1-0.4,2.8-1.4v2.4
		h-8.7c0.1-0.4,0.2-0.8,0.2-1.3V507h-1.8v8.4c0,0.6-0.2,1-0.5,1.2H52.8l3.4-12.6h-1.5l-3.4,12.6H-4.4L-1,504h-1.5l-3.4,12.6h-4
		l3.4-12.6H-8l-3.4,12.6h-12.5v-2.4c0.8,1,1.7,1.4,2.8,1.4c2.4,0,3.8-1.9,3.8-4.4c0-2.5-1.5-4.4-3.8-4.4c-1.1,0-2.1,0.4-2.8,1.4V507
		h-1.8v9.6h-24v0.8h24v0.8h1.8v-0.8h88.8l-0.2,0.6c0.4,0.2,1,0.3,1.5,0.3c0.9,0,1.7-0.3,2.2-0.9h9.1v0.8h1.8v-0.8h26.4v-0.8H79.3
		V507z M75.1,514c-1.6,0-2.4-1.3-2.4-2.8c0-1.6,0.8-2.8,2.4-2.8s2.4,1.2,2.4,2.8S76.7,514,75.1,514z M-21.5,508.4
		c1.6,0,2.4,1.3,2.4,2.8c0,1.5-0.8,2.8-2.4,2.8s-2.4-1.2-2.4-2.8C-23.9,509.6-23.1,508.4-21.5,508.4z"/>
	<path class="st3" d="M83.4,507h-1.8v8.4h1.8v-4.3c0-1.6,0.9-2.5,2-2.5c0.4,0,0.7,0.1,1,0.3l0.5-1.7c-0.2-0.2-0.7-0.3-1.1-0.3
		c-1,0-1.8,0.6-2.4,1.5V507z"/>
	<path class="st3" d="M88.1,504v11.4h1.8v-1.2c0.8,1,1.7,1.4,2.8,1.4c2.4,0,3.8-1.9,3.8-4.4c0-2.5-1.5-4.4-3.8-4.4
		c-1.1,0-2.1,0.4-2.8,1.4v-4.3h-1.8V504z M92.3,508.4c1.6,0,2.4,1.3,2.4,2.8c0,1.6-0.8,2.8-2.4,2.8s-2.4-1.2-2.4-2.8
		C89.9,509.7,90.7,508.4,92.3,508.4z"/>
	<path class="st3" d="M101.7,514.2c-1.1,0-2.1-0.4-2.8-1.3l-1.2,0.9c0.8,1.2,2.2,1.9,3.9,1.9c2.2,0,3.6-1.1,3.6-2.8
		c0-1.8-1.5-2.2-3.3-2.6c-1.1-0.2-2-0.4-2-1.1s0.8-0.9,1.6-0.9c1.1,0,2,0.4,2.5,1.1l1.1-1c-0.7-0.7-1.9-1.5-3.6-1.5
		c-1.7,0-3.3,0.8-3.3,2.5s1.4,2.2,3.2,2.5c1.4,0.2,2.1,0.4,2.1,1.2C103.4,513.8,102.7,514.2,101.7,514.2z"/>
</g>
<g id="Rechteck_30">
	<g>
		<rect x="-62.4" y="304.9" class="st4" width="218" height="28"/>
	</g>
</g>
<g>
	<path class="st5" d="M7.5,323l-4.2-6.8v6.8H1.8v-8.8h2l4,6.7v-6.7h1.5v8.8H7.5z"/>
	<path class="st5" d="M18,319.8h-5.3c0.1,1.3,0.9,2,2.1,2c0.8,0,1.5-0.3,2-0.9l1,0.9c-0.7,0.8-1.7,1.3-3,1.3c-2.3,0-3.6-1.6-3.6-3.6
		c0-2.1,1.3-3.7,3.5-3.7c2.1,0,3.4,1.5,3.4,3.5C18,319.6,18,319.7,18,319.8z M16.5,318.8c-0.1-1.2-0.9-1.8-1.9-1.8
		c-1.1,0-1.8,0.7-1.9,1.8H16.5z"/>
	<path class="st5" d="M27,323h-1.6l-1.5-5.1l-1.5,5.1h-1.6l-1.9-7h1.6l1.3,5.1l1.5-5.1h1.3l1.5,5.1l1.2-5.1h1.6L27,323z"/>
	<path class="st5" d="M42.3,323v-7.2l-2.6,7.2h-1.3l-2.6-7.2v7.2h-1.5v-8.8h2.3l2.5,6.9l2.5-6.9h2.2v8.8H42.3z"/>
	<path class="st5" d="M52.4,319.8h-5.3c0.1,1.3,0.9,2,2.1,2c0.8,0,1.5-0.3,2-0.9l1,0.9c-0.7,0.8-1.7,1.3-3,1.3
		c-2.3,0-3.6-1.6-3.6-3.6c0-2.1,1.3-3.7,3.5-3.7c2.1,0,3.4,1.5,3.4,3.5C52.4,319.6,52.4,319.7,52.4,319.8z M51,318.8
		c-0.1-1.2-0.9-1.8-1.9-1.8c-1.1,0-1.8,0.7-1.9,1.8H51z"/>
	<path class="st5" d="M56.6,323.1c-1.4,0-2.6-0.5-3.2-1.6l1-0.7c0.5,0.7,1.4,1.1,2.3,1.1c0.9,0,1.4-0.3,1.4-0.9s-0.6-0.8-1.8-1
		c-1.5-0.3-2.6-0.7-2.6-2.1c0-1.4,1.3-2.1,2.7-2.1s2.4,0.6,3,1.2l-0.9,0.8c-0.5-0.5-1.2-0.9-2.1-0.9c-0.7,0-1.3,0.2-1.3,0.8
		s0.7,0.7,1.7,0.9c1.5,0.3,2.8,0.6,2.8,2.1C59.6,322.2,58.5,323.1,56.6,323.1z"/>
	<path class="st5" d="M63.9,323.1c-1.4,0-2.6-0.5-3.2-1.6l1-0.7c0.5,0.7,1.4,1.1,2.3,1.1c0.9,0,1.4-0.3,1.4-0.9s-0.6-0.8-1.8-1
		c-1.5-0.3-2.6-0.7-2.6-2.1c0-1.4,1.3-2.1,2.7-2.1s2.4,0.6,3,1.2l-0.9,0.8c-0.5-0.5-1.2-0.9-2.1-0.9c-0.7,0-1.3,0.2-1.3,0.8
		s0.7,0.7,1.7,0.9c1.5,0.3,2.8,0.6,2.8,2.1C66.8,322.2,65.7,323.1,63.9,323.1z"/>
	<path class="st5" d="M74,323.1c-0.6,0-1.2-0.3-1.4-1c-0.6,0.8-1.5,1.1-2.3,1.1c-1.4,0-2.4-0.8-2.4-2.1c0-1.7,1.5-2,2.7-2.1
		c1-0.1,1.8-0.2,1.8-0.9c0-0.7-0.8-0.9-1.4-0.9c-0.7,0-1.5,0.2-2.2,0.7l-0.6-1.1c0.9-0.6,1.8-0.8,2.9-0.8c1.6,0,2.8,0.7,2.8,2.3v3.2
		c0,0.5,0.1,0.6,0.5,0.6c0.1,0,0.3,0,0.4-0.1l0.2,1C74.7,323,74.3,323.1,74,323.1z M72.4,319.3c-0.4,0.5-1,0.5-1.7,0.6
		s-1.3,0.3-1.3,1.1c0,0.7,0.6,1,1.3,1c0.9,0,1.8-0.5,1.8-1.7v-1H72.4z"/>
	<path class="st5" d="M82,324.3c-0.7,0.8-1.9,1.1-3,1.1c-1.2,0-2.1-0.3-2.9-0.8l0.6-1.2c0.6,0.4,1.4,0.7,2.3,0.7
		c1.3,0,2.3-0.6,2.3-2v-0.6c-0.6,0.8-1.5,1.2-2.4,1.2c-1.9,0-3.1-1.4-3.1-3.4c0-1.9,1.3-3.4,3.2-3.4c1,0,1.8,0.4,2.4,1.2v-1h1.5v5.7
		C82.8,322.8,82.6,323.7,82,324.3z M79.3,317.1c-1.3,0-2,0.9-2,2.1c0,1.2,0.7,2.1,2,2.1s2-0.9,2-2.1C81.4,318,80.6,317.1,79.3,317.1
		z"/>
	<path class="st5" d="M91.3,319.8H86c0.1,1.3,0.9,2,2.1,2c0.8,0,1.5-0.3,2-0.9l1,0.9c-0.7,0.8-1.7,1.3-3,1.3c-2.3,0-3.6-1.6-3.6-3.6
		c0-2.1,1.3-3.7,3.5-3.7c2.1,0,3.4,1.5,3.4,3.5C91.3,319.6,91.3,319.7,91.3,319.8z M89.9,318.8c-0.1-1.2-0.9-1.8-1.9-1.8
		c-1.1,0-1.8,0.7-1.9,1.8H89.9z"/>
</g>
<path class="st0" d="M-61.5,449v108h218V449H-61.5z M155.5,450v84.9h-216V450H155.5z M-60.5,556v-20.1h216V556H-60.5z"/>
<g id="Rechteck_31">
	<g>
		<rect x="-107.5" y="620.9" class="st1" width="318" height="1"/>
	</g>
</g>
<g id="Camera_2_">
	<circle class="st1" cx="49.1" cy="244.8" r="5"/>
</g>
</svg>
