<?xml version="1.0" encoding="utf-8"?>
<!-- Generator: Adobe Illustrator 19.1.0, SVG Export Plug-In . SVG Version: 6.00 Build 0)  -->
<svg version="1.1" id="Layer_1" xmlns="http://www.w3.org/2000/svg" xmlns:xlink="http://www.w3.org/1999/xlink" x="0px" y="0px"
	 width="386.6px" height="315.7px" viewBox="149.2 258.2 386.6 315.7" style="enable-background:new 149.2 258.2 386.6 315.7;"
	 xml:space="preserve">
<style type="text/css">
	.st0{fill:#DDDDDD;}
	.st1{fill:#89B6CD;}
	.st2{fill:#FFFFFF;}
	.st3{fill:#B4D1DF;}
	.st4{fill:#EEEEEE;}
	.st5{fill:#222222;}
</style>
<g id="ear">
	<path class="st0" d="M354.7,340.8c2.4,0,4.4,2,4.4,4.4c0,2.4-2,4.4-4.4,4.4h-39.3c-2.4,0-4.4-2-4.4-4.4c0-2.4,2-4.4,4.4-4.4H354.7
		 M354.7,339.8h-39.3c-3,0-5.4,2.4-5.4,5.4s2.4,5.4,5.4,5.4h39.3c3,0,5.4-2.4,5.4-5.4S357.7,339.8,354.7,339.8L354.7,339.8z"/>
</g>
<path class="st0" d="M205.6,573.6v-238c0-19.2,15.6-34.8,34.9-34.8h189.3c19.2,0,34.9,15.6,34.9,34.8v238h2v-238
	c0-20.3-16.5-36.8-36.9-36.8H240.4c-20.3,0-36.9,16.5-36.9,36.8v238H205.6z"/>
<path class="st0" d="M219.6,573.6V377.7h231l-0.1,195.9h1l0.1-196.1c0-0.4-0.3-0.8-0.8-0.8H219.3c-0.4,0-0.8,0.3-0.8,0.8v196.1
	H219.6z"/>
<g id="Camera_2_">
	<circle class="st0" cx="335.1" cy="324.3" r="5"/>
</g>
<g id="Rechteck_31_copy_2">
	<g>
		<rect x="179" y="572.9" class="st0" width="318" height="1"/>
	</g>
</g>
<path class="st0" d="M437.8,386.7H232.4c-2.8,0-5,2.2-5,5v12.9c0,2.8,2.2,5,5,5h205.3c2.8,0,5-2.2,5-5v-12.9
	C442.8,388.9,440.5,386.7,437.8,386.7z"/>
<path class="st1" d="M189.2,453.1c-22.1,0-40,17.9-40,40c0,22.1,17.9,40,40,40s40-17.9,40-40C229.2,471.1,211.3,453.1,189.2,453.1z
	 M189.2,532.2c-21.5,0-39-17.5-39-39s17.5-39,39-39s39,17.5,39,39S210.8,532.2,189.2,532.2z"/>
<path class="st2" d="M189.2,454.1c-21.5,0-39,17.5-39,39s17.5,39,39,39s39-17.5,39-39S210.8,454.1,189.2,454.1z"/>
<g>
	<path class="st1" d="M236,258.2c-22.1,0-40,17.9-40,40s17.9,40,40,40s40-17.9,40-40S258.1,258.2,236,258.2z M236,337.2
		c-21.5,0-39-17.5-39-39s17.5-39,39-39s39,17.5,39,39S257.5,337.2,236,337.2z"/>
	<path class="st2" d="M236,259.2c-21.5,0-39,17.5-39,39s17.5,39,39,39s39-17.5,39-39S257.5,259.2,236,259.2z"/>
</g>
<g>
	<path class="st1" d="M495.8,398.3c-22.1,0-40,17.9-40,40c0,22.1,17.9,40,40,40c22.1,0,40-17.9,40-40
		C535.8,416.2,517.9,398.3,495.8,398.3z M495.8,477.3c-21.5,0-39-17.5-39-39s17.5-39,39-39s39,17.5,39,39S517.3,477.3,495.8,477.3z"
		/>
	<path class="st2" d="M495.8,399.3c-21.5,0-39,17.5-39,39s17.5,39,39,39s39-17.5,39-39S517.3,399.3,495.8,399.3z"/>
</g>
<g id="_xF168__copy">
	<path class="st3" d="M182.5,482.7c-0.4-0.7-0.9-1-1.5-1h-5.4c-0.3,0-0.6,0.1-0.7,0.3c-0.2,0.2-0.2,0.5,0,0.8l3.7,6.4l0,0l-5.8,10.2
		c-0.2,0.3-0.2,0.6,0,0.8c0.2,0.3,0.4,0.4,0.7,0.4h5.4c0.6,0,1.1-0.3,1.5-1c3.8-6.7,5.7-10.1,5.9-10.4L182.5,482.7z M204.7,475.4
		c0.2-0.3,0.2-0.6,0-0.8c-0.1-0.2-0.4-0.3-0.7-0.3h-5.5c-0.6,0-1.1,0.3-1.5,1c-7.8,13.8-11.8,21-12.1,21.5l7.7,14.2
		c0.4,0.7,0.9,1,1.5,1h5.4c0.3,0,0.6-0.1,0.7-0.3c0.2-0.3,0.1-0.5,0-0.8l-7.7-14l0,0L204.7,475.4z"/>
</g>
<g id="_xF09A__copy">
	<path class="st3" d="M239.2,287.8c0.4-0.5,1.2-0.7,2.3-0.7h3.1v-5.3c-1.1-0.2-2.6-0.2-4.5-0.2c-2.3,0-4.1,0.7-5.5,2
		c-1.4,1.4-2.1,3.3-2.1,5.8v4.3h-5.1v5.9h5.1v15.1h6.1v-15.1h5.1l0.8-5.9h-5.8v-3.8C238.6,289,238.8,288.3,239.2,287.8z"/>
</g>
<g id="Ellipse_32">
	<circle class="st4" cx="247" cy="444.9" r="17.8"/>
</g>
<g id="Look_what_I_found_today_x2C__that_x2019_s_awesome_x21__http:_x2F__x2F_scm.st_x2F_1jqrbfw">
	<path class="st5" d="M286.3,449.5v-9.3h1v8.4h5.3v0.9H286.3z"/>
	<path class="st5" d="M296.9,449.7c-2.1,0-3.4-1.6-3.4-3.8c0-2.2,1.3-3.8,3.4-3.8s3.5,1.6,3.5,3.8C300.4,448,299,449.7,296.9,449.7z
		 M296.9,443c-1.6,0-2.5,1.3-2.5,2.9c0,1.6,0.9,2.9,2.5,2.9s2.5-1.3,2.5-2.9C299.4,444.3,298.5,443,296.9,443z"/>
	<path class="st5" d="M305.2,449.7c-2.1,0-3.4-1.6-3.4-3.8c0-2.2,1.3-3.8,3.4-3.8s3.5,1.6,3.5,3.8
		C308.6,448,307.3,449.7,305.2,449.7z M305.2,443c-1.6,0-2.5,1.3-2.5,2.9c0,1.6,0.9,2.9,2.5,2.9s2.5-1.3,2.5-2.9
		C307.7,444.3,306.8,443,305.2,443z"/>
	<path class="st5" d="M315.3,442.3h1.2l-3,3l3.4,4.2h-1.2l-2.9-3.6l-1.5,1.5v2.1h-0.9v-10h0.9v6.8L315.3,442.3z"/>
	<path class="st5" d="M329.2,449.5h-1.1l-1.9-6.1l-1.9,6.1h-1.1l-2-7.2h0.9l1.6,6.2l2-6.2h0.9l2,6.2l1.6-6.2h0.9L329.2,449.5z"/>
	<path class="st5" d="M332.7,449.5v-10h0.9v4.1c0.6-1,1.4-1.5,2.6-1.5c1.5,0,2.6,1,2.6,2.8v4.6h-0.9v-4.4c0-1-0.3-2.1-1.8-2.1
		c-1.4,0-2.5,1.1-2.5,2.5v4H332.7z"/>
	<path class="st5" d="M346.8,449.6c-0.7,0-1.3-0.4-1.4-1.2c-0.7,1-1.7,1.3-2.5,1.3c-1.5,0-2.4-0.8-2.4-2.2c0-1.7,1.5-2,2.4-2.1
		c1.2-0.2,2.5-0.2,2.5-1.2c0-0.9-1-1.2-1.8-1.2s-1.6,0.3-2.2,0.8l-0.5-0.7c0.8-0.6,1.7-1,2.8-1c1.6,0,2.7,0.7,2.7,2.3v3.5
		c0,0.6,0.2,0.9,0.6,0.9c0.2,0,0.3,0,0.4-0.1l0.1,0.7C347.3,449.6,347,449.6,346.8,449.6z M345.4,445.3c-0.6,0.7-1.4,0.7-2.4,0.8
		c-0.9,0.2-1.7,0.4-1.7,1.3c0,1,0.7,1.4,1.7,1.4c1.2,0,2.4-0.6,2.4-2.2V445.3z"/>
	<path class="st5" d="M352.7,449.3c-0.4,0.3-0.9,0.4-1.4,0.4c-0.8,0-1.5-0.3-1.8-0.9c-0.2-0.3-0.3-0.7-0.3-1.3v-4.3h-1.3v-0.8h1.3
		v-2.1h0.9v2.1h2.4v0.8h-2.4v4.3c0,0.9,0.4,1.4,1.2,1.4c0.5,0,0.8-0.2,1-0.3L352.7,449.3z"/>
	<path class="st5" d="M358.1,449.5v-9.3h1v9.3H358.1z"/>
	<path class="st5" d="M368.7,440.3c-0.2-0.1-0.5-0.1-0.9-0.1c-0.7,0-1.1,0.3-1.1,1.1v1.1h1.8v0.8h-1.8v6.4h-0.9v-6.4h-1.3v-0.8h1.3
		v-1.1c0-1.4,0.8-1.9,2-1.9c0.4,0,0.8,0.1,1,0.2L368.7,440.3z"/>
	<path class="st5" d="M372.9,449.7c-2.1,0-3.4-1.6-3.4-3.8c0-2.2,1.3-3.8,3.4-3.8s3.5,1.6,3.5,3.8C376.4,448,375,449.7,372.9,449.7z
		 M372.9,443c-1.6,0-2.5,1.3-2.5,2.9c0,1.6,0.9,2.9,2.5,2.9s2.5-1.3,2.5-2.9C375.4,444.3,374.5,443,372.9,443z"/>
	<path class="st5" d="M384.1,442.3v7.2h-0.9v-1.3c-0.6,1-1.4,1.5-2.6,1.5c-1.5,0-2.6-1-2.6-2.8v-4.6h0.9v4.4c0,1,0.3,2.1,1.8,2.1
		c1.4,0,2.5-1.1,2.5-2.5v-4L384.1,442.3L384.1,442.3z"/>
	<path class="st5" d="M386.5,449.5v-7.2h0.9v1.3c0.6-1,1.4-1.5,2.6-1.5c1.5,0,2.6,1,2.6,2.8v4.6h-0.9v-4.4c0-1-0.3-2.1-1.8-2.1
		c-1.4,0-2.5,1.1-2.5,2.5v4H386.5L386.5,449.5z"/>
	<path class="st5" d="M400.3,449.5v-1.3c-0.7,1.1-1.7,1.5-2.7,1.5c-2.1,0-3.3-1.6-3.3-3.8c0-2.1,1.3-3.8,3.3-3.8c1,0,2,0.4,2.7,1.5
		v-4.1h0.9v10L400.3,449.5L400.3,449.5z M397.7,443c-1.7,0-2.5,1.3-2.5,2.9c0,1.6,0.8,2.9,2.5,2.9s2.6-1.3,2.6-2.9
		C400.3,444.3,399.4,443,397.7,443z"/>
	<path class="st5" d="M290.1,466.1c-0.4,0.3-0.9,0.4-1.4,0.4c-0.8,0-1.5-0.3-1.8-0.9c-0.2-0.3-0.3-0.7-0.3-1.3v-4.4h-1.3v-0.8h1.3
		V457h0.9v2.1h2.4v0.8h-2.4v4.3c0,0.9,0.4,1.4,1.2,1.4c0.5,0,0.8-0.2,1-0.3L290.1,466.1z"/>
	<path class="st5" d="M294.4,466.5c-2.1,0-3.4-1.6-3.4-3.8s1.3-3.8,3.4-3.8s3.5,1.6,3.5,3.8C297.9,464.9,296.6,466.5,294.4,466.5z
		 M294.4,459.8c-1.6,0-2.5,1.3-2.5,2.9c0,1.6,0.9,2.9,2.5,2.9s2.5-1.3,2.5-2.9S296,459.8,294.4,459.8z"/>
	<path class="st5" d="M305.3,466.3V465c-0.7,1.1-1.7,1.5-2.7,1.5c-2.1,0-3.3-1.6-3.3-3.8c0-2.1,1.3-3.8,3.3-3.8c1,0,2,0.4,2.7,1.5
		v-4.1h0.9v10L305.3,466.3L305.3,466.3z M302.7,459.8c-1.7,0-2.5,1.3-2.5,2.9c0,1.6,0.8,2.9,2.5,2.9s2.6-1.3,2.6-2.9
		C305.3,461.1,304.4,459.8,302.7,459.8z"/>
	<path class="st5" d="M314.3,466.4c-0.7,0-1.3-0.4-1.4-1.2c-0.7,1-1.7,1.3-2.5,1.3c-1.5,0-2.4-0.8-2.4-2.2c0-1.7,1.5-2,2.4-2.1
		c1.2-0.2,2.5-0.2,2.5-1.2c0-0.9-1-1.2-1.8-1.2s-1.6,0.3-2.2,0.8l-0.5-0.7c0.8-0.6,1.7-1,2.8-1c1.6,0,2.7,0.7,2.7,2.3v3.5
		c0,0.6,0.2,0.9,0.6,0.9c0.2,0,0.3,0,0.4-0.1l0.1,0.7C314.8,466.4,314.5,466.4,314.3,466.4z M312.9,462.1c-0.6,0.7-1.4,0.7-2.4,0.8
		c-0.9,0.2-1.7,0.4-1.7,1.3c0,1,0.7,1.4,1.7,1.4c1.2,0,2.4-0.6,2.4-2.2V462.1z"/>
	<path class="st5" d="M319.1,466.7c-0.5,1.4-1.1,2.2-2.4,2.2c-0.5,0-0.9-0.1-1.3-0.4l0.4-0.7c0.3,0.2,0.5,0.3,0.9,0.3
		c0.7,0,1.1-0.5,1.4-1.2l0.2-0.5l-3.1-7.2h1l2.5,6l2.2-6h1L319.1,466.7z"/>
	<path class="st5" d="M324.1,466.4c0,0.8-0.4,1.4-0.9,1.9l-0.4-0.3c0.5-0.4,0.7-0.9,0.7-1.3v-0.4h-0.6v-1.2h1.2L324.1,466.4
		L324.1,466.4z"/>
	<path class="st5" d="M334,466.1c-0.4,0.3-0.9,0.4-1.4,0.4c-0.8,0-1.5-0.3-1.8-0.9c-0.2-0.3-0.3-0.7-0.3-1.3v-4.4h-1.3v-0.8h1.3V457
		h0.9v2.1h2.4v0.8h-2.4v4.3c0,0.9,0.4,1.4,1.2,1.4c0.5,0,0.8-0.2,1-0.3L334,466.1z"/>
	<path class="st5" d="M335.4,466.3v-10h0.9v4.1c0.6-1,1.4-1.5,2.6-1.5c1.5,0,2.6,1,2.6,2.8v4.6h-0.9v-4.4c0-1-0.3-2.1-1.8-2.1
		c-1.4,0-2.5,1.1-2.5,2.5v4H335.4z"/>
	<path class="st5" d="M349.4,466.4c-0.7,0-1.3-0.4-1.4-1.2c-0.7,1-1.7,1.3-2.5,1.3c-1.5,0-2.4-0.8-2.4-2.2c0-1.7,1.5-2,2.4-2.1
		c1.2-0.2,2.5-0.2,2.5-1.2c0-0.9-1-1.2-1.8-1.2s-1.6,0.3-2.2,0.8l-0.5-0.7c0.8-0.6,1.7-1,2.8-1c1.6,0,2.7,0.7,2.7,2.3v3.5
		c0,0.6,0.2,0.9,0.6,0.9c0.2,0,0.3,0,0.4-0.1l0.1,0.7C349.9,466.4,349.6,466.4,349.4,466.4z M348,462.1c-0.6,0.7-1.4,0.7-2.4,0.8
		c-0.9,0.2-1.7,0.4-1.7,1.3c0,1,0.7,1.4,1.7,1.4c1.2,0,2.4-0.6,2.4-2.2V462.1z"/>
	<path class="st5" d="M355.4,466.1c-0.4,0.3-0.9,0.4-1.4,0.4c-0.8,0-1.5-0.3-1.8-0.9c-0.2-0.3-0.3-0.7-0.3-1.3v-4.4h-1.3v-0.8h1.3
		V457h0.9v2.1h2.4v0.8h-2.4v4.3c0,0.9,0.4,1.4,1.2,1.4c0.5,0,0.8-0.2,1-0.3L355.4,466.1z"/>
	<path class="st5" d="M357.6,458.2c0,0.8-0.3,1.4-0.9,1.9l-0.4-0.3c0.5-0.4,0.7-0.9,0.7-1.3v-0.4h-0.6V457h1.2L357.6,458.2
		L357.6,458.2z"/>
	<path class="st5" d="M361.7,466.5c-1.4,0-2.4-0.6-3-1.5l0.7-0.6c0.5,0.8,1.3,1.2,2.4,1.2s1.9-0.4,1.9-1.4c0-0.8-0.6-1-2.1-1.3
		c-1.3-0.3-2.4-0.7-2.4-2c0-1.4,1.3-2,2.6-2c1.3,0,2.2,0.6,2.7,1.1l-0.6,0.7c-0.5-0.6-1.3-1-2.1-1c-0.8,0-1.7,0.3-1.7,1.1
		s0.9,1.1,1.9,1.2c1.3,0.3,2.8,0.5,2.8,2.1C364.6,465.6,363.5,466.5,361.7,466.5z"/>
	<path class="st5" d="M291.9,483.2c-0.7,0-1.3-0.4-1.4-1.2c-0.7,1-1.7,1.3-2.5,1.3c-1.5,0-2.4-0.8-2.4-2.2c0-1.7,1.5-2,2.4-2.1
		c1.2-0.2,2.5-0.2,2.5-1.2c0-0.9-1-1.2-1.8-1.2s-1.6,0.3-2.2,0.8l-0.5-0.7c0.8-0.6,1.7-1,2.8-1c1.6,0,2.7,0.7,2.7,2.3v3.5
		c0,0.6,0.2,0.9,0.6,0.9c0.2,0,0.3,0,0.4-0.1l0.1,0.7C292.4,483.2,292.1,483.2,291.9,483.2z M290.5,478.9c-0.6,0.7-1.4,0.7-2.4,0.8
		c-0.9,0.2-1.7,0.4-1.7,1.3c0,1,0.7,1.4,1.7,1.4c1.2,0,2.4-0.6,2.4-2.2V478.9z"/>
	<path class="st5" d="M301.1,483.1H300l-1.9-6.1l-1.9,6.1h-1.1l-2-7.2h0.9l1.6,6.2l2-6.2h0.9l2,6.2l1.6-6.2h0.9L301.1,483.1z"/>
	<path class="st5" d="M310.9,479.7h-5.8c0.1,1.7,1.1,2.7,2.6,2.7c0.9,0,1.6-0.3,2.2-1l0.6,0.6c-0.7,0.8-1.6,1.2-2.8,1.2
		c-2.3,0-3.6-1.6-3.6-3.8c0-2.1,1.3-3.8,3.4-3.8s3.4,1.6,3.4,3.6C311,479.5,311,479.6,310.9,479.7z M310,478.9
		c-0.1-1.6-1.2-2.4-2.4-2.4c-1.4,0-2.3,1-2.4,2.4H310z"/>
	<path class="st5" d="M315.1,483.3c-1.4,0-2.4-0.6-3-1.5l0.7-0.6c0.5,0.8,1.3,1.2,2.4,1.2s1.9-0.4,1.9-1.4c0-0.8-0.6-1-2.1-1.3
		c-1.3-0.3-2.4-0.7-2.4-2c0-1.4,1.3-2,2.6-2c1.3,0,2.2,0.6,2.7,1.1l-0.6,0.7c-0.5-0.6-1.3-1-2.1-1c-0.8,0-1.7,0.3-1.7,1.1
		s0.9,1.1,1.9,1.2c1.3,0.3,2.8,0.5,2.8,2.1C317.9,482.4,316.9,483.3,315.1,483.3z"/>
	<path class="st5" d="M322.7,483.3c-2.1,0-3.4-1.6-3.4-3.8s1.3-3.8,3.4-3.8s3.5,1.6,3.5,3.8C326.2,481.7,324.8,483.3,322.7,483.3z
		 M322.7,476.6c-1.6,0-2.5,1.3-2.5,2.9c0,1.6,0.9,2.9,2.5,2.9s2.5-1.3,2.5-2.9C325.2,477.9,324.3,476.6,322.7,476.6z"/>
	<path class="st5" d="M328,483.1v-7.2h0.9v1.3c0.6-0.9,1.4-1.5,2.4-1.5s1.9,0.5,2.2,1.5c0.6-0.9,1.4-1.5,2.6-1.5
		c1.5,0,2.5,1,2.5,2.7v4.7h-0.9v-4.4c0-1-0.3-2.1-1.7-2.1c-1.3,0-2.3,1-2.3,2.5v4h-0.9v-4.4c0-1-0.3-2.1-1.7-2.1
		c-1.3,0-2.3,1-2.3,2.5v4H328z"/>
	<path class="st5" d="M347.2,479.7h-5.8c0.1,1.7,1.1,2.7,2.6,2.7c0.9,0,1.6-0.3,2.2-1l0.6,0.6c-0.7,0.8-1.6,1.2-2.8,1.2
		c-2.3,0-3.6-1.6-3.6-3.8c0-2.1,1.3-3.8,3.4-3.8s3.4,1.6,3.4,3.6C347.2,479.5,347.2,479.6,347.2,479.7z M346.3,478.9
		c-0.1-1.6-1.2-2.4-2.4-2.4c-1.4,0-2.3,1-2.4,2.4H346.3z"/>
	<path class="st5" d="M349.8,480.4h-0.5l-0.3-4.6v-2h1.1v2L349.8,480.4z M349.1,483.1v-1.4h1.1v1.4H349.1z"/>
	<path class="st5" d="M286,499.9v-10h1.5v3.7c0.6-0.8,1.4-1.2,2.4-1.2c1.6,0,2.5,1.1,2.5,2.7v4.8H291v-4.4c0-0.8-0.3-1.7-1.5-1.7
		c-1.1,0-1.9,0.8-1.9,2v4.1H286z"/>
	<path class="st5" d="M299,499.5c-0.5,0.4-1,0.5-1.8,0.5c-0.9,0-1.6-0.3-2-0.9c-0.3-0.4-0.4-0.8-0.4-1.5v-3.9h-1.2v-1.2h1.2v-2h1.6
		v2h2.3v1.2h-2.3v3.9c0,0.7,0.4,1.1,1,1.1c0.4,0,0.7-0.2,0.9-0.3L299,499.5z"/>
	<path class="st5" d="M304.8,499.5c-0.5,0.4-1,0.5-1.8,0.5c-0.9,0-1.6-0.3-2-0.9c-0.3-0.4-0.4-0.8-0.4-1.5v-3.9h-1.2v-1.2h1.2v-2
		h1.6v2h2.3v1.2h-2.3v3.9c0,0.7,0.4,1.1,1,1.1c0.4,0,0.7-0.2,0.9-0.3L304.8,499.5z"/>
	<path class="st5" d="M307.5,492.6v1.1c0.7-0.9,1.5-1.2,2.5-1.2c2.1,0,3.4,1.7,3.4,3.8c0,2.2-1.3,3.9-3.4,3.9c-1,0-1.8-0.4-2.5-1.2
		v3.5H306v-9.8L307.5,492.6L307.5,492.6z M309.7,498.7c1.4,0,2.1-1.1,2.1-2.5c0-1.4-0.7-2.5-2.1-2.5s-2.1,1.1-2.1,2.5
		C307.5,497.6,308.3,498.7,309.7,498.7z"/>
	<path class="st5" d="M315.1,494.3v-1.8h1.8v1.8H315.1z M315.1,499.9v-1.8h1.8v1.8H315.1z"/>
	<path class="st5" d="M319.8,501.4h-1.3l3.1-11.5h1.3L319.8,501.4z"/>
	<path class="st5" d="M324.6,501.4h-1.3l3.1-11.5h1.3L324.6,501.4z"/>
	<path class="st5" d="M331.8,500.1c-1.5,0-2.7-0.6-3.4-1.7l1.1-0.8c0.6,0.8,1.5,1.2,2.4,1.2s1.5-0.3,1.5-1s-0.7-0.8-1.9-1
		c-1.5-0.3-2.8-0.7-2.8-2.2s1.4-2.2,2.9-2.2s2.6,0.6,3.2,1.3l-1,0.9c-0.5-0.6-1.3-0.9-2.2-0.9c-0.7,0-1.4,0.3-1.4,0.8
		c0,0.6,0.8,0.8,1.8,1c1.6,0.3,2.9,0.7,2.9,2.2C334.9,499.1,333.7,500.1,331.8,500.1z"/>
	<path class="st5" d="M342.7,498.5c-0.6,0.9-1.6,1.6-3.1,1.6c-2.2,0-3.7-1.7-3.7-3.8c0-2.2,1.4-3.9,3.6-3.9c1.4,0,2.4,0.7,3,1.6
		l-1.2,0.8c-0.4-0.7-1-1.1-1.8-1.1c-1.3,0-2.1,1.1-2.1,2.5c0,1.4,0.8,2.5,2.1,2.5c0.9,0,1.4-0.4,1.8-1.1L342.7,498.5z"/>
	<path class="st5" d="M344.1,499.9v-7.4h1.5v1.1c0.6-0.8,1.3-1.2,2.3-1.2c1.1,0,1.8,0.5,2.1,1.4c0.6-0.9,1.5-1.4,2.6-1.4
		c1.6,0,2.5,1.1,2.5,2.7v4.8h-1.5v-4.5c0-0.8-0.2-1.6-1.4-1.6c-1,0-1.8,0.8-1.8,2v4.1h-1.5v-4.5c0-0.8-0.2-1.6-1.4-1.6
		c-1,0-1.8,0.8-1.8,2v4.1H344.1z"/>
	<path class="st5" d="M357,499.9v-1.8h1.8v1.8H357z"/>
	<path class="st5" d="M363.5,500.1c-1.5,0-2.7-0.6-3.4-1.7l1.1-0.8c0.6,0.8,1.5,1.2,2.4,1.2s1.5-0.3,1.5-1s-0.7-0.8-1.9-1
		c-1.5-0.3-2.8-0.7-2.8-2.2s1.4-2.2,2.9-2.2s2.6,0.6,3.2,1.3l-1,0.9c-0.5-0.6-1.3-0.9-2.2-0.9c-0.7,0-1.4,0.3-1.4,0.8
		c0,0.6,0.8,0.8,1.8,1c1.6,0.3,2.9,0.7,2.9,2.2C366.6,499.1,365.4,500.1,363.5,500.1z"/>
	<path class="st5" d="M372.7,499.5c-0.5,0.4-1,0.5-1.8,0.5c-0.9,0-1.6-0.3-2-0.9c-0.3-0.4-0.4-0.8-0.4-1.5v-3.9h-1.2v-1.2h1.2v-2
		h1.6v2h2.3v1.2h-2.3v3.9c0,0.7,0.3,1.1,1,1.1c0.4,0,0.7-0.2,0.9-0.3L372.7,499.5z"/>
	<path class="st5" d="M374.7,501.4h-1.3l3.1-11.5h1.3L374.7,501.4z"/>
	<path class="st5" d="M379.5,499.9v-1.4h2.3v-6.1c-0.5,0.2-1.4,0.5-2.3,0.6l-0.2-1.3c1.4-0.3,2.3-0.6,2.9-1.2h1.2v8h2.2v1.4H379.5z"
		/>
	<path class="st5" d="M389,499.9c0,1.8-1,2.6-2.5,2.6c-0.5,0-1-0.1-1.3-0.3l0.4-1.2c0.2,0.1,0.5,0.2,0.8,0.2c0.8,0,1.1-0.5,1.1-1.3
		v-7.3h1.6v7.3H389z M387.4,491.4v-1.5h1.6v1.5H387.4z"/>
	<path class="st5" d="M396.4,502.4v-3.5c-0.7,0.9-1.5,1.2-2.5,1.2c-2.1,0-3.4-1.7-3.4-3.8c0-2.2,1.3-3.9,3.4-3.9
		c1,0,1.8,0.4,2.5,1.2v-1.1h1.6v9.8L396.4,502.4L396.4,502.4z M394.2,493.8c-1.4,0-2.1,1.1-2.1,2.5c0,1.3,0.7,2.5,2.1,2.5
		s2.1-1.1,2.1-2.5C396.3,494.9,395.6,493.8,394.2,493.8z"/>
	<path class="st5" d="M404.1,494.2c-0.2-0.1-0.5-0.2-0.8-0.2c-0.9,0-1.8,0.8-1.8,2.2v3.7H400v-7.4h1.5v1.2c0.5-0.8,1.2-1.3,2.1-1.3
		c0.4,0,0.8,0.1,1,0.3L404.1,494.2z"/>
	<path class="st5" d="M407.2,489.9v3.7c0.7-0.9,1.5-1.2,2.5-1.2c2.1,0,3.4,1.7,3.4,3.8c0,2.2-1.3,3.9-3.4,3.9c-1,0-1.8-0.4-2.5-1.2
		v1.1h-1.5v-10L407.2,489.9L407.2,489.9z M409.3,498.7c1.4,0,2.1-1.1,2.1-2.5c0-1.3-0.7-2.5-2.1-2.5s-2.1,1.1-2.1,2.5
		C407.2,497.6,407.9,498.7,409.3,498.7z"/>
	<path class="st5" d="M418.5,491.2c-0.2-0.1-0.5-0.1-0.9-0.1c-0.6,0-0.9,0.2-0.9,0.9v0.7h1.7v1.2h-1.7v6.2h-1.6v-6.2h-1.2v-1.2h1.2
		v-0.8c0-1.4,0.9-2.1,2.4-2.1c0.4,0,0.9,0,1.2,0.2L418.5,491.2z"/>
	<path class="st5" d="M427.6,499.9h-1.7l-1.6-5.4l-1.6,5.4h-1.6l-2-7.4h1.7l1.3,5.4l1.6-5.4h1.4l1.6,5.4l1.3-5.4h1.6L427.6,499.9z"
		/>
	<path class="st5" d="M285,501.7V501h144.9v0.7H285z"/>
</g>
<path class="st0" d="M276,430.9v7.8l-4.3,2.5l4.3,2.5v70.2h164v-83H276z M439,513.1H277v-69.5l-3.8-2.2l3.8-2.2v-7.6h162V513.1z"/>
<g id="_xF099__copy">
	<path class="st3" d="M514.8,428.2c-1.4,0.6-2.8,1-4.1,1.1c-0.8,0.3,2.6-2.3,3.2-4.1c-1.4,0.9-2.9,1.5-4.6,1.8
		c-1.4-1.6-3.2-2.3-5.2-2.3s-3.7,0.7-5.1,2.2c-1.4,1.4-2.1,3.2-2.1,5.2c0,0.5,0.1,1.1,0.2,1.7c-2.9-0.2-5.7-0.9-8.3-2.3
		c-2.6-1.4-4.8-3.2-6.5-5.4c-0.7,1.1-1,2.4-1,3.7c0,1.3,0.3,2.4,0.9,3.5c0.6,1.1,1.4,2,2.3,2.6c-1.2,0-2.2-0.4-3.2-0.9v0.1
		c0,1.8,0.5,3.3,1.6,4.7c1.1,1.3,2.5,2.2,4.1,2.5c-0.6,0.2-1.3,0.3-1.9,0.3c-0.4,0-0.9,0-1.4-0.1c0.5,1.5,1.3,2.7,2.5,3.6
		c1.2,0.9,2.6,1.4,4.2,1.5c-2.6,2.1-5.6,3.1-8.9,3.1c-0.6,0-1.2,0-1.7-0.1c3.3,2.2,7,3.3,11,3.3c2.5,0,4.9-0.4,7.2-1.2
		c2.2-0.8,4.1-1.9,5.7-3.3c1.6-1.4,3-3,4.1-4.8s2-3.7,2.6-5.7s0.8-3.9,0.8-5.9c0-0.4,0-0.7,0-1C512.6,430.9,513.8,429.7,514.8,428.2
		z"/>
</g>
</svg>
