<?xml version="1.0" encoding="utf-8"?>
<!-- Generator: Adobe Illustrator 19.1.0, SVG Export Plug-In . SVG Version: 6.00 Build 0)  -->
<svg version="1.1" id="Iphone_Outline_1_" xmlns="http://www.w3.org/2000/svg" xmlns:xlink="http://www.w3.org/1999/xlink" x="0px"
	 y="0px" width="269px" height="571px" viewBox="0 0 269 571" style="enable-background:new 0 0 269 571;" xml:space="preserve">
<g id="base_2_">
	<path style="fill:#DDDDDD;" d="M230.1,10c19.2,0,34.9,15.6,34.9,34.8v488.6c0,19.2-15.6,34.8-34.9,34.8H40.8
		c-19.2,0-34.9-15.6-34.9-34.8V44.8C5.9,25.6,21.6,10,40.8,10H230.1 M230.1,8H40.8C20.5,8,3.9,24.5,3.9,44.8v488.6
		c0,20.3,16.5,36.8,36.9,36.8h189.3c20.3,0,36.9-16.5,36.9-36.8V44.8C266.9,24.5,250.4,8,230.1,8L230.1,8z"/>
</g>
<g id="screen_2_">
	<path style="fill:#DDDDDD;" d="M249,87l-0.1,404.2L18,491V87H249 M249.2,86H17.7c-0.4,0-0.8,0.3-0.8,0.8v404.5
		c0,0.4,0.3,0.8,0.8,0.8l231.4,0.2c0.4,0,0.8-0.3,0.8-0.8L250,86.7C250,86.3,249.7,86,249.2,86L249.2,86z"/>
</g>
<g id="ear_2_">
	<g id="ear">
		<path style="fill:#DDDDDD;" d="M154.4,50.1c2.4,0,4.4,2,4.4,4.4c0,2.4-2,4.4-4.4,4.4h-39.3c-2.4,0-4.4-2-4.4-4.4
			c0-2.4,2-4.4,4.4-4.4H154.4 M154.4,49.1h-39.3c-3,0-5.4,2.4-5.4,5.4c0,3,2.4,5.4,5.4,5.4h39.3c3,0,5.4-2.4,5.4-5.4
			C159.7,51.5,157.3,49.1,154.4,49.1L154.4,49.1z"/>
	</g>
</g>
<g id="camera_1_">
	<g id="Camera_2_">
		<circle style="fill:#DDDDDD;" cx="135.1" cy="32.9" r="5"/>
	</g>
</g>
<g id="Home_Button_1_">
	<g id="Base">
		<path style="fill:#DDDDDD;" d="M137.5,509.7c12.1,0,21.9,9.8,21.9,21.9s-9.8,21.9-21.9,21.9c-12.1,0-21.9-9.8-21.9-21.9
			S125.4,509.7,137.5,509.7 M137.5,508.7c-12.7,0-22.9,10.3-22.9,22.9s10.3,22.9,22.9,22.9c12.7,0,22.9-10.3,22.9-22.9
			S150.1,508.7,137.5,508.7L137.5,508.7z"/>
	</g>
	<g id="Rounded_Rectangle">
		<path style="fill:#DDDDDD;" d="M143,522.4h-11.1c-1.8,0-3.3,1.5-3.3,3.3v11.1c0,1.8,1.5,3.3,3.3,3.3H143c1.8,0,3.3-1.5,3.3-3.3
			v-11.1C146.3,523.9,144.8,522.4,143,522.4z M145,536.9c0,1.1-0.9,2-2,2h-11.1c-1.1,0-2-0.9-2-2v-11.1c0-1.1,0.9-2,2-2H143
			c1.1,0,2,0.9,2,2V536.9z"/>
	</g>
</g>
</svg>
