<?xml version="1.0" encoding="utf-8"?>
<!-- Generator: Adobe Illustrator 19.1.0, SVG Export Plug-In . SVG Version: 6.00 Build 0)  -->
<svg version="1.1" xmlns="http://www.w3.org/2000/svg" xmlns:xlink="http://www.w3.org/1999/xlink" x="0px" y="0px" width="318px"
	 height="297px" viewBox="0 0 318 297" style="enable-background:new 0 0 318 297;" xml:space="preserve">
<defs>
	<filter id="Adobe_OpacityMaskFilter" filterUnits="userSpaceOnUse" x="0" y="0" width="318" height="297">
		<feColorMatrix  type="matrix" values="1 0 0 0 0  0 1 0 0 0  0 0 1 0 0  0 0 0 1 0"/>
	</filter>
</defs>
<mask maskUnits="userSpaceOnUse" x="0" y="0" width="318" height="297" id="Visual_2_">
	<g id="VisualDeckkraftmaske_3_" style="filter:url(#Adobe_OpacityMaskFilter);">
		
			<image style="overflow:visible;" width="1440" height="3050" id="VisualDeckkraftmaske_2_" xlink:href="5A1353903816001.jpg"  transform="matrix(1 0 0 1 -173 -948.0325)">
		</image>
	</g>
</mask>
<g id="Visual_1_" style="mask:url(#Visual_2_);">
	<g id="mit_shortcut_1_">
		<g id="Iphone_Outline_1_">
			<g id="ear_2_">
				<g id="ear">
					<path style="fill:#DDDDDD;" d="M176.4,42c2.4,0,4.4,2,4.4,4.4c0,2.4-2,4.4-4.4,4.4h-39.3c-2.4,0-4.4-2-4.4-4.4
						c0-2.4,2-4.4,4.4-4.4H176.4 M176.4,41h-39.3c-3,0-5.4,2.4-5.4,5.4c0,3,2.4,5.4,5.4,5.4h39.3c3,0,5.4-2.4,5.4-5.4
						C181.7,43.4,179.3,41,176.4,41L176.4,41z"/>
				</g>
			</g>
			<g id="camera_1_">
				<g id="Camera">
					<circle style="fill:#DDDDDD;" cx="157.1" cy="24.8" r="5"/>
				</g>
			</g>
		</g>
		<g id="Phone_screen">
			<rect x="40.1" y="79" style="fill:#F8F8F8;" width="231.2" height="217.7"/>
		</g>
	</g>
	<g id="Rechteck_31">
		<rect y="296" style="fill:#DDDDDD;" width="318" height="1"/>
	</g>
	<path style="fill:#DDDDDD;" d="M27.9,296.6V36.8C27.9,17.6,43.6,2,62.8,2h189.3c19.2,0,34.9,15.6,34.9,34.8v259.8h2V36.8
		c0-20.3-16.5-36.8-36.9-36.8H62.8C42.5,0,25.9,16.5,25.9,36.8v259.8H27.9z"/>
	<path style="fill:#DDDDDD;" d="M40,297v-218h231l0,218h1l0-218.3c0-0.4-0.3-0.8-0.8-0.8H39.7c-0.4,0-0.8,0.3-0.8,0.8V297H40z"/>
</g>
</svg>
