<?xml version="1.0" encoding="utf-8"?>
<!-- Generator: Adobe Illustrator 19.1.0, SVG Export Plug-In . SVG Version: 6.00 Build 0)  -->
<svg version="1.1" id="Ebene_1" xmlns="http://www.w3.org/2000/svg" xmlns:xlink="http://www.w3.org/1999/xlink" x="0px" y="0px"
	 width="20px" height="25px" viewBox="0 0 20 25" style="enable-background:new 0 0 20 25;" xml:space="preserve">
<!--<g id="app_marketing">-->
	<!--<path style="fill:#010202;" d="M0,0v25h20V0H0z M19,24H1V8h18V24z M19,7H1V1h18V7z M4,6c1.1,0,2-0.9,2-2S5.1,2,4,2S2,2.9,2,4-->
		<!--S2.9,6,4,6z M17,3H8v2h9V3z"/>-->
<!--</g>-->
<g>
	<path d="M0,0v25h20V0H0z M19,24H1V8h18V24z M19,7H1V1h18V7z M4,6c1.1,0,2-0.9,2-2S5.1,2,4,2S2,2.9,2,4
		S2.9,6,4,6z M17,3H8v2h9V3z"/>
</g>
</svg>
