<?xml version="1.0" encoding="utf-8"?>
<!-- Generator: Adobe Illustrator 19.1.0, SVG Export Plug-In . SVG Version: 6.00 Build 0)  -->
<svg version="1.1" id="Ebene_1" xmlns="http://www.w3.org/2000/svg" xmlns:xlink="http://www.w3.org/1999/xlink" x="0px" y="0px"
	 width="21px" height="21px" viewBox="0 0 21 21" style="enable-background:new 0 0 21 21;" xml:space="preserve">
<!--<g>-->
	<!--<path style="fill:#010202;" d="M1,0H0v21h21v-1h-7v-8H9v8H8V7H3v13H1V0L1,0z M4,20V8h3v12H4L4,20z M10,20v-7h3v7H10L10,20z M20,3-->
		<!--h-5v17h1V4h3v16h1V3L20,3z"/>-->
<!--</g>-->
<g>
	<path d="M1,0H0v21h21v-1h-7v-8H9v8H8V7H3v13H1V0L1,0z M4,20V8h3v12H4L4,20z M10,20v-7h3v7H10L10,20z M20,3
		h-5v17h1V4h3v16h1V3L20,3z"/>
</g>
</svg>
