<?xml version="1.0" encoding="utf-8"?>
<!-- Generator: Adobe Illustrator 19.1.0, SVG Export Plug-In . SVG Version: 6.00 Build 0)  -->
<svg version="1.1" id="Visual_1_" xmlns="http://www.w3.org/2000/svg" xmlns:xlink="http://www.w3.org/1999/xlink" x="0px" y="0px"
	 width="646px" height="469px" viewBox="184 187.9 646 469" style="enable-background:new 184 187.9 646 469;" xml:space="preserve"
	>
<style type="text/css">
	.st0{fill:#E1E0E1;}
	.st1{fill:#F8F8F8;}
	.st2{fill:#8E8E93;}
	.st3{fill:#222222;}
</style>
<path class="st0" d="M825,187.9H189c-2.8,0-5,2.2-5,5v33h646v-33C830,190.1,827.8,187.9,825,187.9z M734,211.9c0,2.8-2.2,5-5,5H285
	c-2.8,0-5-2.2-5-5v-12c0-2.8,2.2-5,5-5h444c2.8,0,5,2.2,5,5V211.9z"/>
<g id="Rechteck_11">
	<rect x="184" y="225.9" class="st1" width="646" height="431"/>
</g>
<g>
	<circle class="st2" cx="203" cy="205.9" r="6"/>
	<circle class="st2" cx="223" cy="205.9" r="6"/>
	<circle class="st2" cx="242" cy="205.9" r="6"/>
</g>
<g id="manager.shortcut.sc">
	<g>
		<path class="st3" d="M423.9,209.9v-6.3h1.3v0.9c0.5-0.7,1.2-1,2-1c0.9,0,1.6,0.4,1.8,1.2c0.6-0.8,1.3-1.2,2.2-1.2
			c1.4,0,2.1,0.9,2.1,2.3v4.1H432v-3.8c0-0.7-0.2-1.4-1.2-1.4c-0.9,0-1.5,0.6-1.5,1.7v3.5H428v-3.8c0-0.7-0.2-1.4-1.2-1.4
			c-0.9,0-1.5,0.6-1.5,1.7v3.5H423.9z"/>
		<path class="st3" d="M440.1,210c-0.6,0-1.1-0.3-1.3-0.9c-0.5,0.7-1.4,1-2.1,1c-1.3,0-2.2-0.7-2.2-1.9c0-1.6,1.4-1.8,2.5-1.9
			c0.9-0.1,1.6-0.2,1.6-0.8s-0.7-0.8-1.3-0.8c-0.6,0-1.4,0.2-2,0.6l-0.5-1c0.8-0.5,1.6-0.8,2.6-0.8c1.5,0,2.5,0.6,2.5,2.1v2.9
			c0,0.4,0.1,0.6,0.4,0.6c0.1,0,0.3,0,0.3-0.1l0.1,0.9C440.7,209.9,440.3,210,440.1,210z M438.6,206.6c-0.4,0.5-0.9,0.5-1.6,0.6
			c-0.7,0.1-1.2,0.3-1.2,1c0,0.7,0.5,0.9,1.2,0.9c0.8,0,1.6-0.4,1.6-1.5V206.6z"/>
		<path class="st3" d="M441.9,209.9v-6.3h1.3v0.9c0.5-0.7,1.2-1.1,2.1-1.1c1.4,0,2.2,0.9,2.2,2.3v4.2h-1.3v-3.8
			c0-0.7-0.2-1.4-1.2-1.4c-0.9,0-1.7,0.7-1.7,1.7v3.5H441.9z"/>
		<path class="st3" d="M454.2,210c-0.6,0-1.1-0.3-1.3-0.9c-0.5,0.7-1.4,1-2.1,1c-1.3,0-2.2-0.7-2.2-1.9c0-1.6,1.4-1.8,2.5-1.9
			c0.9-0.1,1.6-0.2,1.6-0.8s-0.7-0.8-1.3-0.8c-0.6,0-1.4,0.2-2,0.6l-0.5-1c0.8-0.5,1.6-0.8,2.6-0.8c1.5,0,2.5,0.6,2.5,2.1v2.9
			c0,0.4,0.1,0.6,0.4,0.6c0.1,0,0.3,0,0.3-0.1l0.1,0.9C454.8,209.9,454.5,210,454.2,210z M452.8,206.6c-0.4,0.5-0.9,0.5-1.6,0.6
			c-0.7,0.1-1.2,0.3-1.2,1c0,0.7,0.5,0.9,1.2,0.9c0.8,0,1.6-0.4,1.6-1.5V206.6z"/>
		<path class="st3" d="M461.3,211.1c-0.7,0.7-1.7,1-2.8,1c-1,0-1.9-0.2-2.7-0.7l0.6-1.1c0.5,0.4,1.3,0.6,2.1,0.6
			c1.2,0,2.1-0.5,2.1-1.8v-0.6c-0.5,0.7-1.3,1.1-2.2,1.1c-1.7,0-2.8-1.3-2.8-3c0-1.8,1.2-3.1,2.9-3.1c0.9,0,1.6,0.3,2.1,1.1v-0.9
			h1.3v5.2C462,209.8,461.9,210.5,461.3,211.1z M458.9,204.6c-1.2,0-1.8,0.9-1.8,1.9c0,1.1,0.6,1.9,1.8,1.9c1.2,0,1.8-0.9,1.8-1.9
			C460.7,205.5,460.1,204.6,458.9,204.6z"/>
		<path class="st3" d="M469.6,207.1h-4.8c0.1,1.2,0.8,1.8,1.9,1.8c0.7,0,1.4-0.3,1.8-0.8l0.9,0.8c-0.7,0.7-1.5,1.1-2.7,1.1
			c-2.1,0-3.3-1.4-3.3-3.3c0-1.9,1.2-3.3,3.2-3.3c1.9,0,3.1,1.4,3.1,3.2C469.6,206.8,469.6,207,469.6,207.1z M468.3,206.1
			c-0.1-1.1-0.8-1.6-1.7-1.6c-1,0-1.7,0.7-1.7,1.6H468.3z"/>
		<path class="st3" d="M474.5,205c-0.2-0.1-0.4-0.2-0.7-0.2c-0.8,0-1.5,0.7-1.5,1.9v3.2H471v-6.3h1.3v1c0.4-0.7,1-1.1,1.8-1.1
			c0.3,0,0.7,0.1,0.8,0.2L474.5,205z"/>
		<path class="st3" d="M475.1,209.9v-1.5h1.5v1.5H475.1z"/>
		<path class="st3" d="M480.7,210c-1.3,0-2.3-0.5-2.9-1.4l0.9-0.7c0.5,0.7,1.2,1,2.1,1c0.8,0,1.3-0.3,1.3-0.8c0-0.6-0.6-0.7-1.6-0.9
			c-1.3-0.2-2.4-0.6-2.4-1.9s1.2-1.9,2.5-1.9s2.2,0.6,2.7,1.1l-0.8,0.8c-0.4-0.5-1.1-0.8-1.9-0.8c-0.6,0-1.2,0.2-1.2,0.7
			c0,0.6,0.7,0.7,1.5,0.8c1.3,0.2,2.5,0.6,2.5,1.9C483.4,209.2,482.4,210,480.7,210z"/>
		<path class="st3" d="M484.7,209.9v-8.6h1.3v3.2c0.5-0.7,1.2-1.1,2.1-1.1c1.4,0,2.2,0.9,2.2,2.3v4.2H489v-3.8
			c0-0.7-0.2-1.4-1.2-1.4c-0.9,0-1.7,0.7-1.7,1.7v3.5H484.7z"/>
		<path class="st3" d="M494.8,210c-2,0-3.2-1.4-3.2-3.3c0-1.9,1.2-3.3,3.2-3.3s3.2,1.4,3.2,3.3C497.9,208.7,496.7,210,494.8,210z
			 M494.8,204.6c-1.1,0-1.8,0.9-1.8,2.1c0,1.2,0.6,2.1,1.8,2.1c1.1,0,1.8-0.9,1.8-2.1C496.5,205.5,495.9,204.6,494.8,204.6z"/>
		<path class="st3" d="M502.9,205c-0.2-0.1-0.4-0.2-0.7-0.2c-0.8,0-1.5,0.7-1.5,1.9v3.2h-1.3v-6.3h1.3v1c0.4-0.7,1-1.1,1.8-1.1
			c0.3,0,0.7,0.1,0.8,0.2L502.9,205z"/>
		<path class="st3" d="M508.1,209.6c-0.4,0.3-0.9,0.5-1.5,0.5c-0.8,0-1.4-0.3-1.7-0.8c-0.2-0.3-0.3-0.7-0.3-1.3v-3.3h-1.1v-1h1.1
			v-1.8h1.3v1.7h1.9v1h-1.9v3.3c0,0.6,0.3,0.9,0.9,0.9c0.3,0,0.6-0.1,0.8-0.3L508.1,209.6z"/>
		<path class="st3" d="M514.5,208.7c-0.5,0.8-1.4,1.4-2.6,1.4c-1.9,0-3.1-1.4-3.1-3.3c0-1.9,1.2-3.3,3.1-3.3c1.2,0,2.1,0.6,2.6,1.4
			l-1,0.7c-0.3-0.6-0.9-0.9-1.5-0.9c-1.1,0-1.8,0.9-1.8,2.1s0.7,2.1,1.8,2.1c0.7,0,1.2-0.4,1.6-0.9L514.5,208.7z"/>
		<path class="st3" d="M521.2,203.6v6.3h-1.3V209c-0.5,0.7-1.2,1.1-2.1,1.1c-1.4,0-2.2-0.9-2.2-2.3v-4.1h1.3v3.8
			c0,0.7,0.2,1.4,1.2,1.4c0.9,0,1.7-0.7,1.7-1.7v-3.5h1.4V203.6z"/>
		<path class="st3" d="M526.8,209.6c-0.4,0.3-0.9,0.5-1.5,0.5c-0.8,0-1.4-0.3-1.7-0.8c-0.2-0.3-0.3-0.7-0.3-1.3v-3.3h-1.1v-1h1.1
			v-1.8h1.3v1.7h1.9v1h-1.9v3.3c0,0.6,0.3,0.9,0.9,0.9c0.3,0,0.6-0.1,0.8-0.3L526.8,209.6z"/>
		<path class="st3" d="M527.9,209.9v-6.3h1.3v0.9c0.5-0.7,1.2-1,2-1c0.9,0,1.6,0.4,1.8,1.2c0.6-0.8,1.3-1.2,2.2-1.2
			c1.4,0,2.1,0.9,2.1,2.3v4.1H536v-3.8c0-0.7-0.2-1.4-1.2-1.4c-0.9,0-1.5,0.6-1.5,1.7v3.5H532v-3.8c0-0.7-0.2-1.4-1.2-1.4
			c-0.9,0-1.5,0.6-1.5,1.7v3.5H527.9z"/>
		<path class="st3" d="M544.8,207.1H540c0.1,1.2,0.8,1.8,1.9,1.8c0.7,0,1.4-0.3,1.8-0.8l0.9,0.8c-0.7,0.7-1.5,1.1-2.7,1.1
			c-2.1,0-3.3-1.4-3.3-3.3c0-1.9,1.2-3.3,3.2-3.3c1.9,0,3.1,1.4,3.1,3.2C544.8,206.8,544.8,207,544.8,207.1z M543.5,206.1
			c-0.1-1.1-0.8-1.6-1.7-1.6c-1,0-1.7,0.7-1.7,1.6H543.5z"/>
		<path class="st3" d="M550.8,209.9V209c-0.6,0.8-1.3,1.1-2.1,1.1c-1.8,0-2.9-1.4-2.9-3.3s1.1-3.3,2.9-3.3c0.8,0,1.6,0.3,2.1,1.1
			v-3.2h1.3v8.5H550.8z M548.9,204.6c-1.2,0-1.8,0.9-1.8,2.1c0,1.2,0.6,2.1,1.8,2.1c1.2,0,1.8-0.9,1.8-2.1
			C550.8,205.6,550.1,204.6,548.9,204.6z"/>
		<path class="st3" d="M553.8,202.6v-1.2h1.3v1.2H553.8z M553.8,209.9v-6.3h1.3v6.3H553.8z"/>
		<path class="st3" d="M562,210c-0.6,0-1.1-0.3-1.3-0.9c-0.5,0.7-1.4,1-2.1,1c-1.3,0-2.2-0.7-2.2-1.9c0-1.6,1.4-1.8,2.5-1.9
			c0.9-0.1,1.6-0.2,1.6-0.8s-0.7-0.8-1.3-0.8c-0.6,0-1.4,0.2-2,0.6l-0.5-1c0.8-0.5,1.6-0.8,2.6-0.8c1.5,0,2.5,0.6,2.5,2.1v2.9
			c0,0.4,0.1,0.6,0.4,0.6c0.1,0,0.3,0,0.3-0.1l0.1,0.9C562.6,209.9,562.2,210,562,210z M560.5,206.6c-0.4,0.5-0.9,0.5-1.6,0.6
			c-0.7,0.1-1.2,0.3-1.2,1c0,0.7,0.5,0.9,1.2,0.9c0.8,0,1.6-0.4,1.6-1.5V206.6z"/>
		<path class="st3" d="M563.7,209.9v-1.5h1.5v1.5H563.7z"/>
		<path class="st3" d="M572.3,208.7c-0.5,0.8-1.4,1.4-2.6,1.4c-1.9,0-3.1-1.4-3.1-3.3c0-1.9,1.2-3.3,3.1-3.3c1.2,0,2.1,0.6,2.6,1.4
			l-1,0.7c-0.3-0.6-0.9-0.9-1.5-0.9c-1.1,0-1.8,0.9-1.8,2.1s0.7,2.1,1.8,2.1c0.7,0,1.2-0.4,1.6-0.9L572.3,208.7z"/>
		<path class="st3" d="M576.2,210c-2,0-3.2-1.4-3.2-3.3c0-1.9,1.2-3.3,3.2-3.3s3.2,1.4,3.2,3.3C579.4,208.7,578.1,210,576.2,210z
			 M576.2,204.6c-1.1,0-1.8,0.9-1.8,2.1c0,1.2,0.6,2.1,1.8,2.1c1.1,0,1.8-0.9,1.8-2.1C578,205.5,577.3,204.6,576.2,204.6z"/>
		<path class="st3" d="M580.7,209.9v-6.3h1.3v0.9c0.5-0.7,1.2-1,2-1c0.9,0,1.6,0.4,1.8,1.2c0.6-0.8,1.3-1.2,2.2-1.2
			c1.4,0,2.1,0.9,2.1,2.3v4.1h-1.3v-3.8c0-0.7-0.2-1.4-1.2-1.4c-0.9,0-1.5,0.6-1.5,1.7v3.5h-1.3v-3.8c0-0.7-0.2-1.4-1.2-1.4
			c-0.9,0-1.5,0.6-1.5,1.7v3.5H580.7z"/>
	</g>
</g>
</svg>
