<?xml version="1.0" standalone="no"?>
<!DOCTYPE svg PUBLIC "-//W3C//DTD SVG 20010904//EN"
 "http://www.w3.org/TR/2001/REC-SVG-20010904/DTD/svg10.dtd">
<svg version="1.0" xmlns="http://www.w3.org/2000/svg"
 width="120.000000pt" height="120.000000pt" viewBox="0 0 120.000000 120.000000"
 preserveAspectRatio="xMidYMid meet">
<metadata>
Created by potrace 1.11, written by Peter Selinger 2001-2013
</metadata>
<g transform="translate(0.000000,120.000000) scale(0.100000,-0.100000)"
fill="#000000" stroke="none">
<path d="M505 1175 c-328 -58 -537 -357 -480 -690 4 -22 20 -72 37 -112 32
-78 57 -98 86 -69 14 14 15 20 3 49 -79 190 -81 320 -4 475 89 180 285 293
483 278 78 -5 117 -15 189 -46 58 -26 83 -20 89 18 3 16 -9 26 -60 51 -35 16
-77 32 -93 35 -17 3 -41 8 -55 11 -57 11 -129 12 -195 0z"/>
<path d="M941 996 l-124 -124 -56 28 c-144 73 -292 51 -402 -60 -115 -116
-135 -295 -46 -423 l19 -29 -126 -127 c-69 -70 -126 -135 -126 -144 0 -23 36
-40 58 -28 9 6 68 62 131 126 63 63 117 114 120 112 89 -50 129 -62 206 -62
100 1 120 6 181 44 106 65 166 171 166 296 0 55 -32 157 -58 187 -20 21 -25
15 134 172 50 50 95 99 98 109 7 22 -12 47 -35 47 -9 0 -72 -56 -140 -124z
m-224 -157 l45 -22 -54 -56 c-29 -30 -56 -57 -60 -59 -16 -8 -7 -52 12 -62 18
-10 29 -3 90 55 l69 67 22 -49 c46 -98 24 -227 -52 -301 -78 -77 -207 -99
-303 -52 l-48 23 61 61 c65 65 76 97 41 116 -18 10 -29 3 -89 -55 l-69 -66
-23 47 c-31 65 -31 163 0 227 29 60 101 123 160 141 60 18 142 12 198 -15z"/>
<path d="M1050 895 c-11 -13 -10 -25 8 -68 75 -180 66 -356 -25 -500 -43 -68
-128 -143 -206 -182 -144 -70 -291 -73 -439 -8 -59 26 -84 25 -94 -2 -10 -24
22 -51 90 -78 281 -113 603 9 735 278 85 173 88 361 8 520 -28 57 -53 69 -77
40z"/>
</g>
</svg>
