<svg version="1.1" xmlns="http://www.w3.org/2000/svg" xmlns:xlink="http://www.w3.org/1999/xlink" width="124px" height="41px" viewBox="0 0 124 41">
<g>
	<path class="background" fill="#460200" d="M118.8,0H5.2C2.3,0,0,2.2,0,5v31c0,2.8,2.3,5,5.2,5h113.5c2.9,0,5.2-2.2,5.2-5V5C124,2.2,121.7,0,118.8,0z"
		/>
	<g>
		<path fill="#FFFFFF" d="M90.2,9.9l0.1,0.8h0c0.2-0.4,0.8-0.9,1.7-0.9c0.9,0,1.9,0.6,1.9,2.2v3h-1.3v-2.9c0-0.7-0.3-1.3-1-1.3
			c-0.5,0-0.9,0.4-1.1,0.8c0,0.1-0.1,0.3-0.1,0.4v3H89v-3.6c0-0.6,0-1.1,0-1.5H90.2z"/>
		<rect x="70.5" y="7.5" fill="#FFFFFF" width="1.3" height="7.4"/>
		<path fill="#FFFFFF" d="M51.8,7.7c0.5,0,0.7,0.3,0.8,0.7c0,0.4-0.3,0.7-0.8,0.7c-0.4,0-0.7-0.3-0.7-0.7C51.1,8,51.4,7.7,51.8,7.7z
			"/>
		<rect x="51.1" y="9.9" fill="#FFFFFF" width="1.3" height="5.1"/>
		<path fill="#FFFFFF" d="M41.7,14.9h-1.3l-2-5.1h1.5l0.9,2.6c0.2,0.4,0.3,0.9,0.4,1.3h0c0.1-0.4,0.2-0.8,0.4-1.3l0.9-2.6h1.4
			L41.7,14.9z"/>
		<rect x="54.6" y="7.5" fill="#FFFFFF" width="1.3" height="7.4"/>
		<path fill="#FFFFFF" d="M78.1,30.7c-0.9,0.8-2.2,1.2-3.9,1.2c-1.5,0-2.8-0.3-3.7-0.8l0.5-1.8c1,0.6,2.1,0.8,3.3,0.8
			c0.9,0,1.5-0.2,2-0.6c0.5-0.4,0.7-0.9,0.7-1.5c0-0.5-0.2-1-0.6-1.4c-0.4-0.4-1.1-0.7-2-1.1c-2.5-0.9-3.8-2.2-3.8-3.9
			c0-1.1,0.4-2,1.3-2.8c0.9-0.7,2.1-1.1,3.5-1.1c1.3,0,2.4,0.2,3.3,0.6l-0.6,1.8c-0.8-0.4-1.7-0.6-2.8-0.6c-0.8,0-1.5,0.2-1.9,0.6
			C73.2,20.6,73,21,73,21.5c0,0.5,0.2,1,0.7,1.3c0.4,0.3,1.1,0.7,2.1,1c1.2,0.5,2.1,1,2.7,1.7c0.6,0.6,0.9,1.4,0.9,2.4
			C79.4,29,79,30,78.1,30.7z"/>
		<path fill="#FFFFFF" d="M86.2,23.5h-2.5v4.8c0,1.2,0.5,1.8,1.4,1.8c0.4,0,0.7,0,1-0.1l0.1,1.7c-0.5,0.2-1.1,0.2-1.8,0.2
			c-0.9,0-1.6-0.3-2.1-0.8c-0.5-0.5-0.8-1.4-0.8-2.7v-5h-1.5v-1.6h1.5v-1.8l2.3-0.6v2.4h2.5V23.5z"/>
		<path fill="#FFFFFF" d="M98.1,9.9h0.8v-1l1.3-0.4v1.3h1.3v1h-1.3V13c0,0.6,0.2,0.9,0.7,0.9c0.2,0,0.4,0,0.5-0.1l0,1
			c-0.2,0.1-0.6,0.1-1,0.1c-0.5,0-0.9-0.1-1.2-0.4c-0.3-0.3-0.4-0.8-0.4-1.4v-2.4h-0.8V9.9z"/>
		<path fill="#FFFFFF" d="M104,23.8c-0.2,0-0.5-0.1-0.7-0.1c-0.8,0-1.4,0.3-1.9,0.9c-0.4,0.5-0.6,1.2-0.6,1.9v5.2h-2.3V25
			c0-1.1,0-2.2-0.1-3.1h2l0.1,1.9h0.1c0.2-0.7,0.6-1.2,1.2-1.6c0.5-0.3,1.1-0.5,1.7-0.5c0.2,0,0.4,0,0.6,0V23.8z"/>
		<path fill="#FFFFFF" d="M104.3,11.9v3.1H103V7.5h1.3v3h0c0.2-0.2,0.4-0.4,0.7-0.6c0.3-0.1,0.6-0.2,0.9-0.2c0.9,0,1.9,0.6,1.9,2.2
			v3h-1.3v-2.9c0-0.7-0.3-1.3-1-1.3c-0.5,0-0.9,0.3-1.1,0.7C104.3,11.6,104.3,11.8,104.3,11.9z"/>
		<path fill="#FFFFFF" d="M23.5,28.9h-12V12.1h12V28.9z M17.5,32.3c-0.7,0-1.2-0.5-1.2-1.2c0-0.6,0.6-1.2,1.2-1.2s1.2,0.5,1.2,1.2
			C18.7,31.7,18.2,32.3,17.5,32.3z M16.3,9.8h2.3c0.1,0,0.3,0.1,0.3,0.3c0,0.1-0.1,0.3-0.3,0.3h-2.3c-0.1,0-0.3-0.1-0.3-0.3
			C16.1,10,16.2,9.8,16.3,9.8z M22.6,7.6H12.4c-1.3,0-2.4,1-2.4,2.2v21.4c0,1.2,1.1,2.2,2.4,2.2h10.1c1.3,0,2.4-1,2.4-2.2V9.8
			C24.9,8.6,23.9,7.6,22.6,7.6z"/>
		<path fill="#FFFFFF" d="M51.9,29.3c-0.5,0.6-1.2,1-2,1c-0.7,0-1.3-0.2-1.8-0.7c-0.5-0.5-0.7-1.1-0.7-1.8V26c0-0.2,0-0.4,0.1-0.7
			c0.2-0.6,0.4-1.1,0.9-1.4c0.5-0.4,1-0.5,1.5-0.5c0.8,0,1.5,0.3,2,1c0.5,0.6,0.7,1.4,0.7,2.4C52.6,27.8,52.4,28.6,51.9,29.3z
			 M53.7,23c-0.8-0.9-1.8-1.4-3.1-1.4c-1.6,0-2.7,0.6-3.5,1.8h0L47,21.9h-2c0.1,1.1,0.1,2.2,0.1,3.2v10.6h2.3v-5.2
			c0.6,0.9,1.6,1.4,3,1.4c1.3,0,2.3-0.4,3.2-1.3c1-1,1.4-2.3,1.4-4C55,25.2,54.6,24,53.7,23z"/>
		<path fill="#FFFFFF" d="M94,29.1c-0.5,0.8-1.2,1.2-2.1,1.2c-0.9,0-1.6-0.4-2.1-1.2c-0.4-0.6-0.6-1.4-0.6-2.3
			c0-0.9,0.2-1.7,0.6-2.4c0.5-0.8,1.2-1.2,2.1-1.2c0.9,0,1.6,0.4,2.1,1.2c0.4,0.7,0.6,1.4,0.6,2.3C94.7,27.7,94.4,28.5,94,29.1z
			 M95.7,23.1c-0.9-1-2.1-1.4-3.7-1.4c-1.6,0-2.8,0.5-3.8,1.5c-0.9,1-1.4,2.2-1.4,3.8c0,1.5,0.4,2.7,1.4,3.6c0.9,1,2.1,1.4,3.6,1.4
			c1.6,0,2.8-0.5,3.8-1.5c0.9-1,1.4-2.2,1.4-3.7C97,25.2,96.6,24,95.7,23.1z"/>
		<path fill="#FFFFFF" d="M63.3,29.3c-0.5,0.6-1.2,1-2,1c-0.7,0-1.3-0.2-1.8-0.7c-0.5-0.5-0.7-1.1-0.7-1.8V26c0-0.2,0-0.4,0.1-0.7
			c0.1-0.6,0.4-1.1,0.9-1.4c0.5-0.4,1-0.5,1.5-0.5c0.8,0,1.5,0.3,2,1c0.5,0.6,0.7,1.4,0.7,2.4C64,27.8,63.8,28.6,63.3,29.3z
			 M65.1,23c-0.8-0.9-1.8-1.4-3.1-1.4c-1.6,0-2.7,0.6-3.5,1.8h0l-0.1-1.6h-2c0.1,1.1,0.1,2.2,0.1,3.2v10.6h2.3v-5.2
			c0.6,0.9,1.6,1.4,3,1.4c1.3,0,2.3-0.4,3.2-1.3c1-1,1.4-2.3,1.4-4C66.4,25.2,66,24,65.1,23z"/>
		<path fill="#FFFFFF" d="M35.6,26l1.2-3.6c0.3-1.1,0.5-2,0.7-2.6h0c0.4,1.4,0.6,2.2,0.7,2.6l1.2,3.6H35.6z M39,18h-2.9l-4.6,13.7
			h2.4l1.3-4h4.7l1.3,4h2.5L39,18z"/>
		<path fill="#FFFFFF" d="M106.9,25.8c0.1-0.7,0.3-1.2,0.7-1.7c0.5-0.6,1.1-0.9,1.8-0.9c0.8,0,1.4,0.3,1.8,0.9
			c0.3,0.5,0.5,1,0.4,1.7H106.9z M113.9,26.3c0-1.2-0.3-2.3-0.9-3.1c-0.8-1-1.9-1.6-3.4-1.6c-1.5,0-2.7,0.5-3.6,1.6
			c-0.8,1-1.3,2.2-1.3,3.7c0,1.5,0.5,2.7,1.4,3.6c0.9,0.9,2.2,1.3,3.8,1.3c1.3,0,2.5-0.2,3.5-0.6l-0.4-1.5c-0.8,0.3-1.8,0.5-2.8,0.5
			c-0.9,0-1.7-0.2-2.3-0.7c-0.6-0.5-1-1.2-1-2.2h6.9C113.9,27,113.9,26.7,113.9,26.3z"/>
		<path fill="#FFFFFF" d="M47.7,13.1c0,0.1,0,0.2,0,0.3c-0.1,0.4-0.5,0.7-1.1,0.7c-0.4,0-0.8-0.2-0.8-0.7c0-0.8,0.9-1,1.9-0.9V13.1z
			 M49,13.7v-1.8c0-1.1-0.5-2.1-2.2-2.1c-0.9,0-1.5,0.2-1.9,0.5l0.3,0.8c0.4-0.2,0.9-0.4,1.4-0.4c0.9,0,1.1,0.6,1.1,0.9v0.1
			c-2,0-3.2,0.6-3.2,1.9c0,0.8,0.6,1.5,1.7,1.5c0.7,0,1.3-0.3,1.6-0.7h0l0.1,0.6h1.2C49.1,14.6,49,14.2,49,13.7z"/>
		<path fill="#FFFFFF" d="M33.8,12l0.6-1.7c0.1-0.4,0.2-0.9,0.4-1.3h0c0.1,0.4,0.2,0.9,0.4,1.3l0.6,1.7H33.8z M35.6,7.9h-1.7l-2.4,7
			H33l0.6-2h2.3l0.7,2H38L35.6,7.9z"/>
		<path fill="#FFFFFF" d="M66.2,14c-0.6,0-1.1-0.4-1.2-0.9c0-0.1,0-0.2,0-0.3V12c0-0.1,0-0.2,0.1-0.3c0.1-0.6,0.6-0.9,1.2-0.9
			c0.9,0,1.3,0.7,1.3,1.6C67.6,13.4,67.1,14,66.2,14z M66.7,9.7c-0.8,0-1.4,0.3-1.7,0.8h0v-3h-1.3v6c0,0.5,0,1.1,0,1.4h1.2l0.1-0.8
			h0c0.4,0.6,1,0.9,1.7,0.9c1.2,0,2.4-0.9,2.4-2.7C69,10.8,68,9.7,66.7,9.7z"/>
		<path fill="#FFFFFF" d="M74.7,11.9c0.1-0.5,0.4-1.2,1.2-1.2c0.9,0,1.1,0.8,1.1,1.2H74.7z M78.3,12.2c0-1.1-0.6-2.5-2.3-2.5
			c-1.7,0-2.6,1.3-2.6,2.7c0,1.6,1,2.6,2.8,2.6c0.8,0,1.4-0.1,1.9-0.3l-0.2-0.9c-0.4,0.1-0.9,0.2-1.5,0.2c-0.9,0-1.6-0.4-1.6-1.3
			h3.6C78.3,12.6,78.3,12.5,78.3,12.2z"/>
		<path fill="#FFFFFF" d="M85,14.1c-0.8,0-1.3-0.7-1.3-1.7c0-0.8,0.4-1.7,1.3-1.7c0.9,0,1.3,0.9,1.3,1.7
			C86.3,13.4,85.7,14.1,85,14.1z M85,9.7c-1.6,0-2.8,1-2.8,2.7c0,1.6,1.2,2.6,2.7,2.6c1.4,0,2.7-0.8,2.7-2.7
			C87.7,10.8,86.6,9.7,85,9.7z"/>
		<path fill="#FFFFFF" d="M60.9,13.1c0,0.1,0,0.2,0,0.3c-0.1,0.4-0.5,0.7-1.1,0.7c-0.4,0-0.8-0.2-0.8-0.7c0-0.8,0.9-1,1.9-0.9V13.1z
			 M62.2,13.7v-1.8c0-1.1-0.5-2.1-2.2-2.1c-0.9,0-1.5,0.2-1.9,0.5l0.3,0.8c0.4-0.2,0.9-0.4,1.4-0.4c0.9,0,1.1,0.6,1.1,0.9v0.1
			c-2,0-3.2,0.6-3.2,1.9c0,0.8,0.6,1.5,1.7,1.5c0.7,0,1.3-0.3,1.6-0.7h0l0.1,0.6h1.2C62.2,14.6,62.2,14.2,62.2,13.7z"/>
		<path fill="#FFFFFF" d="M110.3,11.9c0.1-0.5,0.4-1.2,1.2-1.2c0.9,0,1.1,0.8,1.1,1.2H110.3z M113.9,12.2c0-1.1-0.6-2.5-2.3-2.5
			c-1.7,0-2.6,1.3-2.6,2.7c0,1.6,1,2.6,2.8,2.6c0.8,0,1.4-0.1,1.9-0.3l-0.2-0.9c-0.4,0.1-0.9,0.2-1.5,0.2c-0.9,0-1.6-0.4-1.6-1.3
			h3.6C113.8,12.6,113.9,12.5,113.9,12.2z"/>
	</g>
</g>
</svg>
