<svg version="1.1" xmlns="http://www.w3.org/2000/svg" xmlns:xlink="http://www.w3.org/1999/xlink" width="265px" height="192.1px" viewBox="0 0 265 192.1">
<linearGradient id="info_graphic_communication_SVGID_1_" gradientUnits="userSpaceOnUse" x1="77.9639" y1="43.9824" x2="152.9068" y2="127.215">
	<stop  offset="0.01" style="stop-color:#E7DAAC"/>
	<stop  offset="0.99" style="stop-color:#FFFFFF"/>
</linearGradient>
<polygon opacity="0.149" fill="url(#info_graphic_communication_SVGID_1_)" points="185,7.1 265,87.1 264,192.1 70,192.1 0,122.1 "/>
<g>
	
		<path fill="#FFFFFF" stroke="#EA6F1D" stroke-width="8.0022" stroke-linecap="round" stroke-linejoin="round" stroke-miterlimit="10" d="
		M181.5,119.3c0,0-13.7-4.7-43.7-4.7c-30,0-45,8.1-45,8.1V12.1c0,0,18.3-8.1,47-8.1c28.7,0,41.7,4.7,41.7,4.7V119.3z"/>
	
		<path fill="#FFFFFF" stroke="#EA6F1D" stroke-width="8.0022" stroke-linecap="round" stroke-linejoin="round" stroke-miterlimit="10" d="
		M92.9,122.7c0,0-13.7-8.1-43.7-8.1c-30,0-45,4.7-45,4.7V8.7c0,0,18.3-4.7,47-4.7c28.7,0,41.7,8.1,41.7,8.1V122.7z"/>
</g>
<g>
	<path fill="#FF6500" d="M54.8,60.3c0-0.1-0.3-5.6-3.9-11.4c-1.5-2.4-3.5-4.8-6.3-6.8c1.2-0.2,2.5-0.4,3.7-0.4
		c3.3,0,6.4,0.8,9.1,2.3c0.3,1.6,0.5,3.2,0.5,4.6c0,4.6-1.4,8.4-2.8,11.1C55,60,54.9,60.2,54.8,60.3z"/>
	<path fill="#FF6500" d="M52.4,56c-0.1,0-4.2-3.8-10.8-5.3c-2.7-0.6-5.8-0.9-9.3-0.3c0.7-1,1.5-2,2.4-2.9c2.3-2.3,5.1-3.9,8-4.8
		c1.4,0.9,2.6,1.9,3.6,2.9c3.2,3.2,5,7,5.9,9.9C52.3,55.6,52.4,55.8,52.4,56z"/>
	<path fill="#FF6500" d="M47.6,54.6c-0.1,0-5.7,0.3-11.4,3.9c-2.4,1.5-4.8,3.5-6.8,6.3C29.1,63.5,29,62.3,29,61
		c0-3.3,0.8-6.4,2.3-9.1c1.6-0.3,3.2-0.5,4.7-0.5c4.6,0,8.5,1.4,11.2,2.8C47.3,54.4,47.4,54.5,47.6,54.6z"/>
	<path fill="#FF6500" d="M43.2,57c0,0.1-3.8,4.2-5.3,10.8c-0.6,2.7-0.9,5.8-0.3,9.2c-1-0.7-2-1.5-2.9-2.4c-2.3-2.3-3.9-5.1-4.8-8
		c0.9-1.4,1.9-2.6,3-3.6c3.2-3.2,7-5,9.9-5.9C42.9,57.1,43,57,43.2,57z"/>
	<path fill="#FF6500" d="M41.8,61.8c0,0.1,0.3,5.6,3.9,11.4c1.5,2.4,3.5,4.8,6.3,6.8c-1.2,0.2-2.4,0.4-3.7,0.4
		c-3.3,0-6.4-0.8-9.1-2.3c-0.3-1.6-0.5-3.2-0.5-4.7c0-4.6,1.4-8.4,2.8-11.1C41.6,62.1,41.7,61.9,41.8,61.8z"/>
	<path fill="#FF6500" d="M44.2,66.2c0,0,4.2,3.8,10.8,5.3c2.7,0.6,5.9,0.9,9.3,0.3c-0.7,1-1.5,2-2.4,2.9c-2.3,2.3-5.1,3.9-8,4.8
		c-1.4-0.9-2.6-1.9-3.6-2.9c-3.2-3.2-5-7-5.9-9.9C44.3,66.5,44.3,66.3,44.2,66.2z"/>
	<path fill="#FF6500" d="M49,67.5c0.1,0,5.7-0.3,11.4-3.9c2.4-1.5,4.8-3.5,6.8-6.3c0.2,1.2,0.4,2.4,0.4,3.7c0,3.3-0.8,6.4-2.3,9.1
		c-1.6,0.3-3.2,0.5-4.7,0.5c-4.6,0-8.5-1.4-11.2-2.8C49.3,67.7,49.2,67.6,49,67.5z"/>
	<path fill="#FF6500" d="M53.4,65.1c0-0.1,3.8-4.2,5.3-10.8c0.6-2.7,0.9-5.8,0.3-9.2c1,0.7,2,1.5,2.9,2.4c2.3,2.3,3.9,5.1,4.8,8
		c-0.9,1.4-1.9,2.6-2.9,3.6c-3.2,3.2-7,5-9.9,5.9C53.8,65.1,53.6,65.1,53.4,65.1z"/>
</g>
</svg>
