<svg version="1.1" xmlns="http://www.w3.org/2000/svg" xmlns:xlink="http://www.w3.org/1999/xlink" width="233.7px" height="241.5px" viewBox="0 0 233.7 241.5">
<g>
	<g>
		<path fill="#EA6F1D" d="M109.2,190.9c13.2,2.1,17.7,10.2,18.4,11.5c0.2,0.3,0.3,0.5,0.5,0.8c-0.2-3.5-1.4-8.2-5.1-13.2
			c-6.5-8.8-12.2-12.1-12.8-12.4c-7.4,2.2-13.7,6.9-17.8,13.2C95.1,190.3,100.8,189.6,109.2,190.9z"/>
		<path fill="#EA6F1D" d="M99.9,203c10.8-7.8,19.8-5.2,21.2-4.8c0.3,0.1,0.6,0.1,0.9,0.2c-2.7-2.3-6.8-4.8-13-5.8
			c-10.9-1.7-17.3,0.1-17.9,0.3c-2.5,4.5-3.9,9.7-3.9,15.2c0,2.3,0.2,4.5,0.7,6.7C89.5,212.5,93.1,207.9,99.9,203z"/>
		<path fill="#EA6F1D" d="M124.4,189c7.9,10.8,5.3,19.7,4.8,21.1c-0.1,0.3-0.1,0.6-0.2,0.9c2.3-2.6,4.8-6.8,5.8-13
			c1.7-10.8-0.1-17.2-0.3-17.8c-4.5-2.5-9.7-3.9-15.3-3.9c-2.3,0-4.5,0.2-6.7,0.7C114.8,178.5,119.4,182.1,124.4,189z"/>
		<path fill="#EA6F1D" d="M124.9,216.5c-0.3,0.2-0.5,0.4-0.8,0.5c3.5-0.2,8.2-1.4,13.3-5.1c8.9-6.4,12.1-12.1,12.5-12.8
			c-2.2-7.4-7-13.6-13.3-17.7c0.5,2.8,1.2,8.5-0.1,16.8C134.4,211.3,126.3,215.8,124.9,216.5z"/>
		<path fill="#EA6F1D" d="M113.4,199.8c0.3-0.2,0.5-0.3,0.8-0.5c-3.5,0.2-8.2,1.4-13.3,5.1c-8.9,6.4-12.1,12.1-12.5,12.8
			c2.2,7.4,7,13.6,13.3,17.7c-0.5-2.8-1.2-8.5,0.1-16.8C104,204.9,112.1,200.4,113.4,199.8z"/>
		<path fill="#EA6F1D" d="M150.5,201.5c-1.6,2.3-5.2,6.9-12,11.8c-6.2,4.5-11.8,5.6-15.7,5.6c-2.9,0-4.8-0.6-5.4-0.8
			c-0.3-0.1-0.6-0.1-0.9-0.2c2.6,2.3,6.8,4.8,13,5.7c10.9,1.7,17.2-0.1,17.9-0.2c2.5-4.5,3.9-9.7,3.9-15.2
			C151.2,205.8,150.9,203.6,150.5,201.5z"/>
		<path fill="#EA6F1D" d="M129.1,225.3c-13.1-2.1-17.6-10.1-18.3-11.5c-0.2-0.3-0.4-0.5-0.5-0.8c0.2,3.5,1.4,8.1,5.1,13.2
			c6.4,8.8,12.2,12.1,12.8,12.4c7.4-2.2,13.7-6.9,17.8-13.2c-1.6,0.3-4.1,0.7-7.6,0.7C135.9,226.1,132.7,225.9,129.1,225.3z"/>
		<path fill="#EA6F1D" d="M114,227.3c-7.8-10.8-5.3-19.7-4.8-21.1c0.1-0.3,0.1-0.6,0.2-0.9c-2.3,2.7-4.8,6.8-5.8,13
			c-1.7,10.8,0.1,17.2,0.3,17.8c4.5,2.5,9.7,3.9,15.3,3.9c2.3,0,4.5-0.2,6.7-0.7C123.5,237.7,119,234.1,114,227.3z"/>
	</g>
	<g>
		<path fill="#F19300" d="M220,53.9c-11.5,9.5-28.5,8-38.1-3.4c-9.6-11.4-8-28.4,3.4-38c11.5-9.5,28.5-8,38.1,3.4
			C233,27.3,231.4,44.3,220,53.9z"/>
		<path fill-rule="evenodd" clip-rule="evenodd" fill="#FFFFFF" d="M203.3,32.7c-0.5-0.5-1.2-0.6-1.8-0.2c-0.5,0.4-0.6,1.2-0.2,1.8
			c0.4,0.5,1.2,0.6,1.8,0.1C203.6,34,203.7,33.2,203.3,32.7z M198.5,32.8l4.6-8.7l3.3,9.7l-5,9L198.5,32.8z M210.6,26.6
			c-3.8-4.6-10.7-5.2-15.2-1.4c-4.6,3.8-5.2,10.6-1.4,15.2c3.8,4.6,10.7,5.2,15.2,1.4C213.8,37.9,214.4,31.1,210.6,26.6z M192.1,42
			c-4.7-5.6-4-14,1.7-18.7c5.6-4.7,14-3.9,18.8,1.7c4.7,5.6,3.9,14-1.7,18.7C205.2,48.3,196.8,47.6,192.1,42z"/>
	</g>
	<g>
		<path fill="#F19300" d="M72.8,0.1c8.1,0.8,14,8,13.2,16.1c-0.8,8.1-8.1,14-16.2,13.1c-8.1-0.8-14-8-13.2-16.1
			C57.5,5.1,64.7-0.7,72.8,0.1z"/>
		<path fill-rule="evenodd" clip-rule="evenodd" fill="#FFFFFF" d="M67.3,11.7c-0.1,0.9,0.2,1.6,0.7,2.3l0.4,0.4L68,14.7
			c-0.7,0.6-1.1,1.2-1.2,2.1c-0.1,0.9,0.2,1.8,0.7,2.5c0.6,0.7,1.4,1.1,2.3,1.2s1.8-0.2,2.4-0.7l4.9-3.9c0.1-0.1,0.2-0.3,0.3-0.5
			c0-0.2,0-0.4-0.2-0.6l-4-4.8c-0.6-0.7-1.4-1.1-2.2-1.2c-0.9-0.1-1.8,0.2-2.5,0.7C67.8,10,67.4,10.8,67.3,11.7z"/>
	</g>
	<g>
		<path fill="#EA6F1D" d="M160.4,52.9c-8.9,5.1-20.2,2.1-25.4-6.8c-5.1-8.9-2.1-20.2,6.8-25.3c8.9-5.1,20.2-2.1,25.4,6.8
			C172.3,36.5,169.3,47.8,160.4,52.9z"/>
		<path fill-rule="evenodd" clip-rule="evenodd" fill="#FFFFFF" d="M151.8,39.8l-5-2.6l0,0l-0.1-0.1l-0.1-0.1l0,0l0,0h0l0,0l0,0l0,0
			l0,0l0-0.1c-0.2-0.4-0.1-1,0.3-1.2l5.2-3c0.4-0.2,1-0.1,1.2,0.3c0.1,0.2,0.1,0.3,0.1,0.5l-0.2,5.5c0,0.3-0.2,0.6-0.4,0.8
			C152.4,39.9,152.1,39.9,151.8,39.8z M157.8,33.1c-2.1-3.7-6.9-5-10.6-2.8c-3.7,2.1-5,6.9-2.9,10.6c2.1,3.7,6.9,5,10.6,2.8
			C158.6,41.5,159.9,36.8,157.8,33.1z M142.8,41.7c-2.6-4.6-1.1-10.4,3.5-13c4.6-2.6,10.4-1.1,13,3.5c2.6,4.5,1.1,10.4-3.5,13
			C151.2,47.8,145.4,46.3,142.8,41.7z"/>
	</g>
	<g>
		<path fill="#E48162" d="M71.6,74c-2,7.9-10,12.6-17.9,10.6c-7.9-2-12.7-10-10.7-17.9s10-12.6,17.9-10.6
			C68.8,58.1,73.6,66.1,71.6,74z"/>
		<path fill-rule="evenodd" clip-rule="evenodd" fill="#FFFFFF" d="M63.2,70.5l-3.4,1.4l0.2,3.7c0,0,0,0.1,0,0.2
			c-0.1,0.3-0.4,0.5-0.7,0.4c-0.1,0-0.2-0.1-0.3-0.2l-2.4-2.9l-3.5,1.4c-0.1,0-0.2,0.1-0.3,0c-0.3-0.1-0.5-0.4-0.4-0.7
			c0-0.1,0-0.1,0.1-0.2l2-3.1l-2.4-2.8c-0.1-0.1-0.2-0.3-0.1-0.5c0.1-0.3,0.4-0.5,0.7-0.4l3.6,0.9l2-3.1c0.1-0.2,0.4-0.3,0.6-0.2
			c0.2,0.1,0.4,0.3,0.4,0.5l0.2,3.7l3.6,0.9c0.3,0.1,0.5,0.4,0.4,0.7C63.4,70.3,63.3,70.4,63.2,70.5z"/>
	</g>
	<g>
		<path fill="#E48162" d="M144.4,103c0,8.1-6.6,14.7-14.8,14.7c-8.1,0-14.8-6.6-14.8-14.7c0-8.1,6.6-14.7,14.8-14.7
			C137.8,88.3,144.4,94.9,144.4,103z"/>
		<path fill-rule="evenodd" clip-rule="evenodd" fill="#FFFFFF" d="M134.8,106.2c0,0.6-0.9,1.1-2,1.1s-2-0.5-2-1.1
			c0-0.6,0.9-1.1,2-1.1c0.3,0,0.6,0,0.9,0.1v-1.1v-3.6l-6.3,1.4v5.9c0,0.6-0.9,1.1-2,1.1s-2.1-0.5-2.1-1.1c0-0.6,0.9-1.1,2.1-1.1
			c0.3,0,0.6,0.1,0.9,0.1V106v-6.7c0-0.4,0.6-0.6,0.6-0.6l7.4-1.7c0.3,0,0.6,0.2,0.6,0.6v8v0.4V106.2z"/>
	</g>
	<g>
		<path fill="#F19300" d="M111.2,110.4c-5.7,11.6-19.7,16.3-31.4,10.7c-11.6-5.7-16.4-19.7-10.7-31.2c5.7-11.6,19.7-16.3,31.4-10.7
			C112.1,84.8,116.9,98.8,111.2,110.4z"/>
		<path fill-rule="evenodd" clip-rule="evenodd" fill="#FFFFFF" d="M86.8,94l-0.8,6.4l9.2,3.8l4.6-3.8L86.8,94z M102.7,101.1
			l-6.5,5.4c-0.3,0.3-0.8,0.4-1.2,0.2l-9.3-3.8l-0.2,1.7l9.8,4.8c1.1,0.6,1.6,1.9,1.1,3.1s-2,1.6-3.1,1.1c-1.1-0.6-1.6-1.9-1.1-3.1
			l-9.7-4.7c-0.6,1.1-1.9,1.6-3.1,1.1c-1.2-0.6-1.6-1.9-1.1-3.1c0.6-1.1,1.9-1.6,3.1-1.1l1.9,0.9L85,90.1L82.6,89
			c-0.6-0.3-0.8-1-0.5-1.6c0.3-0.6,1-0.8,1.6-0.5l3.1,1.5c0.5,0.2,0.7,0.7,0.6,1.2l-0.2,2l15.4,7.5c0.6,0.3,0.8,1,0.5,1.5
			C102.9,100.8,102.8,101,102.7,101.1z"/>
	</g>
	<g>
		<path fill="#E48162" d="M124.8,43.6c3.7,12.3-3.3,25.4-15.7,29C96.7,76.3,83.7,69.3,80,57c-3.7-12.3,3.3-25.4,15.7-29
			C108.1,24.2,121.1,31.2,124.8,43.6z"/>
		<path fill-rule="evenodd" clip-rule="evenodd" fill="#FFFFFF" d="M108.2,52.4l3,1.6c0.5,0.3,1.1,0.3,1.7,0.2l0.2,0.7
			c0.2,0.6-0.2,1.2-0.8,1.4l-7.7,2.3l-2.5,0.8l-1.1,0.3l-0.3,0.1l-2.1,3.8c-0.1,0.3-0.4,0.5-0.7,0.6h0c-0.3,0.1-0.6,0-0.9-0.1l0,0
			C97.1,64,97,64,97,64l0-0.1c0,0-0.1-0.1-0.1-0.1l0-0.1l-0.1-0.1c0-0.1-0.1-0.1-0.1-0.2L96,61.2l-0.2,0l-1.3,0.4
			c-0.6,0.2-1.2-0.2-1.4-0.8l-3.7-12.4c-0.2-0.6,0.2-1.2,0.8-1.4l3.3-1l2.3,7.6c0.4,1.2,1.6,1.9,2.8,1.5L108.2,52.4z M113.5,49.7
			l-0.3,0.1l-0.4,0.1l0.5,1.8c0,0.1,0,0.1,0.1,0.2l0,0.1v0.1l0,0.1l0,0.1c0,0.1,0,0.1-0.1,0.2l0,0c-0.1,0.2-0.4,0.5-0.7,0.5l0,0
			c-0.3,0.1-0.6,0-0.9-0.1l-3.4-1.8l-0.1,0l-10,3c-0.6,0.2-1.2-0.2-1.4-0.8l-3.3-10.9c-0.2-0.6,0.2-1.2,0.8-1.4l15.3-4.6
			c0.6-0.2,1.2,0.2,1.4,0.8l3.3,10.9C114.5,48.8,114.1,49.5,113.5,49.7z"/>
	</g>
	<g>
		<path fill="#EA6F1D" d="M46.8,12.5c7.8,10.3,5.8,24.9-4.6,32.7s-25,5.7-32.8-4.5C1.6,30.4,3.7,15.7,14,8
			C24.3,0.2,39,2.2,46.8,12.5z"/>
		<path fill-rule="evenodd" clip-rule="evenodd" fill="#FFFFFF" d="M37.3,25.4c-0.4,0.3-0.7,0.6-0.8,0.9c-0.1,0.3-0.2,0.6-0.1,0.9
			c0,0.3,0.2,0.5,0.5,0.9l0.3,0.4l-0.6,0.5l0.7,0.9l0.6-0.4l2.3,3.1l1.3-1l-2.3-3.1l0.8-0.6l-0.5-1.1l-1,0.8l-0.3-0.3
			c-0.2-0.2-0.2-0.4-0.2-0.5s0.1-0.3,0.3-0.5c0.2-0.1,0.4-0.2,0.7-0.2l-0.4-1C38.1,25.1,37.7,25.2,37.3,25.4z M46.1,28.9l-6.7,5.1
			c-0.3,0.3-0.8,0.2-1.1-0.1l-5.1-6.7c-0.3-0.3-0.2-0.8,0.1-1.1l6.7-5.1c0.3-0.2,0.8-0.2,1.1,0.1l5.1,6.7
			C46.6,28.1,46.5,28.6,46.1,28.9z"/>
		<path fill-rule="evenodd" clip-rule="evenodd" fill="#FFFFFF" d="M27,11.4c2.9-2.2,5.9-1.8,7.5,0.2c1.6,2.1,1.1,5.1-1.8,7.2
			c-0.4,0.3-0.8,0.4-1.1,0.6c-0.1,2.7-2.4,4-2.4,4c1-1.8,0-3-0.3-2.9c-1.7,0.2-3.2-0.3-4.1-1.5C23.1,17,24.1,13.5,27,11.4z"/>
		<path fill-rule="evenodd" clip-rule="evenodd" fill="#FFFFFF" d="M16,19.7c0.9-0.7,1.6-0.7,2.4-0.7c0.4-0.3,0.7-0.9,0.9-1.3
			l0.2-0.4c0.2,0.6,0.2,1.1,0.1,1.7c0,0.1,0,0.3-0.1,0.4l0,0c0.5-0.4,0.8-0.9,1-1.4l0,0c0,0.5,0,1-0.1,1.5l-0.1,0.6
			c0.4,0.5,0.8,1.1,1,1.6c1.4,3,1.2,6-0.7,8.6c-0.7,0.9-2,2.1-3.2,2.6c-0.6,0.2-1.1,0.4-1.7,0.6c-0.3,0.1-0.6,0.1-0.9,0.2l-0.3,0
			c0.2-0.2,0.5-0.3,0.8-0.5c0.2-0.2,0.4-0.4,0.6-0.6c0.4-0.5,0.8-1,1-1.6c0.1-0.3,0.3-0.6,0.3-0.9c-0.3,0.2-0.5,0.3-0.8,0.4
			c-1,0.3-1.8,0.2-2.6-0.4c0.2-0.2,0.9-0.6,1-0.8c-0.3,0.2-0.7,0.2-1,0.3c-0.9,0.1-1.9-0.2-2.6-1.2l0.3-0.1c0.2-0.1,0.4-0.1,0.6-0.2
			c0.1,0,0.3-0.1,0.3-0.2l0,0c-0.2-0.1-0.5,0-0.7-0.1c-0.8-0.2-1.7-0.7-2.1-1.7c-0.1-0.3-0.2-0.5-0.2-0.8h0c0.1,0.1,0.3,0,0.4,0.1
			c0.4,0.1,0.8,0.1,1.2,0.1c1.4,0,2.4-0.1,3.9-0.8c0.4-0.2,0.8-0.4,1.1-0.7c-0.3-0.2-0.7-0.7-0.8-1.1c-0.4-0.9-0.3-1.8,0.1-2.6
			c0.1-0.2,0.2-0.4,0.4-0.5L16,19.7z"/>
		<g>
			<path fill="#FFFFFF" d="M27.3,38.2l1.8-7.6c0,0-0.1,0-0.1,0l-9.5,7.2c0,0,0,0-0.1,0.1L27.3,38.2z"/>
			<path fill="#FFFFFF" d="M29.8,30.7c0-0.1-0.1-0.1-0.1-0.1L28.4,36l6,0.8c0,0,0-0.1-0.1-0.1L29.8,30.7z"/>
			<path fill="#FFFFFF" d="M19.4,38.3c0,0.1,0,0.1,0.1,0.2l4.6,6c0,0,0.1,0.1,0.1,0.1l0.8-6L19.4,38.3z"/>
			<path fill="#FFFFFF" d="M28.3,36.5l-0.5,2c0,0.1,0,0.1-0.1,0.1c0,0-0.1,0.1-0.2,0.1l-2.1-0.1l-0.8,6c0,0,0.1,0,0.1-0.1l9.5-7.1
				c0,0,0.1-0.1,0.1-0.1L28.3,36.5z"/>
		</g>
	</g>
	<g>
		<g>
			<path fill="#E48162" d="M142.1,138.2c2.7,8.3-1.8,17.2-10.2,20c-8.3,2.7-17.3-1.8-20.1-10.1c-2.7-8.3,1.8-17.3,10.2-20
				C130.4,125.4,139.4,129.9,142.1,138.2z"/>
		</g>
		<path fill-rule="evenodd" clip-rule="evenodd" fill="#FFFFFF" d="M124.1,145.4l-1.4,2.9c-0.4,0.8-0.1,1.8,0.7,2.1
			c0.8,0.4,1.8,0.1,2.1-0.7l1.4-2.9l0-0.1l1.2-2.4c0.6,0.9,0.7,2.1,0.2,3.2l-1.4,2.9c-0.8,1.6-2.7,2.2-4.3,1.4
			c-1.6-0.8-2.2-2.7-1.4-4.3l1.4-2.8c0.5-1.1,1.6-1.7,2.7-1.8L124.1,145.4L124.1,145.4z M126.3,146.6c-0.1,0.2-0.3,0.3-0.5,0.4
			c-0.4,0.1-0.9-0.1-1-0.5c-0.1-0.2,0-0.5,0.1-0.6l3.4-6.8c0.1-0.2,0.3-0.4,0.5-0.4c0.4-0.1,0.9,0.1,1,0.5c0.1,0.2,0.1,0.4,0,0.6
			L126.3,146.6z M133.2,138.1l-1.4,2.9c-0.5,1.1-1.6,1.7-2.7,1.7l1.2-2.4l0.1-0.1l1.4-2.8c0.4-0.8,0.1-1.8-0.7-2.1
			c-0.8-0.4-1.8-0.1-2.1,0.7l-1.5,2.9l-1.2,2.5c-0.6-0.9-0.7-2.1-0.2-3.2l1.4-2.8c0.8-1.6,2.7-2.2,4.3-1.4S134.1,136.5,133.2,138.1z
			"/>
	</g>
	<g>
		<g>
			<path fill="#EA6F1D" d="M191.7,79.3c2.4,12.7-6,24.8-18.8,27.2c-12.7,2.4-24.9-6-27.3-18.7c-2.4-12.7,6-24.8,18.8-27.2
				C177.1,58.3,189.3,66.6,191.7,79.3z"/>
		</g>
		<path fill-rule="evenodd" clip-rule="evenodd" fill="#FFFFFF" d="M165.3,83.1c-1.2,0.2-2.3-0.6-2.5-1.7c-0.2-1.2,0.6-2.3,1.7-2.5
			c1.2-0.2,2.3,0.6,2.5,1.7C167.3,81.7,166.5,82.8,165.3,83.1z M168.4,87.6l3.9-6.9l4.1,4.4l0.8,4.2l-13.5,2.5l3.5-5L168.4,87.6z
			 M175.5,74.6l-15.7,2.9l2.9,15.6l15.7-2.9L175.5,74.6z M181,88.2c0.1,0.5-0.1,0.9-0.5,1.1l0.2,1.2c0.4,0.1,0.8,0.4,0.9,0.9
			c0.1,0.6-0.3,1.1-0.9,1.3c-0.5,0.1-0.9-0.1-1.1-0.5l-1.2,0.2c-0.1,0.4-0.4,0.8-0.9,0.9c-0.5,0.1-0.9-0.1-1.1-0.5l-1.2,0.2
			c-0.1,0.4-0.4,0.8-0.9,0.9c-0.5,0.1-0.9-0.1-1.1-0.5l-1.2,0.2c-0.1,0.4-0.4,0.8-0.9,0.9c-0.5,0.1-0.9-0.1-1.1-0.5l-1.2,0.2
			c-0.1,0.4-0.4,0.8-0.9,0.9c-0.5,0.1-0.9-0.1-1.1-0.5l-1.2,0.2c-0.1,0.4-0.4,0.8-0.9,0.9c-0.5,0.1-0.9-0.1-1.1-0.5l-1.2,0.2
			c-0.1,0.4-0.4,0.8-0.9,0.9c-0.6,0.1-1.1-0.3-1.3-0.9c-0.1-0.5,0.1-0.9,0.5-1.1l-0.2-1.2c-0.4-0.1-0.8-0.4-0.9-0.9
			c-0.1-0.5,0.1-0.9,0.5-1.1l-0.2-1.2c-0.4-0.1-0.8-0.4-0.9-0.9c-0.1-0.5,0.1-0.9,0.5-1.1l-0.2-1.2c-0.4-0.1-0.8-0.4-0.9-0.9
			c-0.1-0.5,0.1-0.9,0.5-1.1l-0.2-1.2c-0.4-0.1-0.8-0.4-0.9-0.9c-0.1-0.5,0.1-0.9,0.5-1.1l-0.2-1.2c-0.4-0.1-0.8-0.4-0.9-0.9
			c-0.1-0.5,0.1-0.9,0.5-1.1l-0.2-1.2c-0.4-0.1-0.8-0.4-0.9-0.9c-0.1-0.6,0.3-1.2,0.9-1.3c0.5-0.1,0.9,0.1,1.1,0.5l1.2-0.2
			c0.1-0.4,0.4-0.8,0.9-0.9c0.5-0.1,0.9,0.1,1.1,0.5l1.2-0.2c0.1-0.4,0.4-0.8,0.9-0.9c0.5-0.1,0.9,0.1,1.1,0.5l1.2-0.2
			c0.1-0.4,0.4-0.8,0.9-0.9c0.5-0.1,0.9,0.1,1.1,0.5l1.2-0.2c0.1-0.4,0.4-0.8,0.9-0.9c0.5-0.1,0.9,0.1,1.1,0.5l1.2-0.2
			c0.1-0.4,0.4-0.8,0.9-0.9c0.5-0.1,0.9,0.1,1.1,0.5l1.2-0.2c0.1-0.4,0.4-0.8,0.9-0.9c0.6-0.1,1.2,0.3,1.3,0.9
			c0.1,0.5-0.1,0.9-0.5,1.1l0.2,1.2c0.4,0.1,0.8,0.4,0.9,0.9c0.1,0.5-0.1,0.9-0.5,1.1l0.2,1.2c0.4,0.1,0.8,0.4,0.9,0.9
			s-0.1,0.9-0.5,1.1l0.2,1.2c0.4,0.1,0.8,0.4,0.9,0.9c0.1,0.5-0.1,0.9-0.5,1.1l0.2,1.2c0.4,0.1,0.8,0.4,0.9,0.9
			c0.1,0.5-0.1,0.9-0.5,1.1l0.2,1.2C180.5,87.4,180.9,87.8,181,88.2z"/>
	</g>
	
		<polyline fill="none" stroke="#460200" stroke-width="12" stroke-linecap="round" stroke-linejoin="round" stroke-miterlimit="10" points="
		16.6,65.8 86.9,135.8 86.9,170.5 	"/>
	
		<polyline fill="none" stroke="#460200" stroke-width="12" stroke-linecap="round" stroke-linejoin="round" stroke-miterlimit="10" points="
		221.7,65.8 151.5,135.8 151.5,170.5 	"/>
</g>
<g>
	<g>
		<path fill-rule="evenodd" clip-rule="evenodd" fill="#460200" d="M229.1,215.6c0-12.5-10-22.7-22.4-22.7c-8.8,0-16.3,5.1-20,12.5
			c-2.5,3.7-4,8.1-4,12.9c0,12.5,10,22.7,22.4,22.7c8.8,0,16.3-5.1,20-12.5C227.7,224.9,229.1,220.4,229.1,215.6z"/>
		<path fill-rule="evenodd" clip-rule="evenodd" fill="#FFFFFF" d="M206.7,234.1c-10.1,0-18.2-8.2-18.2-18.4
			c0-10.2,8.1-18.4,18.2-18.4c10,0,18.2,8.2,18.2,18.4C224.9,225.8,216.8,234.1,206.7,234.1z"/>
		<path fill-rule="evenodd" clip-rule="evenodd" fill="#460200" d="M209.1,221.3c0,1.2-0.9,2.1-2.1,2.1c-1.1,0-2.1-1-2.1-2.1V210v0
			c0-1.2,0.9-2.1,2.1-2.1s2.1,1,2.1,2.1l0,0L209.1,221.3L209.1,221.3z"/>
	</g>
	<g>
		<path fill-rule="evenodd" clip-rule="evenodd" fill="#460200" d="M221.1,204.6c0-12.5-10-22.7-22.4-22.7c-8.8,0-16.3,5.1-20,12.5
			c-2.5,3.7-4,8.1-4,12.9c0,12.5,10,22.7,22.4,22.7c8.8,0,16.3-5.1,20-12.5C219.6,213.9,221.1,209.4,221.1,204.6z"/>
		<path fill-rule="evenodd" clip-rule="evenodd" fill="#FFFFFF" d="M198.7,223.1c-10.1,0-18.2-8.2-18.2-18.4
			c0-10.2,8.1-18.4,18.2-18.4s18.2,8.2,18.2,18.4C216.9,214.8,208.7,223.1,198.7,223.1z"/>
		<path fill-rule="evenodd" clip-rule="evenodd" fill="#460200" d="M201,210.3c0,1.2-0.9,2.1-2.1,2.1c-1.2,0-2.1-0.9-2.1-2.1V199v0
			c0-1.2,0.9-2.1,2.1-2.1c1.2,0,2.1,1,2.1,2.1v0V210.3L201,210.3z"/>
	</g>
	<g>
		<path fill-rule="evenodd" clip-rule="evenodd" fill="#460200" d="M233.7,188.7c0-12.5-10-22.7-22.4-22.7c-8.8,0-16.3,5.1-20,12.5
			c-2.5,3.7-4,8.1-4,12.9c0,12.5,10,22.7,22.4,22.7c8.8,0,16.3-5.1,20-12.5C232.2,197.9,233.7,193.5,233.7,188.7z"/>
		<path fill-rule="evenodd" clip-rule="evenodd" fill="#FFFFFF" d="M211.3,207.1c-10.1,0-18.2-8.3-18.2-18.4s8.1-18.4,18.2-18.4
			c10.1,0,18.2,8.3,18.2,18.4S221.3,207.1,211.3,207.1z"/>
		<path fill-rule="evenodd" clip-rule="evenodd" fill="#460200" d="M213.6,194.4c0,1.2-0.9,2.1-2.1,2.1s-2.1-1-2.1-2.1l0-11.4h0
			c0-1.2,0.9-2.1,2.1-2.1s2.1,0.9,2.1,2.1v0V194.4L213.6,194.4z"/>
	</g>
</g>
<g>
	<path fill-rule="evenodd" clip-rule="evenodd" fill="#460200" d="M32,241.5c-17.7,0-32-14.3-32-32s14.3-32,32-32
		c17.7,0,32,14.3,32,32S49.7,241.5,32,241.5z"/>
	<circle fill-rule="evenodd" clip-rule="evenodd" fill="#FFFFFF" cx="32" cy="209.5" r="26"/>
	<path fill-rule="evenodd" clip-rule="evenodd" fill="#460200" d="M45,212.5h-6h-4h-3c-1.7,0-3-1.3-3-3v-18c0-1.7,1.3-3,3-3
		c1.7,0,3,1.3,3,3v15h4h6c1.7,0,3,1.3,3,3S46.7,212.5,45,212.5z"/>
</g>
</svg>
