<svg version="1.1" xmlns="http://www.w3.org/2000/svg" xmlns:xlink="http://www.w3.org/1999/xlink" width="208.1px" height="209.1px" viewBox="0 0 208.1 209.1">
<g>
	<path fill="#FF6500" d="M139.1,100.6c0-0.4-1.6-30.7-21-61.9c-7.9-12.9-18.9-25.8-34-36.8c6.5-1.3,13.2-1.9,20-1.9
		c17.7,0,34.4,4.5,49,12.4c1.8,8.8,2.6,17.2,2.6,25.2c0,24.8-7.6,45.7-15.2,60.5C140.1,99,139.6,99.7,139.1,100.6z"/>
	<path fill="#FF6500" d="M126,76.8c-0.3-0.2-22.7-20.5-58.4-28.9c-14.6-3.5-31.5-4.8-49.9-1.9c3.7-5.5,7.9-10.7,12.8-15.6
		c12.5-12.6,27.5-21.3,43.4-26c7.5,4.9,14,10.3,19.6,16C111,38,120.4,58.2,125.4,74C125.7,75,125.8,75.9,126,76.8z"/>
	<path fill="#FF6500" d="M100.1,69.3c-0.4,0-30.5,1.6-61.6,21c-12.8,8-25.7,19-36.6,34.2C0.6,118,0,111.3,0,104.4
		c0-17.8,4.5-34.6,12.4-49.2c8.7-1.9,17.1-2.6,25.1-2.7c24.7,0,45.5,7.6,60.2,15.3C98.5,68.3,99.3,68.9,100.1,69.3z"/>
	<path fill="#FF6500" d="M76.5,82.4c-0.2,0.3-20.4,22.9-28.7,58.6c-3.5,14.7-4.8,31.7-1.8,50.2c-5.5-3.7-10.7-8-15.5-12.9
		c-12.6-12.6-21.2-27.6-25.9-43.6c4.9-7.5,10.2-14,15.8-19.7c17.5-17.5,37.6-26.9,53.3-31.9C74.6,82.8,75.6,82.7,76.5,82.4z"/>
	<path fill="#FF6500" d="M69,108.5c0,0.3,1.6,30.7,21,61.9c7.9,12.9,18.9,25.8,34,36.8c-6.5,1.3-13.2,1.9-20,1.9
		c-17.7,0-34.4-4.5-49-12.4c-1.9-8.8-2.7-17.2-2.7-25.2c0-24.8,7.6-45.7,15.2-60.5C68,110.1,68.5,109.3,69,108.5z"/>
	<path fill="#FF6500" d="M82,132.2c0.3,0.2,22.7,20.5,58.4,28.9c14.6,3.5,31.5,4.8,49.9,1.9c-3.7,5.5-8,10.7-12.8,15.6
		c-12.5,12.6-27.5,21.3-43.4,26c-7.5-4.9-14-10.3-19.6-16c-17.5-17.5-26.8-37.7-31.8-53.6C82.4,134.1,82.3,133.1,82,132.2z"/>
	<path fill="#FF6500" d="M108,139.8c0.3,0,30.5-1.6,61.6-21c12.8-8,25.7-19,36.6-34.2c1.2,6.5,1.9,13.2,1.9,20.1
		c0,17.8-4.5,34.6-12.4,49.2c-8.7,1.8-17.1,2.6-25.1,2.6c-24.7,0-45.5-7.6-60.2-15.3C109.5,140.8,108.8,140.2,108,139.8z"/>
	<path fill="#FF6500" d="M131.6,126.6c0.2-0.3,20.4-22.8,28.8-58.6c3.5-14.7,4.8-31.7,1.8-50.2c5.5,3.7,10.7,8,15.5,12.9
		c12.5,12.6,21.2,27.6,25.9,43.6c-4.9,7.5-10.3,14.1-15.9,19.7c-17.5,17.5-37.6,27-53.3,32C133.4,126.2,132.5,126.4,131.6,126.6z"/>
</g>
</svg>
