<svg version="1.1" xmlns="http://www.w3.org/2000/svg" xmlns:xlink="http://www.w3.org/1999/xlink" width="214px" height="229.002px" viewBox="0 0 214 229.002">
<g>
	<g>
		<path fill="#EA6F1D" d="M99.438,182.172c12.51,1.98,16.81,9.69,17.45,10.98c0.17,0.25,0.33,0.51,0.47,0.78
			c-0.23-3.35-1.36-7.79-4.89-12.64c-6.14-8.43-11.59-11.52-12.21-11.85c-7.03,2.07-12.99,6.62-16.9,12.62
			C85.999,181.552,91.458,180.913,99.438,182.172z"/>
		<path fill="#EA6F1D" d="M90.579,193.663c10.29-7.47,18.82-5.01,20.13-4.56c0.29,0.06,0.58,0.13,0.87,0.21
			c-2.53-2.2-6.48-4.54-12.4-5.48c-10.41-1.64-16.43,0.06-17.03,0.25c-2.35,4.31-3.68,9.26-3.68,14.52c0,2.18,0.23,4.3,0.66,6.35
			C80.628,202.732,84.048,198.413,90.579,193.663z"/>
		<path fill="#EA6F1D" d="M113.829,180.312c7.49,10.29,5,18.83,4.56,20.11c-0.05,0.29-0.13,0.58-0.21,0.87
			c2.2-2.53,4.55-6.47,5.49-12.4c1.63-10.33-0.06-16.37-0.25-17.01c-4.32-2.35-9.27-3.69-14.53-3.69c-2.18,0-4.31,0.24-6.36,0.67
			C104.758,170.362,109.068,173.772,113.829,180.312z"/>
		<path fill="#EA6F1D" d="M114.349,206.583c-0.25,0.18-0.52,0.34-0.79,0.49c3.35-0.23,7.79-1.37,12.65-4.89
			c8.41-6.12,11.51-11.56,11.86-12.2c-2.08-7.02-6.62-12.99-12.63-16.89c0.51,2.63,1.14,8.09-0.12,16.06
			C123.349,201.623,115.659,205.933,114.349,206.583z"/>
		<path fill="#EA6F1D" d="M103.429,190.612c0.25-0.18,0.52-0.33,0.78-0.48c-3.34,0.23-7.79,1.36-12.64,4.89
			c-8.43,6.13-11.53,11.58-11.86,12.2c2.08,7.02,6.62,12.98,12.63,16.88c-0.51-2.63-1.15-8.09,0.12-16.06
			C94.418,195.552,102.128,191.252,103.429,190.612z"/>
		<path fill="#EA6F1D" d="M138.639,192.252c-1.5,2.22-4.91,6.53-11.45,11.28c-5.9,4.3-11.23,5.31-14.95,5.31
			c-2.74,0-4.59-0.55-5.16-0.74c-0.3-0.06-0.59-0.13-0.88-0.21c2.53,2.2,6.47,4.54,12.4,5.47c10.34,1.64,16.4-0.05,17.02-0.24
			c2.35-4.32,3.69-9.26,3.69-14.52C139.309,196.422,139.079,194.292,138.639,192.252z"/>
		<path fill="#EA6F1D" d="M118.338,215.022c-12.48-1.97-16.79-9.66-17.44-10.97c-0.18-0.25-0.34-0.51-0.49-0.78
			c0.23,3.34,1.37,7.79,4.9,12.63c6.13,8.42,11.57,11.51,12.2,11.85c7.03-2.07,13-6.61,16.91-12.62c-1.51,0.29-3.91,0.62-7.18,0.62
			C124.758,215.752,121.778,215.562,118.338,215.022z"/>
		<path fill="#EA6F1D" d="M103.949,216.893c-7.46-10.25-5.02-18.76-4.57-20.1c0.06-0.3,0.13-0.59,0.21-0.88
			c-2.2,2.52-4.54,6.47-5.48,12.39c-1.63,10.35,0.06,16.4,0.25,17.02c4.31,2.34,9.27,3.68,14.53,3.68c2.18,0,4.31-0.23,6.35-0.67
			C113.019,226.842,108.699,223.422,103.949,216.893z"/>
	</g>
	<g>
		<path fill="#F19300" d="M204.758,51.422c-10.92,9.1-27.14,7.64-36.25-3.26c-9.11-10.91-7.65-27.12,3.26-36.22
			c10.92-9.11,27.14-7.64,36.25,3.26C217.128,26.103,215.668,42.322,204.758,51.422z"/>
		<path fill-rule="evenodd" clip-rule="evenodd" fill="#FFFFFF" d="M188.869,31.172c-0.42-0.5-1.17-0.57-1.67-0.15
			c-0.51,0.42-0.58,1.17-0.15,1.68c0.42,0.5,1.17,0.57,1.67,0.15S189.289,31.683,188.869,31.172z M184.358,31.333l4.4-8.31l3.1,9.27
			l-4.71,8.56L184.358,31.333z M195.858,25.342c-3.64-4.36-10.13-4.94-14.5-1.3c-4.36,3.64-4.95,10.12-1.31,14.49
			c3.65,4.36,10.14,4.94,14.5,1.3C198.918,36.192,199.499,29.703,195.858,25.342z M178.229,40.052c-4.48-5.37-3.76-13.35,1.61-17.83
			c5.37-4.49,13.36-3.77,17.84,1.6c4.49,5.37,3.77,13.35-1.6,17.83C190.699,46.132,182.719,45.422,178.229,40.052z"/>
	</g>
	<g>
		<path fill="#F19300" d="M64.809,0.072c7.71,0.78,13.33,7.66,12.55,15.37c-0.78,7.7-7.66,13.32-15.37,12.54
			c-7.72-0.78-13.33-7.66-12.55-15.37C50.219,4.913,57.099-0.708,64.809,0.072z"/>
		<path fill-rule="evenodd" clip-rule="evenodd" fill="#FFFFFF" d="M59.528,11.152c-0.09,0.84,0.15,1.55,0.69,2.21l0.39,0.38
			l-0.43,0.3c-0.67,0.54-1.06,1.18-1.15,2.03c-0.09,0.85,0.16,1.68,0.7,2.33c0.54,0.66,1.3,1.07,2.15,1.16
			c0.84,0.08,1.67-0.17,2.33-0.7l4.67-3.78c0.15-0.12,0.24-0.29,0.26-0.48c0.02-0.18-0.04-0.37-0.16-0.52l-3.82-4.63
			c-0.53-0.66-1.29-1.07-2.14-1.15c-0.85-0.09-1.68,0.16-2.34,0.7C60.028,9.542,59.619,10.302,59.528,11.152z"/>
	</g>
	<g>
		<path fill="#EA6F1D" d="M148.099,50.502c-8.45,4.86-19.24,1.96-24.11-6.48c-4.87-8.44-1.97-19.23,6.48-24.1
			c8.44-4.86,19.24-1.96,24.11,6.48S156.548,45.632,148.099,50.502z"/>
		<path fill-rule="evenodd" clip-rule="evenodd" fill="#FFFFFF" d="M139.909,37.973l-4.71-2.5v-0.01l-0.09-0.06l-0.09-0.07
			l-0.01-0.01l-0.03-0.03l-0.01-0.01l-0.04-0.04v-0.01l-0.03-0.03l-0.01-0.02l-0.02-0.04c-0.24-0.41-0.1-0.93,0.31-1.17l4.92-2.83
			c0.41-0.23,0.93-0.1,1.16,0.31c0.09,0.16,0.12,0.33,0.11,0.49l-0.19,5.29c0,0.29-0.15,0.58-0.42,0.73
			C140.489,38.123,140.159,38.112,139.909,37.973z M145.588,31.583c-2.03-3.53-6.55-4.74-10.08-2.71
			c-3.53,2.03-4.74,6.54-2.71,10.07c2.04,3.53,6.55,4.75,10.08,2.71C146.409,39.623,147.628,35.112,145.588,31.583z M131.329,39.792
			c-2.51-4.34-1.02-9.89,3.33-12.4c4.35-2.5,9.9-1.01,12.41,3.34c2.5,4.34,1.01,9.89-3.34,12.4
			C139.389,45.632,133.829,44.143,131.329,39.792z"/>
	</g>
	<g>
		<path fill="#E48162" d="M63.619,70.583c-1.9,7.51-9.53,12.05-17.05,10.15c-7.51-1.9-12.05-9.53-10.15-17.04
			c1.9-7.51,9.54-12.05,17.05-10.15C60.979,55.442,65.528,63.072,63.619,70.583z"/>
		<path fill-rule="evenodd" clip-rule="evenodd" fill="#FFFFFF" d="M55.608,67.243l-3.27,1.29l0.24,3.53c0,0.05,0,0.11-0.02,0.16
			c-0.07,0.29-0.36,0.46-0.64,0.39c-0.11-0.03-0.21-0.09-0.28-0.18l-2.27-2.72l-3.3,1.31c-0.1,0.04-0.21,0.05-0.32,0.02
			c-0.29-0.07-0.46-0.36-0.39-0.64c0.02-0.06,0.04-0.11,0.07-0.16l1.89-2.98l-2.26-2.7c-0.11-0.12-0.15-0.3-0.11-0.47
			c0.07-0.28,0.36-0.45,0.65-0.38l3.42,0.87l1.88-2.97c0.12-0.19,0.35-0.3,0.58-0.24s0.39,0.26,0.4,0.49l0.24,3.5l3.42,0.87
			c0.29,0.07,0.46,0.36,0.39,0.64C55.878,67.042,55.758,67.183,55.608,67.243z"/>
	</g>
	<g>
		<path fill="#E48162" d="M132.898,98.312c0,7.75-6.29,14.03-14.04,14.03s-14.03-6.28-14.03-14.03c0-7.74,6.28-14.02,14.03-14.02
			S132.898,90.572,132.898,98.312z"/>
		<path fill-rule="evenodd" clip-rule="evenodd" fill="#FFFFFF" d="M123.719,101.362c0,0.58-0.87,1.06-1.94,1.06
			c-1.08,0-1.95-0.48-1.95-1.06c0-0.59,0.87-1.06,1.95-1.06c0.32,0,0.62,0.04,0.88,0.11v-1v-3.41l-6.01,1.31v5.64
			c0,0.59-0.87,1.06-1.95,1.06c-1.07,0-1.94-0.47-1.94-1.06c0-0.59,0.87-1.06,1.94-1.06c0.32,0,0.62,0.04,0.89,0.12v-0.83v-6.36
			c0-0.41,0.53-0.53,0.53-0.53l7.08-1.59c0.29,0,0.52,0.23,0.52,0.52v7.61v0.35V101.362z"/>
	</g>
	<g>
		<path fill="#F19300" d="M101.258,105.342c-5.42,11.04-18.77,15.59-29.82,10.17c-11.04-5.42-15.6-18.76-10.18-29.8
			c5.43-11.04,18.78-15.59,29.83-10.17C102.128,80.962,106.688,94.302,101.258,105.342z"/>
		<path fill-rule="evenodd" clip-rule="evenodd" fill="#FFFFFF" d="M78.108,89.743l-0.73,6.11l8.76,3.6l4.37-3.62L78.108,89.743z
			 M93.229,96.442l-6.2,5.12c-0.3,0.26-0.73,0.33-1.12,0.18l-8.81-3.62l-0.2,1.65l9.29,4.55c1.1,0.54,1.54,1.86,1.01,2.95
			c-0.54,1.09-1.85,1.54-2.95,1c-1.09-0.53-1.54-1.85-1-2.94l-9.22-4.52c-0.54,1.09-1.85,1.54-2.94,1
			c-1.09-0.53-1.55-1.85-1.01-2.94c0.54-1.09,1.86-1.54,2.95-1.01l1.78,0.88l1.53-12.72l-2.26-1.11c-0.54-0.27-0.77-0.93-0.5-1.47
			c0.27-0.55,0.93-0.77,1.47-0.51l2.96,1.46c0.43,0.21,0.66,0.67,0.61,1.11l-0.23,1.93l14.62,7.18c0.55,0.26,0.77,0.92,0.51,1.47
			C93.438,96.223,93.338,96.342,93.229,96.442z"/>
	</g>
	<g>
		<path fill="#E48162" d="M114.289,41.603c3.52,11.78-3.18,24.19-14.97,27.71s-24.2-3.17-27.73-14.96
			c-3.52-11.78,3.18-24.18,14.97-27.71C98.349,23.123,110.758,29.812,114.289,41.603z"/>
		<path fill-rule="evenodd" clip-rule="evenodd" fill="#FFFFFF" d="M98.469,50.032l2.86,1.54c0.48,0.25,1.05,0.32,1.61,0.15
			l0.21,0.69c0.17,0.58-0.16,1.18-0.73,1.36l-7.32,2.18l-2.4,0.72l-1.04,0.31l-0.26,0.08l-1.97,3.66c-0.14,0.24-0.36,0.43-0.65,0.52
			h-0.01c-0.28,0.08-0.57,0.04-0.81-0.08l-0.02-0.02c-0.06-0.03-0.11-0.06-0.16-0.1l-0.05-0.06l-0.1-0.09l-0.03-0.05l-0.09-0.13
			c-0.03-0.06-0.06-0.13-0.08-0.2l-0.62-2.08l-0.18,0.05l-1.21,0.36c-0.58,0.18-1.18-0.15-1.35-0.73l-3.53-11.78
			c-0.17-0.58,0.16-1.18,0.73-1.35l3.12-0.93l2.18,7.28c0.35,1.14,1.55,1.8,2.71,1.45L98.469,50.032z M103.528,47.393l-0.31,0.09
			l-0.38,0.12l0.52,1.73c0.02,0.07,0.03,0.15,0.04,0.22v0.15v0.06l-0.03,0.13l-0.02,0.08c-0.01,0.06-0.04,0.11-0.07,0.17v0.02
			c-0.14,0.24-0.36,0.43-0.64,0.52h-0.01c-0.29,0.09-0.58,0.05-0.83-0.08l-3.21-1.73l-0.12,0.03l-9.51,2.84
			c-0.57,0.17-1.18-0.15-1.35-0.73l-3.11-10.4c-0.17-0.57,0.15-1.17,0.73-1.35l14.57-4.35c0.57-0.17,1.18,0.16,1.35,0.73l3.11,10.4
			C104.438,46.612,104.108,47.223,103.528,47.393z"/>
	</g>
	<g>
		<path fill="#EA6F1D" d="M40.059,11.942c7.42,9.81,5.48,23.77-4.34,31.19c-9.81,7.41-23.79,5.47-31.21-4.33
			c-7.42-9.81-5.48-23.78,4.34-31.19C18.659,0.192,32.639,2.132,40.059,11.942z"/>
		<path fill-rule="evenodd" clip-rule="evenodd" fill="#FFFFFF" d="M31.048,24.272c-0.35,0.26-0.64,0.57-0.78,0.85
			c-0.15,0.28-0.16,0.6-0.11,0.84c0.05,0.24,0.16,0.48,0.43,0.84l0.26,0.34l-0.57,0.42l0.67,0.89l0.57-0.43l2.22,2.94l1.21-0.91
			l-2.22-2.94l0.75-0.57l-0.46-1.05l-0.96,0.73l-0.24-0.31c-0.16-0.22-0.24-0.4-0.22-0.53c0.03-0.14,0.15-0.3,0.33-0.43
			c0.18-0.14,0.39-0.17,0.66-0.2l-0.41-1C31.769,23.913,31.398,24.002,31.048,24.272z M39.418,27.542l-6.39,4.83
			c-0.33,0.24-0.77,0.2-1.01-0.12l-4.86-6.42c-0.24-0.32-0.18-0.78,0.14-1.02l6.4-4.84c0.32-0.24,0.78-0.18,1.02,0.15l4.86,6.42
			C39.829,26.862,39.739,27.292,39.418,27.542z"/>
		<path fill-rule="evenodd" clip-rule="evenodd" fill="#FFFFFF" d="M21.188,10.853c2.76-2.08,5.65-1.75,7.15,0.24
			c1.51,1.98,1.03,4.84-1.73,6.92c-0.34,0.25-0.74,0.4-1.09,0.6c-0.05,2.58-2.32,3.79-2.32,3.79c0.92-1.75,0.04-2.85-0.32-2.81
			c-1.62,0.19-3.06-0.3-3.91-1.42C17.469,16.183,18.438,12.933,21.188,10.853z"/>
		<path fill-rule="evenodd" clip-rule="evenodd" fill="#FFFFFF" d="M10.739,18.853c0.85-0.67,1.54-0.7,2.28-0.63
			c0.35-0.31,0.68-0.89,0.85-1.24l0.16-0.36c0.17,0.56,0.21,1.06,0.07,1.58c-0.03,0.12-0.05,0.25-0.11,0.36l0,0
			c0.48-0.37,0.71-0.88,1-1.29l0.01,0.01c0.03,0.46,0.01,0.99-0.11,1.43l-0.13,0.54c0.39,0.5,0.74,1,0.97,1.5
			c1.33,2.91,1.14,5.71-0.64,8.19c-0.64,0.89-1.9,2.02-3.04,2.5c-0.56,0.24-1.09,0.43-1.63,0.56c-0.3,0.07-0.58,0.12-0.87,0.15
			l-0.29,0.03c0.22-0.15,0.52-0.29,0.73-0.51c0.2-0.2,0.42-0.35,0.58-0.55c0.42-0.49,0.76-0.97,0.97-1.48
			c0.11-0.25,0.29-0.59,0.31-0.85c-0.25,0.19-0.52,0.31-0.75,0.38c-0.91,0.29-1.68,0.14-2.48-0.35c0.23-0.15,0.9-0.56,0.95-0.8
			c-0.28,0.19-0.67,0.24-0.94,0.26c-0.85,0.07-1.78-0.18-2.48-1.11l0.3-0.06c0.2-0.05,0.37-0.13,0.57-0.23
			c0.08-0.04,0.26-0.1,0.32-0.2l-0.01,0.01c-0.21-0.05-0.46,0.01-0.68-0.05c-0.71-0.18-1.6-0.63-2.02-1.64
			c-0.1-0.25-0.16-0.51-0.19-0.75l0.01-0.01c0.11,0.06,0.26,0.06,0.38,0.09c0.36,0.09,0.76,0.12,1.13,0.13
			c1.3,0.02,2.32-0.14,3.71-0.74c0.35-0.15,0.74-0.36,1.09-0.62c-0.32-0.22-0.64-0.71-0.77-1.05c-0.34-0.86-0.3-1.69,0.13-2.44
			c0.1-0.18,0.23-0.36,0.38-0.53L10.739,18.853z"/>
		<g>
			<path fill="#FFFFFF" d="M21.539,36.433l1.7-7.28c-0.03,0.01-0.06,0.02-0.08,0.04l-9.03,6.82c-0.02,0.02-0.04,0.04-0.06,0.07
				L21.539,36.433z"/>
			<path fill="#FFFFFF" d="M23.878,29.292c-0.04-0.04-0.08-0.08-0.12-0.11l-1.2,5.17l5.72,0.79c-0.02-0.04-0.03-0.08-0.06-0.11
				L23.878,29.292z"/>
			<path fill="#FFFFFF" d="M13.958,36.592c0.02,0.04,0.04,0.09,0.07,0.14l4.34,5.74c0.03,0.03,0.07,0.06,0.1,0.08l0.79-5.71
				L13.958,36.592z"/>
			<path fill="#FFFFFF" d="M22.438,34.853l-0.44,1.91c-0.02,0.06-0.05,0.11-0.1,0.14c-0.04,0.04-0.1,0.06-0.17,0.05l-1.95-0.09
				l-0.8,5.76c0.04-0.01,0.08-0.03,0.11-0.05l9.03-6.82c0.04-0.03,0.06-0.07,0.08-0.1L22.438,34.853z"/>
		</g>
	</g>
	<g>
		<g>
			<path fill="#E48162" d="M130.688,131.873c2.6,7.93-1.73,16.47-9.67,19.07c-7.93,2.6-16.48-1.73-19.08-9.66
				c-2.6-7.93,1.73-16.46,9.67-19.06C119.539,119.623,128.079,123.942,130.688,131.873z"/>
		</g>
		<path fill-rule="evenodd" clip-rule="evenodd" fill="#FFFFFF" d="M113.599,138.772l-1.38,2.72c-0.37,0.75-0.07,1.67,0.68,2.05
			s1.66,0.08,2.04-0.67l1.38-2.72l0.02-0.06l1.16-2.29c0.58,0.88,0.68,2.03,0.17,3.04l-1.37,2.72c-0.76,1.5-2.59,2.1-4.09,1.34
			c-1.5-0.76-2.1-2.6-1.34-4.1l1.37-2.72c0.51-1.01,1.5-1.6,2.55-1.66l-1.18,2.34L113.599,138.772z M115.639,139.873
			c-0.09,0.18-0.25,0.33-0.46,0.39c-0.4,0.14-0.84-0.09-0.97-0.49c-0.07-0.21-0.04-0.43,0.06-0.61l3.27-6.45
			c0.08-0.19,0.24-0.35,0.46-0.42c0.4-0.13,0.84,0.09,0.97,0.5c0.07,0.2,0.05,0.41-0.04,0.58L115.639,139.873z M122.289,131.743
			l-1.38,2.72c-0.51,1.01-1.5,1.61-2.56,1.66l1.15-2.26l0.06-0.09l1.37-2.72c0.38-0.75,0.08-1.67-0.67-2.05s-1.67-0.08-2.05,0.67
			l-1.37,2.72l-1.19,2.35c-0.57-0.89-0.68-2.04-0.17-3.04l1.37-2.72c0.76-1.5,2.59-2.1,4.09-1.34
			C122.438,128.402,123.048,130.243,122.289,131.743z"/>
	</g>
	<g>
		<g>
			<path fill="#EA6F1D" d="M177.869,75.683c2.24,12.09-5.75,23.71-17.85,25.95c-12.1,2.24-23.73-5.75-25.97-17.84
				c-2.24-12.09,5.75-23.71,17.85-25.95C163.999,55.603,175.628,63.592,177.869,75.683z"/>
		</g>
		<path fill-rule="evenodd" clip-rule="evenodd" fill="#FFFFFF" d="M152.778,79.252c-1.12,0.21-2.19-0.53-2.4-1.65
			s0.53-2.2,1.65-2.41c1.12-0.21,2.2,0.54,2.41,1.66S153.909,79.042,152.778,79.252z M155.688,83.612l3.67-6.63l3.93,4.17l0.75,4.06
			l-12.86,2.38l3.31-4.81L155.688,83.612z M162.489,71.163l-14.89,2.76l2.75,14.87l14.89-2.75L162.489,71.163z M167.699,84.183
			c0.08,0.45-0.13,0.87-0.5,1.08l0.21,1.14c0.42,0.07,0.77,0.39,0.85,0.83c0.11,0.56-0.26,1.1-0.82,1.2
			c-0.45,0.08-0.87-0.13-1.08-0.5l-1.14,0.21c-0.07,0.42-0.39,0.77-0.83,0.85c-0.44,0.09-0.86-0.13-1.08-0.5l-1.14,0.21
			c-0.06,0.42-0.38,0.78-0.82,0.86c-0.45,0.08-0.87-0.14-1.08-0.5l-1.14,0.21c-0.07,0.42-0.39,0.77-0.83,0.85
			c-0.44,0.08-0.86-0.13-1.08-0.5l-1.14,0.21c-0.06,0.42-0.38,0.77-0.83,0.85c-0.44,0.09-0.86-0.13-1.07-0.5l-1.14,0.22
			c-0.07,0.42-0.39,0.77-0.83,0.85s-0.86-0.13-1.08-0.5l-1.14,0.21c-0.07,0.42-0.38,0.77-0.83,0.85c-0.56,0.11-1.1-0.26-1.2-0.82
			c-0.08-0.45,0.13-0.87,0.5-1.08l-0.21-1.14c-0.42-0.07-0.77-0.39-0.85-0.83s0.13-0.86,0.5-1.08l-0.21-1.13
			c-0.42-0.07-0.78-0.39-0.86-0.83s0.14-0.87,0.5-1.08l-0.21-1.14c-0.42-0.06-0.77-0.38-0.85-0.82c-0.08-0.45,0.13-0.87,0.5-1.08
			l-0.21-1.14c-0.42-0.07-0.77-0.39-0.86-0.83c-0.08-0.44,0.14-0.86,0.5-1.07l-0.21-1.14c-0.42-0.07-0.77-0.39-0.85-0.83
			s0.13-0.86,0.5-1.08l-0.21-1.14c-0.42-0.06-0.77-0.38-0.85-0.82c-0.11-0.56,0.26-1.1,0.82-1.21c0.45-0.08,0.87,0.14,1.08,0.5
			l1.14-0.21c0.07-0.42,0.39-0.77,0.83-0.85c0.44-0.08,0.86,0.13,1.08,0.5l1.14-0.21c0.06-0.42,0.38-0.77,0.82-0.85
			c0.45-0.09,0.87,0.13,1.08,0.5l1.14-0.21c0.07-0.42,0.39-0.78,0.83-0.86s0.87,0.14,1.08,0.5l1.14-0.21
			c0.06-0.42,0.38-0.77,0.82-0.85c0.45-0.08,0.87,0.13,1.08,0.5l1.14-0.21c0.07-0.42,0.39-0.77,0.83-0.85
			c0.44-0.09,0.87,0.13,1.08,0.5l1.14-0.22c0.07-0.41,0.38-0.77,0.83-0.85c0.56-0.1,1.09,0.27,1.2,0.83
			c0.08,0.44-0.13,0.86-0.5,1.08l0.21,1.13c0.42,0.07,0.77,0.39,0.85,0.83c0.08,0.44-0.13,0.87-0.5,1.08l0.21,1.14
			c0.42,0.07,0.77,0.38,0.86,0.82c0.08,0.45-0.14,0.87-0.5,1.08l0.21,1.14c0.42,0.07,0.77,0.39,0.85,0.83
			c0.08,0.44-0.13,0.86-0.5,1.08l0.21,1.13c0.42,0.07,0.77,0.39,0.85,0.83c0.09,0.44-0.13,0.87-0.49,1.08l0.21,1.14
			C167.269,83.422,167.619,83.743,167.699,84.183z"/>
	</g>
	
		<polyline fill="none" stroke="#460200" stroke-width="11" stroke-linecap="round" stroke-linejoin="round" stroke-miterlimit="10" points="
		11.378,62.822 78.168,129.562 78.168,162.712 	"/>
	
		<polyline fill="none" stroke="#460200" stroke-width="11" stroke-linecap="round" stroke-linejoin="round" stroke-miterlimit="10" points="
		206.438,62.822 139.648,129.562 139.648,162.712 	"/>
</g>
</svg>
