<svg version="1.1" xmlns="http://www.w3.org/2000/svg" xmlns:xlink="http://www.w3.org/1999/xlink" width="238px" height="235px" viewBox="0 0 238 235">
<linearGradient id="info_graphic_how_shortcut_works_gradient" gradientUnits="userSpaceOnUse" x1="126.7378" y1="160.1343" x2="150.3453" y2="206.4666">
	<stop  offset="0.01" style="stop-color:#000000"/>
	<stop  offset="0.61" style="stop-color:#FFFFFF"/>
</linearGradient>
<polygon opacity="0.149" fill="url(#info_graphic_how_shortcut_works_gradient)" points="213,95 238,121 238,235 42,235 24,216 "/>
<g>
	
		<path fill="#FFFFFF" stroke="#460200" stroke-width="12" stroke-linecap="round" stroke-linejoin="round" stroke-miterlimit="10" d="
		M206.22,210.82c0,0-13.84-4.83-44.21-4.83c-30.38,0-45.56,8.27-45.56,8.27V101.29c0,0,18.56-8.26,47.59-8.26
		c29.02,0,42.18,4.82,42.18,4.82V210.82z"/>
	
		<path fill="#FFFFFF" stroke="#460200" stroke-width="12" stroke-linecap="round" stroke-linejoin="round" stroke-miterlimit="10" d="
		M116.49,214.26c0,0-13.83-8.27-44.21-8.27c-30.37,0-45.56,4.83-45.56,4.83V97.85c0,0,18.56-4.82,47.59-4.82
		c29.02,0,42.18,8.26,42.18,8.26V214.26z"/>
</g>
<line fill="none" stroke="#EA6F1D" stroke-width="6" stroke-linecap="round" stroke-linejoin="round" stroke-miterlimit="10" x1="66.34" y1="138.2" x2="38.91" y2="64.27"/>
<g>
	<g>
		<path fill="#EA6F1D" d="M71.67,36.02c0,19.9-16.04,36.03-35.83,36.03C16.04,72.05,0,55.92,0,36.02C0,16.13,16.04,0,35.84,0
			C55.63,0,71.67,16.13,71.67,36.02z"/>
	</g>
	<path fill-rule="evenodd" clip-rule="evenodd" fill="#FFFFFF" d="M30.96,34.32c-1.83,0-3.32-1.5-3.32-3.34
		c0-1.85,1.49-3.34,3.32-3.34c1.84,0,3.32,1.49,3.32,3.34C34.28,32.82,32.8,34.32,30.96,34.32z M34.28,42.11l7.75-9.46l4.98,7.79
		v6.67H25.98l6.64-6.67L34.28,42.11z M48.67,24.3H24.32v24.48h24.35V24.3z M53.1,46.56c0,0.72-0.46,1.33-1.11,1.56V50
		c0.65,0.23,1.11,0.84,1.11,1.56c0,0.92-0.74,1.67-1.66,1.67c-0.72,0-1.33-0.46-1.56-1.11h-1.86c-0.23,0.65-0.84,1.11-1.56,1.11
		c-0.72,0-1.33-0.46-1.56-1.11h-1.86c-0.23,0.65-0.84,1.11-1.56,1.11s-1.33-0.46-1.56-1.11h-1.86c-0.23,0.65-0.84,1.11-1.56,1.11
		c-0.73,0-1.33-0.46-1.56-1.11h-1.87c-0.22,0.65-0.83,1.11-1.56,1.11c-0.72,0-1.32-0.46-1.55-1.11h-1.87
		c-0.23,0.65-0.83,1.11-1.56,1.11c-0.72,0-1.32-0.46-1.55-1.11h-1.87c-0.23,0.65-0.83,1.11-1.56,1.11c-0.92,0-1.66-0.75-1.66-1.67
		c0-0.72,0.47-1.33,1.11-1.56v-1.88c-0.64-0.23-1.11-0.84-1.11-1.56c0-0.73,0.47-1.34,1.11-1.57v-1.87
		c-0.64-0.24-1.11-0.85-1.11-1.57c0-0.73,0.47-1.34,1.11-1.57v-1.87c-0.64-0.23-1.11-0.84-1.11-1.57c0-0.72,0.47-1.33,1.11-1.57
		V33.1c-0.64-0.23-1.11-0.84-1.11-1.57c0-0.72,0.47-1.33,1.11-1.56v-1.88c-0.64-0.23-1.11-0.84-1.11-1.56
		c0-0.73,0.47-1.34,1.11-1.57v-1.87c-0.64-0.23-1.11-0.85-1.11-1.57c0-0.92,0.74-1.67,1.66-1.67c0.73,0,1.33,0.47,1.56,1.11h1.87
		c0.23-0.64,0.83-1.11,1.55-1.11c0.73,0,1.33,0.47,1.56,1.11h1.87c0.23-0.64,0.83-1.11,1.55-1.11c0.73,0,1.34,0.47,1.56,1.11h1.87
		c0.23-0.64,0.83-1.11,1.56-1.11c0.72,0,1.33,0.47,1.56,1.11h1.86c0.23-0.64,0.84-1.11,1.56-1.11s1.33,0.47,1.56,1.11h1.86
		c0.23-0.64,0.84-1.11,1.56-1.11c0.72,0,1.33,0.47,1.56,1.11h1.86c0.23-0.64,0.84-1.11,1.56-1.11c0.92,0,1.66,0.75,1.66,1.67
		c0,0.72-0.46,1.34-1.11,1.57v1.87c0.65,0.23,1.11,0.84,1.11,1.57c0,0.72-0.46,1.33-1.11,1.56v1.88c0.65,0.23,1.11,0.84,1.11,1.56
		c0,0.73-0.46,1.34-1.11,1.57v1.87c0.65,0.24,1.11,0.85,1.11,1.57c0,0.73-0.46,1.34-1.11,1.57v1.87c0.65,0.23,1.11,0.84,1.11,1.57
		c0,0.72-0.46,1.33-1.11,1.57v1.87C52.64,45.22,53.1,45.83,53.1,46.56z"/>
</g>
<g>
	<path fill="#E48162" d="M231.53,36.02c0,19.9-16.04,36.03-35.84,36.03c-19.79,0-35.83-16.13-35.83-36.03
		C159.86,16.13,175.9,0,195.69,0C215.49,0,231.53,16.13,231.53,36.02z"/>
	<path fill-rule="evenodd" clip-rule="evenodd" fill="#FFFFFF" d="M201.18,37.73l-9.17,5.77L192,43.49
		c-0.06,0.04-0.13,0.08-0.2,0.11l-0.01,0.01c-0.07,0.03-0.14,0.05-0.21,0.08h-0.02l-0.1,0.02l-0.01,0.01l-0.11,0.02h-0.02
		l-0.09,0.01h-0.03l-0.12,0.01c-0.95,0-1.72-0.78-1.72-1.74V30.44c0-0.96,0.77-1.74,1.72-1.74c0.37,0,0.7,0.11,0.98,0.3l9.1,5.72
		c0.52,0.3,0.87,0.86,0.87,1.51C202.03,36.87,201.69,37.43,201.18,37.73z M195.69,21.17c-8.27,0-14.98,6.74-14.98,15.06
		s6.71,15.06,14.98,15.06c8.28,0,14.99-6.74,14.99-15.06S203.97,21.17,195.69,21.17z M195.69,54.76c-10.18,0-18.44-8.29-18.44-18.53
		c0-10.24,8.26-18.54,18.44-18.54c10.19,0,18.44,8.3,18.44,18.54C214.13,46.47,205.88,54.76,195.69,54.76z"/>
</g>
<line fill="none" stroke="#E48162" stroke-width="6" stroke-linecap="round" stroke-linejoin="round" stroke-miterlimit="10" x1="170.84" y1="121.26" x2="186.77" y2="66.34"/>
<g>
	<path fill="#F19300" d="M151.6,36.02c0,19.9-16.04,36.03-35.83,36.03c-19.8,0-35.84-16.13-35.84-36.03
		C79.93,16.13,95.97,0,115.77,0C135.56,0,151.6,16.13,151.6,36.02z"/>
	<path fill-rule="evenodd" clip-rule="evenodd" fill="#FFFFFF" d="M107.11,29.88l3.27,9.39l15.21-1.02l3.75-8.37H107.11z
		 M133.69,28.83l-5.31,11.86c-0.26,0.58-0.83,1-1.5,1.04l-15.28,1.03l0.88,2.53h16.65c1.95,0,3.53,1.59,3.53,3.56
		c0,1.97-1.58,3.56-3.53,3.56c-1.96,0-3.54-1.59-3.54-3.56h-16.52c0,1.97-1.58,3.56-3.54,3.56c-1.95,0-3.54-1.59-3.54-3.56
		c0-1.97,1.59-3.56,3.54-3.56h3.2l-6.81-19.56h-4.06c-0.97,0-1.76-0.8-1.76-1.78s0.79-1.78,1.76-1.78h5.31
		c0.77,0,1.42,0.5,1.67,1.19l0,0l1.03,2.96h26.21c0.97,0,1.77,0.79,1.77,1.78C133.85,28.36,133.79,28.6,133.69,28.83z"/>
</g>
<line fill="none" stroke="#F19300" stroke-width="6" stroke-linecap="round" stroke-linejoin="round" stroke-miterlimit="10" x1="94.57" y1="133.39" x2="108.81" y2="64.64"/>
</svg>
