<svg version="1.1" xmlns="http://www.w3.org/2000/svg" xmlns:xlink="http://www.w3.org/1999/xlink" width="267.1px" height="127px" viewBox="0 0 267.1 127">
<g>
	<g>
		<path fill="#FF6500" d="M77.3,61.2c0-0.1-0.5-10.3-7-20.7C67.7,36.2,64,31.8,59,28.2c2.2-0.4,4.4-0.6,6.7-0.6
			c5.9,0,11.5,1.5,16.3,4.2c0.6,2.9,0.9,5.8,0.9,8.5c0,8.3-2.5,15.3-5.1,20.2C77.6,60.7,77.5,60.9,77.3,61.2z"/>
		<path fill="#FF6500" d="M73,53.2c-0.1-0.1-7.6-6.9-19.4-9.7C48.7,42.4,43,42,36.9,43c1.2-1.8,2.6-3.6,4.2-5.2
			c4.2-4.2,9.2-7.1,14.4-8.7c2.5,1.6,4.7,3.5,6.5,5.3c5.8,5.9,8.9,12.6,10.6,18C72.8,52.6,72.9,52.9,73,53.2z"/>
		<path fill="#FF6500" d="M64.3,50.7c-0.1,0-10.2,0.5-20.5,7c-4.2,2.7-8.5,6.4-12.2,11.4C31.2,67,31,64.8,31,62.5
			c0-6,1.5-11.6,4.1-16.5c2.9-0.6,5.7-0.9,8.4-0.9c8.2,0,15.1,2.6,20,5.1C63.8,50.4,64,50.6,64.3,50.7z"/>
		<path fill="#FF6500" d="M56.5,55.1c-0.1,0.1-6.8,7.7-9.6,19.7c-1.1,4.9-1.6,10.6-0.6,16.8c-1.8-1.2-3.5-2.7-5.1-4.3
			c-4.2-4.2-7.1-9.3-8.6-14.6c1.6-2.5,3.4-4.7,5.3-6.6c5.8-5.9,12.5-9,17.7-10.7C55.8,55.3,56.2,55.2,56.5,55.1z"/>
		<path fill="#FF6500" d="M54,63.9c0,0.1,0.5,10.3,7,20.7c2.6,4.3,6.3,8.6,11.3,12.3c-2.2,0.4-4.4,0.6-6.7,0.6
			c-5.9,0-11.5-1.5-16.3-4.2c-0.6-2.9-0.9-5.8-0.9-8.4c0-8.3,2.5-15.3,5.1-20.3C53.6,64.4,53.8,64.1,54,63.9z"/>
		<path fill="#FF6500" d="M58.3,71.8c0.1,0.1,7.6,6.9,19.4,9.7c4.9,1.2,10.5,1.6,16.6,0.6c-1.2,1.8-2.6,3.6-4.3,5.2
			c-4.2,4.2-9.1,7.1-14.4,8.7c-2.5-1.7-4.6-3.5-6.5-5.4c-5.8-5.9-8.9-12.6-10.6-17.9C58.4,72.4,58.4,72.1,58.3,71.8z"/>
		<path fill="#FF6500" d="M66.9,74.3c0.1,0,10.1-0.5,20.5-7c4.3-2.7,8.5-6.4,12.2-11.4c0.4,2.2,0.6,4.4,0.6,6.7
			c0,6-1.5,11.6-4.1,16.5c-2.9,0.6-5.7,0.9-8.4,0.9c-8.2,0-15.1-2.5-20-5.1C67.5,74.7,67.2,74.5,66.9,74.3z"/>
		<path fill="#FF6500" d="M74.8,69.9c0.1-0.1,6.8-7.6,9.6-19.6c1.1-4.9,1.6-10.6,0.6-16.8c1.8,1.2,3.5,2.7,5.2,4.3
			c4.2,4.2,7.1,9.3,8.6,14.6c-1.6,2.5-3.4,4.7-5.3,6.6c-5.8,5.9-12.5,9-17.8,10.7C75.4,69.8,75.1,69.8,74.8,69.9z"/>
		<path fill-rule="evenodd" clip-rule="evenodd" fill="#383838" d="M234.1,57v2.4h-3.3v10.3c0,0.3,0,0.6,0.1,0.8
			c0,0.2,0.1,0.3,0.3,0.4c0.1,0.1,0.4,0.2,0.6,0.2c0.3,0,0.6,0,1,0h1.2v2.4H232c-0.7,0-1.3,0-1.8-0.1c-0.5-0.1-0.9-0.3-1.2-0.5
			c-0.3-0.3-0.5-0.6-0.7-1.1c-0.1-0.5-0.2-1.1-0.2-1.9V59.4h-2.8V57h2.8v-5h2.7v5H234.1z M220.2,73.5v-2.6h-0.1
			c-0.6,1-1.3,1.8-2.2,2.2c-0.9,0.5-1.9,0.7-3.1,0.7c-1.1,0-2-0.1-2.7-0.4c-0.7-0.3-1.3-0.7-1.7-1.2c-0.4-0.5-0.8-1.2-0.9-1.9
			c-0.2-0.7-0.3-1.5-0.3-2.4V57h2.7v11.2c0,1,0.3,1.8,0.9,2.4c0.6,0.6,1.4,0.9,2.4,0.9c0.8,0,1.5-0.1,2.1-0.4
			c0.6-0.3,1.1-0.6,1.5-1.1c0.4-0.5,0.7-1,0.9-1.6c0.2-0.6,0.3-1.3,0.3-2.1V57h2.7v16.5H220.2z M201.8,59.8
			c-0.7-0.6-1.6-0.9-2.7-0.9c-1,0-1.8,0.2-2.4,0.5c-0.7,0.4-1.2,0.8-1.6,1.4c-0.4,0.6-0.7,1.3-0.8,2.1c-0.2,0.8-0.3,1.6-0.3,2.4
			c0,0.8,0.1,1.5,0.3,2.2c0.2,0.7,0.5,1.4,0.8,1.9c0.4,0.6,0.9,1,1.5,1.4c0.6,0.3,1.3,0.5,2.2,0.5c1.3,0,2.4-0.4,3.1-1
			c0.7-0.7,1.2-1.7,1.4-3h2.8c-0.3,2-1,3.6-2.3,4.7c-1.2,1.1-2.9,1.7-4.9,1.7c-1.2,0-2.3-0.2-3.3-0.6c-1-0.4-1.8-1-2.4-1.7
			c-0.6-0.7-1.1-1.6-1.4-2.7c-0.3-1-0.5-2.2-0.5-3.4c0-1.2,0.2-2.4,0.5-3.5c0.3-1.1,0.8-2,1.4-2.8c0.6-0.8,1.4-1.4,2.4-1.9
			c1-0.5,2.1-0.7,3.4-0.7c0.9,0,1.8,0.1,2.6,0.3c0.8,0.2,1.5,0.6,2.1,1c0.6,0.5,1.1,1.1,1.5,1.8s0.6,1.6,0.8,2.5h-2.8
			C203,61.2,202.5,60.4,201.8,59.8z M188.8,57v2.4h-3.2v10.3c0,0.3,0,0.6,0.1,0.8c0.1,0.2,0.2,0.3,0.3,0.4c0.1,0.1,0.4,0.2,0.6,0.2
			c0.3,0,0.6,0,1,0h1.2v2.4h-2c-0.7,0-1.3,0-1.8-0.1c-0.5-0.1-0.9-0.3-1.2-0.5c-0.3-0.3-0.5-0.6-0.7-1.1c-0.1-0.5-0.2-1.1-0.2-1.9
			V59.4h-2.8V57h2.8v-5h2.7v5H188.8z M172.1,57v3.5h0.1c0.7-1.4,1.5-2.3,2.4-3c0.9-0.6,2.1-0.9,3.6-0.9v2.9c-1.1,0-2,0.1-2.7,0.4
			c-0.8,0.3-1.4,0.7-1.8,1.3c-0.5,0.6-0.8,1.3-1,2.1c-0.2,0.8-0.3,1.8-0.3,2.8v7.4h-2.7V57H172.1z M151.2,61.8c0.3-1,0.8-2,1.5-2.8
			c0.7-0.8,1.5-1.4,2.5-1.8c1-0.4,2.1-0.7,3.4-0.7c1.3,0,2.4,0.2,3.4,0.7c1,0.4,1.8,1.1,2.5,1.8c0.7,0.8,1.2,1.7,1.5,2.8
			c0.3,1,0.5,2.2,0.5,3.4c0,1.2-0.2,2.3-0.5,3.4c-0.3,1-0.8,1.9-1.5,2.7c-0.7,0.8-1.5,1.4-2.5,1.8s-2.1,0.7-3.4,0.7
			c-1.3,0-2.4-0.2-3.4-0.7c-1-0.4-1.8-1-2.5-1.8c-0.7-0.8-1.2-1.7-1.5-2.7c-0.3-1.1-0.5-2.2-0.5-3.4C150.7,64,150.9,62.9,151.2,61.8
			z M153.9,67.9c0.3,0.8,0.6,1.4,1.1,2s1,0.9,1.6,1.2c0.6,0.3,1.3,0.4,2,0.4c0.7,0,1.4-0.1,2-0.4c0.6-0.3,1.2-0.7,1.6-1.2
			c0.5-0.5,0.8-1.2,1.1-2c0.3-0.8,0.4-1.7,0.4-2.7s-0.1-1.9-0.4-2.7c-0.3-0.8-0.6-1.4-1.1-2c-0.5-0.5-1-0.9-1.6-1.2
			c-0.6-0.3-1.3-0.4-2-0.4c-0.7,0-1.4,0.1-2,0.4c-0.6,0.3-1.2,0.7-1.6,1.2c-0.5,0.5-0.8,1.2-1.1,2c-0.3,0.8-0.4,1.7-0.4,2.7
			S153.7,67.1,153.9,67.9z M136.9,50.7v8.7h0.1c0.2-0.5,0.5-0.9,0.9-1.3c0.4-0.3,0.8-0.6,1.3-0.9c0.5-0.2,1-0.4,1.5-0.5
			c0.5-0.1,1-0.2,1.5-0.2c1.1,0,2,0.2,2.7,0.5s1.3,0.7,1.7,1.2c0.4,0.5,0.8,1.2,0.9,1.9c0.2,0.7,0.3,1.6,0.3,2.4v10.9H145V62.3
			c0-1-0.3-1.8-0.9-2.4c-0.6-0.6-1.4-0.9-2.4-0.9c-0.8,0-1.5,0.1-2.1,0.4c-0.6,0.3-1.1,0.6-1.5,1.1c-0.4,0.5-0.7,1-0.9,1.6
			c-0.2,0.6-0.3,1.3-0.3,2.1v9.3h-2.7V50.7H136.9z M125.2,53.8c-1-0.7-2.3-1.1-3.8-1.1c-0.6,0-1.2,0.1-1.9,0.2
			c-0.6,0.1-1.1,0.3-1.6,0.6c-0.5,0.3-0.9,0.7-1.1,1.2c-0.3,0.5-0.4,1.1-0.4,1.9c0,0.7,0.2,1.3,0.6,1.7c0.4,0.4,0.9,0.8,1.6,1.1
			c0.7,0.3,1.5,0.5,2.3,0.7c0.9,0.2,1.7,0.4,2.6,0.6c0.9,0.2,1.8,0.5,2.6,0.8c0.9,0.3,1.6,0.7,2.3,1.2c0.7,0.5,1.2,1.1,1.6,1.9
			s0.6,1.7,0.6,2.8c0,1.2-0.3,2.3-0.8,3.1c-0.5,0.9-1.2,1.6-2.1,2.1c-0.9,0.5-1.8,0.9-2.8,1.2c-1,0.2-2.1,0.4-3.1,0.4
			c-1.3,0-2.5-0.2-3.6-0.5c-1.1-0.3-2.1-0.8-3-1.5c-0.9-0.6-1.5-1.5-2-2.5c-0.5-1-0.7-2.2-0.7-3.6h2.9c0,0.9,0.2,1.8,0.5,2.5
			c0.4,0.7,0.9,1.3,1.5,1.7c0.6,0.5,1.3,0.8,2.1,1c0.8,0.2,1.6,0.3,2.5,0.3c0.7,0,1.4-0.1,2-0.2c0.7-0.1,1.3-0.4,1.9-0.6
			c0.5-0.3,1-0.7,1.3-1.3c0.3-0.5,0.5-1.2,0.5-2c0-0.8-0.2-1.4-0.6-1.9c-0.4-0.5-1-0.9-1.6-1.2c-0.7-0.3-1.5-0.6-2.3-0.8l-2.6-0.6
			c-0.9-0.2-1.8-0.4-2.6-0.7c-0.9-0.3-1.6-0.6-2.3-1.1c-0.7-0.4-1.2-1-1.6-1.7s-0.6-1.6-0.6-2.6c0-1.1,0.2-2.1,0.7-3
			c0.5-0.8,1.1-1.5,1.9-2.1c0.8-0.5,1.6-0.9,2.6-1.2c1-0.3,2-0.4,3-0.4c1.2,0,2.2,0.2,3.2,0.4c1,0.3,1.9,0.7,2.6,1.3
			c0.8,0.6,1.4,1.4,1.8,2.2c0.4,0.9,0.7,2,0.7,3.2H127C126.8,55.7,126.2,54.5,125.2,53.8z"/>
	</g>
	
		<line fill-rule="evenodd" clip-rule="evenodd" fill="none" stroke="#E48162" stroke-width="2.0006" stroke-linecap="round" stroke-linejoin="round" stroke-miterlimit="10" x1="25.5" y1="1" x2="25.5" y2="17"/>
	
		<line fill-rule="evenodd" clip-rule="evenodd" fill="none" stroke="#E48162" stroke-width="2.0006" stroke-linecap="round" stroke-linejoin="round" stroke-miterlimit="10" x1="1" y1="24.5" x2="17" y2="24.5"/>
	
		<line fill-rule="evenodd" clip-rule="evenodd" fill="none" stroke="#E48162" stroke-width="2.0006" stroke-linecap="round" stroke-linejoin="round" stroke-miterlimit="10" x1="1" y1="101.5" x2="17" y2="101.5"/>
	
		<line fill-rule="evenodd" clip-rule="evenodd" fill="none" stroke="#E48162" stroke-width="2.0006" stroke-linecap="round" stroke-linejoin="round" stroke-miterlimit="10" x1="250.1" y1="24.5" x2="266.1" y2="24.5"/>
	
		<line fill-rule="evenodd" clip-rule="evenodd" fill="none" stroke="#E48162" stroke-width="1.0003" stroke-linecap="round" stroke-linejoin="round" stroke-miterlimit="10" x1="250.1" y1="101.5" x2="266.1" y2="101.5"/>
	
		<line fill-rule="evenodd" clip-rule="evenodd" fill="none" stroke="#E48162" stroke-width="2.0006" stroke-linecap="round" stroke-linejoin="round" stroke-miterlimit="10" x1="242.6" y1="1" x2="242.6" y2="17"/>
	
		<line fill-rule="evenodd" clip-rule="evenodd" fill="none" stroke="#E48162" stroke-width="2.0006" stroke-linecap="round" stroke-linejoin="round" stroke-miterlimit="10" x1="25.5" y1="110" x2="25.5" y2="126"/>
	
		<line fill-rule="evenodd" clip-rule="evenodd" fill="none" stroke="#E48162" stroke-width="2.0006" stroke-linecap="round" stroke-linejoin="round" stroke-miterlimit="10" x1="242.6" y1="110" x2="242.6" y2="126"/>
</g>
</svg>
