<svg version="1.1" xmlns="http://www.w3.org/2000/svg" xmlns:xlink="http://www.w3.org/1999/xlink" width="252.25px" height="252.16px" viewBox="0 0 252.25 252.16">
<linearGradient id="info_graphic_purchaising_decisions_1_" gradientUnits="userSpaceOnUse" x1="186.3564" y1="172.0576" x2="231.5092" y2="218.8147">
	<stop  offset="0.01" style="stop-color:#19161A"/>
	<stop  offset="0.61" style="stop-color:#FFFFFF"/>
</linearGradient>
<polygon opacity="0.149" fill="url(#info_graphic_purchaising_decisions_1_)" points="226.25,104.16 252.25,131.16 252.25,252.16 158.25,252.16 139.25,231.16 "/>
<linearGradient id="info_graphic_purchaising_decisions_2_" gradientUnits="userSpaceOnUse" x1="112.3848" y1="76.0923" x2="137.3542" y2="125.0976">
	<stop  offset="0.01" style="stop-color:#19161A"/>
	<stop  offset="0.61" style="stop-color:#FFFFFF"/>
</linearGradient>
<polygon opacity="0.149" fill="url(#info_graphic_purchaising_decisions_2_)" points="204.25,7.16 230.25,34.16 230.25,155.16 22.25,155.16 3.25,135.16 "/>
<g>
	
		<path fill="#FFFFFF" stroke="#EA6F1D" stroke-width="13" stroke-linecap="round" stroke-linejoin="round" stroke-miterlimit="10" d="
		M198.22,131.67c0,0-14.78-5.13-47.22-5.13s-48.67,8.79-48.67,8.79V15.28c0,0,19.83-8.78,50.84-8.78c31,0,45.05,5.13,45.05,5.13
		V131.67z"/>
	
		<path fill="#FFFFFF" stroke="#EA6F1D" stroke-width="13" stroke-linecap="round" stroke-linejoin="round" stroke-miterlimit="10" d="
		M102.38,135.33c0,0-14.77-8.79-47.22-8.79c-32.44,0-48.66,5.13-48.66,5.13V11.63c0,0,19.83-5.13,50.83-5.13s45.05,8.78,45.05,8.78
		V135.33z"/>
</g>
<g>
	<path fill="#460200" d="M230.55,226.84c0,5.55-4.51,10.06-10.06,10.06h-71.08c-5.56,0-10.06-4.51-10.06-10.06V111.37
		c0-5.56,4.5-10.06,10.06-10.06h71.08c5.55,0,10.06,4.5,10.06,10.06V226.84z"/>
	<path fill="#FFFFFF" d="M220.74,211.92c0,2.41-1.95,4.36-4.35,4.36h-62.88c-2.41,0-4.36-1.95-4.36-4.36v-97.11
		c0-2.41,1.95-4.36,4.36-4.36h62.88c2.4,0,4.35,1.95,4.35,4.36V211.92z"/>
	<path fill="#FFFFFF" d="M195.66,225.93c0,1.33-1.09,2.42-2.42,2.42h-16.58c-1.34,0-2.42-1.09-2.42-2.42s1.08-2.42,2.42-2.42h16.58
		C194.57,223.51,195.66,224.6,195.66,225.93z"/>
</g>
<g>
	<path fill="#EA6F1D" d="M177.43,62.87c0,15.16-12.28,27.44-27.43,27.44c-15.16,0-27.44-12.28-27.44-27.44
		c0-15.15,12.28-27.43,27.44-27.43C165.15,35.44,177.43,47.72,177.43,62.87z"/>
	<path fill-rule="evenodd" clip-rule="evenodd" fill="#FFFFFF" d="M143.37,58.19l2.51,7.16l11.64-0.78l2.87-6.38H143.37z
		 M163.72,57.39l-4.06,9.03c-0.21,0.45-0.64,0.77-1.15,0.8L146.81,68l0.67,1.93h12.75c1.49,0,2.71,1.21,2.71,2.71
		s-1.22,2.71-2.71,2.71c-1.5,0-2.71-1.21-2.71-2.71h-12.65c0,1.5-1.21,2.71-2.71,2.71c-1.49,0-2.71-1.21-2.71-2.71
		s1.22-2.71,2.71-2.71h2.45l-5.22-14.9h-3.1c-0.75,0-1.35-0.61-1.35-1.36c0-0.74,0.6-1.35,1.35-1.35h4.07
		c0.59,0,1.08,0.38,1.27,0.91l0,0l0.79,2.25h20.07c0.74,0,1.35,0.61,1.35,1.36C163.84,57.03,163.79,57.22,163.72,57.39z"/>
</g>
<g>
	<path fill="#EA6F1D" d="M211.92,163.36c0,15.16-12.28,27.44-27.44,27.44c-15.15,0-27.44-12.28-27.44-27.44
		c0-15.15,12.29-27.43,27.44-27.43C199.64,135.93,211.92,148.21,211.92,163.36z"/>
	<path fill-rule="evenodd" clip-rule="evenodd" fill="#FFFFFF" d="M177.86,158.68l2.5,7.16l11.65-0.78l2.87-6.38H177.86z
		 M198.21,157.88l-4.07,9.04c-0.2,0.44-0.63,0.76-1.14,0.79l-11.71,0.78l0.68,1.93h12.74c1.5,0,2.71,1.22,2.71,2.71
		c0,1.5-1.21,2.71-2.71,2.71c-1.49,0-2.7-1.21-2.7-2.71h-12.65c0,1.5-1.22,2.71-2.71,2.71c-1.5,0-2.71-1.21-2.71-2.71
		c0-1.49,1.21-2.71,2.71-2.71h2.45l-5.22-14.9h-3.1c-0.75,0-1.36-0.61-1.36-1.35c0-0.75,0.61-1.36,1.36-1.36h4.06
		c0.59,0,1.09,0.38,1.28,0.91l0,0l0.79,2.25h20.06c0.75,0,1.36,0.61,1.36,1.36C198.33,157.53,198.28,157.71,198.21,157.88z"/>
</g>
</svg>
