<svg version="1.1" xmlns="http://www.w3.org/2000/svg" xmlns:xlink="http://www.w3.org/1999/xlink" width="265px" height="257.5px" viewBox="0 0 265 257.5">
<linearGradient id="info_graphic_one_solution_1_" gradientUnits="userSpaceOnUse" x1="182.0186" y1="202.4805" x2="214.1924" y2="229.4776">
	<stop  offset="0.01" style="stop-color:#19161A"/>
	<stop  offset="0.61" style="stop-color:#FFFFFF"/>
</linearGradient>
<polygon opacity="0.149" fill="url(#info_graphic_one_solution_1_)" points="213,158.5 240,186.5 240,257.5 163,256.5 143,235.5 "/>
<linearGradient id="info_graphic_one_solution_2_" gradientUnits="userSpaceOnUse" x1="112.5977" y1="95.5005" x2="160.2908" y2="171.8256">
	<stop  offset="0.01" style="stop-color:#19161A"/>
	<stop  offset="0.61" style="stop-color:#FFFFFF"/>
</linearGradient>
<polygon opacity="0.149" fill="url(#info_graphic_one_solution_2_)" points="240,44.25 263,68.25 265,137.25 50,234.25 0,183.25 "/>
<linearGradient id="info_graphic_one_solution_3_" gradientUnits="userSpaceOnUse" x1="89.0967" y1="50.9238" x2="114.9545" y2="84.0203">
	<stop  offset="0.01" style="stop-color:#19161A"/>
	<stop  offset="0.61" style="stop-color:#FFFFFF"/>
</linearGradient>
<polygon opacity="0.149" fill="url(#info_graphic_one_solution_3_)" points="135,3 163,32 162,102 70,127 20,76 "/>
<g>
	
		<rect x="21.7" y="4.5" fill="#FFFFFF" stroke="#E48162" stroke-width="9" stroke-linecap="round" stroke-linejoin="round" stroke-miterlimit="10" width="109" height="67.5"/>
	<g>
		
			<line fill="none" stroke="#E48162" stroke-width="9" stroke-linecap="round" stroke-linejoin="round" stroke-miterlimit="10" x1="37" y1="74.85" x2="37" y2="86.34"/>
		
			<line fill="none" stroke="#E48162" stroke-width="9" stroke-linecap="round" stroke-linejoin="round" stroke-miterlimit="10" x1="117.61" y1="72.18" x2="117.61" y2="86.34"/>
	</g>
	<g>
		<path fill="#E48162" d="M72.54,31.18c6,0.95,8.06,4.65,8.37,5.27c0.08,0.12,0.15,0.24,0.23,0.37c-0.11-1.6-0.66-3.73-2.35-6.06
			c-2.94-4.04-5.55-5.53-5.85-5.69c-3.37,1-6.23,3.18-8.1,6.06C66.1,30.88,68.72,30.58,72.54,31.18z"/>
		<path fill="#E48162" d="M68.3,36.69c4.93-3.58,9.02-2.4,9.65-2.19c0.14,0.03,0.28,0.07,0.41,0.11c-1.21-1.06-3.1-2.18-5.94-2.63
			c-4.99-0.79-7.87,0.03-8.16,0.11c-1.13,2.07-1.77,4.45-1.77,6.97c0,1.05,0.11,2.06,0.32,3.05C63.53,41.04,65.16,38.97,68.3,36.69z
			"/>
		<path fill="#E48162" d="M79.44,30.29c3.59,4.93,2.4,9.03,2.19,9.64c-0.03,0.15-0.06,0.28-0.1,0.42c1.05-1.21,2.18-3.1,2.63-5.94
			c0.78-4.96-0.03-7.86-0.12-8.16c-2.07-1.13-4.44-1.77-6.97-1.77c-1.04,0-2.06,0.11-3.04,0.32C75.09,25.51,77.16,27.15,79.44,30.29
			z"/>
		<path fill="#E48162" d="M79.69,42.89c-0.12,0.08-0.24,0.16-0.38,0.23c1.61-0.11,3.74-0.65,6.06-2.34
			c4.04-2.94,5.52-5.55,5.69-5.85c-0.99-3.37-3.17-6.23-6.05-8.11c0.24,1.27,0.55,3.89-0.06,7.71
			C84.01,40.51,80.32,42.58,79.69,42.89z"/>
		<path fill="#E48162" d="M74.46,35.23c0.12-0.08,0.24-0.16,0.37-0.23c-1.6,0.11-3.73,0.65-6.06,2.34
			c-4.04,2.94-5.52,5.56-5.68,5.85c0.99,3.37,3.17,6.24,6.05,8.11c-0.24-1.27-0.55-3.89,0.06-7.71
			C70.14,37.6,73.84,35.54,74.46,35.23z"/>
		<path fill="#E48162" d="M91.34,36.01c-0.72,1.07-2.36,3.14-5.49,5.42c-2.83,2.06-5.39,2.54-7.17,2.54c-1.31,0-2.2-0.26-2.47-0.35
			c-0.15-0.03-0.29-0.06-0.43-0.1c1.22,1.05,3.11,2.18,5.95,2.62c4.96,0.79,7.86-0.02,8.16-0.11c1.13-2.07,1.77-4.45,1.77-6.97
			C91.66,38.02,91.55,37,91.34,36.01z"/>
		<path fill="#E48162" d="M81.6,46.94c-5.98-0.95-8.05-4.63-8.36-5.26c-0.08-0.12-0.16-0.25-0.23-0.38
			c0.11,1.61,0.66,3.74,2.35,6.06c2.93,4.04,5.55,5.52,5.85,5.69c3.37-1,6.23-3.18,8.1-6.06c-0.72,0.14-1.87,0.3-3.44,0.3
			C84.68,47.29,83.26,47.2,81.6,46.94z"/>
		<path fill="#E48162" d="M74.71,47.83c-3.58-4.91-2.41-9-2.19-9.64c0.02-0.14,0.06-0.28,0.1-0.42c-1.06,1.21-2.18,3.1-2.63,5.94
			c-0.78,4.97,0.03,7.87,0.12,8.17c2.07,1.12,4.44,1.76,6.96,1.76c1.05,0,2.07-0.11,3.05-0.32C79.05,52.61,76.98,50.97,74.71,47.83z
			"/>
	</g>
</g>
<g>
	<g>
		<path fill="#F19300" d="M108.58,115.63V92.09c0,0,4.07-28.53,16.3-28.53h22.64v36.68h92.371v16.3L108.58,115.63z"/>
		<circle fill="#F19300" cx="133.061" cy="112.92" r="9.96"/>
		<path fill="#F19300" d="M232.15,112.47c0,5.5-4.461,9.96-9.961,9.96s-9.959-4.46-9.959-9.96c0-5.51,4.459-9.97,9.959-9.97
			S232.15,106.96,232.15,112.47z"/>
		<path fill="#F19300" d="M212.23,112.47c0,5.5-4.461,9.96-9.961,9.96s-9.959-4.46-9.959-9.96c0-5.51,4.459-9.97,9.959-9.97
			S212.23,106.96,212.23,112.47z"/>
		
			<rect x="145.891" y="44.94" fill="#FFFFFF" stroke="#F19300" stroke-width="8" stroke-linecap="round" stroke-linejoin="round" stroke-miterlimit="10" width="94.08" height="58.25"/>
	</g>
	<g>
		<path fill="#F19300" d="M188.1,65.86c5.17,0.82,6.95,4.02,7.221,4.55c0.07,0.1,0.13,0.21,0.189,0.32
			c-0.09-1.39-0.56-3.22-2.02-5.23c-2.54-3.49-4.801-4.77-5.051-4.91c-2.91,0.86-5.379,2.74-6.989,5.23
			C182.54,65.6,184.8,65.34,188.1,65.86z"/>
		<path fill="#F19300" d="M184.43,70.62c4.26-3.09,7.791-2.07,8.33-1.89c0.12,0.02,0.24,0.05,0.36,0.09
			c-1.05-0.91-2.681-1.88-5.13-2.27c-4.311-0.68-6.801,0.03-7.04,0.1c-0.979,1.79-1.53,3.84-1.53,6.01c0,0.91,0.1,1.78,0.28,2.63
			C180.32,74.37,181.73,72.59,184.43,70.62z"/>
		<path fill="#F19300" d="M194.05,65.09c3.101,4.26,2.07,7.8,1.89,8.33c-0.02,0.12-0.06,0.24-0.09,0.36
			c0.91-1.05,1.881-2.68,2.271-5.13c0.68-4.28-0.021-6.78-0.101-7.05c-1.789-0.97-3.84-1.52-6.01-1.52c-0.91,0-1.779,0.09-2.63,0.27
			C190.3,60.97,192.08,62.38,194.05,65.09z"/>
		<path fill="#F19300" d="M194.27,75.97c-0.109,0.07-0.22,0.14-0.33,0.2c1.391-0.1,3.221-0.57,5.23-2.03
			c3.48-2.53,4.77-4.78,4.91-5.04c-0.859-2.91-2.74-5.38-5.23-7c0.221,1.09,0.48,3.35-0.039,6.65
			C197.99,73.92,194.811,75.7,194.27,75.97z"/>
		<path fill="#F19300" d="M189.75,69.36c0.1-0.08,0.21-0.14,0.32-0.2c-1.381,0.09-3.221,0.56-5.23,2.02
			c-3.49,2.54-4.77,4.79-4.9,5.05c0.86,2.91,2.74,5.38,5.221,6.99c-0.21-1.09-0.471-3.35,0.05-6.65
			C186.02,71.4,189.21,69.62,189.75,69.36z"/>
		<path fill="#F19300" d="M204.32,70.03c-0.62,0.92-2.041,2.71-4.74,4.68c-2.439,1.77-4.65,2.19-6.189,2.19
			c-1.131,0-1.9-0.22-2.131-0.3c-0.119-0.03-0.25-0.06-0.369-0.09c1.049,0.91,2.68,1.88,5.129,2.26c4.28,0.68,6.791-0.02,7.051-0.1
			c0.97-1.78,1.52-3.83,1.52-6.01C204.59,71.76,204.5,70.88,204.32,70.03z"/>
		<path fill="#F19300" d="M195.92,79.46c-5.17-0.81-6.949-4-7.22-4.54c-0.07-0.1-0.14-0.21-0.2-0.32c0.1,1.38,0.57,3.22,2.02,5.23
			c2.541,3.48,4.791,4.76,5.051,4.9c2.91-0.85,5.38-2.73,7-5.22c-0.62,0.12-1.62,0.26-2.971,0.26
			C198.57,79.77,197.34,79.69,195.92,79.46z"/>
		<path fill="#F19300" d="M189.96,80.24c-3.08-4.25-2.069-7.771-1.89-8.33c0.029-0.12,0.06-0.24,0.09-0.36
			c-0.91,1.05-1.881,2.68-2.27,5.13c-0.67,4.28,0.029,6.79,0.109,7.04c1.779,0.98,3.83,1.53,6.01,1.53c0.9,0,1.78-0.1,2.631-0.28
			C193.721,84.35,191.93,82.94,189.96,80.24z"/>
	</g>
</g>
<g>
	<g>
		
			<path fill="#FFFFFF" stroke="#EA6F1D" stroke-width="8" stroke-linecap="round" stroke-linejoin="round" stroke-miterlimit="10" d="
			M122.52,181.9c0,0-9.13-3.17-29.18-3.17c-20.04,0-30.06,5.43-30.06,5.43v-74.17c0,0,12.25-5.42,31.4-5.42
			c19.15,0,27.84,3.16,27.84,3.16V181.9L122.52,181.9z"/>
		
			<path fill="#FFFFFF" stroke="#EA6F1D" stroke-width="8" stroke-linecap="round" stroke-linejoin="round" stroke-miterlimit="10" d="
			M63.31,184.16c0,0-9.13-5.43-29.18-5.43c-20.04,0-30.06,3.17-30.06,3.17v-74.17c0,0,12.24-3.16,31.4-3.16
			c19.15,0,27.84,5.42,27.84,5.42V184.16z"/>
	</g>
	<g>
		<path fill="#EA6F1D" d="M90.59,134.4c5.17,0.819,6.95,4.01,7.22,4.55c0.07,0.1,0.13,0.21,0.19,0.319
			c-0.09-1.39-0.56-3.229-2.02-5.229c-2.54-3.49-4.79-4.771-5.05-4.91c-2.91,0.86-5.38,2.74-6.99,5.229
			C85.03,134.141,87.29,133.88,90.59,134.4z"/>
		<path fill="#EA6F1D" d="M86.93,139.16c4.25-3.1,7.78-2.08,8.32-1.891c0.12,0.021,0.24,0.051,0.36,0.09
			c-1.04-0.909-2.67-1.879-5.13-2.27c-4.3-0.68-6.79,0.02-7.04,0.1c-0.97,1.791-1.53,3.83-1.53,6.011c0,0.899,0.1,1.78,0.28,2.63
			C82.81,142.91,84.22,141.12,86.93,139.16z"/>
		<path fill="#EA6F1D" d="M96.54,133.63c3.1,4.261,2.07,7.79,1.89,8.32c-0.02,0.13-0.05,0.25-0.09,0.37
			c0.92-1.051,1.88-2.68,2.27-5.141c0.68-4.27-0.02-6.779-0.1-7.039c-1.78-0.971-3.83-1.531-6.01-1.531c-0.9,0-1.78,0.1-2.63,0.28
			C92.79,129.51,94.58,130.92,96.54,133.63z"/>
		<path fill="#EA6F1D" d="M96.76,144.51c-0.11,0.07-0.21,0.141-0.33,0.2c1.39-0.101,3.23-0.569,5.23-2.03
			c3.48-2.529,4.77-4.779,4.91-5.05c-0.86-2.899-2.74-5.37-5.22-6.989c0.21,1.09,0.47,3.35-0.05,6.649
			C100.48,142.45,97.3,144.24,96.76,144.51z"/>
		<path fill="#EA6F1D" d="M92.24,137.891c0.11-0.07,0.21-0.131,0.32-0.19c-1.38,0.09-3.22,0.56-5.22,2.02
			c-3.49,2.54-4.77,4.79-4.91,5.05c0.86,2.91,2.74,5.381,5.22,6.99c-0.21-1.09-0.47-3.35,0.05-6.65
			C88.52,139.939,91.71,138.16,92.24,137.891z"/>
		<path fill="#EA6F1D" d="M106.81,138.57c-0.62,0.92-2.03,2.71-4.74,4.67c-2.44,1.779-4.65,2.199-6.18,2.199
			c-1.14,0-1.9-0.229-2.14-0.31c-0.12-0.021-0.24-0.05-0.36-0.08c1.04,0.91,2.68,1.88,5.13,2.261c4.28,0.68,6.78-0.021,7.04-0.101
			c0.97-1.78,1.53-3.83,1.53-6.01C107.09,140.3,106.99,139.42,106.81,138.57z"/>
		<path fill="#EA6F1D" d="M98.41,148c-5.17-0.82-6.95-4-7.22-4.54c-0.07-0.101-0.13-0.21-0.2-0.319c0.1,1.379,0.57,3.219,2.03,5.219
			c2.53,3.49,4.79,4.771,5.05,4.91c2.91-0.859,5.37-2.739,6.99-5.22c-0.62,0.12-1.62,0.25-2.97,0.25
			C101.07,148.3,99.83,148.22,98.41,148z"/>
		<path fill="#EA6F1D" d="M92.46,148.77c-3.09-4.239-2.08-7.76-1.89-8.319c0.02-0.12,0.05-0.24,0.08-0.36
			c-0.91,1.04-1.88,2.68-2.26,5.131c-0.68,4.279,0.02,6.789,0.1,7.039c1.78,0.971,3.83,1.53,6.01,1.53c0.9,0,1.78-0.101,2.63-0.28
			C96.21,152.891,94.42,151.48,92.46,148.77z"/>
	</g>
</g>
<g>
	
		<path fill="#FFFFFF" stroke="#E48162" stroke-width="8" stroke-linecap="round" stroke-linejoin="round" stroke-miterlimit="10" d="
		M215.439,220.48c0,9.899-8.02,17.93-17.93,17.93h-38.199c-9.91,0-17.94-8.03-17.94-17.93v-46c0-9.91,8.03-17.931,17.94-17.931
		h38.199c9.91,0,17.93,8.021,17.93,17.931V220.48z"/>
	
		<rect x="158.92" y="131.6" fill="#FFFFFF" stroke="#E48162" stroke-width="8" stroke-linecap="round" stroke-linejoin="round" stroke-miterlimit="10" width="38.98" height="14.03"/>
	
		<rect x="169.83" y="146.41" fill="#FFFFFF" stroke="#E48162" stroke-width="8" stroke-linecap="round" stroke-linejoin="round" stroke-miterlimit="10" width="17.16" height="10.14"/>
	<g>
		<path fill="#E48162" d="M175.38,190.25c5.17,0.82,6.95,4.02,7.21,4.55c0.08,0.101,0.141,0.21,0.2,0.32
			c-0.101-1.38-0.56-3.22-2.021-5.229c-2.539-3.49-4.799-4.771-5.049-4.91c-2.91,0.859-5.381,2.74-6.99,5.229
			C169.82,190,172.08,189.73,175.38,190.25z"/>
		<path fill="#E48162" d="M171.71,195.01c4.261-3.09,7.79-2.07,8.33-1.89c0.12,0.03,0.239,0.06,0.36,0.09
			c-1.051-0.91-2.68-1.88-5.131-2.271c-4.31-0.68-6.799,0.03-7.039,0.101c-0.98,1.79-1.53,3.84-1.53,6.01c0,0.91,0.1,1.79,0.28,2.64
			C167.59,198.76,169.01,196.98,171.71,195.01z"/>
		<path fill="#E48162" d="M181.33,189.48c3.1,4.26,2.07,7.8,1.891,8.33c-0.031,0.119-0.061,0.239-0.091,0.359
			c0.91-1.05,1.88-2.68,2.271-5.13c0.67-4.28-0.021-6.78-0.101-7.05c-1.79-0.971-3.84-1.521-6.01-1.521
			c-0.91,0-1.79,0.091-2.63,0.28C177.58,185.359,179.359,186.78,181.33,189.48z"/>
		<path fill="#E48162" d="M181.55,200.359c-0.11,0.07-0.22,0.141-0.329,0.201c1.379-0.091,3.219-0.561,5.229-2.021
			c3.479-2.54,4.76-4.79,4.909-5.05c-0.859-2.91-2.739-5.381-5.229-7c0.21,1.09,0.479,3.359-0.05,6.66
			C185.27,198.311,182.09,200.09,181.55,200.359z"/>
		<path fill="#E48162" d="M177.029,193.75c0.101-0.07,0.211-0.141,0.32-0.2c-1.379,0.091-3.22,0.56-5.229,2.021
			c-3.49,2.539-4.771,4.8-4.91,5.05c0.86,2.91,2.74,5.38,5.229,6.989c-0.209-1.079-0.479-3.35,0.051-6.649
			C173.3,195.79,176.49,194.01,177.029,193.75z"/>
		<path fill="#E48162" d="M191.6,194.43c-0.619,0.92-2.039,2.7-4.74,4.67c-2.449,1.78-4.649,2.19-6.189,2.19
			c-1.13,0-1.9-0.22-2.13-0.3c-0.12-0.03-0.25-0.061-0.37-0.09c1.051,0.91,2.68,1.88,5.13,2.27c4.28,0.67,6.79-0.029,7.05-0.1
			c0.971-1.79,1.521-3.84,1.521-6.021C191.87,196.15,191.77,195.27,191.6,194.43z"/>
		<path fill="#E48162" d="M183.2,203.85c-5.171-0.81-6.95-4-7.22-4.539c-0.07-0.101-0.141-0.211-0.201-0.32
			c0.101,1.38,0.57,3.22,2.021,5.229c2.54,3.48,4.79,4.761,5.05,4.9c2.91-0.851,5.381-2.729,7-5.22
			c-0.619,0.119-1.619,0.26-2.97,0.26C185.85,204.16,184.62,204.08,183.2,203.85z"/>
		<path fill="#E48162" d="M177.24,204.63c-3.08-4.25-2.08-7.771-1.891-8.319c0.03-0.131,0.061-0.25,0.09-0.371
			c-0.91,1.051-1.879,2.681-2.27,5.131c-0.67,4.289,0.03,6.789,0.1,7.05c1.791,0.97,3.84,1.521,6.021,1.521
			c0.899,0,1.78-0.101,2.63-0.281C180.99,208.75,179.21,207.33,177.24,204.63z"/>
	</g>
</g>
</svg>
