<svg version="1.1" xmlns="http://www.w3.org/2000/svg" xmlns:xlink="http://www.w3.org/1999/xlink" width="486px" height="458px" viewBox="0 0 486 458">
<linearGradient id="main_graphic_brands_SVGID_1_" gradientUnits="userSpaceOnUse" x1="366.1162" y1="200.8618" x2="423.5695" y2="249.0709">
	<stop  offset="1.000000e-02" style="stop-color:#D3C6A2"/>
	<stop  offset="0.99" style="stop-color:#E7DAAC"/>
</linearGradient>
<polygon fill="url(#main_graphic_brands_SVGID_1_)" points="390,129 486,224 486,308 395,317 324,247 "/>
<linearGradient id="main_graphic_brands_SVGID_2_" gradientUnits="userSpaceOnUse" x1="60.4619" y1="193.584" x2="104.6245" y2="242.6315">
	<stop  offset="1.000000e-02" style="stop-color:#D3C6A2"/>
	<stop  offset="0.99" style="stop-color:#E7DAAC"/>
</linearGradient>
<polygon fill="url(#main_graphic_brands_SVGID_2_)" points="117,160 181,223 182,282 48,279 1,232 "/>
<linearGradient id="main_graphic_brands_SVGID_3_" gradientUnits="userSpaceOnUse" x1="219.0464" y1="48.9585" x2="273.246" y2="109.1532">
	<stop  offset="1.000000e-02" style="stop-color:#D3C6A2"/>
	<stop  offset="0.99" style="stop-color:#E7DAAC"/>
</linearGradient>
<polygon fill="url(#main_graphic_brands_SVGID_3_)" points="288,6 367,85 368,157 204,154 145,95 "/>
<linearGradient id="main_graphic_brands_SVGID_4_" gradientUnits="userSpaceOnUse" x1="225.0371" y1="339.9707" x2="263.2081" y2="388.8274">
	<stop  offset="1.000000e-02" style="stop-color:#D3C6A2"/>
	<stop  offset="0.99" style="stop-color:#E7DAAC"/>
</linearGradient>
<polygon fill="url(#main_graphic_brands_SVGID_4_)" points="249,291 338,380 339,458 249,458 184,392 "/>
<path opacity="0.502" fill="none" stroke="#FFFFFF" stroke-width="12" stroke-linejoin="round" stroke-miterlimit="3" d="M371,198
	c0,85-69,153-153,153c-85,0-153-68-153-153c0-84,68-152,153-152C302,46,371,114,371,198z"/>
<path opacity="0.302" fill="none" stroke="#FFFFFF" stroke-width="7" stroke-linejoin="round" stroke-miterlimit="3" d="M387,198
	c0,94-75,170-169,170S48,292,48,198c0-93,76-169,170-169S387,105,387,198z"/>
<g id="Group_x5F_10">
	<path fill="#F19300" d="M364,304c0,15-12,27-28,27c-15,0-27-12-27-27c0-16,12-28,27-28C352,276,364,288,364,304z"/>
	<path fill-rule="evenodd" clip-rule="evenodd" fill="#FFFFFF" d="M350,298L350,298l-4,9c0,1-1,1-1,1l-12,1l1,2h13c1,0,2,1,2,3
		c0,1-1,2-2,2c-2,0-3-1-3-2h-13c0,1-1,2-3,2c-1,0-2-1-2-2c0-2,1-3,2-3h3l-5-15h-3c-1,0-2-1-2-2c0,0,1-1,2-1h4c0,0,1,0,1,1l0,0l1,2
		h20C350,296,350,297,350,298L350,298L350,298z M330,299l2,7l12-1l3-6H330z"/>
</g>
<g>
	
		<path fill="#FFFFFF" stroke="#460200" stroke-width="10.0028" stroke-linecap="round" stroke-linejoin="round" stroke-miterlimit="10" d="
		M286.1,94.5c0,0-10.6-3.7-33.8-3.7c-23.2,0-34.9,6.3-34.9,6.3v-86c0,0,14.2-6.3,36.4-6.3c22.2,0,32.3,3.7,32.3,3.7V94.5z"/>
	
		<path fill="#FFFFFF" stroke="#460200" stroke-width="10.0028" stroke-linecap="round" stroke-linejoin="round" stroke-miterlimit="10" d="
		M217.5,97.1c0,0-10.6-6.3-33.8-6.3c-23.2,0-34.9,3.7-34.9,3.7v-86c0,0,14.2-3.7,36.4-3.7c22.2,0,32.3,6.3,32.3,6.3V97.1z"/>
</g>
<g>
	<path fill="#F19300" d="M122.5,98.5c0,16.3-13.2,29.4-29.5,29.4c-16.3,0-29.4-13.2-29.4-29.4c0-16.3,13.2-29.4,29.4-29.4
		C109.3,69.1,122.5,82.2,122.5,98.5z"/>
	<path fill-rule="evenodd" clip-rule="evenodd" fill="#FFFFFF" d="M98.2,89.8c-1.8,0-3.2,0.6-4.5,1.9L93,92.6l-0.7-0.9
		c-1.3-1.3-2.7-2-4.5-2c-1.8,0-3.5,0.7-4.7,2c-1.3,1.3-2,2.9-2,4.7c0,1.8,0.7,3.5,2,4.7l8.9,9c0.3,0.3,0.7,0.4,1,0.4
		c0.4,0,0.8-0.2,1.1-0.4l8.9-9c1.3-1.3,2-2.9,2-4.7c0-1.8-0.7-3.5-2-4.7C101.7,90.5,100,89.8,98.2,89.8z"/>
</g>
<g>
	<path fill="#E48162" d="M366.9,88.5c0,15.7-12.7,28.4-28.4,28.4c-15.7,0-28.4-12.7-28.4-28.4c0-15.7,12.7-28.4,28.4-28.4
		C354.2,60.1,366.9,72.8,366.9,88.5z"/>
	<path fill-rule="evenodd" clip-rule="evenodd" fill="#FFFFFF" d="M349.5,85.9l-5.8,4.2l2.2,6.8c0,0.1,0,0.2,0,0.3
		c0,0.6-0.5,1.1-1.1,1.1c-0.2,0-0.5-0.1-0.6-0.2l-5.8-4.2l-5.8,4.2c-0.2,0.1-0.4,0.2-0.6,0.2c-0.6,0-1.1-0.5-1.1-1.1
		c0-0.1,0-0.2,0-0.3l2.2-6.8l-5.8-4.2c-0.3-0.2-0.4-0.5-0.4-0.9c0-0.6,0.5-1.1,1.1-1.1h7.1l2.2-6.8c0.1-0.4,0.5-0.8,1-0.8
		c0.5,0,0.9,0.3,1,0.8l2.2,6.8h7.1c0.6,0,1.1,0.5,1.1,1.1C350,85.4,349.8,85.7,349.5,85.9z"/>
</g>
<path fill="#FFFFFF" d="M285.2,198.2c0,37.1-30.1,67.2-67.2,67.2c-37.1,0-67.2-30.1-67.2-67.2c0-37.1,30.1-67.2,67.2-67.2
	C255.1,131,285.2,161.1,285.2,198.2z"/>
<rect x="237.8" y="166.1" fill="none" width="34.8" height="81.5"/>
<text transform="matrix(1 0 0 1 241.8872 215.6035)" fill="#EB701E" font-family="'MyriadPro-Regular'" font-size="52">$</text>
<rect x="168.3" y="161.4" fill="none" width="34.8" height="81.5"/>
<text transform="matrix(1 0 0 1 172.3774 210.8638)" fill="#EB701E" font-family="'MyriadPro-Regular'" font-size="52">¥</text>
<rect x="204.7" y="140.8" fill="none" width="34.8" height="81.5"/>
<text transform="matrix(1 0 0 1 208.7124 190.3335)" fill="#EB701E" font-family="'MyriadPro-Regular'" font-size="52">£</text>
<rect x="201.5" y="192.9" fill="none" width="34.8" height="81.5"/>
<text transform="matrix(1 0 0 1 205.5571 242.4531)" fill="#EB701E" font-family="'MyriadPro-Regular'" font-size="52">€</text>
<g>
	
		<rect x="4.9" y="161.9" fill="#FFFFFF" stroke="#460200" stroke-width="10.0028" stroke-linecap="round" stroke-linejoin="round" stroke-miterlimit="10" width="107.2" height="66.4"/>
	<g>
		
			<line fill="none" stroke="#460200" stroke-width="10.0028" stroke-linecap="round" stroke-linejoin="round" stroke-miterlimit="10" x1="19.9" y1="231" x2="19.9" y2="242.3"/>
		
			<line fill="none" stroke="#460200" stroke-width="10.0028" stroke-linecap="round" stroke-linejoin="round" stroke-miterlimit="10" x1="99.2" y1="228.4" x2="99.2" y2="242.3"/>
	</g>
</g>
<g>
	
		<path fill="#FFFFFF" stroke="#460200" stroke-width="10.0028" stroke-linecap="round" stroke-linejoin="round" stroke-miterlimit="10" d="
		M406.8,231.3c0,11.2-9.1,20.2-20.2,20.2h-43.1c-11.2,0-20.2-9.1-20.2-20.2v-51.9c0-11.2,9.1-20.2,20.2-20.2h43.1
		c11.2,0,20.2,9.1,20.2,20.2V231.3z"/>
	
		<rect x="343" y="131" fill="#FFFFFF" stroke="#460200" stroke-width="10.0028" stroke-linecap="round" stroke-linejoin="round" stroke-miterlimit="10" width="44" height="15.8"/>
	
		<rect x="355.3" y="147.7" fill="#FFFFFF" stroke="#460200" stroke-width="10.0028" stroke-linecap="round" stroke-linejoin="round" stroke-miterlimit="10" width="19.4" height="11.4"/>
</g>
<g>
	<path fill="#EA6F1D" d="M120.7,300.5c0,14.7-12,26.7-26.7,26.7c-14.7,0-26.7-11.9-26.7-26.7c0-14.7,12-26.7,26.7-26.7
		C108.7,273.8,120.7,285.8,120.7,300.5z"/>
	<path fill-rule="evenodd" clip-rule="evenodd" fill="#FFFFFF" d="M87.6,303.3l-3.8,3.8c-1,1.1-1,2.8,0,3.8c1,1,2.7,1,3.8,0l3.8-3.8
		l0.1-0.1l3.2-3.2c0.5,1.8,0,3.8-1.4,5.2l-3.8,3.8c-2.1,2.1-5.5,2.1-7.6,0c-2.1-2.1-2.1-5.5,0-7.6l3.8-3.8c1.4-1.4,3.4-1.9,5.2-1.4
		L87.6,303.3L87.6,303.3z M90.4,306.2c-0.2,0.2-0.6,0.4-1,0.4c-0.8,0-1.4-0.6-1.4-1.4c0-0.4,0.2-0.8,0.4-1l9-9
		c0.2-0.3,0.6-0.4,1-0.4c0.8,0,1.4,0.6,1.4,1.4c0,0.4-0.1,0.7-0.4,1L90.4,306.2z M106.1,296.2l-3.8,3.8c-1.4,1.4-3.4,1.9-5.2,1.4
		l3.2-3.2c0,0,0.1-0.1,0.1-0.1l3.8-3.8c1.1-1.1,1.1-2.8,0-3.8c-1-1-2.8-1-3.8,0l-3.8,3.8l-3.3,3.3c-0.5-1.8,0-3.8,1.4-5.2l3.8-3.8
		c2.1-2.1,5.5-2.1,7.6,0C108.2,290.7,108.2,294.1,106.1,296.2z"/>
</g>
<g>
	<path fill="#460200" d="M251.9,384.7c0,4.1-3.4,7.5-7.5,7.5h-52.9c-4.1,0-7.5-3.4-7.5-7.5v-85.9c0-4.1,3.4-7.5,7.5-7.5h52.9
		c4.1,0,7.5,3.4,7.5,7.5V384.7z"/>
	<path fill="#FFFFFF" d="M244.6,373.6c0,1.8-1.4,3.2-3.2,3.2h-46.8c-1.8,0-3.2-1.5-3.2-3.2v-72.2c0-1.8,1.5-3.2,3.2-3.2h46.8
		c1.8,0,3.2,1.4,3.2,3.2V373.6z"/>
	<path fill="#FFFFFF" d="M225.9,384c0,1-0.8,1.8-1.8,1.8h-12.3c-1,0-1.8-0.8-1.8-1.8c0-1,0.8-1.8,1.8-1.8h12.3
		C225.1,382.2,225.9,383,225.9,384z"/>
</g>
</svg>
