<svg version="1.1" xmlns="http://www.w3.org/2000/svg" xmlns:xlink="http://www.w3.org/1999/xlink" width="546px" height="377px" viewBox="0 0 546 377">
<linearGradient id="main_graphics_magazines_SVGID_1_" gradientUnits="userSpaceOnUse" x1="115.5103" y1="186.5405" x2="200.4898" y2="280.9199">
	<stop  offset="1.000000e-02" style="stop-color:#D3C6A2"/>
	<stop  offset="0.99" style="stop-color:#E7DAAC"/>
</linearGradient>
<polygon fill="url(#main_graphics_magazines_SVGID_1_)" points="224,120 347,243 349,355 92,351 1,260 "/>
<linearGradient id="main_graphics_magazines_SVGID_2_" gradientUnits="userSpaceOnUse" x1="377.3682" y1="184.4946" x2="434.6247" y2="257.7796">
	<stop  offset="1.000000e-02" style="stop-color:#D3C6A2"/>
	<stop  offset="0.99" style="stop-color:#E7DAAC"/>
</linearGradient>
<polygon fill="url(#main_graphics_magazines_SVGID_2_)" points="413,112 546,244 546,359 413,359 315,261 "/>
<path opacity="0.502" fill="none" stroke="#FFFFFF" stroke-width="14" stroke-linejoin="round" stroke-miterlimit="3" d="M381,188
	c0,89-72,162-161,162c-90,0-162-73-162-162S130,26,220,26C309,26,381,99,381,188z"/>
<path opacity="0.302" fill="none" stroke="#FFFFFF" stroke-width="6" stroke-linejoin="round" stroke-miterlimit="3" d="M399,188
	c0,99-80,179-179,179S40,287,40,188S121,9,220,9S399,89,399,188z"/>
<g>
	<path fill="#E48162" d="M130,71c0,16-13,29-29,29c-16,0-29-13-29-29c0-16,13-29,29-29C117,42,130,55,130,71z"/>
	<path fill-rule="evenodd" clip-rule="evenodd" fill="#FFFFFF" d="M101,77.2c-3,0-5.4-2.4-5.4-5.4s2.4-5.3,5.4-5.3s5.4,2.4,5.4,5.3
		S104,77.2,101,77.2z M101,63.9c-4.4,0-8,3.6-8,8c0,4.4,3.6,8,8,8c4.4,0,8-3.6,8-8C109,67.4,105.4,63.9,101,63.9z M113.9,82.6H88.1
		c-0.7,0-1.3-0.6-1.3-1.3V63.4c0-0.7,0.6-1.3,1.3-1.3h5.7l2.1-2.1c0.2-0.3,0.6-0.5,1.1-0.5h8c0.4,0,0.7,0.1,0.9,0.4l2.3,2.3h5.7
		c0.7,0,1.3,0.6,1.3,1.3v17.9C115.3,82,114.7,82.6,113.9,82.6z"/>
</g>
<g>
	<path fill="#F19300" d="M204.8,28.1c0,15.4-12.5,27.8-27.8,27.8c-15.4,0-27.8-12.5-27.8-27.8c0-15.4,12.4-27.8,27.8-27.8
		C192.4,0.3,204.8,12.8,204.8,28.1z"/>
	<path fill-rule="evenodd" clip-rule="evenodd" fill="#FFFFFF" d="M181.9,19.9c-1.7,0-3,0.6-4.2,1.8l-0.7,0.9l-0.7-0.8
		c-1.2-1.2-2.6-1.9-4.2-1.9c-1.7,0-3.3,0.6-4.5,1.8c-1.2,1.2-1.9,2.8-1.9,4.5c0,1.7,0.7,3.3,1.9,4.5l8.4,8.5c0.3,0.3,0.6,0.4,1,0.4
		c0.4,0,0.7-0.2,1-0.4l8.4-8.4c1.2-1.2,1.9-2.8,1.9-4.5c0-1.7-0.7-3.3-1.9-4.5C185.2,20.6,183.6,19.9,181.9,19.9z"/>
</g>
<g>
	<path fill="#EA6F1D" d="M288,28.1c0,15.6-12.6,28.2-28.2,28.2s-28.2-12.6-28.2-28.2s12.6-28.2,28.2-28.2S288,12.5,288,28.1z"/>
	<path fill-rule="evenodd" clip-rule="evenodd" fill="#FFFFFF" d="M253,31l-4,4c-1.1,1.1-1.1,2.9,0,4c1.1,1.1,2.9,1.1,4,0l4-4
		l0.1-0.1l3.4-3.4c0.5,1.9,0,4-1.5,5.5l-4,4c-2.2,2.2-5.8,2.2-8,0c-2.2-2.2-2.2-5.8,0-8l4-4c1.5-1.5,3.6-2,5.5-1.5L253,31L253,31z
		 M256,34.2c-0.3,0.3-0.6,0.4-1,0.4c-0.8,0-1.4-0.6-1.4-1.5c0-0.4,0.2-0.8,0.5-1l9.5-9.6c0.3-0.3,0.6-0.5,1.1-0.5
		c0.8,0,1.4,0.6,1.4,1.4c0,0.4-0.2,0.8-0.4,1L256,34.2z M272.5,23.6l-4,4c-1.5,1.5-3.6,2-5.5,1.5l3.4-3.3c0-0.1,0.1-0.1,0.1-0.1l4-4
		c1.1-1.1,1.1-2.9,0-4s-2.9-1.1-4,0l-4,4l-3.5,3.5c-0.5-1.9,0-4,1.5-5.5l4-4c2.2-2.2,5.8-2.2,8,0C274.8,17.8,274.8,21.4,272.5,23.6z
		"/>
</g>
<g>
	<path fill="#E48162" d="M366,71.5c0,15.7-12.8,28.5-28.5,28.5S309,87.2,309,71.5c0-15.7,12.8-28.5,28.5-28.5S366,55.8,366,71.5z"/>
	<path fill-rule="evenodd" clip-rule="evenodd" fill="#FFFFFF" d="M347.4,77.7c0,1.2-1.8,2.1-4,2.1s-3.9-1-3.9-2.1s1.8-2.2,3.9-2.2
		c0.7,0,1.3,0.1,1.8,0.2v-2v-6.9L333,69.5v11.5c0,1.2-1.8,2.1-4,2.1c-2.2,0-4-1-4-2.1s1.8-2.1,4-2.1c0.7,0,1.3,0.1,1.8,0.2v-1.7
		V64.4c0-0.8,1.1-1.1,1.1-1.1l14.4-3.2c0.6,0,1.1,0.5,1.1,1.1v15.4v0.7V77.7z"/>
</g>
<g>
	<path fill="#EA6F1D" d="M129.1,302.5c0,15.8-12.8,28.6-28.6,28.6c-15.8,0-28.6-12.8-28.6-28.6c0-15.8,12.8-28.6,28.6-28.6
		C116.3,273.9,129.1,286.7,129.1,302.5z"/>
	<path fill-rule="evenodd" clip-rule="evenodd" fill="#FFFFFF" d="M104.9,303.9l-7.3,4.6l0,0l-0.2,0.1l0,0l-0.2,0.1l0,0l-0.1,0l0,0
		l-0.1,0l0,0h-0.1h0l-0.1,0c-0.8,0-1.4-0.6-1.4-1.4v-9.2c0-0.8,0.6-1.4,1.4-1.4c0.3,0,0.6,0.1,0.8,0.2l7.3,4.5
		c0.4,0.2,0.7,0.7,0.7,1.2S105.3,303.6,104.9,303.9z M100.5,290.7c-6.6,0-12,5.4-12,12c0,6.6,5.4,12,12,12c6.6,0,12-5.4,12-12
		C112.5,296.1,107.1,290.7,100.5,290.7z M100.5,317.4c-8.1,0-14.7-6.6-14.7-14.7c0-8.1,6.6-14.7,14.7-14.7s14.7,6.6,14.7,14.7
		C115.2,310.8,108.6,317.4,100.5,317.4z"/>
</g>
<g>
	<path fill="#F19300" d="M207.7,348c0,16.1-13.1,29.2-29.2,29.2c-16.1,0-29.2-13.1-29.2-29.2c0-16.1,13.1-29.2,29.2-29.2
		C194.6,318.8,207.7,331.9,207.7,348z"/>
	<path fill-rule="evenodd" clip-rule="evenodd" fill="#FFFFFF" d="M178.5,347.1c-0.7,0-1.3,0.6-1.3,1.4c0,0.7,0.6,1.4,1.3,1.4
		c0.8,0,1.4-0.6,1.4-1.4C179.8,347.7,179.2,347.1,178.5,347.1z M175.4,351.1l-4-9.9l10.3,4l4,10.3L175.4,351.1z M178.5,336.8
		c-6.4,0-11.7,5.2-11.7,11.7s5.2,11.7,11.7,11.7c6.5,0,11.7-5.2,11.7-11.7S184.9,336.8,178.5,336.8z M178.5,362.8
		c-7.9,0-14.4-6.4-14.4-14.4s6.4-14.4,14.4-14.4c7.9,0,14.4,6.4,14.4,14.4S186.4,362.8,178.5,362.8z"/>
</g>
<g>
	<path fill="#E48162" d="M288.3,349c0,15.3-12.5,27.8-27.8,27.8c-15.4,0-27.8-12.5-27.8-27.8c0-15.4,12.5-27.8,27.8-27.8
		C275.9,321.2,288.3,333.6,288.3,349z"/>
	<path fill-rule="evenodd" clip-rule="evenodd" fill="#FFFFFF" d="M271.3,346.5l-5.6,4.1l2.2,6.7c0,0.1,0,0.2,0,0.3c0,0.6-0.5,1-1,1
		c-0.2,0-0.4-0.1-0.6-0.2l-5.7-4.1l-5.7,4.1c-0.2,0.1-0.4,0.2-0.6,0.2c-0.6,0-1-0.5-1-1c0-0.1,0-0.2,0.1-0.3l2.2-6.7l-5.6-4.1
		c-0.3-0.2-0.4-0.5-0.4-0.8c0-0.6,0.5-1.1,1-1.1h7l2.2-6.6c0.1-0.4,0.5-0.7,1-0.7c0.5,0,0.9,0.3,1,0.7l2.2,6.6h7c0.6,0,1,0.5,1,1.1
		C271.7,346,271.6,346.3,271.3,346.5z"/>
</g>
<g>
	<path fill="#F19300" d="M365.7,310.5c0,16.1-13.1,29.2-29.2,29.2s-29.2-13.1-29.2-29.2c0-16.1,13.1-29.2,29.2-29.2
		S365.7,294.4,365.7,310.5z"/>
	<path fill-rule="evenodd" clip-rule="evenodd" fill="#FFFFFF" d="M329.4,305.5l2.7,7.6l12.4-0.8l3.1-6.8H329.4z M351.1,304.7
		l-4.3,9.6c-0.2,0.5-0.7,0.8-1.2,0.9l-12.5,0.8l0.7,2.1h13.6c1.6,0,2.9,1.3,2.9,2.9c0,1.6-1.3,2.9-2.9,2.9c-1.6,0-2.9-1.3-2.9-2.9
		H331c0,1.6-1.3,2.9-2.9,2.9c-1.6,0-2.9-1.3-2.9-2.9c0-1.6,1.3-2.9,2.9-2.9h2.6l-5.6-15.9h-3.3c-0.8,0-1.5-0.7-1.5-1.4
		c0-0.8,0.6-1.5,1.5-1.5h4.3c0.6,0,1.2,0.4,1.3,1l0.8,2.4h21.4c0.8,0,1.4,0.6,1.4,1.4C351.2,304.3,351.2,304.5,351.1,304.7z"/>
</g>
<g>
	
		<path fill="#FFFFFF" stroke="#460200" stroke-width="8.0022" stroke-linecap="round" stroke-linejoin="round" stroke-miterlimit="10" d="
		M221.6,258.8c0,0-16.8-5.8-53.5-5.8c-36.8,0-55.1,9.9-55.1,9.9V127c0,0,22.5-10,57.6-10s51,5.8,51,5.8V258.8z"/>
	
		<path fill="#FFFFFF" stroke="#460200" stroke-width="8.0022" stroke-linecap="round" stroke-linejoin="round" stroke-miterlimit="10" d="
		M113,262.9c0,0-16.7-9.9-53.5-9.9c-36.8,0-55.1,5.8-55.1,5.8V122.9c0,0,22.5-5.8,57.6-5.8s51,10,51,10V262.9z"/>
</g>
<g>
	<path fill="#460200" d="M418.6,254.4c0,6.4-5.2,11.6-11.6,11.6h-82c-6.4,0-11.6-5.2-11.6-11.6V121.3c0-6.4,5.2-11.6,11.6-11.6h82
		c6.4,0,11.6,5.2,11.6,11.6V254.4z"/>
	<path fill="#FFFFFF" d="M407.3,237.2c0,2.8-2.2,5-5,5h-72.5c-2.8,0-5-2.2-5-5v-112c0-2.8,2.2-5,5-5h72.5c2.8,0,5,2.2,5,5V237.2z"/>
	<path fill="#FFFFFF" d="M378.4,253.4c0,1.5-1.2,2.8-2.8,2.8h-19.1c-1.5,0-2.8-1.2-2.8-2.8c0-1.5,1.2-2.8,2.8-2.8h19.1
		C377.1,250.6,378.4,251.8,378.4,253.4z"/>
</g>
</svg>
