<svg version="1.1" xmlns="http://www.w3.org/2000/svg" xmlns:xlink="http://www.w3.org/1999/xlink" width="225.328px" height="54.223px" viewBox="0 0 225.328 54.223">
<path fill="#F26822" d="M36.252,26.086L36.252,26.086c-0.009-0.09-0.424-7.954-5.458-16.053c-2.063-3.335-4.928-6.688-8.864-9.539
	C23.613,0.164,25.365,0,27.148,0c4.617,0,8.968,1.168,12.768,3.22c0.478,2.273,0.686,4.461,0.689,6.541
	c0.003,6.434-1.98,11.863-3.971,15.688C36.516,25.676,36.373,25.869,36.252,26.086"/>
<path fill="#F26822" d="M32.849,19.927L32.849,19.927c-0.07-0.06-5.924-5.325-15.212-7.491c-3.815-0.901-8.213-1.247-13.006-0.48
	c0.954-1.423,2.072-2.777,3.333-4.039c3.267-3.266,7.17-5.516,11.304-6.749c1.949,1.269,3.645,2.669,5.114,4.136
	c4.551,4.548,6.99,9.789,8.288,13.899C32.749,19.447,32.778,19.688,32.849,19.927"/>
<path fill="#F26822" d="M26.089,17.974L26.089,17.974c-0.092,0.011-7.955,0.425-16.054,5.457c-3.336,2.067-6.692,4.932-9.537,8.863
	C0.162,30.609,0,28.861,0,27.078c0-4.621,1.171-8.968,3.22-12.768c2.276-0.478,4.46-0.687,6.539-0.689
	c6.435,0,11.867,1.979,15.691,3.968C25.68,17.708,25.871,17.856,26.089,17.974"/>
<path fill="#F26822" d="M19.924,21.377L19.924,21.377c-0.053,0.07-5.319,5.926-7.49,15.211c-0.901,3.816-1.245,8.213-0.479,13.008
	c-1.425-0.955-2.779-2.074-4.037-3.337c-3.271-3.266-5.52-7.169-6.753-11.308c1.269-1.943,2.67-3.637,4.136-5.109
	c4.554-4.551,9.792-6.99,13.898-8.288C19.448,21.478,19.691,21.447,19.924,21.377"/>
<path fill="#F26822" d="M17.976,28.137L17.976,28.137c0.009,0.09,0.424,7.954,5.458,16.052c2.063,3.335,4.928,6.69,8.861,9.54
	c-1.681,0.33-3.432,0.494-5.216,0.494c-4.619,0-8.97-1.169-12.768-3.219c-0.481-2.273-0.687-4.463-0.689-6.541
	c0-6.43,1.978-11.863,3.968-15.688C17.707,28.549,17.858,28.355,17.976,28.137"/>
<path fill="#F26822" d="M21.379,34.295L21.379,34.295c0.067,0.059,5.923,5.326,15.21,7.494c3.816,0.898,8.217,1.245,13.01,0.477
	c-0.96,1.426-2.079,2.779-3.336,4.039c-3.268,3.271-7.171,5.516-11.31,6.754c-1.946-1.273-3.639-2.674-5.108-4.139
	c-4.552-4.549-6.992-9.788-8.29-13.896C21.479,34.775,21.446,34.533,21.379,34.295"/>
<path fill="#F26822" d="M28.138,36.248L28.138,36.248c0.09-0.006,7.951-0.424,16.052-5.457c3.336-2.064,6.692-4.926,9.542-8.862
	c0.327,1.686,0.492,3.433,0.492,5.215c0,4.622-1.169,8.974-3.218,12.769c-2.275,0.476-4.459,0.688-6.537,0.688
	c-6.439,0-11.867-1.975-15.692-3.964C28.547,36.516,28.357,36.369,28.138,36.248"/>
<path fill="#F26822" d="M34.299,32.847L34.299,32.847c0.057-0.067,5.324-5.923,7.495-15.209c0.895-3.817,1.243-8.215,0.473-13.01
	c1.426,0.956,2.78,2.075,4.04,3.336c3.269,3.269,5.521,7.17,6.755,11.306c-1.272,1.949-2.671,3.644-4.141,5.112
	c-4.551,4.551-9.788,6.99-13.898,8.289C34.776,32.746,34.539,32.779,34.299,32.847"/>
<path fill="#3A3A39" d="M83.263,17.653c-1.307-0.949-2.977-1.424-5.011-1.424c-0.824,0-1.636,0.083-2.433,0.249
	c-0.798,0.165-1.506,0.44-2.125,0.824c-0.618,0.386-1.114,0.902-1.484,1.546c-0.371,0.647-0.557,1.451-0.557,2.414
	c0,0.906,0.268,1.642,0.804,2.205c0.537,0.563,1.251,1.026,2.146,1.383c0.892,0.357,1.903,0.652,3.031,0.886
	c1.127,0.234,2.274,0.488,3.444,0.763c1.168,0.274,2.316,0.599,3.444,0.97c1.126,0.371,2.137,0.873,3.031,1.506
	c0.894,0.633,1.608,1.43,2.146,2.393c0.535,0.963,0.803,2.173,0.803,3.628c0,1.567-0.35,2.909-1.051,4.023
	c-0.701,1.111-1.603,2.021-2.702,2.72c-1.1,0.703-2.33,1.213-3.691,1.527c-1.361,0.315-2.715,0.474-4.063,0.474
	c-1.65,0-3.21-0.206-4.681-0.618s-2.764-1.036-3.877-1.878c-1.114-0.838-1.993-1.91-2.639-3.216
	c-0.646-1.306-0.969-2.852-0.969-4.641h3.712c0,1.238,0.239,2.305,0.721,3.197c0.481,0.895,1.113,1.629,1.897,2.206
	c0.784,0.578,1.697,1.004,2.743,1.278c1.045,0.275,2.117,0.413,3.217,0.413c0.879,0,1.766-0.081,2.66-0.247
	c0.894-0.166,1.698-0.447,2.414-0.846c0.714-0.398,1.292-0.941,1.732-1.629c0.439-0.688,0.66-1.569,0.66-2.642
	c0-1.016-0.269-1.841-0.804-2.474c-0.537-0.632-1.252-1.147-2.146-1.547c-0.894-0.397-1.904-0.721-3.031-0.969
	c-1.128-0.247-2.276-0.502-3.444-0.764c-1.169-0.259-2.317-0.562-3.444-0.906c-1.128-0.344-2.139-0.798-3.032-1.361
	c-0.893-0.563-1.608-1.293-2.144-2.187c-0.536-0.893-0.805-2.013-0.805-3.361c0-1.484,0.302-2.769,0.908-3.855
	c0.604-1.086,1.408-1.98,2.412-2.682c1.004-0.702,2.146-1.224,3.424-1.568c1.278-0.344,2.591-0.516,3.939-0.516
	c1.511,0,2.914,0.18,4.206,0.537c1.292,0.358,2.427,0.922,3.403,1.691c0.976,0.771,1.746,1.74,2.31,2.909
	c0.562,1.169,0.872,2.563,0.928,4.186h-3.712C85.332,20.134,84.569,18.602,83.263,17.653L83.263,17.653z M98.42,13.632v11.26h0.083
	c0.274-0.66,0.66-1.217,1.155-1.671c0.494-0.454,1.051-0.826,1.67-1.115c0.618-0.288,1.265-0.499,1.938-0.639
	c0.675-0.136,1.326-0.205,1.959-0.205c1.402,0,2.57,0.192,3.506,0.577c0.935,0.385,1.692,0.922,2.27,1.608
	c0.576,0.688,0.981,1.507,1.216,2.453c0.233,0.95,0.351,2.003,0.351,3.156V43.08h-3.505V28.645c0-1.32-0.386-2.365-1.155-3.135
	c-0.771-0.771-1.829-1.155-3.176-1.155c-1.073,0-2.002,0.164-2.785,0.496c-0.783,0.33-1.437,0.797-1.959,1.401
	c-0.521,0.604-0.914,1.314-1.175,2.125c-0.262,0.811-0.393,1.698-0.393,2.659V43.08h-3.505V13.632H98.42L98.42,13.632z
	 M120.714,35.882c0.343,1.005,0.816,1.845,1.423,2.518c0.604,0.673,1.312,1.189,2.123,1.547c0.811,0.356,1.672,0.535,2.579,0.535
	s1.765-0.179,2.576-0.535c0.812-0.357,1.521-0.874,2.125-1.547s1.078-1.513,1.423-2.518c0.344-1.003,0.515-2.151,0.515-3.443
	c0-1.291-0.171-2.44-0.515-3.443c-0.345-1.003-0.818-1.85-1.423-2.537c-0.604-0.687-1.313-1.209-2.125-1.566
	c-0.812-0.358-1.669-0.537-2.576-0.537s-1.769,0.179-2.579,0.537c-0.811,0.357-1.52,0.88-2.123,1.566
	c-0.606,0.688-1.08,1.534-1.423,2.537c-0.344,1.003-0.517,2.152-0.517,3.443C120.197,33.73,120.37,34.879,120.714,35.882
	L120.714,35.882z M117.146,28.046c0.439-1.36,1.1-2.543,1.98-3.547c0.879-1.003,1.965-1.793,3.258-2.371
	c1.292-0.578,2.776-0.866,4.455-0.866c1.703,0,3.195,0.288,4.475,0.866c1.278,0.578,2.358,1.368,3.238,2.371
	c0.879,1.004,1.54,2.187,1.978,3.547c0.44,1.362,0.662,2.825,0.662,4.393s-0.222,3.024-0.662,4.372
	c-0.438,1.348-1.099,2.522-1.978,3.526c-0.88,1.004-1.96,1.787-3.238,2.351c-1.279,0.564-2.771,0.846-4.475,0.846
	c-1.679,0-3.163-0.281-4.455-0.846c-1.293-0.563-2.379-1.347-3.258-2.351c-0.881-1.004-1.541-2.179-1.98-3.526
	s-0.66-2.805-0.66-4.372S116.706,29.408,117.146,28.046L117.146,28.046z M144.49,21.757v4.495h0.083
	c0.852-1.733,1.896-3.009,3.134-3.836c1.237-0.824,2.806-1.208,4.702-1.153v3.712c-1.401,0-2.599,0.193-3.588,0.576
	c-0.99,0.387-1.788,0.948-2.392,1.691c-0.605,0.742-1.047,1.643-1.321,2.701s-0.412,2.275-0.412,3.65v9.486h-3.506V21.757H144.49
	L144.49,21.757z M166.227,21.757v3.094h-4.249V38.09c0,0.413,0.034,0.741,0.104,0.989c0.068,0.248,0.199,0.44,0.392,0.576
	c0.193,0.139,0.46,0.227,0.805,0.27c0.344,0.041,0.79,0.062,1.341,0.062h1.608v3.094h-2.683c-0.906,0-1.684-0.062-2.33-0.186
	c-0.646-0.124-1.168-0.351-1.566-0.68c-0.399-0.331-0.693-0.798-0.887-1.402c-0.193-0.606-0.289-1.403-0.289-2.394V24.851h-3.629
	v-3.094h3.629v-6.394h3.506v6.394H166.227L166.227,21.757z M183.26,25.469c-0.881-0.742-2.062-1.114-3.547-1.114
	c-1.266,0-2.324,0.234-3.177,0.701c-0.853,0.47-1.533,1.086-2.041,1.856c-0.51,0.77-0.873,1.657-1.093,2.66
	c-0.22,1.004-0.33,2.043-0.33,3.115c0,0.988,0.116,1.951,0.352,2.885c0.232,0.936,0.598,1.769,1.092,2.495
	c0.496,0.729,1.142,1.314,1.938,1.754c0.797,0.441,1.745,0.66,2.847,0.66c1.732,0,3.085-0.454,4.062-1.36
	c0.975-0.908,1.572-2.187,1.794-3.837h3.588c-0.386,2.64-1.368,4.676-2.949,6.104c-1.581,1.43-3.732,2.145-6.454,2.145
	c-1.622,0-3.061-0.262-4.311-0.783c-1.25-0.522-2.296-1.264-3.135-2.228c-0.838-0.962-1.471-2.11-1.896-3.444
	c-0.428-1.333-0.64-2.797-0.64-4.391c0-1.596,0.206-3.087,0.618-4.477c0.412-1.388,1.037-2.6,1.875-3.629
	c0.841-1.031,1.893-1.842,3.158-2.434c1.264-0.59,2.735-0.885,4.411-0.885c1.212,0,2.345,0.144,3.403,0.431
	c1.059,0.29,1.994,0.737,2.805,1.341c0.811,0.606,1.479,1.369,2,2.29c0.523,0.921,0.853,2.014,0.99,3.279h-3.629
	C184.717,27.257,184.139,26.211,183.26,25.469L183.26,25.469z M207.224,43.08v-3.382h-0.084c-0.743,1.318-1.691,2.288-2.846,2.906
	c-1.154,0.62-2.516,0.929-4.083,0.929c-1.403,0-2.571-0.186-3.506-0.557c-0.935-0.372-1.691-0.9-2.269-1.588
	c-0.578-0.687-0.982-1.507-1.217-2.454c-0.233-0.948-0.351-2-0.351-3.154V21.757h3.506V36.19c0,1.321,0.384,2.366,1.155,3.137
	c0.769,0.77,1.827,1.154,3.176,1.154c1.072,0,2-0.165,2.783-0.495c0.784-0.331,1.437-0.797,1.959-1.402
	c0.522-0.604,0.915-1.312,1.178-2.124c0.26-0.811,0.39-1.697,0.39-2.66V21.757h3.506V43.08H207.224L207.224,43.08z M225.328,21.757
	v3.094h-4.248V38.09c0,0.413,0.033,0.741,0.104,0.989c0.068,0.248,0.199,0.44,0.392,0.576c0.192,0.139,0.46,0.227,0.805,0.27
	c0.343,0.041,0.79,0.062,1.341,0.062h1.607v3.094h-2.68c-0.907,0-1.685-0.062-2.331-0.186c-0.646-0.124-1.169-0.351-1.568-0.68
	c-0.397-0.331-0.693-0.798-0.886-1.402c-0.192-0.606-0.288-1.403-0.288-2.394V24.851h-3.63v-3.094h3.63v-6.394h3.505v6.394H225.328
	L225.328,21.757z"/>
</svg>
