<svg version="1.1" xmlns="http://www.w3.org/2000/svg" xmlns:xlink="http://www.w3.org/1999/xlink" width="54.8px" height="54.1px" viewBox="0 0 54.8 54.1">
<g>
	<path fill="#EA6F1D" d="M54.8,27.1c0,15-12.3,27.1-27.4,27.1C12.3,54.1,0,42,0,27.1S12.3,0,27.4,0C42.6,0,54.8,12.1,54.8,27.1z"/>
	<path fill-rule="evenodd" clip-rule="evenodd" fill="#FFFFFF" d="M31.6,28.3l-7,4.3v0l-0.2,0.1h0l-0.2,0.1h0l-0.1,0h0l-0.1,0h0
		l-0.1,0h0h-0.1c-0.7,0-1.3-0.6-1.3-1.3v-8.7c0-0.7,0.6-1.3,1.3-1.3c0.3,0,0.5,0.1,0.8,0.2l7,4.3c0.4,0.2,0.7,0.6,0.7,1.1
		S32,28.1,31.6,28.3z M27.4,15.9C21.1,15.9,16,21,16,27.2c0,6.3,5.1,11.3,11.5,11.3s11.5-5.1,11.5-11.3C38.9,21,33.8,15.9,27.4,15.9
		z M27.4,41.1c-7.8,0-14.1-6.2-14.1-13.9c0-7.7,6.3-13.9,14.1-13.9s14.1,6.2,14.1,13.9C41.5,34.9,35.2,41.1,27.4,41.1z"/>
</g>
</svg>
