<svg version="1.1" xmlns="http://www.w3.org/2000/svg" xmlns:xlink="http://www.w3.org/1999/xlink" width="53.5px" height="52.8px" viewBox="0 0 53.5 52.8">
<g>
	<path fill="#E48162" d="M53.5,26.4c0,14.6-12,26.4-26.8,26.4C12,52.8,0,41,0,26.4C0,11.8,12,0,26.8,0C41.5,0,53.5,11.8,53.5,26.4z"
		/>
	<path fill-rule="evenodd" clip-rule="evenodd" fill="#FFFFFF" d="M36,31.7c-0.5,0-1,0.1-1.4,0.2c-0.3,0.2-0.6,0.5-0.7,0.7
		c-0.1,0.3-0.2,0.6-0.2,1.1v0.5h-0.9v1.3h0.9v4.4h1.8v-4.4h1.1l0.3-1.3h-1.5v-0.5c0-0.3,0.1-0.5,0.2-0.7c0.1-0.1,0.4-0.2,0.6-0.2
		c0.3,0,0.5,0.1,0.8,0.3l0.3-1.2C36.9,31.8,36.5,31.7,36,31.7z M41.6,40.7H32c-0.5,0-0.9-0.4-0.9-0.8v-9.6c0-0.5,0.4-0.9,0.9-0.9
		h9.6c0.5,0,0.9,0.4,0.9,0.9v9.6C42.5,40.4,42.1,40.7,41.6,40.7z"/>
	<path fill-rule="evenodd" clip-rule="evenodd" fill="#FFFFFF" d="M36.2,11.9c4.1,0,6.7,2.4,6.7,5.3c0,3-2.5,5.3-6.7,5.3
		c-0.5,0-1-0.1-1.5-0.2c-1.9,2.4-5,1.9-5,1.9c2.1-1,2.1-2.7,1.7-2.9c-1.7-1-2.7-2.5-2.7-4.1C28.8,14.3,32.1,11.9,36.2,11.9z"/>
	<path fill-rule="evenodd" clip-rule="evenodd" fill="#FFFFFF" d="M20.4,12c1.3,0,2,0.4,2.6,1c0.6-0.1,1.3-0.4,1.7-0.6l0.4-0.2
		c-0.2,0.6-0.6,1.2-1.1,1.6C24,13.9,23.9,14,23.8,14v0c0.7,0,1.3-0.3,1.9-0.5v0c-0.3,0.5-0.7,0.9-1.1,1.3L24,15.2
		c0,0.8,0,1.5-0.2,2.1c-0.8,3.7-3,6.2-6.6,7.3C16,25,14,25.2,12.5,24.9c-0.7-0.2-1.4-0.4-2-0.6c-0.3-0.1-0.6-0.3-0.9-0.5l-0.3-0.2
		c0.3,0,0.7,0.1,1.1,0c0.3-0.1,0.6,0,1-0.1c0.8-0.2,1.4-0.4,2-0.7c0.3-0.2,0.7-0.4,0.9-0.6c-0.4,0-0.7-0.1-1-0.2
		c-1.1-0.4-1.7-1.1-2.1-2.1c0.3,0,1.3,0.1,1.5-0.1c-0.4,0-0.8-0.3-1.1-0.4C10.7,18.9,10,18,10,16.6l0.3,0.2c0.2,0.1,0.4,0.1,0.7,0.2
		c0.1,0,0.3,0.1,0.5,0h0c-0.2-0.2-0.5-0.3-0.6-0.5c-0.6-0.7-1.1-1.7-0.8-3c0.1-0.3,0.2-0.6,0.4-0.9l0,0c0.1,0.1,0.2,0.2,0.3,0.3
		c0.3,0.4,0.6,0.7,1,0.9c1.2,1,2.3,1.5,4.1,2c0.4,0.1,1,0.2,1.5,0.2c-0.1-0.4-0.1-1.1,0-1.6c0.3-1,0.9-1.8,1.9-2.2
		c0.2-0.1,0.5-0.2,0.7-0.2L20.4,12z"/>
	<g>
		<path fill="#FFFFFF" d="M18,36.4l6.9-5.7c0,0-0.1,0-0.1,0H11.2c0,0-0.1,0-0.1,0L18,36.4z"/>
		<path fill="#FFFFFF" d="M25.5,31.3c0-0.1,0-0.1,0-0.2l-4.9,4l4.9,4.8c0-0.1,0-0.1,0-0.1V31.3z"/>
		<path fill="#FFFFFF" d="M10.7,31.1c0,0.1,0,0.1,0,0.2v8.5c0,0,0,0.1,0,0.1l4.9-4.8L10.7,31.1z"/>
		<path fill="#FFFFFF" d="M20,35.5L18.2,37c0,0-0.1,0.1-0.2,0.1s-0.1,0-0.2-0.1L16,35.5l-4.9,4.9c0.1,0,0.1,0,0.2,0h13.6
			c0,0,0.1,0,0.1,0L20,35.5z"/>
	</g>
</g>
</svg>
