<svg version="1.1" xmlns="http://www.w3.org/2000/svg" xmlns:xlink="http://www.w3.org/1999/xlink" width="53.3px" height="52.6px" viewBox="0 0 53.3 52.6">
<g>
	<path fill="#F19300" d="M53.3,26.3c0,14.5-11.9,26.3-26.7,26.3C11.9,52.6,0,40.8,0,26.3C0,11.8,11.9,0,26.6,0
		C41.4,0,53.3,11.8,53.3,26.3z"/>
	<path fill-rule="evenodd" clip-rule="evenodd" fill="#FFFFFF" d="M31.4,18.5c-1.6,0-2.9,0.6-4.1,1.7l-0.7,0.8L26,20.3
		c-1.1-1.1-2.4-1.8-4.1-1.8s-3.1,0.6-4.3,1.8c-1.1,1.1-1.8,2.6-1.8,4.2c0,1.6,0.6,3.1,1.8,4.2l8,8c0.2,0.2,0.6,0.4,1,0.4
		c0.4,0,0.7-0.1,1-0.4l8-8c1.1-1.1,1.8-2.6,1.8-4.2c0-1.6-0.6-3.1-1.8-4.2C34.5,19.2,33,18.5,31.4,18.5z"/>
</g>
</svg>
