<svg version="1.1" xmlns="http://www.w3.org/2000/svg" xmlns:xlink="http://www.w3.org/1999/xlink" width="56px" height="55.3px" viewBox="0 0 56 55.3">
<g>
	<ellipse fill="#F19300" cx="28" cy="27.6" rx="28" ry="27.6"/>
	<path fill-rule="evenodd" clip-rule="evenodd" fill="#FFFFFF" d="M21.2,22.9l2.6,7.2l11.9-0.8l2.9-6.4H21.2z M42,22.1l-4.1,9.1
		c-0.2,0.4-0.6,0.8-1.2,0.8l-12,0.8l0.7,1.9h13c1.5,0,2.8,1.2,2.8,2.7c0,1.5-1.2,2.7-2.8,2.7c-1.5,0-2.8-1.2-2.8-2.7H22.8
		c0,1.5-1.2,2.7-2.8,2.7c-1.5,0-2.8-1.2-2.8-2.7c0-1.5,1.2-2.7,2.8-2.7h2.5l-5.3-15H14c-0.8,0-1.4-0.6-1.4-1.4
		c0-0.8,0.6-1.4,1.4-1.4h4.1c0.6,0,1.1,0.4,1.3,0.9l0.8,2.3h20.5c0.8,0,1.4,0.6,1.4,1.4C42.1,21.8,42.1,21.9,42,22.1z"/>
</g>
</svg>
