<svg version="1.1" xmlns="http://www.w3.org/2000/svg" xmlns:xlink="http://www.w3.org/1999/xlink" width="124px" height="41px" viewBox="0 0 124 41">
<g>
	<path fill="#460200" d="M124,35.5c0,3.1-2.7,5.5-6.1,5.5H6.1C2.7,41,0,38.5,0,35.5V5.5C0,2.5,2.7,0,6.1,0h111.9
		c3.3,0,6.1,2.5,6.1,5.5V35.5z"/>
	<g>
		<g>
			<g>
				<path fill="#FFFFFF" d="M27.8,8.7c-1.3,0.4-2.3,0.8-2.3,3.1v1.1l0.8-0.1v-1c0-1.6,0.4-1.9,1.6-2.4C27.9,9.2,27.9,8.9,27.8,8.7z"
					/>
				<path fill="#FFFFFF" d="M30.1,8.2c0.1,0.2,0.1,0.5,0.1,0.7c2.1-0.3,2,0.5,2,2.1v0.6l0.8-0.2v-0.5C33.1,8.5,32.6,7.9,30.1,8.2z"
					/>
				<path fill="#FFFFFF" d="M21.9,13.6v-3.3c0-2.1,1.1-2.7,3.3-3.2c3.2-0.7,3.4,1.2,3.4,2.4v2.8l0.8-0.1V9.6c0-2.3-0.8-4-4.4-3.3
					c-1.9,0.4-3.9,0.9-3.9,3.9v3.5L21.9,13.6z"/>
			</g>
			<path fill="#FFFFFF" d="M31.4,22.3h-6.1v-4l6.1-0.8V22.3z M31.4,28l-6.1-0.8v-4.3h6.1V28z M24.7,22.3h-4.8v-3.4l4.8-0.6V22.3z
				 M24.7,27.2l-4.8-0.6v-3.7h4.8V27.2z M37,11.7l-21.8,4v14.5l21.8,4l4.4-1.4V13.1L37,11.7z"/>
		</g>
		<g>
			<path fill="#FFFFFF" d="M58.8,19.6h-0.7l-2.6-7.9c-0.1-0.4-0.2-0.7-0.2-1h0c0,0.2-0.1,0.6-0.3,1l-2.7,8h-0.7L48.2,9h0.9l2.6,8.5
				c0.1,0.3,0.2,0.6,0.2,0.9h0l0-0.2L55.2,9h0.4l2.6,8.5c0.1,0.4,0.2,0.7,0.2,0.9h0l0.1-0.2L61.3,9h0.9L58.8,19.6z"/>
			<path fill="#FFFFFF" d="M63.7,19.6v-7.5h0.7v7.5H63.7z M64.1,10.1c-0.2,0-0.3,0-0.4-0.2c-0.1-0.1-0.2-0.2-0.2-0.4
				c0-0.2,0.1-0.3,0.2-0.4C63.8,9.1,63.9,9,64.1,9c0.2,0,0.3,0.1,0.4,0.1c0.1,0.1,0.2,0.2,0.2,0.4c0,0.2-0.1,0.3-0.2,0.4
				C64.4,10.1,64.3,10.1,64.1,10.1z"/>
			<path fill="#FFFFFF" d="M72.6,19.6v-4.4c0-1.8-0.7-2.7-2.2-2.7c-0.8,0-1.4,0.3-1.9,0.8c-0.5,0.5-0.8,1.2-0.8,2v4.3H67v-7.5h0.7
				v1.4h0c0.6-1,1.5-1.6,2.8-1.6c0.9,0,1.6,0.3,2,0.8s0.7,1.3,0.7,2.3v4.6H72.6z"/>
			<path fill="#FFFFFF" d="M81.5,15c0-0.7-0.3-1.3-0.8-1.8c-0.5-0.5-1.1-0.7-1.9-0.7c-0.9,0-1.6,0.3-2.2,0.9
				c-0.6,0.6-0.8,1.4-0.8,2.5c0,1,0.2,1.8,0.7,2.4c0.5,0.6,1.2,0.9,2,0.9c0.9,0,1.6-0.3,2.1-0.8c0.5-0.5,0.8-1.2,0.8-2V15z
				 M81.5,19.6v-1.4h0c-0.3,0.5-0.7,0.9-1.2,1.1c-0.5,0.3-1.1,0.4-1.8,0.4c-1,0-1.9-0.4-2.5-1C75.3,18.1,75,17.1,75,16
				c0-0.8,0.2-1.5,0.5-2.1c0.3-0.6,0.8-1.1,1.3-1.5c0.6-0.4,1.2-0.5,2-0.5c1.2,0,2.1,0.5,2.6,1.4h0V8.4h0.7v11.2H81.5z"/>
			<path fill="#FFFFFF" d="M88.1,12.5c-1,0-1.7,0.3-2.3,0.9c-0.6,0.6-0.9,1.4-0.9,2.5c0,1,0.3,1.8,0.9,2.4c0.6,0.6,1.3,0.9,2.3,0.9
				c1,0,1.7-0.3,2.3-0.9c0.5-0.6,0.8-1.4,0.8-2.5c0-1.1-0.3-1.9-0.8-2.5C89.8,12.8,89.1,12.5,88.1,12.5z M88,19.8
				c-1.2,0-2.2-0.4-2.9-1.1c-0.7-0.7-1.1-1.7-1.1-2.8c0-1.2,0.4-2.2,1.1-2.9c0.7-0.7,1.7-1.1,2.9-1.1c1.2,0,2.1,0.4,2.8,1.1
				c0.7,0.7,1,1.7,1,2.9c0,1.2-0.4,2.1-1.1,2.8C90.2,19.4,89.2,19.8,88,19.8z"/>
			<path fill="#FFFFFF" d="M100.8,19.6h-0.7l-1.8-5.7c0-0.1-0.1-0.3-0.1-0.6h0c0,0.1-0.1,0.3-0.2,0.6l-2,5.7h-0.7l-2.5-7.5h0.8
				l1.9,6c0,0.2,0.1,0.4,0.1,0.6h0.1c0-0.1,0.1-0.3,0.2-0.6l2.1-6h0.5l1.9,6c0,0.1,0.1,0.4,0.1,0.6h0.1c0-0.1,0-0.3,0.1-0.6l2-6h0.8
				L100.8,19.6z"/>
			<path fill="#FFFFFF" d="M104.4,19.3v-0.8c0.2,0.2,0.6,0.4,1,0.5c0.4,0.1,0.8,0.2,1.1,0.2c1.3,0,1.9-0.5,1.9-1.5
				c0-0.3-0.1-0.6-0.4-0.8c-0.3-0.2-0.7-0.5-1.4-0.8c-0.7-0.3-1.3-0.6-1.6-0.9c-0.3-0.3-0.5-0.8-0.5-1.3c0-0.6,0.3-1.1,0.8-1.5
				c0.5-0.4,1.1-0.6,1.9-0.6c0.7,0,1.3,0.1,1.8,0.4V13c-0.6-0.4-1.3-0.6-1.9-0.6c-0.5,0-1,0.1-1.3,0.4c-0.3,0.3-0.5,0.6-0.5,1
				c0,0.3,0,0.5,0.1,0.7c0.1,0.2,0.3,0.3,0.5,0.5c0.2,0.1,0.6,0.3,1,0.5c0.9,0.4,1.5,0.7,1.8,1c0.3,0.3,0.5,0.7,0.5,1.2
				c0,0.6-0.2,1.1-0.8,1.5c-0.5,0.4-1.2,0.6-2,0.6C105.6,19.8,104.9,19.6,104.4,19.3z"/>
			<path fill="#FFFFFF" d="M50.1,23.5v5h1.6c1,0,1.8-0.2,2.4-0.7c0.5-0.5,0.8-1.1,0.8-1.9c0-1.6-1-2.4-3-2.4H50.1z M50.1,29.1v4.2
				h-0.8V22.8h2.8c1.2,0,2.1,0.3,2.7,0.8c0.6,0.5,0.9,1.2,0.9,2.2c0,1-0.4,1.8-1.1,2.4c-0.7,0.6-1.7,0.9-2.9,0.9H50.1z"/>
			<path fill="#FFFFFF" d="M63.5,33.4v-4.5c0-0.9-0.2-1.5-0.5-2c-0.4-0.4-0.9-0.6-1.7-0.6c-0.5,0-1,0.1-1.4,0.4
				c-0.4,0.2-0.7,0.6-1,1c-0.2,0.5-0.3,1-0.3,1.5v4.2h-0.7V22.2h0.7v5h0c0.7-1,1.6-1.5,2.8-1.5c0.9,0,1.6,0.3,2,0.8
				c0.5,0.5,0.7,1.3,0.7,2.3v4.7H63.5z"/>
			<path fill="#FFFFFF" d="M70,26.3c-1,0-1.7,0.3-2.3,0.9c-0.6,0.6-0.9,1.4-0.9,2.5c0,1,0.3,1.8,0.9,2.4c0.6,0.6,1.3,0.9,2.3,0.9
				c1,0,1.7-0.3,2.3-0.9c0.5-0.6,0.8-1.4,0.8-2.5c0-1.1-0.3-1.9-0.8-2.5C71.7,26.6,71,26.3,70,26.3z M69.9,33.6
				c-1.2,0-2.1-0.4-2.9-1.1c-0.7-0.7-1.1-1.7-1.1-2.8c0-1.2,0.4-2.2,1.1-2.9c0.7-0.7,1.7-1.1,2.9-1.1c1.2,0,2.1,0.4,2.8,1.1
				c0.7,0.7,1,1.7,1,2.9c0,1.2-0.4,2.1-1.1,2.9C72,33.2,71.1,33.6,69.9,33.6z"/>
			<path fill="#FFFFFF" d="M81.3,33.4V29c0-1.8-0.7-2.7-2.2-2.7c-0.8,0-1.4,0.3-1.9,0.8c-0.5,0.5-0.8,1.2-0.8,2v4.3h-0.7v-7.5h0.7
				v1.4h0c0.6-1,1.5-1.6,2.8-1.6c0.9,0,1.6,0.3,2,0.8c0.5,0.5,0.7,1.3,0.7,2.3v4.6H81.3z"/>
			<path fill="#FFFFFF" d="M89.9,29c0-0.9-0.3-1.5-0.7-2c-0.4-0.5-1-0.7-1.8-0.7c-0.8,0-1.4,0.2-1.9,0.7c-0.5,0.5-0.8,1.2-0.9,2
				H89.9z M84.6,29.6c0,1,0.3,1.9,0.8,2.4c0.5,0.6,1.2,0.9,2.2,0.9c0.9,0,1.8-0.3,2.7-0.9v0.7c-0.9,0.6-1.8,0.8-2.9,0.8
				c-1.1,0-1.9-0.4-2.6-1.1c-0.6-0.7-1-1.7-1-2.9c0-0.7,0.2-1.4,0.5-2c0.3-0.6,0.8-1.1,1.3-1.4c0.6-0.3,1.2-0.5,1.9-0.5
				c1,0,1.8,0.3,2.4,1c0.6,0.6,0.8,1.5,0.8,2.7v0.3H84.6z"/>
		</g>
	</g>
</g>
</svg>
