<svg version="1.1" xmlns="http://www.w3.org/2000/svg" xmlns:xlink="http://www.w3.org/1999/xlink" width="38px" height="36.9px" viewBox="0 0 38 36.9">
<g>
	<g>
		<path fill-rule="evenodd" clip-rule="evenodd" fill="#FFFFFF" d="M3,17.9c0-8.84,7.16-16,16-16s16,7.16,16,16s-7.16,16-16,16
			S3,26.74,3,17.9z"/>
	</g>
	<g class="background">
		<polygon fill="#EA6F1D" points="10.89,20 12.26,20 12.26,26.64 13.59,26.64 13.59,20 14.97,20 14.97,18.87 10.89,18.87 		"/>
		<path fill="#EA6F1D" d="M19.05,14.49c0.18,0,0.33-0.05,0.43-0.14c0.11-0.1,0.16-0.23,0.16-0.4v-3.44c0-0.14-0.05-0.25-0.16-0.33
			c-0.11-0.09-0.25-0.13-0.43-0.13c-0.16,0-0.29,0.04-0.39,0.13c-0.1,0.08-0.15,0.19-0.15,0.33v3.44c0,0.17,0.04,0.3,0.14,0.4
			C18.74,14.44,18.88,14.49,19.05,14.49z"/>
		<path fill-rule="evenodd" clip-rule="evenodd" fill="#EA6F1D" d="M21.92,25.3c0,0.18-0.04,0.31-0.1,0.39
			c-0.07,0.09-0.18,0.13-0.32,0.13c-0.1,0-0.2-0.03-0.29-0.07s-0.18-0.11-0.28-0.2v-3.57c0.08-0.08,0.16-0.14,0.25-0.17
			c0.08-0.04,0.16-0.06,0.25-0.06c0.16,0,0.28,0.05,0.36,0.15c0.09,0.1,0.13,0.25,0.13,0.44V25.3z M21.98,20.84
			c-0.18,0-0.36,0.05-0.54,0.14s-0.35,0.22-0.51,0.4v-2.51h-1.19v7.77h1.19V26.2c0.16,0.18,0.33,0.31,0.51,0.39s0.38,0.12,0.61,0.12
			c0.35,0,0.62-0.1,0.81-0.32c0.18-0.22,0.27-0.53,0.27-0.93v-3.18c0-0.47-0.09-0.83-0.29-1.07C22.64,20.96,22.36,20.84,21.98,20.84
			z"/>
		<path fill="#EA6F1D" d="M17.67,25.26c-0.11,0.13-0.23,0.23-0.36,0.31s-0.24,0.12-0.33,0.12c-0.11,0-0.19-0.03-0.24-0.09
			c-0.05-0.06-0.08-0.16-0.08-0.29v-4.4h-1.17v4.79c0,0.34,0.07,0.6,0.2,0.77c0.14,0.17,0.35,0.25,0.62,0.25
			c0.22,0,0.45-0.05,0.68-0.18c0.24-0.12,0.47-0.3,0.68-0.53v0.63h1.18v-5.73h-1.18V25.26z"/>
		<path fill-rule="evenodd" clip-rule="evenodd" fill="#EA6F1D" d="M30.91,24.88c0,2.28-1.9,4.13-4.25,4.13h-14.8
			c-2.35,0-4.26-1.85-4.26-4.13v-3.33c0-2.28,1.91-4.13,4.26-4.13h14.8c2.35,0,4.25,1.85,4.25,4.13V24.88z M13.52,6.87l0.97,3.42
			h0.1l0.92-3.42h1.52l-1.74,5.01v3.54H13.8v-3.39l-1.78-5.16H13.52z M17.14,10.56c0-0.49,0.18-0.88,0.53-1.17
			c0.36-0.29,0.84-0.44,1.45-0.44c0.55,0,1,0.16,1.35,0.46c0.35,0.31,0.52,0.7,0.52,1.18v3.26c0,0.54-0.17,0.97-0.51,1.27
			c-0.35,0.31-0.82,0.46-1.42,0.46c-0.58,0-1.05-0.16-1.4-0.47c-0.35-0.32-0.52-0.75-0.52-1.28V10.56z M22.07,9.11h1.33v4.84
			c0,0.15,0.03,0.26,0.08,0.33c0.06,0.06,0.15,0.1,0.27,0.1c0.1,0,0.22-0.05,0.37-0.13c0.15-0.1,0.29-0.21,0.41-0.35V9.11h1.33v6.31
			h-1.33v-0.69c-0.24,0.25-0.5,0.45-0.76,0.59c-0.27,0.13-0.52,0.2-0.77,0.2c-0.31,0-0.54-0.1-0.7-0.29
			c-0.15-0.18-0.23-0.46-0.23-0.84V9.11z M19,0C8.51,0,0,8.26,0,18.45C0,28.64,8.51,36.9,19,36.9s19-8.26,19-18.45
			C38,8.26,29.49,0,19,0z"/>
		<path fill-rule="evenodd" clip-rule="evenodd" fill="#EA6F1D" d="M26.01,23.02h-1.04v-0.58c0-0.24,0.04-0.41,0.12-0.51
			c0.08-0.11,0.22-0.16,0.4-0.16c0.18,0,0.32,0.05,0.4,0.16c0.08,0.1,0.12,0.27,0.12,0.51V23.02z M25.54,20.77
			c-0.52,0-0.95,0.15-1.29,0.47c-0.33,0.31-0.5,0.72-0.5,1.21v2.58c0,0.55,0.15,0.98,0.46,1.29c0.3,0.32,0.72,0.48,1.25,0.48
			c0.58,0,1.02-0.15,1.32-0.45c0.3-0.29,0.44-0.74,0.44-1.32v-0.3h-1.21v0.26c0,0.34-0.04,0.56-0.12,0.66
			c-0.08,0.09-0.21,0.14-0.41,0.14c-0.19,0-0.32-0.05-0.4-0.17c-0.07-0.12-0.11-0.33-0.11-0.63v-1.08h2.25v-1.46
			c0-0.54-0.14-0.96-0.43-1.25S26.08,20.77,25.54,20.77z"/>
	</g>
</g>
</svg>
