<svg version="1.1" xmlns="http://www.w3.org/2000/svg" xmlns:xlink="http://www.w3.org/1999/xlink" width="123.38px" height="41px" viewBox="0 0 123.38 41">
<g>
	<path class="background" fill="#411311" d="M123.38,35.462c0,3.055-2.44,5.537-5.45,5.537H5.46C2.45,41,0,38.517,0,35.462V5.537C0,2.483,2.45,0,5.46,0
		h112.47c3.01,0,5.45,2.483,5.45,5.537V35.462z"/>
	<g>
		<g>
			<path fill-rule="evenodd" clip-rule="evenodd" fill="#F9F9FA" d="M95.83,19.724c-0.811,0-1.4,0.23-1.76,0.691
				c-0.36,0.45-0.551,1.181-0.561,2.182v0.271c0,1.132,0.19,1.942,0.561,2.433c0.369,0.49,0.97,0.731,1.789,0.731
				c0.69,0,1.23-0.28,1.621-0.841c0.39-0.571,0.58-1.342,0.58-2.344c0-1.001-0.19-1.771-0.58-2.312
				C97.09,19.995,96.54,19.724,95.83,19.724z M96.01,27.062c-0.52,0-0.99-0.1-1.42-0.289c-0.43-0.201-0.79-0.501-1.08-0.902h-0.08
				c0.051,0.472,0.08,0.922,0.08,1.343v3.323h-1.199V18.833h0.979l0.17,1.111h0.05c0.311-0.44,0.67-0.761,1.08-0.961
				c0.42-0.2,0.891-0.29,1.42-0.29c1.051,0,1.87,0.36,2.44,1.091c0.569,0.731,0.86,1.763,0.86,3.084s-0.291,2.353-0.881,3.095
				C97.85,26.693,97.04,27.062,96.01,27.062z"/>
			<rect x="100.891" y="15.449" fill-rule="evenodd" clip-rule="evenodd" fill="#F9F9FA" width="1.209" height="11.464"/>
			<path fill-rule="evenodd" clip-rule="evenodd" fill="#F9F9FA" d="M106.3,26.052c0.75,0,1.33-0.211,1.761-0.631
				c0.43-0.411,0.64-1.002,0.64-1.752v-0.731l-1.2,0.05c-0.96,0.04-1.65,0.19-2.07,0.461c-0.42,0.26-0.63,0.681-0.63,1.241
				c0,0.45,0.13,0.78,0.39,1.011C105.45,25.931,105.82,26.052,106.3,26.052z M109.02,26.913l-0.24-1.151h-0.059
				c-0.4,0.511-0.791,0.852-1.191,1.031c-0.389,0.18-0.879,0.27-1.469,0.27c-0.791,0-1.41-0.209-1.86-0.619
				c-0.44-0.411-0.671-1.002-0.671-1.764c0-1.631,1.291-2.482,3.851-2.562l1.351-0.05v-0.501c0-0.63-0.131-1.101-0.4-1.401
				c-0.27-0.301-0.7-0.451-1.29-0.451c-0.66,0-1.41,0.201-2.24,0.621l-0.37-0.941c0.391-0.21,0.82-0.38,1.28-0.5
				c0.47-0.13,0.94-0.19,1.41-0.19c0.94,0,1.649,0.21,2.101,0.64c0.459,0.431,0.689,1.112,0.689,2.053v5.517H109.02z"/>
			<path fill-rule="evenodd" clip-rule="evenodd" fill="#F9F9FA" d="M110.609,18.833h1.291l1.74,4.606
				c0.379,1.051,0.619,1.812,0.709,2.282h0.061c0.061-0.251,0.189-0.681,0.39-1.292c0.2-0.601,0.86-2.473,1.97-5.596h1.291
				l-3.41,9.202c-0.34,0.9-0.74,1.551-1.19,1.932s-1.01,0.57-1.66,0.57c-0.37,0-0.729-0.039-1.09-0.129v-0.973
				c0.261,0.051,0.56,0.08,0.89,0.08c0.83,0,1.42-0.471,1.771-1.411l0.44-1.151L110.609,18.833z"/>
		</g>
		<g>
			<path fill-rule="evenodd" clip-rule="evenodd" fill="#F9F9FA" d="M73.01,23.878c0.381-0.391,0.41-0.931,0.41-1.23
				c0-1.223-0.71-3.114-2.09-3.114c-0.43,0-0.9,0.22-1.16,0.561c-0.29,0.351-0.37,0.811-0.37,1.251c0,1.133,0.65,3.004,2.08,3.004
				C72.29,24.349,72.74,24.15,73.01,23.878z M72.529,27.083c-0.129-0.01-0.219-0.01-0.389-0.01c-0.141,0-1.041,0.03-1.74,0.271
				c-0.371,0.13-1.43,0.541-1.43,1.732c0,1.201,1.149,2.062,2.93,2.062c1.59,0,2.439-0.771,2.439-1.822
				C74.34,28.455,73.79,27.994,72.529,27.083z M73.71,19.584c0.38,0.32,1.181,1.001,1.181,2.283c0,1.251-0.701,1.842-1.4,2.402
				c-0.211,0.211-0.461,0.451-0.461,0.821s0.25,0.581,0.431,0.731l0.601,0.47c0.729,0.621,1.39,1.202,1.39,2.363
				c0,1.592-1.511,3.194-4.37,3.194c-2.41,0-3.57-1.162-3.57-2.414c0-0.609,0.301-1.471,1.28-2.062c1.03-0.64,2.42-0.73,3.17-0.78
				c-0.229-0.301-0.5-0.62-0.5-1.142c0-0.29,0.09-0.461,0.17-0.66c-0.18,0.02-0.37,0.029-0.53,0.029c-1.76,0-2.76-1.332-2.76-2.652
				c0-0.771,0.35-1.633,1.061-2.263c0.949-0.791,2.08-0.921,2.979-0.921h3.42l-1.06,0.601H73.71z"/>
			<path fill-rule="evenodd" clip-rule="evenodd" fill="#F9F9FA" d="M65.32,25.451c0.4-0.541,0.49-1.211,0.49-1.872
				c0-1.481-0.69-4.315-2.75-4.315c-0.551,0-1.101,0.22-1.491,0.57c-0.65,0.591-0.77,1.332-0.77,2.063
				c0,1.661,0.81,4.415,2.82,4.415C64.27,26.312,64.939,25.992,65.32,25.451z M63.24,26.812c-2.64,0-4.05-2.092-4.05-3.975
				c0-2.212,1.78-4.094,4.3-4.094c2.439,0,3.97,1.932,3.97,3.974C67.46,24.71,65.95,26.812,63.24,26.812z"/>
			<path fill-rule="evenodd" clip-rule="evenodd" fill="#F9F9FA" d="M56.32,25.451c0.4-0.541,0.5-1.211,0.5-1.872
				c0-1.481-0.7-4.315-2.76-4.315c-0.54,0-1.09,0.22-1.49,0.57c-0.65,0.591-0.76,1.332-0.76,2.063c0,1.661,0.81,4.415,2.82,4.415
				C55.28,26.312,55.94,25.992,56.32,25.451z M54.25,26.812c-2.64,0-4.05-2.092-4.05-3.975c0-2.212,1.77-4.094,4.3-4.094
				c2.43,0,3.96,1.932,3.96,3.974C58.46,24.71,56.95,26.812,54.25,26.812z"/>
			<path fill-rule="evenodd" clip-rule="evenodd" fill="#F9F9FA" d="M48.93,26.552l-2.39,0.561c-0.97,0.15-1.83,0.28-2.75,0.28
				c-4.61,0-6.36-3.434-6.36-6.127c0-3.294,2.49-6.348,6.74-6.348c0.9,0,1.77,0.14,2.56,0.36c1.25,0.351,1.83,0.791,2.2,1.052
				l-1.39,1.341l-0.58,0.13l0.42-0.68c-0.57-0.561-1.61-1.592-3.58-1.592c-2.63,0-4.62,2.033-4.62,5.006
				c0,3.184,2.27,6.188,5.91,6.188c1.07,0,1.62-0.22,2.12-0.431v-2.723l-2.52,0.14l1.33-0.73h3.54l-0.43,0.42
				c-0.12,0.101-0.14,0.131-0.17,0.271c-0.02,0.149-0.03,0.64-0.03,0.811V26.552z"/>
			<path fill="#F9F9FA" d="M78.98,26.062c-0.551-0.051-0.66-0.15-0.66-0.811V25.06v-9.411v-0.1c0.07-0.601,0.24-0.701,0.76-1.001
				h-2.391l-1.25,0.601h1.271v0.01l0,0v9.901v0.561c0,0.342-0.06,0.391-0.45,0.902h2.961l0.609-0.371
				C79.55,26.112,79.27,26.101,78.98,26.062z"/>
			<path fill-rule="evenodd" clip-rule="evenodd" fill="#F9F9FA" d="M84.221,21.207c0.309-0.121,0.479-0.221,0.479-0.461
				c0-0.671-0.75-1.442-1.65-1.442c-0.659,0-1.899,0.521-1.899,2.333c0,0.291,0.029,0.591,0.05,0.891L84.221,21.207z M85.77,26.222
				c-0.18,0.1-0.359,0.221-0.539,0.301c-0.551,0.25-1.11,0.32-1.61,0.32c-0.53,0-1.36-0.031-2.21-0.662
				c-1.17-0.84-1.689-2.282-1.689-3.554c0-2.603,2.09-3.884,3.799-3.884c0.601,0,1.211,0.15,1.711,0.47
				c0.83,0.561,1.039,1.282,1.16,1.672l-3.9,1.593l-1.27,0.109c0.409,2.133,1.829,3.375,3.409,3.375c0.841,0,1.46-0.301,2.021-0.582
				L85.77,26.222z"/>
			<g>
				<polygon fill-rule="evenodd" clip-rule="evenodd" fill="#F9F9FA" points="87.37,18.863 87.37,19.964 87.24,19.964 87.24,18.863 
					86.88,18.863 86.88,18.743 87.73,18.743 87.73,18.863 				"/>
				<polygon fill-rule="evenodd" clip-rule="evenodd" fill="#F9F9FA" points="88.859,19.964 88.859,18.843 88.859,18.843 
					88.52,19.964 88.42,19.964 88.08,18.843 88.07,19.964 87.95,19.964 87.95,18.743 88.16,18.743 88.471,19.734 88.77,18.743 
					88.98,18.743 88.98,19.964 				"/>
			</g>
		</g>
		<g>
			<path fill-rule="evenodd" clip-rule="evenodd" fill="#FBFCFC" d="M39.55,10.132c-0.3-0.901-0.45-1.392-0.45-1.472h-0.04
				c0,0.07-0.15,0.561-0.46,1.472H39.55z M40.74,11.624h-0.82c0-0.12-0.08-0.45-0.24-0.991h-1.2c-0.16,0.531-0.24,0.861-0.24,0.991
				h-0.78c0-0.07,0.2-0.631,0.6-1.692c0.41-1.051,0.61-1.632,0.61-1.742h0.98c0,0.1,0.18,0.671,0.55,1.722
				C40.56,10.953,40.74,11.524,40.74,11.624z"/>
			<path fill-rule="evenodd" clip-rule="evenodd" fill="#FBFCFC" d="M44.09,11.624h-0.65c0-0.08-0.23-0.46-0.71-1.141
				c-0.49-0.731-0.78-1.222-0.85-1.492h-0.04c0.05,0.391,0.07,0.731,0.07,1.042c0,0.44,0.01,0.961,0.03,1.592h-0.63
				c0.02-0.55,0.03-1.141,0.03-1.792c0-0.64-0.01-1.191-0.03-1.642h0.76c0,0.09,0.22,0.471,0.65,1.111
				c0.45,0.691,0.71,1.162,0.78,1.412h0.04c-0.04-0.391-0.07-0.751-0.07-1.052c0-0.48-0.01-0.971-0.03-1.472h0.65
				c-0.03,0.44-0.04,0.981-0.04,1.642C44.05,10.483,44.06,11.083,44.09,11.624z"/>
			<path fill-rule="evenodd" clip-rule="evenodd" fill="#FBFCFC" d="M47.14,9.902c0-0.341-0.1-0.621-0.3-0.851
				c-0.19-0.23-0.48-0.351-0.88-0.351c-0.08,0-0.18,0.01-0.31,0.03c0.02,0.35,0.03,0.711,0.03,1.101c0,0.411,0.01,0.832,0.02,1.242
				c0.12,0.02,0.23,0.03,0.34,0.03c0.37,0,0.65-0.11,0.83-0.34C47.05,10.522,47.14,10.243,47.14,9.902z M47.84,9.782
				c0,0.501-0.16,0.941-0.47,1.312s-0.75,0.561-1.32,0.561c-0.26,0-0.61-0.01-1.06-0.03c0.02-0.53,0.04-1.131,0.04-1.792
				c0-0.64-0.02-1.191-0.04-1.642h0.46l0.33-0.01h0.28c0.63,0,1.08,0.15,1.36,0.471C47.7,8.961,47.84,9.341,47.84,9.782z"/>
			<path fill-rule="evenodd" clip-rule="evenodd" fill="#FBFCFC" d="M50.33,9.201c0-0.351-0.22-0.53-0.66-0.53
				c-0.16,0-0.31,0.02-0.43,0.04c0.02,0.27,0.03,0.63,0.03,1.061l0.24,0.01C50.06,9.782,50.33,9.582,50.33,9.201z M51.3,11.624
				h-0.76c-0.2-0.631-0.36-1.011-0.46-1.151c-0.11-0.15-0.28-0.22-0.52-0.22h-0.29c0,0.451,0.01,0.911,0.02,1.372h-0.72
				c0.03-0.53,0.04-1.131,0.04-1.792c0-0.64-0.01-1.191-0.04-1.642h0.45l0.33-0.01h0.45c0.8,0,1.19,0.271,1.19,0.821
				c0,0.441-0.22,0.741-0.67,0.911v0.04c0.17,0.05,0.32,0.19,0.45,0.42C50.9,10.603,51.08,11.013,51.3,11.624z"/>
			<path fill-rule="evenodd" clip-rule="evenodd" fill="#FBFCFC" d="M54.3,9.922c0-0.371-0.09-0.671-0.27-0.892
				c-0.19-0.23-0.42-0.35-0.69-0.35c-0.25,0-0.46,0.12-0.64,0.35c-0.18,0.23-0.27,0.521-0.27,0.872c0,0.36,0.1,0.66,0.28,0.891
				c0.19,0.23,0.42,0.341,0.69,0.341c0.25,0,0.46-0.111,0.64-0.341C54.22,10.562,54.3,10.272,54.3,9.922z M55.02,9.842
				c0,0.541-0.16,0.991-0.49,1.341c-0.32,0.351-0.72,0.531-1.2,0.531c-0.46,0-0.84-0.16-1.15-0.491
				c-0.31-0.32-0.46-0.741-0.46-1.241c0-0.541,0.16-0.981,0.49-1.342c0.32-0.35,0.72-0.53,1.2-0.53c0.46,0,0.84,0.17,1.15,0.49
				C54.86,8.921,55.02,9.341,55.02,9.842z"/>
			<path fill-rule="evenodd" clip-rule="evenodd" fill="#FBFCFC" d="M56.48,11.624h-0.73c0.02-0.55,0.03-1.141,0.03-1.792
				c0-0.64-0.01-1.191-0.03-1.642h0.73c-0.02,0.44-0.03,0.991-0.03,1.642C56.45,10.493,56.46,11.083,56.48,11.624z"/>
			<path fill-rule="evenodd" clip-rule="evenodd" fill="#FBFCFC" d="M59.53,9.902c0-0.341-0.09-0.621-0.29-0.851
				c-0.19-0.23-0.49-0.351-0.88-0.351c-0.08,0-0.18,0.01-0.31,0.03c0.02,0.35,0.03,0.711,0.03,1.101c0,0.411,0,0.832,0.02,1.242
				c0.11,0.02,0.23,0.03,0.34,0.03c0.37,0,0.65-0.11,0.82-0.34C59.44,10.522,59.53,10.243,59.53,9.902z M60.24,9.782
				c0,0.501-0.16,0.941-0.47,1.312c-0.32,0.371-0.76,0.561-1.32,0.561c-0.26,0-0.61-0.01-1.06-0.03c0.02-0.53,0.03-1.131,0.03-1.792
				c0-0.64-0.01-1.191-0.03-1.642h0.45l0.33-0.01h0.29c0.63,0,1.08,0.15,1.36,0.471C60.1,8.961,60.24,9.341,60.24,9.782z"/>
			<path fill-rule="evenodd" clip-rule="evenodd" fill="#FBFCFC" d="M64.029,10.132C63.73,9.231,63.58,8.741,63.58,8.661h-0.04
				c0,0.07-0.149,0.561-0.46,1.472H64.029z M65.221,11.624h-0.83c0-0.12-0.08-0.45-0.23-0.991h-1.2
				c-0.16,0.531-0.239,0.861-0.239,0.991H61.94c0-0.07,0.2-0.631,0.6-1.692c0.41-1.051,0.61-1.632,0.61-1.742h0.979
				c0,0.1,0.181,0.671,0.54,1.722C65.04,10.953,65.221,11.524,65.221,11.624z"/>
			<path fill-rule="evenodd" clip-rule="evenodd" fill="#FBFCFC" d="M67.58,9.231c0-0.371-0.25-0.561-0.74-0.561
				c-0.119,0-0.25,0.01-0.39,0.04c0.021,0.33,0.03,0.71,0.03,1.131h0.149C67.26,9.842,67.58,9.642,67.58,9.231z M68.24,9.091
				c0,0.42-0.15,0.73-0.461,0.931c-0.299,0.2-0.68,0.301-1.119,0.301l-0.18-0.01c0,0.331,0.01,0.761,0.029,1.312h-0.73
				c0.031-0.51,0.041-1.111,0.041-1.792c0-0.64-0.01-1.181-0.041-1.642h0.451L66.6,8.18h0.471c0.33,0,0.609,0.071,0.83,0.221
				C68.13,8.55,68.24,8.781,68.24,9.091z"/>
			<path fill-rule="evenodd" clip-rule="evenodd" fill="#FBFCFC" d="M70.68,9.231c0-0.371-0.24-0.561-0.729-0.561
				c-0.12,0-0.25,0.01-0.39,0.04c0.02,0.33,0.029,0.71,0.029,1.131h0.15C70.37,9.842,70.68,9.642,70.68,9.231z M71.35,9.091
				c0,0.42-0.149,0.73-0.459,0.931c-0.301,0.2-0.681,0.301-1.131,0.301l-0.17-0.01c0,0.331,0.01,0.761,0.03,1.312h-0.729
				c0.02-0.51,0.039-1.111,0.039-1.792c0-0.64-0.02-1.181-0.039-1.642h0.449l0.37-0.01h0.47c0.33,0,0.61,0.071,0.83,0.221
				C71.24,8.55,71.35,8.781,71.35,9.091z"/>
			<path fill-rule="evenodd" clip-rule="evenodd" fill="#FBFCFC" d="M75.721,9.922c0-0.371-0.091-0.671-0.281-0.892
				c-0.18-0.23-0.41-0.35-0.68-0.35c-0.26,0-0.47,0.12-0.65,0.35c-0.17,0.23-0.26,0.521-0.26,0.872c0,0.36,0.09,0.66,0.28,0.891
				c0.181,0.23,0.41,0.341,0.681,0.341c0.25,0,0.469-0.111,0.64-0.341C75.63,10.562,75.721,10.272,75.721,9.922z M76.43,9.842
				c0,0.541-0.16,0.991-0.479,1.341c-0.33,0.351-0.729,0.531-1.21,0.531c-0.45,0-0.84-0.16-1.141-0.491
				c-0.31-0.32-0.459-0.741-0.459-1.241c0-0.541,0.159-0.981,0.479-1.342c0.33-0.35,0.729-0.53,1.21-0.53
				c0.449,0,0.84,0.17,1.141,0.49C76.279,8.921,76.43,9.341,76.43,9.842z"/>
			<path fill-rule="evenodd" clip-rule="evenodd" fill="#FBFCFC" d="M79.95,11.624h-0.64c0-0.08-0.24-0.46-0.721-1.141
				c-0.49-0.731-0.779-1.222-0.85-1.492H77.7c0.05,0.391,0.069,0.731,0.069,1.042c0,0.44,0.01,0.961,0.03,1.592h-0.63
				c0.02-0.55,0.03-1.141,0.03-1.792c0-0.64-0.011-1.191-0.03-1.642h0.77c0,0.09,0.211,0.471,0.641,1.111
				c0.449,0.691,0.71,1.162,0.779,1.412H79.4c-0.041-0.391-0.07-0.751-0.07-1.052c0-0.48-0.01-0.971-0.03-1.472h0.65
				c-0.03,0.44-0.04,0.981-0.04,1.642C79.91,10.483,79.92,11.083,79.95,11.624z"/>
		</g>
		<path fill-rule="evenodd" clip-rule="evenodd" fill="#FFFFFF" d="M31.71,21.646c-0.18,0.121-2.18,1.302-4.86,2.874l-2.86-2.884
			l2.85-2.873l4.9,2.863L31.71,21.646z M16.62,30.507l-3.4,1.992l9.81-9.902l2.61,2.623L16.62,30.507z M13.21,10.763l12.42,7.289
			l-2.6,2.613L13.21,10.763z M9.97,33.841c-0.02-2.403-0.04-13.457-0.04-19.664L9.92,9.371l12.16,12.265L9.97,33.841z M32.44,20.465
			C31.76,20.074,10.98,7.88,10.77,7.75c-0.73-0.431-1.39-0.401-1.81,0.03C8.7,8.05,8.57,8.44,8.57,8.941l0.01,5.236
			C8.59,24.089,8.61,33.8,8.63,34.362c0.02,0.4,0.14,0.71,0.31,0.94c0.02,0.131,0.07,0.261,0.18,0.371c0.13,0.13,0.3,0.2,0.47,0.2
			c0.09,0,0.19-0.021,0.27-0.06h0.07c0.21,0,0.42-0.051,0.6-0.17l6.76-3.955c8.06-4.717,14.77-8.641,15.15-8.891
			c0.53-0.352,0.8-0.762,0.79-1.223C33.22,21.266,33.08,20.825,32.44,20.465z"/>
	</g>
</g>
</svg>
