<svg version="1.1" xmlns="http://www.w3.org/2000/svg" xmlns:xlink="http://www.w3.org/1999/xlink" width="124px" height="41px" viewBox="0 0 124 41">
<g>
	<path class="background" fill="#411311" d="M124,35.5c0,3.1-2.5,5.5-5.5,5.5H5.5c-3,0-5.5-2.5-5.5-5.5V5.5C0,2.5,2.5,0,5.5,0h113c3,0,5.5,2.5,5.5,5.5
		V35.5z"/>
	<g>
		<g>
			<path fill="#F9F9FA" d="M96.3,19.7c-0.8,0-1.4,0.2-1.8,0.7c-0.4,0.5-0.6,1.2-0.6,2.2v0.3c0,1.1,0.2,1.9,0.6,2.4
				c0.4,0.5,1,0.7,1.8,0.7c0.7,0,1.2-0.3,1.6-0.8c0.4-0.6,0.6-1.3,0.6-2.3s-0.2-1.8-0.6-2.3C97.6,20,97,19.7,96.3,19.7z M96.5,27.1
				c-0.5,0-1-0.1-1.4-0.3c-0.4-0.2-0.8-0.5-1.1-0.9h-0.1c0.1,0.5,0.1,0.9,0.1,1.3v3.3h-1.2V18.8h1l0.2,1.1H94c0.3-0.4,0.7-0.8,1.1-1
				c0.4-0.2,0.9-0.3,1.4-0.3c1.1,0,1.9,0.4,2.5,1.1c0.6,0.7,0.9,1.8,0.9,3.1s-0.3,2.4-0.9,3.1C98.3,26.7,97.5,27.1,96.5,27.1z"/>
			<rect x="101.4" y="15.4" fill="#F9F9FA" width="1.2" height="11.5"/>
			<path fill="#F9F9FA" d="M106.8,26.1c0.8,0,1.3-0.2,1.8-0.6c0.4-0.4,0.6-1,0.6-1.8v-0.7L108,23c-1,0-1.7,0.2-2.1,0.5
				c-0.4,0.3-0.6,0.7-0.6,1.2c0,0.5,0.1,0.8,0.4,1C106,25.9,106.4,26.1,106.8,26.1z M109.6,26.9l-0.2-1.2h-0.1
				c-0.4,0.5-0.8,0.9-1.2,1c-0.4,0.2-0.9,0.3-1.5,0.3c-0.8,0-1.4-0.2-1.9-0.6c-0.4-0.4-0.7-1-0.7-1.8c0-1.6,1.3-2.5,3.9-2.6l1.4,0
				v-0.5c0-0.6-0.1-1.1-0.4-1.4c-0.3-0.3-0.7-0.5-1.3-0.5c-0.7,0-1.4,0.2-2.3,0.6l-0.4-0.9c0.4-0.2,0.8-0.4,1.3-0.5
				c0.5-0.1,0.9-0.2,1.4-0.2c0.9,0,1.7,0.2,2.1,0.6c0.5,0.4,0.7,1.1,0.7,2.1v5.5L109.6,26.9L109.6,26.9z"/>
			<path fill="#F9F9FA" d="M111.2,18.8h1.3l1.7,4.6c0.4,1.1,0.6,1.8,0.7,2.3h0.1c0.1-0.3,0.2-0.7,0.4-1.3c0.2-0.6,0.9-2.5,2-5.6h1.3
				l-3.4,9.2c-0.3,0.9-0.7,1.6-1.2,1.9c-0.5,0.4-1,0.6-1.7,0.6c-0.4,0-0.7,0-1.1-0.1v-1c0.3,0.1,0.6,0.1,0.9,0.1
				c0.8,0,1.4-0.5,1.8-1.4l0.4-1.2L111.2,18.8z"/>
		</g>
		<g>
			<path fill="#F9F9FA" d="M73.4,23.9c0.4-0.4,0.4-0.9,0.4-1.2c0-1.2-0.7-3.1-2.1-3.1c-0.4,0-0.9,0.2-1.2,0.6
				c-0.3,0.4-0.4,0.8-0.4,1.3c0,1.1,0.7,3,2.1,3C72.7,24.3,73.1,24.2,73.4,23.9z M72.9,27.1c-0.1,0-0.2,0-0.4,0c-0.1,0-1,0-1.7,0.3
				c-0.4,0.1-1.4,0.5-1.4,1.7c0,1.2,1.2,2.1,2.9,2.1c1.6,0,2.4-0.8,2.4-1.8C74.7,28.5,74.2,28,72.9,27.1z M74.1,19.6
				c0.4,0.3,1.2,1,1.2,2.3c0,1.3-0.7,1.8-1.4,2.4c-0.2,0.2-0.5,0.5-0.5,0.8s0.3,0.6,0.4,0.7l0.6,0.5c0.7,0.6,1.4,1.2,1.4,2.4
				c0,1.6-1.5,3.2-4.4,3.2c-2.4,0-3.6-1.2-3.6-2.4c0-0.6,0.3-1.5,1.3-2.1c1-0.6,2.4-0.7,3.2-0.8c-0.2-0.3-0.5-0.6-0.5-1.1
				c0-0.3,0.1-0.5,0.2-0.7c-0.2,0-0.4,0-0.5,0c-1.8,0-2.8-1.3-2.8-2.7c0-0.8,0.4-1.6,1.1-2.3c1-0.8,2.1-0.9,3-0.9h3.4l-1.1,0.6H74.1
				z"/>
			<path fill="#F9F9FA" d="M65.6,25.5c0.4-0.5,0.5-1.2,0.5-1.9c0-1.5-0.7-4.3-2.8-4.3c-0.6,0-1.1,0.2-1.5,0.6
				c-0.7,0.6-0.8,1.3-0.8,2.1c0,1.7,0.8,4.4,2.8,4.4C64.6,26.3,65.3,26,65.6,25.5z M63.6,26.8c-2.7,0-4.1-2.1-4.1-4
				c0-2.2,1.8-4.1,4.3-4.1c2.5,0,4,1.9,4,4C67.8,24.7,66.3,26.8,63.6,26.8z"/>
			<path fill="#F9F9FA" d="M56.6,25.5c0.4-0.5,0.5-1.2,0.5-1.9c0-1.5-0.7-4.3-2.8-4.3c-0.5,0-1.1,0.2-1.5,0.6
				c-0.7,0.6-0.8,1.3-0.8,2.1c0,1.7,0.8,4.4,2.8,4.4C55.6,26.3,56.2,26,56.6,25.5z M54.5,26.8c-2.7,0-4.1-2.1-4.1-4
				c0-2.2,1.8-4.1,4.3-4.1c2.4,0,4,1.9,4,4C58.8,24.7,57.2,26.8,54.5,26.8z"/>
			<path fill="#F9F9FA" d="M49.2,26.6l-2.4,0.6c-1,0.2-1.8,0.3-2.8,0.3c-4.6,0-6.4-3.4-6.4-6.1c0-3.3,2.5-6.3,6.8-6.3
				c0.9,0,1.8,0.1,2.6,0.4c1.3,0.4,1.8,0.8,2.2,1.1l-1.4,1.3l-0.6,0.1l0.4-0.7C47,16.6,46,15.5,44,15.5c-2.6,0-4.6,2-4.6,5
				c0,3.2,2.3,6.2,5.9,6.2c1.1,0,1.6-0.2,2.1-0.4v-2.7l-2.5,0.1l1.3-0.7h3.6l-0.4,0.4c-0.1,0.1-0.1,0.1-0.2,0.3c0,0.1,0,0.6,0,0.8
				V26.6z"/>
			<path fill="#F9F9FA" d="M79.4,26.1c-0.6-0.1-0.7-0.2-0.7-0.8v-0.2v-9.4v-0.1c0.1-0.6,0.2-0.7,0.8-1h-2.4l-1.3,0.6h1.3v0l0,0v9.9
				v0.6c0,0.3-0.1,0.4-0.5,0.9h3l0.6-0.4C79.9,26.1,79.7,26.1,79.4,26.1z"/>
			<path fill="#F9F9FA" d="M84.6,21.2c0.3-0.1,0.5-0.2,0.5-0.5c0-0.7-0.8-1.4-1.7-1.4c-0.7,0-1.9,0.5-1.9,2.3c0,0.3,0,0.6,0.1,0.9
				L84.6,21.2z M86.2,26.2c-0.2,0.1-0.4,0.2-0.5,0.3c-0.6,0.2-1.1,0.3-1.6,0.3c-0.5,0-1.4,0-2.2-0.7c-1.2-0.8-1.7-2.3-1.7-3.6
				c0-2.6,2.1-3.9,3.8-3.9c0.6,0,1.2,0.1,1.7,0.5c0.8,0.6,1,1.3,1.2,1.7l-3.9,1.6l-1.3,0.1c0.4,2.1,1.8,3.4,3.4,3.4
				c0.8,0,1.5-0.3,2-0.6L86.2,26.2z"/>
			<g>
				<polygon fill="#F9F9FA" points="87.8,18.9 87.8,20 87.7,20 87.7,18.9 87.3,18.9 87.3,18.7 88.2,18.7 88.2,18.9 				"/>
				<polygon fill="#F9F9FA" points="89.3,20 89.3,18.8 89.3,18.8 89,20 88.9,20 88.5,18.8 88.5,20 88.4,20 88.4,18.7 88.6,18.7 
					88.9,19.7 89.2,18.7 89.4,18.7 89.4,20 				"/>
			</g>
		</g>
		<g>
			<path fill="#FBFCFC" d="M39.7,10.1c-0.3-0.9-0.5-1.4-0.5-1.5h0c0,0.1-0.2,0.6-0.5,1.5H39.7z M40.9,11.6h-0.8c0-0.1-0.1-0.5-0.2-1
				h-1.2c-0.2,0.5-0.2,0.9-0.2,1h-0.8c0-0.1,0.2-0.6,0.6-1.7c0.4-1.1,0.6-1.6,0.6-1.7h1c0,0.1,0.2,0.7,0.6,1.7
				C40.8,11,40.9,11.5,40.9,11.6z"/>
			<path fill="#FBFCFC" d="M44.3,11.6h-0.7c0-0.1-0.2-0.5-0.7-1.1c-0.5-0.7-0.8-1.2-0.9-1.5h0c0.1,0.4,0.1,0.7,0.1,1
				c0,0.4,0,1,0,1.6h-0.6c0-0.5,0-1.1,0-1.8c0-0.6,0-1.2,0-1.6h0.8c0,0.1,0.2,0.5,0.7,1.1c0.5,0.7,0.7,1.2,0.8,1.4h0
				c0-0.4-0.1-0.8-0.1-1.1c0-0.5,0-1,0-1.5h0.7c0,0.4,0,1,0,1.6C44.3,10.5,44.3,11.1,44.3,11.6z"/>
			<path fill="#FBFCFC" d="M47.4,9.9c0-0.3-0.1-0.6-0.3-0.9c-0.2-0.2-0.5-0.4-0.9-0.4c-0.1,0-0.2,0-0.3,0c0,0.4,0,0.7,0,1.1
				c0,0.4,0,0.8,0,1.2c0.1,0,0.2,0,0.3,0c0.4,0,0.7-0.1,0.8-0.3C47.3,10.5,47.4,10.2,47.4,9.9z M48.1,9.8c0,0.5-0.2,0.9-0.5,1.3
				c-0.3,0.4-0.8,0.6-1.3,0.6c-0.3,0-0.6,0-1.1,0c0-0.5,0-1.1,0-1.8c0-0.6,0-1.2,0-1.6h0.5l0.3,0h0.3c0.6,0,1.1,0.1,1.4,0.5
				C47.9,9,48.1,9.3,48.1,9.8z"/>
			<path fill="#FBFCFC" d="M50.6,9.2c0-0.4-0.2-0.5-0.7-0.5c-0.2,0-0.3,0-0.4,0c0,0.3,0,0.6,0,1.1l0.2,0C50.3,9.8,50.6,9.6,50.6,9.2
				z M51.6,11.6h-0.8c-0.2-0.6-0.4-1-0.5-1.2c-0.1-0.1-0.3-0.2-0.5-0.2h-0.3c0,0.5,0,0.9,0,1.4h-0.7c0-0.5,0-1.1,0-1.8
				c0-0.6,0-1.2,0-1.6h0.5l0.3,0h0.5c0.8,0,1.2,0.3,1.2,0.8c0,0.4-0.2,0.7-0.7,0.9v0c0.2,0,0.3,0.2,0.5,0.4
				C51.2,10.6,51.3,11,51.6,11.6z"/>
			<path fill="#FBFCFC" d="M54.6,9.9c0-0.4-0.1-0.7-0.3-0.9c-0.2-0.2-0.4-0.4-0.7-0.4c-0.3,0-0.5,0.1-0.6,0.4
				c-0.2,0.2-0.3,0.5-0.3,0.9c0,0.4,0.1,0.7,0.3,0.9c0.2,0.2,0.4,0.3,0.7,0.3c0.3,0,0.5-0.1,0.6-0.3C54.5,10.6,54.6,10.3,54.6,9.9z
				 M55.3,9.8c0,0.5-0.2,1-0.5,1.3c-0.3,0.4-0.7,0.5-1.2,0.5c-0.5,0-0.8-0.2-1.2-0.5C52.1,10.9,52,10.5,52,10c0-0.5,0.2-1,0.5-1.3
				c0.3-0.4,0.7-0.5,1.2-0.5c0.5,0,0.8,0.2,1.2,0.5C55.1,8.9,55.3,9.3,55.3,9.8z"/>
			<path fill="#FBFCFC" d="M56.8,11.6H56c0-0.5,0-1.1,0-1.8c0-0.6,0-1.2,0-1.6h0.7c0,0.4,0,1,0,1.6C56.7,10.5,56.7,11.1,56.8,11.6z"
				/>
			<path fill="#FBFCFC" d="M59.8,9.9c0-0.3-0.1-0.6-0.3-0.9c-0.2-0.2-0.5-0.4-0.9-0.4c-0.1,0-0.2,0-0.3,0c0,0.4,0,0.7,0,1.1
				c0,0.4,0,0.8,0,1.2c0.1,0,0.2,0,0.3,0c0.4,0,0.7-0.1,0.8-0.3C59.7,10.5,59.8,10.2,59.8,9.9z M60.5,9.8c0,0.5-0.2,0.9-0.5,1.3
				c-0.3,0.4-0.8,0.6-1.3,0.6c-0.3,0-0.6,0-1.1,0c0-0.5,0-1.1,0-1.8c0-0.6,0-1.2,0-1.6h0.5l0.3,0h0.3c0.6,0,1.1,0.1,1.4,0.5
				C60.4,9,60.5,9.3,60.5,9.8z"/>
			<path fill="#FBFCFC" d="M64.4,10.1c-0.3-0.9-0.4-1.4-0.4-1.5h0c0,0.1-0.2,0.6-0.5,1.5L64.4,10.1L64.4,10.1z M65.5,11.6h-0.8
				c0-0.1-0.1-0.5-0.2-1h-1.2c-0.2,0.5-0.2,0.9-0.2,1h-0.8c0-0.1,0.2-0.6,0.6-1.7c0.4-1.1,0.6-1.6,0.6-1.7h1c0,0.1,0.2,0.7,0.5,1.7
				C65.4,11,65.5,11.5,65.5,11.6z"/>
			<path fill="#FBFCFC" d="M67.9,9.2c0-0.4-0.3-0.6-0.7-0.6c-0.1,0-0.3,0-0.4,0c0,0.3,0,0.7,0,1.1H67C67.6,9.8,67.9,9.6,67.9,9.2z
				 M68.6,9.1c0,0.4-0.2,0.7-0.5,0.9c-0.3,0.2-0.7,0.3-1.1,0.3l-0.2,0c0,0.3,0,0.8,0,1.3h-0.7c0-0.5,0-1.1,0-1.8c0-0.6,0-1.2,0-1.6
				h0.5l0.4,0h0.5c0.3,0,0.6,0.1,0.8,0.2C68.5,8.5,68.6,8.8,68.6,9.1z"/>
			<path fill="#FBFCFC" d="M71,9.2c0-0.4-0.2-0.6-0.7-0.6c-0.1,0-0.3,0-0.4,0c0,0.3,0,0.7,0,1.1h0.2C70.7,9.8,71,9.6,71,9.2z
				 M71.7,9.1c0,0.4-0.2,0.7-0.5,0.9c-0.3,0.2-0.7,0.3-1.1,0.3l-0.2,0c0,0.3,0,0.8,0,1.3h-0.7c0-0.5,0-1.1,0-1.8c0-0.6,0-1.2,0-1.6
				h0.5l0.4,0h0.5c0.3,0,0.6,0.1,0.8,0.2C71.6,8.5,71.7,8.8,71.7,9.1z"/>
			<path fill="#FBFCFC" d="M76.1,9.9c0-0.4-0.1-0.7-0.3-0.9c-0.2-0.2-0.4-0.4-0.7-0.4c-0.3,0-0.5,0.1-0.7,0.4
				c-0.2,0.2-0.3,0.5-0.3,0.9c0,0.4,0.1,0.7,0.3,0.9c0.2,0.2,0.4,0.3,0.7,0.3c0.2,0,0.5-0.1,0.6-0.3C76,10.6,76.1,10.3,76.1,9.9z
				 M76.8,9.8c0,0.5-0.2,1-0.5,1.3c-0.3,0.4-0.7,0.5-1.2,0.5c-0.5,0-0.8-0.2-1.1-0.5c-0.3-0.3-0.5-0.7-0.5-1.2c0-0.5,0.2-1,0.5-1.3
				c0.3-0.4,0.7-0.5,1.2-0.5c0.4,0,0.8,0.2,1.1,0.5C76.7,8.9,76.8,9.3,76.8,9.8z"/>
			<path fill="#FBFCFC" d="M80.4,11.6h-0.6c0-0.1-0.2-0.5-0.7-1.1c-0.5-0.7-0.8-1.2-0.9-1.5h0c0.1,0.4,0.1,0.7,0.1,1
				c0,0.4,0,1,0,1.6h-0.6c0-0.5,0-1.1,0-1.8c0-0.6,0-1.2,0-1.6h0.8c0,0.1,0.2,0.5,0.6,1.1c0.5,0.7,0.7,1.2,0.8,1.4h0
				c0-0.4-0.1-0.8-0.1-1.1c0-0.5,0-1,0-1.5h0.7c0,0.4,0,1,0,1.6C80.3,10.5,80.3,11.1,80.4,11.6z"/>
		</g>
		<path fill="#FFFFFF" d="M31.9,21.6c-0.2,0.1-2.2,1.3-4.9,2.9l-2.9-2.9l2.9-2.9L31.9,21.6L31.9,21.6z M16.7,30.5l-3.4,2l9.9-9.9
			l2.6,2.6L16.7,30.5z M13.3,10.8l12.5,7.3l-2.6,2.6L13.3,10.8z M10,33.8c0-2.4,0-13.5,0-19.7l0-4.8l12.2,12.3L10,33.8z M32.6,20.5
			C31.9,20.1,11,7.9,10.8,7.7c-0.7-0.4-1.4-0.4-1.8,0C8.7,8,8.6,8.4,8.6,8.9l0,5.2c0,9.9,0,19.6,0,20.2c0,0.4,0.1,0.7,0.3,0.9
			c0,0.1,0.1,0.3,0.2,0.4c0.1,0.1,0.3,0.2,0.5,0.2c0.1,0,0.2,0,0.3-0.1H10c0.2,0,0.4-0.1,0.6-0.2l6.8-4c8.1-4.7,14.8-8.6,15.2-8.9
			c0.5-0.4,0.8-0.8,0.8-1.2C33.4,21.3,33.2,20.8,32.6,20.5z"/>
	</g>
</g>
</svg>
