<?xml version="1.0" encoding="utf-8"?>
<!-- Generator: Adobe Illustrator 15.0.2, SVG Export Plug-In . SVG Version: 6.00 Build 0)  -->
<!DOCTYPE svg PUBLIC "-//W3C//DTD SVG 1.1//EN" "http://www.w3.org/Graphics/SVG/1.1/DTD/svg11.dtd">
<svg version="1.1" id="Layer_1" xmlns="http://www.w3.org/2000/svg" xmlns:xlink="http://www.w3.org/1999/xlink" x="0px" y="0px"
	 width="36.86px" height="36.54px" viewBox="0 0 36.86 36.54" enable-background="new 0 0 36.86 36.54" xml:space="preserve">
<g>
	<g>
		<path fill-rule="evenodd" clip-rule="evenodd" fill="#FFFFFF" d="M2.05,17.32c0-8.84,7.16-16,16-16s16,7.16,16,16s-7.16,16-16,16
			S2.05,26.16,2.05,17.32z"/>
	</g>
	<g>
		<path fill-rule="evenodd" clip-rule="evenodd" fill="#F19300" d="M27.72,14.59l0.01,0.6c0,6.08-4.67,13.1-13.22,13.1
			c-2.62,0-5.06-0.76-7.12-2.07c0.37,0.04,0.74,0.06,1.11,0.06c2.18,0,4.18-0.73,5.77-1.97c-2.03-0.04-3.75-1.37-4.34-3.2
			c0.28,0.06,0.57,0.09,0.88,0.09c0.42,0,0.83-0.06,1.22-0.17C9.9,20.61,8.3,18.75,8.3,16.52v-0.06c0.63,0.35,1.35,0.55,2.11,0.58
			c-1.25-0.83-2.07-2.24-2.07-3.83c0-0.85,0.23-1.64,0.63-2.32c2.29,2.79,5.71,4.62,9.57,4.81c-0.08-0.34-0.12-0.69-0.12-1.05
			c0-2.54,2.08-4.6,4.65-4.6c1.33,0,2.54,0.56,3.39,1.45c1.06-0.2,2.05-0.59,2.95-1.12c-0.35,1.08-1.09,1.98-2.05,2.55
			c0.94-0.11,1.84-0.36,2.67-0.72C29.41,13.13,28.62,13.94,27.72,14.59z M18.43,0C8.25,0,0,8.18,0,18.27
			c0,10.09,8.25,18.27,18.43,18.27c10.18,0,18.43-8.18,18.43-18.27C36.86,8.18,28.61,0,18.43,0z"/>
	</g>
</g>
</svg>
