<svg version="1.1" xmlns="http://www.w3.org/2000/svg" xmlns:xlink="http://www.w3.org/1999/xlink" width="116.25px" height="41px" viewBox="0 0 116.25 41">
<g>
	<path class="background" fill="#460200" d="M111.34,0H4.91C2.2,0,0,2.24,0,4.99v31.03C0,38.77,2.2,41,4.91,41h106.43c2.71,0,4.91-2.23,4.91-4.98V4.99
		C116.25,2.24,114.05,0,111.34,0z"/>
	<g>
		<path fill="#FFFFFF" d="M84.53,9.85l0.06,0.76h0.03c0.22-0.4,0.77-0.88,1.6-0.88c0.88,0,1.78,0.58,1.78,2.18v3.02h-1.26v-2.87
			c0-0.73-0.27-1.28-0.96-1.28c-0.5,0-0.85,0.36-0.99,0.75c-0.04,0.1-0.06,0.26-0.06,0.41v2.99h-1.26v-3.57
			c0-0.58-0.02-1.07-0.04-1.51H84.53z"/>
		<rect x="66.07" y="7.52" fill="#FFFFFF" width="1.26" height="7.41"/>
		<path fill="#FFFFFF" d="M48.56,7.73c0.44,0,0.7,0.3,0.71,0.7c0,0.38-0.27,0.69-0.72,0.69c-0.42,0-0.69-0.31-0.69-0.69
			C47.86,8.03,48.14,7.73,48.56,7.73z"/>
		<rect x="47.93" y="9.85" fill="#FFFFFF" width="1.26" height="5.08"/>
		<path fill="#FFFFFF" d="M39.13,14.93h-1.24l-1.86-5.08h1.37l0.81,2.58c0.14,0.44,0.24,0.85,0.34,1.27h0.03
			c0.09-0.42,0.2-0.82,0.34-1.27l0.8-2.58h1.33L39.13,14.93z"/>
		<rect x="51.18" y="7.52" fill="#FFFFFF" width="1.26" height="7.41"/>
		<path fill="#FFFFFF" d="M73.22,30.73c-0.88,0.8-2.1,1.2-3.67,1.2c-1.45,0-2.61-0.29-3.49-0.85l0.5-1.83
			c0.95,0.57,1.99,0.85,3.12,0.85c0.81,0,1.44-0.19,1.9-0.56c0.45-0.37,0.68-0.86,0.68-1.49c0-0.55-0.19-1.02-0.56-1.4
			c-0.38-0.38-0.99-0.73-1.86-1.05c-2.36-0.89-3.54-2.2-3.54-3.92c0-1.12,0.41-2.04,1.25-2.76c0.83-0.71,1.93-1.07,3.31-1.07
			c1.22,0,2.24,0.21,3.06,0.64l-0.55,1.79c-0.76-0.42-1.62-0.63-2.58-0.63c-0.76,0-1.36,0.2-1.79,0.57
			c-0.36,0.34-0.54,0.75-0.54,1.24c0,0.54,0.21,0.98,0.62,1.34c0.36,0.32,1.01,0.67,1.96,1.05c1.16,0.47,2.01,1.03,2.56,1.67
			c0.55,0.63,0.82,1.42,0.82,2.37C74.42,29.05,74.02,30,73.22,30.73z"/>
		<path fill="#FFFFFF" d="M80.84,23.5h-2.39v4.8c0,1.22,0.43,1.82,1.27,1.82c0.38,0,0.7-0.03,0.96-0.1l0.06,1.66
			c-0.43,0.17-0.99,0.25-1.68,0.25c-0.85,0-1.52-0.26-2-0.79c-0.48-0.53-0.72-1.42-0.72-2.66V23.5h-1.42v-1.64h1.42v-1.8l2.11-0.65
			v2.45h2.39V23.5z"/>
		<path fill="#FFFFFF" d="M91.93,9.85h0.71V8.9l1.24-0.36v1.31h1.21v0.96h-1.21v2.24c0,0.63,0.17,0.94,0.65,0.94
			c0.23,0,0.35-0.01,0.5-0.05l0.02,0.97c-0.19,0.07-0.53,0.13-0.92,0.13c-0.47,0-0.85-0.15-1.09-0.41c-0.28-0.29-0.4-0.76-0.4-1.43
			v-2.39h-0.71V9.85z"/>
		<path fill="#FFFFFF" d="M97.47,23.79c-0.21-0.04-0.44-0.06-0.68-0.06c-0.76,0-1.34,0.3-1.76,0.88c-0.36,0.51-0.53,1.15-0.53,1.94
			v5.18h-2.16v-6.76c0-1.14-0.02-2.17-0.06-3.11h1.88l0.08,1.89h0.06c0.22-0.65,0.58-1.17,1.08-1.56c0.48-0.35,1-0.52,1.56-0.52
			c0.2,0,0.38,0.01,0.53,0.03V23.79z"/>
		<path fill="#FFFFFF" d="M97.8,11.88v3.05h-1.26V7.52h1.26v3.02h0.02c0.16-0.24,0.37-0.44,0.63-0.58c0.26-0.14,0.55-0.23,0.87-0.23
			c0.86,0,1.75,0.58,1.75,2.21v2.99h-1.26v-2.86c0-0.73-0.27-1.29-0.97-1.29c-0.49,0-0.84,0.33-0.99,0.72
			C97.81,11.61,97.8,11.75,97.8,11.88z"/>
		<path fill-rule="evenodd" clip-rule="evenodd" fill="#FFFFFF" d="M22.04,28.94H10.8V12.08h11.24V28.94z M16.42,32.26
			c-0.63,0-1.15-0.52-1.15-1.16s0.52-1.16,1.15-1.16s1.14,0.52,1.14,1.16S17.05,32.26,16.42,32.26z M15.32,9.83h2.2
			c0.14,0,0.26,0.12,0.26,0.27c0,0.14-0.12,0.26-0.26,0.26h-2.2c-0.14,0-0.26-0.12-0.26-0.26C15.06,9.95,15.18,9.83,15.32,9.83z
			 M21.17,7.56h-9.5c-1.22,0-2.21,1-2.21,2.24v21.41c0,1.24,0.99,2.24,2.21,2.24h9.5c1.22,0,2.21-1,2.21-2.24V9.8
			C23.38,8.56,22.39,7.56,21.17,7.56z"/>
		<path fill-rule="evenodd" clip-rule="evenodd" fill="#FFFFFF" d="M48.66,29.27c-0.45,0.64-1.09,0.95-1.9,0.95
			c-0.69,0-1.26-0.24-1.69-0.73c-0.43-0.5-0.65-1.1-0.65-1.82v-1.64c0-0.18,0.04-0.4,0.1-0.67c0.14-0.59,0.42-1.06,0.85-1.42
			c0.44-0.36,0.92-0.54,1.45-0.54c0.79,0,1.41,0.33,1.88,0.98c0.43,0.62,0.64,1.41,0.64,2.37C49.34,27.8,49.11,28.64,48.66,29.27z
			 M50.39,23.04c-0.77-0.92-1.72-1.38-2.87-1.38c-1.47,0-2.56,0.59-3.28,1.77H44.2l-0.12-1.57h-1.9c0.06,1.11,0.08,2.19,0.08,3.24
			v10.63h2.16v-5.18c0.56,0.93,1.49,1.4,2.78,1.4c1.19,0,2.19-0.43,2.99-1.3c0.9-0.97,1.35-2.29,1.35-3.97
			C51.54,25.17,51.16,23.96,50.39,23.04z"/>
		<path fill-rule="evenodd" clip-rule="evenodd" fill="#FFFFFF" d="M88.13,29.11c-0.46,0.8-1.11,1.19-1.93,1.19
			c-0.84,0-1.5-0.39-1.96-1.17c-0.39-0.64-0.58-1.42-0.58-2.33c0-0.93,0.19-1.71,0.58-2.36c0.45-0.78,1.11-1.17,1.98-1.17
			c0.84,0,1.48,0.39,1.94,1.17c0.38,0.65,0.58,1.42,0.58,2.33C88.74,27.67,88.54,28.45,88.13,29.11z M89.74,23.11
			c-0.87-0.97-2.01-1.45-3.45-1.45c-1.48,0-2.65,0.49-3.52,1.46c-0.88,0.98-1.31,2.23-1.31,3.76c0,1.45,0.42,2.67,1.27,3.63
			c0.84,0.96,1.98,1.44,3.41,1.44c1.48,0,2.66-0.5,3.56-1.5c0.85-0.98,1.28-2.22,1.28-3.74C90.98,25.24,90.56,24.03,89.74,23.11z"/>
		<path fill-rule="evenodd" clip-rule="evenodd" fill="#FFFFFF" d="M59.34,29.27c-0.45,0.64-1.09,0.95-1.9,0.95
			c-0.69,0-1.26-0.24-1.69-0.73c-0.43-0.5-0.65-1.1-0.65-1.82v-1.64c0-0.18,0.03-0.4,0.1-0.67c0.13-0.59,0.42-1.06,0.85-1.42
			c0.44-0.36,0.91-0.54,1.45-0.54c0.79,0,1.41,0.33,1.88,0.98c0.43,0.62,0.64,1.41,0.64,2.37C60.02,27.8,59.8,28.64,59.34,29.27z
			 M61.07,23.04c-0.77-0.92-1.72-1.38-2.87-1.38c-1.47,0-2.56,0.59-3.28,1.77h-0.04l-0.12-1.57h-1.9c0.05,1.11,0.08,2.19,0.08,3.24
			v10.63h2.16v-5.18c0.56,0.93,1.49,1.4,2.77,1.4c1.2,0,2.2-0.43,3-1.3c0.9-0.97,1.35-2.29,1.35-3.97
			C62.22,25.17,61.84,23.96,61.07,23.04z"/>
		<path fill-rule="evenodd" clip-rule="evenodd" fill="#FFFFFF" d="M33.38,26.03l1.12-3.58c0.3-1.14,0.51-1.99,0.65-2.57h0.03
			c0.33,1.35,0.56,2.21,0.69,2.57L37,26.03H33.38z M36.58,18.05H33.9l-4.34,13.68h2.24l1.2-4.02h4.38l1.26,4.02h2.3L36.58,18.05z"/>
		<path fill-rule="evenodd" clip-rule="evenodd" fill="#FFFFFF" d="M100.24,25.76c0.06-0.66,0.28-1.23,0.64-1.7
			c0.44-0.59,1.01-0.9,1.72-0.9c0.77,0,1.34,0.31,1.72,0.92c0.29,0.47,0.43,1.03,0.41,1.68H100.24z M106.79,26.33
			c0-1.23-0.28-2.27-0.86-3.11c-0.71-1.05-1.77-1.58-3.18-1.58c-1.42,0-2.55,0.53-3.4,1.58c-0.79,0.99-1.2,2.23-1.2,3.72
			c0,1.51,0.44,2.72,1.3,3.62c0.86,0.9,2.04,1.35,3.54,1.35c1.26,0,2.35-0.2,3.26-0.61l-0.34-1.53c-0.78,0.32-1.65,0.48-2.62,0.48
			c-0.86,0-1.57-0.23-2.11-0.7c-0.61-0.51-0.92-1.25-0.94-2.22h6.48C106.77,27.05,106.79,26.72,106.79,26.33z"/>
		<path fill-rule="evenodd" clip-rule="evenodd" fill="#FFFFFF" d="M44.74,13.15c0,0.09,0,0.18-0.03,0.28c-0.13,0.36-0.49,0.7-1,0.7
			c-0.4,0-0.72-0.23-0.72-0.73c0-0.78,0.85-0.96,1.75-0.95V13.15z M45.97,13.71v-1.83c0-1.11-0.46-2.15-2.06-2.15
			c-0.8,0-1.44,0.22-1.81,0.45l0.24,0.84c0.34-0.22,0.86-0.38,1.35-0.38c0.88,0,1.02,0.56,1.02,0.89v0.08
			c-1.85-0.01-2.97,0.65-2.97,1.92c0,0.77,0.56,1.51,1.57,1.51c0.66,0,1.18-0.28,1.48-0.67h0.03l0.09,0.56h1.14
			C45.99,14.62,45.97,14.17,45.97,13.71z"/>
		<path fill-rule="evenodd" clip-rule="evenodd" fill="#FFFFFF" d="M31.69,11.97l0.53-1.73c0.12-0.42,0.23-0.91,0.33-1.32h0.02
			c0.11,0.41,0.22,0.89,0.35,1.32l0.55,1.73H31.69z M33.42,7.9H31.8l-2.22,7.03h1.31l0.59-1.99h2.19l0.63,1.99h1.37L33.42,7.9z"/>
		<path fill-rule="evenodd" clip-rule="evenodd" fill="#FFFFFF" d="M62.07,14.03c-0.55,0-0.99-0.37-1.12-0.89
			c-0.03-0.1-0.04-0.2-0.04-0.31v-0.82c0-0.13,0.02-0.24,0.05-0.34c0.13-0.56,0.6-0.93,1.12-0.93c0.84,0,1.26,0.73,1.26,1.62
			C63.34,13.4,62.86,14.03,62.07,14.03z M62.54,9.73c-0.75,0-1.3,0.33-1.61,0.82h-0.02V7.52h-1.26v5.98c0,0.52-0.02,1.09-0.04,1.43
			h1.08l0.06-0.76h0.02c0.36,0.62,0.94,0.87,1.58,0.87c1.13,0,2.28-0.9,2.28-2.73C64.64,10.77,63.76,9.73,62.54,9.73z"/>
		<path fill-rule="evenodd" clip-rule="evenodd" fill="#FFFFFF" d="M70.02,11.85c0.05-0.52,0.38-1.24,1.16-1.24
			c0.84,0,1.05,0.77,1.04,1.24H70.02z M73.41,12.21c0-1.12-0.54-2.48-2.16-2.48c-1.6,0-2.45,1.33-2.45,2.74
			c0,1.55,0.96,2.56,2.58,2.56c0.72,0,1.32-0.13,1.75-0.32l-0.18-0.88c-0.4,0.14-0.81,0.23-1.39,0.23c-0.81,0-1.51-0.39-1.54-1.31
			h3.35C73.39,12.64,73.41,12.45,73.41,12.21z"/>
		<path fill-rule="evenodd" clip-rule="evenodd" fill="#FFFFFF" d="M79.66,14.12c-0.76,0-1.24-0.74-1.24-1.73
			c0-0.84,0.36-1.73,1.25-1.73c0.86,0,1.22,0.92,1.22,1.71C80.89,13.41,80.38,14.12,79.66,14.12z M79.7,9.73
			c-1.51,0-2.59,1.03-2.59,2.7c0,1.63,1.1,2.61,2.51,2.61c1.27,0,2.57-0.83,2.57-2.7C82.19,10.8,81.19,9.73,79.7,9.73z"/>
		<path fill-rule="evenodd" clip-rule="evenodd" fill="#FFFFFF" d="M57.09,13.15c0,0.09,0,0.18-0.03,0.28c-0.13,0.36-0.49,0.7-1,0.7
			c-0.4,0-0.72-0.23-0.72-0.73c0-0.78,0.85-0.96,1.75-0.95V13.15z M58.32,13.71v-1.83c0-1.11-0.46-2.15-2.06-2.15
			c-0.8,0-1.44,0.22-1.81,0.45l0.24,0.84c0.34-0.22,0.86-0.38,1.35-0.38c0.88,0,1.02,0.56,1.02,0.89v0.08
			c-1.85-0.01-2.97,0.65-2.97,1.92c0,0.77,0.56,1.51,1.57,1.51c0.66,0,1.18-0.28,1.48-0.67h0.03l0.09,0.56h1.14
			C58.34,14.62,58.32,14.17,58.32,13.71z"/>
		<path fill-rule="evenodd" clip-rule="evenodd" fill="#FFFFFF" d="M103.36,11.85c0.05-0.52,0.38-1.24,1.16-1.24
			c0.84,0,1.05,0.77,1.04,1.24H103.36z M106.75,12.21c0-1.12-0.54-2.48-2.16-2.48c-1.6,0-2.45,1.33-2.45,2.74
			c0,1.55,0.96,2.56,2.58,2.56c0.72,0,1.32-0.13,1.75-0.32l-0.18-0.88c-0.4,0.14-0.81,0.23-1.39,0.23c-0.81,0-1.51-0.39-1.54-1.31
			h3.35C106.73,12.64,106.75,12.45,106.75,12.21z"/>
	</g>
</g>
</svg>
