<?xml version="1.0" encoding="utf-8"?>
<!-- Generator: Adobe Illustrator 15.0.2, SVG Export Plug-In . SVG Version: 6.00 Build 0)  -->
<!DOCTYPE svg PUBLIC "-//W3C//DTD SVG 1.1//EN" "http://www.w3.org/Graphics/SVG/1.1/DTD/svg11.dtd">
<svg version="1.1" id="Layer_1" xmlns="http://www.w3.org/2000/svg" xmlns:xlink="http://www.w3.org/1999/xlink" x="0px" y="0px"
	 width="36.86px" height="36.54px" viewBox="0 0 36.86 36.54" enable-background="new 0 0 36.86 36.54" xml:space="preserve">
<g>
	<g>
		<path fill-rule="evenodd" clip-rule="evenodd" fill="#FFFFFF" d="M2,18C2,9.16,9.16,2,18,2s16,7.16,16,16s-7.16,16-16,16
			S2,26.84,2,18z"/>
	</g>
	<g>
		<path fill-rule="evenodd" clip-rule="evenodd" fill="#EA6F1D" d="M23.31,18.19h-3.19v11.29h-4.73V18.19h-2.25v-3.98h2.25v-2.58
			c0-1.85,0.88-4.73,4.77-4.73l3.5,0.01v3.87h-2.54c-0.41,0-1,0.21-1,1.08v2.35h3.6L23.31,18.19z M18.43,0C8.25,0,0,8.18,0,18.27
			s8.25,18.27,18.43,18.27c10.18,0,18.43-8.18,18.43-18.27S28.61,0,18.43,0z"/>
	</g>
</g>
</svg>
