<svg version="1.1" xmlns="http://www.w3.org/2000/svg" xmlns:xlink="http://www.w3.org/1999/xlink" width="111.31px" height="40.89px" viewBox="0 0 111.31 40.89">
<g>
	<path class="background" fill="#460200" d="M111.31,35.36c0,3.05-2.44,5.53-5.44,5.53H5.44c-3,0-5.44-2.48-5.44-5.53V5.53C0,2.47,2.44,0,5.44,0h100.43
		c3,0,5.44,2.47,5.44,5.53V35.36z"/>
	<g>
		<g>
			<g>
				<path fill-rule="evenodd" clip-rule="evenodd" fill="#FFFFFF" d="M24.96,8.68c-1.19,0.42-2.06,0.79-2.06,3.09v1.11l0.72-0.15
					v-0.95C23.6,10.21,24,9.89,25.04,9.43C25.03,9.14,25.01,8.89,24.96,8.68z"/>
				<path fill-rule="evenodd" clip-rule="evenodd" fill="#FFFFFF" d="M27.03,8.19c0.05,0.22,0.09,0.46,0.11,0.72
					c1.86-0.27,1.83,0.51,1.83,2.14v0.6l0.7-0.15v-0.45C29.67,8.52,29.28,7.85,27.03,8.19z"/>
				<path fill-rule="evenodd" clip-rule="evenodd" fill="#FFFFFF" d="M19.7,13.53v-3.32c-0.02-2.06,1.02-2.69,2.96-3.15
					c2.91-0.69,3.09,1.21,3.09,2.43v2.81l0.72-0.15v-2.6c-0.01-2.3-0.72-4.01-3.96-3.27c-1.74,0.4-3.52,0.85-3.52,3.86v3.53
					L19.7,13.53z"/>
			</g>
			<path fill-rule="evenodd" clip-rule="evenodd" fill="#FFFFFF" d="M28.23,22.26h-5.48v-4.02l5.48-0.82V22.26z M28.23,27.94
				l-5.48-0.81v-4.32h5.48V27.94z M22.2,22.26h-4.34v-3.37l4.34-0.62V22.26z M22.2,27.1l-4.34-0.62v-3.67h4.34V27.1z M33.23,11.65
				l-19.59,3.98v14.46l19.59,3.97l3.92-1.44V13.1L33.23,11.65z"/>
		</g>
		<g>
			<path fill-rule="evenodd" clip-rule="evenodd" fill="#FFFFFF" d="M52.76,19.54h-0.6l-2.31-7.92c-0.11-0.41-0.18-0.74-0.19-1
				h-0.03c-0.02,0.23-0.1,0.56-0.23,0.98l-2.46,7.94h-0.59L43.26,9.01h0.81l2.37,8.44c0.09,0.33,0.16,0.64,0.22,0.93h0.03l0.03-0.17
				l2.79-9.2h0.36l2.35,8.44c0.12,0.43,0.19,0.74,0.22,0.93h0.03l0.05-0.22l2.5-9.15h0.78L52.76,19.54z"/>
			<path fill-rule="evenodd" clip-rule="evenodd" fill="#FFFFFF" d="M57.21,19.54v-7.52h0.66v7.52H57.21z M57.53,10.12
				c-0.14,0-0.27-0.05-0.38-0.16c-0.11-0.11-0.17-0.24-0.17-0.41c0-0.16,0.06-0.29,0.17-0.39c0.11-0.1,0.24-0.15,0.38-0.15
				c0.15,0,0.28,0.05,0.4,0.14c0.11,0.1,0.17,0.23,0.17,0.4c0,0.16-0.06,0.29-0.17,0.41C57.82,10.07,57.69,10.12,57.53,10.12z"/>
			<path fill-rule="evenodd" clip-rule="evenodd" fill="#FFFFFF" d="M65.14,19.54v-4.38c0-1.8-0.65-2.71-1.93-2.71
				c-0.7,0-1.29,0.27-1.75,0.8s-0.7,1.18-0.7,1.97v4.32H60.1v-7.52h0.66v1.37h0.03c0.54-1.04,1.39-1.55,2.54-1.55
				c0.8,0,1.42,0.26,1.84,0.8s0.63,1.32,0.63,2.33v4.57H65.14z"/>
			<path fill-rule="evenodd" clip-rule="evenodd" fill="#FFFFFF" d="M73.15,14.97c0-0.73-0.23-1.33-0.68-1.8
				c-0.45-0.48-1.03-0.72-1.74-0.72c-0.79,0-1.43,0.31-1.93,0.93s-0.76,1.44-0.76,2.48c0,0.99,0.22,1.78,0.66,2.37
				s1.04,0.88,1.79,0.88c0.8,0,1.44-0.25,1.93-0.76c0.49-0.51,0.73-1.17,0.73-1.98V14.97z M73.15,19.54v-1.36h-0.03
				c-0.25,0.47-0.61,0.85-1.08,1.13c-0.48,0.28-1.01,0.42-1.59,0.42c-0.93,0-1.68-0.35-2.25-1.03c-0.57-0.69-0.85-1.62-0.85-2.79
				c0-0.78,0.14-1.48,0.42-2.1c0.29-0.62,0.69-1.1,1.21-1.45c0.51-0.35,1.1-0.52,1.77-0.52c1.11,0,1.9,0.46,2.37,1.39h0.03V8.4h0.67
				v11.14H73.15z"/>
			<path fill-rule="evenodd" clip-rule="evenodd" fill="#FFFFFF" d="M79.07,12.45c-0.88,0-1.57,0.3-2.09,0.9s-0.78,1.43-0.78,2.49
				c0,0.99,0.26,1.79,0.77,2.38c0.52,0.59,1.21,0.89,2.07,0.89c0.88,0,1.57-0.29,2.06-0.88c0.48-0.59,0.73-1.41,0.73-2.45
				c0-1.08-0.24-1.9-0.72-2.47S79.95,12.45,79.07,12.45z M79.02,19.73c-1.07,0-1.93-0.36-2.56-1.08c-0.64-0.71-0.96-1.65-0.96-2.83
				c0-1.22,0.33-2.2,0.98-2.91c0.65-0.72,1.52-1.07,2.62-1.07c1.05,0,1.89,0.35,2.5,1.05c0.62,0.71,0.92,1.68,0.92,2.91
				c0,1.17-0.32,2.12-0.95,2.84C80.93,19.37,80.08,19.73,79.02,19.73z"/>
			<path fill-rule="evenodd" clip-rule="evenodd" fill="#FFFFFF" d="M90.5,19.54h-0.63l-1.61-5.67c-0.03-0.1-0.07-0.31-0.12-0.63
				h-0.03c-0.01,0.1-0.06,0.3-0.15,0.62l-1.81,5.68h-0.62l-2.24-7.52h0.74l1.73,6c0.04,0.17,0.08,0.38,0.1,0.63h0.05
				c0.01-0.11,0.06-0.32,0.14-0.63l1.88-6h0.46l1.68,6c0.04,0.15,0.07,0.37,0.1,0.63h0.06c0-0.13,0.04-0.34,0.12-0.63l1.76-6h0.69
				L90.5,19.54z"/>
			<path fill-rule="evenodd" clip-rule="evenodd" fill="#FFFFFF" d="M93.72,19.21V18.4c0.22,0.19,0.51,0.36,0.88,0.5
				c0.36,0.14,0.68,0.21,0.96,0.21c1.16,0,1.74-0.48,1.74-1.45c0-0.31-0.12-0.58-0.35-0.82c-0.24-0.23-0.66-0.48-1.28-0.76
				c-0.67-0.29-1.16-0.6-1.47-0.93c-0.3-0.33-0.46-0.75-0.46-1.26c0-0.6,0.23-1.09,0.69-1.48c0.46-0.38,1.03-0.57,1.71-0.57
				c0.63,0,1.18,0.13,1.64,0.39V13c-0.56-0.36-1.13-0.55-1.71-0.55c-0.48,0-0.88,0.13-1.18,0.39c-0.3,0.26-0.45,0.59-0.45,1
				c0,0.29,0.04,0.52,0.13,0.68c0.09,0.16,0.25,0.31,0.46,0.46c0.21,0.15,0.53,0.32,0.94,0.5c0.79,0.36,1.33,0.69,1.61,0.99
				c0.27,0.31,0.41,0.7,0.41,1.19c0,0.62-0.22,1.12-0.68,1.5c-0.45,0.38-1.05,0.57-1.81,0.57C94.79,19.73,94.19,19.56,93.72,19.21z"
				/>
			<path fill-rule="evenodd" clip-rule="evenodd" fill="#FFFFFF" d="M44.94,23.42v4.97h1.48c0.94,0,1.66-0.23,2.14-0.68
				c0.49-0.45,0.73-1.09,0.73-1.92c0-1.58-0.9-2.37-2.69-2.37H44.94z M44.94,29.06v4.22h-0.71V22.75h2.5c1.08,0,1.9,0.25,2.46,0.75
				c0.56,0.49,0.84,1.23,0.84,2.2c0,1.01-0.33,1.83-0.98,2.44c-0.65,0.61-1.52,0.92-2.61,0.92H44.94z"/>
			<path fill-rule="evenodd" clip-rule="evenodd" fill="#FFFFFF" d="M57.04,33.28v-4.51c0-0.89-0.16-1.54-0.48-1.96
				c-0.32-0.41-0.82-0.62-1.49-0.62c-0.45,0-0.86,0.12-1.23,0.37c-0.37,0.24-0.66,0.59-0.86,1.03c-0.21,0.45-0.31,0.95-0.31,1.53
				v4.16H52V22.14h0.67v4.97h0.02c0.59-1.02,1.44-1.54,2.55-1.54c0.81,0,1.42,0.26,1.84,0.79c0.42,0.52,0.63,1.27,0.63,2.26v4.66
				H57.04z"/>
			<path fill-rule="evenodd" clip-rule="evenodd" fill="#FFFFFF" d="M62.81,26.19c-0.87,0-1.57,0.3-2.09,0.9
				c-0.51,0.6-0.77,1.43-0.77,2.49c0,0.99,0.25,1.79,0.77,2.38c0.51,0.59,1.2,0.89,2.07,0.89c0.88,0,1.56-0.3,2.05-0.88
				c0.49-0.59,0.73-1.41,0.73-2.45c0-1.08-0.24-1.9-0.71-2.47C64.38,26.48,63.7,26.19,62.81,26.19z M62.76,33.47
				c-1.07,0-1.92-0.36-2.56-1.08c-0.63-0.71-0.95-1.65-0.95-2.83c0-1.23,0.33-2.2,0.97-2.91c0.65-0.72,1.53-1.08,2.62-1.08
				c1.06,0,1.89,0.36,2.51,1.06c0.61,0.71,0.92,1.68,0.92,2.9c0,1.18-0.32,2.13-0.96,2.85C64.67,33.1,63.82,33.47,62.76,33.47z"/>
			<path fill-rule="evenodd" clip-rule="evenodd" fill="#FFFFFF" d="M73,33.28V28.9c0-1.81-0.64-2.71-1.93-2.71
				c-0.7,0-1.29,0.27-1.75,0.8c-0.46,0.52-0.7,1.18-0.7,1.97v4.32h-0.66v-7.52h0.66v1.36h0.03c0.54-1.03,1.39-1.55,2.54-1.55
				c0.8,0,1.42,0.27,1.84,0.81c0.42,0.54,0.63,1.32,0.63,2.32v4.58H73z"/>
			<path fill-rule="evenodd" clip-rule="evenodd" fill="#FFFFFF" d="M80.7,28.93c-0.03-0.87-0.24-1.54-0.62-2.02
				c-0.39-0.48-0.91-0.72-1.58-0.72c-0.7,0-1.27,0.24-1.73,0.71c-0.45,0.48-0.73,1.16-0.84,2.03H80.7z M75.9,29.55
				c0,1.04,0.24,1.85,0.71,2.43c0.48,0.58,1.12,0.87,1.94,0.87c0.83,0,1.64-0.31,2.43-0.94v0.73c-0.77,0.55-1.63,0.83-2.57,0.83
				c-0.98,0-1.75-0.36-2.33-1.07c-0.58-0.72-0.87-1.69-0.87-2.92c0-0.73,0.14-1.39,0.43-1.99c0.29-0.6,0.69-1.07,1.19-1.41
				c0.51-0.34,1.08-0.51,1.7-0.51c0.91,0,1.61,0.33,2.11,0.98c0.5,0.64,0.75,1.54,0.75,2.7v0.3H75.9z"/>
		</g>
	</g>
</g>
</svg>
