<svg version="1.1" xmlns="http://www.w3.org/2000/svg" xmlns:xlink="http://www.w3.org/1999/xlink" width="127.4px" height="127.6px" viewBox="0 0 127.4 127.6">
<g>
	<path fill="#F19300" d="M127.4,63.8c0,35.2-28.5,63.8-63.7,63.8C28.5,127.6,0,99.1,0,63.8C0,28.6,28.5,0,63.7,0
		C98.8,0,127.4,28.6,127.4,63.8z"/>
	<path fill-rule="evenodd" clip-rule="evenodd" fill="#FFFFFF" d="M74.9,45c-3.9,0-7,1.4-9.7,4.1l0,0l-1.5,2l-1.6-1.8
		c-2.7-2.7-5.8-4.2-9.7-4.2s-7.5,1.5-10.2,4.2C39.5,52,38,55.6,38,59.5c0,3.9,1.5,7.5,4.2,10.2l19.2,19.4c0.6,0.6,1.4,0.9,2.3,0.9
		c0.9,0,1.7-0.3,2.3-0.9l19.2-19.4c2.7-2.7,4.2-6.4,4.2-10.2c0-3.9-1.5-7.5-4.2-10.2C82.4,46.5,78.8,45,74.9,45z"/>
</g>
</svg>
