<svg version="1.1" xmlns="http://www.w3.org/2000/svg" xmlns:xlink="http://www.w3.org/1999/xlink" width="245px" height="248px" viewBox="0 0 245 248">
<g>
	<g>
		<path fill="#FFFFFF" d="M96.1,80.14c34.11,5.4,45.85,26.48,47.58,29.99c0.47,0.69,0.9,1.4,1.3,2.13
			c-0.63-9.14-3.72-21.27-13.34-34.51c-16.74-23.03-31.61-31.48-33.29-32.39c-19.18,5.67-35.45,18.08-46.1,34.49
			C59.43,78.44,74.33,76.71,96.1,80.14z"/>
		<path fill="#FFFFFF" d="M71.95,111.53c28.04-20.42,51.32-13.68,54.88-12.46c0.81,0.15,1.6,0.35,2.39,0.58
			c-6.91-6.02-17.67-12.42-33.84-14.97c-28.39-4.49-44.79,0.17-46.43,0.66c-6.41,11.79-10.05,25.31-10.05,39.68
			c0,5.95,0.63,11.75,1.82,17.36C44.79,136.29,54.11,124.52,71.95,111.53z"/>
		<path fill="#FFFFFF" d="M135.34,75.04c20.43,28.12,13.64,51.45,12.45,54.95c-0.15,0.81-0.35,1.6-0.58,2.38
			c6.01-6.91,12.41-17.68,14.96-33.87c4.45-28.22-0.15-44.73-0.67-46.47c-11.77-6.42-25.28-10.07-39.63-10.07
			c-5.95,0-11.75,0.64-17.34,1.83C110.6,47.87,122.38,57.2,135.34,75.04z"/>
		<path fill="#FFFFFF" d="M136.77,146.83c-0.7,0.48-1.41,0.92-2.15,1.32c9.12-0.63,21.25-3.73,34.48-13.36
			c22.94-16.71,31.4-31.57,32.35-33.31c-5.66-19.19-18.06-35.49-34.45-46.15c1.4,7.19,3.13,22.11-0.31,43.89
			C161.32,133.28,140.35,145.05,136.77,146.83z"/>
		<path fill="#FFFFFF" d="M106.99,103.19c0.69-0.47,1.4-0.91,2.12-1.31c-9.12,0.63-21.24,3.73-34.46,13.36
			c-23,16.75-31.45,31.63-32.36,33.32c5.66,19.19,18.06,35.48,34.45,46.14c-1.4-7.19-3.14-22.1,0.31-43.89
			C82.42,116.7,103.45,104.94,106.99,103.19z"/>
		<path fill="#FFFFFF" d="M203.02,107.67c-4.08,6.07-13.4,17.85-31.22,30.83c-16.11,11.73-30.65,14.49-40.78,14.49
			c-7.48,0-12.54-1.49-14.07-2.02c-0.82-0.16-1.63-0.35-2.42-0.58c6.9,6.01,17.66,12.41,33.83,14.96
			c28.2,4.47,44.72-0.15,46.42-0.66c6.42-11.79,10.06-25.3,10.06-39.67C204.84,119.06,204.21,113.26,203.02,107.67z"/>
		<path fill="#FFFFFF" d="M147.64,169.88c-34.04-5.38-45.8-26.38-47.57-29.96c-0.47-0.69-0.91-1.4-1.31-2.13
			c0.63,9.13,3.73,21.26,13.34,34.5c16.72,23,31.57,31.45,33.29,32.38c19.17-5.67,35.45-18.07,46.1-34.48
			c-4.1,0.8-10.65,1.7-19.56,1.7C165.16,171.89,157.04,171.36,147.64,169.88z"/>
		<path fill="#FFFFFF" d="M108.39,174.98c-20.35-28-13.69-51.25-12.45-54.9c0.16-0.82,0.36-1.63,0.58-2.42
			c-6.01,6.91-12.4,17.68-14.95,33.86c-4.45,28.28,0.16,44.8,0.66,46.49c11.78,6.41,25.29,10.07,39.64,10.07
			c5.94,0,11.75-0.64,17.34-1.84C133.14,202.16,121.37,192.84,108.39,174.98z"/>
	</g>
	<g>
		<g>
			<path fill="#E48162" d="M88.36,182c0,23.3-18.87,42.19-42.15,42.19c-23.28,0-42.16-18.89-42.16-42.19
				c0-23.31,18.88-42.2,42.16-42.2C69.49,139.8,88.36,158.69,88.36,182z"/>
		</g>
		<path fill-rule="evenodd" clip-rule="evenodd" fill="#FFFFFF" d="M37.94,194.42H33.8c-1.14,0-2.07-0.93-2.07-2.07v-4.14
			c0-1.15,0.93-2.07,2.07-2.07h4.14c1.14,0,2.06,0.92,2.06,2.07v4.14C40,193.49,39.08,194.42,37.94,194.42z M49.65,194.42h-4.13
			c-1.15,0-2.07-0.93-2.07-2.07v-22.78c0-1.14,0.92-2.07,2.07-2.07h4.13c1.15,0,2.07,0.93,2.07,2.07v22.78
			C51.72,193.49,50.8,194.42,49.65,194.42z M61.37,194.42h-4.13c-1.15,0-2.07-0.93-2.07-2.07v-14.5c0-1.14,0.92-2.07,2.07-2.07h4.13
			c1.15,0,2.07,0.93,2.07,2.07v14.5C63.44,193.49,62.52,194.42,61.37,194.42z M66.2,200.63H26.21c-1.14,0-2.06-0.93-2.06-2.07
			v-33.13c0-1.14,0.92-2.07,2.06-2.07c1.15,0,2.07,0.93,2.07,2.07v26.23v4.83H66.2c1.14,0,2.07,0.92,2.07,2.07
			C68.27,199.7,67.34,200.63,66.2,200.63z"/>
	</g>
	<g>
		<g>
			<path fill="#EA6F1D" d="M84.3,71.57c0,23.31-18.87,42.2-42.15,42.2C18.87,113.77,0,94.88,0,71.57c0-23.3,18.87-42.19,42.15-42.19
				C65.43,29.38,84.3,48.27,84.3,71.57z"/>
		</g>
		<path fill-rule="evenodd" clip-rule="evenodd" fill="#FFFFFF" d="M63.32,65.68L63.3,65.7L45.4,78.11
			c-0.34,0.23-0.74,0.36-1.18,0.36c-0.42,0-0.82-0.12-1.15-0.34l-0.01-0.01l-9.25-6.17l-9.58,5.64v8.48h37.92
			c1.14,0,2.06,0.92,2.06,2.07c0,1.14-0.92,2.07-2.06,2.07H22.16c-1.14,0-2.07-0.93-2.07-2.07V55.01c0-1.14,0.93-2.07,2.07-2.07
			c1.14,0,2.07,0.93,2.07,2.07v17.77l8.6-5.06v0.01c0.31-0.19,0.67-0.3,1.05-0.3c0.42,0,0.82,0.13,1.15,0.35v0.01l9.17,6.11
			l16.77-11.62c0.33-0.23,0.74-0.37,1.18-0.37c1.14,0,2.06,0.93,2.06,2.07C64.21,64.69,63.86,65.31,63.32,65.68L63.32,65.68z"/>
	</g>
	<g>
		<g>
			<path fill="#F19300" d="M183.16,42.19c0,23.31-18.87,42.19-42.15,42.19c-23.28,0-42.15-18.88-42.15-42.19
				C98.86,18.89,117.73,0,141.01,0C164.29,0,183.16,18.89,183.16,42.19z"/>
		</g>
		<path fill-rule="evenodd" clip-rule="evenodd" fill="#FFFFFF" d="M138.94,64.27c-11.04,0-19.99-8.96-19.99-20.01
			c0-11.05,8.95-20.01,19.99-20.01v20.01h19.99C158.93,55.31,149.98,64.27,138.94,64.27z M143.08,40.12V20.11
			c11.04,0,19.99,8.96,19.99,20.01H143.08z"/>
	</g>
	<g>
		<g>
			<path fill="#E48162" d="M245,118.54c0,23.31-18.87,42.19-42.15,42.19c-23.28,0-42.15-18.88-42.15-42.19
				c0-23.3,18.87-42.19,42.15-42.19C226.13,76.35,245,95.24,245,118.54z"/>
		</g>
		<path fill-rule="evenodd" clip-rule="evenodd" fill="#FFFFFF" d="M211.81,120.61h-4.14h-2.75h-2.07c-1.15,0-2.07-0.92-2.07-2.07
			v-12.42c0-1.14,0.92-2.07,2.07-2.07c1.14,0,2.07,0.93,2.07,2.07v10.35h2.75h4.14c1.14,0,2.07,0.93,2.07,2.07
			C213.88,119.69,212.95,120.61,211.81,120.61z M202.85,100.6c-9.9,0-17.93,8.03-17.93,17.94s8.03,17.94,17.93,17.94
			s17.92-8.03,17.92-17.94S212.75,100.6,202.85,100.6z M202.85,140.62c-12.19,0-22.06-9.88-22.06-22.08
			c0-12.19,9.87-22.08,22.06-22.08c12.18,0,22.06,9.89,22.06,22.08C224.91,130.74,215.03,140.62,202.85,140.62z"/>
	</g>
	<g>
		<g>
			<path fill="#F19300" d="M191.61,205.81c0,23.3-18.87,42.19-42.15,42.19c-23.27,0-42.15-18.89-42.15-42.19
				c0-23.3,18.88-42.19,42.15-42.19C172.74,163.62,191.61,182.51,191.61,205.81z"/>
		</g>
		<path fill-rule="evenodd" clip-rule="evenodd" fill="#FFFFFF" d="M143.54,186.55c-7.36,0-13.32,5.97-13.32,13.33
			c0,7.37,5.96,13.34,13.32,13.34s13.32-5.97,13.32-13.34C156.86,192.52,150.9,186.55,143.54,186.55z M171.85,221.93
			c0.8,0.8,1.3,1.91,1.3,3.14c0,2.45-1.99,4.44-4.44,4.44c-1.23,0-2.34-0.49-3.15-1.3l-13.01-13.02c-2.64,1.56-5.71,2.47-9.01,2.47
			c-9.81,0-17.76-7.96-17.76-17.78c0-9.82,7.95-17.78,17.76-17.78s17.76,7.96,17.76,17.78c0,3.3-0.91,6.37-2.47,9.02L171.85,221.93z
			"/>
	</g>
</g>
</svg>
