<svg version="1.1" xmlns="http://www.w3.org/2000/svg" xmlns:xlink="http://www.w3.org/1999/xlink" width="367px" height="425px" viewBox="0 0 367 425">
<linearGradient id="main_graphic_newspapers_SVGID_1_" gradientUnits="userSpaceOnUse" x1="190.4941" y1="181.3945" x2="224.9712" y2="225.5231">
	<stop  offset="1.000000e-02" style="stop-color:#D3C6A2"/>
	<stop  offset="0.99" style="stop-color:#E7DAAC"/>
</linearGradient>
<polygon fill="url(#main_graphic_newspapers_SVGID_1_)" points="213,138 293,218 293,287 213,287 153,228 "/>
<linearGradient id="main_graphic_newspapers_SVGID_2_" gradientUnits="userSpaceOnUse" x1="184.71" y1="324.3613" x2="235.5639" y2="380.8403">
	<stop  offset="1.000000e-02" style="stop-color:#D3C6A2"/>
	<stop  offset="0.99" style="stop-color:#E7DAAC"/>
</linearGradient>
<polygon fill="url(#main_graphic_newspapers_SVGID_2_)" points="249,285 323,358 324,425 170,422 116,368 "/>
<linearGradient id="main_graphic_newspapers_SVGID_3_" gradientUnits="userSpaceOnUse" x1="254.1309" y1="122.9849" x2="253.1361" y2="179.9762">
	<stop  offset="1.000000e-02" style="stop-color:#FFFFFF;stop-opacity:0.5882"/>
	<stop  offset="0.99" style="stop-color:#FFFFFF;stop-opacity:0"/>
</linearGradient>
<path fill="url(#main_graphic_newspapers_SVGID_3_)" d="M186,185l130,33c2-9,3-18,4-28c1-37-12-70-35-96L186,185z"/>
<linearGradient id="main_graphic_newspapers_SVGID_4_" gradientUnits="userSpaceOnUse" x1="96.0112" y1="152.0234" x2="147.6708" y2="127.9342">
	<stop  offset="1.000000e-02" style="stop-color:#FFFFFF;stop-opacity:0.5882"/>
	<stop  offset="0.99" style="stop-color:#FFFFFF;stop-opacity:0"/>
</linearGradient>
<path fill="url(#main_graphic_newspapers_SVGID_4_)" d="M181,186L154,56c-9,2-18,4-27,8c-34,15-58,42-70,74L181,186z"/>
<linearGradient id="main_graphic_newspapers_SVGID_5_" gradientUnits="userSpaceOnUse" x1="274.7539" y1="165.8457" x2="244.5485" y2="214.1844">
	<stop  offset="1.000000e-02" style="stop-color:#FFFFFF;stop-opacity:0.5882"/>
	<stop  offset="0.99" style="stop-color:#FFFFFF;stop-opacity:0"/>
</linearGradient>
<path fill="url(#main_graphic_newspapers_SVGID_5_)" d="M185,184l94,95c6-6,12-14,17-22c21-30,27-66,20-100L185,184z"/>
<g id="Group_x5F_2" opacity="0.4" enable-background="new    ">
	<path fill="none" stroke="#FFFFFF" stroke-width="6" stroke-linejoin="round" stroke-miterlimit="3" d="M85,334c-3-1-5-3-8-5l0,0"
		/>
	<path fill="none" stroke="#FFFFFF" stroke-width="6" stroke-linejoin="round" stroke-miterlimit="3" d="M64,318C26,285,3,237,3,183
		C3,84,84,3,183,3c100,0,181,81,181,180c0,41-13,78-36,109l0,0"/>
	<path fill="none" stroke="#FFFFFF" stroke-width="6" stroke-linejoin="round" stroke-miterlimit="3" d="M322,298c-1,3-3,5-5,7l0,0"
		/>
	<g id="Group_x5F_3">
		<polygon fill="#FFFFFF" points="306,285 294,326 336,316 		"/>
	</g>
</g>
<linearGradient id="main_graphic_newspapers_SVGID_6_" gradientUnits="userSpaceOnUse" x1="105.3154" y1="231.8789" x2="115.2134" y2="175.7449">
	<stop  offset="1.000000e-02" style="stop-color:#FFFFFF;stop-opacity:0.5882"/>
	<stop  offset="0.99" style="stop-color:#FFFFFF;stop-opacity:0"/>
</linearGradient>
<path fill="url(#main_graphic_newspapers_SVGID_6_)" d="M182,181L59,129c-3,9-6,18-8,27c-7,36,2,72,21,100L182,181z"/>
<linearGradient id="main_graphic_newspapers_SVGID_7_" gradientUnits="userSpaceOnUse" x1="125.9922" y1="109.0537" x2="182.4375" y2="116.9866">
	<stop  offset="1.000000e-02" style="stop-color:#FFFFFF;stop-opacity:0.5882"/>
	<stop  offset="0.99" style="stop-color:#FFFFFF;stop-opacity:0"/>
</linearGradient>
<path fill="url(#main_graphic_newspapers_SVGID_7_)" d="M179,184l49-124c-9-4-18-6-28-8c-36-6-71,4-99,24L179,184z"/>
<linearGradient id="main_graphic_newspapers_SVGID_8_" gradientUnits="userSpaceOnUse" x1="261.9775" y1="232.915" x2="206.9198" y2="247.6677">
	<stop  offset="1.000000e-02" style="stop-color:#FFFFFF;stop-opacity:0.5882"/>
	<stop  offset="0.99" style="stop-color:#FFFFFF;stop-opacity:0"/>
</linearGradient>
<path fill="url(#main_graphic_newspapers_SVGID_8_)" d="M184,185l4,133c9,0,18-1,28-4c35-9,64-31,82-60L184,185z"/>
<path opacity="0.8" fill="none" stroke="#FFFFFF" stroke-width="12" stroke-linejoin="round" stroke-miterlimit="3" d="M330,183
	c0,81-66,146-147,146c-80,0-146-65-146-146c0-80,66-146,146-146C264,37,330,103,330,183z"/>
<g id="Group_x5F_4">
	<polyline fill="none" stroke="#FFFFFF" stroke-width="6" stroke-linejoin="round" stroke-miterlimit="3" points="183,62 183,93 
		183,93 	"/>
	<polyline fill="none" stroke="#FFFFFF" stroke-width="6" stroke-linejoin="round" stroke-miterlimit="3" points="62,183 93,183 
		93,183 	"/>
	<polyline fill="none" stroke="#FFFFFF" stroke-width="6" stroke-linejoin="round" stroke-miterlimit="3" points="183,304 184,274 
		184,274 	"/>
	<polyline fill="none" stroke="#FFFFFF" stroke-width="6" stroke-linejoin="round" stroke-miterlimit="3" points="305,183 274,183 
		274,183 	"/>
	<polyline fill="none" stroke="#FFFFFF" stroke-width="6" stroke-linejoin="round" stroke-miterlimit="3" points="123,79 129,90 
		129,90 	"/>
	<polyline fill="none" stroke="#FFFFFF" stroke-width="6" stroke-linejoin="round" stroke-miterlimit="3" points="79,123 90,129 
		90,129 	"/>
	<polyline fill="none" stroke="#FFFFFF" stroke-width="6" stroke-linejoin="round" stroke-miterlimit="3" points="79,244 90,238 
		90,238 	"/>
	<polyline fill="none" stroke="#FFFFFF" stroke-width="6" stroke-linejoin="round" stroke-miterlimit="3" points="123,288 129,277 
		129,277 	"/>
	<polyline fill="none" stroke="#FFFFFF" stroke-width="6" stroke-linejoin="round" stroke-miterlimit="3" points="244,288 238,277 
		238,277 	"/>
	<polyline fill="none" stroke="#FFFFFF" stroke-width="6" stroke-linejoin="round" stroke-miterlimit="3" points="288,244 277,238 
		277,238 	"/>
	<polyline fill="none" stroke="#FFFFFF" stroke-width="6" stroke-linejoin="round" stroke-miterlimit="3" points="288,123 277,129 
		277,129 	"/>
	<polyline fill="none" stroke="#FFFFFF" stroke-width="6" stroke-linejoin="round" stroke-miterlimit="3" points="244,79 238,90 
		238,90 	"/>
</g>
<g>
	<path fill="#E48162" d="M133.7,72.5c0,19.1-15.5,34.6-34.7,34.6c-19.1,0-34.6-15.5-34.6-34.6c0-19.1,15.5-34.6,34.6-34.6
		C118.1,37.9,133.7,53.4,133.7,72.5z"/>
	<path fill-rule="evenodd" clip-rule="evenodd" fill="#FFFFFF" d="M112.4,69.4l-7,5.1l2.7,8.3c0,0.1,0.1,0.3,0.1,0.4
		c0,0.7-0.6,1.3-1.3,1.3c-0.3,0-0.5-0.1-0.8-0.3L99,79.1l-7.1,5.1c-0.2,0.2-0.5,0.3-0.8,0.3c-0.7,0-1.3-0.6-1.3-1.3
		c0-0.1,0-0.3,0.1-0.4l2.7-8.3l-7.1-5.1c-0.3-0.2-0.5-0.6-0.5-1.1c0-0.7,0.6-1.3,1.3-1.3H95l2.7-8.2c0.2-0.5,0.7-0.9,1.2-0.9
		c0.6,0,1.1,0.4,1.3,0.9L103,67h8.7c0.7,0,1.3,0.6,1.3,1.3C113,68.7,112.8,69.1,112.4,69.4z"/>
</g>
<g>
	<path fill="#EA6F1D" d="M69.6,136c0,12.1-9.8,21.9-21.9,21.9c-12.1,0-21.9-9.8-21.9-21.9c0-12.1,9.8-21.9,21.9-21.9
		C59.8,114.1,69.6,123.9,69.6,136z"/>
	<path fill-rule="evenodd" clip-rule="evenodd" fill="#FFFFFF" d="M51,137l-5.6,3.5v0l-0.1,0.1l0,0l-0.1,0h0l-0.1,0h0l-0.1,0h0
		l-0.1,0h0h-0.1c-0.6,0-1-0.5-1-1v-7.1c0-0.6,0.5-1.1,1-1.1c0.2,0,0.4,0.1,0.6,0.2l5.6,3.5c0.3,0.2,0.5,0.5,0.5,0.9
		C51.5,136.5,51.3,136.9,51,137z M47.6,127c-5.1,0-9.2,4.1-9.2,9.2s4.1,9.2,9.2,9.2c5.1,0,9.2-4.1,9.2-9.2S52.7,127,47.6,127z
		 M47.6,147.4c-6.2,0-11.3-5.1-11.3-11.3s5-11.3,11.3-11.3c6.2,0,11.3,5,11.3,11.3S53.9,147.4,47.6,147.4z"/>
</g>
<g>
	<path fill="#EA6F1D" d="M94.4,257c0,18.2-14.7,32.9-32.9,32.9c-18.2,0-32.9-14.7-32.9-32.9c0-18.2,14.7-32.9,32.9-32.9
		C79.7,224.1,94.4,238.8,94.4,257z"/>
	<path fill-rule="evenodd" clip-rule="evenodd" fill="#FFFFFF" d="M53.6,260.4l-4.7,4.7c-1.3,1.3-1.3,3.4,0,4.7
		c1.3,1.3,3.4,1.3,4.7,0l4.7-4.7c0,0,0.1-0.1,0.1-0.1l4-4c0.6,2.2,0,4.7-1.7,6.4l-4.7,4.7c-2.6,2.6-6.8,2.6-9.4,0
		c-2.6-2.6-2.6-6.8,0-9.4l4.7-4.7c1.7-1.7,4.2-2.3,6.4-1.7L53.6,260.4L53.6,260.4z M57.1,264.1c-0.3,0.3-0.7,0.5-1.2,0.5
		c-0.9,0-1.7-0.8-1.7-1.7c0-0.5,0.2-0.9,0.5-1.2l11.1-11.1c0.3-0.3,0.8-0.5,1.2-0.5c0.9,0,1.7,0.8,1.7,1.7c0,0.5-0.2,0.9-0.5,1.2
		L57.1,264.1z M76.4,251.7l-4.7,4.7c-1.7,1.8-4.2,2.3-6.4,1.7l3.9-3.9c0.1-0.1,0.1-0.1,0.2-0.2l4.7-4.7c1.3-1.3,1.3-3.4,0-4.7
		c-1.3-1.3-3.4-1.3-4.7,0l-4.7,4.7c0,0-4.1,4-4.1,4c-0.6-2.2,0-4.7,1.7-6.4l4.7-4.7c2.6-2.6,6.8-2.6,9.4,0
		C79,244.9,79,249.1,76.4,251.7z"/>
</g>
<g>
	<path fill="#EA6F1D" d="M340.5,82.5c0,24-19.5,43.5-43.5,43.5c-24,0-43.5-19.5-43.5-43.5c0-24,19.5-43.5,43.5-43.5
		C321,39,340.5,58.5,340.5,82.5z"/>
	<path fill-rule="evenodd" clip-rule="evenodd" fill="#FFFFFF" d="M303.7,84.6l-11.1,7l0,0c-0.1,0.1-0.2,0.1-0.2,0.1h0
		c-0.1,0-0.2,0.1-0.3,0.1h0l-0.1,0l0,0l-0.1,0l0,0l-0.1,0h0l-0.1,0c-1.2,0-2.1-0.9-2.1-2.1v-14c0-1.2,0.9-2.1,2.1-2.1
		c0.4,0,0.9,0.1,1.2,0.4l11,6.9c0.6,0.4,1.1,1,1.1,1.8C304.7,83.5,304.3,84.2,303.7,84.6z M297,64.6c-10,0-18.2,8.1-18.2,18.2
		s8.1,18.2,18.2,18.2c10,0,18.2-8.1,18.2-18.2S307,64.6,297,64.6z M297,105.1c-12.4,0-22.4-10-22.4-22.4c0-12.4,10-22.4,22.4-22.4
		s22.4,10,22.4,22.4C319.4,95.1,309.4,105.1,297,105.1z"/>
</g>
<g>
	<path fill="#F19300" d="M363.2,155.5c0,17-13.8,30.7-30.7,30.7c-17,0-30.7-13.8-30.7-30.7c0-17,13.8-30.7,30.7-30.7
		C349.5,124.8,363.2,138.5,363.2,155.5z"/>
	<path fill-rule="evenodd" clip-rule="evenodd" fill="#FFFFFF" d="M337.9,146.4c-1.9,0-3.4,0.7-4.7,2l-0.8,0.9l-0.8-0.9
		c-1.3-1.3-2.8-2.1-4.7-2.1c-1.9,0-3.6,0.7-4.9,2c-1.3,1.3-2.1,3.1-2.1,4.9s0.7,3.6,2,4.9l9.3,9.3c0.3,0.3,0.7,0.5,1.1,0.5
		c0.4,0,0.8-0.2,1.1-0.5l9.3-9.3c1.3-1.3,2.1-3.1,2.1-4.9s-0.7-3.6-2.1-4.9C341.5,147.2,339.8,146.4,337.9,146.4z"/>
</g>
<g>
	<path fill="#E48162" d="M327.9,259.5c0,11.8-9.6,21.4-21.4,21.4c-11.8,0-21.4-9.6-21.4-21.4c0-11.8,9.6-21.4,21.4-21.4
		C318.3,238.1,327.9,247.7,327.9,259.5z"/>
	<path fill-rule="evenodd" clip-rule="evenodd" fill="#FFFFFF" d="M314.8,257.5l-4.3,3.1l1.7,5.1c0,0.1,0,0.2,0,0.2
		c0,0.4-0.4,0.8-0.8,0.8c-0.2,0-0.3,0-0.5-0.2l-4.4-3.2l-4.4,3.2c-0.1,0.1-0.3,0.2-0.5,0.2c-0.5,0-0.8-0.4-0.8-0.8
		c0-0.1,0-0.2,0-0.2l1.7-5.1l-4.4-3.1c-0.2-0.1-0.3-0.4-0.3-0.6c0-0.5,0.4-0.8,0.8-0.8h5.4l1.7-5.1c0.1-0.3,0.4-0.6,0.8-0.6
		c0.4,0,0.7,0.2,0.8,0.6l1.7,5.1h5.4c0.4,0,0.8,0.4,0.8,0.8C315.1,257.2,315,257.4,314.8,257.5z"/>
</g>
<g>
	<path fill="#460200" d="M215.6,223c0,3.8-3.1,7-7,7h-49.2c-3.8,0-7-3.1-7-7V143c0-3.8,3.1-7,7-7h49.2c3.8,0,7,3.1,7,7V223z"/>
	<path fill="#FFFFFF" d="M208.8,212.6c0,1.7-1.3,3-3,3h-43.6c-1.7,0-3-1.3-3-3v-67.2c0-1.7,1.4-3,3-3h43.6c1.7,0,3,1.4,3,3V212.6z"
		/>
	<path fill="#FFFFFF" d="M191.4,222.3c0,0.9-0.8,1.7-1.7,1.7h-11.5c-0.9,0-1.7-0.8-1.7-1.7c0-0.9,0.8-1.7,1.7-1.7h11.5
		C190.7,220.7,191.4,221.4,191.4,222.3z"/>
</g>
<g>
	
		<path fill="#FFFFFF" stroke="#460200" stroke-width="8.0022" stroke-linecap="round" stroke-linejoin="round" stroke-miterlimit="10" d="
		M246.4,365.5c0,0-9.9-3.4-31.5-3.4c-21.6,0-32.5,5.9-32.5,5.9v-80c0,0,13.2-5.8,33.9-5.8c20.7,0,30.1,3.4,30.1,3.4V365.5z"/>
	
		<path fill="#FFFFFF" stroke="#460200" stroke-width="8.0022" stroke-linecap="round" stroke-linejoin="round" stroke-miterlimit="10" d="
		M182.5,367.9c0,0-9.9-5.9-31.5-5.9c-21.6,0-32.5,3.4-32.5,3.4v-80c0,0,13.2-3.4,33.9-3.4s30.1,5.8,30.1,5.8V367.9z"/>
</g>
</svg>
