<svg xmlns="http://www.w3.org/2000/svg" xmlns:xlink="http://www.w3.org/1999/xlink" version="1.1" id="Capa_1" x="0px" y="0px" viewBox="0 0 100 100" style="enable-background:new 0 0 100 100;" xml:space="preserve">
  <g>
    <path style="fill:#000000;" d="M50,2.404c-25.706,0-46.618,20.913-46.618,46.618S24.294,95.641,50,95.641   s46.618-20.913,46.618-46.618S75.706,2.404,50,2.404z M50,85.641c-20.191,0-36.618-16.427-36.618-36.618S29.809,12.404,50,12.404   s36.618,16.427,36.618,36.618S70.191,85.641,50,85.641z"/>
    <path style="fill:#000000;" d="M30.588,24.449v49.147c0,3.965,2.792,5.586,6.235,3.621L80.002,52.58   c3.444-1.965,3.444-5.151,0-7.115L36.823,20.827C33.38,18.862,30.588,20.484,30.588,24.449z"/>
  </g>
</svg>
