<svg version="1.1" xmlns="http://www.w3.org/2000/svg" width="436.94px" height="396.14px" viewBox="0 0 436.94 396.14" role="img">
<linearGradient id="SVGID_1_" gradientUnits="userSpaceOnUse" x1="206.2993" y1="207.8267" x2="279.2384" y2="283.3573">
	<stop  offset="0.01" style="stop-color:#C2B787"/>
	<stop  offset="0.99" style="stop-color:#e8daaf"/>
</linearGradient>
<polygon class="shadow" opacity="0.8" fill="url(#SVGID_1_)" points="280.94,133.14 436.94,290.14 436.94,396.14 242.94,396.14 97.94,252.14 "/>
<g>
	<g>

			<path fill="#FFFFFF" stroke="#460200" stroke-width="11" stroke-linecap="round" stroke-linejoin="round" stroke-miterlimit="10" d="
			M280.93,250.28c0,0-13.67-4.73-43.66-4.73c-29.99,0-44.98,8.1-44.98,8.1V142.86c0,0,18.33-8.11,46.98-8.11
			c28.66,0,41.66,4.73,41.66,4.73V250.28z"/>

			<path fill="#FFFFFF" stroke="#460200" stroke-width="11" stroke-linecap="round" stroke-linejoin="round" stroke-miterlimit="10" d="
			M192.33,253.65c0,0-13.66-8.1-43.65-8.1c-29.99,0-44.99,4.73-44.99,4.73v-110.8c0,0,18.33-4.73,46.99-4.73
			c28.66,0,41.65,8.11,41.65,8.11V253.65z"/>
	</g>
	<g>
    <circle fill="#F19300" cx="38.0" cy="114.1" r="38"/>
		<path fill-rule="evenodd" clip-rule="evenodd" fill="#FFFFFF" d="M38.05,112.94c-0.97,0-1.76,0.78-1.76,1.75
			c0,0.97,0.79,1.75,1.76,1.75c0.97,0,1.75-0.78,1.75-1.75C39.8,113.72,39.02,112.94,38.05,112.94z M33.95,118.2l-5.27-12.86
			l13.47,5.26l5.26,13.44L33.95,118.2z M38.05,99.49c-8.41,0-15.22,6.81-15.22,15.2s6.81,15.2,15.22,15.2
			c8.4,0,15.22-6.81,15.22-15.2S46.45,99.49,38.05,99.49z M38.05,133.39c-10.35,0-18.73-8.37-18.73-18.7s8.38-18.7,18.73-18.7
			c10.34,0,18.73,8.37,18.73,18.7S48.39,133.39,38.05,133.39z"/>
	</g>
	<g>
    <circle fill="#F19300" cx="330.2" cy="174.53" r="24"/>
		<path fill-rule="evenodd" clip-rule="evenodd" fill="#FFFFFF" d="M334.38,167.47c-1.45,0-2.61,0.52-3.64,1.55l-0.59,0.73
			l-0.58-0.69c-1.03-1.03-2.19-1.59-3.64-1.59c-1.46,0-2.82,0.56-3.85,1.59c-1.03,1.03-1.59,2.39-1.59,3.84
			c0,1.45,0.56,2.81,1.59,3.84l7.22,7.26c0.22,0.23,0.53,0.36,0.85,0.36c0.33,0,0.64-0.13,0.86-0.36l7.22-7.26
			c1.03-1.03,1.59-2.39,1.59-3.84c0-1.45-0.56-2.81-1.59-3.84C337.2,168.03,335.84,167.47,334.38,167.47z"/>
	</g>
	<g>
    <circle fill="#EA6F1D" cx="251.82" cy="37.99" r="38"/>
		<path fill-rule="evenodd" clip-rule="evenodd" fill="#FFFFFF" d="M257.6,39.79l-9.74,6.09v-0.01c-0.07,0.04-0.15,0.08-0.22,0.11
			l-0.01,0.01c-0.07,0.03-0.15,0.06-0.23,0.08l-0.01,0.01l-0.1,0.02l-0.02,0.01l-0.12,0.02h-0.02l-0.1,0.01H247l-0.12,0.01
			c-1.01,0-1.83-0.82-1.83-1.84V32.1c0-1.02,0.82-1.84,1.83-1.84c0.39,0,0.74,0.12,1.04,0.32l9.66,6.04
			c0.55,0.31,0.93,0.9,0.93,1.59C258.51,38.88,258.14,39.47,257.6,39.79z M251.78,22.32c-8.79,0-15.91,7.11-15.91,15.89
			c0,8.77,7.12,15.88,15.91,15.88c8.78,0,15.9-7.11,15.9-15.88C267.68,29.43,260.56,22.32,251.78,22.32z M251.78,57.75
			c-10.82,0-19.58-8.75-19.58-19.54c0-10.8,8.76-19.55,19.58-19.55c10.81,0,19.57,8.75,19.57,19.55
			C271.35,49,262.59,57.75,251.78,57.75z"/>
	</g>
	<g>
    <circle fill="#E48162" cx="185.9" cy="93.42" r="24"/>
		<path fill-rule="evenodd" clip-rule="evenodd" fill="#FFFFFF" d="M195.13,91.25l-4.87,3.52l1.88,5.72
			c0.03,0.09,0.05,0.19,0.05,0.28c0,0.5-0.41,0.91-0.91,0.91c-0.2,0-0.38-0.06-0.53-0.17l-4.91-3.55l-4.91,3.55
			c-0.15,0.11-0.33,0.17-0.53,0.17c-0.5,0-0.9-0.41-0.9-0.91c0-0.09,0.01-0.19,0.04-0.28l1.88-5.72l-4.87-3.52
			c-0.23-0.16-0.38-0.43-0.38-0.73c0-0.5,0.41-0.91,0.91-0.91h6.03l1.86-5.69c0.12-0.37,0.46-0.64,0.87-0.64
			c0.41,0,0.75,0.27,0.87,0.64l1.86,5.69h6.03c0.5,0,0.91,0.41,0.91,0.91C195.51,90.82,195.36,91.09,195.13,91.25z"/>
	</g>
	<g>
    <circle fill="#E48162" cx="343.4" cy="102.34" r="38"/>
		<path fill-rule="evenodd" clip-rule="evenodd" fill="#FFFFFF" d="M343.43,110.51c-3.88,0-7.02-3.14-7.02-7.02
			c0-3.87,3.14-7.01,7.02-7.01c3.88,0,7.03,3.14,7.03,7.01C350.46,107.37,347.31,110.51,343.43,110.51z M343.43,92.97
			c-5.82,0-10.53,4.71-10.53,10.52c0,5.81,4.71,10.53,10.53,10.53c5.82,0,10.54-4.72,10.54-10.53
			C353.97,97.68,349.25,92.97,343.43,92.97z M360.41,117.52h-33.95c-0.97,0-1.76-0.78-1.76-1.75V92.39c0-0.97,0.79-1.75,1.76-1.75
			h7.5l2.81-2.81c0.32-0.42,0.82-0.7,1.39-0.7h10.54c0.5,0,0.94,0.2,1.26,0.53l2.98,2.98h7.47c0.97,0,1.76,0.78,1.76,1.75v23.38
			C362.17,116.74,361.38,117.52,360.41,117.52z"/>
	</g>
	<g>
    <circle fill="#E48162" cx="239.3" cy="294.01" r="24"/>
		<path fill-rule="evenodd" clip-rule="evenodd" fill="#FFFFFF" d="M247.6,299.2c0,1-1.48,1.81-3.32,1.81
			c-1.83,0-3.32-0.81-3.32-1.81s1.49-1.81,3.32-1.81c0.55,0,1.06,0.07,1.51,0.2v-1.71v-5.82l-10.27,2.24v9.61
			c0,1-1.49,1.81-3.32,1.81c-1.84,0-3.33-0.81-3.33-1.81s1.49-1.81,3.33-1.81c0.54,0,1.05,0.08,1.51,0.2v-1.4v-10.86
			c0-0.7,0.9-0.91,0.9-0.91l12.09-2.71c0.5,0,0.9,0.4,0.9,0.9v12.97v0.61V299.2z"/>
	</g>
	<g>
    <circle fill="#F19300"  cx="129.6" cy="310.56" r="38"/>
		<path fill-rule="evenodd" clip-rule="evenodd" fill="#FFFFFF" d="M120.34,304.07l3.47,9.91l16.15-1.07l3.98-8.84H120.34z
			 M148.55,302.97l-5.63,12.5c-0.28,0.62-0.88,1.06-1.59,1.11l-16.23,1.08l0.94,2.67h17.67c2.08,0,3.76,1.68,3.76,3.75
			c0,2.08-1.68,3.76-3.76,3.76c-2.07,0-3.76-1.68-3.76-3.76h-17.53c0,2.08-1.68,3.76-3.76,3.76c-2.07,0-3.76-1.68-3.76-3.76
			c0-2.07,1.69-3.75,3.76-3.75h3.4l-7.24-20.63h-4.3c-1.04,0-1.88-0.84-1.88-1.88c0-1.03,0.84-1.88,1.88-1.88h5.64
			c0.82,0,1.5,0.53,1.76,1.26h0.01l1.09,3.12h27.82c1.04,0,1.88,0.84,1.88,1.88C148.72,302.47,148.66,302.73,148.55,302.97z"/>
	</g>
	<g>
    <circle fill="#EA6F1D"  cx="45.1" cy="217.69" r="38"/>
		<path fill-rule="evenodd" clip-rule="evenodd" fill="#FFFFFF" d="M36.03,221.62l-5.42,5.42c-1.49,1.5-1.49,3.93,0,5.42
			c1.5,1.5,3.92,1.5,5.42,0l5.41-5.42c0.04-0.04,0.06-0.08,0.1-0.12l4.58-4.57c0.69,2.55,0.03,5.4-1.97,7.4l-5.42,5.43
			c-2.99,2.99-7.84,2.99-10.83,0c-2.99-3-2.99-7.85,0-10.85l5.42-5.42c2.01-2.01,4.85-2.66,7.41-1.97l-4.67,4.65L36.03,221.62z
			 M40.04,225.85h-0.01c-0.35,0.35-0.84,0.58-1.38,0.58c-1.08,0-1.95-0.88-1.95-1.95c0-0.56,0.24-1.06,0.63-1.42l12.87-12.85
			c0.35-0.38,0.86-0.62,1.42-0.62c1.08,0,1.95,0.87,1.95,1.94c0,0.53-0.22,1.01-0.56,1.36v0.01L40.04,225.85z M62.31,211.62
			l-5.41,5.42c-2.02,2.02-4.87,2.67-7.44,1.97l4.53-4.51c0.06-0.06,0.14-0.11,0.2-0.17l5.41-5.42c1.5-1.5,1.5-3.93,0-5.42
			c-1.49-1.5-3.92-1.5-5.41,0l-5.42,5.42l-4.69,4.67c-0.67-2.55-0.01-5.38,1.98-7.38l5.42-5.42c2.99-3,7.84-3,10.83,0
			C65.3,203.77,65.3,208.62,62.31,211.62z"/>
	</g>
	<g>
    <circle fill="#EA6F1D"  cx="335.18" cy="273.6" r="38"/>
		<path fill-rule="evenodd" clip-rule="evenodd" fill="#FFFFFF" d="M343.18,279.67l3.91,3.9c0.68,0.64,1.58,1.04,2.58,1.04v1.23
			c0,1.03-0.84,1.85-1.86,1.85h-13.05h-4.26h-1.86h-0.47l-5.02,5.02c-0.33,0.33-0.8,0.54-1.31,0.54h-0.02
			c-0.5-0.01-0.96-0.21-1.29-0.54l-0.02-0.03c-0.08-0.07-0.15-0.16-0.21-0.25c-0.02-0.03-0.04-0.07-0.06-0.11
			c-0.04-0.07-0.08-0.13-0.11-0.2l-0.03-0.11c-0.03-0.08-0.06-0.15-0.08-0.24c-0.02-0.12-0.03-0.24-0.03-0.37v-3.71h-0.31h-2.17
			c-1.02,0-1.85-0.83-1.85-1.85v-20.99c0-1.02,0.83-1.85,1.85-1.85h5.57v12.96c0,2.05,1.66,3.71,3.71,3.71H343.18z M352.76,277.82
			h-0.56h-0.68v3.08c0,0.13-0.01,0.26-0.04,0.38c-0.02,0.08-0.05,0.16-0.07,0.24l-0.03,0.1c-0.04,0.07-0.08,0.14-0.11,0.21
			l-0.07,0.11c-0.06,0.09-0.13,0.17-0.2,0.25l-0.02,0.02c-0.33,0.33-0.79,0.54-1.29,0.54h-0.02c-0.52,0-0.98-0.2-1.32-0.54
			l-4.4-4.39h-0.22h-16.94c-1.03,0-1.86-0.83-1.86-1.86v-18.52c0-1.02,0.83-1.85,1.86-1.85h25.97c1.02,0,1.85,0.83,1.85,1.85v18.52
			C354.61,276.99,353.78,277.82,352.76,277.82z"/>
	</g>
	<g>
    <circle fill="#E48162" cx="115.83" cy="50.58" r="38"/>
		<path fill-rule="evenodd" clip-rule="evenodd" fill="#FFFFFF" d="M128.85,58.1c-0.74,0-1.46,0.12-1.94,0.35
			c-0.48,0.24-0.83,0.66-1.01,1.03c-0.18,0.38-0.27,0.83-0.27,1.59v0.73h-1.21v1.89h1.21v6.29h2.59v-6.29h1.61l0.45-1.89h-2.06
			v-0.68c0-0.46,0.08-0.77,0.25-0.94c0.17-0.16,0.5-0.26,0.88-0.26c0.4,0,0.71,0.19,1.1,0.42l0.48-1.78
			C130.2,58.35,129.61,58.1,128.85,58.1z M136.89,71.15H123.2c-0.69,0-1.25-0.5-1.25-1.19V56.23c0-0.69,0.56-1.25,1.25-1.25h13.69
			c0.69,0,1.25,0.56,1.25,1.25v13.73C138.14,70.65,137.58,71.15,136.89,71.15z"/>
		<path fill-rule="evenodd" clip-rule="evenodd" fill="#FFFFFF" d="M129.26,29.7c5.9,0,9.49,3.44,9.49,7.68
			c0,4.24-3.59,7.63-9.49,7.63c-0.72,0-1.42-0.2-2.1-0.3c-2.74,3.46-7.07,2.78-7.07,2.78c3.05-1.44,2.99-3.84,2.45-4.16
			c-2.4-1.4-3.84-3.55-3.84-5.95C118.7,33.14,123.36,29.7,129.26,29.7z"/>
		<path fill-rule="evenodd" clip-rule="evenodd" fill="#FFFFFF" d="M106.78,29.84c1.84-0.03,2.82,0.64,3.76,1.49
			c0.79-0.07,1.82-0.51,2.43-0.82l0.59-0.32c-0.34,0.93-0.82,1.67-1.54,2.22c-0.16,0.13-0.32,0.29-0.52,0.37v0.02
			c1.03-0.02,1.88-0.48,2.69-0.73v0.01c-0.43,0.67-1,1.36-1.61,1.85l-0.75,0.58c0.02,1.09-0.01,2.13-0.22,3.05
			c-1.18,5.33-4.33,8.94-9.3,10.49c-1.79,0.56-4.68,0.78-6.73,0.28c-1.01-0.25-1.93-0.54-2.79-0.92c-0.48-0.2-0.92-0.43-1.35-0.69
			l-0.41-0.25c0.46,0.01,1,0.14,1.52,0.06c0.46-0.08,0.92-0.06,1.35-0.15c1.08-0.24,2.03-0.55,2.85-1.03
			c0.4-0.23,1.01-0.51,1.29-0.84c-0.53,0.01-1.02-0.12-1.41-0.26c-1.54-0.54-2.44-1.53-3.02-3.03c0.47,0.05,1.81,0.17,2.12-0.09
			c-0.58-0.04-1.15-0.37-1.55-0.63c-1.24-0.77-2.24-2.07-2.24-4.06l0.49,0.23c0.31,0.13,0.63,0.2,1,0.28
			c0.15,0.03,0.47,0.12,0.65,0.06h-0.03c-0.24-0.28-0.63-0.47-0.87-0.76c-0.79-0.99-1.53-2.51-1.06-4.31
			c0.12-0.46,0.3-0.86,0.51-1.23l0.02,0.01c0.09,0.19,0.3,0.33,0.43,0.49c0.4,0.51,0.9,0.96,1.41,1.35c1.74,1.36,3.3,2.19,5.81,2.81
			c0.64,0.15,1.37,0.27,2.13,0.27c-0.21-0.62-0.14-1.62,0.03-2.22c0.42-1.51,1.34-2.6,2.69-3.19c0.32-0.14,0.68-0.24,1.05-0.32
			L106.78,29.84z"/>
		<g>
			<path fill="#FFFFFF" d="M103.37,64.88l9.82-8.17c-0.05-0.01-0.1-0.03-0.15-0.03H93.71c-0.05,0-0.1,0.02-0.15,0.03L103.37,64.88z"
				/>
			<path fill="#FFFFFF" d="M113.91,57.56c0-0.1-0.02-0.18-0.05-0.27l-6.96,5.8l6.97,6.96c0.02-0.07,0.04-0.14,0.04-0.22V57.56z"/>
			<path fill="#FFFFFF" d="M92.89,57.29c-0.03,0.09-0.06,0.17-0.06,0.27v12.27c0,0.08,0.03,0.15,0.05,0.22l6.97-6.96L92.89,57.29z"
				/>
			<path fill="#FFFFFF" d="M106.22,63.65l-2.56,2.13c-0.08,0.07-0.18,0.11-0.29,0.11c-0.09,0-0.19-0.04-0.28-0.11l-2.56-2.13
				l-7.03,7.02c0.07,0.01,0.14,0.04,0.21,0.04h19.33c0.07,0,0.14-0.03,0.21-0.04L106.22,63.65z"/>
		</g>
	</g>

		<line fill="none" stroke="#EA6F1D" stroke-width="8" stroke-linecap="round" stroke-linejoin="round" stroke-miterlimit="10" x1="247.76" y1="68.6" x2="239.3" y2="153.02"/>

		<line fill="none" stroke="#EA6F1D" stroke-width="8" stroke-linecap="round" stroke-linejoin="round" stroke-miterlimit="10" x1="312.86" y1="256.86" x2="259.6" y2="223.93"/>

		<line fill="none" stroke="#EA6F1D" stroke-width="8" stroke-linecap="round" stroke-linejoin="round" stroke-miterlimit="10" x1="71.89" y1="212.12" x2="126.01" y2="203.67"/>

		<line fill="none" stroke="#E48162" stroke-width="8" stroke-linecap="round" stroke-linejoin="round" stroke-miterlimit="10" x1="179.27" y1="114.19" x2="166.59" y2="153.02"/>

		<line fill="none" stroke="#E48162" stroke-width="8" stroke-linecap="round" stroke-linejoin="round" stroke-miterlimit="10" x1="117.55" y1="82.11" x2="140.38" y2="153.86"/>

		<line fill="none" stroke="#E48162" stroke-width="8" stroke-linecap="round" stroke-linejoin="round" stroke-miterlimit="10" x1="235.92" y1="276.28" x2="221.55" y2="229"/>

		<line fill="none" stroke="#E48162" stroke-width="8" stroke-linecap="round" stroke-linejoin="round" stroke-miterlimit="10" x1="319.63" y1="123.47" x2="260.44" y2="158.09"/>

		<line fill="none" stroke="#F19300" stroke-width="8" stroke-linecap="round" stroke-linejoin="round" stroke-miterlimit="10" x1="60.9" y1="126" x2="120.09" y2="164.84"/>

		<line fill="none" stroke="#F19300" stroke-width="8" stroke-linecap="round" stroke-linejoin="round" stroke-miterlimit="10" x1="131.92" y1="282.19" x2="151.37" y2="224.78"/>

		<line fill="none" stroke="#F19300" stroke-width="8" stroke-linecap="round" stroke-linejoin="round" stroke-miterlimit="10" x1="312.02" y1="177.5" x2="255.37" y2="187.63"/>
</g>
</svg>
