<?xml version="1.0" encoding="utf-8"?>
<!-- Generator: Adobe Illustrator 15.0.2, SVG Export Plug-In . SVG Version: 6.00 Build 0)  -->
<!DOCTYPE svg PUBLIC "-//W3C//DTD SVG 1.1//EN" "http://www.w3.org/Graphics/SVG/1.1/DTD/svg11.dtd">
<svg version="1.1" id="Layer_1" xmlns="http://www.w3.org/2000/svg" xmlns:xlink="http://www.w3.org/1999/xlink" x="0px" y="0px"
	 width="153.6px" height="31.5px" viewBox="0 0 153.6 31.5" enable-background="new 0 0 153.6 31.5" xml:space="preserve">
<g>
	<defs>
		<rect id="SVGID_1_" y="0" width="153.6" height="31.5"/>
	</defs>
	<clipPath id="SVGID_2_">
		<use xlink:href="#SVGID_1_"  overflow="visible"/>
	</clipPath>
	<path clip-path="url(#SVGID_2_)" fill="#FFFFFF" d="M53.5,11.3l-1.8,1.2c-0.8-1.1-2.1-1.7-3.5-1.7c-1.3,0-2.4,0.5-2.4,1.7
		c0,1.3,1.3,1.5,2.9,1.9c2.6,0.6,5,1.3,5,4c0,2.5-2,4.2-5.2,4.2c-2.6,0-4.6-1.1-5.6-3l1.9-1.1c0.9,1.5,2.4,2.1,3.9,2.1
		c1.7,0,2.8-0.7,2.8-2c0-1.4-1.4-1.7-3.3-2.1c-2.4-0.5-4.6-1.3-4.6-3.9c0-2.4,2-3.9,4.8-3.9C50.3,8.8,52.3,9.6,53.5,11.3"/>
	<polygon clip-path="url(#SVGID_2_)" fill="#FFFFFF" points="65.9,22.4 65.9,16.4 59.3,16.4 59.3,22.4 57,22.4 57,9.1 59.3,9.1 
		59.3,14.3 65.9,14.3 65.9,9.1 68.2,9.1 68.2,22.4 	"/>
	<path clip-path="url(#SVGID_2_)" fill="#FFFFFF" d="M78.1,22.6c-4.1,0-6.6-3-6.6-6.9c0-3.9,2.5-6.9,6.6-6.9c4.1,0,6.6,3,6.6,6.9
		C84.6,19.6,82.1,22.6,78.1,22.6 M78.1,11c-2.6,0-4.2,2-4.2,4.7c0,2.7,1.5,4.7,4.2,4.7c2.6,0,4.2-2,4.2-4.7C82.2,13,80.7,11,78.1,11
		"/>
	<path clip-path="url(#SVGID_2_)" fill="#FFFFFF" d="M96.2,22.4l-2.7-5.1h-3.3v5.1h-2.3V9.1h5.9c2.9,0,4.6,1.6,4.6,4
		c0,1.9-1.2,3.2-2.6,3.8l3,5.5H96.2z M93.8,11.1h-3.6v4.2h3.6c1.4,0,2.3-0.8,2.3-2.1C96.1,11.9,95.2,11.1,93.8,11.1"/>
	<polygon clip-path="url(#SVGID_2_)" fill="#FFFFFF" points="107.3,11.1 107.3,22.4 105,22.4 105,11.1 100.6,11.1 100.6,9.1 
		111.7,9.1 111.7,11.1 	"/>
	<path clip-path="url(#SVGID_2_)" fill="#FFFFFF" d="M123.6,12.9c-0.8-1.3-2-2-3.5-2c-2.5,0-4.1,2-4.1,4.8c0,2.9,1.6,4.9,4.1,4.9
		c1.6,0,2.7-0.8,3.5-2.1l1.9,1.1c-1.2,1.9-3,3.1-5.5,3.1c-3.9,0-6.5-2.9-6.5-6.9c0-4,2.6-6.9,6.5-6.9c2.3,0,4.2,1,5.4,2.9
		L123.6,12.9z"/>
	<path clip-path="url(#SVGID_2_)" fill="#FFFFFF" d="M139.5,17.3c0,3.3-2.3,5.3-5.6,5.3c-3.3,0-5.5-2-5.5-5.3V9.1h2.3v8.3
		c0,1.9,1.2,3.1,3.2,3.1c2,0,3.3-1.2,3.3-3.1V9.1h2.3V17.3z"/>
	<polygon clip-path="url(#SVGID_2_)" fill="#FFFFFF" points="149,11.1 149,22.4 146.7,22.4 146.7,11.1 142.3,11.1 142.3,9.1 
		153.4,9.1 153.4,11.1 	"/>
	<path clip-path="url(#SVGID_2_)" fill="#FFFFFF" d="M3.8,22.6C0.7,17.2,1.6,10.4,6,6c4.4-4.4,11.2-5.3,16.5-2.2
		c0.5,0.3,1.1,0.1,1.4-0.4C24.2,3,24,2.4,23.6,2.1C17.4-1.4,9.6-0.4,4.6,4.6c-5,5-6.1,12.8-2.5,19c0,0.1,0.1,0.1,0.2,0.2
		c0.3,0.3,0.8,0.4,1.2,0.2C3.9,23.7,4.1,23,3.8,22.6"/>
	<path clip-path="url(#SVGID_2_)" fill="#FFFFFF" d="M22.3,22.2c3.4-3.4,3.6-8.7,0.7-12.3l6.5-6.5c0.4-0.4,0.4-1,0-1.4
		c-0.4-0.4-1-0.4-1.4,0l-6.5,6.5c-3.6-2.9-8.9-2.7-12.3,0.7c-3.4,3.4-3.6,8.7-0.7,12.3L2.1,28c-0.4,0.4-0.4,1,0,1.4
		c0.4,0.4,1,0.4,1.4,0l6.5-6.5C13.6,25.8,18.9,25.6,22.3,22.2 M11.4,21.5l3.1-3.1c0.4-0.4,0.4-1,0-1.4c-0.4-0.4-1-0.4-1.4,0L10,20.1
		c-2.1-2.8-1.9-6.9,0.7-9.4c2.6-2.6,6.6-2.8,9.4-0.7L17,13.1c-0.4,0.4-0.4,1,0,1.4c0.4,0.4,1,0.4,1.4,0l3.1-3.1
		c2.1,2.8,1.9,6.9-0.7,9.4C18.3,23.4,14.2,23.6,11.4,21.5"/>
	<path clip-path="url(#SVGID_2_)" fill="#FFFFFF" d="M29.4,7.9c-0.3-0.5-0.9-0.6-1.4-0.4s-0.6,0.9-0.4,1.4
		c3.1,5.4,2.2,12.2-2.2,16.5s-11.2,5.3-16.5,2.2c-0.5-0.3-1.1-0.1-1.4,0.4c-0.2,0.4-0.2,0.9,0.2,1.2c0.1,0.1,0.1,0.1,0.2,0.2
		c6.1,3.5,13.9,2.5,18.9-2.5C31.9,21.9,32.9,14.1,29.4,7.9"/>
</g>
</svg>
