<?xml version="1.0" encoding="utf-8"?>
<!-- Generator: Adobe Illustrator 19.1.0, SVG Export Plug-In . SVG Version: 6.00 Build 0)  -->
<svg version="1.1" id="Layer_1" xmlns="http://www.w3.org/2000/svg" xmlns:xlink="http://www.w3.org/1999/xlink" x="0px" y="0px"
	 width="364px" height="466px" viewBox="34 370.1 364 466" style="enable-background:new 34 370.1 364 466;" xml:space="preserve">
<style type="text/css">
	.st0{fill:#DDDDDD;}
	.st1{opacity:0.5;fill:#DDDDDD;enable-background:new    ;}
	.st2{fill:#333333;}
	.st3{fill:#666666;}
	.st4{fill:#FFFFFF;}
	.st5{opacity:0.5;fill:#FFFFFF;enable-background:new    ;}
	.st6{fill:#82D5A0;}
	.st7{fill:#424242;}
	.st8{fill:#FFCC66;}
	.st9{opacity:0.9;fill:#FFFFFF;enable-background:new    ;}
	.st10{fill:#999999;}
	.st11{fill:#89B6CD;}
	.st12{fill:#EBEBEB;}
	.st13{fill:#F2F2F2;}
	.st14{fill:#F7F7F7;}
	.st15{opacity:0.8;fill:#FFFFFF;enable-background:new    ;}
</style>
<g id="ear">
	<path class="st0" d="M250.4,442.2c2.4,0,4.4,2,4.4,4.4s-2,4.4-4.4,4.4h-39.3c-2.4,0-4.4-2-4.4-4.4c0-2.4,2-4.4,4.4-4.4L250.4,442.2
		 M250.4,441.2h-39.3c-3,0-5.4,2.4-5.4,5.4s2.4,5.4,5.4,5.4h39.3c3,0,5.4-2.4,5.4-5.4S253.4,441.2,250.4,441.2L250.4,441.2z"/>
</g>
<path class="st0" d="M101.3,650V437c0-19.2,15.6-34.8,34.9-34.8h189.3c19.2,0,34.9,15.6,34.9,34.8v213h2V437
	c0-20.3-16.5-36.8-36.9-36.8H136.1c-20.3,0-36.9,16.5-36.9,36.8v213H101.3z"/>
<path class="st0" d="M115.3,650V479.1h231L346.2,650h1l0.1-171.1c0-0.4-0.3-0.8-0.8-0.8H115c-0.4,0-0.8,0.3-0.8,0.8V650H115.3z"/>
<g id="Camera_2_">
	<circle class="st0" cx="230.8" cy="425.7" r="5"/>
</g>
<g id="Rechteck_31_copy">
	<g>
		<rect x="65" y="649.1" class="st0" width="333" height="1"/>
	</g>
</g>
<path class="st1" d="M330,491.1H129c-2.8,0-5,2.2-5,5v13c0,2.8,2.2,5,5,5h201c2.8,0,5-2.2,5-5v-13C335,493.3,332.8,491.1,330,491.1z
	"/>
<g>
	<path class="st2" d="M191.1,505.4c-0.4,1.1-0.8,1.6-1.8,1.6c-0.4,0-0.8-0.1-1.1-0.3l0.4-0.7c0.2,0.1,0.4,0.2,0.6,0.2
		c0.5,0,0.7-0.4,0.9-0.8l0.1-0.3l-2.2-5.3h1l1.7,4.1l1.5-4.1h1L191.1,505.4z"/>
	<path class="st2" d="M196.4,505.3c-1.6,0-2.6-1.2-2.6-2.8c0-1.6,1-2.8,2.6-2.8s2.6,1.2,2.6,2.8S198,505.3,196.4,505.3z
		 M196.4,500.5c-1.1,0-1.7,0.9-1.7,2c0,1.1,0.6,2,1.7,2s1.7-0.9,1.7-2C198.1,501.4,197.5,500.5,196.4,500.5z"/>
	<path class="st2" d="M204.8,499.8v5.3h-0.9v-0.9c-0.4,0.6-1,1-1.8,1c-1.1,0-1.9-0.7-1.9-2v-3.4h0.9v3.2c0,0.6,0.2,1.4,1.2,1.4
		c0.9,0,1.6-0.7,1.6-1.7v-3h0.9L204.8,499.8L204.8,499.8z"/>
	<path class="st2" d="M209.2,500.8c-0.2-0.1-0.4-0.2-0.6-0.2c-0.7,0-1.4,0.6-1.4,1.8v2.8h-0.9v-5.3h0.9v0.9c0.4-0.6,0.9-1,1.5-1
		c0.3,0,0.6,0.1,0.7,0.2L209.2,500.8z"/>
	<path class="st2" d="M215.9,505.1h-1l-1.3-4.2l-1.3,4.2h-1l-1.5-5.3h0.9l1.1,4.2l1.3-4.2h0.8l1.3,4.2l1.1-4.2h0.9L215.9,505.1z"/>
	<path class="st2" d="M223.2,502.7H219c0.1,1.1,0.7,1.7,1.8,1.7c0.6,0,1.2-0.2,1.6-0.7l0.6,0.6c-0.5,0.6-1.2,0.9-2.2,0.9
		c-1.7,0-2.7-1.2-2.7-2.8s1-2.8,2.6-2.8s2.5,1.2,2.5,2.6C223.2,502.5,223.2,502.6,223.2,502.7z M222.3,502c-0.1-1-0.8-1.5-1.6-1.5
		c-0.9,0-1.6,0.6-1.6,1.5H222.3z"/>
	<path class="st2" d="M225.3,497.9v2.9c0.5-0.7,1.2-1,1.9-1c1.5,0,2.4,1.2,2.4,2.8s-0.9,2.8-2.4,2.8c-0.7,0-1.4-0.3-1.9-1v0.9h-0.9
		V498L225.3,497.9L225.3,497.9z M227,504.5c1.1,0,1.7-0.9,1.7-1.9s-0.5-2-1.7-2s-1.7,0.9-1.7,2C225.3,503.6,225.9,504.5,227,504.5z"
		/>
	<path class="st2" d="M232.7,505.3c-1,0-1.9-0.4-2.3-1.1l0.7-0.5c0.4,0.6,1,0.9,1.7,0.9s1.2-0.3,1.2-0.9c0-0.5-0.5-0.6-1.5-0.8
		s-1.9-0.5-1.9-1.5c0-1.1,1-1.6,2-1.6s1.7,0.4,2.2,0.9l-0.6,0.6c-0.4-0.4-0.9-0.7-1.6-0.7c-0.6,0-1.1,0.2-1.1,0.7s0.6,0.7,1.3,0.8
		c1.1,0.2,2.1,0.4,2.1,1.6C234.9,504.6,234.1,505.3,232.7,505.3z"/>
	<path class="st2" d="M236.1,498.8v-0.9h0.9v0.9H236.1z M236.1,505.1v-5.3h0.9v5.3H236.1z"/>
	<path class="st2" d="M241.7,504.9c-0.3,0.2-0.7,0.4-1.2,0.4c-0.6,0-1.1-0.2-1.4-0.7c-0.2-0.3-0.2-0.6-0.2-1.1v-3H238v-0.7h0.9v-1.5
		h0.9v1.5h1.7v0.7h-1.7v3c0,0.6,0.3,0.9,0.8,0.9c0.3,0,0.5-0.1,0.7-0.2L241.7,504.9z"/>
	<path class="st2" d="M247.4,502.7h-4.2c0.1,1.1,0.7,1.7,1.8,1.7c0.6,0,1.2-0.2,1.6-0.7l0.6,0.6c-0.5,0.6-1.2,0.9-2.2,0.9
		c-1.7,0-2.7-1.2-2.7-2.8s1-2.8,2.6-2.8s2.5,1.2,2.5,2.6C247.4,502.5,247.4,502.6,247.4,502.7z M246.5,502c-0.1-1-0.8-1.5-1.6-1.5
		c-0.9,0-1.6,0.6-1.6,1.5H246.5z"/>
	<path class="st2" d="M248.5,505.1v-1h1.1v1.1L248.5,505.1L248.5,505.1z"/>
	<path class="st2" d="M255.5,504.2c-0.4,0.6-1.2,1.1-2.1,1.1c-1.6,0-2.6-1.2-2.6-2.8s1-2.8,2.6-2.8c0.9,0,1.7,0.4,2.1,1.1l-0.7,0.5
		c-0.3-0.5-0.8-0.8-1.4-0.8c-1,0-1.7,0.8-1.7,2c0,1.1,0.6,2,1.7,2c0.7,0,1.1-0.3,1.4-0.8L255.5,504.2z"/>
	<path class="st2" d="M258.8,505.3c-1.6,0-2.6-1.2-2.6-2.8c0-1.6,1-2.8,2.6-2.8s2.6,1.2,2.6,2.8
		C261.5,504.1,260.4,505.3,258.8,505.3z M258.8,500.5c-1.1,0-1.7,0.9-1.7,2c0,1.1,0.6,2,1.7,2s1.7-0.9,1.7-2
		C260.5,501.4,259.9,500.5,258.8,500.5z"/>
	<path class="st2" d="M262.7,505.1v-5.3h0.9v0.9c0.4-0.6,1-1,1.7-1c0.8,0,1.3,0.4,1.6,1.1c0.4-0.7,1.1-1.1,1.9-1.1
		c1.1,0,1.8,0.7,1.8,2v3.5h-0.9V502c0-0.7-0.2-1.3-1.1-1.3c-0.8,0-1.5,0.7-1.5,1.6v3h-0.9v-3.2c0-0.7-0.2-1.3-1.1-1.3
		s-1.5,0.6-1.5,1.6v3h-0.9V505.1z"/>
</g>
<g id="Rechteck_27">
	<g>
		<rect x="115.3" y="714.8" class="st3" width="231" height="85"/>
	</g>
</g>
<g>
	<path class="st4" d="M191.2,737v4.8h-2.1V737l-4.6-7.2h2.5l3.2,5.3l3.2-5.3h2.4L191.2,737z"/>
	<path class="st4" d="M202.2,742c-3.7,0-6-2.7-6-6.2s2.3-6.2,6-6.2s6,2.7,6,6.2C208.1,739.3,205.8,742,202.2,742z M202.2,731.5
		c-2.4,0-3.8,1.8-3.8,4.3s1.4,4.3,3.8,4.3s3.8-1.8,3.8-4.3S204.5,731.5,202.2,731.5z"/>
	<path class="st4" d="M220.3,737.2c0,3-2.1,4.8-5,4.8c-3,0-5-1.8-5-4.8v-7.4h2.1v7.4c0,1.7,1.1,2.8,2.9,2.8s3-1.1,3-2.8v-7.4h2.1
		v7.4H220.3z"/>
	<path class="st4" d="M230.7,741.8l-2.4-4.6h-3v4.6h-2.1v-12h5.4c2.6,0,4.2,1.5,4.2,3.6c0,1.7-1.1,2.9-2.4,3.4l2.7,5H230.7z
		 M228.5,731.6h-3.2v3.8h3.3c1.2,0,2.1-0.7,2.1-1.9C230.6,732.3,229.7,731.6,228.5,731.6z"/>
	<path class="st4" d="M247.3,741.8l-0.6-2.2h-3.9l-0.6,2.2h-3.7l4.3-12h4.1l4.2,12H247.3z M244.7,732.6l-1.2,4.3h2.4L244.7,732.6z"
		/>
	<path class="st4" d="M258,738.3h-2.4v3.5h-3.4v-12h5.8c2.9,0,4.7,1.7,4.7,4.3S260.8,738.3,258,738.3z M257.9,732.8h-2.3v2.4h2.3
		c0.7,0,1.3-0.3,1.3-1.2C259.3,733.2,258.6,732.8,257.9,732.8z"/>
	<path class="st4" d="M269.9,738.3h-2.4v3.5h-3.4v-12h5.8c2.9,0,4.7,1.7,4.7,4.3S272.8,738.3,269.9,738.3z M269.8,732.8h-2.3v2.4
		h2.3c0.7,0,1.3-0.3,1.3-1.2C271.2,733.2,270.6,732.8,269.8,732.8z"/>
</g>
<g>
	<path class="st4" d="M190.4,749v2.7c0.5-0.6,1.1-0.9,1.8-0.9c1.5,0,2.4,1.2,2.4,2.7c0,1.6-0.9,2.7-2.4,2.7c-0.7,0-1.3-0.3-1.8-0.9
		v0.8h-1.1V749H190.4L190.4,749z M191.9,755.2c1,0,1.5-0.8,1.5-1.7c0-1-0.5-1.8-1.5-1.8s-1.5,0.8-1.5,1.8S190.9,755.2,191.9,755.2z"
		/>
	<path class="st4" d="M198.2,756.3c-0.4,1.1-0.9,1.6-1.9,1.6c-0.5,0-0.8-0.1-1.2-0.4l0.4-0.8c0.2,0.1,0.4,0.2,0.6,0.2
		c0.4,0,0.6-0.3,0.8-0.7l0.1-0.3l-2.2-5.2h1.3l1.5,3.8l1.3-3.8h1.2L198.2,756.3z"/>
	<path class="st4" d="M206.4,756.3c-0.4,1.1-0.9,1.6-1.9,1.6c-0.5,0-0.8-0.1-1.2-0.4l0.4-0.8c0.2,0.1,0.4,0.2,0.6,0.2
		c0.4,0,0.6-0.3,0.8-0.7l0.1-0.3l-2.2-5.2h1.3l1.5,3.8l1.3-3.8h1.2L206.4,756.3z"/>
	<path class="st4" d="M211.5,756.2c-1.6,0-2.7-1.1-2.7-2.7c0-1.6,1-2.7,2.7-2.7c1.6,0,2.7,1.1,2.7,2.7S213.2,756.2,211.5,756.2z
		 M211.5,751.7c-0.9,0-1.5,0.8-1.5,1.8s0.5,1.8,1.5,1.8c0.9,0,1.5-0.8,1.5-1.8S212.5,751.7,211.5,751.7z"/>
	<path class="st4" d="M219.9,750.9v5.2h-1.1v-0.8c-0.4,0.6-1,0.9-1.7,0.9c-1.1,0-1.8-0.8-1.8-1.9v-3.4h1.1v3.2c0,0.6,0.2,1.2,1,1.2
		s1.4-0.5,1.4-1.4V751L219.9,750.9L219.9,750.9z"/>
	<path class="st4" d="M224.3,752c-0.2-0.1-0.4-0.2-0.6-0.2c-0.7,0-1.3,0.6-1.3,1.6v2.7h-1.1v-5.2h1.1v0.8c0.3-0.5,0.9-0.9,1.5-0.9
		c0.3,0,0.5,0.1,0.7,0.2L224.3,752z"/>
	<path class="st4" d="M232.6,755.1c-0.4,0.7-1.2,1.2-2.2,1.2c-1.6,0-2.6-1.2-2.6-2.7c0-1.6,1-2.7,2.6-2.7c1,0,1.7,0.5,2.2,1.2
		l-0.8,0.6c-0.3-0.5-0.7-0.8-1.3-0.8c-0.9,0-1.5,0.8-1.5,1.8s0.6,1.8,1.5,1.8c0.6,0,1-0.3,1.3-0.8L232.6,755.1z"/>
	<path class="st4" d="M235.8,756.2c-1.6,0-2.7-1.1-2.7-2.7c0-1.6,1-2.7,2.7-2.7s2.7,1.1,2.7,2.7S237.5,756.2,235.8,756.2z
		 M235.8,751.7c-1,0-1.5,0.8-1.5,1.8s0.5,1.8,1.5,1.8c0.9,0,1.5-0.8,1.5-1.8S236.8,751.7,235.8,751.7z"/>
	<path class="st4" d="M239.6,756.1v-5.2h1.1v0.8c0.4-0.6,1-0.9,1.6-0.9c0.8,0,1.3,0.4,1.5,1c0.5-0.7,1.1-1,1.8-1
		c1.1,0,1.8,0.8,1.8,1.9v3.4h-1.1v-3.2c0-0.6-0.2-1.2-1-1.2c-0.7,0-1.3,0.5-1.3,1.4v3h-1v-3.2c0-0.6-0.2-1.2-1-1.2
		c-0.7,0-1.3,0.5-1.3,1.4v3H239.6L239.6,756.1z"/>
	<path class="st4" d="M250,750.9v0.8c0.5-0.6,1.1-0.9,1.8-0.9c1.5,0,2.4,1.2,2.4,2.7c0,1.6-0.9,2.7-2.4,2.7c-0.7,0-1.3-0.3-1.8-0.9
		v2.5h-1.1v-7L250,750.9L250,750.9z M251.5,755.2c1,0,1.5-0.8,1.5-1.7c0-1-0.5-1.8-1.5-1.8s-1.5,0.8-1.5,1.8
		S250.5,755.2,251.5,755.2z"/>
	<path class="st4" d="M259.5,756.2c-0.5,0-0.9-0.2-1-0.8c-0.4,0.6-1.1,0.8-1.7,0.8c-1.1,0-1.8-0.6-1.8-1.6c0-1.3,1.1-1.5,2-1.6
		c0.8-0.1,1.3-0.1,1.3-0.7c0-0.5-0.6-0.7-1.1-0.7s-1.1,0.2-1.6,0.5l-0.4-0.8c0.6-0.4,1.3-0.6,2.2-0.6c1.2,0,2.1,0.5,2.1,1.8v2.4
		c0,0.3,0.1,0.5,0.4,0.5c0.1,0,0.2,0,0.3-0.1l0.1,0.8C260,756.2,259.7,756.2,259.5,756.2z M258.3,753.3c-0.3,0.4-0.8,0.4-1.3,0.5
		s-1,0.2-1,0.8s0.4,0.8,1,0.8c0.7,0,1.3-0.4,1.3-1.2V753.3z"/>
	<path class="st4" d="M261.1,756.1v-5.2h1.1v0.8c0.4-0.6,1-0.9,1.7-0.9c1.1,0,1.8,0.8,1.8,1.9v3.4h-1.1v-3.2c0-0.6-0.2-1.2-1-1.2
		s-1.4,0.5-1.4,1.4v2.9L261.1,756.1L261.1,756.1z"/>
	<path class="st4" d="M269.6,756.3c-0.4,1.1-0.9,1.6-1.9,1.6c-0.5,0-0.8-0.1-1.2-0.4l0.4-0.8c0.2,0.1,0.4,0.2,0.6,0.2
		c0.4,0,0.6-0.3,0.8-0.7l0.1-0.3l-2.2-5.2h1.3l1.5,3.8l1.3-3.8h1.2L269.6,756.3z"/>
</g>
<path class="st4" d="M259,775.1c0-2.2-1.8-4-4-4h-49c-2.2,0-4,1.8-4,4v7c0,2.2,1.8,4,4,4h49c2.2,0,4-1.8,4-4V775.1z"/>
<g>
	<path class="st3" d="M211.6,781.7v-6.2h1.5v6.2H211.6z"/>
	<path class="st3" d="M218.2,781.7l-2.3-4.3v4.3h-1.4v-6.2h1.9l2.3,4.2v-4.2h1.4v6.2H218.2z"/>
	<path class="st3" d="M226.2,776.6l-1.1,0.7c-0.4-0.5-1-0.7-1.6-0.7c-0.5,0-0.9,0.2-0.9,0.6c0,0.5,0.6,0.6,1.3,0.7
		c1.3,0.2,2.4,0.6,2.4,1.9c0,1.2-0.9,2.1-2.6,2.1c-1.4,0-2.4-0.6-2.9-1.6l1.2-0.6c0.4,0.7,1.1,1,1.8,1c0.7,0,1.1-0.2,1.1-0.6
		c0-0.5-0.6-0.6-1.4-0.7c-1.3-0.2-2.3-0.6-2.3-1.9c0-1.2,1-1.9,2.4-1.9C224.6,775.4,225.6,775.7,226.2,776.6z"/>
	<path class="st3" d="M230.3,776.8v4.9h-1.5v-4.9h-1.9v-1.3h5.4v1.3H230.3z"/>
	<path class="st3" d="M236.7,781.7l-0.4-1.3H234l-0.4,1.3H232l2.3-6.2h1.8l2.3,6.2H236.7z M235.1,776.7l-0.8,2.5h1.6L235.1,776.7z"
		/>
	<path class="st3" d="M239,781.7v-6.2h1.5v4.9h3.2v1.3H239L239,781.7z"/>
	<path class="st3" d="M244.4,781.7v-6.2h1.5v4.9h3.2v1.3H244.4L244.4,781.7z"/>
</g>
<polygon class="st5" points="337,725.4 336.4,724.8 333.5,727.8 330.6,724.8 330,725.4 332.9,728.4 330,731.4 330.6,732 333.5,729 
	336.4,732 337,731.4 334.1,728.4 "/>
<g id="Rechteck_27_2_">
	<rect x="115" y="525.1" class="st6" width="231" height="85"/>
</g>
<g id="Rechteck_23">
	<g>
		<path class="st4" d="M183.6,537.9h-49.5c-2.8,0-5,2.2-5,5v49.5c0,2.8,2.2,5,5,5h49.5c2.8,0,5-2.2,5-5v-49.5
			C188.6,540.2,186.4,537.9,183.6,537.9z"/>
	</g>
</g>
<g>
	<path class="st7" d="M143.7,561v4.1h-1.8V561l-3.9-6.1h2.1l2.7,4.5l2.7-4.5h2.1L143.7,561z"/>
	<path class="st7" d="M153,565.3c-3.1,0-5.1-2.3-5.1-5.3s1.9-5.3,5.1-5.3s5.1,2.3,5.1,5.3C158,563,156.1,565.3,153,565.3z
		 M153,556.4c-2,0-3.2,1.5-3.2,3.6c0,2.1,1.2,3.6,3.2,3.6s3.2-1.5,3.2-3.6C156.2,557.9,155,556.4,153,556.4z"/>
	<path class="st7" d="M168.4,561.2c0,2.5-1.8,4.1-4.3,4.1s-4.3-1.5-4.3-4.1v-6.3h1.8v6.3c0,1.5,0.9,2.4,2.5,2.4
		c1.5,0,2.5-0.9,2.5-2.4v-6.3h1.8V561.2z"/>
	<path class="st7" d="M177.2,565.1l-2.1-3.9h-2.6v3.9h-1.8v-10.2h4.6c2.2,0,3.6,1.2,3.6,3.1c0,1.5-0.9,2.4-2,2.9l2.3,4.2H177.2z
		 M175.3,556.5h-2.7v3.2h2.8c1,0,1.7-0.6,1.7-1.6C177.1,557.1,176.4,556.5,175.3,556.5z"/>
	<path class="st7" d="M150.8,583.5l-0.5-1.9H147l-0.5,1.9h-3.2l3.6-10.2h3.5l3.6,10.2H150.8z M148.7,575.6l-1,3.7h2.1L148.7,575.6z"
		/>
	<path class="st7" d="M159.9,580.5h-2v3H155v-10.2h4.9c2.4,0,4,1.4,4,3.6S162.4,580.5,159.9,580.5z M159.9,575.9h-2v2.1h2
		c0.6,0,1.1-0.3,1.1-1S160.5,575.9,159.9,575.9z"/>
	<path class="st7" d="M170.1,580.5h-2v3h-2.9v-10.2h4.9c2.4,0,4,1.4,4,3.6S172.5,580.5,170.1,580.5z M170,575.9h-2v2.1h2
		c0.6,0,1.1-0.3,1.1-1S170.6,575.9,170,575.9z"/>
</g>
<g>
	<path class="st4" d="M200.8,546.4v2.8H199v-2.8l-2.8-4.6h2.1l1.7,2.9l1.7-2.9h2L200.8,546.4z"/>
	<path class="st4" d="M206.2,549.3c-1.9,0-3.1-1.2-3.1-3.1c0-1.8,1.2-3.1,3.1-3.1s3.1,1.2,3.1,3.1
		C209.3,548.1,208.1,549.3,206.2,549.3z M206.2,544.6c-0.9,0-1.3,0.7-1.3,1.7s0.5,1.7,1.3,1.7c0.9,0,1.3-0.7,1.3-1.7
		S207.1,544.6,206.2,544.6z"/>
	<path class="st4" d="M215.8,543.3v5.9h-1.7v-0.7c-0.5,0.5-1.1,0.8-1.8,0.8c-1.3,0-2-0.9-2-2.1v-3.9h1.7v3.5c0,0.5,0.2,1,0.9,1
		c0.6,0,1.1-0.4,1.1-1.2v-3.4h1.8V543.3z"/>
	<path class="st4" d="M220.8,545.1c-0.2-0.1-0.4-0.2-0.7-0.2c-0.7,0-1.2,0.6-1.2,1.5v2.9h-1.7v-5.9h1.7v0.9c0.4-0.6,0.9-1,1.6-1
		c0.3,0,0.6,0.1,0.8,0.2L220.8,545.1z"/>
	<path class="st4" d="M230.8,548c0,0.9-0.1,1.7-0.7,2.3c-0.7,0.8-1.8,1-2.8,1s-1.8-0.2-2.6-0.6l0.6-1.3c0.5,0.3,1.2,0.5,1.9,0.5
		c1,0,1.8-0.4,1.8-1.4v-0.4c-0.5,0.5-1.1,0.8-1.8,0.8c-1.6,0-2.7-1.2-2.7-2.8s1.1-2.9,2.7-2.9c0.8,0,1.4,0.3,1.8,0.8v-0.7h1.7v4.7
		H230.8z M227.7,544.6c-0.9,0-1.3,0.6-1.3,1.4s0.5,1.5,1.3,1.5c0.9,0,1.4-0.6,1.4-1.5C229.1,545.2,228.6,544.6,227.7,544.6z"/>
	<path class="st4" d="M235.7,545.1c-0.2-0.1-0.4-0.2-0.7-0.2c-0.7,0-1.2,0.6-1.2,1.5v2.9h-1.7v-5.9h1.7v0.9c0.4-0.6,0.9-1,1.6-1
		c0.3,0,0.6,0.1,0.8,0.2L235.7,545.1z"/>
	<path class="st4" d="M242.5,546.7h-4.2c0.1,0.8,0.6,1.2,1.5,1.2c0.7,0,1.2-0.3,1.6-0.7l1.1,1c-0.7,0.7-1.5,1.1-2.8,1.1
		c-2.1,0-3.2-1.3-3.2-3c0-1.8,1.1-3.1,3.1-3.1c1.9,0,3,1.2,3,3C242.6,546.4,242.5,546.6,242.5,546.7z M240.9,545.5
		c-0.1-0.7-0.6-1.1-1.3-1.1c-0.7,0-1.2,0.4-1.3,1.1H240.9z"/>
	<path class="st4" d="M243.4,543.8c0.8-0.5,1.6-0.7,2.6-0.7c1.5,0,2.5,0.6,2.5,2.1v2.5c0,0.3,0.1,0.4,0.3,0.4c0.1,0,0.2,0,0.3-0.1
		l0.2,1.1c-0.2,0.1-0.6,0.2-0.9,0.2c-0.6,0-1.1-0.2-1.2-0.8c-0.4,0.6-1.2,0.8-1.9,0.8c-1.2,0-2-0.7-2-1.8c0-1.4,1.2-1.7,2.2-1.8
		c0.9-0.1,1.4-0.1,1.4-0.6s-0.5-0.6-1-0.6c-0.6,0-1.3,0.2-1.9,0.6L243.4,543.8z M246.8,546.3c-0.2,0.3-0.6,0.3-1.1,0.4
		c-0.4,0.1-0.8,0.2-0.8,0.7s0.3,0.7,0.8,0.7c0.6,0,1.1-0.3,1.1-1.1V546.3z"/>
	<path class="st4" d="M254.1,548.8c-0.4,0.3-0.9,0.5-1.6,0.5c-0.8,0-1.3-0.2-1.7-0.7c-0.2-0.4-0.3-0.8-0.3-1.4v-2.7h-0.9v-1.3h0.9
		v-1.5h1.7v1.5h1.7v1.3h-1.7v2.7c0,0.5,0.2,0.6,0.6,0.6c0.3,0,0.5-0.1,0.7-0.3L254.1,548.8z"/>
	<path class="st4" d="M257.7,543.8c0.8-0.5,1.6-0.7,2.6-0.7c1.5,0,2.5,0.6,2.5,2.1v2.5c0,0.3,0.1,0.4,0.3,0.4c0.1,0,0.2,0,0.3-0.1
		l0.2,1.1c-0.2,0.1-0.6,0.2-0.9,0.2c-0.6,0-1.1-0.2-1.2-0.8c-0.4,0.6-1.2,0.8-1.9,0.8c-1.2,0-2-0.7-2-1.8c0-1.4,1.2-1.7,2.2-1.8
		c0.9-0.1,1.4-0.1,1.4-0.6s-0.5-0.6-1-0.6c-0.6,0-1.3,0.2-1.9,0.6L257.7,543.8z M261.1,546.3c-0.2,0.3-0.6,0.3-1.1,0.4
		c-0.4,0.1-0.8,0.2-0.8,0.7s0.3,0.7,0.8,0.7c0.6,0,1.1-0.3,1.1-1.1V546.3z"/>
	<path class="st4" d="M266,543.3v0.7c0.5-0.5,1.1-0.8,1.8-0.8c1.7,0,2.7,1.3,2.7,3.1c0,1.8-1,3.1-2.7,3.1c-0.7,0-1.3-0.3-1.8-0.8
		v2.6h-1.7v-7.8h1.7V543.3z M267.4,547.9c0.9,0,1.3-0.8,1.3-1.6c0-0.9-0.4-1.6-1.3-1.6s-1.4,0.7-1.4,1.6
		C266,547.1,266.5,547.9,267.4,547.9z"/>
	<path class="st4" d="M273.3,543.3v0.7c0.5-0.5,1.1-0.8,1.8-0.8c1.7,0,2.7,1.3,2.7,3.1c0,1.8-1,3.1-2.7,3.1c-0.7,0-1.3-0.3-1.8-0.8
		v2.6h-1.7v-7.8h1.7V543.3z M274.7,547.9c0.9,0,1.3-0.8,1.3-1.6c0-0.9-0.4-1.6-1.3-1.6s-1.4,0.7-1.4,1.6
		C273.3,547.1,273.8,547.9,274.7,547.9z"/>
	<path class="st4" d="M197.8,553.3v2.3c0.4-0.5,0.9-0.8,1.5-0.8c1.3,0,2,1,2,2.3s-0.8,2.3-2,2.3c-0.6,0-1.1-0.2-1.5-0.8v0.7h-0.9
		v-6.1h0.9V553.3z M199.1,558.7c0.8,0,1.3-0.7,1.3-1.5s-0.4-1.5-1.3-1.5s-1.3,0.7-1.3,1.5C197.8,558,198.3,558.7,199.1,558.7z"/>
	<path class="st4" d="M204.4,559.6c-0.3,0.9-0.7,1.4-1.6,1.4c-0.4,0-0.7-0.1-1-0.3l0.4-0.7c0.2,0.1,0.3,0.2,0.5,0.2
		c0.4,0,0.5-0.3,0.7-0.6l0.1-0.2l-1.9-4.4h1.1l1.3,3.2l1.1-3.2h1L204.4,559.6z"/>
	<path class="st4" d="M211.4,559.6c-0.3,0.9-0.7,1.4-1.6,1.4c-0.4,0-0.7-0.1-1-0.3l0.4-0.7c0.2,0.1,0.3,0.2,0.5,0.2
		c0.4,0,0.5-0.3,0.7-0.6l0.1-0.2l-1.9-4.4h1.1l1.3,3.2l1.1-3.2h1L211.4,559.6z"/>
	<path class="st4" d="M215.8,559.5c-1.4,0-2.3-1-2.3-2.3c0-1.4,0.9-2.3,2.3-2.3s2.3,1,2.3,2.3C218.1,558.5,217.2,559.5,215.8,559.5z
		 M215.8,555.7c-0.8,0-1.3,0.7-1.3,1.5c0,0.9,0.5,1.5,1.3,1.5s1.3-0.7,1.3-1.5C217.1,556.3,216.6,555.7,215.8,555.7z"/>
	<path class="st4" d="M222.9,554.9v4.5H222v-0.6c-0.4,0.5-0.9,0.7-1.5,0.7c-1,0-1.5-0.7-1.5-1.7v-2.9h0.9v2.7c0,0.5,0.1,1,0.9,1
		c0.7,0,1.2-0.5,1.2-1.2v-2.5H222.9z"/>
	<path class="st4" d="M226.7,555.9c-0.1-0.1-0.3-0.1-0.5-0.1c-0.6,0-1.1,0.5-1.1,1.3v2.3h-0.9v-4.5h0.9v0.7c0.3-0.5,0.7-0.8,1.3-0.8
		c0.2,0,0.5,0.1,0.6,0.2L226.7,555.9z"/>
	<path class="st4" d="M233.7,558.5c-0.4,0.6-1,1-1.9,1c-1.4,0-2.2-1-2.2-2.3s0.9-2.3,2.2-2.3c0.9,0,1.5,0.4,1.8,1l-0.7,0.5
		c-0.2-0.4-0.6-0.7-1.1-0.7c-0.8,0-1.3,0.6-1.3,1.5c0,0.9,0.5,1.5,1.3,1.5c0.5,0,0.9-0.3,1.1-0.6L233.7,558.5z"/>
	<path class="st4" d="M236.5,559.5c-1.4,0-2.3-1-2.3-2.3c0-1.4,0.9-2.3,2.3-2.3s2.3,1,2.3,2.3C238.7,558.5,237.9,559.5,236.5,559.5z
		 M236.5,555.7c-0.8,0-1.3,0.7-1.3,1.5c0,0.9,0.5,1.5,1.3,1.5s1.3-0.7,1.3-1.5C237.7,556.3,237.3,555.7,236.5,555.7z"/>
	<path class="st4" d="M239.7,559.4v-4.5h0.9v0.6c0.4-0.5,0.8-0.7,1.4-0.7c0.7,0,1.1,0.3,1.3,0.8c0.4-0.6,0.9-0.8,1.6-0.8
		c1,0,1.5,0.6,1.5,1.6v2.9h-0.9v-2.7c0-0.5-0.1-1-0.8-1c-0.6,0-1.1,0.5-1.1,1.2v2.5h-0.9v-2.7c0-0.5-0.1-1-0.8-1
		c-0.6,0-1.1,0.5-1.1,1.2v2.5L239.7,559.4L239.7,559.4z"/>
	<path class="st4" d="M248.5,554.9v0.7c0.4-0.5,0.9-0.8,1.5-0.8c1.3,0,2,1,2,2.3s-0.8,2.3-2,2.3c-0.6,0-1.1-0.2-1.5-0.7v2.1h-0.9
		v-5.9H248.5L248.5,554.9z M249.8,558.7c0.9,0,1.3-0.7,1.3-1.5s-0.4-1.5-1.3-1.5c-0.8,0-1.3,0.7-1.3,1.5S249,558.7,249.8,558.7z"/>
	<path class="st4" d="M256.6,559.5c-0.4,0-0.8-0.2-0.9-0.7c-0.4,0.5-1,0.7-1.5,0.7c-0.9,0-1.5-0.5-1.5-1.4c0-1.1,1-1.3,1.7-1.4
		c0.6-0.1,1.1-0.1,1.1-0.6c0-0.4-0.5-0.6-0.9-0.6c-0.5,0-1,0.2-1.4,0.5l-0.4-0.7c0.6-0.4,1.1-0.5,1.8-0.5c1.1,0,1.8,0.4,1.8,1.5v2
		c0,0.3,0.1,0.4,0.3,0.4c0.1,0,0.2,0,0.2-0.1l0.1,0.6C257,559.4,256.8,559.5,256.6,559.5z M255.6,557c-0.3,0.3-0.6,0.3-1.1,0.4
		c-0.5,0.1-0.8,0.2-0.8,0.7s0.4,0.7,0.8,0.7c0.6,0,1.1-0.3,1.1-1.1V557z"/>
	<path class="st4" d="M257.9,559.4v-4.5h0.9v0.7c0.4-0.5,0.9-0.8,1.5-0.8c1,0,1.5,0.7,1.5,1.7v2.9h-0.9v-2.7c0-0.5-0.2-1-0.9-1
		c-0.7,0-1.2,0.5-1.2,1.2v2.5L257.9,559.4L257.9,559.4z"/>
	<path class="st4" d="M265.2,559.6c-0.3,0.9-0.7,1.4-1.6,1.4c-0.4,0-0.7-0.1-1-0.3l0.4-0.7c0.2,0.1,0.3,0.2,0.5,0.2
		c0.4,0,0.5-0.3,0.7-0.6l0.1-0.2l-1.9-4.4h1.1l1.3,3.2l1.1-3.2h1L265.2,559.6z"/>
</g>
<g id="Abgerundetes_Rechteck_1_2_">
	<path class="st4" d="M332,581.4c2.2,0,4,1.8,4,4v7c0,2.2-1.8,4-4,4h-48.7c-2.2,0-4-1.8-4-4v-7c0-2.2,1.8-4,4-4H332 M332,580.4
		h-48.7c-2.8,0-5,2.2-5,5v7c0,2.8,2.2,5,5,5H332c2.8,0,5-2.2,5-5v-7C337,582.7,334.8,580.4,332,580.4L332,580.4z"/>
</g>
<g>
	<path class="st4" d="M290.4,592v-6.2h1.5v6.2H290.4z"/>
	<path class="st4" d="M297,592l-2.3-4.3v4.3h-1.4v-6.2h1.9l2.3,4.2v-4.2h1.4v6.2H297z"/>
	<path class="st4" d="M305,587l-1.1,0.7c-0.4-0.5-1-0.7-1.6-0.7c-0.5,0-0.9,0.2-0.9,0.6c0,0.5,0.6,0.6,1.3,0.7
		c1.3,0.2,2.4,0.6,2.4,1.9c0,1.2-0.9,2.1-2.6,2.1c-1.4,0-2.4-0.6-2.9-1.6l1.2-0.6c0.4,0.7,1.1,1,1.8,1c0.7,0,1.1-0.2,1.1-0.6
		c0-0.5-0.6-0.6-1.4-0.7c-1.3-0.2-2.3-0.6-2.3-1.9c0-1.2,1-1.9,2.4-1.9C303.4,585.7,304.4,586,305,587z"/>
	<path class="st4" d="M309.1,587.1v4.9h-1.5v-4.9h-1.9v-1.3h5.4v1.3H309.1z"/>
	<path class="st4" d="M315.5,592l-0.4-1.3h-2.2l-0.4,1.3h-1.6l2.3-6.2h1.8l2.3,6.2H315.5z M313.9,587.1l-0.8,2.5h1.6L313.9,587.1z"
		/>
	<path class="st4" d="M317.8,592v-6.2h1.5v4.9h3.2v1.3L317.8,592L317.8,592z"/>
	<path class="st4" d="M323.2,592v-6.2h1.5v4.9h3.2v1.3L323.2,592L323.2,592z"/>
</g>
<g>
	<polygon class="st8" points="202.2,587.9 200.9,585.5 199.7,587.9 197.1,588.4 198.9,590.4 198.6,593.2 200.9,592 203.3,593.2 
		203,590.4 204.8,588.4 	"/>
	<polygon class="st8" points="212.4,587.9 211.1,585.5 209.9,587.9 207.3,588.4 209.1,590.4 208.8,593.2 211.1,592 213.5,593.2 
		213.2,590.4 215,588.4 	"/>
	<polygon class="st8" points="222.6,587.9 221.3,585.5 220.1,587.9 217.5,588.4 219.3,590.4 219,593.2 221.3,592 223.7,593.2 
		223.4,590.4 225.2,588.4 	"/>
	<polygon class="st8" points="232.8,587.9 231.5,585.5 230.3,587.9 227.7,588.4 229.5,590.4 229.2,593.2 231.5,592 233.9,593.2 
		233.6,590.4 235.4,588.4 	"/>
	<polygon class="st8" points="246.4,588.4 243.9,587.9 242.6,585.5 241.3,587.9 238.8,588.4 240.6,590.4 240.2,593.2 242.6,592 
		245,593.2 244.6,590.4 	"/>
</g>
<polygon class="st9" points="337.4,533.7 336.8,533.1 333.8,536.1 330.8,533.1 330.2,533.7 333.2,536.7 330.2,539.7 330.8,540.3 
	333.8,537.3 336.8,540.3 337.4,539.7 334.4,536.7 "/>
<path class="st4" d="M82.5,371.1c-26.2,0-47.5,21.3-47.5,47.5s21.3,47.5,47.5,47.5s47.5-21.3,47.5-47.5S108.7,371.1,82.5,371.1z"/>
<g>
	<path class="st10" d="M100.8,390.5L64,427.3l11.3,11.3l36.8-36.8L100.8,390.5z M66.8,427.3l33.9-33.9l8.5,8.5l-33.9,33.9
		L66.8,427.3z"/>
	<path class="st10" d="M57.7,445.1l16.3-5l-11.3-11.3L57.7,445.1z M70.2,439.2l-9.5,2.9l2.9-9.5L70.2,439.2z"/>
</g>
<g>
	<path class="st0" d="M82.5,371.1c26.2,0,47.5,21.3,47.5,47.5s-21.3,47.5-47.5,47.5S35,444.8,35,418.6S56.3,371.1,82.5,371.1
		 M82.5,370.1c-26.8,0-48.5,21.7-48.5,48.5s21.7,48.5,48.5,48.5s48.5-21.7,48.5-48.5S109.3,370.1,82.5,370.1L82.5,370.1z"/>
</g>
<g>
	<path class="st10" d="M254.8,771.1c2.2,0,4,1.8,4,4v7c0,2.2-1.8,4-4,4h-48.7c-2.2,0-4-1.8-4-4v-7c0-2.2,1.8-4,4-4H254.8
		 M254.8,770.1h-48.7c-2.8,0-5,2.2-5,5v7c0,2.8,2.2,5,5,5h48.7c2.8,0,5-2.2,5-5v-7C259.8,772.3,257.6,770.1,254.8,770.1L254.8,770.1
		z"/>
</g>
<g id="Rechteck_27_copy">
	<g>
		<rect x="115.3" y="620.1" class="st11" width="231" height="85"/>
	</g>
</g>
<g>
	<path class="st12" d="M201.9,635.9c1.1,0,2,0.9,2,2v49.5c0,1.1-0.9,2-2,2h-49.5c-1.1,0-2-0.9-2-2v-49.5c0-1.1,0.9-2,2-2H201.9
		 M201.9,632.9h-49.5c-2.8,0-5,2.2-5,5v49.5c0,2.8,2.2,5,5,5h49.5c2.8,0,5-2.2,5-5v-49.5C206.9,635.2,204.7,632.9,201.9,632.9
		L201.9,632.9z"/>
</g>
<g>
	<path class="st4" d="M162,656v4.1h-1.8V656l-3.9-6.1h2.1l2.7,4.5l2.7-4.5h2.1L162,656z"/>
	<path class="st4" d="M171.3,660.3c-3.1,0-5.1-2.3-5.1-5.3s1.9-5.3,5.1-5.3s5.1,2.3,5.1,5.3S174.4,660.3,171.3,660.3z M171.3,651.4
		c-2,0-3.2,1.5-3.2,3.6c0,2.1,1.2,3.6,3.2,3.6s3.2-1.5,3.2-3.6C174.5,652.9,173.3,651.4,171.3,651.4z"/>
	<path class="st4" d="M186.7,656.2c0,2.5-1.8,4.1-4.3,4.1s-4.3-1.5-4.3-4.1v-6.3h1.8v6.3c0,1.5,0.9,2.4,2.5,2.4
		c1.5,0,2.5-0.9,2.5-2.4v-6.3h1.8V656.2z"/>
	<path class="st4" d="M195.6,660.1l-2.1-3.9h-2.6v3.9h-1.8v-10.2h4.6c2.2,0,3.6,1.2,3.6,3.1c0,1.5-0.9,2.4-2,2.9l2.3,4.2H195.6z
		 M193.7,651.5H191v3.2h2.8c1,0,1.7-0.6,1.7-1.6S194.7,651.5,193.7,651.5z"/>
	<path class="st4" d="M169.2,678.5l-0.5-1.9h-3.3l-0.5,1.9h-3.2l3.6-10.2h3.5l3.6,10.2H169.2z M167,670.6l-1,3.7h2.1L167,670.6z"/>
	<path class="st4" d="M178.3,675.5h-2v3h-2.9v-10.2h4.9c2.4,0,4,1.4,4,3.6S180.7,675.5,178.3,675.5z M178.2,670.9h-2v2.1h2
		c0.6,0,1.1-0.3,1.1-1S178.8,670.9,178.2,670.9z"/>
	<path class="st4" d="M188.4,675.5h-2v3h-2.9v-10.2h4.9c2.4,0,4,1.4,4,3.6S190.8,675.5,188.4,675.5z M188.4,670.9h-2v2.1h2
		c0.6,0,1.1-0.3,1.1-1S189,670.9,188.4,670.9z"/>
</g>
<g>
	<path class="st13" d="M220.2,641.4v2.8h-1.8v-2.8l-2.8-4.6h2.1l1.7,2.9l1.7-2.9h2L220.2,641.4z"/>
	<path class="st13" d="M225.5,644.3c-1.9,0-3.1-1.2-3.1-3.1c0-1.8,1.2-3.1,3.1-3.1s3.1,1.2,3.1,3.1
		C228.7,643.1,227.5,644.3,225.5,644.3z M225.5,639.6c-0.9,0-1.3,0.7-1.3,1.7s0.5,1.7,1.3,1.7c0.9,0,1.3-0.7,1.3-1.7
		C226.9,640.3,226.4,639.6,225.5,639.6z"/>
	<path class="st13" d="M235.1,638.3v5.9h-1.7v-0.7c-0.5,0.5-1.1,0.8-1.8,0.8c-1.3,0-2-0.9-2-2.1v-3.9h1.7v3.5c0,0.5,0.2,1,0.9,1
		c0.6,0,1.1-0.4,1.1-1.2v-3.4h1.8V638.3z"/>
	<path class="st13" d="M240.1,640.1c-0.2-0.1-0.4-0.2-0.7-0.2c-0.7,0-1.2,0.6-1.2,1.5v2.9h-1.7v-5.9h1.7v0.9c0.4-0.6,0.9-1,1.6-1
		c0.3,0,0.6,0.1,0.8,0.2L240.1,640.1z"/>
	<path class="st13" d="M250.1,643c0,0.9-0.1,1.7-0.7,2.3c-0.7,0.8-1.8,1-2.8,1s-1.8-0.2-2.6-0.6l0.6-1.3c0.5,0.3,1.2,0.5,1.9,0.5
		c1,0,1.8-0.4,1.8-1.4v-0.4c-0.5,0.5-1.1,0.8-1.8,0.8c-1.6,0-2.7-1.2-2.7-2.8s1.1-2.9,2.7-2.9c0.8,0,1.4,0.3,1.8,0.8v-0.7h1.7v4.7
		H250.1z M247,639.6c-0.9,0-1.3,0.6-1.3,1.4s0.5,1.5,1.3,1.5c0.9,0,1.4-0.6,1.4-1.5C248.4,640.2,247.9,639.6,247,639.6z"/>
	<path class="st13" d="M255.1,640.1c-0.2-0.1-0.4-0.2-0.7-0.2c-0.7,0-1.2,0.6-1.2,1.5v2.9h-1.7v-5.9h1.7v0.9c0.4-0.6,0.9-1,1.6-1
		c0.3,0,0.6,0.1,0.8,0.2L255.1,640.1z"/>
	<path class="st13" d="M261.9,641.7h-4.2c0.1,0.8,0.6,1.2,1.5,1.2c0.7,0,1.2-0.3,1.6-0.7l1.1,1c-0.7,0.7-1.5,1.1-2.8,1.1
		c-2.1,0-3.2-1.3-3.2-3c0-1.8,1.1-3.1,3.1-3.1c1.9,0,3,1.2,3,3C261.9,641.4,261.9,641.6,261.9,641.7z M260.2,640.5
		c-0.1-0.7-0.6-1.1-1.3-1.1c-0.7,0-1.2,0.4-1.3,1.1H260.2z"/>
	<path class="st13" d="M262.8,638.8c0.8-0.5,1.6-0.7,2.6-0.7c1.5,0,2.5,0.6,2.5,2.1v2.5c0,0.3,0.1,0.4,0.3,0.4c0.1,0,0.2,0,0.3-0.1
		l0.2,1.1c-0.2,0.1-0.6,0.2-0.9,0.2c-0.6,0-1.1-0.2-1.2-0.8c-0.4,0.6-1.2,0.8-1.9,0.8c-1.2,0-2-0.7-2-1.8c0-1.4,1.2-1.7,2.2-1.8
		c0.9-0.1,1.4-0.1,1.4-0.6s-0.5-0.6-1-0.6c-0.6,0-1.3,0.2-1.9,0.6L262.8,638.8z M266.1,641.3c-0.2,0.3-0.6,0.3-1.1,0.4
		c-0.4,0.1-0.8,0.2-0.8,0.7s0.3,0.7,0.8,0.7c0.6,0,1.1-0.3,1.1-1.1V641.3z"/>
	<path class="st13" d="M273.4,643.8c-0.4,0.3-0.9,0.5-1.6,0.5c-0.8,0-1.3-0.2-1.7-0.7c-0.2-0.4-0.3-0.8-0.3-1.4v-2.7h-0.9v-1.3h0.9
		v-1.5h1.7v1.5h1.7v1.3h-1.7v2.7c0,0.5,0.2,0.6,0.6,0.6c0.3,0,0.5-0.1,0.7-0.3L273.4,643.8z"/>
	<path class="st13" d="M277,638.8c0.8-0.5,1.6-0.7,2.6-0.7c1.5,0,2.5,0.6,2.5,2.1v2.5c0,0.3,0.1,0.4,0.3,0.4c0.1,0,0.2,0,0.3-0.1
		l0.2,1.1c-0.2,0.1-0.6,0.2-0.9,0.2c-0.6,0-1.1-0.2-1.2-0.8c-0.4,0.6-1.2,0.8-1.9,0.8c-1.2,0-2-0.7-2-1.8c0-1.4,1.2-1.7,2.2-1.8
		c0.9-0.1,1.4-0.1,1.4-0.6s-0.5-0.6-1-0.6c-0.6,0-1.3,0.2-1.9,0.6L277,638.8z M280.4,641.3c-0.2,0.3-0.6,0.3-1.1,0.4
		c-0.4,0.1-0.8,0.2-0.8,0.7s0.3,0.7,0.8,0.7c0.6,0,1.1-0.3,1.1-1.1V641.3z"/>
	<path class="st13" d="M285.4,638.3v0.7c0.5-0.5,1.1-0.8,1.8-0.8c1.7,0,2.7,1.3,2.7,3.1c0,1.8-1,3.1-2.7,3.1c-0.7,0-1.3-0.3-1.8-0.8
		v2.6h-1.7v-7.8h1.7V638.3z M286.8,642.9c0.9,0,1.3-0.8,1.3-1.6c0-0.9-0.4-1.6-1.3-1.6s-1.4,0.7-1.4,1.6
		C285.4,642.1,285.8,642.9,286.8,642.9z"/>
	<path class="st13" d="M292.6,638.3v0.7c0.5-0.5,1.1-0.8,1.8-0.8c1.7,0,2.7,1.3,2.7,3.1c0,1.8-1,3.1-2.7,3.1c-0.7,0-1.3-0.3-1.8-0.8
		v2.6h-1.7v-7.8h1.7V638.3z M294,642.9c0.9,0,1.3-0.8,1.3-1.6c0-0.9-0.4-1.6-1.3-1.6s-1.4,0.7-1.4,1.6
		C292.6,642.1,293.1,642.9,294,642.9z"/>
	<path class="st13" d="M217.1,648.3v2.3c0.4-0.5,0.9-0.8,1.5-0.8c1.3,0,2,1,2,2.3s-0.8,2.3-2,2.3c-0.6,0-1.1-0.2-1.5-0.8v0.7h-0.9
		v-6.1h0.9V648.3z M218.4,653.7c0.8,0,1.3-0.7,1.3-1.5s-0.4-1.5-1.3-1.5s-1.3,0.7-1.3,1.5S217.6,653.7,218.4,653.7z"/>
	<path class="st13" d="M223.8,654.6c-0.3,0.9-0.7,1.4-1.6,1.4c-0.4,0-0.7-0.1-1-0.3l0.4-0.7c0.2,0.1,0.3,0.2,0.5,0.2
		c0.4,0,0.5-0.3,0.7-0.6l0.1-0.2L221,650h1.1l1.3,3.2l1.1-3.2h1L223.8,654.6z"/>
	<path class="st13" d="M230.7,654.6c-0.3,0.9-0.7,1.4-1.6,1.4c-0.4,0-0.7-0.1-1-0.3l0.4-0.7c0.2,0.1,0.3,0.2,0.5,0.2
		c0.4,0,0.5-0.3,0.7-0.6l0.1-0.2l-1.9-4.4h1.1l1.3,3.2l1.1-3.2h1L230.7,654.6z"/>
	<path class="st13" d="M235.1,654.5c-1.4,0-2.3-1-2.3-2.3c0-1.4,0.9-2.3,2.3-2.3s2.3,1,2.3,2.3S236.5,654.5,235.1,654.5z
		 M235.1,650.7c-0.8,0-1.3,0.7-1.3,1.5c0,0.9,0.5,1.5,1.3,1.5s1.3-0.7,1.3-1.5C236.4,651.3,236,650.7,235.1,650.7z"/>
	<path class="st13" d="M242.3,649.9v4.5h-0.9v-0.6c-0.4,0.5-0.9,0.7-1.5,0.7c-1,0-1.5-0.7-1.5-1.7v-2.9h0.9v2.7c0,0.5,0.1,1,0.9,1
		c0.7,0,1.2-0.5,1.2-1.2v-2.5H242.3z"/>
	<path class="st13" d="M246,650.9c-0.1-0.1-0.3-0.1-0.5-0.1c-0.6,0-1.1,0.5-1.1,1.3v2.3h-0.9v-4.5h0.9v0.7c0.3-0.5,0.7-0.8,1.3-0.8
		c0.2,0,0.5,0.1,0.6,0.2L246,650.9z"/>
	<path class="st13" d="M253,653.5c-0.4,0.6-1,1-1.9,1c-1.4,0-2.2-1-2.2-2.3s0.9-2.3,2.2-2.3c0.9,0,1.5,0.4,1.8,1l-0.7,0.5
		c-0.2-0.4-0.6-0.7-1.1-0.7c-0.8,0-1.3,0.6-1.3,1.5c0,0.9,0.5,1.5,1.3,1.5c0.5,0,0.9-0.3,1.1-0.6L253,653.5z"/>
	<path class="st13" d="M255.8,654.5c-1.4,0-2.3-1-2.3-2.3c0-1.4,0.9-2.3,2.3-2.3s2.3,1,2.3,2.3C258.1,653.5,257.2,654.5,255.8,654.5
		z M255.8,650.7c-0.8,0-1.3,0.7-1.3,1.5c0,0.9,0.5,1.5,1.3,1.5s1.3-0.7,1.3-1.5C257.1,651.3,256.6,650.7,255.8,650.7z"/>
	<path class="st13" d="M259,654.4v-4.5h0.9v0.6c0.4-0.5,0.8-0.7,1.4-0.7c0.7,0,1.1,0.3,1.3,0.8c0.4-0.6,0.9-0.8,1.6-0.8
		c1,0,1.5,0.6,1.5,1.6v2.9h-0.9v-2.7c0-0.5-0.1-1-0.8-1c-0.6,0-1.1,0.5-1.1,1.2v2.5H262v-2.7c0-0.5-0.1-1-0.8-1
		c-0.6,0-1.1,0.5-1.1,1.2v2.5L259,654.4L259,654.4z"/>
	<path class="st13" d="M267.8,649.9v0.7c0.4-0.5,0.9-0.8,1.5-0.8c1.3,0,2,1,2,2.3s-0.8,2.3-2,2.3c-0.6,0-1.1-0.2-1.5-0.7v2.1h-0.9
		v-5.9H267.8z M269.1,653.7c0.9,0,1.3-0.7,1.3-1.5s-0.4-1.5-1.3-1.5c-0.8,0-1.3,0.7-1.3,1.5S268.3,653.7,269.1,653.7z"/>
	<path class="st13" d="M275.9,654.5c-0.4,0-0.8-0.2-0.9-0.7c-0.4,0.5-1,0.7-1.5,0.7c-0.9,0-1.5-0.5-1.5-1.4c0-1.1,1-1.3,1.7-1.4
		c0.6-0.1,1.1-0.1,1.1-0.6c0-0.4-0.5-0.6-0.9-0.6c-0.5,0-1,0.2-1.4,0.5l-0.4-0.7c0.6-0.4,1.1-0.5,1.8-0.5c1.1,0,1.8,0.4,1.8,1.5v2
		c0,0.3,0.1,0.4,0.3,0.4c0.1,0,0.2,0,0.2-0.1l0.1,0.6C276.4,654.4,276.1,654.5,275.9,654.5z M274.9,652c-0.3,0.3-0.6,0.3-1.1,0.4
		c-0.5,0.1-0.8,0.2-0.8,0.7s0.4,0.7,0.8,0.7c0.6,0,1.1-0.3,1.1-1.1V652z"/>
	<path class="st13" d="M277.3,654.4v-4.5h0.9v0.7c0.4-0.5,0.9-0.8,1.5-0.8c1,0,1.5,0.7,1.5,1.7v2.9h-0.9v-2.7c0-0.5-0.2-1-0.9-1
		c-0.7,0-1.2,0.5-1.2,1.2v2.5L277.3,654.4L277.3,654.4z"/>
	<path class="st13" d="M284.5,654.6c-0.3,0.9-0.7,1.4-1.6,1.4c-0.4,0-0.7-0.1-1-0.3l0.4-0.7c0.2,0.1,0.3,0.2,0.5,0.2
		c0.4,0,0.5-0.3,0.7-0.6l0.1-0.2l-1.9-4.4h1.1l1.3,3.2l1.1-3.2h1L284.5,654.6z"/>
</g>
<g>
	<path class="st14" d="M319.8,681.2l-1.2,0.7c-0.4-0.7-0.9-0.9-1.5-0.9c-1.1,0-1.6,0.8-1.6,1.9c0,1.3,0.6,2,1.6,2
		c0.7,0,1.4-0.4,1.5-1.1h-1.5v-1.2h3c0,0.1,0,0.4,0,0.6c0,1.6-1.1,3-3,3s-3.2-1.3-3.2-3.2c0-1.9,1.3-3.2,3.2-3.2
		C318.3,679.7,319.2,680.3,319.8,681.2z"/>
	<path class="st14" d="M321,686v-6.2h4.8v1.3h-3.3v1.1h2.8v1.2h-2.8v1.3h3.4v1.3L321,686L321,686z"/>
	<path class="st14" d="M329.9,681.1v4.9h-1.5v-4.9h-1.9v-1.3h5.4v1.3H329.9z"/>
</g>
<g>
	<polygon class="st8" points="220.5,682.9 219.3,680.5 218,682.9 215.4,683.4 217.2,685.5 216.9,688.2 219.3,687 221.6,688.2 
		221.3,685.5 223.1,683.4 	"/>
	<polygon class="st8" points="230.7,682.9 229.5,680.5 228.2,682.9 225.6,683.4 227.4,685.5 227.1,688.2 229.5,687 231.8,688.2 
		231.5,685.5 233.3,683.4 	"/>
	<polygon class="st8" points="240.9,682.9 239.7,680.5 238.4,682.9 235.8,683.4 237.6,685.5 237.3,688.2 239.7,687 242,688.2 
		241.7,685.5 243.5,683.4 	"/>
	<polygon class="st8" points="251.1,682.9 249.9,680.5 248.6,682.9 246,683.4 247.8,685.5 247.5,688.2 249.9,687 252.2,688.2 
		251.9,685.5 253.7,683.4 	"/>
	<polygon class="st8" points="264.8,683.4 262.2,682.9 260.9,680.5 259.7,682.9 257.1,683.4 258.9,685.5 258.6,688.2 260.9,687 
		263.3,688.2 263,685.5 	"/>
</g>
<polygon class="st15" points="134.7,658.7 134.1,658.1 131.1,661.1 128.1,658.1 127.5,658.7 130.5,661.7 127.5,664.7 128.1,665.3 
	131.1,662.3 134.1,665.3 134.7,664.7 131.7,661.7 "/>
<g>
	<polygon class="st0" points="346.5,836.1 345.5,836.1 345.5,810.3 115.8,810.3 115.8,836.1 114.8,836.1 114.8,809.3 346.5,809.3 	
		"/>
</g>
</svg>
