<?xml version="1.0" encoding="utf-8"?>
<!-- Generator: Adobe Illustrator 19.1.0, SVG Export Plug-In . SVG Version: 6.00 Build 0)  -->
<svg version="1.1" id="Ebene_1" xmlns="http://www.w3.org/2000/svg" xmlns:xlink="http://www.w3.org/1999/xlink" x="0px" y="0px"
	 width="30px" height="30px" viewBox="0 0 30 30" style="enable-background:new 0 0 30 30;" xml:space="preserve">
<g id="Ellipse_39">
	<path style="fill:#DDDDDD;" d="M15,1c7.7,0,14,6.3,14,14s-6.3,14-14,14C7.3,29,1,22.7,1,15S7.3,1,15,1 M15,0C6.7,0,0,6.7,0,15
		c0,8.3,6.7,15,15,15s15-6.7,15-15C30,6.7,23.3,0,15,0L15,0z"/>
</g>
<g>
	<path style="fill:#9A9999;" d="M18.1,8.7v2.1h-1.2c-0.4,0-0.8,0.1-0.9,0.3s-0.2,0.5-0.2,0.8v1.5H18l-0.3,2.3h-2v5.9h-2.4v-5.9h-2
		v-2.3h2v-1.7c0-1,0.3-1.7,0.8-2.3c0.5-0.5,1.3-0.8,2.2-0.8C17.1,8.6,17.7,8.6,18.1,8.7z"/>
</g>
</svg>
