<?xml version="1.0" encoding="utf-8"?>
<!-- Generator: Adobe Illustrator 19.1.0, SVG Export Plug-In . SVG Version: 6.00 Build 0)  -->
<svg version="1.1" id="Ebene_1" xmlns="http://www.w3.org/2000/svg" xmlns:xlink="http://www.w3.org/1999/xlink" x="0px" y="0px"
	 width="30px" height="30px" viewBox="0 0 30 30" style="enable-background:new 0 0 30 30;" xml:space="preserve">
<g id="Ellipse_39_2_">
	<path style="fill:#DDDDDD;" d="M15,1c7.7,0,14,6.3,14,14s-6.3,14-14,14C7.3,29,1,22.7,1,15S7.3,1,15,1 M15,0C6.7,0,0,6.7,0,15
		c0,8.3,6.7,15,15,15s15-6.7,15-15C30,6.7,23.3,0,15,0L15,0z"/>
</g>
<g>
	<path style="fill:#9A9999;" d="M12.5,10.1c0,0.4-0.1,0.7-0.4,1c-0.3,0.3-0.6,0.4-1.1,0.4h0c-0.4,0-0.8-0.1-1-0.4
		c-0.3-0.3-0.4-0.6-0.4-1c0-0.4,0.1-0.7,0.4-1c0.3-0.3,0.6-0.4,1.1-0.4c0.4,0,0.8,0.1,1,0.4C12.4,9.4,12.5,9.7,12.5,10.1z
		 M12.3,12.5v7.7H9.8v-7.7H12.3z M21.6,15.8v4.4H19v-4.1c0-0.5-0.1-1-0.3-1.3c-0.2-0.3-0.5-0.5-1-0.5c-0.3,0-0.6,0.1-0.8,0.3
		s-0.4,0.4-0.5,0.7c-0.1,0.2-0.1,0.4-0.1,0.6v4.3h-2.6c0-2.1,0-3.8,0-5.1c0-1.3,0-2.1,0-2.3l0-0.4h2.6v1.1h0
		c0.1-0.2,0.2-0.3,0.3-0.4s0.3-0.3,0.4-0.4c0.2-0.1,0.4-0.3,0.7-0.3c0.3-0.1,0.6-0.1,0.9-0.1c0.9,0,1.6,0.3,2.1,0.9
		C21.3,13.8,21.6,14.6,21.6,15.8z"/>
</g>
</svg>
