<?xml version="1.0" encoding="utf-8"?>
<!-- Generator: Adobe Illustrator 19.1.0, SVG Export Plug-In . SVG Version: 6.00 Build 0)  -->
<svg version="1.1" id="Ebene_1" xmlns="http://www.w3.org/2000/svg" xmlns:xlink="http://www.w3.org/1999/xlink" x="0px" y="0px"
	 width="30px" height="30px" viewBox="0 0 30 30" style="enable-background:new 0 0 30 30;" xml:space="preserve">
<g id="Ellipse_39_1_">
	<path style="fill:#DDDDDD;" d="M15,1c7.7,0,14,6.3,14,14s-6.3,14-14,14C7.3,29,1,22.7,1,15S7.3,1,15,1 M15,0C6.7,0,0,6.7,0,15
		c0,8.3,6.7,15,15,15s15-6.7,15-15C30,6.7,23.3,0,15,0L15,0z"/>
</g>
<g>
	<path style="fill:#9A9999;" d="M22.3,11.8c-0.3,0.5-0.8,0.9-1.3,1.3c0,0.1,0,0.2,0,0.3c0,0.7-0.1,1.4-0.3,2
		c-0.2,0.7-0.5,1.3-0.9,1.9s-0.9,1.2-1.4,1.6s-1.2,0.9-2,1.1c-0.8,0.3-1.6,0.4-2.5,0.4c-1.4,0-2.7-0.4-3.9-1.1c0.2,0,0.4,0,0.6,0
		c1.2,0,2.2-0.4,3.1-1.1c-0.5,0-1-0.2-1.5-0.5c-0.4-0.3-0.7-0.7-0.9-1.2c0.2,0,0.3,0,0.5,0c0.2,0,0.4,0,0.7-0.1
		c-0.6-0.1-1.1-0.4-1.4-0.9s-0.6-1-0.6-1.6v0c0.4,0.2,0.7,0.3,1.1,0.3c-0.3-0.2-0.6-0.5-0.8-0.9c-0.2-0.4-0.3-0.8-0.3-1.2
		c0-0.5,0.1-0.9,0.3-1.3c0.6,0.8,1.4,1.4,2.3,1.9c0.9,0.5,1.9,0.7,2.9,0.8c0-0.2-0.1-0.4-0.1-0.6c0-0.7,0.2-1.3,0.7-1.8
		s1.1-0.7,1.8-0.7c0.7,0,1.3,0.3,1.8,0.8c0.6-0.1,1.1-0.3,1.6-0.6c-0.2,0.6-0.6,1.1-1.1,1.4C21.3,12.1,21.8,12,22.3,11.8z"/>
</g>
</svg>
