<?xml version="1.0" encoding="utf-8"?>
<!-- Generator: Adobe Illustrator 19.1.0, SVG Export Plug-In . SVG Version: 6.00 Build 0)  -->
<svg version="1.1" id="Layer_1" xmlns="http://www.w3.org/2000/svg" xmlns:xlink="http://www.w3.org/1999/xlink" x="0px" y="0px"
	 viewBox="0 -11 640 502" style="enable-background:new 0 -11 640 502;" xml:space="preserve">
<style type="text/css">
	.st0{fill:#DDDDDD;}
	.st1{fill:#89B6CD;}
	.st2{fill:#999999;}
	.st3{opacity:0.502;}
	.st4{fill:#EEEEEE;}
	.st5{fill:#FFFFFF;}
	.st6{fill:#666666;}
	.st7{fill:#FFCC66;}
	.st8{fill:#30393A;}
	.st9{enable-background:new    ;}
	.st10{fill:#333333;}
	.st11{fill:#CCCCCC;}
	.st12{fill:#F8F8F8;}
	.st13{fill:#222222;}
</style>
<g id="ear">
	<path class="st0" d="M192.4,152.4c2.4,0,4.4,2,4.4,4.4s-2,4.4-4.4,4.4h-39.3c-2.4,0-4.4-2-4.4-4.4s2-4.4,4.4-4.4H192.4
		 M192.4,151.4h-39.3c-3,0-5.4,2.4-5.4,5.4s2.4,5.4,5.4,5.4h39.3c3,0,5.4-2.4,5.4-5.4C197.8,153.8,195.4,151.4,192.4,151.4
		L192.4,151.4z"/>
</g>
<path class="st0" d="M43.1,472.7V147.2c0-19.2,15.6-34.8,34.9-34.8h189.3c19.2,0,34.9,15.6,34.9,34.8v325.5h2V147.2
	c0-20.3-16.5-36.8-36.9-36.8H77.9c-20.3,0-36.9,16.5-36.9,36.8v325.5H43.1z"/>
<path class="st0" d="M54.8,472.7V189.3h231l-0.1,283.4h1l0.1-283.6c0-0.4-0.3-0.8-0.8-0.8H54.5c-0.4,0-0.8,0.3-0.8,0.8v283.6H54.8z"
	/>
<g id="Camera_2_">
	<circle class="st0" cx="172.8" cy="135.9" r="5"/>
</g>
<g id="ear_1_">
	<path class="st0" d="M482.4,152.4c2.4,0,4.4,2,4.4,4.4s-2,4.4-4.4,4.4h-39.3c-2.4,0-4.4-2-4.4-4.4s2-4.4,4.4-4.4H482.4
		 M482.4,151.4h-39.3c-3,0-5.4,2.4-5.4,5.4s2.4,5.4,5.4,5.4h39.3c3,0,5.4-2.4,5.4-5.4C487.8,153.8,485.4,151.4,482.4,151.4
		L482.4,151.4z"/>
</g>
<path class="st0" d="M333.1,472.7V147.2c0-19.2,15.6-34.8,34.9-34.8h189.3c19.2,0,34.9,15.6,34.9,34.8v325.5h2V147.2
	c0-20.3-16.5-36.8-36.9-36.8H367.9c-20.3,0-36.9,16.5-36.9,36.8v325.5H333.1z"/>
<path class="st0" d="M344.8,472.7V189.3h231l-0.1,283.4h1l0.1-283.6c0-0.4-0.3-0.8-0.8-0.8H344.5c-0.4,0-0.8,0.3-0.8,0.8v283.6
	H344.8z"/>
<g id="Camera_1_">
	<circle class="st0" cx="462.8" cy="135.9" r="5"/>
</g>
<g id="Ellipse_36">
	<g>
		<circle class="st1" cx="83.2" cy="339.6" r="17"/>
	</g>
</g>
<g>
	<path class="st1" d="M114.8,340.9v4.1h-1.4v-4.1l-3.8-5.9h1.6l2.9,4.6l2.9-4.6h1.6L114.8,340.9z"/>
	<path class="st1" d="M122.1,345.2c-2.4,0-3.8-1.7-3.8-4.1s1.5-4.1,3.8-4.1c2.4,0,3.8,1.7,3.8,4.1
		C126,343.4,124.5,345.2,122.1,345.2z M122.1,338.2c-1.6,0-2.5,1.3-2.5,2.9s0.9,2.9,2.5,2.9s2.4-1.3,2.4-2.9
		C124.6,339.5,123.7,338.2,122.1,338.2z"/>
	<path class="st1" d="M134.4,337.2v7.8h-1.3v-1.3c-0.7,0.9-1.5,1.5-2.7,1.5c-1.7,0-2.7-1.1-2.7-2.9v-5h1.3v4.7c0,0.9,0.3,2,1.7,2
		s2.4-1,2.4-2.4v-4.3h1.3V337.2z"/>
	<path class="st1" d="M141,338.6c-0.3-0.1-0.5-0.2-0.9-0.2c-1,0-2,0.9-2,2.6v4.1h-1.3v-7.8h1.3v1.3c0.5-0.8,1.3-1.5,2.3-1.5
		c0.5,0,0.8,0.1,1.1,0.3L141,338.6z"/>
	<path class="st1" d="M157,345h-2.6l-1.7-6.3L151,345h-2.6l-2.7-10h2.6l1.5,6.6l1.8-6.6h2.1l1.8,6.7l1.5-6.7h2.6L157,345z"/>
	<path class="st1" d="M168.2,341.6h-5.8c0.1,1.1,0.9,1.6,2,1.6c0.9,0,1.7-0.4,2.2-0.9l1.5,1.4c-0.9,0.9-2.1,1.5-3.8,1.5
		c-2.9,0-4.3-1.8-4.3-4.1c0-2.4,1.5-4.2,4.2-4.2c2.5,0,4.1,1.7,4.1,4.1C168.3,341.2,168.2,341.4,168.2,341.6z M166,340
		c-0.1-1-0.8-1.5-1.8-1.5s-1.7,0.6-1.8,1.5H166z"/>
	<path class="st1" d="M172,334.3v3.6c0.7-0.7,1.5-1.1,2.5-1.1c2.2,0,3.6,1.8,3.6,4.2c0,2.4-1.4,4.2-3.6,4.2c-1,0-1.8-0.4-2.5-1.1
		v0.9h-2.3v-10.7H172z M173.8,343.2c1.2,0,1.8-1,1.8-2.2s-0.6-2.2-1.8-2.2s-1.9,1-1.9,2.2C172,342.2,172.6,343.2,173.8,343.2z"/>
	<path class="st1" d="M182.9,345.2c-1.7,0-3.2-0.6-4-1.9l1.6-1c0.6,0.9,1.7,1.2,2.6,1.2c0.8,0,1.3-0.3,1.3-0.7
		c0-0.6-0.7-0.7-1.7-0.8c-1.9-0.3-3.3-0.8-3.3-2.6c0-1.7,1.5-2.6,3.4-2.6c1.8,0,3.1,0.8,3.8,1.5l-1.4,1.2c-0.5-0.5-1.4-1-2.4-1
		c-0.6,0-1.2,0.2-1.2,0.6c0,0.5,0.8,0.6,1.8,0.7c1.9,0.3,3.3,0.9,3.3,2.5S185.1,345.2,182.9,345.2z"/>
	<path class="st1" d="M188,336v-1.7h2.3v1.7H188z M188,345v-8h2.3v8H188z"/>
	<path class="st1" d="M197.7,344.5c-0.6,0.4-1.3,0.7-2.2,0.7c-1,0-1.8-0.3-2.3-1c-0.3-0.5-0.5-1-0.5-1.8v-3.6h-1.3V337h1.3v-2h2.3v2
		h2.3v1.7H195v3.6c0,0.6,0.3,0.8,0.8,0.8c0.4,0,0.7-0.2,1-0.4L197.7,344.5z"/>
	<path class="st1" d="M206.5,341.6h-5.8c0.1,1.1,0.9,1.6,2,1.6c0.9,0,1.7-0.4,2.2-0.9l1.5,1.4c-0.9,0.9-2.1,1.5-3.8,1.5
		c-2.9,0-4.3-1.8-4.3-4.1c0-2.4,1.5-4.2,4.2-4.2c2.5,0,4.1,1.7,4.1,4.1C206.6,341.2,206.5,341.4,206.5,341.6z M204.3,340
		c-0.1-1-0.8-1.5-1.8-1.5s-1.7,0.6-1.8,1.5H204.3z"/>
</g>
<g>
	<rect x="262" y="339" class="st2" width="13" height="2"/>
	<rect x="262" y="343" class="st2" width="13" height="2"/>
	<rect x="262" y="335" class="st2" width="13" height="2"/>
</g>
<g id="Rechteck_27" class="st3">
	<g>
		<polygon class="st4" points="55,229 55,314 285.6,314.1 285.6,229.1 		"/>
	</g>
</g>
<g id="Rechteck_23">
	<g>
		<path class="st1" d="M120.1,241.9h-50c-2.8,0-5,2.2-5,5v50c0,2.8,2.2,5,5,5h50c2.8,0,5-2.2,5-5v-50
			C125.1,244.2,122.9,241.9,120.1,241.9z"/>
	</g>
</g>
<g>
	<path class="st5" d="M79.7,264.9v4.1h-1.8v-4.1l-3.9-6.1h2.1l2.7,4.5l2.7-4.5h2.1L79.7,264.9z"/>
	<path class="st5" d="M89,269.2c-3.1,0-5.1-2.3-5.1-5.3s1.9-5.3,5.1-5.3s5.1,2.3,5.1,5.3S92.1,269.2,89,269.2z M89,260.3
		c-2,0-3.2,1.5-3.2,3.6s1.2,3.6,3.2,3.6s3.2-1.5,3.2-3.6S91,260.3,89,260.3z"/>
	<path class="st5" d="M104.4,265.1c0,2.5-1.8,4.1-4.3,4.1s-4.3-1.5-4.3-4.1v-6.3h1.8v6.3c0,1.5,0.9,2.4,2.5,2.4
		c1.5,0,2.5-0.9,2.5-2.4v-6.3h1.8V265.1z"/>
	<path class="st5" d="M113.2,269l-2.1-3.9h-2.6v3.9h-1.8v-10.2h4.6c2.2,0,3.6,1.2,3.6,3.1c0,1.5-0.9,2.4-2,2.9l2.3,4.2H113.2z
		 M111.3,260.4h-2.7v3.2h2.8c1,0,1.7-0.6,1.7-1.6C113.1,261,112.4,260.4,111.3,260.4z"/>
	<path class="st5" d="M86.8,287.4l-0.5-1.9H83l-0.5,1.9h-3.2l3.6-10.2h3.5l3.6,10.2H86.8z M84.7,279.5l-1,3.7h2.1L84.7,279.5z"/>
	<path class="st5" d="M95.9,284.4h-2v3H91v-10.2h4.9c2.4,0,4,1.4,4,3.6S98.4,284.4,95.9,284.4z M95.9,279.8h-2v2.1h2
		c0.6,0,1.1-0.3,1.1-1S96.5,279.8,95.9,279.8z"/>
	<path class="st5" d="M106.1,284.4h-2v3h-2.9v-10.2h4.9c2.4,0,4,1.4,4,3.6S108.5,284.4,106.1,284.4z M106,279.8h-2v2.1h2
		c0.6,0,1.1-0.3,1.1-1S106.6,279.8,106,279.8z"/>
</g>
<g>
	<path class="st6" d="M138.8,250.3v2.8H137v-2.8l-2.8-4.6h2.1l1.7,2.9l1.7-2.9h2L138.8,250.3z"/>
	<path class="st6" d="M144.2,253.2c-1.9,0-3.1-1.2-3.1-3.1c0-1.8,1.2-3.1,3.1-3.1s3.1,1.2,3.1,3.1S146.1,253.2,144.2,253.2z
		 M144.2,248.5c-0.9,0-1.3,0.7-1.3,1.7s0.5,1.7,1.3,1.7c0.9,0,1.3-0.7,1.3-1.7S145.1,248.5,144.2,248.5z"/>
	<path class="st6" d="M153.8,247.2v5.9h-1.7v-0.7c-0.5,0.5-1.1,0.8-1.8,0.8c-1.3,0-2-0.9-2-2.1v-3.9h1.7v3.5c0,0.5,0.2,1,0.9,1
		c0.6,0,1.1-0.4,1.1-1.2v-3.4h1.8V247.2z"/>
	<path class="st6" d="M158.8,249c-0.2-0.1-0.4-0.2-0.7-0.2c-0.7,0-1.2,0.6-1.2,1.5v2.9h-1.7v-5.9h1.7v0.9c0.4-0.6,0.9-1,1.6-1
		c0.3,0,0.6,0.1,0.8,0.2L158.8,249z"/>
	<path class="st6" d="M168.8,251.9c0,0.9-0.1,1.7-0.7,2.3c-0.7,0.8-1.8,0.9-2.8,0.9s-1.8-0.2-2.6-0.6l0.6-1.3
		c0.5,0.3,1.2,0.5,1.9,0.5c1,0,1.8-0.4,1.8-1.4v-0.4c-0.5,0.5-1.1,0.8-1.8,0.8c-1.6,0-2.7-1.2-2.7-2.8c0-1.6,1.1-2.9,2.7-2.9
		c0.8,0,1.4,0.3,1.8,0.8v-0.7h1.7v4.8H168.8z M165.7,248.5c-0.9,0-1.3,0.6-1.3,1.4s0.5,1.5,1.3,1.5c0.9,0,1.4-0.6,1.4-1.5
		C167.1,249.1,166.6,248.5,165.7,248.5z"/>
	<path class="st6" d="M173.7,249c-0.2-0.1-0.4-0.2-0.7-0.2c-0.7,0-1.2,0.6-1.2,1.5v2.9h-1.7v-5.9h1.7v0.9c0.4-0.6,0.9-1,1.6-1
		c0.3,0,0.6,0.1,0.8,0.2L173.7,249z"/>
	<path class="st6" d="M180.5,250.6h-4.2c0.1,0.8,0.6,1.2,1.5,1.2c0.7,0,1.2-0.3,1.6-0.7l1.1,1c-0.7,0.7-1.5,1.1-2.8,1.1
		c-2.1,0-3.2-1.3-3.2-3c0-1.8,1.1-3.1,3.1-3.1c1.9,0,3,1.2,3,3C180.6,250.3,180.5,250.5,180.5,250.6z M178.9,249.4
		c-0.1-0.7-0.6-1.1-1.3-1.1s-1.2,0.4-1.3,1.1H178.9z"/>
	<path class="st6" d="M181.4,247.7c0.8-0.5,1.6-0.7,2.6-0.7c1.5,0,2.5,0.6,2.5,2.1v2.5c0,0.3,0.1,0.4,0.3,0.4c0.1,0,0.2,0,0.3-0.1
		l0.2,1.1c-0.2,0.1-0.6,0.2-0.9,0.2c-0.6,0-1.1-0.2-1.2-0.8c-0.4,0.6-1.2,0.8-1.9,0.8c-1.2,0-2-0.7-2-1.8c0-1.4,1.2-1.7,2.2-1.8
		c0.9-0.1,1.4-0.1,1.4-0.6s-0.5-0.6-0.9-0.6c-0.6,0-1.3,0.2-1.9,0.6L181.4,247.7z M184.8,250.2c-0.2,0.3-0.6,0.3-1.1,0.4
		c-0.4,0.1-0.8,0.2-0.8,0.7s0.3,0.7,0.8,0.7c0.6,0,1.1-0.3,1.1-1.1V250.2z"/>
	<path class="st6" d="M192.1,252.7c-0.4,0.3-0.9,0.5-1.6,0.5c-0.8,0-1.3-0.2-1.7-0.7c-0.2-0.4-0.3-0.8-0.3-1.4v-2.7h-0.9v-1.3h0.9
		v-1.5h1.7v1.5h1.7v1.3h-1.7v2.7c0,0.5,0.2,0.6,0.6,0.6c0.3,0,0.5-0.1,0.7-0.3L192.1,252.7z"/>
	<path class="st6" d="M195.7,247.7c0.8-0.5,1.6-0.7,2.6-0.7c1.5,0,2.5,0.6,2.5,2.1v2.5c0,0.3,0.1,0.4,0.3,0.4c0.1,0,0.2,0,0.3-0.1
		l0.2,1.1c-0.2,0.1-0.6,0.2-0.9,0.2c-0.6,0-1.1-0.2-1.2-0.8c-0.4,0.6-1.2,0.8-1.9,0.8c-1.2,0-2-0.7-2-1.8c0-1.4,1.2-1.7,2.2-1.8
		c0.9-0.1,1.4-0.1,1.4-0.6s-0.5-0.6-1-0.6c-0.6,0-1.3,0.2-1.9,0.6L195.7,247.7z M199.1,250.2c-0.2,0.3-0.6,0.3-1.1,0.4
		c-0.4,0.1-0.8,0.2-0.8,0.7s0.3,0.7,0.8,0.7c0.6,0,1.1-0.3,1.1-1.1V250.2z"/>
	<path class="st6" d="M204,247.2v0.7c0.5-0.5,1.1-0.8,1.8-0.8c1.7,0,2.7,1.3,2.7,3.1c0,1.8-1,3.1-2.7,3.1c-0.7,0-1.3-0.3-1.8-0.8
		v2.6h-1.7v-7.8h1.7V247.2z M205.4,251.8c0.9,0,1.3-0.8,1.3-1.6c0-0.9-0.4-1.6-1.3-1.6c-0.9,0-1.4,0.7-1.4,1.6
		C204,251,204.5,251.8,205.4,251.8z"/>
	<path class="st6" d="M211.3,247.2v0.7c0.5-0.5,1.1-0.8,1.8-0.8c1.7,0,2.7,1.3,2.7,3.1c0,1.8-1,3.1-2.7,3.1c-0.7,0-1.3-0.3-1.8-0.8
		v2.6h-1.7v-7.8h1.7V247.2z M212.7,251.8c0.9,0,1.3-0.8,1.3-1.6c0-0.9-0.4-1.6-1.3-1.6c-0.9,0-1.4,0.7-1.4,1.6
		C211.3,251,211.8,251.8,212.7,251.8z"/>
	<path class="st6" d="M135.8,257.2v2.3c0.4-0.5,0.9-0.8,1.5-0.8c1.3,0,2,1,2,2.3s-0.8,2.3-2,2.3c-0.6,0-1.1-0.2-1.5-0.8v0.7h-0.9
		v-6.1h0.9V257.2z M137.1,262.6c0.8,0,1.3-0.7,1.3-1.5s-0.4-1.5-1.3-1.5c-0.9,0-1.3,0.7-1.3,1.5S136.3,262.6,137.1,262.6z"/>
	<path class="st6" d="M142.4,263.5c-0.3,0.9-0.7,1.4-1.6,1.4c-0.4,0-0.7-0.1-1-0.3l0.4-0.7c0.2,0.1,0.3,0.2,0.5,0.2
		c0.4,0,0.5-0.3,0.7-0.6l0.1-0.2l-1.9-4.4h1.1l1.3,3.2l1.1-3.2h1L142.4,263.5z"/>
	<path class="st6" d="M149.4,263.5c-0.3,0.9-0.7,1.4-1.6,1.4c-0.4,0-0.7-0.1-1-0.3l0.4-0.7c0.2,0.1,0.3,0.2,0.5,0.2
		c0.4,0,0.5-0.3,0.7-0.6l0.1-0.2l-1.9-4.4h1.1l1.3,3.2l1.1-3.2h1L149.4,263.5z"/>
	<path class="st6" d="M153.8,263.4c-1.4,0-2.3-1-2.3-2.3c0-1.4,0.9-2.3,2.3-2.3c1.4,0,2.3,1,2.3,2.3S155.2,263.4,153.8,263.4z
		 M153.8,259.6c-0.8,0-1.3,0.7-1.3,1.5c0,0.9,0.5,1.5,1.3,1.5s1.3-0.7,1.3-1.5C155.1,260.2,154.6,259.6,153.8,259.6z"/>
	<path class="st6" d="M160.9,258.8v4.5H160v-0.6c-0.4,0.5-0.9,0.7-1.5,0.7c-1,0-1.5-0.7-1.5-1.7v-2.9h0.9v2.7c0,0.5,0.1,1,0.9,1
		c0.7,0,1.2-0.5,1.2-1.2v-2.5H160.9z"/>
	<path class="st6" d="M164.7,259.8c-0.1-0.1-0.3-0.1-0.5-0.1c-0.6,0-1.1,0.5-1.1,1.3v2.3h-0.9v-4.5h0.9v0.7c0.3-0.5,0.7-0.8,1.3-0.8
		c0.2,0,0.5,0.1,0.6,0.2L164.7,259.8z"/>
	<path class="st6" d="M171.7,262.4c-0.4,0.6-1,1-1.9,1c-1.4,0-2.2-1-2.2-2.3s0.9-2.3,2.2-2.3c0.9,0,1.5,0.4,1.8,1l-0.7,0.5
		c-0.2-0.4-0.6-0.7-1.1-0.7c-0.8,0-1.3,0.6-1.3,1.5s0.5,1.5,1.3,1.5c0.5,0,0.9-0.3,1.1-0.6L171.7,262.4z"/>
	<path class="st6" d="M174.5,263.4c-1.4,0-2.3-1-2.3-2.3c0-1.4,0.9-2.3,2.3-2.3c1.4,0,2.3,1,2.3,2.3
		C176.7,262.4,175.9,263.4,174.5,263.4z M174.5,259.6c-0.8,0-1.3,0.7-1.3,1.5c0,0.9,0.5,1.5,1.3,1.5s1.3-0.7,1.3-1.5
		C175.7,260.2,175.3,259.6,174.5,259.6z"/>
	<path class="st6" d="M177.7,263.3v-4.5h0.9v0.6c0.4-0.5,0.8-0.7,1.4-0.7c0.7,0,1.1,0.3,1.3,0.9c0.4-0.6,0.9-0.9,1.6-0.9
		c1,0,1.5,0.6,1.5,1.6v2.9h-0.9v-2.7c0-0.5-0.1-1-0.8-1c-0.6,0-1.1,0.5-1.1,1.2v2.5h-0.9v-2.7c0-0.5-0.1-1-0.8-1
		c-0.6,0-1.1,0.5-1.1,1.2v2.5h-1.1V263.3z"/>
	<path class="st6" d="M186.5,258.8v0.7c0.4-0.5,0.9-0.8,1.5-0.8c1.3,0,2,1,2,2.3s-0.8,2.3-2,2.3c-0.6,0-1.1-0.2-1.5-0.7v2.1h-0.9
		v-5.9H186.5z M187.8,262.6c0.9,0,1.3-0.7,1.3-1.5s-0.4-1.5-1.3-1.5c-0.8,0-1.3,0.7-1.3,1.5S187,262.6,187.8,262.6z"/>
	<path class="st6" d="M194.6,263.4c-0.4,0-0.8-0.2-0.9-0.7c-0.4,0.5-1,0.7-1.5,0.7c-0.9,0-1.5-0.5-1.5-1.4c0-1.1,1-1.3,1.7-1.4
		c0.6-0.1,1.1-0.1,1.1-0.6c0-0.4-0.5-0.6-0.9-0.6c-0.5,0-1,0.2-1.4,0.5l-0.4-0.7c0.6-0.4,1.1-0.5,1.8-0.5c1.1,0,1.8,0.4,1.8,1.5v2
		c0,0.3,0.1,0.4,0.3,0.4c0.1,0,0.2,0,0.2-0.1l0.1,0.6C195,263.3,194.8,263.4,194.6,263.4z M193.6,260.9c-0.3,0.3-0.6,0.3-1.1,0.4
		s-0.8,0.2-0.8,0.7s0.4,0.7,0.8,0.7c0.6,0,1.1-0.3,1.1-1.1V260.9z"/>
	<path class="st6" d="M195.9,263.3v-4.5h0.9v0.7c0.4-0.5,0.9-0.8,1.5-0.8c1,0,1.5,0.7,1.5,1.7v2.9h-0.9v-2.7c0-0.5-0.2-1-0.9-1
		s-1.2,0.5-1.2,1.2v2.5L195.9,263.3L195.9,263.3z"/>
	<path class="st6" d="M203.2,263.5c-0.3,0.9-0.7,1.4-1.6,1.4c-0.4,0-0.7-0.1-1-0.3l0.4-0.7c0.2,0.1,0.3,0.2,0.5,0.2
		c0.4,0,0.5-0.3,0.7-0.6l0.1-0.2l-1.9-4.4h1.1l1.3,3.2l1.1-3.2h1L203.2,263.5z"/>
</g>
<path class="st5" d="M272.3,284.5h-50c-2.5,0-4.5,2-4.5,4.5v7c0,2.5,2,4.5,4.5,4.5h50c2.5,0,4.5-2,4.5-4.5v-7
	C276.8,286.5,274.8,284.5,272.3,284.5z"/>
<path class="st2" d="M272.3,284h-50c-2.8,0-5,2.2-5,5v7c0,2.8,2.2,5,5,5h50c2.8,0,5-2.2,5-5v-7C277.3,286.2,275.1,284,272.3,284z
	 M276.3,296c0,2.2-1.8,4-4,4h-50c-2.2,0-4-1.8-4-4v-7c0-2.2,1.8-4,4-4h50c2.2,0,4,1.8,4,4V296z"/>
<g>
	<path class="st6" d="M227.9,295.9v-6.2h1.5v6.2H227.9z"/>
	<path class="st6" d="M234.5,295.9l-2.3-4.3v4.3h-1.4v-6.2h1.9l2.3,4.2v-4.2h1.4v6.2H234.5z"/>
	<path class="st6" d="M242.5,290.9l-1.1,0.7c-0.4-0.5-1-0.7-1.6-0.7c-0.5,0-0.9,0.2-0.9,0.6c0,0.5,0.6,0.6,1.3,0.7
		c1.3,0.2,2.4,0.6,2.4,1.9c0,1.2-0.9,2.1-2.6,2.1c-1.4,0-2.4-0.6-2.9-1.6l1.2-0.6c0.4,0.7,1.1,1,1.8,1s1.1-0.2,1.1-0.6
		c0-0.5-0.6-0.6-1.4-0.7c-1.3-0.2-2.3-0.6-2.3-1.9c0-1.2,1-1.9,2.4-1.9C240.9,289.6,241.9,289.9,242.5,290.9z"/>
	<path class="st6" d="M246.6,291v4.9h-1.5V291h-1.9v-1.3h5.4v1.3H246.6z"/>
	<path class="st6" d="M253,295.9l-0.4-1.3h-2.2l-0.4,1.3h-1.6l2.3-6.2h1.8l2.3,6.2H253z M251.4,291l-0.8,2.5h1.6L251.4,291z"/>
	<path class="st6" d="M255.3,295.9v-6.2h1.5v4.9h3.2v1.3L255.3,295.9L255.3,295.9z"/>
	<path class="st6" d="M260.7,295.9v-6.2h1.5v4.9h3.2v1.3L260.7,295.9L260.7,295.9z"/>
</g>
<g>
	<polygon class="st7" points="140.2,291.8 138.9,289.4 137.7,291.8 135.1,292.3 136.9,294.4 136.6,297.1 138.9,295.9 141.3,297.1 
		141,294.4 142.8,292.3 	"/>
	<polygon class="st7" points="150.4,291.8 149.1,289.4 147.9,291.8 145.3,292.3 147.1,294.4 146.8,297.1 149.1,295.9 151.5,297.1 
		151.2,294.4 153,292.3 	"/>
	<polygon class="st7" points="160.6,291.8 159.3,289.4 158.1,291.8 155.5,292.3 157.3,294.4 157,297.1 159.3,295.9 161.7,297.1 
		161.4,294.4 163.2,292.3 	"/>
	<polygon class="st7" points="170.8,291.8 169.5,289.4 168.3,291.8 165.7,292.3 167.5,294.4 167.2,297.1 169.5,295.9 171.9,297.1 
		171.6,294.4 173.4,292.3 	"/>
	<polygon class="st7" points="184.4,292.3 181.9,291.8 180.6,289.4 179.3,291.8 176.8,292.3 178.6,294.4 178.2,297.1 180.6,295.9 
		183,297.1 182.6,294.4 	"/>
</g>
<g id="Rechteck_28" class="st3">
	<polygon class="st8" points="275.4,242.6 274.8,242 271.8,245 268.8,242 268.2,242.6 271.2,245.6 268.2,248.6 268.8,249.2 
		271.8,246.2 274.8,249.2 275.4,248.6 272.4,245.6 	"/>
</g>
<g id="Abgerundetes_Rechteck_12" class="st3">
	<path class="st0" d="M271,199.8H70c-2.8,0-5,2.2-5,5V217c0,2.8,2.2,5,5,5h201c2.8,0,5-2.2,5-5v-12.2C276,202,273.7,199.8,271,199.8
		z"/>
</g>
<g class="st9">
	<path class="st10" d="M132.1,214.3c-0.4,1.1-0.8,1.6-1.8,1.6c-0.4,0-0.8-0.1-1.1-0.3l0.4-0.7c0.2,0.1,0.4,0.2,0.6,0.2
		c0.5,0,0.7-0.4,0.9-0.8l0.1-0.3l-2.2-5.3h1l1.7,4.1l1.5-4.1h1L132.1,214.3z"/>
	<path class="st10" d="M137.3,214.2c-1.6,0-2.6-1.2-2.6-2.8c0-1.6,1-2.8,2.6-2.8c1.6,0,2.6,1.2,2.6,2.8
		C140,213,139,214.2,137.3,214.2z M137.3,209.4c-1.1,0-1.7,0.9-1.7,2c0,1.1,0.6,2,1.7,2s1.7-0.9,1.7-2
		C139,210.3,138.4,209.4,137.3,209.4z"/>
	<path class="st10" d="M145.7,208.7v5.3h-0.9v-0.9c-0.4,0.6-1,1-1.8,1c-1.1,0-1.9-0.7-1.9-2v-3.4h0.9v3.2c0,0.6,0.2,1.4,1.2,1.4
		c0.9,0,1.6-0.7,1.6-1.7v-3H145.7z"/>
	<path class="st10" d="M150.2,209.7c-0.2-0.1-0.4-0.2-0.6-0.2c-0.7,0-1.4,0.6-1.4,1.8v2.8h-0.9v-5.3h0.9v0.9c0.4-0.6,0.9-1,1.5-1
		c0.3,0,0.6,0.1,0.7,0.2L150.2,209.7z"/>
	<path class="st10" d="M156.8,214h-1l-1.3-4.2l-1.3,4.2h-1l-1.5-5.3h0.9l1.1,4.2l1.3-4.2h0.8l1.3,4.2l1.1-4.2h0.9L156.8,214z"/>
	<path class="st10" d="M164.1,211.6h-4.2c0.1,1.1,0.7,1.7,1.8,1.7c0.6,0,1.2-0.2,1.6-0.7l0.6,0.6c-0.5,0.6-1.2,0.9-2.2,0.9
		c-1.7,0-2.7-1.2-2.7-2.8c0-1.6,1-2.8,2.6-2.8c1.6,0,2.5,1.2,2.5,2.6C164.1,211.4,164.1,211.5,164.1,211.6z M163.2,210.9
		c-0.1-1-0.8-1.5-1.6-1.5c-0.9,0-1.6,0.6-1.6,1.5H163.2z"/>
	<path class="st10" d="M166.2,206.8v2.9c0.5-0.7,1.2-1,1.9-1c1.5,0,2.4,1.2,2.4,2.8s-0.9,2.8-2.4,2.8c-0.7,0-1.4-0.3-1.9-1v0.9h-0.9
		v-7.3H166.2z M167.9,213.4c1.1,0,1.7-0.9,1.7-1.9s-0.5-2-1.7-2c-1.1,0-1.7,0.9-1.7,2C166.2,212.5,166.8,213.4,167.9,213.4z"/>
	<path class="st10" d="M173.7,214.2c-1,0-1.9-0.4-2.3-1.1l0.7-0.5c0.4,0.6,1,0.9,1.7,0.9c0.7,0,1.2-0.3,1.2-0.9
		c0-0.5-0.5-0.6-1.5-0.8c-1-0.2-1.9-0.5-1.9-1.5c0-1.1,1-1.6,2-1.6c1,0,1.7,0.4,2.2,0.9l-0.6,0.6c-0.4-0.4-0.9-0.7-1.6-0.7
		c-0.6,0-1.1,0.2-1.1,0.7c0,0.5,0.6,0.7,1.3,0.8c1.1,0.2,2.1,0.4,2.1,1.6C175.8,213.5,175,214.2,173.7,214.2z"/>
	<path class="st10" d="M177.1,207.7v-0.9h0.9v0.9H177.1z M177.1,214v-5.3h0.9v5.3H177.1z"/>
	<path class="st10" d="M182.6,213.8c-0.3,0.2-0.7,0.4-1.2,0.4c-0.6,0-1.1-0.2-1.4-0.7c-0.2-0.3-0.2-0.6-0.2-1.1v-3h-0.9v-0.7h0.9
		v-1.5h0.9v1.5h1.7v0.7h-1.7v3c0,0.6,0.3,0.9,0.8,0.9c0.3,0,0.5-0.1,0.7-0.2L182.6,213.8z"/>
	<path class="st10" d="M188.3,211.6h-4.2c0.1,1.1,0.7,1.7,1.8,1.7c0.6,0,1.2-0.2,1.6-0.7l0.6,0.6c-0.5,0.6-1.2,0.9-2.2,0.9
		c-1.7,0-2.7-1.2-2.7-2.8c0-1.6,1-2.8,2.6-2.8c1.6,0,2.5,1.2,2.5,2.6C188.4,211.4,188.3,211.5,188.3,211.6z M187.4,210.9
		c-0.1-1-0.8-1.5-1.6-1.5c-0.9,0-1.6,0.6-1.6,1.5H187.4z"/>
	<path class="st10" d="M189.5,214V213h1.1v1.1H189.5z"/>
	<path class="st10" d="M196.5,213.1c-0.4,0.6-1.2,1.1-2.1,1.1c-1.6,0-2.6-1.2-2.6-2.8s1-2.8,2.6-2.8c0.9,0,1.7,0.4,2.1,1.1l-0.7,0.5
		c-0.3-0.5-0.8-0.8-1.4-0.8c-1,0-1.7,0.8-1.7,2c0,1.1,0.6,2,1.7,2c0.7,0,1.1-0.3,1.4-0.8L196.5,213.1z"/>
	<path class="st10" d="M199.8,214.2c-1.6,0-2.6-1.2-2.6-2.8c0-1.6,1-2.8,2.6-2.8c1.6,0,2.6,1.2,2.6,2.8
		C202.4,213,201.4,214.2,199.8,214.2z M199.8,209.4c-1.1,0-1.7,0.9-1.7,2c0,1.1,0.6,2,1.7,2s1.7-0.9,1.7-2
		C201.4,210.3,200.8,209.4,199.8,209.4z"/>
	<path class="st10" d="M203.6,214v-5.3h0.9v0.9c0.4-0.6,1-1,1.7-1c0.8,0,1.3,0.4,1.6,1.1c0.4-0.7,1.1-1.1,1.9-1.1
		c1.1,0,1.8,0.7,1.8,2v3.5h-0.9v-3.2c0-0.7-0.2-1.3-1.1-1.3c-0.8,0-1.5,0.7-1.5,1.6v3h-0.9v-3.2c0-0.7-0.2-1.3-1.1-1.3
		c-0.9,0-1.5,0.6-1.5,1.6v3H203.6z"/>
</g>
<g id="Rechteck_33">
	<g>
		<rect x="355" y="270" class="st11" width="211" height="96"/>
	</g>
</g>
<g id="Ellipse_37">
	<path class="st12" d="M399.5,287.6c17,0,30.9,13.9,30.9,30.9s-13.9,30.9-30.9,30.9s-30.9-13.9-30.9-30.9S382.5,287.6,399.5,287.6
		 M399.5,286.6c-17.6,0-31.9,14.3-31.9,31.9s14.3,31.9,31.9,31.9s31.9-14.3,31.9-31.9C431.4,300.8,417.1,286.6,399.5,286.6
		L399.5,286.6z"/>
</g>
<g>
	<path class="st5" d="M449.3,344.3H446v-6.7h3.2c1.5,0,2.3,0.6,2.3,1.7c0,0.6-0.3,1.1-0.9,1.4c0.7,0.3,1.1,0.9,1.1,1.6
		C451.6,343.6,450.8,344.3,449.3,344.3z M449,339h-1.4v1.2h1.5c0.5,0,0.8-0.2,0.8-0.6C449.8,339.2,449.5,339,449,339z M449.2,341.5
		h-1.6v1.4h1.6c0.5,0,0.8-0.3,0.8-0.7C450,341.8,449.7,341.5,449.2,341.5z"/>
	<path class="st5" d="M458.5,341.8c0,1.7-1.2,2.7-2.9,2.7c-1.8,0-2.9-1-2.9-2.7v-4.1h1.6v4.1c0,0.8,0.4,1.2,1.3,1.2
		c0.8,0,1.3-0.4,1.3-1.2v-4.1h1.6V341.8z"/>
	<path class="st5" d="M463.3,341.8v2.6h-1.6v-2.5l-2.6-4.1h1.9l1.5,2.6l1.5-2.6h1.8L463.3,341.8z"/>
	<path class="st5" d="M473.3,344.3l-2.5-4.6v4.6h-1.5v-6.7h2l2.4,4.5v-4.5h1.5v6.7H473.3z"/>
	<path class="st5" d="M479.6,344.5c-2.1,0-3.4-1.5-3.4-3.4s1.3-3.4,3.4-3.4s3.4,1.5,3.4,3.4C483.1,342.9,481.8,344.5,479.6,344.5z
		 M479.6,339c-1.1,0-1.7,0.9-1.7,2s0.6,2,1.7,2s1.8-0.9,1.8-2S480.8,339,479.6,339z"/>
	<path class="st5" d="M491,344.3h-1.7l-1.1-4.2l-1.1,4.2h-1.7l-1.8-6.7h1.7l1,4.4l1.2-4.4h1.4l1.2,4.4l1-4.4h1.8L491,344.3z"/>
	<path class="st5" d="M445.2,345.6v-0.5H493v0.5H445.2z"/>
</g>
<g>
	<rect x="445" y="308" class="st5" width="67" height="5"/>
	<rect x="445" y="320" class="st5" width="50" height="5"/>
	<rect x="445" y="291" class="st5" width="105" height="10"/>
</g>
<g id="Rechteck_33_2_">
	<g>
		<rect x="465.2" y="376.7" class="st11" width="100.8" height="95.8"/>
	</g>
</g>
<g>
	<path class="st5" d="M476.5,465h-3.4v-6.7h3.2c1.5,0,2.3,0.6,2.3,1.7c0,0.6-0.3,1.1-0.9,1.4c0.7,0.3,1.1,0.9,1.1,1.6
		C478.8,464.2,477.9,465,476.5,465z M476.2,459.7h-1.4v1.2h1.5c0.5,0,0.8-0.2,0.8-0.6C477,459.9,476.7,459.7,476.2,459.7z
		 M476.4,462.2h-1.6v1.4h1.6c0.5,0,0.8-0.3,0.8-0.7C477.2,462.5,476.9,462.2,476.4,462.2z"/>
	<path class="st5" d="M485.6,462.4c0,1.7-1.2,2.7-2.9,2.7c-1.8,0-2.9-1-2.9-2.7v-4.1h1.6v4.1c0,0.8,0.4,1.2,1.3,1.2
		c0.8,0,1.3-0.4,1.3-1.2v-4.1h1.6V462.4z"/>
	<path class="st5" d="M490.4,462.4v2.6h-1.6v-2.5l-2.6-4.1h1.9l1.5,2.6l1.5-2.6h1.8L490.4,462.4z"/>
	<path class="st5" d="M500.4,465l-2.5-4.6v4.6h-1.5v-6.7h2l2.4,4.5v-4.5h1.5v6.7H500.4z"/>
	<path class="st5" d="M506.8,465.1c-2.1,0-3.4-1.5-3.4-3.4s1.3-3.4,3.4-3.4s3.4,1.5,3.4,3.4C510.2,463.6,508.9,465.1,506.8,465.1z
		 M506.8,459.7c-1.1,0-1.7,0.9-1.7,2s0.6,2,1.7,2s1.8-0.9,1.8-2C508.6,460.6,507.9,459.7,506.8,459.7z"/>
	<path class="st5" d="M518.1,465h-1.7l-1.1-4.2l-1.1,4.2h-1.7l-1.8-6.7h1.7l1,4.4l1.2-4.4h1.4l1.2,4.4l1-4.4h1.8L518.1,465z"/>
	<path class="st5" d="M472.4,466.3v-0.5h47.7v0.5H472.4z"/>
</g>
<g>
	<rect x="472" y="409" class="st5" width="50" height="5"/>
	<rect x="472" y="421" class="st5" width="50" height="5"/>
	<rect x="472" y="392" class="st5" width="75" height="10"/>
</g>
<g id="Rechteck_33_4_">
	<g>
		<rect x="355.2" y="376.7" class="st11" width="100.8" height="95.8"/>
	</g>
</g>
<g>
	<path class="st5" d="M366.5,465h-3.4v-6.7h3.2c1.5,0,2.3,0.6,2.3,1.7c0,0.6-0.3,1.1-0.9,1.4c0.7,0.3,1.1,0.9,1.1,1.6
		C368.8,464.2,367.9,465,366.5,465z M366.2,459.7h-1.4v1.2h1.5c0.5,0,0.8-0.2,0.8-0.6C367,459.9,366.7,459.7,366.2,459.7z
		 M366.4,462.2h-1.6v1.4h1.6c0.5,0,0.8-0.3,0.8-0.7C367.2,462.5,366.9,462.2,366.4,462.2z"/>
	<path class="st5" d="M375.6,462.4c0,1.7-1.2,2.7-2.9,2.7c-1.8,0-2.9-1-2.9-2.7v-4.1h1.6v4.1c0,0.8,0.4,1.2,1.3,1.2
		c0.8,0,1.3-0.4,1.3-1.2v-4.1h1.6V462.4z"/>
	<path class="st5" d="M380.4,462.4v2.6h-1.6v-2.5l-2.6-4.1h1.9l1.5,2.6l1.5-2.6h1.8L380.4,462.4z"/>
	<path class="st5" d="M390.4,465l-2.5-4.6v4.6h-1.5v-6.7h2l2.4,4.5v-4.5h1.5v6.7H390.4z"/>
	<path class="st5" d="M396.8,465.1c-2.1,0-3.4-1.5-3.4-3.4s1.3-3.4,3.4-3.4s3.4,1.5,3.4,3.4C400.2,463.6,398.9,465.1,396.8,465.1z
		 M396.8,459.7c-1.1,0-1.7,0.9-1.7,2s0.6,2,1.7,2s1.8-0.9,1.8-2C398.6,460.6,397.9,459.7,396.8,459.7z"/>
	<path class="st5" d="M408.1,465h-1.7l-1.1-4.2l-1.1,4.2h-1.7l-1.8-6.7h1.7l1,4.4l1.2-4.4h1.4l1.2,4.4l1-4.4h1.8L408.1,465z"/>
	<path class="st5" d="M362.4,466.3v-0.5h47.7v0.5H362.4z"/>
</g>
<g>
	<rect x="362" y="409" class="st5" width="50" height="5"/>
	<rect x="362" y="421" class="st5" width="50" height="5"/>
	<rect x="362" y="392" class="st5" width="75" height="10"/>
</g>
<g id="Rechteck_33_8_">
	<g>
		<rect x="175.2" y="376.7" class="st11" width="100.8" height="95.8"/>
	</g>
</g>
<g>
	<path class="st5" d="M186.5,465h-3.4v-6.7h3.2c1.5,0,2.3,0.6,2.3,1.7c0,0.6-0.3,1.1-0.9,1.4c0.7,0.3,1.1,0.9,1.1,1.6
		C188.8,464.2,187.9,465,186.5,465z M186.2,459.7h-1.4v1.2h1.5c0.5,0,0.8-0.2,0.8-0.6C187,459.9,186.7,459.7,186.2,459.7z
		 M186.4,462.2h-1.6v1.4h1.6c0.5,0,0.8-0.3,0.8-0.7C187.2,462.5,186.9,462.2,186.4,462.2z"/>
	<path class="st5" d="M195.6,462.4c0,1.7-1.2,2.7-2.9,2.7c-1.8,0-2.9-1-2.9-2.7v-4.1h1.6v4.1c0,0.8,0.4,1.2,1.3,1.2
		c0.8,0,1.3-0.4,1.3-1.2v-4.1h1.6L195.6,462.4L195.6,462.4z"/>
	<path class="st5" d="M200.4,462.4v2.6h-1.6v-2.5l-2.6-4.1h1.9l1.5,2.6l1.5-2.6h1.8L200.4,462.4z"/>
	<path class="st5" d="M210.4,465l-2.5-4.6v4.6h-1.5v-6.7h2l2.4,4.5v-4.5h1.5v6.7H210.4z"/>
	<path class="st5" d="M216.8,465.1c-2.1,0-3.4-1.5-3.4-3.4s1.3-3.4,3.4-3.4s3.4,1.5,3.4,3.4S218.9,465.1,216.8,465.1z M216.8,459.7
		c-1.1,0-1.7,0.9-1.7,2s0.6,2,1.7,2c1.1,0,1.8-0.9,1.8-2S217.9,459.7,216.8,459.7z"/>
	<path class="st5" d="M228.1,465h-1.7l-1.1-4.2l-1.1,4.2h-1.7l-1.8-6.7h1.7l1,4.4l1.2-4.4h1.4l1.2,4.4l1-4.4h1.8L228.1,465z"/>
	<path class="st5" d="M182.4,466.3v-0.5h47.7v0.5H182.4z"/>
</g>
<g>
	<rect x="182" y="409" class="st5" width="50" height="5"/>
	<rect x="182" y="421" class="st5" width="50" height="5"/>
	<rect x="182" y="392" class="st5" width="75" height="10"/>
</g>
<g id="Rechteck_33_6_">
	<g>
		<rect x="65.2" y="376.7" class="st11" width="100.8" height="95.8"/>
	</g>
</g>
<g>
	<path class="st5" d="M76.5,465h-3.4v-6.7h3.2c1.5,0,2.3,0.6,2.3,1.7c0,0.6-0.3,1.1-0.9,1.4c0.7,0.3,1.1,0.9,1.1,1.6
		C78.8,464.2,77.9,465,76.5,465z M76.2,459.7h-1.4v1.2h1.5c0.5,0,0.8-0.2,0.8-0.6C77,459.9,76.7,459.7,76.2,459.7z M76.4,462.2h-1.6
		v1.4h1.6c0.5,0,0.8-0.3,0.8-0.7C77.2,462.5,76.9,462.2,76.4,462.2z"/>
	<path class="st5" d="M85.6,462.4c0,1.7-1.2,2.7-2.9,2.7c-1.8,0-2.9-1-2.9-2.7v-4.1h1.6v4.1c0,0.8,0.4,1.2,1.3,1.2
		c0.8,0,1.3-0.4,1.3-1.2v-4.1h1.6V462.4z"/>
	<path class="st5" d="M90.4,462.4v2.6h-1.6v-2.5l-2.6-4.1h1.9l1.5,2.6l1.5-2.6H93L90.4,462.4z"/>
	<path class="st5" d="M100.4,465l-2.5-4.6v4.6h-1.5v-6.7h2l2.4,4.5v-4.5h1.5v6.7H100.4z"/>
	<path class="st5" d="M106.8,465.1c-2.1,0-3.4-1.5-3.4-3.4s1.3-3.4,3.4-3.4s3.4,1.5,3.4,3.4C110.2,463.6,108.9,465.1,106.8,465.1z
		 M106.8,459.7c-1.1,0-1.7,0.9-1.7,2s0.6,2,1.7,2s1.8-0.9,1.8-2C108.6,460.6,107.9,459.7,106.8,459.7z"/>
	<path class="st5" d="M118.1,465h-1.7l-1.1-4.2l-1.1,4.2h-1.7l-1.8-6.7h1.7l1,4.4l1.2-4.4h1.4l1.2,4.4l1-4.4h1.8L118.1,465z"/>
	<path class="st5" d="M72.4,466.3v-0.5h47.7v0.5H72.4z"/>
</g>
<g>
	<rect x="72" y="409" class="st5" width="50" height="5"/>
	<rect x="72" y="421" class="st5" width="50" height="5"/>
	<rect x="72" y="392" class="st5" width="75" height="10"/>
</g>
<g id="Rechteck_23_1_">
	<path class="st1" d="M561.9,199.9h-202c-2.8,0-5,2.3-5,5v49.9c0,2.8,2.2,5,5,5h202c2.8,0,5-2.3,5-5V205
		C566.9,202.2,564.7,199.9,561.9,199.9z"/>
</g>
<g>
	<path class="st5" d="M428.3,231.3v4.1h-1.8v-4.1l-3.9-6.1h2.1l2.7,4.5l2.7-4.5h2.1L428.3,231.3z"/>
	<path class="st5" d="M437.6,235.6c-3.1,0-5.1-2.3-5.1-5.3s1.9-5.3,5.1-5.3s5.1,2.3,5.1,5.3S440.7,235.6,437.6,235.6z M437.6,226.7
		c-2,0-3.2,1.5-3.2,3.6s1.2,3.6,3.2,3.6s3.2-1.5,3.2-3.6C440.8,228.2,439.6,226.7,437.6,226.7z"/>
	<path class="st5" d="M453,231.5c0,2.5-1.8,4.1-4.3,4.1s-4.3-1.5-4.3-4.1v-6.3h1.8v6.3c0,1.5,0.9,2.4,2.5,2.4c1.5,0,2.5-0.9,2.5-2.4
		v-6.3h1.8V231.5z"/>
	<path class="st5" d="M461.9,235.4l-2.1-3.9h-2.6v3.9h-1.8v-10.2h4.6c2.2,0,3.6,1.2,3.6,3.1c0,1.5-0.9,2.4-2,2.9l2.3,4.2H461.9z
		 M460,226.8h-2.7v3.2h2.8c1,0,1.7-0.6,1.7-1.6S461,226.8,460,226.8z"/>
	<path class="st5" d="M476,235.4l-0.5-1.9h-3.3l-0.5,1.9h-3.2l3.6-10.2h3.5l3.6,10.2H476z M473.8,227.6l-1,3.7h2.1L473.8,227.6z"/>
	<path class="st5" d="M485.1,232.4h-2v3h-2.9v-10.2h4.9c2.4,0,4,1.4,4,3.6C489.1,231,487.5,232.4,485.1,232.4z M485,227.8h-2v2.1h2
		c0.6,0,1.1-0.3,1.1-1S485.6,227.8,485,227.8z"/>
	<path class="st5" d="M495.2,232.4h-2v3h-2.9v-10.2h4.9c2.4,0,4,1.4,4,3.6C499.2,231,497.6,232.4,495.2,232.4z M495.2,227.8h-2v2.1
		h2c0.6,0,1.1-0.3,1.1-1S495.8,227.8,495.2,227.8z"/>
</g>
<g>
	<path class="st0" d="M405,6v72H227V6H405 M406,5H226v74h180V5L406,5z"/>
</g>
<g id="Look_what_I_found_today_x2C__that_x2019_s_awesome_x21__http:_x2F__x2F_scm.st_x2F_1jqrbfw">
	<path class="st13" d="M237.4,26.3v-10h1.1v9h5.7v1H237.4z"/>
	<path class="st13" d="M248.7,26.5c-2.3,0-3.7-1.8-3.7-4c0-2.3,1.4-4,3.7-4s3.7,1.7,3.7,4C252.5,24.8,251,26.5,248.7,26.5z
		 M248.7,19.3c-1.7,0-2.7,1.4-2.7,3.1c0,1.7,1,3.1,2.7,3.1s2.7-1.4,2.7-3.1S250.4,19.3,248.7,19.3z"/>
	<path class="st13" d="M257.6,26.5c-2.3,0-3.7-1.8-3.7-4c0-2.3,1.4-4,3.7-4c2.3,0,3.7,1.7,3.7,4C261.3,24.8,259.9,26.5,257.6,26.5z
		 M257.6,19.3c-1.7,0-2.7,1.4-2.7,3.1c0,1.7,1,3.1,2.7,3.1c1.7,0,2.7-1.4,2.7-3.1C260.3,20.7,259.3,19.3,257.6,19.3z"/>
	<path class="st13" d="M268.5,18.6h1.3l-3.2,3.2l3.7,4.5H269l-3.1-3.9l-1.6,1.6v2.3h-1V15.6h1v7.3L268.5,18.6z"/>
	<path class="st13" d="M283.3,26.3h-1.1l-2.1-6.5l-2.1,6.5h-1.1l-2.1-7.7h1l1.8,6.6l2.1-6.6h1l2.1,6.6l1.8-6.6h0.9L283.3,26.3z"/>
	<path class="st13" d="M287.1,26.3V15.6h1V20c0.7-1,1.5-1.6,2.8-1.6c1.6,0,2.7,1,2.7,3v4.9h-1v-4.7c0-1-0.3-2.3-1.9-2.3
		c-1.5,0-2.6,1.1-2.6,2.7v4.2L287.1,26.3L287.1,26.3z"/>
	<path class="st13" d="M302.2,26.5c-0.7,0-1.4-0.4-1.5-1.3c-0.7,1.1-1.8,1.4-2.7,1.4c-1.6,0-2.6-0.9-2.6-2.3c0-1.8,1.6-2.1,2.6-2.3
		c1.3-0.2,2.7-0.2,2.7-1.3c0-0.9-1-1.3-1.9-1.3s-1.7,0.3-2.4,0.8l-0.5-0.7c0.8-0.6,1.8-1,3-1c1.7,0,2.9,0.8,2.9,2.5v3.8
		c0,0.6,0.2,0.9,0.7,0.9c0.2,0,0.4,0,0.5-0.1l0.1,0.8C302.7,26.4,302.4,26.5,302.2,26.5z M300.7,21.8c-0.6,0.8-1.5,0.7-2.5,0.9
		s-1.8,0.4-1.8,1.4s0.8,1.5,1.8,1.5c1.2,0,2.5-0.7,2.5-2.3V21.8z"/>
	<path class="st13" d="M308.6,26c-0.4,0.3-0.9,0.5-1.5,0.5c-0.9,0-1.6-0.3-1.9-1c-0.2-0.3-0.3-0.7-0.3-1.4v-4.6h-1.4v-0.9h1.4v-2.3
		h1v2.3h2.6v0.9h-2.6v4.6c0,1,0.4,1.5,1.3,1.5c0.5,0,0.8-0.2,1-0.3L308.6,26z"/>
	<path class="st13" d="M314.3,26.3v-10h1v10H314.3z"/>
	<path class="st13" d="M325.7,16.5c-0.3-0.1-0.6-0.1-1-0.1c-0.8,0-1.2,0.3-1.2,1.1v1.1h1.9v0.9h-1.9v6.8h-1v-6.8h-1.4v-0.9h1.4v-1.1
		c0-1.5,0.9-2,2.1-2c0.4,0,0.9,0.1,1.1,0.2V16.5z"/>
	<path class="st13" d="M330.2,26.5c-2.3,0-3.7-1.8-3.7-4c0-2.3,1.4-4,3.7-4c2.3,0,3.7,1.7,3.7,4C333.9,24.8,332.4,26.5,330.2,26.5z
		 M330.2,19.3c-1.7,0-2.7,1.4-2.7,3.1c0,1.7,1,3.1,2.7,3.1s2.7-1.4,2.7-3.1C332.8,20.7,331.9,19.3,330.2,19.3z"/>
	<path class="st13" d="M342.2,18.6v7.7h-1v-1.4c-0.7,1-1.5,1.6-2.8,1.6c-1.6,0-2.7-1-2.7-3v-4.9h1v4.7c0,1,0.3,2.3,1.9,2.3
		c1.5,0,2.6-1.1,2.6-2.7v-4.2L342.2,18.6L342.2,18.6z"/>
	<path class="st13" d="M344.7,26.3v-7.7h1V20c0.7-1,1.5-1.6,2.8-1.6c1.6,0,2.7,1,2.7,3v4.9h-1v-4.7c0-1-0.3-2.3-1.9-2.3
		c-1.5,0-2.6,1.1-2.6,2.7v4.2L344.7,26.3L344.7,26.3z"/>
	<path class="st13" d="M359.5,26.3v-1.4c-0.8,1.2-1.8,1.6-2.9,1.6c-2.2,0-3.6-1.8-3.6-4c0-2.3,1.4-4,3.6-4c1.1,0,2.1,0.4,2.9,1.6
		v-4.4h1v10.7L359.5,26.3L359.5,26.3z M356.7,19.4c-1.8,0-2.7,1.4-2.7,3.1s0.9,3.1,2.7,3.1s2.8-1.4,2.8-3.1
		C359.5,20.7,358.5,19.4,356.7,19.4z"/>
	<path class="st13" d="M241.4,44c-0.4,0.3-0.9,0.5-1.5,0.5c-0.9,0-1.6-0.3-2-1c-0.2-0.3-0.3-0.7-0.3-1.4v-4.6h-1.4v-0.9h1.4v-2.3h1
		v2.3h2.6v0.9h-2.6v4.6c0,1,0.4,1.5,1.3,1.5c0.5,0,0.8-0.2,1-0.3L241.4,44z"/>
	<path class="st13" d="M246.1,44.5c-2.3,0-3.7-1.8-3.7-4c0-2.3,1.4-4,3.7-4s3.7,1.7,3.7,4S248.4,44.5,246.1,44.5z M246.1,37.3
		c-1.7,0-2.7,1.4-2.7,3.1c0,1.7,1,3.1,2.7,3.1s2.7-1.4,2.7-3.1S247.8,37.3,246.1,37.3z"/>
	<path class="st13" d="M257.7,44.3v-1.4c-0.8,1.2-1.8,1.6-2.9,1.6c-2.2,0-3.6-1.8-3.6-4c0-2.3,1.4-4,3.6-4c1.1,0,2.1,0.4,2.9,1.6
		v-4.4h1v10.7L257.7,44.3L257.7,44.3z M255,37.4c-1.8,0-2.7,1.4-2.7,3.1c0,1.7,0.9,3.1,2.7,3.1c1.8,0,2.8-1.4,2.8-3.1
		C257.7,38.7,256.7,37.4,255,37.4z"/>
	<path class="st13" d="M267.4,44.5c-0.7,0-1.4-0.4-1.5-1.3c-0.7,1.1-1.8,1.4-2.7,1.4c-1.6,0-2.6-0.9-2.6-2.3c0-1.8,1.6-2.1,2.6-2.3
		c1.3-0.2,2.7-0.2,2.7-1.3c0-0.9-1-1.3-1.9-1.3s-1.7,0.3-2.4,0.8l-0.5-0.7c0.8-0.6,1.8-1,3-1c1.7,0,2.9,0.8,2.9,2.5v3.8
		c0,0.6,0.2,0.9,0.7,0.9c0.2,0,0.4,0,0.5-0.1l0.1,0.8C267.9,44.4,267.6,44.5,267.4,44.5z M265.9,39.8c-0.6,0.8-1.5,0.7-2.5,0.9
		s-1.8,0.4-1.8,1.4s0.8,1.5,1.8,1.5c1.2,0,2.5-0.7,2.5-2.3V39.8z"/>
	<path class="st13" d="M272.5,44.7c-0.6,1.5-1.2,2.4-2.6,2.4c-0.6,0-1-0.1-1.4-0.4l0.5-0.8c0.3,0.2,0.6,0.3,0.9,0.3
		c0.8,0,1.2-0.6,1.5-1.3l0.2-0.5l-3.3-7.8h1.1l2.7,6.4l2.4-6.4h1L272.5,44.7z"/>
	<path class="st13" d="M277.9,44.4c0,0.8-0.4,1.5-1,2.1l-0.4-0.4c0.5-0.5,0.7-1,0.7-1.4v-0.4h-0.7V43h1.3v1.4H277.9z"/>
	<path class="st13" d="M288.5,44c-0.4,0.3-0.9,0.5-1.5,0.5c-0.9,0-1.6-0.3-2-1c-0.2-0.3-0.3-0.7-0.3-1.4v-4.6h-1.4v-0.9h1.4v-2.3h1
		v2.3h2.6v0.9h-2.6v4.6c0,1,0.4,1.5,1.3,1.5c0.5,0,0.8-0.2,1-0.3L288.5,44z"/>
	<path class="st13" d="M290,44.3V33.6h1V38c0.7-1,1.5-1.6,2.8-1.6c1.6,0,2.7,1,2.7,3v4.9h-1v-4.7c0-1-0.3-2.3-1.9-2.3
		c-1.5,0-2.6,1.1-2.6,2.7v4.2L290,44.3L290,44.3z"/>
	<path class="st13" d="M305,44.5c-0.7,0-1.4-0.4-1.5-1.3c-0.7,1.1-1.8,1.4-2.7,1.4c-1.6,0-2.6-0.9-2.6-2.3c0-1.8,1.6-2.1,2.6-2.3
		c1.3-0.2,2.7-0.2,2.7-1.3c0-0.9-1-1.3-1.9-1.3s-1.7,0.3-2.4,0.8l-0.5-0.7c0.8-0.6,1.8-1,3-1c1.7,0,2.9,0.8,2.9,2.5v3.8
		c0,0.6,0.2,0.9,0.7,0.9c0.2,0,0.4,0,0.5-0.1l0.1,0.8C305.6,44.4,305.2,44.5,305,44.5z M303.5,39.8c-0.6,0.8-1.5,0.7-2.5,0.9
		s-1.8,0.4-1.8,1.4s0.8,1.5,1.8,1.5c1.2,0,2.5-0.7,2.5-2.3V39.8z"/>
	<path class="st13" d="M311.4,44c-0.4,0.3-0.9,0.5-1.5,0.5c-0.9,0-1.6-0.3-1.9-1c-0.2-0.3-0.3-0.7-0.3-1.4v-4.6h-1.4v-0.9h1.4v-2.3
		h1v2.3h2.6v0.9h-2.6v4.6c0,1,0.4,1.5,1.3,1.5c0.5,0,0.8-0.2,1-0.3L311.4,44z"/>
	<path class="st13" d="M313.8,35.6c0,0.8-0.4,1.5-1,2.1l-0.4-0.4c0.5-0.4,0.7-1,0.7-1.4v-0.4h-0.7v-1.2h1.3v1.3H313.8z"/>
	<path class="st13" d="M318.2,44.5c-1.5,0-2.6-0.6-3.3-1.6l0.8-0.6c0.6,0.8,1.4,1.3,2.5,1.3s2-0.5,2-1.5c0-0.9-0.7-1-2.3-1.4
		c-1.4-0.3-2.6-0.7-2.6-2.2s1.4-2.2,2.8-2.2c1.3,0,2.4,0.6,2.9,1.2l-0.7,0.7c-0.6-0.7-1.4-1-2.3-1s-1.8,0.3-1.8,1.2s0.9,1.1,2,1.3
		c1.4,0.3,3,0.6,3,2.2C321.2,43.5,320.1,44.5,318.2,44.5z"/>
	<path class="st13" d="M333.4,44.5c-0.7,0-1.4-0.4-1.5-1.3c-0.7,1.1-1.8,1.4-2.7,1.4c-1.6,0-2.6-0.9-2.6-2.3c0-1.8,1.6-2.1,2.6-2.3
		c1.3-0.2,2.7-0.2,2.7-1.3c0-0.9-1-1.3-1.9-1.3s-1.7,0.3-2.4,0.8l-0.5-0.7c0.8-0.6,1.8-1,3-1c1.7,0,2.9,0.8,2.9,2.5v3.8
		c0,0.6,0.2,0.9,0.7,0.9c0.2,0,0.4,0,0.5-0.1l0.1,0.8C333.9,44.4,333.6,44.5,333.4,44.5z M331.9,39.8c-0.6,0.8-1.5,0.7-2.5,0.9
		s-1.8,0.4-1.8,1.4s0.8,1.5,1.8,1.5c1.2,0,2.5-0.7,2.5-2.3V39.8z"/>
	<path class="st13" d="M343.2,44.3h-1.1l-2.1-6.5l-2.1,6.5h-1.1l-2.1-7.7h1l1.8,6.6l2.1-6.6h1l2.1,6.6l1.8-6.6h0.9L343.2,44.3z"/>
	<path class="st13" d="M353.8,40.7h-6.2c0.1,1.8,1.2,2.9,2.8,2.9c0.9,0,1.7-0.3,2.3-1l0.7,0.7c-0.8,0.9-1.8,1.3-3,1.3
		c-2.4,0-3.9-1.7-3.9-4s1.4-4.1,3.7-4.1c2.2,0,3.6,1.7,3.6,3.8C353.8,40.5,353.8,40.6,353.8,40.7z M352.8,39.9
		c-0.2-1.7-1.3-2.5-2.6-2.5c-1.5,0-2.5,1.1-2.6,2.5H352.8z"/>
	<path class="st13" d="M358.3,44.5c-1.5,0-2.6-0.6-3.3-1.6l0.8-0.6c0.6,0.8,1.4,1.3,2.5,1.3s2-0.5,2-1.5c0-0.9-0.7-1-2.3-1.4
		c-1.4-0.3-2.6-0.7-2.6-2.2s1.4-2.2,2.8-2.2s2.4,0.6,2.9,1.2l-0.7,0.7c-0.6-0.7-1.4-1-2.3-1s-1.8,0.3-1.8,1.2s0.9,1.1,2,1.3
		c1.4,0.3,3,0.6,3,2.2C361.3,43.5,360.2,44.5,358.3,44.5z"/>
	<path class="st13" d="M366.4,44.5c-2.3,0-3.7-1.8-3.7-4c0-2.3,1.4-4,3.7-4s3.7,1.7,3.7,4S368.7,44.5,366.4,44.5z M366.4,37.3
		c-1.7,0-2.7,1.4-2.7,3.1c0,1.7,1,3.1,2.7,3.1s2.7-1.4,2.7-3.1S368.1,37.3,366.4,37.3z"/>
	<path class="st13" d="M372.1,44.3v-7.7h1V38c0.6-1,1.5-1.6,2.6-1.6s2,0.6,2.4,1.6c0.6-1,1.5-1.6,2.8-1.6c1.6,0,2.6,1,2.6,2.9v5h-1
		v-4.8c0-1.1-0.3-2.2-1.8-2.2c-1.4,0-2.5,1.1-2.5,2.7v4.3h-1v-4.8c0-1.1-0.3-2.2-1.8-2.2c-1.4,0-2.5,1.1-2.5,2.7v4.3
		C372.9,44.3,372.1,44.3,372.1,44.3z"/>
	<path class="st13" d="M392.6,40.7h-6.2c0.1,1.8,1.2,2.9,2.8,2.9c0.9,0,1.7-0.3,2.3-1l0.7,0.7c-0.8,0.9-1.8,1.3-3,1.3
		c-2.4,0-3.9-1.7-3.9-4s1.4-4.1,3.7-4.1c2.2,0,3.6,1.7,3.6,3.8C392.6,40.5,392.6,40.6,392.6,40.7z M391.6,39.9
		c-0.2-1.7-1.3-2.5-2.6-2.5c-1.5,0-2.5,1.1-2.6,2.5H391.6z"/>
	<path class="st13" d="M395.5,41.4H395l-0.3-4.9v-2.2h1.2v2.2L395.5,41.4z M394.6,44.3v-1.5h1.2v1.5H394.6z"/>
	<path class="st13" d="M237.1,62.3V51.6h1.7v4c0.6-0.9,1.5-1.3,2.6-1.3c1.7,0,2.7,1.2,2.7,2.9v5.1h-1.6v-4.8c0-0.8-0.3-1.8-1.6-1.8
		c-1.2,0-2.1,0.8-2.1,2.1v4.4h-1.7V62.3z"/>
	<path class="st13" d="M251,61.9c-0.5,0.4-1.1,0.6-1.9,0.6c-1,0-1.7-0.3-2.1-1c-0.3-0.4-0.4-0.9-0.4-1.6v-4.1h-1.3v-1.3h1.3v-2.1
		h1.7v2.1h2.4v1.3h-2.4v4.1c0,0.8,0.4,1.2,1.1,1.2c0.4,0,0.8-0.2,1-0.3L251,61.9z"/>
	<path class="st13" d="M257.2,61.9c-0.5,0.4-1.1,0.6-1.9,0.6c-1,0-1.7-0.3-2.1-1c-0.3-0.4-0.4-0.9-0.4-1.6v-4.1h-1.3v-1.3h1.3v-2.1
		h1.7v2.1h2.4v1.3h-2.4v4.1c0,0.8,0.4,1.2,1.1,1.2c0.4,0,0.8-0.2,1-0.3L257.2,61.9z"/>
	<path class="st13" d="M260.1,54.5v1.2c0.7-0.9,1.6-1.3,2.7-1.3c2.2,0,3.6,1.8,3.6,4.1c0,2.3-1.4,4.1-3.6,4.1c-1,0-1.9-0.4-2.7-1.3
		v3.8h-1.6V54.5H260.1z M262.4,61c1.5,0,2.2-1.2,2.2-2.6c0-1.5-0.7-2.6-2.2-2.6s-2.3,1.2-2.3,2.6C260.1,59.9,261,61,262.4,61z"/>
	<path class="st13" d="M268.3,56.4v-1.9h1.9v1.9H268.3z M268.3,62.3v-1.9h1.9v1.9H268.3z"/>
	<path class="st13" d="M273.3,64h-1.4l3.3-12.3h1.4L273.3,64z"/>
	<path class="st13" d="M278.5,64h-1.4l3.3-12.3h1.4L278.5,64z"/>
	<path class="st13" d="M286.1,62.5c-1.6,0-2.9-0.6-3.7-1.8l1.2-0.8c0.6,0.8,1.6,1.2,2.6,1.2s1.6-0.4,1.6-1.1s-0.7-0.9-2-1.1
		c-1.6-0.3-3-0.8-3-2.4s1.5-2.4,3.1-2.4s2.7,0.7,3.4,1.4l-1.1,1c-0.5-0.6-1.4-1-2.4-1c-0.8,0-1.5,0.3-1.5,0.9c0,0.7,0.8,0.8,1.9,1
		c1.7,0.3,3.1,0.7,3.1,2.4C289.5,61.5,288.2,62.5,286.1,62.5z"/>
	<path class="st13" d="M297.8,60.8c-0.7,1-1.7,1.7-3.3,1.7c-2.4,0-3.9-1.8-3.9-4.1c0-2.4,1.5-4.1,3.9-4.1c1.5,0,2.6,0.7,3.3,1.8
		l-1.2,0.9c-0.4-0.7-1.1-1.2-1.9-1.2c-1.4,0-2.2,1.1-2.2,2.7c0,1.5,0.9,2.7,2.2,2.7c0.9,0,1.5-0.5,2-1.1L297.8,60.8z"/>
	<path class="st13" d="M299.4,62.3v-7.9h1.6v1.1c0.6-0.8,1.4-1.3,2.5-1.3c1.2,0,2,0.5,2.3,1.5c0.7-1,1.6-1.5,2.7-1.5
		c1.7,0,2.6,1.1,2.6,2.9v5.2h-1.6v-4.8c0-0.9-0.2-1.8-1.5-1.8c-1.1,0-1.9,0.8-1.9,2.1v4.4h-1.6v-4.8c0-0.9-0.2-1.8-1.5-1.8
		c-1.1,0-1.9,0.8-1.9,2.1v4.4h-1.7V62.3z"/>
	<path class="st13" d="M313.1,62.3v-1.9h1.9v1.9H313.1z"/>
	<path class="st13" d="M320.1,62.5c-1.6,0-2.9-0.6-3.7-1.8l1.2-0.8c0.6,0.8,1.6,1.2,2.6,1.2s1.6-0.4,1.6-1.1s-0.7-0.9-2-1.1
		c-1.6-0.3-3-0.8-3-2.4s1.5-2.4,3.1-2.4s2.7,0.7,3.4,1.4l-1,1c-0.5-0.6-1.4-1-2.4-1c-0.8,0-1.5,0.3-1.5,0.9c0,0.7,0.8,0.8,1.9,1
		c1.7,0.3,3.1,0.7,3.1,2.4C323.4,61.5,322.2,62.5,320.1,62.5z"/>
	<path class="st13" d="M330,61.9c-0.5,0.4-1.1,0.6-1.9,0.6c-1,0-1.7-0.3-2.1-1c-0.3-0.4-0.4-0.9-0.4-1.6v-4.1h-1.3v-1.3h1.3v-2.1
		h1.7v2.1h2.4v1.3h-2.4v4.1c0,0.8,0.4,1.2,1.1,1.2c0.4,0,0.8-0.2,1-0.3L330,61.9z"/>
	<path class="st13" d="M332.1,64h-1.4l3.3-12.3h1.4L332.1,64z"/>
	<path class="st13" d="M337.2,62.3v-1.5h2.5v-6.6c-0.5,0.3-1.5,0.6-2.5,0.7l-0.2-1.4c1.5-0.3,2.4-0.6,3.1-1.3h1.3v8.5h2.3v1.5h-6.5
		V62.3z"/>
	<path class="st13" d="M347.4,62.3c0,1.9-1.1,2.8-2.7,2.8c-0.5,0-1.1-0.1-1.4-0.3l0.5-1.3c0.2,0.1,0.5,0.2,0.8,0.2
		c0.9,0,1.2-0.5,1.2-1.4v-7.8h1.7v7.8H347.4z M345.7,53.2v-1.6h1.7v1.6H345.7z"/>
	<path class="st13" d="M355.3,64.9v-3.8c-0.7,0.9-1.6,1.3-2.7,1.3c-2.2,0-3.6-1.8-3.6-4.1c0-2.3,1.4-4.1,3.6-4.1c1,0,2,0.4,2.7,1.3
		v-1.2h1.7v10.5L355.3,64.9L355.3,64.9z M353,55.8c-1.5,0-2.2,1.2-2.2,2.6s0.7,2.6,2.2,2.6s2.3-1.2,2.3-2.6
		C355.3,56.9,354.5,55.8,353,55.8z"/>
	<path class="st13" d="M363.6,56.2c-0.3-0.1-0.5-0.2-0.9-0.2c-1,0-1.9,0.9-1.9,2.4v4h-1.6v-7.9h1.6v1.3c0.5-0.8,1.3-1.4,2.2-1.4
		c0.4,0,0.8,0.1,1.1,0.3L363.6,56.2z"/>
	<path class="st13" d="M366.9,51.6v4c0.7-0.9,1.6-1.3,2.7-1.3c2.2,0,3.6,1.8,3.6,4.1c0,2.3-1.4,4.1-3.6,4.1c-1,0-1.9-0.4-2.7-1.3
		v1.2h-1.6V51.6H366.9z M369.2,61c1.5,0,2.2-1.2,2.2-2.6s-0.7-2.6-2.2-2.6s-2.3,1.2-2.3,2.6C366.9,59.9,367.7,61,369.2,61z"/>
	<path class="st13" d="M379.1,52.9c-0.2-0.1-0.6-0.1-0.9-0.1c-0.7,0-1,0.2-1,0.9v0.8h1.8v1.3h-1.8v6.6h-1.7v-6.6h-1.3v-1.3h1.3v-0.7
		c0-1.5,0.9-2.3,2.5-2.3c0.5,0,0.9,0,1.3,0.2L379.1,52.9z"/>
	<path class="st13" d="M388.7,62.3H387l-1.7-5.7l-1.7,5.7h-1.8l-2.2-7.9h1.8l1.4,5.8l1.7-5.8h1.5l1.7,5.8l1.4-5.8h1.8L388.7,62.3z"
		/>
	<path class="st13" d="M236,64.2v-0.7h155.3v0.7H236z"/>
</g>
<g>
	<path class="st2" d="M155.3,49l-0.7-1.9h-3l-0.7,1.9h-1.4l2.9-7.3h1.5l2.9,7.3H155.3z M153.1,42.8l-1.2,3.2h2.3L153.1,42.8z"/>
	<path class="st2" d="M160.9,46.4H159V49h-1.3v-7.3h3.2c1.7,0,2.7,0.9,2.7,2.4C163.6,45.4,162.6,46.4,160.9,46.4z M160.9,45.2
		c0.9,0,1.4-0.5,1.4-1.2c0-0.8-0.5-1.2-1.4-1.2H159v2.5L160.9,45.2L160.9,45.2z"/>
	<path class="st2" d="M168,46.4h-1.9V49h-1.3v-7.3h3.2c1.7,0,2.7,0.9,2.7,2.4C170.6,45.4,169.7,46.4,168,46.4z M168,45.2
		c0.9,0,1.4-0.5,1.4-1.2c0-0.8-0.5-1.2-1.4-1.2h-1.9v2.5L168,45.2L168,45.2z"/>
	<path class="st6" d="M179.5,49l-3.4-5.7V49h-1.2v-7.3h1.6l3.4,5.5v-5.5h1.2V49H179.5z"/>
	<path class="st6" d="M186,49.1c-2.2,0-3.6-1.6-3.6-3.8c0-2.1,1.4-3.8,3.6-3.8s3.6,1.7,3.6,3.8C189.7,47.5,188.3,49.1,186,49.1z
		 M186,42.7c-1.5,0-2.3,1.1-2.3,2.6s0.8,2.6,2.3,2.6c1.4,0,2.3-1.1,2.3-2.6S187.5,42.7,186,42.7z"/>
	<path class="st6" d="M193.9,42.8V49h-1.3v-6.2h-2.4v-1.1h6.1v1.1H193.9z"/>
	<path class="st2" d="M144.6,62.2v-7.3h1.3v7.3H144.6z"/>
	<path class="st2" d="M152.4,62.2l-3.4-5.7v5.7h-1.2v-7.3h1.6l3.4,5.5v-5.5h1.2v7.3H152.4z"/>
	<path class="st2" d="M161,56.1l-1,0.6c-0.5-0.6-1.2-0.9-1.9-0.9s-1.3,0.3-1.3,0.9c0,0.7,0.7,0.8,1.6,1c1.5,0.3,2.8,0.7,2.8,2.2
		c0,1.4-1.1,2.3-2.9,2.3c-1.5,0-2.6-0.6-3.1-1.6l1-0.6c0.5,0.8,1.3,1.1,2.2,1.1s1.5-0.4,1.5-1.1c0-0.8-0.8-0.9-1.8-1.1
		c-1.3-0.3-2.5-0.7-2.5-2.2c0-1.3,1.1-2.1,2.7-2.1C159.3,54.7,160.3,55.2,161,56.1z"/>
	<path class="st2" d="M165.6,56v6.2h-1.3V56h-2.4v-1.1h6.1V56H165.6z"/>
	<path class="st2" d="M173.5,62.2l-0.7-1.9h-3l-0.7,1.9h-1.4l2.9-7.3h1.5l2.9,7.3H173.5z M171.3,56l-1.2,3.2h2.3L171.3,56z"/>
	<path class="st2" d="M175.9,62.2v-7.3h1.3V61h3.9v1.2H175.9z"/>
	<path class="st2" d="M182.2,62.2v-7.3h1.3V61h3.9v1.2H182.2z"/>
	<path class="st2" d="M188.5,62.2v-7.3h5.3V56h-4v1.8h3.5v1.1h-3.5v2.2h4.2v1.1H188.5z"/>
	<path class="st2" d="M195.3,62.2v-7.3h2.9c2.3,0,3.6,1.6,3.6,3.7s-1.3,3.7-3.6,3.7L195.3,62.2L195.3,62.2z M198.2,61
		c1.5,0,2.3-1,2.3-2.5s-0.8-2.5-2.3-2.5h-1.6v5H198.2z"/>
</g>
<g>
	<path class="st0" d="M186.6,15.4h-2c-0.5,0-1,0-1,0v-1h3V15.4z"/>
	<path class="st0" d="M182.6,15.4h-2c-0.5,0-1,0-1,0v-1h3V15.4z"/>
	<path class="st0" d="M175.6,15.4v-1h3v1h-2C176.1,15.4,175.6,15.4,175.6,15.4z"/>
	<polygon class="st0" points="172.6,86.4 172.6,84.4 172.6,84.4 172.6,83.4 173.6,83.4 173.6,85.4 173.6,85.4 173.6,86.4 	"/>
	<polygon class="st0" points="172.6,76.4 172.6,76.4 172.6,75.4 173.6,75.4 173.6,77.4 173.6,77.4 173.6,78.4 172.6,78.4 	"/>
	<polygon class="st0" points="172.6,80.4 172.6,80.4 172.6,79.4 173.6,79.4 173.6,81.4 173.6,81.4 173.6,82.4 172.6,82.4 	"/>
	<path class="st0" d="M194.6,15.4h-2c-0.5,0-1,0-1,0v-1h3V15.4z"/>
	<path class="st0" d="M210.6,15.4h-2c-0.5,0-1,0-1,0v-1h3V15.4z"/>
	<path class="st0" d="M214.6,15.4h-2c-0.5,0-1,0-1,0v-1h3V15.4z"/>
	<path class="st0" d="M206.6,15.4h-2c-0.5,0-1,0-1,0v-1h3V15.4z"/>
	<polygon class="st0" points="172.6,72.4 172.6,72.4 172.6,71.4 173.6,71.4 173.6,73.4 173.6,73.4 173.6,74.4 172.6,74.4 	"/>
	<path class="st0" d="M202.6,15.4h-2c-0.5,0-1,0-1,0v-1h3V15.4z"/>
	<path class="st0" d="M190.6,15.4h-2c-0.5,0-1,0-1,0v-1h3V15.4z"/>
	<path class="st0" d="M198.6,15.4h-2c-0.5,0-1,0-1,0v-1h3V15.4z"/>
	<path class="st0" d="M218.6,15.4h-2c-0.5,0-1,0-1,0v-1h3V15.4z"/>
	<polygon class="st0" points="172.6,28.4 172.6,28.4 172.6,27.4 173.6,27.4 173.6,29.4 173.6,29.4 173.6,30.4 172.6,30.4 	"/>
	<polygon class="st0" points="172.6,24.4 172.6,24.4 172.6,23.4 173.6,23.4 173.6,25.4 173.6,25.4 173.6,26.4 172.6,26.4 	"/>
	<polygon class="st0" points="172.6,32.4 172.6,32.4 172.6,31.4 173.6,31.4 173.6,33.4 173.6,33.4 173.6,34.4 172.6,34.4 	"/>
	<polygon class="st0" points="172.6,16.4 172.6,16.4 172.6,15.4 173.6,15.4 173.6,17.4 173.6,17.4 173.6,18.4 172.6,18.4 	"/>
	<polygon class="st0" points="172.6,15.4 172.6,14.4 174.6,14.4 174.6,15.4 173.6,15.4 	"/>
	<polygon class="st0" points="172.6,20.4 172.6,20.4 172.6,19.4 173.6,19.4 173.6,21.4 173.6,21.4 173.6,22.4 172.6,22.4 	"/>
	<polygon class="st0" points="177.3,87.1 173.2,91.2 168.8,86.8 	"/>
</g>
<g>
	<path class="st0" d="M446,15.4h2c0.5,0,1,0,1,0v-1h-3V15.4z"/>
	<path class="st0" d="M450,15.4h2c0.5,0,1,0,1,0v-1h-3V15.4z"/>
	<path class="st0" d="M457,15.4v-1h-3v1h2C456.5,15.4,457,15.4,457,15.4z"/>
	<polygon class="st0" points="460,86.4 460,84.4 460,84.4 460,83.4 459,83.4 459,85.4 459,85.4 459,86.4 	"/>
	<polygon class="st0" points="460,76.4 460,76.4 460,75.4 459,75.4 459,77.4 459,77.4 459,78.4 460,78.4 	"/>
	<polygon class="st0" points="460,80.4 460,80.4 460,79.4 459,79.4 459,81.4 459,81.4 459,82.4 460,82.4 	"/>
	<path class="st0" d="M438,15.4h2c0.5,0,1,0,1,0v-1h-3V15.4z"/>
	<path class="st0" d="M422,15.4h2c0.5,0,1,0,1,0v-1h-3V15.4z"/>
	<path class="st0" d="M418,15.4h2c0.5,0,1,0,1,0v-1h-3V15.4z"/>
	<path class="st0" d="M426,15.4h2c0.5,0,1,0,1,0v-1h-3V15.4z"/>
	<polygon class="st0" points="460,72.4 460,72.4 460,71.4 459,71.4 459,73.4 459,73.4 459,74.4 460,74.4 	"/>
	<path class="st0" d="M430,15.4h2c0.5,0,1,0,1,0v-1h-3V15.4z"/>
	<path class="st0" d="M442,15.4h2c0.5,0,1,0,1,0v-1h-3V15.4z"/>
	<path class="st0" d="M434,15.4h2c0.5,0,1,0,1,0v-1h-3V15.4z"/>
	<path class="st0" d="M414,15.4h2c0.5,0,1,0,1,0v-1h-3V15.4z"/>
	<polygon class="st0" points="460,28.4 460,28.4 460,27.4 459,27.4 459,29.4 459,29.4 459,30.4 460,30.4 	"/>
	<polygon class="st0" points="460,24.4 460,24.4 460,23.4 459,23.4 459,25.4 459,25.4 459,26.4 460,26.4 	"/>
	<polygon class="st0" points="460,32.4 460,32.4 460,31.4 459,31.4 459,33.4 459,33.4 459,34.4 460,34.4 	"/>
	<polygon class="st0" points="460,16.4 460,16.4 460,15.4 459,15.4 459,17.4 459,17.4 459,18.4 460,18.4 	"/>
	<polygon class="st0" points="460,15.4 460,14.4 458,14.4 458,15.4 459,15.4 	"/>
	<polygon class="st0" points="460,20.4 460,20.4 460,19.4 459,19.4 459,21.4 459,21.4 459,22.4 460,22.4 	"/>
	<polygon class="st0" points="455.4,87.1 459.5,91.2 463.9,86.8 	"/>
</g>
<g>
	<path class="st2" d="M451.9,47.4h3l0.7,1.9h1.4l-2.9-7.3h-1.5l-2.9,7.3h1.4L451.9,47.4z M453.4,43.1l1.2,3.2h-2.3L453.4,43.1z"/>
	<path class="st2" d="M461.3,41.9h-3.2v7.3h1.3v-2.6h1.9c1.7,0,2.7-0.9,2.7-2.3C463.9,42.9,463,41.9,461.3,41.9z M461.3,45.5h-1.9
		V43h1.9c0.9,0,1.4,0.5,1.4,1.2C462.6,45,462.2,45.5,461.3,45.5z"/>
	<path class="st2" d="M466.4,46.6h1.9c1.7,0,2.7-0.9,2.7-2.3c0-1.4-1-2.4-2.7-2.4h-3.2v7.3h1.3L466.4,46.6L466.4,46.6z M466.4,43
		h1.9c0.9,0,1.4,0.5,1.4,1.2c0,0.8-0.5,1.2-1.4,1.2h-1.9V43z"/>
	<rect x="432.1" y="55.1" class="st2" width="1.3" height="7.3"/>
	<polygon class="st2" points="440.2,60.7 436.8,55.1 435.2,55.1 435.2,62.5 436.4,62.5 436.4,56.8 439.9,62.5 441.4,62.5 
		441.4,55.1 440.2,55.1 	"/>
	<path class="st2" d="M445.9,58.1c-0.9-0.2-1.6-0.4-1.6-1c0-0.7,0.6-0.9,1.3-0.9c0.8,0,1.5,0.3,1.9,0.9l1-0.6
		c-0.7-0.9-1.7-1.4-2.9-1.4c-1.6,0-2.7,0.8-2.7,2.1c0,1.4,1.2,1.9,2.5,2.2c1,0.2,1.8,0.4,1.8,1.1s-0.6,1.1-1.5,1.1
		c-0.8,0-1.7-0.3-2.2-1.1l-1,0.6c0.6,1,1.7,1.6,3.1,1.6c1.8,0,2.9-1,2.9-2.3C448.6,58.8,447.3,58.4,445.9,58.1z"/>
	<polygon class="st2" points="455.5,55.1 449.4,55.1 449.4,56.2 451.8,56.2 451.8,62.5 453.1,62.5 453.1,56.2 455.5,56.2 	"/>
	<path class="st2" d="M458,55.1l-2.9,7.3h1.4l0.7-1.9h3l0.7,1.9h1.4l-2.9-7.3H458z M457.6,59.5l1.2-3.2l1.2,3.2H457.6z"/>
	<polygon class="st2" points="464.7,55.1 463.4,55.1 463.4,62.5 468.6,62.5 468.6,61.3 464.7,61.3 	"/>
	<polygon class="st2" points="471,55.1 469.7,55.1 469.7,62.5 474.9,62.5 474.9,61.3 471,61.3 	"/>
	<polygon class="st2" points="477.3,59.2 480.8,59.2 480.8,58 477.3,58 477.3,56.2 481.3,56.2 481.3,55.1 476,55.1 476,62.5 
		481.4,62.5 481.4,61.3 477.3,61.3 	"/>
	<path class="st2" d="M485.7,55.1h-2.9v7.3h2.9c2.3,0,3.6-1.6,3.6-3.7C489.4,56.7,488.1,55.1,485.7,55.1z M485.7,61.3h-1.6v-5h1.6
		c1.5,0,2.3,1,2.3,2.5S487.2,61.3,485.7,61.3z"/>
</g>
<g id="Rechteck_31">
	<g>
		<rect x="11" y="472" class="st0" width="618" height="1"/>
	</g>
</g>
</svg>
