<?xml version="1.0" encoding="utf-8"?>
<!-- Generator: Adobe Illustrator 19.1.0, SVG Export Plug-In . SVG Version: 6.00 Build 0)  -->
<svg version="1.1" xmlns="http://www.w3.org/2000/svg" xmlns:xlink="http://www.w3.org/1999/xlink" x="0px" y="0px" width="385.6px"
	 height="192.8px" viewBox="0 0 385.6 192.8" style="enable-background:new 0 0 385.6 192.8;" xml:space="preserve">
<g id="icons_1_">
	<g id="short_url_1_">
		<g style="opacity:5.000000e-02;">
			<path d="M14.1,12.1v24l10-9l10,9v-24H14.1z M33.1,33.8l-8.3-7.5l-0.7-0.6l-0.7,0.6l-8.3,7.5V13.1h18V33.8z"/>
			<rect x="18.1" y="16.1" width="12" height="1"/>
		</g>
	</g>
	<g id="mdl_1_">
		<path style="opacity:5.000000e-02;" d="M75.3,17.6l9-7h-24v14v0v13h1v-13h23L75.3,17.6z M61.3,11.6h20.1l-6.7,5.2l-1,0.8l1,0.8
			l6.7,5.2H61.3V11.6z"/>
	</g>
	<g id="qr_code" style="opacity:5.000000e-02;">
		<g>
			<path d="M132,35.6v-1h-1v1H132z M132,33.6v-1h-1v1H132z M125,35.6h1v-1h-1V35.6z M123,35.6h1v-1h-1V35.6z M132,31.6v-1h-1v1H132z
				 M127,35.6h1v-1h-1V35.6z M129,35.6h1v-1h-1V35.6z M109,35.6h11v-11h-11V35.6z M110,25.6h9v9h-9V25.6z M111,21.6h7v-7h-7V21.6z
				 M112,15.6h5v5h-5V15.6z M109,23.6h11v-11h-11V23.6z M110,13.6h9v9h-9V13.6z M121,35.6h1v-1h-1V35.6z M132,29.6v-1h-1v1H132z
				 M132,27.6v-1h-1v1H132z M111,33.6h7v-7h-7V33.6z M112,27.6h5v5h-5V27.6z M128,24.6h-1v1h1V24.6z M130,26.6h1v-1h-1V26.6z
				 M130,26.6h-1v-1h-1v1h-1v-1h-1v1h-1v-1h-1v1h-1v1h-1v1h1v1h-1v1h1v1h-1v1h1v1h1v1h1v-1h1v1h1v-1h1v1h1v-1h1v-1h1v-1h-1v-1h1v-1
				h-1v-1h1v-1h-1V26.6z M129,32.6h-5v-5h5V32.6z M130,34.6h1v-1h-1V34.6z M122,33.6v1h1v-1H122z M130,14.6h-7v7h7V14.6z M129,20.6
				h-5v-5h5V20.6z M131,25.6h1v-1h-1V25.6z M121,12.6v11h11v-11H121z M131,22.6h-9v-9h9V22.6z M123,25.6h-1v1h1V25.6z M130,24.6h-1
				v1h1V24.6z M121,28.6v1h1v-1H121z M121,24.6v1h1v-1H121z M121,32.6v1h1v-1H121z M121,30.6v1h1v-1H121z M121,26.6v1h1v-1H121z
				 M126,24.6h-1v1h1V24.6z M124,24.6h-1v1h1V24.6z"/>
		</g>
	</g>
	<g id="instore_reach_1_">
		<path style="opacity:5.000000e-02;" d="M168.7,26.9c1.7,0,3,1.3,3,3s-1.3,3-3,3s-3-1.3-3-3S167,26.9,168.7,26.9 M168.7,25.9
			c-2.2,0-4,1.8-4,4c0,2.2,1.8,4,4,4c2.2,0,4-1.8,4-4C172.7,27.7,170.9,25.9,168.7,25.9L168.7,25.9z M168.7,17.8
			c-5.4,0-10,3.6-11.5,8.5c0.3,0.2,0.6,0.4,0.9,0.5c1.3-4.6,5.6-8,10.6-8c5.1,0,9.4,3.5,10.7,8.2c0.3-0.2,0.6-0.4,0.9-0.5
			C178.7,21.5,174.1,17.8,168.7,17.8z M168.7,21.4c-4.1,0-7.6,3-8.3,6.9c0.3,0.2,0.6,0.4,0.9,0.6c0.5-3.6,3.6-6.4,7.4-6.4
			c3.8,0,6.9,2.8,7.4,6.5c0.3-0.2,0.6-0.4,0.9-0.5C176.3,24.4,172.8,21.4,168.7,21.4z M154.9,25c0-0.1,0-0.1,0.1-0.2
			c2.1-5.7,7.6-9.5,13.7-9.5c6.2,0,11.7,3.9,13.7,9.7c0,0.1,0,0.1,0.1,0.2c0.3-0.2,0.6-0.4,0.9-0.5c0,0,0,0,0,0
			c-2.2-6-7.9-10.3-14.7-10.3c-6.7,0-12.4,4.2-14.6,10.2c0,0,0,0,0,0C154.3,24.6,154.6,24.8,154.9,25z"/>
	</g>
	<g id="app_marketing" style="opacity:5.000000e-02;">
		<path d="M14.1,59.8v25h20v-25H14.1z M33.1,83.8h-18v-16h18V83.8z M33.1,66.8h-18v-6h18V66.8z M18.1,65.8c1.1,0,2-0.9,2-2
			c0-1.1-0.9-2-2-2s-2,0.9-2,2C16.1,64.9,17,65.8,18.1,65.8z M31.1,62.8h-9v2h9V62.8z"/>
	</g>
	<g id="analyze" style="opacity:5.000000e-02;">
		<path d="M62.8,61.8h-1v21h21v-1h-7v-8h-5v8h-1v-13h-5v13h-2V61.8L62.8,61.8z M65.8,81.8v-12h3v12H65.8L65.8,81.8z M71.8,81.8v-7h3
			v7H71.8L71.8,81.8z M81.8,64.8h-5v17h1v-16h3v16h1V64.8L81.8,64.8z"/>
	</g>
	<g id="share_2_">
		<path style="opacity:5.000000e-02;" d="M182.3,60.2l-27.3,7.9l11.8,3.8l0.5,12.4L182.3,60.2z M179.4,63.1l-11.3,18.2l-0.3-9.4
			L179.4,63.1z M178.8,62.3l-11.7,8.8l-8.9-2.9L178.8,62.3z"/>
	</g>
	<path id="A_x2F_B" style="opacity:5.000000e-02;" d="M129,59.8h-18v17l18-10V59.8z M128,66.2l-6.2,3.4l-2.6-6.3h-1l-3.3,8h0.9
		l1-2.4h3.8l0.5,1.2l-9,5V60.8h16V66.2z M120.2,68.1h-3.2l1.6-3.9L120.2,68.1z M121.8,72.4L121.8,72.4l-1.8,1v0l-8,4.4v7h18v-17
		L121.8,72.4z M120.8,74l1.6-0.9h0.7c1.1,0,1.7,0.4,1.7,1.2c0,0.8-0.6,1.4-1.6,1.4h-2.4V74z M120.8,76.5h2.7c1.1,0,1.7,0.7,1.7,1.5
		c0,0.9-0.6,1.5-1.7,1.5h-2.6V76.5z M129,83.8h-16v-5.4l7-3.9v5.8h3.5c1.8,0,2.6-1,2.6-2.3c0-1-0.5-1.7-1.4-2.1c0.6-0.3,1-0.9,1-1.7
		c0-1-0.7-1.7-1.9-1.8l5.2-2.9V83.8z"/>
</g>
<g id="icons_Kopie">
	<g id="short_url_Kopie">
		<g style="opacity:5.000000e-02;">
			<path d="M110.5,108.5v24l10-9l10,9v-24H110.5z M129.5,130.2l-8.3-7.5l-0.7-0.6l-0.7,0.6l-8.3,7.5v-20.8h18V130.2z"/>
			<rect x="114.5" y="112.5" width="12" height="1"/>
		</g>
	</g>
	<g id="mdl_Kopie">
		<path style="opacity:5.000000e-02;" d="M171.7,114l9-7h-24v14v0v13h1v-13h23L171.7,114z M157.7,108h20.1l-6.7,5.2l-1,0.8l1,0.8
			l6.7,5.2h-20.1V108z"/>
	</g>
	<g id="qr_code_2_" style="opacity:5.000000e-02;">
		<g>
			<path d="M35.6,132v-1h-1v1H35.6z M35.6,130v-1h-1v1H35.6z M35.6,126v-1h-1v1H35.6z M35.6,128v-1h-1v1H35.6z M32.6,132h1v-1h-1
				V132z M28.6,132h1v-1h-1V132z M30.6,132h1v-1h-1V132z M14.6,130h7v-7h-7V130z M15.6,124h5v5h-5V124z M24.6,109v11h11v-11H24.6z
				 M34.6,119h-9v-9h9V119z M12.6,132h11v-11h-11V132z M13.6,122h9v9h-9V122z M26.6,132h1v-1h-1V132z M12.6,120h11v-11h-11V120z
				 M13.6,110h9v9h-9V110z M35.6,124v-1h-1v1H35.6z M14.6,118h7v-7h-7V118z M15.6,112h5v5h-5V112z M33.6,111h-7v7h7V111z M32.6,117
				h-5v-5h5V117z M26.6,122h-1v1h1V122z M34.6,122h1v-1h-1V122z M33.6,121h-1v1h1V121z M24.6,132h1v-1h-1V132z M25.6,130v1h1v-1
				H25.6z M33.6,131h1v-1h-1V131z M33.6,123h-1v-1h-1v1h-1v-1h-1v1h-1v-1h-1v1h-1v1h-1v1h1v1h-1v1h1v1h-1v1h1v1h1v1h1v-1h1v1h1v-1h1
				v1h1v-1h1v-1h1v-1h-1v-1h1v-1h-1v-1h1v-1h-1V123z M32.6,129h-5v-5h5V129z M31.6,121h-1v1h1V121z M33.6,123h1v-1h-1V123z
				 M24.6,127v1h1v-1H24.6z M29.6,121h-1v1h1V121z M24.6,129v1h1v-1H24.6z M24.6,125v1h1v-1H24.6z M24.6,121v1h1v-1H24.6z M24.6,123
				v1h1v-1H24.6z M27.6,121h-1v1h1V121z"/>
		</g>
	</g>
	<g id="instore_reach_Kopie">
		<path style="opacity:5.000000e-02;" d="M72.3,123.3c1.7,0,3,1.3,3,3s-1.3,3-3,3s-3-1.3-3-3S70.6,123.3,72.3,123.3 M72.3,122.3
			c-2.2,0-4,1.8-4,4c0,2.2,1.8,4,4,4c2.2,0,4-1.8,4-4C76.3,124.1,74.5,122.3,72.3,122.3L72.3,122.3z M72.3,114.2
			c-5.4,0-10,3.6-11.5,8.5c0.3,0.2,0.6,0.4,0.9,0.5c1.3-4.6,5.6-8,10.6-8c5.1,0,9.4,3.5,10.7,8.2c0.3-0.2,0.6-0.4,0.9-0.5
			C82.4,117.9,77.7,114.2,72.3,114.2z M72.3,117.8c-4.1,0-7.6,3-8.3,6.9c0.3,0.2,0.6,0.4,0.9,0.6c0.5-3.6,3.6-6.4,7.4-6.4
			c3.8,0,6.9,2.8,7.4,6.5c0.3-0.2,0.6-0.4,0.9-0.5C79.9,120.8,76.4,117.8,72.3,117.8z M58.5,121.4c0-0.1,0-0.1,0.1-0.2
			c2.1-5.7,7.6-9.5,13.7-9.5c6.2,0,11.7,3.9,13.7,9.7c0,0.1,0,0.1,0.1,0.2c0.3-0.2,0.6-0.4,0.9-0.5c0,0,0,0,0,0
			c-2.2-6-7.9-10.3-14.7-10.3c-6.7,0-12.4,4.2-14.6,10.2c0,0,0,0,0,0C57.9,121,58.2,121.2,58.5,121.4z"/>
	</g>
	<g id="app_marketing_1_" style="opacity:5.000000e-02;">
		<path d="M110.5,156.2v25h20v-25H110.5z M129.5,180.2h-18v-16h18V180.2z M129.5,163.2h-18v-6h18V163.2z M114.5,162.2
			c1.1,0,2-0.9,2-2s-0.9-2-2-2s-2,0.9-2,2S113.4,162.2,114.5,162.2z M127.5,159.2h-9v2h9V159.2z"/>
	</g>
	<g id="analyze_1_" style="opacity:5.000000e-02;">
		<path d="M159.2,158.2h-1v21h21v-1h-7v-8h-5v8h-1v-13h-5v13h-2V158.2L159.2,158.2z M162.2,178.2v-12h3v12H162.2L162.2,178.2z
			 M168.2,178.2v-7h3v7H168.2L168.2,178.2z M178.2,161.2h-5v17h1v-16h3v16h1V161.2L178.2,161.2z"/>
	</g>
	<g id="share_Kopie">
		<path style="opacity:5.000000e-02;" d="M86,156.6l-27.3,7.9l11.8,3.8l0.5,12.4L86,156.6z M83,159.5l-11.3,18.2l-0.3-9.4L83,159.5z
			 M82.4,158.7l-11.7,8.8l-8.9-2.9L82.4,158.7z"/>
	</g>
	<path id="A_x2F_B_1_" style="opacity:5.000000e-02;" d="M32.6,156.2h-18v17l18-10V156.2z M31.6,162.6l-6.2,3.4l-2.6-6.3h-1l-3.3,8
		h0.9l1-2.4h3.8l0.5,1.2l-9,5v-14.3h16V162.6z M23.9,164.5h-3.2l1.6-3.9L23.9,164.5z M25.4,168.7L25.4,168.7l-1.8,1v0l-8,4.4v7h18
		v-17L25.4,168.7z M24.4,170.4l1.6-0.9h0.7c1.1,0,1.7,0.4,1.7,1.2c0,0.8-0.6,1.4-1.6,1.4h-2.4V170.4z M24.4,172.9h2.7
		c1.1,0,1.7,0.7,1.7,1.5c0,0.9-0.6,1.5-1.7,1.5h-2.6V172.9z M32.6,180.2h-16v-5.4l7-3.9v5.8H27c1.8,0,2.6-1,2.6-2.3
		c0-1-0.5-1.7-1.4-2.1c0.6-0.3,1-0.9,1-1.7c0-1-0.7-1.7-1.9-1.8l5.2-2.9V180.2z"/>
</g>
<g id="icons_Kopie_2">
	<g id="short_url_Kopie_2">
		<g style="opacity:5.000000e-02;">
			<path d="M207.1,12.1v24l10-9l10,9v-24H207.1z M226.1,33.8l-8.3-7.5l-0.7-0.6l-0.7,0.6l-8.3,7.5V13.1h18V33.8z"/>
			<rect x="211.1" y="16.1" width="12" height="1"/>
		</g>
	</g>
	<g id="mdl_Kopie_2">
		<path style="opacity:5.000000e-02;" d="M268.3,17.6l9-7h-24v14v0v13h1v-13h23L268.3,17.6z M254.3,11.6h20.1l-6.7,5.2l-1,0.8l1,0.8
			l6.7,5.2h-20.1V11.6z"/>
	</g>
	<g id="qr_code_6_" style="opacity:5.000000e-02;">
		<g>
			<path d="M325,31.6v-1h-1v1H325z M320,35.6h1v-1h-1V35.6z M325,29.6v-1h-1v1H325z M322,35.6h1v-1h-1V35.6z M325,33.6v-1h-1v1H325z
				 M325,27.6v-1h-1v1H325z M325,35.6v-1h-1v1H325z M304,21.6h7v-7h-7V21.6z M305,15.6h5v5h-5V15.6z M314,12.6v11h11v-11H314z
				 M324,22.6h-9v-9h9V22.6z M304,33.6h7v-7h-7V33.6z M305,27.6h5v5h-5V27.6z M323,34.6h1v-1h-1V34.6z M318,35.6h1v-1h-1V35.6z
				 M323,14.6h-7v7h7V14.6z M322,20.6h-5v-5h5V20.6z M302,23.6h11v-11h-11V23.6z M303,13.6h9v9h-9V13.6z M302,35.6h11v-11h-11V35.6z
				 M303,25.6h9v9h-9V25.6z M319,24.6h-1v1h1V24.6z M324,25.6h1v-1h-1V25.6z M321,24.6h-1v1h1V24.6z M323,24.6h-1v1h1V24.6z
				 M315,33.6v1h1v-1H315z M323,26.6h-1v-1h-1v1h-1v-1h-1v1h-1v-1h-1v1h-1v1h-1v1h1v1h-1v1h1v1h-1v1h1v1h1v1h1v-1h1v1h1v-1h1v1h1v-1
				h1v-1h1v-1h-1v-1h1v-1h-1v-1h1v-1h-1V26.6z M322,32.6h-5v-5h5V32.6z M316,25.6h-1v1h1V25.6z M323,26.6h1v-1h-1V26.6z M314,26.6v1
				h1v-1H314z M314,30.6v1h1v-1H314z M314,35.6h1v-1h-1V35.6z M314,28.6v1h1v-1H314z M314,32.6v1h1v-1H314z M316,35.6h1v-1h-1V35.6z
				 M314,24.6v1h1v-1H314z M317,24.6h-1v1h1V24.6z"/>
		</g>
	</g>
	<g id="instore_reach_Kopie_2">
		<path style="opacity:5.000000e-02;" d="M361.7,26.9c1.7,0,3,1.3,3,3s-1.3,3-3,3s-3-1.3-3-3S360,26.9,361.7,26.9 M361.7,25.9
			c-2.2,0-4,1.8-4,4c0,2.2,1.8,4,4,4c2.2,0,4-1.8,4-4C365.7,27.7,363.9,25.9,361.7,25.9L361.7,25.9z M361.7,17.8
			c-5.4,0-10,3.6-11.5,8.5c0.3,0.2,0.6,0.4,0.9,0.5c1.3-4.6,5.6-8,10.6-8c5.1,0,9.4,3.5,10.7,8.2c0.3-0.2,0.6-0.4,0.9-0.5
			C371.7,21.5,367.1,17.8,361.7,17.8z M361.7,21.4c-4.1,0-7.6,3-8.3,6.9c0.3,0.2,0.6,0.4,0.9,0.6c0.5-3.6,3.6-6.4,7.4-6.4
			c3.8,0,6.9,2.8,7.4,6.5c0.3-0.2,0.6-0.4,0.9-0.5C369.3,24.4,365.8,21.4,361.7,21.4z M347.9,25c0-0.1,0-0.1,0.1-0.2
			c2.1-5.7,7.6-9.5,13.7-9.5c6.2,0,11.7,3.9,13.7,9.7c0,0.1,0,0.1,0.1,0.2c0.3-0.2,0.6-0.4,0.9-0.5c0,0,0,0,0,0
			c-2.2-6-7.9-10.3-14.7-10.3c-6.7,0-12.4,4.2-14.6,10.2c0,0,0,0,0,0C347.3,24.6,347.6,24.8,347.9,25z"/>
	</g>
	<g id="app_marketing_3_" style="opacity:5.000000e-02;">
		<path d="M207.1,59.8v25h20v-25H207.1z M226.1,83.8h-18v-16h18V83.8z M226.1,66.8h-18v-6h18V66.8z M211.1,65.8c1.1,0,2-0.9,2-2
			c0-1.1-0.9-2-2-2s-2,0.9-2,2C209.1,64.9,210,65.8,211.1,65.8z M224.1,62.8h-9v2h9V62.8z"/>
	</g>
	<g id="analyze_3_" style="opacity:5.000000e-02;">
		<path d="M255.8,61.8h-1v21h21v-1h-7v-8h-5v8h-1v-13h-5v13h-2V61.8L255.8,61.8z M258.8,81.8v-12h3v12H258.8L258.8,81.8z
			 M264.8,81.8v-7h3v7H264.8L264.8,81.8z M274.8,64.8h-5v17h1v-16h3v16h1V64.8L274.8,64.8z"/>
	</g>
	<g id="share_Kopie_2">
		<path style="opacity:5.000000e-02;" d="M375.3,60.2l-27.3,7.9l11.8,3.8l0.5,12.4L375.3,60.2z M372.4,63.1l-11.3,18.2l-0.3-9.4
			L372.4,63.1z M371.8,62.3l-11.7,8.8l-8.9-2.9L371.8,62.3z"/>
	</g>
	<path id="A_x2F_B_3_" style="opacity:5.000000e-02;" d="M322,59.8h-18v17l18-10V59.8z M321,66.2l-6.2,3.4l-2.6-6.3h-1l-3.3,8h0.9
		l1-2.4h3.8l0.5,1.2l-9,5V60.8h16V66.2z M313.2,68.1h-3.2l1.6-3.9L313.2,68.1z M314.8,72.4L314.8,72.4l-1.8,1v0l-8,4.4v7h18v-17
		L314.8,72.4z M313.8,74l1.6-0.9h0.7c1.1,0,1.7,0.4,1.7,1.2c0,0.8-0.6,1.4-1.6,1.4h-2.4V74z M313.8,76.5h2.7c1.1,0,1.7,0.7,1.7,1.5
		c0,0.9-0.6,1.5-1.7,1.5h-2.6V76.5z M322,83.8h-16v-5.4l7-3.9v5.8h3.5c1.8,0,2.6-1,2.6-2.3c0-1-0.5-1.7-1.4-2.1c0.6-0.3,1-0.9,1-1.7
		c0-1-0.7-1.7-1.9-1.8l5.2-2.9V83.8z"/>
</g>
<g id="icons_Kopie_Kopie">
	<g id="short_url_Kopie_Kopie">
		<g style="opacity:5.000000e-02;">
			<path d="M303.5,108.5v24l10-9l10,9v-24H303.5z M322.5,130.2l-8.3-7.5l-0.7-0.6l-0.7,0.6l-8.3,7.5v-20.8h18V130.2z"/>
			<rect x="307.5" y="112.5" width="12" height="1"/>
		</g>
	</g>
	<g id="mdl_Kopie_Kopie">
		<path style="opacity:5.000000e-02;" d="M364.7,114l9-7h-24v14v0v13h1v-13h23L364.7,114z M350.7,108h20.1l-6.7,5.2l-1,0.8l1,0.8
			l6.7,5.2h-20.1V108z"/>
	</g>
	<g id="qr_code_7_" style="opacity:5.000000e-02;">
		<g>
			<path d="M228.6,130v-1h-1v1H228.6z M228.6,128v-1h-1v1H228.6z M228.6,126v-1h-1v1H228.6z M205.6,120h11v-11h-11V120z M206.6,110
				h9v9h-9V110z M228.6,124v-1h-1v1H228.6z M223.6,132h1v-1h-1V132z M221.6,132h1v-1h-1V132z M225.6,132h1v-1h-1V132z M228.6,132v-1
				h-1v1H228.6z M207.6,130h7v-7h-7V130z M208.6,124h5v5h-5V124z M226.6,131h1v-1h-1V131z M217.6,109v11h11v-11H217.6z M227.6,119
				h-9v-9h9V119z M226.6,123h-1v-1h-1v1h-1v-1h-1v1h-1v-1h-1v1h-1v1h-1v1h1v1h-1v1h1v1h-1v1h1v1h1v1h1v-1h1v1h1v-1h1v1h1v-1h1v-1h1
				v-1h-1v-1h1v-1h-1v-1h1v-1h-1V123z M225.6,129h-5v-5h5V129z M205.6,132h11v-11h-11V132z M206.6,122h9v9h-9V122z M207.6,118h7v-7
				h-7V118z M208.6,112h5v5h-5V112z M226.6,111h-7v7h7V111z M225.6,117h-5v-5h5V117z M224.6,121h-1v1h1V121z M219.6,122h-1v1h1V122z
				 M226.6,121h-1v1h1V121z M222.6,121h-1v1h1V121z M227.6,122h1v-1h-1V122z M226.6,123h1v-1h-1V123z M218.6,130v1h1v-1H218.6z
				 M220.6,121h-1v1h1V121z M217.6,121v1h1v-1H217.6z M217.6,129v1h1v-1H217.6z M217.6,132h1v-1h-1V132z M217.6,127v1h1v-1H217.6z
				 M219.6,132h1v-1h-1V132z M217.6,125v1h1v-1H217.6z M217.6,123v1h1v-1H217.6z"/>
		</g>
	</g>
	<g id="instore_reach_Kopie_Kopie">
		<path style="opacity:5.000000e-02;" d="M265.3,123.3c1.7,0,3,1.3,3,3s-1.3,3-3,3s-3-1.3-3-3S263.6,123.3,265.3,123.3 M265.3,122.3
			c-2.2,0-4,1.8-4,4c0,2.2,1.8,4,4,4c2.2,0,4-1.8,4-4C269.3,124.1,267.5,122.3,265.3,122.3L265.3,122.3z M265.3,114.2
			c-5.4,0-10,3.6-11.5,8.5c0.3,0.2,0.6,0.4,0.9,0.5c1.3-4.6,5.6-8,10.6-8c5.1,0,9.4,3.5,10.7,8.2c0.3-0.2,0.6-0.4,0.9-0.5
			C275.4,117.9,270.7,114.2,265.3,114.2z M265.3,117.8c-4.1,0-7.6,3-8.3,6.9c0.3,0.2,0.6,0.4,0.9,0.6c0.5-3.6,3.6-6.4,7.4-6.4
			c3.8,0,6.9,2.8,7.4,6.5c0.3-0.2,0.6-0.4,0.9-0.5C272.9,120.8,269.4,117.8,265.3,117.8z M251.5,121.4c0-0.1,0-0.1,0.1-0.2
			c2.1-5.7,7.6-9.5,13.7-9.5c6.2,0,11.7,3.9,13.7,9.7c0,0.1,0,0.1,0.1,0.2c0.3-0.2,0.6-0.4,0.9-0.5c0,0,0,0,0,0
			c-2.2-6-7.9-10.3-14.7-10.3c-6.7,0-12.4,4.2-14.6,10.2c0,0,0,0,0,0C250.9,121,251.2,121.2,251.5,121.4z"/>
	</g>
	<g id="app_marketing_2_" style="opacity:5.000000e-02;">
		<path d="M303.5,156.2v25h20v-25H303.5z M322.5,180.2h-18v-16h18V180.2z M322.5,163.2h-18v-6h18V163.2z M307.5,162.2
			c1.1,0,2-0.9,2-2s-0.9-2-2-2s-2,0.9-2,2S306.4,162.2,307.5,162.2z M320.5,159.2h-9v2h9V159.2z"/>
	</g>
	<g id="analyze_2_" style="opacity:5.000000e-02;">
		<path d="M352.2,158.2h-1v21h21v-1h-7v-8h-5v8h-1v-13h-5v13h-2V158.2L352.2,158.2z M355.2,178.2v-12h3v12H355.2L355.2,178.2z
			 M361.2,178.2v-7h3v7H361.2L361.2,178.2z M371.2,161.2h-5v17h1v-16h3v16h1V161.2L371.2,161.2z"/>
	</g>
	<g id="share_Kopie_Kopie">
		<path style="opacity:5.000000e-02;" d="M279,156.6l-27.3,7.9l11.8,3.8l0.5,12.4L279,156.6z M276,159.5l-11.3,18.2l-0.3-9.4
			L276,159.5z M275.4,158.7l-11.7,8.8l-8.9-2.9L275.4,158.7z"/>
	</g>
	<path id="A_x2F_B_2_" style="opacity:5.000000e-02;" d="M225.6,156.2h-18v17l18-10V156.2z M224.6,162.6l-6.2,3.4l-2.6-6.3h-1
		l-3.3,8h0.9l1-2.4h3.8l0.5,1.2l-9,5v-14.3h16V162.6z M216.9,164.5h-3.2l1.6-3.9L216.9,164.5z M218.4,168.7L218.4,168.7l-1.8,1v0
		l-8,4.4v7h18v-17L218.4,168.7z M217.4,170.4l1.6-0.9h0.7c1.1,0,1.7,0.4,1.7,1.2c0,0.8-0.6,1.4-1.6,1.4h-2.4V170.4z M217.4,172.9
		h2.7c1.1,0,1.7,0.7,1.7,1.5c0,0.9-0.6,1.5-1.7,1.5h-2.6V172.9z M225.6,180.2h-16v-5.4l7-3.9v5.8h3.5c1.8,0,2.6-1,2.6-2.3
		c0-1-0.5-1.7-1.4-2.1c0.6-0.3,1-0.9,1-1.7c0-1-0.7-1.7-1.9-1.8l5.2-2.9V180.2z"/>
</g>
<g id="grid" style="display:none;">
	<rect x="0" style="display:inline;opacity:0.5;fill:#DD14D9;" width="48.2" height="48.2"/>
	<rect x="48.2" style="display:inline;opacity:0.7;fill:#DD14D9;" width="48.2" height="48.2"/>
	<rect x="96.4" style="display:inline;opacity:0.5;fill:#DD14D9;" width="48.2" height="48.2"/>
	<rect x="144.6" style="display:inline;opacity:0.7;fill:#DD14D9;" width="48.2" height="48.2"/>
	<rect x="192.8" style="display:inline;opacity:0.5;fill:#DD14D9;" width="48.2" height="48.2"/>
	<rect x="240.9" style="display:inline;opacity:0.7;fill:#DD14D9;" width="48.2" height="48.2"/>
	<rect x="289.2" style="display:inline;opacity:0.5;fill:#DD14D9;" width="48.2" height="48.2"/>
	<rect x="337.3" style="display:inline;opacity:0.7;fill:#DD14D9;" width="48.2" height="48.2"/>
	<rect x="337.3" y="48.2" style="display:inline;opacity:0.5;fill:#DD14D9;" width="48.2" height="48.2"/>
	<rect y="48.2" style="display:inline;opacity:0.7;fill:#DD14D9;" width="48.2" height="48.2"/>
	<rect x="48.2" y="48.2" style="display:inline;opacity:0.5;fill:#DD14D9;" width="48.2" height="48.2"/>
	<rect x="96.4" y="48.2" style="display:inline;opacity:0.7;fill:#DD14D9;" width="48.2" height="48.2"/>
	<rect x="144.6" y="48.2" style="display:inline;opacity:0.5;fill:#DD14D9;" width="48.2" height="48.2"/>
	<rect x="192.8" y="48.2" style="display:inline;opacity:0.7;fill:#DD14D9;" width="48.2" height="48.2"/>
	<rect x="241" y="48.2" style="display:inline;opacity:0.5;fill:#DD14D9;" width="48.2" height="48.2"/>
	<rect x="289.2" y="48.2" style="display:inline;opacity:0.7;fill:#DD14D9;" width="48.2" height="48.2"/>
	<rect x="0" y="96.4" style="display:inline;opacity:0.5;fill:#DD14D9;" width="48.2" height="48.2"/>
	<rect x="48.2" y="96.4" style="display:inline;opacity:0.7;fill:#DD14D9;" width="48.2" height="48.2"/>
	<rect x="96.4" y="96.4" style="display:inline;opacity:0.5;fill:#DD14D9;" width="48.2" height="48.2"/>
	<rect x="144.6" y="96.4" style="display:inline;opacity:0.7;fill:#DD14D9;" width="48.2" height="48.2"/>
	<rect x="192.8" y="96.4" style="display:inline;opacity:0.5;fill:#DD14D9;" width="48.2" height="48.2"/>
	<rect x="241" y="96.4" style="display:inline;opacity:0.7;fill:#DD14D9;" width="48.2" height="48.2"/>
	<rect x="289.2" y="96.4" style="display:inline;opacity:0.5;fill:#DD14D9;" width="48.2" height="48.2"/>
	<rect x="337.4" y="96.4" style="display:inline;opacity:0.7;fill:#DD14D9;" width="48.2" height="48.2"/>
	<rect x="337.4" y="144.6" style="display:inline;opacity:0.5;fill:#DD14D9;" width="48.2" height="48.2"/>
	<rect x="0" y="144.6" style="display:inline;opacity:0.7;fill:#DD14D9;" width="48.2" height="48.2"/>
	<rect x="48.2" y="144.6" style="display:inline;opacity:0.5;fill:#DD14D9;" width="48.2" height="48.2"/>
	<rect x="96.4" y="144.6" style="display:inline;opacity:0.7;fill:#DD14D9;" width="48.2" height="48.2"/>
	<rect x="144.6" y="144.6" style="display:inline;opacity:0.5;fill:#DD14D9;" width="48.2" height="48.2"/>
	<rect x="192.8" y="144.6" style="display:inline;opacity:0.7;fill:#DD14D9;" width="48.2" height="48.2"/>
	<rect x="241" y="144.6" style="display:inline;opacity:0.5;fill:#DD14D9;" width="48.2" height="48.2"/>
	<rect x="289.2" y="144.6" style="display:inline;opacity:0.7;fill:#DD14D9;" width="48.2" height="48.2"/>
</g>
</svg>
