<?xml version="1.0" encoding="utf-8"?>
<!-- Generator: Adobe Illustrator 19.1.0, SVG Export Plug-In . SVG Version: 6.00 Build 0)  -->
<svg version="1.0" id="Visual_1_" xmlns="http://www.w3.org/2000/svg" xmlns:xlink="http://www.w3.org/1999/xlink" x="0px" y="0px"
	 width="1106px" height="442px" viewBox="0 0 1106 442" style="enable-background:new 0 0 1106 442;" xml:space="preserve">
<style type="text/css">
	.st0{fill:#F6F6F6;}
	.st1{fill:#E1E0E1;}
	.st2{fill:#8E8E93;}
	.st3{fill:#FCFCFC;}
	.st4{fill:#222222;}
	.st5{fill:#DDDDDD;}
	.st6{fill:#89B6CD;}
	.st7{fill:#999999;}
	.st8{fill:#CCCCCC;}
	.st9{fill:#8AB7CE;}
	.st10{fill:#FFFFFF;}
	.st11{fill:#F89878;}
</style>
<g id="Rechteck_11">
	<rect x="0" y="38" class="st0" width="1106" height="404"/>
</g>
<g id="Abgerundetes_Rechteck_13">
	<path class="st1" d="M1101,0H5C2.2,0,0,2.2,0,5v33h1106V5C1106,2.2,1103.8,0,1101,0z"/>
</g>
<g id="Ellipse_35">
	<circle class="st2" cx="19" cy="19" r="6"/>
</g>
<g id="Ellipse_35_1_">
	<circle class="st2" cx="39" cy="19" r="6"/>
</g>
<g id="Ellipse_35_2_">
	<circle class="st2" cx="58" cy="19" r="6"/>
</g>
<g id="Abgerundetes_Rechteck_14">
	<path class="st3" d="M775,8H331c-2.8,0-5,2.2-5,5v12c0,2.8,2.2,5,5,5h444c2.8,0,5-2.2,5-5V13C780,10.2,777.8,8,775,8z"/>
</g>
<g id="manager.shortcutmedia.com">
	<g>
		<path class="st4" d="M470.9,23v-6.3h1.3v0.9c0.5-0.7,1.2-1,2-1c0.9,0,1.6,0.4,1.8,1.2c0.6-0.8,1.3-1.2,2.2-1.2
			c1.4,0,2.1,0.9,2.1,2.3V23H479v-3.8c0-0.7-0.2-1.4-1.2-1.4c-0.9,0-1.5,0.6-1.5,1.7V23H475v-3.8c0-0.7-0.2-1.4-1.2-1.4
			c-0.9,0-1.5,0.6-1.5,1.7V23H470.9z"/>
		<path class="st4" d="M487.1,23.1c-0.6,0-1.1-0.3-1.3-0.9c-0.5,0.7-1.4,1-2.1,1c-1.3,0-2.2-0.7-2.2-1.9c0-1.6,1.4-1.8,2.5-1.9
			c0.9-0.1,1.6-0.2,1.6-0.8c0-0.6-0.7-0.8-1.3-0.8c-0.6,0-1.4,0.2-2,0.6l-0.5-1c0.8-0.5,1.6-0.8,2.6-0.8c1.5,0,2.5,0.6,2.5,2.1v2.9
			c0,0.4,0.1,0.6,0.4,0.6c0.1,0,0.3,0,0.3-0.1l0.1,0.9C487.7,23,487.3,23.1,487.1,23.1z M485.6,19.7c-0.4,0.5-0.9,0.5-1.6,0.6
			c-0.7,0.1-1.2,0.3-1.2,1c0,0.7,0.5,0.9,1.2,0.9c0.8,0,1.6-0.4,1.6-1.5V19.7z"/>
		<path class="st4" d="M488.9,23v-6.3h1.3v0.9c0.5-0.7,1.2-1.1,2.1-1.1c1.4,0,2.2,0.9,2.2,2.3V23h-1.3v-3.8c0-0.7-0.2-1.4-1.2-1.4
			c-0.9,0-1.7,0.7-1.7,1.7V23H488.9z"/>
		<path class="st4" d="M501.2,23.1c-0.6,0-1.1-0.3-1.3-0.9c-0.5,0.7-1.4,1-2.1,1c-1.3,0-2.2-0.7-2.2-1.9c0-1.6,1.4-1.8,2.5-1.9
			c0.9-0.1,1.6-0.2,1.6-0.8c0-0.6-0.7-0.8-1.3-0.8c-0.6,0-1.4,0.2-2,0.6l-0.5-1c0.8-0.5,1.6-0.8,2.6-0.8c1.5,0,2.5,0.6,2.5,2.1v2.9
			c0,0.4,0.1,0.6,0.4,0.6c0.1,0,0.3,0,0.3-0.1l0.1,0.9C501.8,23,501.5,23.1,501.2,23.1z M499.8,19.7c-0.4,0.5-0.9,0.5-1.6,0.6
			c-0.7,0.1-1.2,0.3-1.2,1c0,0.7,0.5,0.9,1.2,0.9c0.8,0,1.6-0.4,1.6-1.5V19.7z"/>
		<path class="st4" d="M508.3,24.2c-0.7,0.7-1.7,1-2.8,1c-1,0-1.9-0.2-2.7-0.7l0.6-1.1c0.5,0.4,1.3,0.6,2.1,0.6
			c1.2,0,2.1-0.5,2.1-1.8v-0.6c-0.5,0.7-1.3,1.1-2.2,1.1c-1.7,0-2.8-1.3-2.8-3c0-1.8,1.2-3.1,2.9-3.1c0.9,0,1.6,0.3,2.1,1.1v-0.9
			h1.3v5.2C509,22.9,508.9,23.6,508.3,24.2z M505.9,17.7c-1.2,0-1.8,0.9-1.8,1.9c0,1.1,0.6,1.9,1.8,1.9c1.2,0,1.8-0.9,1.8-1.9
			C507.7,18.6,507.1,17.7,505.9,17.7z"/>
		<path class="st4" d="M516.6,20.2h-4.8c0.1,1.2,0.8,1.8,1.9,1.8c0.7,0,1.4-0.3,1.8-0.8l0.9,0.8c-0.7,0.7-1.5,1.1-2.7,1.1
			c-2.1,0-3.3-1.4-3.3-3.3c0-1.9,1.2-3.3,3.2-3.3c1.9,0,3.1,1.4,3.1,3.2C516.6,19.9,516.6,20.1,516.6,20.2z M515.3,19.2
			c-0.1-1.1-0.8-1.6-1.7-1.6c-1,0-1.7,0.7-1.7,1.6H515.3z"/>
		<path class="st4" d="M521.5,18.1c-0.2-0.1-0.4-0.2-0.7-0.2c-0.8,0-1.5,0.7-1.5,1.9V23h-1.3v-6.3h1.3v1c0.4-0.7,1-1.1,1.8-1.1
			c0.3,0,0.7,0.1,0.8,0.2L521.5,18.1z"/>
		<path class="st4" d="M522.1,23v-1.5h1.5V23H522.1z"/>
		<path class="st4" d="M527.7,23.1c-1.3,0-2.3-0.5-2.9-1.4l0.9-0.7c0.5,0.7,1.2,1,2.1,1c0.8,0,1.3-0.3,1.3-0.8
			c0-0.6-0.6-0.7-1.6-0.9c-1.3-0.2-2.4-0.6-2.4-1.9c0-1.3,1.2-1.9,2.5-1.9c1.3,0,2.2,0.6,2.7,1.1l-0.8,0.8c-0.4-0.5-1.1-0.8-1.9-0.8
			c-0.6,0-1.2,0.2-1.2,0.7c0,0.6,0.7,0.7,1.5,0.8c1.3,0.2,2.5,0.6,2.5,1.9C530.4,22.3,529.4,23.1,527.7,23.1z"/>
		<path class="st4" d="M531.7,23v-8.6h1.3v3.2c0.5-0.7,1.2-1.1,2.1-1.1c1.4,0,2.2,0.9,2.2,2.3V23H536v-3.8c0-0.7-0.2-1.4-1.2-1.4
			c-0.9,0-1.7,0.7-1.7,1.7V23H531.7z"/>
		<path class="st4" d="M541.8,23.1c-2,0-3.2-1.4-3.2-3.3c0-1.9,1.2-3.3,3.2-3.3c2,0,3.2,1.4,3.2,3.3
			C544.9,21.8,543.7,23.1,541.8,23.1z M541.8,17.7c-1.1,0-1.8,0.9-1.8,2.1c0,1.2,0.6,2.1,1.8,2.1c1.1,0,1.8-0.9,1.8-2.1
			C543.5,18.6,542.9,17.7,541.8,17.7z"/>
		<path class="st4" d="M549.9,18.1c-0.2-0.1-0.4-0.2-0.7-0.2c-0.8,0-1.5,0.7-1.5,1.9V23h-1.3v-6.3h1.3v1c0.4-0.7,1-1.1,1.8-1.1
			c0.3,0,0.7,0.1,0.8,0.2L549.9,18.1z"/>
		<path class="st4" d="M555.1,22.7c-0.4,0.3-0.9,0.5-1.5,0.5c-0.8,0-1.4-0.3-1.7-0.8c-0.2-0.3-0.3-0.7-0.3-1.3v-3.3h-1.1v-1h1.1V15
			h1.3v1.7h1.9v1h-1.9V21c0,0.6,0.3,0.9,0.9,0.9c0.3,0,0.6-0.1,0.8-0.3L555.1,22.7z"/>
		<path class="st4" d="M561.5,21.8c-0.5,0.8-1.4,1.4-2.6,1.4c-1.9,0-3.1-1.4-3.1-3.3c0-1.9,1.2-3.3,3.1-3.3c1.2,0,2.1,0.6,2.6,1.4
			l-1,0.7c-0.3-0.6-0.9-0.9-1.5-0.9c-1.1,0-1.8,0.9-1.8,2.1c0,1.2,0.7,2.1,1.8,2.1c0.7,0,1.2-0.4,1.6-0.9L561.5,21.8z"/>
		<path class="st4" d="M568.2,16.7V23h-1.3v-0.9c-0.5,0.7-1.2,1.1-2.1,1.1c-1.4,0-2.2-0.9-2.2-2.3v-4.1h1.3v3.8
			c0,0.7,0.2,1.4,1.2,1.4c0.9,0,1.7-0.7,1.7-1.7v-3.5H568.2z"/>
		<path class="st4" d="M573.8,22.7c-0.4,0.3-0.9,0.5-1.5,0.5c-0.8,0-1.4-0.3-1.7-0.8c-0.2-0.3-0.3-0.7-0.3-1.3v-3.3h-1.1v-1h1.1V15
			h1.3v1.7h1.9v1h-1.9V21c0,0.6,0.3,0.9,0.9,0.9c0.3,0,0.6-0.1,0.8-0.3L573.8,22.7z"/>
		<path class="st4" d="M574.9,23v-6.3h1.3v0.9c0.5-0.7,1.2-1,2-1c0.9,0,1.6,0.4,1.8,1.2c0.6-0.8,1.3-1.2,2.2-1.2
			c1.4,0,2.1,0.9,2.1,2.3V23H583v-3.8c0-0.7-0.2-1.4-1.2-1.4c-0.9,0-1.5,0.6-1.5,1.7V23h-1.3v-3.8c0-0.7-0.2-1.4-1.2-1.4
			c-0.9,0-1.5,0.6-1.5,1.7V23H574.9z"/>
		<path class="st4" d="M591.8,20.2H587c0.1,1.2,0.8,1.8,1.9,1.8c0.7,0,1.4-0.3,1.8-0.8l0.9,0.8c-0.7,0.7-1.5,1.1-2.7,1.1
			c-2.1,0-3.3-1.4-3.3-3.3c0-1.9,1.2-3.3,3.2-3.3c1.9,0,3.1,1.4,3.1,3.2C591.8,19.9,591.8,20.1,591.8,20.2z M590.5,19.2
			c-0.1-1.1-0.8-1.6-1.7-1.6c-1,0-1.7,0.7-1.7,1.6H590.5z"/>
		<path class="st4" d="M597.8,23v-0.9c-0.6,0.8-1.3,1.1-2.1,1.1c-1.8,0-2.9-1.4-2.9-3.3c0-1.9,1.1-3.3,2.9-3.3
			c0.8,0,1.6,0.3,2.1,1.1v-3.2h1.3V23H597.8z M595.9,17.7c-1.2,0-1.8,0.9-1.8,2.1c0,1.2,0.6,2.1,1.8,2.1c1.2,0,1.8-0.9,1.8-2.1
			C597.8,18.7,597.1,17.7,595.9,17.7z"/>
		<path class="st4" d="M600.8,15.7v-1.2h1.3v1.2H600.8z M600.8,23v-6.3h1.3V23H600.8z"/>
		<path class="st4" d="M609,23.1c-0.6,0-1.1-0.3-1.3-0.9c-0.5,0.7-1.4,1-2.1,1c-1.3,0-2.2-0.7-2.2-1.9c0-1.6,1.4-1.8,2.5-1.9
			c0.9-0.1,1.6-0.2,1.6-0.8c0-0.6-0.7-0.8-1.3-0.8c-0.6,0-1.4,0.2-2,0.6l-0.5-1c0.8-0.5,1.6-0.8,2.6-0.8c1.5,0,2.5,0.6,2.5,2.1v2.9
			c0,0.4,0.1,0.6,0.4,0.6c0.1,0,0.3,0,0.3-0.1l0.1,0.9C609.6,23,609.2,23.1,609,23.1z M607.5,19.7c-0.4,0.5-0.9,0.5-1.6,0.6
			c-0.7,0.1-1.2,0.3-1.2,1c0,0.7,0.5,0.9,1.2,0.9c0.8,0,1.6-0.4,1.6-1.5V19.7z"/>
		<path class="st4" d="M610.7,23v-1.5h1.5V23H610.7z"/>
		<path class="st4" d="M619.3,21.8c-0.5,0.8-1.4,1.4-2.6,1.4c-1.9,0-3.1-1.4-3.1-3.3c0-1.9,1.2-3.3,3.1-3.3c1.2,0,2.1,0.6,2.6,1.4
			l-1,0.7c-0.3-0.6-0.9-0.9-1.5-0.9c-1.1,0-1.8,0.9-1.8,2.1c0,1.2,0.7,2.1,1.8,2.1c0.7,0,1.2-0.4,1.6-0.9L619.3,21.8z"/>
		<path class="st4" d="M623.2,23.1c-2,0-3.2-1.4-3.2-3.3c0-1.9,1.2-3.3,3.2-3.3s3.2,1.4,3.2,3.3C626.4,21.8,625.1,23.1,623.2,23.1z
			 M623.2,17.7c-1.1,0-1.8,0.9-1.8,2.1c0,1.2,0.6,2.1,1.8,2.1c1.1,0,1.8-0.9,1.8-2.1C625,18.6,624.3,17.7,623.2,17.7z"/>
		<path class="st4" d="M627.7,23v-6.3h1.3v0.9c0.5-0.7,1.2-1,2-1c0.9,0,1.6,0.4,1.8,1.2c0.6-0.8,1.3-1.2,2.2-1.2
			c1.4,0,2.1,0.9,2.1,2.3V23h-1.3v-3.8c0-0.7-0.2-1.4-1.2-1.4c-0.9,0-1.5,0.6-1.5,1.7V23h-1.3v-3.8c0-0.7-0.2-1.4-1.2-1.4
			c-0.9,0-1.5,0.6-1.5,1.7V23H627.7z"/>
	</g>
</g>
<g id="Manager_content_1_">
	<g id="Rechteck_68">
		<polygon class="st5" points="457,98 457,442 458,442 458,99 949,99 949,442 950,442 950,98 		"/>
	</g>
	<g id="Rechteck_55">
		<path class="st5" d="M417,98H152v1.2h265V98L417,98z M417,151.8H152v1.2h265V151.8L417,151.8z M417,206.8H152v1.2h265V206.8
			L417,206.8z M417,269.3H152v1.2h265V269.3L417,269.3z"/>
	</g>
	<g id="Analytics_Mobile_Deep_Linking_App_Marketing_1_">
		<g>
			<path class="st6" d="M217.1,131.4l-0.7-2.3h-3.8l-0.7,2.3H209l4-10.7h3.1l3.9,10.7H217.1z M214.4,122.9l-1.3,4.2h2.7L214.4,122.9
				z"/>
			<path class="st6" d="M221,131.4v-8.5h2.4v1c0.7-0.8,1.6-1.2,2.6-1.2c1.9,0,2.9,1.3,2.9,3.1v5.7h-2.4v-5.1c0-0.7-0.2-1.5-1.3-1.5
				c-0.9,0-1.7,0.6-1.7,1.7v4.9H221z"/>
			<path class="st6" d="M230.6,123.7c1.2-0.7,2.4-1,3.7-1c2.2,0,3.7,0.8,3.7,3v3.6c0,0.4,0.1,0.5,0.4,0.5c0.2,0,0.3,0,0.4-0.1
				l0.3,1.5c-0.3,0.2-0.9,0.3-1.3,0.3c-0.8,0-1.6-0.3-1.8-1.1c-0.6,0.8-1.7,1.2-2.7,1.2c-1.7,0-3-0.9-3-2.7c0-2.1,1.8-2.5,3.1-2.6
				c1.3-0.1,2.1-0.2,2.1-0.8c0-0.7-0.8-0.8-1.4-0.8c-0.9,0-1.9,0.3-2.7,0.8L230.6,123.7z M235.5,127.3c-0.4,0.4-0.9,0.4-1.6,0.6
				c-0.6,0.1-1.2,0.3-1.2,1c0,0.7,0.5,1,1.2,1c0.9,0,1.6-0.5,1.6-1.6V127.3z"/>
			<path class="st6" d="M240.2,131.4V120h2.4v11.4H240.2z"/>
			<path class="st6" d="M249.5,131.7c-0.7,1.8-1.5,2.7-3.2,2.7c-0.8,0-1.6-0.2-2.3-0.7l0.9-1.6c0.3,0.2,0.6,0.3,1,0.3
				c0.5,0,0.8-0.3,1.1-0.8l0.2-0.4l-3.5-8.3h2.8l2,5.3l1.8-5.3h2.6L249.5,131.7z"/>
			<path class="st6" d="M259.7,130.9c-0.6,0.4-1.4,0.8-2.4,0.8c-1.1,0-1.9-0.3-2.4-1.1c-0.4-0.5-0.5-1.1-0.5-2v-3.8h-1.3v-1.9h1.3
				v-2.1h2.5v2.1h2.4v1.9h-2.4v3.9c0,0.7,0.4,0.9,0.9,0.9c0.4,0,0.8-0.2,1-0.4L259.7,130.9z"/>
			<path class="st6" d="M260.9,121.8V120h2.4v1.8H260.9z M260.9,131.4v-8.5h2.4v8.5H260.9z"/>
			<path class="st6" d="M273,129.6c-0.7,1.2-1.9,2.1-3.8,2.1c-2.7,0-4.4-1.9-4.4-4.5c0-2.6,1.7-4.5,4.4-4.5c1.9,0,3.1,0.9,3.8,2.2
				l-1.9,1.1c-0.4-0.7-1-1.2-1.8-1.2c-1.2,0-1.9,1-1.9,2.4c0,1.4,0.8,2.4,2,2.4c0.9,0,1.4-0.5,1.8-1.2L273,129.6z"/>
			<path class="st6" d="M277.9,131.6c-1.9,0-3.4-0.7-4.3-2.1l1.7-1.1c0.6,0.9,1.8,1.3,2.8,1.3c0.9,0,1.4-0.3,1.4-0.7
				c0-0.6-0.8-0.7-1.8-0.9c-2-0.3-3.5-0.9-3.5-2.7c0-1.8,1.6-2.7,3.6-2.7c1.9,0,3.3,0.8,4.1,1.6l-1.5,1.3c-0.5-0.6-1.5-1-2.6-1
				c-0.7,0-1.2,0.2-1.2,0.6c0,0.5,0.8,0.6,1.9,0.8c2,0.3,3.5,0.9,3.5,2.7C281.9,130.5,280.4,131.6,277.9,131.6z"/>
			<path class="st7" d="M220.1,187.7v-9.1l-3.5,9.1h-1.3l-3.5-9.1v9.1h-1.4V177h2.2l3.4,8.8l3.4-8.8h2.2v10.7H220.1z"/>
			<path class="st7" d="M227.8,187.9c-2.5,0-4.1-1.8-4.1-4.3c0-2.5,1.6-4.4,4.1-4.4c2.5,0,4.1,1.8,4.1,4.4
				C231.9,186,230.4,187.9,227.8,187.9z M227.8,180.4c-1.7,0-2.6,1.3-2.6,3.1c0,1.7,1,3.1,2.6,3.1c1.7,0,2.6-1.4,2.6-3.1
				C230.5,181.8,229.5,180.4,227.8,180.4z"/>
			<path class="st7" d="M235.3,176.2v4.5c0.8-1.1,1.8-1.6,3-1.6c2.4,0,3.8,1.9,3.8,4.4c0,2.5-1.5,4.4-3.8,4.4c-1.1,0-2.2-0.4-3-1.6
				v1.4h-1.4v-11.4H235.3z M238,186.6c1.8,0,2.6-1.4,2.6-3.1c0-1.7-0.8-3.1-2.6-3.1s-2.7,1.4-2.7,3.1
				C235.3,185.2,236.2,186.6,238,186.6z"/>
			<path class="st7" d="M244,177.7v-1.5h1.4v1.5H244z M244,187.7v-8.3h1.4v8.3H244z"/>
			<path class="st7" d="M248,187.7v-11.4h1.4v11.4H248z"/>
			<path class="st7" d="M259.4,183.9h-6.5c0.1,1.7,1.2,2.7,2.8,2.7c1,0,1.8-0.4,2.5-1.1l0.9,0.9c-0.8,0.9-2,1.5-3.4,1.5
				c-2.7,0-4.3-1.9-4.3-4.3c0-2.4,1.5-4.4,4.1-4.4c2.4,0,4,1.8,4,4.1C259.4,183.6,259.4,183.7,259.4,183.9z M258,182.8
				c-0.1-1.6-1.2-2.4-2.5-2.4c-1.5,0-2.4,1-2.5,2.4H258z"/>
			<path class="st7" d="M265.8,187.7V177h4.1c3.3,0,5.2,2.3,5.2,5.3s-1.9,5.3-5.2,5.3H265.8z M269.9,186.3c2.3,0,3.6-1.6,3.6-4
				s-1.3-4-3.6-4h-2.6v7.9H269.9z"/>
			<path class="st7" d="M284.6,183.9h-6.5c0.1,1.7,1.2,2.7,2.8,2.7c1,0,1.8-0.4,2.5-1.1l0.9,0.9c-0.8,0.9-2,1.5-3.4,1.5
				c-2.7,0-4.3-1.9-4.3-4.3c0-2.4,1.5-4.4,4.1-4.4c2.4,0,4,1.8,4,4.1C284.6,183.6,284.6,183.7,284.6,183.9z M283.2,182.8
				c-0.1-1.6-1.2-2.4-2.5-2.4c-1.5,0-2.4,1-2.5,2.4H283.2z"/>
			<path class="st7" d="M294,183.9h-6.5c0.1,1.7,1.2,2.7,2.8,2.7c1,0,1.8-0.4,2.5-1.1l0.9,0.9c-0.8,0.9-2,1.5-3.4,1.5
				c-2.7,0-4.3-1.9-4.3-4.3c0-2.4,1.5-4.4,4.1-4.4c2.4,0,4,1.8,4,4.1C294,183.6,294,183.7,294,183.9z M292.6,182.8
				c-0.1-1.6-1.2-2.4-2.5-2.4c-1.5,0-2.4,1-2.5,2.4H292.6z"/>
			<path class="st7" d="M297.3,179.4v1.4c0.8-1.1,1.8-1.6,3-1.6c2.4,0,3.8,1.9,3.8,4.4c0,2.5-1.5,4.4-3.8,4.4c-1.1,0-2.2-0.4-3-1.6
				v4.1h-1.4v-11.1H297.3z M299.9,186.6c1.8,0,2.6-1.4,2.6-3.1c0-1.7-0.8-3.1-2.6-3.1s-2.7,1.4-2.7,3.1
				C297.3,185.2,298.2,186.6,299.9,186.6z"/>
			<path class="st7" d="M310.5,187.7V177h1.5v9.3h5.9v1.4H310.5z"/>
			<path class="st7" d="M319.4,177.7v-1.5h1.4v1.5H319.4z M319.4,187.7v-8.3h1.4v8.3H319.4z"/>
			<path class="st7" d="M323.3,187.7v-8.3h1.4v1.4c0.7-1,1.6-1.6,2.8-1.6c1.8,0,2.9,1.2,2.9,3.2v5.4H329v-5c0-1-0.3-2.2-1.9-2.2
				c-1.4,0-2.5,1-2.5,2.6v4.6H323.3z"/>
			<path class="st7" d="M338.4,179.4h1.8l-3.4,3.4l3.8,4.9h-1.8l-3-4l-1.6,1.6v2.4h-1.4v-11.4h1.4v7.4L338.4,179.4z"/>
			<path class="st7" d="M341.9,177.7v-1.5h1.4v1.5H341.9z M341.9,187.7v-8.3h1.4v8.3H341.9z"/>
			<path class="st7" d="M345.8,187.7v-8.3h1.4v1.4c0.7-1,1.6-1.6,2.8-1.6c1.8,0,2.9,1.2,2.9,3.2v5.4h-1.4v-5c0-1-0.3-2.2-1.9-2.2
				c-1.4,0-2.5,1-2.5,2.6v4.6H345.8z"/>
			<path class="st7" d="M363.1,186.3c0,1.3-0.2,2.2-0.9,3c-0.8,0.9-2.1,1.3-3.5,1.3c-1.4,0-2.5-0.3-3.5-1l0.7-1.1
				c0.7,0.5,1.7,0.9,2.8,0.9c1.7,0,3-0.8,3-2.7v-0.9c-0.7,1.1-1.9,1.6-3,1.6c-2.2,0-3.8-1.7-3.8-4c0-2.4,1.6-4.1,3.8-4.1
				c1.2,0,2.3,0.5,3,1.6v-1.4h1.4V186.3z M359,180.4c-1.8,0-2.6,1.3-2.6,2.8c0,1.5,0.9,2.8,2.6,2.8c1.7,0,2.7-1.3,2.7-2.8
				C361.7,181.7,360.7,180.4,359,180.4z"/>
			<path class="st7" d="M217.8,243.9l-1.1-3h-4.8l-1.2,3h-1.6l4.3-10.7h1.6l4.4,10.7H217.8z M214.3,234.7l-1.9,4.9h3.8L214.3,234.7z
				"/>
			<path class="st7" d="M222.3,235.6v1.4c0.8-1.1,1.8-1.6,3-1.6c2.4,0,3.8,1.9,3.8,4.4c0,2.5-1.5,4.4-3.8,4.4c-1.1,0-2.2-0.4-3-1.6
				v4.1h-1.4v-11.1H222.3z M225,242.8c1.8,0,2.6-1.4,2.6-3.1c0-1.7-0.8-3.1-2.6-3.1s-2.7,1.4-2.7,3.1
				C222.3,241.5,223.2,242.8,225,242.8z"/>
			<path class="st7" d="M232.4,235.6v1.4c0.8-1.1,1.8-1.6,3-1.6c2.4,0,3.8,1.9,3.8,4.4c0,2.5-1.5,4.4-3.8,4.4c-1.1,0-2.2-0.4-3-1.6
				v4.1H231v-11.1H232.4z M235.1,242.8c1.8,0,2.6-1.4,2.6-3.1c0-1.7-0.8-3.1-2.6-3.1s-2.7,1.4-2.7,3.1
				C232.4,241.5,233.4,242.8,235.1,242.8z"/>
			<path class="st7" d="M255.4,243.9v-9.1l-3.5,9.1h-1.3l-3.5-9.1v9.1h-1.4v-10.7h2.2l3.4,8.8l3.4-8.8h2.2v10.7H255.4z"/>
			<path class="st7" d="M267.2,243.9c-0.3,0.1-0.7,0.2-1,0.2c-0.8,0-1.5-0.4-1.6-1.3c-0.7,1.1-1.9,1.4-2.9,1.4
				c-1.7,0-2.8-0.9-2.8-2.5c0-1.9,1.7-2.3,2.9-2.5c1.3-0.2,2.6-0.2,2.6-1.2c0-0.9-1-1.2-1.9-1.2c-0.9,0-1.8,0.3-2.6,0.9l-0.6-1.1
				c1-0.7,2-1.1,3.3-1.1c1.9,0,3.2,0.8,3.2,2.7v3.9c0,0.6,0.2,0.9,0.7,0.9c0.2,0,0.4,0,0.5-0.1L267.2,243.9z M264.5,239.3
				c-0.6,0.7-1.4,0.7-2.4,0.9c-0.9,0.2-1.7,0.4-1.7,1.4c0,1,0.8,1.4,1.7,1.4c1.2,0,2.4-0.7,2.4-2.2V239.3z"/>
			<path class="st7" d="M273.1,237.1c-0.3-0.1-0.6-0.3-1-0.3c-1.1,0-2.1,1-2.1,2.8v4.3h-1.4v-8.3h1.4v1.4c0.6-0.9,1.4-1.6,2.4-1.6
				c0.5,0,0.9,0.1,1.1,0.3L273.1,237.1z"/>
			<path class="st7" d="M280.5,235.6h1.8l-3.4,3.4l3.8,4.9h-1.8l-3-4l-1.6,1.6v2.4h-1.4v-11.4h1.4v7.4L280.5,235.6z"/>
			<path class="st7" d="M291.1,240.1h-6.5c0.1,1.7,1.2,2.7,2.8,2.7c1,0,1.8-0.4,2.5-1.1l0.9,0.9c-0.8,0.9-2,1.5-3.4,1.5
				c-2.7,0-4.3-1.9-4.3-4.3c0-2.4,1.5-4.4,4.1-4.4c2.4,0,4,1.8,4,4.1C291.2,239.8,291.2,240,291.1,240.1z M289.7,239
				c-0.1-1.6-1.2-2.4-2.5-2.4c-1.5,0-2.4,1-2.5,2.4H289.7z"/>
			<path class="st7" d="M297.9,243.6c-0.5,0.4-1.1,0.6-1.8,0.6c-1,0-1.7-0.3-2.2-1.1c-0.3-0.4-0.4-0.9-0.4-1.6v-4.7h-1.4v-1.2h1.4
				v-2.3h1.4v2.3h2.7v1.2h-2.7v4.7c0,1,0.4,1.4,1.3,1.4c0.5,0,0.8-0.2,1.1-0.4L297.9,243.6z"/>
			<path class="st7" d="M299.4,234v-1.5h1.4v1.5H299.4z M299.4,243.9v-8.3h1.4v8.3H299.4z"/>
			<path class="st7" d="M303.2,243.9v-8.3h1.4v1.4c0.7-1,1.6-1.6,2.8-1.6c1.8,0,2.9,1.2,2.9,3.2v5.4H309v-5c0-1-0.3-2.2-1.9-2.2
				c-1.4,0-2.5,1-2.5,2.6v4.6H303.2z"/>
			<path class="st7" d="M320.5,242.6c0,1.3-0.2,2.2-0.9,3c-0.8,0.9-2.1,1.3-3.5,1.3c-1.4,0-2.5-0.3-3.5-1l0.7-1.1
				c0.7,0.5,1.7,0.9,2.8,0.9c1.7,0,3-0.8,3-2.7V242c-0.7,1.1-1.9,1.6-3,1.6c-2.2,0-3.8-1.7-3.8-4c0-2.4,1.6-4.1,3.8-4.1
				c1.2,0,2.3,0.5,3,1.6v-1.4h1.4V242.6z M316.4,236.7c-1.8,0-2.6,1.3-2.6,2.8c0,1.5,0.9,2.8,2.6,2.8c1.7,0,2.7-1.3,2.7-2.8
				C319.1,237.9,318.2,236.7,316.4,236.7z"/>
		</g>
	</g>
	<g id="Form_3">
		<path class="st8" d="M189,169h-17v23h1v-13h16l-6-5L189,169z M186.1,178H173v-8h13.1l-3.7,3.2l-1,0.8l1,0.8L186.1,178z"/>
	</g>
	<g id="Form_1">
		<path class="st8" d="M187,230h-9v2h9V230z M174,233c1.1,0,2-0.9,2-2c0-1.1-0.9-2-2-2c-1.1,0-2,0.9-2,2
			C172,232.1,172.9,233,174,233z M170,227v25h20v-25H170z M189,251h-18v-16h18V251z M189,234h-18v-6h18V234z"/>
	</g>
	<g id="Form_2">
		<path class="st9" d="M188,118h3v16h1v-17h-5v17h1V118z M186,134v-8h-5v8h-1v-13h-5v13h-2v-20h-1v21h21v-1H186z M179,134h-3v-12h3
			V134z M185,134h-3v-7h3V134z"/>
	</g>
	<g id="Gruppe_3_1_">
		<g id="Abgerundetes_Rechteck_15">
			<path class="st5" d="M414,286h-49c-2.2,0-4,1.8-4,4v15c0,2.2,1.8,4,4,4h49c2.2,0,4-1.8,4-4v-15C418,287.8,416.2,286,414,286z"/>
		</g>
		<g id="EDIT">
			<g>
				<path class="st10" d="M376.2,302v-8.5h6v1.1h-4.8v2.4h4.2v1h-4.2v2.9h5v1.1H376.2z"/>
				<path class="st10" d="M384.1,302v-8.5h3.3c2.6,0,4.1,1.8,4.1,4.3c0,2.4-1.5,4.3-4.1,4.3H384.1z M387.4,300.9
					c1.9,0,2.9-1.3,2.9-3.2c0-1.9-1-3.2-2.9-3.2h-2.1v6.3H387.4z"/>
				<path class="st10" d="M393.3,302v-8.5h1.2v8.5H393.3z"/>
				<path class="st10" d="M400.1,294.6v7.4h-1.2v-7.4H396v-1.1h7v1.1H400.1z"/>
			</g>
		</g>
	</g>
	<g id="Inner_1_">
		<g id="B_Graph_3_">
			<g id="Rechteck_66">
				<polygon class="st11" points="519,410 519,326 518,326 518,411 661,411 661,410 				"/>
			</g>
			<g id="Rechteck_65">
				<path class="st11" d="M660,365v45h-8v-45H660 M643,375v35h-8v-35H643 M571,378v32h-7v-32H571 M589,384v26h-8v-26H589 M536,392
					v18h-8v-18H536 M625,392v18h-8v-18H625 M608,392v18h-8v-18H608 M554,392v18h-8v-18H554 M661,364h-10v47h10V364L661,364z
					 M644,374h-10v37h10V374L644,374z M572,377h-9v34h9V377L572,377z M590,383h-10v28h10V383L590,383z M537,391h-10v20h10V391
					L537,391z M626,391h-10v20h10V391L626,391z M609,391h-10v20h10V391L609,391z M555,391h-10v20h10V391L555,391z"/>
			</g>
			<g id="Last_Month">
				<g>
					<path class="st7" d="M516.4,288v-10h1.4v8.7h5.5v1.3H516.4z"/>
					<path class="st7" d="M531.8,288l-1.1-2.8h-4.5l-1.1,2.8h-1.5l4.1-10h1.5l4.1,10H531.8z M528.5,279.4l-1.8,4.6h3.6L528.5,279.4z
						"/>
					<path class="st7" d="M541.7,279.6l-1.1,0.8c-0.6-0.8-1.6-1.3-2.7-1.3c-1.1,0-2,0.4-2,1.5c0,1.1,1,1.3,2.3,1.6
						c1.9,0.5,3.7,1,3.7,3c0,1.8-1.5,3.1-3.8,3.1c-1.9,0-3.3-0.8-4.1-2.1l1.2-0.7c0.7,1.1,1.8,1.6,3,1.6c1.4,0,2.3-0.6,2.3-1.7
						c0-1.2-1.1-1.4-2.7-1.8c-1.7-0.4-3.3-0.9-3.3-2.8c0-1.8,1.5-2.8,3.5-2.8C539.5,277.8,540.9,278.4,541.7,279.6z"/>
					<path class="st7" d="M547.8,279.3v8.7h-1.4v-8.7H543V278h8.2v1.3H547.8z"/>
					<path class="st7" d="M566.1,288v-8.5l-3.3,8.5h-1.2l-3.3-8.5v8.5H557v-10h2.1l3.2,8.2l3.2-8.2h2.1v10H566.1z"/>
					<path class="st7" d="M574.4,288.2c-3,0-4.9-2.2-4.9-5.2c0-2.9,1.9-5.2,4.9-5.2c3,0,4.9,2.2,4.9,5.2
						C579.3,285.9,577.4,288.2,574.4,288.2z M574.4,279.2c-2.1,0-3.4,1.6-3.4,3.9c0,2.3,1.3,3.9,3.4,3.9c2.1,0,3.4-1.6,3.4-3.9
						C577.8,280.7,576.5,279.2,574.4,279.2z"/>
					<path class="st7" d="M587.9,288l-5.2-8.2v8.2h-1.4v-10h1.8l5.1,8v-8h1.4v10H587.9z"/>
					<path class="st7" d="M596.1,279.3v8.7h-1.4v-8.7h-3.4V278h8.2v1.3H596.1z"/>
					<path class="st7" d="M608.1,288v-4.6h-5.4v4.6h-1.4v-10h1.4v4.1h5.4V278h1.4v10H608.1z"/>
				</g>
			</g>
		</g>
		<g id="B_Graph_2_">
			<g id="Rechteck_66_1_">
				<polygon class="st11" points="747,410 747,326 746,326 746,411 889,411 889,410 				"/>
			</g>
			<g id="Rechteck_65_1_">
				<path class="st11" d="M888,335v75h-8v-75H888 M871,351v59h-8v-59H871 M836,367v43h-8v-43H836 M782,367v43h-8v-43H782 M853,371
					v39h-8v-39H853 M799,371v39h-7v-39H799 M763,373v37h-8v-37H763 M817,379v31h-8v-31H817 M889,334h-10v77h10V334L889,334z
					 M872,350h-10v61h10V350L872,350z M837,366h-10v45h10V366L837,366z M783,366h-10v45h10V366L783,366z M854,370h-10v41h10V370
					L854,370z M800,370h-9v41h9V370L800,370z M764,372h-10v39h10V372L764,372z M818,378h-10v33h10V378L818,378z"/>
			</g>
			<g id="This_Month">
				<g>
					<path class="st7" d="M748.7,279.3v8.7h-1.4v-8.7h-3.4V278h8.2v1.3H748.7z"/>
					<path class="st7" d="M760.7,288v-4.6h-5.4v4.6h-1.4v-10h1.4v4.1h5.4V278h1.4v10H760.7z"/>
					<path class="st7" d="M764.8,288v-10h1.4v10H764.8z"/>
					<path class="st7" d="M775.7,279.6l-1.1,0.8c-0.6-0.8-1.6-1.3-2.7-1.3c-1,0-2,0.4-2,1.5c0,1.1,1,1.3,2.3,1.6
						c1.9,0.5,3.7,1,3.7,3c0,1.8-1.5,3.1-3.8,3.1c-1.9,0-3.3-0.8-4.1-2.1l1.2-0.7c0.7,1.1,1.8,1.6,3,1.6c1.4,0,2.3-0.6,2.3-1.7
						c0-1.2-1.1-1.4-2.7-1.8c-1.7-0.4-3.3-0.9-3.3-2.8c0-1.8,1.5-2.8,3.5-2.8C773.5,277.8,774.9,278.4,775.7,279.6z"/>
					<path class="st7" d="M791.1,288v-8.5l-3.3,8.5h-1.2l-3.3-8.5v8.5H782v-10h2.1l3.2,8.2l3.2-8.2h2.1v10H791.1z"/>
					<path class="st7" d="M799.4,288.2c-3,0-4.9-2.2-4.9-5.2c0-2.9,1.9-5.2,4.9-5.2c3,0,4.9,2.2,4.9,5.2
						C804.3,285.9,802.4,288.2,799.4,288.2z M799.4,279.2c-2.1,0-3.4,1.6-3.4,3.9c0,2.3,1.3,3.9,3.4,3.9c2.1,0,3.4-1.6,3.4-3.9
						C802.8,280.7,801.5,279.2,799.4,279.2z"/>
					<path class="st7" d="M812.9,288l-5.2-8.2v8.2h-1.4v-10h1.8l5.1,8v-8h1.4v10H812.9z"/>
					<path class="st7" d="M821.1,279.3v8.7h-1.4v-8.7h-3.4V278h8.2v1.3H821.1z"/>
					<path class="st7" d="M833.1,288v-4.6h-5.4v4.6h-1.4v-10h1.4v4.1h5.4V278h1.4v10H833.1z"/>
				</g>
			</g>
		</g>
		<g id="Rechteck_56">
			<path class="st5" d="M517,181v7h341v-7H517z M809,194H517v7h292V194z M517,215h329v-7H517V215z M517,229h233v-7H517V229z"/>
		</g>
		<g id="Your_campaign">
			<g>
				<path class="st6" d="M523.6,158v6.4h-4v-6.3l-6.4-10.3h4.6l3.8,6.6l3.8-6.6h4.6L523.6,158z"/>
				<path class="st6" d="M535.8,164.7c-4.3,0-7.1-2.8-7.1-6.9c0-4.2,2.7-7,7.1-7c4.3,0,7.1,2.8,7.1,7
					C542.9,161.9,540.1,164.7,535.8,164.7z M535.8,154c-1.9,0-3,1.6-3,3.8c0,2.2,1.1,3.8,3,3.8c2,0,3-1.6,3-3.8
					C538.8,155.5,537.8,154,535.8,154z"/>
				<path class="st6" d="M557.4,151.1v13.3h-3.8v-1.5c-1,1.1-2.4,1.8-4,1.8c-3,0-4.5-2.1-4.5-4.8v-8.8h3.8v8c0,1.1,0.3,2.3,2.1,2.3
					c1.4,0,2.6-0.9,2.6-2.6v-7.6H557.4z"/>
				<path class="st6" d="M568.7,155.1c-0.4-0.2-0.9-0.4-1.5-0.4c-1.6,0-2.8,1.3-2.8,3.3v6.4h-3.8v-13.3h3.8v2
					c0.8-1.3,2.1-2.2,3.5-2.2c0.6,0,1.3,0.2,1.7,0.4L568.7,155.1z"/>
				<path class="st6" d="M590,161.5c-1.1,1.8-3,3.2-5.9,3.2c-4.2,0-6.9-3-6.9-6.9c0-4,2.7-7,6.8-7c2.9,0,4.8,1.4,5.9,3.4l-2.9,1.7
					c-0.6-1.1-1.5-1.9-2.8-1.9c-1.9,0-3,1.6-3,3.7c0,2.2,1.2,3.7,3.1,3.7c1.3,0,2.2-0.7,2.9-1.8L590,161.5z"/>
				<path class="st6" d="M591.8,152.3c1.8-1,3.7-1.5,5.8-1.5c3.4,0,5.7,1.2,5.7,4.6v5.7c0,0.6,0.2,0.8,0.7,0.8c0.2,0,0.5,0,0.7-0.2
					l0.4,2.4c-0.5,0.3-1.4,0.5-2.1,0.5c-1.3,0-2.4-0.5-2.8-1.7c-1,1.3-2.7,1.8-4.2,1.8c-2.7,0-4.6-1.5-4.6-4.1
					c0-3.2,2.8-3.9,4.9-4.1c2.1-0.2,3.2-0.3,3.2-1.3c0-1-1.2-1.3-2.1-1.3c-1.3,0-3,0.4-4.2,1.2L591.8,152.3z M599.4,158
					c-0.5,0.6-1.4,0.7-2.4,0.9c-1,0.1-1.9,0.4-1.9,1.6c0,1,0.8,1.5,1.9,1.5c1.4,0,2.5-0.8,2.5-2.4V158z"/>
				<path class="st6" d="M606.8,164.4v-13.3h3.8v1.5c1-1.2,2.3-1.8,3.9-1.8c1.9,0,3.1,0.9,3.7,2.2c1.2-1.6,2.9-2.2,4.5-2.2
					c3,0,4.4,2.1,4.4,4.8v8.9h-3.8v-8c0-1.1-0.3-2.2-2-2.2c-1.4,0-2.4,0.9-2.4,2.6v7.6H615v-8c0-1.1-0.3-2.2-2-2.2
					c-1.4,0-2.4,0.9-2.4,2.6v7.6H606.8z"/>
				<path class="st6" d="M634,151.1v1.5c1.1-1.2,2.5-1.8,4.1-1.8c3.7,0,6.1,3,6.1,7c0,4-2.3,7-6.1,7c-1.6,0-3-0.6-4.1-1.8v5.8h-3.8
					v-17.7H634z M637.1,161.4c2,0,3-1.7,3-3.7c0-2-1-3.7-3-3.7c-2.1,0-3.1,1.6-3.1,3.7C634,159.7,635,161.4,637.1,161.4z"/>
				<path class="st6" d="M646.1,152.3c1.8-1,3.7-1.5,5.8-1.5c3.4,0,5.7,1.2,5.7,4.6v5.7c0,0.6,0.2,0.8,0.7,0.8c0.2,0,0.5,0,0.7-0.2
					l0.4,2.4c-0.5,0.3-1.4,0.5-2.1,0.5c-1.3,0-2.4-0.5-2.8-1.7c-1,1.3-2.7,1.8-4.2,1.8c-2.7,0-4.6-1.5-4.6-4.1
					c0-3.2,2.8-3.9,4.9-4.1c2.1-0.2,3.2-0.3,3.2-1.3c0-1-1.2-1.3-2.1-1.3c-1.3,0-3,0.4-4.2,1.2L646.1,152.3z M653.8,158
					c-0.5,0.6-1.4,0.7-2.4,0.9c-1,0.1-1.9,0.4-1.9,1.6c0,1,0.8,1.5,1.9,1.5c1.4,0,2.5-0.8,2.5-2.4V158z"/>
				<path class="st6" d="M661.2,149.4v-2.8h3.8v2.8H661.2z M661.2,164.4v-13.3h3.8v13.3H661.2z"/>
				<path class="st6" d="M681.4,161.8c0,2.1-0.3,3.8-1.5,5.1c-1.5,1.7-4,2.1-6.2,2.1c-2.3,0-4.2-0.5-5.8-1.4l1.4-3
					c1.1,0.7,2.6,1.2,4.3,1.2c2.2,0,4-0.8,4-3.1v-0.9c-1,1.2-2.5,1.8-4.1,1.8c-3.6,0-6-2.8-6-6.4c0-3.6,2.4-6.4,6-6.4
					c1.7,0,3.1,0.6,4.1,1.8v-1.5h3.8V161.8z M674.5,153.9c-2,0-3,1.4-3,3.2s1,3.3,3,3.3c2,0,3.1-1.4,3.1-3.3
					C677.6,155.3,676.5,153.9,674.5,153.9z"/>
				<path class="st6" d="M684.6,164.4v-13.3h3.8v1.5c1-1.2,2.5-1.8,4-1.8c3,0,4.5,2.1,4.5,4.8v8.8H693v-8c0-1.1-0.4-2.3-2.1-2.3
					c-1.4,0-2.6,0.9-2.6,2.6v7.6H684.6z"/>
			</g>
		</g>
	</g>
</g>
</svg>
