<?xml version="1.0" encoding="utf-8"?>
<!-- Generator: Adobe Illustrator 19.1.0, SVG Export Plug-In . SVG Version: 6.00 Build 0)  -->
<svg version="1.1" xmlns="http://www.w3.org/2000/svg" xmlns:xlink="http://www.w3.org/1999/xlink" x="0px" y="0px" width="267px"
	 height="154px" viewBox="0 0 267 154" style="enable-background:new 0 0 267 154;" xml:space="preserve">
<style type="text/css">
	.st0{fill:#EEEEEE;}
	.st1{fill:#FFFFFF;}
</style>
<g id="Ebene_1_xA0_Bild_1_">
</g>
<g id="Laptop_1_">
	<g id="Shape_7">
		<g>
			<path class="st0" d="M264.8,143H243l0-138.2c0-2.9-1.7-4.8-4.7-4.8L29.6,0c-3,0-5.6,2.5-5.6,5.3V143H2.2C1,143,0,144,0,145.2v6.6
				c0,1.2,1,2.2,2.2,2.2h262.6c1.2,0,2.2-1,2.2-2.2v-6.6C267,144,266,143,264.8,143z M28.9,1.1l209.5,0c2,0,3.6,1.4,3.6,3.3l0,138.7
				H36.1l-11,0L25,4.6C25,2.7,26.8,1.1,28.9,1.1z M266,152.1c0,0.5-0.4,0.9-0.9,0.9H1.9c-0.5,0-0.9-0.4-0.9-0.9V145
				c0-0.5,0.4-0.9,0.9-0.9l263.2,0c0.5,0,0.9,0.4,0.9,0.9V152.1z M235,9H32v127l203,0V9z M234,135H33V10h201V135z M119,149h29v-1
				h-29V149z"/>
		</g>
	</g>
	<g id="Apply_now">
		<g>
			<path class="st1" d="M86.4,78.6L84.5,74h-7.3l-1.9,4.6h-1.7L80,63.4h1.8l6.3,15.2H86.4z M81,65l-3.1,7.5h6L81,65z"/>
			<path class="st1" d="M93.1,66.8V69c1.2-1.8,2.7-2.4,4.4-2.4c3.4,0,5.5,2.7,5.5,6.2c0,3.5-2.1,6.2-5.5,6.2c-1.7,0-3.2-0.7-4.4-2.4
				v6.1h-1.5V66.8H93.1z M97.4,77.5c2.7,0,4.1-2.1,4.1-4.7c0-2.6-1.3-4.8-4.1-4.8s-4.2,2.1-4.2,4.8C93.1,75.4,94.6,77.5,97.4,77.5z"
				/>
			<path class="st1" d="M108.7,66.8V69c1.2-1.8,2.7-2.4,4.4-2.4c3.4,0,5.5,2.7,5.5,6.2c0,3.5-2.1,6.2-5.5,6.2
				c-1.7,0-3.2-0.7-4.4-2.4v6.1h-1.5V66.8H108.7z M113,77.5c2.7,0,4.1-2.1,4.1-4.7c0-2.6-1.3-4.8-4.1-4.8s-4.2,2.1-4.2,4.8
				C108.7,75.4,110.2,77.5,113,77.5z"/>
			<path class="st1" d="M122.9,78.6V62.3h1.5v16.3H122.9z"/>
			<path class="st1" d="M134.4,79.2c-0.9,2.3-1.8,3.6-3.9,3.6c-0.8,0-1.5-0.2-2.1-0.6L129,81c0.4,0.3,0.9,0.5,1.4,0.5
				c1.2,0,1.9-0.9,2.3-2l0.3-0.8L128,66.8h1.7l4.1,9.8l3.7-9.8h1.6L134.4,79.2z"/>
			<path class="st1" d="M150.2,78.6V66.8h1.5V69c1-1.6,2.4-2.4,4.2-2.4c2.5,0,4.2,1.6,4.2,4.5v7.5h-1.5v-7.2c0-1.6-0.5-3.5-2.9-3.5
				c-2.3,0-4,1.7-4,4.2v6.5H150.2z"/>
			<path class="st1" d="M169.8,78.9c-3.5,0-5.6-2.7-5.6-6.2c0-3.5,2.2-6.2,5.6-6.2s5.7,2.7,5.7,6.2
				C175.5,76.2,173.3,78.9,169.8,78.9z M169.8,67.9c-2.6,0-4.1,2.1-4.1,4.8c0,2.6,1.5,4.8,4.1,4.8c2.6,0,4.1-2.1,4.1-4.8
				C173.9,70,172.4,67.9,169.8,67.9z"/>
			<path class="st1" d="M191.5,78.6h-1.7l-3.1-9.9l-3.2,9.9h-1.7l-3.3-11.8h1.5l2.7,10.1l3.2-10.1h1.5l3.2,10.1l2.7-10.1h1.4
				L191.5,78.6z"/>
		</g>
	</g>
</g>
</svg>
