<?xml version="1.0" encoding="utf-8"?>
<!-- Generator: Adobe Illustrator 19.1.0, SVG Export Plug-In . SVG Version: 6.00 Build 0)  -->
<svg version="1.1" id="Ebene_1" xmlns="http://www.w3.org/2000/svg" xmlns:xlink="http://www.w3.org/1999/xlink" x="0px" y="0px"
	 width="29.3px" height="19.6px" viewBox="0 0 29.3 19.6" style="enable-background:new 0 0 29.3 19.6;" xml:space="preserve">
<!--<g>-->
  <!--<path style="fill:#010202;" d="M14.6,12.6c1.7,0,3,1.3,3,3s-1.3,3-3,3s-3-1.3-3-3S13,12.6,14.6,12.6 M14.6,11.6c-2.2,0-4,1.8-4,4-->
    <!--c0,2.2,1.8,4,4,4c2.2,0,4-1.8,4-4C18.6,13.4,16.8,11.6,14.6,11.6L14.6,11.6z M14.6,3.5c-5.4,0-10,3.6-11.5,8.5-->
    <!--c0.3,0.2,0.6,0.4,0.9,0.5c1.3-4.6,5.6-8,10.6-8c5.1,0,9.4,3.5,10.7,8.2c0.3-0.2,0.6-0.4,0.9-0.5C24.7,7.2,20.1,3.5,14.6,3.5z-->
     <!--M14.6,7.1c-4.1,0-7.6,3-8.3,6.9c0.3,0.2,0.6,0.4,0.9,0.6c0.5-3.6,3.6-6.4,7.4-6.4c3.8,0,6.9,2.8,7.4,6.5c0.3-0.2,0.6-0.4,0.9-0.5-->
    <!--C22.3,10.1,18.8,7.1,14.6,7.1z M0.9,10.7c0-0.1,0-0.1,0.1-0.2C3.1,4.8,8.6,1,14.6,1c6.2,0,11.7,3.9,13.7,9.7c0,0.1,0,0.1,0.1,0.2-->
    <!--c0.3-0.2,0.6-0.4,0.9-0.5c0,0,0,0,0,0C27.2,4.3,21.4,0,14.6,0C7.9,0,2.2,4.2,0,10.2c0,0,0,0,0,0C0.3,10.3,0.6,10.5,0.9,10.7z"/>-->
<!--</g>-->
<g>
  <path d="M14.6,12.6c1.7,0,3,1.3,3,3s-1.3,3-3,3s-3-1.3-3-3S13,12.6,14.6,12.6 M14.6,11.6c-2.2,0-4,1.8-4,4
    c0,2.2,1.8,4,4,4c2.2,0,4-1.8,4-4C18.6,13.4,16.8,11.6,14.6,11.6L14.6,11.6z M14.6,3.5c-5.4,0-10,3.6-11.5,8.5
    c0.3,0.2,0.6,0.4,0.9,0.5c1.3-4.6,5.6-8,10.6-8c5.1,0,9.4,3.5,10.7,8.2c0.3-0.2,0.6-0.4,0.9-0.5C24.7,7.2,20.1,3.5,14.6,3.5z
     M14.6,7.1c-4.1,0-7.6,3-8.3,6.9c0.3,0.2,0.6,0.4,0.9,0.6c0.5-3.6,3.6-6.4,7.4-6.4c3.8,0,6.9,2.8,7.4,6.5c0.3-0.2,0.6-0.4,0.9-0.5
    C22.3,10.1,18.8,7.1,14.6,7.1z M0.9,10.7c0-0.1,0-0.1,0.1-0.2C3.1,4.8,8.6,1,14.6,1c6.2,0,11.7,3.9,13.7,9.7c0,0.1,0,0.1,0.1,0.2
    c0.3-0.2,0.6-0.4,0.9-0.5c0,0,0,0,0,0C27.2,4.3,21.4,0,14.6,0C7.9,0,2.2,4.2,0,10.2c0,0,0,0,0,0C0.3,10.3,0.6,10.5,0.9,10.7z"/>
</g>
</svg>
