<?xml version="1.0" encoding="utf-8"?>
<!-- Generator: Adobe Illustrator 19.1.0, SVG Export Plug-In . SVG Version: 6.00 Build 0)  -->
<svg version="1.1" id="Ebene_1" xmlns="http://www.w3.org/2000/svg" xmlns:xlink="http://www.w3.org/1999/xlink" x="0px" y="0px"
	 width="153.3px" height="103.1px" viewBox="0 0 153.3 103.1" style="enable-background:new 0 0 153.3 103.1;" xml:space="preserve"
	>
<g>
<path style="fill:#676767;" d="M76.4,58.6c-12.3,0-22.2,10-22.2,22.2s10,22.2,22.2,22.2s22.2-10,22.2-22.2S88.7,58.6,76.4,58.6z
	 M76.4,94.1c-7.3,0-13.2-5.9-13.2-13.2s5.9-13.2,13.2-13.2c7.3,0,13.2,5.9,13.2,13.2S83.7,94.1,76.4,94.1z M136.8,63.1l0.4,1.5
	l-8.1,4.8l-0.7-2.5c-6.3-23.5-27.7-39.9-52-39.9c-24,0-45.3,16.1-51.8,39.3l-0.7,2.5l-8.1-4.9l0.5-1.5c8.2-26.6,32.4-44.5,60.2-44.5
	C104.2,17.9,129,36.5,136.8,63.1z M120.7,72.8l0.2,1.4l-8.5,5l-0.4-3c-2.3-17.8-17.7-31.3-35.6-31.3c-17.7,0-33,13.3-35.6,30.8
	l-0.4,3L32,73.6l0.3-1.4c4.1-21.1,22.7-36.4,44.2-36.4C98.2,35.9,116.8,51.4,120.7,72.8z M153.3,55.2l-8.1,4.7l-0.8-2.3
	c-0.1-0.2-0.1-0.4-0.2-0.5c0-0.1-0.1-0.3-0.1-0.4C133.9,28.2,106.7,9.1,76.4,9.1c-29.9,0-56.9,18.8-67.3,46.8C9.1,56,9,56.1,9,56.3
	c-0.1,0.2-0.1,0.4-0.2,0.6L8,59.2l-8-4.8l0.6-1.6C12.3,21.2,42.8,0,76.4,0c34.1,0,64.7,21.6,76.2,53.7L153.3,55.2z"/>
</g>
</svg>
