<?xml version="1.0" encoding="utf-8"?>
<!-- Generator: Adobe Illustrator 19.1.0, SVG Export Plug-In . SVG Version: 6.00 Build 0)  -->
<svg version="1.1" id="Ebene_1" xmlns="http://www.w3.org/2000/svg" xmlns:xlink="http://www.w3.org/1999/xlink" x="0px" y="0px"
	 width="110px" height="110px" viewBox="0 0 110 110" style="enable-background:new 0 0 110 110;" xml:space="preserve">
<g id="qr_code">
	<g>
		<path style="fill:#676767;" d="M106.5,108.5v-2h2v2H106.5z M94.5,108.5v-2h2v2H94.5z M82.5,108.5v-2h2v2H82.5z M70.5,108.5v-2h2v2
			H70.5z M58.5,108.5v-2h2v2H58.5z M1.5,108.5v-50h50v50H1.5z M3.5,106.5h46v-46h-46V106.5z M100.5,102.5v-2h2v2H100.5z M88.5,102.5
			v-2h2v2H88.5z M76.5,102.5v-2h2v2H76.5z M64.5,102.5v-2h2v2H64.5z M11.5,98.5v-30h30v30H11.5z M13.5,96.5h26v-26h-26V96.5z
			 M106.5,96.5v-2h2v2H106.5z M70.5,96.5v-26h26v26H70.5z M72.5,94.5h22v-22h-22V94.5z M58.5,96.5v-2h2v2H58.5z M100.5,90.5v-2h2v2
			H100.5z M64.5,90.5v-2h2v2H64.5z M106.5,84.5v-2h2v2H106.5z M58.5,84.5v-2h2v2H58.5z M100.5,78.5v-2h2v2H100.5z M64.5,78.5v-2h2v2
			H64.5z M106.5,72.5v-2h2v2H106.5z M58.5,72.5v-2h2v2H58.5z M100.5,66.5v-2h2v2H100.5z M88.5,66.5v-2h2v2H88.5z M76.5,66.5v-2h2v2
			H76.5z M64.5,66.5v-2h2v2H64.5z M106.5,60.5v-2h2v2H106.5z M94.5,60.5v-2h2v2H94.5z M82.5,60.5v-2h2v2H82.5z M70.5,60.5v-2h2v2
			H70.5z M58.5,60.5v-2h2v2H58.5z M58.5,51.5v-50h50v50H58.5z M60.5,49.5h46v-46h-46V49.5z M1.5,51.5v-50h50v50H1.5z M3.5,49.5h46
			v-46h-46V49.5z M68.5,41.5v-30h30v30H68.5z M70.5,39.5h26v-26h-26V39.5z M11.5,41.5v-30h30v30H11.5z M13.5,39.5h26v-26h-26V39.5z"
			/>
	</g>
	<g>
		<path style="fill:#676767;" d="M110,0H57v53h53V0L110,0z M62,48V5h43v43H62L62,48z M53,0H0v53h53V0L53,0z M5,48V5h43v43H5L5,48z
			 M100,10H67v33h33V10L100,10z M72,38V15h23v23H72L72,38z M43,10H10v33h33V10L43,10z M15,38V15h23v23H15L15,38z M110,57h-5v5h5V57
			L110,57z M98,57h-5v5h5V57L98,57z M86,57h-5v5h5V57L86,57z M74,57h-5v5h5V57L74,57z M62,57h-5v5h5V57L62,57z M53,57H0v53h53V57
			L53,57z M5,105V62h43v43H5L5,105z M104,63h-5v5h5V63L104,63z M92,63h-5v5h5V63L92,63z M80,63h-5v5h5V63L80,63z M68,63h-5v5h5V63
			L68,63z M43,67H10v33h33V67L43,67z M15,95V72h23v23H15L15,95z M110,69h-5v5h5V69L110,69z M98,69H69v29h29V69L98,69z M74,93V74h19
			v19H74L74,93z M62,69h-5v5h5V69L62,69z M104,75h-5v5h5V75L104,75z M68,75h-5v5h5V75L68,75z M110,81h-5v5h5V81L110,81z M62,81h-5v5
			h5V81L62,81z M104,87h-5v5h5V87L104,87z M68,87h-5v5h5V87L68,87z M110,93h-5v5h5V93L110,93z M62,93h-5v5h5V93L62,93z M104,99h-5v5
			h5V99L104,99z M92,99h-5v5h5V99L92,99z M80,99h-5v5h5V99L80,99z M68,99h-5v5h5V99L68,99z M110,105h-5v5h5V105L110,105z M98,105h-5
			v5h5V105L98,105z M86,105h-5v5h5V105L86,105z M74,105h-5v5h5V105L74,105z M62,105h-5v5h5V105L62,105z"/>
	</g>
</g>
</svg>
