<svg id="Iphone_Outline" data-name="Iphone Outline" xmlns="http://www.w3.org/2000/svg" width="36.67mm" height="60.67mm" viewBox="0 0 103.94 171.97">
  <title>sc-icons-invest</title>
  <g id="base">
    <path d="M89.37,4A10.53,10.53,0,0,1,99.94,14.47v143A10.53,10.53,0,0,1,89.37,168H14.56A10.53,10.53,0,0,1,4,157.5v-143A10.53,10.53,0,0,1,14.56,4H89.37m0-4H14.56A14.54,14.54,0,0,0,0,14.47v143A14.54,14.54,0,0,0,14.56,172H89.37a14.54,14.54,0,0,0,14.56-14.47v-143A14.54,14.54,0,0,0,89.37,0h0Z" fill="#ddd"/>
  </g>
  <g id="screen">
    <path d="M93.9,32l0,104-81.85-.06L12,32H93.9m1.7-2H10.33a0.3,0.3,0,0,0-.3.3L10.09,137.6a0.3,0.3,0,0,0,.3.3L95.63,138a0.3,0.3,0,0,0,.3-0.3l0-107.39a0.3,0.3,0,0,0-.3-0.3h0Z" fill="#ddd"/>
  </g>
  <g id="ear">
    <g id="ear-2" data-name="ear">
      <path d="M59.45,16.14H43.92c-2.11,0-2.93,3.84,0,3.84H59.45c2.93,0,2.11-3.84,0-3.84h0Z" fill="#ddd"/>
    </g>
  </g>
  <g id="camera">
    <g id="Camera-2" data-name="Camera">
      <ellipse cx="51.83" cy="9.89" rx="1.98" ry="1.97" fill="#ddd"/>
    </g>
  </g>
  <g id="Home_Button" data-name="Home Button">
    <g id="Base-2" data-name="Base">
      <path d="M52.78,145.79a7,7,0,1,1-7.06,7,7,7,0,0,1,7.06-7m0-2a9,9,0,1,0,9.06,9,9,9,0,0,0-9.06-9h0Z" fill="#ddd"/>
    </g>
  </g>
  <path d="M53.11,108.44v-5c-7.26-.42-12.84-4-15.6-10L44.83,90a10,10,0,0,0,8.28,6.12v-9.6C47.83,85.46,39.67,82.64,39.67,74c0-7,5.34-11.7,13.44-11.94V58.82h3.6v3.42a17.11,17.11,0,0,1,12.66,7.92l-6.54,3.78a10.15,10.15,0,0,0-6.12-4.26v8.58c6.12,1.44,13.44,4.5,13.44,12.54,0,6.54-4.8,11.82-13.44,12.54v5.1h-3.6Zm0-31v-8.1c-2.58.12-4.92,1.14-4.92,3.84C48.19,75.68,50.05,76.7,53.11,77.48Zm3.6,9.9v8.88c3.42-.36,5-2,5-4.5C61.75,89.12,59.77,88,56.71,87.38Z" fill="#3e4e77"/>
</svg>
