<svg id="Iphone_Outline" data-name="Iphone Outline" xmlns="http://www.w3.org/2000/svg" width="36.67mm" height="60.67mm" viewBox="0 0 103.94 171.97">
  <title>sc-icons-grow-virally</title>
  <g id="base">
    <path d="M89.37,4A10.53,10.53,0,0,1,99.94,14.47v143A10.53,10.53,0,0,1,89.37,168H14.56A10.53,10.53,0,0,1,4,157.5v-143A10.53,10.53,0,0,1,14.56,4H89.37m0-4H14.56A14.54,14.54,0,0,0,0,14.47v143A14.54,14.54,0,0,0,14.56,172H89.37a14.54,14.54,0,0,0,14.56-14.47v-143A14.54,14.54,0,0,0,89.37,0h0Z" fill="#ddd"/>
  </g>
  <g id="screen">
    <path d="M93.9,32l0,104-81.85-.06L12,32H93.9m1.7-2H10.33a0.3,0.3,0,0,0-.3.3L10.09,137.6a0.3,0.3,0,0,0,.3.3L95.63,138a0.3,0.3,0,0,0,.3-0.3l0-107.39a0.3,0.3,0,0,0-.3-0.3h0Z" fill="#ddd"/>
  </g>
  <g id="ear">
    <g id="ear-2" data-name="ear">
      <path d="M59.45,16.14H43.92c-2.11,0-2.93,3.84,0,3.84H59.45c2.93,0,2.11-3.84,0-3.84h0Z" fill="#ddd"/>
    </g>
  </g>
  <g id="camera">
    <g id="Camera-2" data-name="Camera">
      <ellipse cx="51.83" cy="9.89" rx="1.98" ry="1.97" fill="#ddd"/>
    </g>
  </g>
  <g id="Home_Button" data-name="Home Button">
    <g id="Base-2" data-name="Base">
      <path d="M52.78,145.79a7,7,0,1,1-7.06,7,7,7,0,0,1,7.06-7m0-2a9,9,0,1,0,9.06,9,9,9,0,0,0-9.06-9h0Z" fill="#ddd"/>
    </g>
  </g>
  <g>
    <path d="M68.94,113a6,6,0,0,1-5.73-7.79l0.45-1.43h0l1.15-1.1a6,6,0,0,1,8.5,8.44l-0.16.17,0,0-0.3.26A6,6,0,0,1,68.94,113Zm0-23a6,6,0,0,1-5.8-4.5L62.75,84H43.13l-0.39,1.5a6,6,0,0,1-.7,1.64l-1,1.64-0.15-.1-1.06.58A6,6,0,1,1,40.22,79l1.1,0.72,0.1-.07,0.83,1.59a6,6,0,0,1,.49,1.28L43.13,84H62.75l0.39-1.5A6,6,0,1,1,68.94,90Zm0-23a6,6,0,0,1-3.82-1.37L64,64.65l0,0-0.59-1.5A6,6,0,1,1,68.94,67Z" fill="#fff"/>
    <path d="M68.94,57a4,4,0,0,1,0,8,4,4,0,0,1-2.54-.91l-0.79-.65-0.38-1A4,4,0,0,1,68.94,57m0,23a4,4,0,1,1-3.86,5l-0.26-1,0.26-1a4,4,0,0,1,3.86-3m-32,0a4,4,0,0,1,2.18.65L40,81.2l0.49,0.93a4,4,0,0,1,.32.85l0.26,1-0.26,1a4,4,0,0,1-.46,1.09L39.78,87l-0.92.5a3.94,3.94,0,0,1-1.92.49,4,4,0,1,1,0-8m32,23a4,4,0,0,1,2.91,6.74l-0.17.18-0.15.13a4,4,0,0,1-2.58,1,4,4,0,0,1-3.82-5.2l0.3-1,0.76-.72A4,4,0,0,1,68.94,103m0-50A8,8,0,0,0,61.5,63.9L41.32,77.28A8,8,0,1,0,40.78,91l20.52,13.59a8,8,0,0,0,12.81,8.49l0.21,0.14,0.43-.75a8,8,0,0,0-11.34-11.26l-19.67-13A8,8,0,0,0,44.68,86H61.2a8,8,0,1,0,0-4H44.68a7.94,7.94,0,0,0-.65-1.7L63.85,67.14A8,8,0,1,0,68.94,53h0Z" fill="#3b4b72"/>
  </g>
</svg>
