<svg id="Iphone_Outline" data-name="Iphone Outline" xmlns="http://www.w3.org/2000/svg" width="36.67mm" height="60.67mm" viewBox="0 0 103.94 171.97">
  <title>sc-icons-be-sticky</title>
  <g id="base">
    <path d="M89.37,4A10.53,10.53,0,0,1,99.94,14.47v143A10.53,10.53,0,0,1,89.37,168H14.56A10.53,10.53,0,0,1,4,157.5v-143A10.53,10.53,0,0,1,14.56,4H89.37m0-4H14.56A14.54,14.54,0,0,0,0,14.47v143A14.54,14.54,0,0,0,14.56,172H89.37a14.54,14.54,0,0,0,14.56-14.47v-143A14.54,14.54,0,0,0,89.37,0h0Z" fill="#ddd"/>
  </g>
  <g id="screen">
    <path d="M93.9,32l0,104-81.85-.06L12,32H93.9m1.7-2H10.33a0.3,0.3,0,0,0-.3.3L10.09,137.6a0.3,0.3,0,0,0,.3.3L95.63,138a0.3,0.3,0,0,0,.3-0.3l0-107.39a0.3,0.3,0,0,0-.3-0.3h0Z" fill="#ddd"/>
  </g>
  <g id="ear">
    <g id="ear-2" data-name="ear">
      <path d="M59.45,16.14H43.92c-2.11,0-2.93,3.84,0,3.84H59.45c2.93,0,2.11-3.84,0-3.84h0Z" fill="#ddd"/>
    </g>
  </g>
  <g id="camera">
    <g id="Camera-2" data-name="Camera">
      <ellipse cx="51.83" cy="9.89" rx="1.98" ry="1.97" fill="#ddd"/>
    </g>
  </g>
  <g id="Home_Button" data-name="Home Button">
    <g id="Base-2" data-name="Base">
      <path d="M52.78,145.79a7,7,0,1,1-7.06,7,7,7,0,0,1,7.06-7m0-2a9,9,0,1,0,9.06,9,9,9,0,0,0-9.06-9h0Z" fill="#ddd"/>
    </g>
  </g>
  <g id="Form_21" data-name="Form 21" style="isolation: isolate">
    <g id="Form_21-2" data-name="Form 21">
      <path d="M47.89,67.57H67.54L62,72.51l2.64,3,11-9.91L64.63,54.74l-2.78,2.92,6,5.86H47.89A25.17,25.17,0,0,0,22.94,88.85v2.29h4V88.85A21.14,21.14,0,0,1,47.89,67.57ZM79,77.06v1.88a21.14,21.14,0,0,1-21,21.28H37.53l5.17-5.16-2.8-2.89L29.79,102.26l10.67,10.43,2.77-2.92-5.62-5.49H58A25.17,25.17,0,0,0,82.94,78.94V77.06H79Z" fill="#3c4b73"/>
    </g>
  </g>
</svg>
