<?xml version="1.0" encoding="iso-8859-1"?>
<!-- Generator: Adobe Illustrator 19.2.1, SVG Export Plug-In . SVG Version: 6.00 Build 0)  -->
<svg version="1.1" xmlns="http://www.w3.org/2000/svg" xmlns:xlink="http://www.w3.org/1999/xlink" x="0px" y="0px"
	 viewBox="0 0 44 56" style="enable-background:new 0 0 44 56;" xml:space="preserve">
<g id="deeplinking-small">
	<g>
		<path style="fill:#999999;" d="M0,0v56h44V0H0z M38.956,51.013H3.981V3.987h35.006L38.956,51.013z"/>
		<path style="fill:#999999;" d="M35,8H8v33h27V8z M30.975,37.006l-18.981-0.031V12l18.981-0.031V37.006z"/>
		<path style="fill:#999999;" d="M24,43h-4c-0.552,0-1,0.448-1,1v4c0,0.552,0.448,1,1,1h4c0.552,0,1-0.448,1-1v-4
			C25,43.448,24.552,43,24,43z"/>
		<polygon style="fill:#999999;" points="18,25.975 28.925,25.975 28.925,24.053 21.564,21.35 28.954,18.163 28.925,15.975 
			14.325,15.975 14.325,16 14,16 14,34 18,34 		"/>
	</g>
</g>
<g id="Ebene_1">
</g>
</svg>
