<?xml version="1.0" encoding="iso-8859-1"?>
<!-- Generator: Adobe Illustrator 19.2.1, SVG Export Plug-In . SVG Version: 6.00 Build 0)  -->
<svg version="1.1" xmlns="http://www.w3.org/2000/svg" xmlns:xlink="http://www.w3.org/1999/xlink" x="0px" y="0px"
	 viewBox="0 0 34 44" style="enable-background:new 0 0 34 44;" xml:space="preserve">
<g id="customlanders-small">
	<path style="fill:#999999;" d="M17,4c7.168,0,13,5.832,13,13c0,4.606-6.879,14.164-13,21.096C10.879,31.163,4,21.605,4,17
		C4,9.832,9.832,4,17,4 M17,24c3.86,0,7-3.14,7-7c0-3.86-3.14-7-7-7s-7,3.14-7,7C10,20.86,13.14,24,17,24 M17,0
		C7.611,0,0,7.611,0,17c0,9.389,17,27,17,27s17-17.611,17-27C34,7.611,26.389,0,17,0L17,0z M17,20c-1.657,0-3-1.343-3-3
		c0-1.657,1.343-3,3-3c1.657,0,3,1.343,3,3C20,18.657,18.657,20,17,20L17,20z"/>
</g>
<g id="Ebene_1">
</g>
</svg>
