<svg id="Ebene_1" data-name="Ebene 1" xmlns="http://www.w3.org/2000/svg" width="4.36mm" height="4.59mm" viewBox="0 0 12.36 13">
  <title>google</title>
  <path d="M5.49,6.22a0.81,0.81,0,0,0,.25.55,4.23,4.23,0,0,0,.61.53q0.36,0.26.71,0.57a2.68,2.68,0,0,1,.6.81A2.45,2.45,0,0,1,7.91,9.8a2.66,2.66,0,0,1-.37,1.35,3.33,3.33,0,0,1-1.65,1.4A6,6,0,0,1,3.55,13a5.62,5.62,0,0,1-1.93-.32A2.48,2.48,0,0,1,.29,11.6a1.91,1.91,0,0,1-.29-1A2.12,2.12,0,0,1,.35,9.41a2.91,2.91,0,0,1,.93-0.9,7,7,0,0,1,3.16-.78,3.49,3.49,0,0,1-.37-0.58,1.28,1.28,0,0,1-.12-0.57A1.74,1.74,0,0,1,4.1,5.91l-0.53,0a2.72,2.72,0,0,1-1.95-.75A2.52,2.52,0,0,1,.83,3.28,2.9,2.9,0,0,1,1.11,2a3,3,0,0,1,.77-1A3.9,3.9,0,0,1,3.31.25,5.83,5.83,0,0,1,5,0H8.27L7.2,0.69h-1a3.72,3.72,0,0,1,.88,1A2.58,2.58,0,0,1,7.34,3a2.56,2.56,0,0,1-.19,1,2.35,2.35,0,0,1-.46.73,7.31,7.31,0,0,1-.54.51,3.12,3.12,0,0,0-.46.48A0.84,0.84,0,0,0,5.49,6.22ZM4.37,12.29a3.7,3.7,0,0,0,.87-0.1A2.94,2.94,0,0,0,6,11.88a1.53,1.53,0,0,0,.57-0.57,1.65,1.65,0,0,0,.21-0.85,1.37,1.37,0,0,0-.05-0.38,3.2,3.2,0,0,0-.11-0.33,1.36,1.36,0,0,0-.21-0.32L6.19,9.15a2.73,2.73,0,0,0-.3-0.27L5.6,8.66,5.28,8.42,5,8.22l-0.37,0a6.19,6.19,0,0,0-.82.05,4.86,4.86,0,0,0-.84.2,3,3,0,0,0-.76.36,1.75,1.75,0,0,0-.54.58,1.61,1.61,0,0,0-.21.82,1.72,1.72,0,0,0,.27,1,1.87,1.87,0,0,0,.71.65,3.86,3.86,0,0,0,.93.34A4.41,4.41,0,0,0,4.37,12.29Zm0-6.82A1.59,1.59,0,0,0,5,5.34,1.5,1.5,0,0,0,5.48,5a1.76,1.76,0,0,0,.41-1.24,4,4,0,0,0-.13-1,5,5,0,0,0-.38-1A2.34,2.34,0,0,0,4.72,1,1.45,1.45,0,0,0,3.16.79a1.38,1.38,0,0,0-.51.41,2,2,0,0,0-.37,1.25,4,4,0,0,0,.08.76,4.07,4.07,0,0,0,.25.8A3.35,3.35,0,0,0,3,4.74a1.93,1.93,0,0,0,.59.52A1.46,1.46,0,0,0,4.35,5.47Zm6.34,0h1.66V6.29H10.7V8H9.88V6.29H8.22V5.45H9.88V3.75H10.7v1.7Z" fill="#999"/>
</svg>
