<svg id="Ebene_1" data-name="Ebene 1" xmlns="http://www.w3.org/2000/svg" width="4.59mm" height="3.88mm" viewBox="0 0 13 11">
  <title>github</title>
  <path d="M13,6.13a5.91,5.91,0,0,1-.48,2.59,3.15,3.15,0,0,1-.82,1,4.23,4.23,0,0,1-1.1.67,6.69,6.69,0,0,1-1.33.37A11.53,11.53,0,0,1,7.93,11q-0.59,0-1.3,0L5.52,11q-0.5,0-1.15-.1a7,7,0,0,1-1.19-.23,8.29,8.29,0,0,1-1.07-.4,3.44,3.44,0,0,1-.95-0.63,3.23,3.23,0,0,1-.67-0.9A5.79,5.79,0,0,1,0,6.13,4.59,4.59,0,0,1,1.06,3,4.22,4.22,0,0,1,.85,1.7,3.76,3.76,0,0,1,1.25,0,3.39,3.39,0,0,1,2.73.31a8.43,8.43,0,0,1,1.48,1A10.4,10.4,0,0,1,6.63,1a9.27,9.27,0,0,1,2.19.25A8.17,8.17,0,0,1,10.27.3,3.4,3.4,0,0,1,11.75,0a3.76,3.76,0,0,1,.4,1.7A4.12,4.12,0,0,1,11.94,3,4.64,4.64,0,0,1,13,6.13ZM11.25,7.5a2.43,2.43,0,0,0-.54-1.59,1.79,1.79,0,0,0-1.46-.66q-0.32,0-1.52.16A8,8,0,0,1,6.5,5.5a8,8,0,0,1-1.23-.09,15,15,0,0,0-1.52-.16,1.79,1.79,0,0,0-1.46.66A2.43,2.43,0,0,0,1.75,7.5,2.7,2.7,0,0,0,2,8.7a2.21,2.21,0,0,0,.63.8,3,3,0,0,0,1,.47,5.75,5.75,0,0,0,1.09.23,11.36,11.36,0,0,0,1.16.05H7.16a11.37,11.37,0,0,0,1.16-.05A5.77,5.77,0,0,0,9.41,10a3,3,0,0,0,1-.47A2.22,2.22,0,0,0,11,8.7,2.7,2.7,0,0,0,11.25,7.5ZM4.9,6.86a2.15,2.15,0,0,1,0,1.28,1.54,1.54,0,0,1-.34.59,0.74,0.74,0,0,1-1.13,0A1.53,1.53,0,0,1,3.1,8.14a2.15,2.15,0,0,1,0-1.28,1.53,1.53,0,0,1,.34-0.59,0.74,0.74,0,0,1,1.13,0A1.55,1.55,0,0,1,4.9,6.86Zm5,0a2.15,2.15,0,0,1,0,1.28,1.54,1.54,0,0,1-.34.59,0.74,0.74,0,0,1-1.13,0A1.53,1.53,0,0,1,8.1,8.14a2.15,2.15,0,0,1,0-1.28,1.53,1.53,0,0,1,.34-0.59,0.74,0.74,0,0,1,1.13,0A1.55,1.55,0,0,1,9.9,6.86Z" fill="#999"/>
</svg>
