<?xml version="1.0" encoding="iso-8859-1"?>
<!-- Generator: Adobe Illustrator 19.2.1, SVG Export Plug-In . SVG Version: 6.00 Build 0)  -->
<svg version="1.1" xmlns="http://www.w3.org/2000/svg" xmlns:xlink="http://www.w3.org/1999/xlink" x="0px" y="0px"
	 viewBox="0 0 71.651 61.813" style="enable-background:new 0 0 71.651 61.813;" xml:space="preserve">
<g id="customdomain-small">
	<g id="Form_38">
		<g>
			<path style="fill:#999999;" d="M3.629,23.368c0.077-0.101,0.148-0.207,0.219-0.313c0.057-0.085,0.115-0.171,0.176-0.253
				c4.466-6.04,10.153-9.711,16.963-10.976c0.418-1.637,1.295-3.086,2.491-4.205c-4.962,0.43-9.622,1.999-13.912,4.691
				c-0.236,0.148-0.472,0.299-0.706,0.453c-3.266,2.164-6.092,5.002-8.398,8.435c-0.386,0.575-0.535,1.164-0.429,1.701
				c0.091,0.463,0.366,0.86,0.795,1.146c0.308,0.207,0.653,0.307,1.002,0.307c0.081,0,0.163-0.005,0.244-0.016
				C2.644,24.263,3.208,23.929,3.629,23.368z M7.792,49.35c-0.036-0.105-0.072-0.21-0.105-0.316
				c-1.859-6.057-2.121-11.057-0.824-15.736c1.328-4.792,4.458-8.915,8.815-11.61c1.742-1.078,3.606-1.867,5.527-2.382
				c-0.317-0.904-0.499-1.872-0.499-2.884v-0.88C12.56,17.444,6.825,22.552,3.649,30.78c-1.594,4.13-1.848,8.762-0.799,14.579
				c0.317,1.76,0.829,3.504,1.324,5.189l0.08,0.274c0.221,0.756,0.587,1.274,1.086,1.538c0.436,0.232,0.943,0.258,1.507,0.078
				c1.086-0.348,1.481-1.378,1.056-2.753C7.868,49.572,7.83,49.46,7.792,49.35z M8.149,7.48c0.277,0.426,0.736,0.817,1.486,0.817
				c0.238,0,0.505-0.039,0.804-0.129c0.302-0.091,0.562-0.241,0.814-0.386c0.094-0.055,0.189-0.109,0.284-0.159
				c7.816-4.082,15.927-4.884,24.109-2.385c0.025,0.008,0.05,0.018,0.075,0.026h8.961c-0.232-0.26-0.523-0.547-0.884-0.739
				C33.161-1.136,22.193-1.487,11.2,3.48c-0.904,0.409-1.736,0.86-2.471,1.342c-0.93,0.609-1.187,1.534-0.688,2.474
				C8.073,7.358,8.109,7.419,8.149,7.48z M43.415,51.571c-4.036,0.574-7.161-0.068-9.76-2.01c-0.21-0.157-0.417-0.319-0.62-0.494
				c-2.948-2.525-4.487-5.76-4.704-9.891c-0.066-1.255-0.746-1.948-1.915-1.951h-0.006c-0.516,0-0.966,0.18-1.304,0.52
				c-0.391,0.394-0.593,0.963-0.586,1.645c0.004,0.396,0.057,0.783,0.108,1.158c0.026,0.195,0.053,0.39,0.072,0.585
				c0.817,8.266,7.877,14.511,16.422,14.526h0.026l0.026-0.003c0.212-0.025,0.452-0.047,0.711-0.072
				c0.656-0.063,1.472-0.141,2.268-0.282c0.752-0.133,1.265-0.41,1.568-0.848c0.267-0.387,0.348-0.879,0.239-1.461
				C45.842,52.343,45.349,51.297,43.415,51.571z M20.705,57.306c-2.128-2.204-3.848-4.769-5.112-7.625
				c-2.054-4.641-2.67-8.929-1.885-13.108c1.14-6.071,6.503-10.48,12.752-10.483h0.009c6.233,0,11.473,4.31,12.743,10.485
				c0.12,0.584,0.177,1.176,0.237,1.802c0.028,0.294,0.056,0.587,0.091,0.879c0.132,1.103,0.803,1.732,1.844,1.732h0.036
				c1.123-0.016,1.799-0.709,1.853-1.901c0.013-0.288,0.013-0.572-0.002-0.846c-0.223-4.364-2.067-8.401-5.192-11.364
				c-0.684-0.648-1.423-1.221-2.195-1.738h-6.459c-2.401,0-4.574-0.971-6.151-2.541c-7.497,1.449-13.366,7.872-13.652,15.554
				c-0.275,7.382,1.939,14.056,6.579,19.835c0.752,0.936,1.549,1.802,2.3,2.598c0.157,0.167,0.326,0.303,0.503,0.408
				c0.295,0.174,0.61,0.263,0.929,0.263c0.318,0,0.639-0.088,0.943-0.265c0.101-0.059,0.201-0.128,0.298-0.207
				c0.898-0.731,0.962-1.763,0.172-2.762C21.143,57.767,20.918,57.527,20.705,57.306z M50.518,35.712
				c-0.036-0.276-0.078-0.552-0.126-0.828c-0.609-3.55-2.006-6.854-4.027-9.745h-4.939c3.455,3.638,5.54,8.464,5.533,13.682
				c-0.002,1.604-0.576,3.086-1.615,4.173c-1.03,1.079-2.428,1.672-3.937,1.672h-0.013c-3.106-0.007-5.492-2.483-5.549-5.76
				c-0.051-2.887-1.414-5.548-3.74-7.299c-0.182-0.137-0.37-0.265-0.559-0.388c-2.223-1.44-4.908-1.876-7.47-1.189
				c-4.626,1.243-6.961,5.012-6.937,11.203l0.001,0.023c0.025,0.468,0.065,0.932,0.119,1.391
				c0.782,6.664,4.562,12.433,10.779,16.417c0.214,0.137,0.432,0.272,0.652,0.405c1.541,0.933,3.288,1.526,4.978,2.101l0.481,0.164
				c0.156,0.053,0.329,0.078,0.509,0.078c0.609,0,1.295-0.277,1.664-0.619c0.476-0.442,0.582-1.651,0.19-2.156
				c-0.474-0.61-1.329-0.943-1.932-1.14c-6.106-1.999-10.337-6.127-12.577-12.27c-1.035-2.841-1.349-5.337-0.96-7.633
				c0.459-2.704,3.078-4.683,5.84-4.412c3.062,0.301,5.094,2.594,5.176,5.84c0.126,4.985,3.822,8.701,8.988,9.036
				c4.535,0.295,8.672-2.861,9.411-7.185c0.168-0.985,0.247-2.029,0.236-3.104C50.686,37.363,50.628,36.54,50.518,35.712z"/>
		</g>
	</g>
	<g id="www">
		<g>
			<path style="fill:#999999;" d="M39.124,21.101h-2.791L34.64,15.07l-1.729,6.032h-2.791l-2.646-9.615h3.007l1.296,6.05l1.747-6.05
				h2.269l1.729,6.05l1.296-6.05h2.989L39.124,21.101z"/>
			<path style="fill:#999999;" d="M54.046,21.101h-2.791l-1.692-6.032l-1.729,6.032h-2.791l-2.647-9.615h3.008l1.296,6.05
				l1.746-6.05h2.27l1.729,6.05l1.296-6.05h2.989L54.046,21.101z"/>
			<path style="fill:#999999;" d="M68.968,21.101h-2.791l-1.692-6.032l-1.729,6.032h-2.791l-2.647-9.615h3.008l1.296,6.05
				l1.746-6.05h2.27l1.729,6.05l1.296-6.05h2.989L68.968,21.101z"/>
		</g>
	</g>
</g>
<g id="Ebene_1">
</g>
</svg>
