<?xml version="1.0" encoding="utf-8"?>
<!-- Generator: Adobe Illustrator 19.2.1, SVG Export Plug-In . SVG Version: 6.00 Build 0)  -->
<svg version="1.1" id="Ebene_1" xmlns="http://www.w3.org/2000/svg" xmlns:xlink="http://www.w3.org/1999/xlink" x="0px" y="0px"
	 viewBox="0 0 80 71" style="enable-background:new 0 0 80 71;" xml:space="preserve">
<style type="text/css">
	.st0{fill:#999999;}
</style>
<g id="ibeacons-small">
	<g>
		<path class="st0" d="M40,1.1c-10.9,0-20.6,4.9-27.1,12.7l2.8,3C21.4,9.7,30.2,5.1,40,5.1c9.8,0,18.6,4.5,24.3,11.6l2.8-3
			C60.6,6,50.9,1.1,40,1.1z"/>
		<path class="st0" d="M40,8.2c-9,0-17.1,4.2-22.3,10.8l2.8,3C25,16.1,32,12.2,40,12.2c7.9,0,15,3.8,19.4,9.7l2.8-3
			C57,12.4,49,8.2,40,8.2z"/>
		<path class="st0" d="M40,15.3c-7.2,0-13.5,3.6-17.3,9l2.8,3c3.1-4.8,8.4-8,14.5-8c6.1,0,11.4,3.2,14.5,7.9l2.8-3
			C53.4,18.8,47.1,15.3,40,15.3z"/>
	</g>
	<g id="Bild_xA0_23">
		<path class="st0" d="M49.5,35c-0.4-4.8-4.4-8.6-9.3-8.6c-4.9,0-8.9,3.8-9.3,8.6H25l6,24h18l6-24H49.5z M40.2,30.4
			c2.7,0,4.9,2,5.2,4.6H34.9C35.3,32.4,37.5,30.4,40.2,30.4z M45.9,55H34.1l-4-16h19.8L45.9,55z"/>
	</g>
</g>
<g id="Ebene_1_1_">
</g>
</svg>
