<?xml version="1.0" encoding="iso-8859-1"?>
<!-- Generator: Adobe Illustrator 19.2.1, SVG Export Plug-In . SVG Version: 6.00 Build 0)  -->
<svg version="1.1" xmlns="http://www.w3.org/2000/svg" xmlns:xlink="http://www.w3.org/1999/xlink" x="0px" y="0px"
	 viewBox="0 0 74 56" style="enable-background:new 0 0 74 56;" xml:space="preserve">
<g id="appreferals-small">
	<g>
		<path style="fill:#999999;" d="M40,0H0v26.023l15.663-0.034L26,36l3.84-0.285l0.114-9.757L40,25.937V0z M36,22.012h-6L30,22
			l-1.475,0.012H26v7.989l-7.988-7.989H4V4h32V22.012z"/>
		<rect x="8" y="10" style="fill:#999999;" width="24" height="2"/>
		<rect x="8" y="14" style="fill:#999999;" width="14" height="2"/>
		<path style="fill:#999999;" d="M58.337,30.011L48,20l-3.84,0.285l-0.114,9.756L34,30.063V56h40V29.977L58.337,30.011z M70,52H38
			V33.902l6.001,0.016L44,34l4-0.032V26l7.95,7.951L70,33.988V52z"/>
		<rect x="42" y="40" style="fill:#999999;" width="24" height="2"/>
		<rect x="42" y="44" style="fill:#999999;" width="14" height="2"/>
	</g>
</g>
<g id="Ebene_1">
</g>
</svg>
