<?xml version="1.0" encoding="iso-8859-1"?>
<!-- Generator: Adobe Illustrator 19.2.1, SVG Export Plug-In . SVG Version: 6.00 Build 0)  -->
<svg version="1.1" xmlns="http://www.w3.org/2000/svg" xmlns:xlink="http://www.w3.org/1999/xlink" x="0px" y="0px"
	 viewBox="0 0 48 62" style="enable-background:new 0 0 48 62;" xml:space="preserve">
<g id="viral">
	<g>
		<path style="fill:#FFFFFF;" d="M40,60c-3.309,0-6-2.691-6-6c0-0.611,0.092-1.215,0.272-1.793l0.449-1.435l-0.011-0.008
			l1.148-1.099C36.983,48.592,38.454,48,40,48c3.309,0,6,2.691,6,6c0,1.529-0.582,2.988-1.64,4.11l-0.16,0.17l-0.021,0.035
			l-0.301,0.256C42.796,59.492,41.418,60,40,60z M40,37c-2.732,0-5.118-1.851-5.801-4.499L33.812,31H14.188l-0.387,1.501
			c-0.149,0.579-0.384,1.131-0.699,1.642l-1.012,1.641l-0.151-0.1l-1.059,0.58C10.001,36.745,9.005,37,8,37c-3.309,0-6-2.691-6-6
			s2.691-6,6-6c1.166,0,2.3,0.339,3.279,0.979l1.102,0.721l0.102-0.067l0.834,1.591c0.204,0.391,0.368,0.82,0.485,1.275l0.388,1.5
			h19.624l0.387-1.501C34.882,26.85,37.268,25,40,25c3.309,0,6,2.691,6,6S43.309,37,40,37z M40,14c-1.392,0-2.748-0.487-3.819-1.372
			l-1.143-0.944L35.015,11.7l-0.592-1.5C34.143,9.488,34,8.748,34,8c0-3.309,2.691-6,6-6s6,2.691,6,6S43.309,14,40,14z"/>
		<path style="fill:#3B4B72;" d="M40,4c2.206,0,4,1.794,4,4s-1.794,4-4,4c-1.189,0-2.04-0.497-2.545-0.914l-0.789-0.652
			l-0.383-0.969C36.095,8.989,36,8.496,36,8C36,5.794,37.794,4,40,4 M40,27c2.206,0,4,1.794,4,4s-1.794,4-4,4
			c-1.82,0-3.409-1.233-3.865-2.999L35.877,31l0.258-1.001C36.591,28.233,38.18,27,40,27 M8,27c0.776,0,1.531,0.226,2.183,0.653
			l0.876,0.573l0.485,0.927c0.134,0.255,0.242,0.54,0.32,0.846l0.258,1.002l-0.258,1c-0.1,0.386-0.256,0.752-0.463,1.089
			l-0.566,0.917L9.918,34.51C9.325,34.835,8.68,35,8,35c-2.206,0-4-1.794-4-4S5.794,27,8,27 M40,50c2.206,0,4,1.794,4,4
			c0,1.017-0.389,1.989-1.094,2.738l-0.172,0.182l-0.149,0.127C42.073,57.482,41.209,58,40,58c-2.206,0-4-1.794-4-4
			c0-0.409,0.061-0.811,0.181-1.196l0.303-0.968l0.757-0.724C37.992,50.395,38.972,50,40,50 M40,0c-4.418,0-8,3.582-8,8
			c0,1.037,0.204,2.025,0.563,2.934L12.374,24.306C11.116,23.483,9.615,23,8,23c-4.418,0-8,3.582-8,8s3.582,8,8,8
			c1.393,0,2.701-0.357,3.842-0.983l20.522,13.592C32.128,52.364,32,53.167,32,54c0,4.418,3.582,8,8,8
			c1.975,0,3.78-0.719,5.175-1.905l0.207,0.137l0.433-0.75C47.166,58.05,48,56.124,48,54c0-4.418-3.582-8-8-8
			c-2.144,0-4.086,0.848-5.522,2.221l-19.673-13.03c0.414-0.671,0.731-1.407,0.933-2.191h16.524c0.889,3.448,4.011,6,7.738,6
			c4.418,0,8-3.582,8-8s-3.582-8-8-8c-3.726,0-6.848,2.551-7.738,6H15.738c-0.154-0.597-0.37-1.168-0.65-1.702l19.82-13.127
			C36.291,15.313,38.065,16,40,16c4.418,0,8-3.582,8-8S44.418,0,40,0L40,0z"/>
	</g>
</g>
<g id="Ebene_1">
</g>
</svg>
