<svg id="Iphone_Outline" data-name="Iphone Outline" xmlns="http://www.w3.org/2000/svg" width="36.67mm" height="60.67mm" viewBox="0 0 103.94 171.97">
  <title>sc-icons-track-analyze</title>
  <g id="base">
    <path d="M89.37,4A10.53,10.53,0,0,1,99.94,14.47v143A10.53,10.53,0,0,1,89.37,168H14.56A10.53,10.53,0,0,1,4,157.5v-143A10.53,10.53,0,0,1,14.56,4H89.37m0-4H14.56A14.54,14.54,0,0,0,0,14.47v143A14.54,14.54,0,0,0,14.56,172H89.37a14.54,14.54,0,0,0,14.56-14.47v-143A14.54,14.54,0,0,0,89.37,0h0Z" fill="#ddd"/>
  </g>
  <g id="screen">
    <path d="M93.9,32l0,104-81.85-.06L12,32H93.9m1.7-2H10.33a0.3,0.3,0,0,0-.3.3L10.09,137.6a0.3,0.3,0,0,0,.3.3L95.63,138a0.3,0.3,0,0,0,.3-0.3l0-107.39a0.3,0.3,0,0,0-.3-0.3h0Z" fill="#ddd"/>
  </g>
  <g id="ear">
    <g id="ear-2" data-name="ear">
      <path d="M59.45,16.14H43.92c-2.11,0-2.93,3.84,0,3.84H59.45c2.93,0,2.11-3.84,0-3.84h0Z" fill="#ddd"/>
    </g>
  </g>
  <g id="camera">
    <g id="Camera-2" data-name="Camera">
      <ellipse cx="51.83" cy="9.89" rx="1.98" ry="1.97" fill="#ddd"/>
    </g>
  </g>
  <g id="Home_Button" data-name="Home Button">
    <g id="Base-2" data-name="Base">
      <path d="M52.78,145.79a7,7,0,1,1-7.06,7,7,7,0,0,1,7.06-7m0-2a9,9,0,1,0,9.06,9,9,9,0,0,0-9.06-9h0Z" fill="#ddd"/>
    </g>
  </g>
  <g id="Rechteck_79" data-name="Rechteck 79" style="isolation: isolate">
    <g>
      <path d="M54.94,74v34h-4V74h4m4-4h-12v42h12V70h0Z" fill="#3b4b72"/>
      <path d="M36.94,86v22h-4V86h4m4-4h-12v30h12V82h0Z" fill="#3b4b72"/>
      <path d="M72.94,60v48h-4V60h4m4-4h-12v56h12V56h0Z" fill="#3b4b72"/>
    </g>
  </g>
</svg>
