<?xml version="1.0" encoding="iso-8859-1"?>
<!-- Generator: Adobe Illustrator 19.2.1, SVG Export Plug-In . SVG Version: 6.00 Build 0)  -->
<svg version="1.1" xmlns="http://www.w3.org/2000/svg" xmlns:xlink="http://www.w3.org/1999/xlink" x="0px" y="0px"
	 viewBox="0 0 65.507 61.612" style="enable-background:new 0 0 65.507 61.612;" xml:space="preserve">
<g id="automessages-small">
	<g>
		<path style="fill:#999999;" d="M60.54,8.803c-0.29-0.637-0.622-1.209-1-1.714c1.134-2.484,1.7-4.001,1.7-4.551
			c0-0.088-0.045-0.165-0.134-0.231C58.439,0.769,57.06,0,56.973,0l-0.2,0.064c-0.912,0.903-1.933,2.133-3.067,3.694
			c-0.445-0.043-0.778-0.065-1.001-0.065c-0.222,0-0.554,0.022-1,0.065c-0.311-0.461-0.889-1.203-1.733-2.225
			C49.125,0.51,48.613,0,48.436,0c-0.045,0-0.378,0.177-1,0.527c-0.622,0.351-1.278,0.726-1.968,1.121
			c-0.689,0.396-1.078,0.616-1.167,0.66c-0.087,0.066-0.132,0.143-0.132,0.231c0,0.55,0.566,2.066,1.7,4.551
			c-0.377,0.505-0.712,1.077-1,1.714c-3.312,0.33-4.968,0.671-4.968,1.022v4.616c0,0.352,1.655,0.692,4.968,1.022
			c0.267,0.593,0.599,1.166,1,1.715c-1.134,2.484-1.7,4.001-1.7,4.549c0,0.088,0.045,0.165,0.132,0.231
			c2.713,1.561,4.09,2.34,4.135,2.34c0.177,0,0.689-0.515,1.534-1.548c0.844-1.033,1.422-1.781,1.733-2.243
			c0.445,0.046,0.778,0.067,1,0.067c0.224,0,0.556-0.021,1.001-0.067c0.311,0.462,0.889,1.21,1.733,2.243
			c0.844,1.033,1.356,1.548,1.534,1.548c0.043,0,1.422-0.779,4.133-2.34c0.089-0.066,0.134-0.143,0.134-0.231
			c0-0.548-0.566-2.065-1.7-4.549c0.399-0.549,0.733-1.122,1-1.715c3.312-0.33,4.968-0.67,4.968-1.022V9.825
			C65.507,9.474,63.852,9.133,60.54,8.803z M56.165,15.555c-0.958,0.946-2.112,1.419-3.465,1.419c-1.351,0-2.505-0.472-3.463-1.419
			c-0.958-0.946-1.436-2.087-1.436-3.425c0-1.311,0.484-2.448,1.456-3.408c0.969-0.958,2.116-1.438,3.443-1.438
			c1.328,0,2.476,0.481,3.445,1.438c0.969,0.96,1.456,2.096,1.456,3.408C57.601,13.468,57.121,14.61,56.165,15.555z"/>
		<rect x="7.969" y="37.647" style="fill:#999999;" width="14" height="2"/>
		<polygon style="fill:#999999;" points="32.031,31.553 8.031,31.616 8.031,33.459 32.031,33.459 		"/>
		<path style="fill:#999999;" d="M0,51.576h15.389l10.142,9.977l4.465,0.059l0.07-10.036H40V21.46H0V51.576z M4,25.522h32V47.55
			l-10.469-0.003v9.944l-7.776-9.973l-6.527-0.035l0.062,0.061L4,47.542V25.522z"/>
	</g>
</g>
<g id="Ebene_1">
</g>
</svg>
