<?xml version="1.0" encoding="iso-8859-1"?>
<!-- Generator: Adobe Illustrator 19.2.1, SVG Export Plug-In . SVG Version: 6.00 Build 0)  -->
<svg version="1.1" xmlns="http://www.w3.org/2000/svg" xmlns:xlink="http://www.w3.org/1999/xlink" x="0px" y="0px"
	 viewBox="0 0 56 56" style="enable-background:new 0 0 56 56;" xml:space="preserve">
<g id="marketinglinks-small">
	<g id="_x24_">
		<g>
			<path style="fill:#999999;" d="M28,0C12.536,0,0,12.536,0,28s12.536,28,28,28s28-12.536,28-28S43.464,0,28,0z M28,52
				C14.766,52,4,41.234,4,28C4,14.766,14.766,4,28,4c13.234,0,24,10.766,24,24C52,41.234,41.234,52,28,52z"/>
			<path style="fill:#999999;" d="M29.991,25.127v-4.576c1.344,0.32,2.304,0.992,3.264,2.272l3.488-2.016
				c-1.632-2.624-4.16-3.872-6.752-4.224V14.76h-1.92v1.728c-4.319,0.128-7.167,2.624-7.167,6.368c0,4.607,4.352,6.111,7.167,6.687
				v5.12c-1.76-0.225-3.424-1.088-4.416-3.264l-3.904,1.823c1.472,3.168,4.448,5.088,8.319,5.312v2.688h1.92v-2.72
				c4.607-0.385,7.168-3.2,7.168-6.688C37.159,27.527,33.255,25.896,29.991,25.127z M28.071,24.711
				c-1.632-0.416-2.624-0.96-2.624-2.271c0-1.44,1.248-1.984,2.624-2.048V24.711z M29.991,34.727v-4.735
				c1.632,0.352,2.688,0.928,2.688,2.336C32.679,33.639,31.815,34.535,29.991,34.727z"/>
		</g>
	</g>
</g>
<g id="Ebene_1">
</g>
</svg>
