<?xml version="1.0" encoding="iso-8859-1"?>
<!-- Generator: Adobe Illustrator 19.2.1, SVG Export Plug-In . SVG Version: 6.00 Build 0)  -->
<svg version="1.1" xmlns="http://www.w3.org/2000/svg" xmlns:xlink="http://www.w3.org/1999/xlink" x="0px" y="0px"
	 viewBox="0 0 48 62.001" style="enable-background:new 0 0 48 62.001;" xml:space="preserve">
<g id="print-small">
	<g>
		<path style="fill:#999999;" d="M44,9.999v48.002L10,58V9.999H44 M48,5.999H6V62l42,0.001V5.999L48,5.999z"/>
	</g>
	<g>
		<rect x="2" y="2" style="fill:#FFFFFF;" width="38" height="52"/>
		<path style="fill:#999999;" d="M38,4v48L4,52V4H38 M42,0H0v56L42,56V0L42,0z"/>
	</g>
	<g>
		<path style="fill:#999999;" d="M30,27.968v12l-18-0.001v-12H30 M34,23.968H8v19.999l26,0.001V23.968L34,23.968z"/>
	</g>
	<polygon style="fill:#999999;" points="26,31.499 20,39.5 14,35.499 8,43.5 34,43.5 	"/>
	<g>
		<polygon style="fill:#999999;" points="28,7.969 8,7.969 8,11.969 28,11.969 28,7.969 		"/>
	</g>
	<g>
		<path style="fill:#999999;" d="M34,15.969H8v4h26V15.969L34,15.969z"/>
	</g>
</g>
<g id="Ebene_1">
</g>
</svg>
