<?xml version="1.0" encoding="iso-8859-1"?>
<!-- Generator: Adobe Illustrator 19.2.1, SVG Export Plug-In . SVG Version: 6.00 Build 0)  -->
<svg version="1.1" xmlns="http://www.w3.org/2000/svg" xmlns:xlink="http://www.w3.org/1999/xlink" x="0px" y="0px"
	 viewBox="0 0 80 71" style="enable-background:new 0 0 80 71;" xml:space="preserve">
<g id="ibeacons-small">
	<g>
		<defs>
			<polygon id="SVGID_1_" points="52.25,29.625 27.654,29.625 0,0 80,0 			"/>
		</defs>
		<clipPath id="SVGID_2_">
			<use xlink:href="#SVGID_1_"  style="overflow:visible;"/>
		</clipPath>
		<g style="clip-path:url(#SVGID_2_);">
			<path style="fill:#999999;" d="M40,1.134c-19.569,0-35.433,15.864-35.433,35.433C4.567,56.136,20.431,72,40,72
				c19.569,0,35.433-15.864,35.433-35.433C75.433,16.998,59.569,1.134,40,1.134z M40,68C22.668,68,8.567,53.899,8.567,36.567
				S22.668,5.134,40,5.134s31.433,14.101,31.433,31.433S57.332,68,40,68z"/>
			<path style="fill:#999999;" d="M40,8.22c-15.655,0-28.346,12.691-28.346,28.346S24.345,64.913,40,64.913
				s28.346-12.691,28.346-28.346S55.655,8.22,40,8.22z M40,60.913c-13.425,0-24.346-10.922-24.346-24.346
				C15.654,23.142,26.575,12.22,40,12.22c13.425,0,24.346,10.922,24.346,24.346C64.346,49.992,53.425,60.913,40,60.913z"/>
			<path style="fill:#999999;" d="M40,15.307c-11.741,0-21.26,9.518-21.26,21.26c0,11.741,9.518,21.26,21.26,21.26
				s21.26-9.518,21.26-21.26C61.26,24.825,51.741,15.307,40,15.307z M40,53.827c-9.517,0-17.26-7.743-17.26-17.26
				c0-9.517,7.743-17.26,17.26-17.26c9.517,0,17.26,7.743,17.26,17.26C57.26,46.084,49.517,53.827,40,53.827z"/>
		</g>
	</g>
	<g id="Bild_xA0_23">
		<path style="fill:#999999;" d="M49.464,34.969c-0.368-4.806-4.376-8.594-9.276-8.594c-4.901,0-8.908,3.788-9.276,8.594H25l6,24h18
			l6-24H49.464z M40.188,30.375c2.683,0,4.885,2.007,5.24,4.594h-10.48C35.302,32.382,37.504,30.375,40.188,30.375z M45.877,54.969
			H34.123l-4-16h19.754L45.877,54.969z"/>
	</g>
</g>
<g id="Ebene_1">
</g>
</svg>
