<?xml version="1.0" encoding="iso-8859-1"?>
<!-- Generator: Adobe Illustrator 19.2.1, SVG Export Plug-In . SVG Version: 6.00 Build 0)  -->
<svg version="1.1" xmlns="http://www.w3.org/2000/svg" xmlns:xlink="http://www.w3.org/1999/xlink" x="0px" y="0px"
	 viewBox="0 0 60.585 52" style="enable-background:new 0 0 60.585 52;" xml:space="preserve">
<g id="socialmedia-small">
	<g>
		<path style="fill:#999999;" d="M11.562,12C5.177,12,0,17.373,0,24c0,6.076,4.355,11.084,10,11.878V52h10V36h4.681l17.303,12V0
			L24.68,12H11.562z M4,24c0-4.411,3.393-8,7.562-8h10.234v16H11.562C7.393,32,4,28.411,4,24z M16,48h-2V36h2V48z M37.984,40.358
			L26,32.047V15.953l11.984-8.311V40.358z"/>
		
			<rect x="45.181" y="9" transform="matrix(0.9191 -0.3939 0.3939 0.9191 -0.0641 21.6879)" style="fill:#999999;" width="15.232" height="4"/>
		<path style="fill:#999999;" d="M45.984,26.001h14v-4h-14V26.001z M47.984,24h10v0L47.984,24L47.984,24z"/>
		
			<rect x="50.797" y="30.718" transform="matrix(0.3939 -0.9191 0.9191 0.3939 -3.2355 71.7603)" style="fill:#999999;" width="4" height="15.232"/>
	</g>
</g>
<g id="Ebene_1">
</g>
</svg>
