<?xml version="1.0" encoding="iso-8859-1"?>
<!-- Generator: Adobe Illustrator 19.2.1, SVG Export Plug-In . SVG Version: 6.00 Build 0)  -->
<svg version="1.1" xmlns="http://www.w3.org/2000/svg" xmlns:xlink="http://www.w3.org/1999/xlink" x="0px" y="0px"
	 viewBox="0 0 60.007 57.945" style="enable-background:new 0 0 60.007 57.945;" xml:space="preserve">
<g id="be-sticky" style="enable-background:new    ;">
	<g id="Form_21">
		<g>
			<path style="fill:#3C4B73;" d="M24.949,12.833h19.656l-5.498,4.936l2.644,3.036l11.045-9.914L41.696,0l-2.776,2.916l5.977,5.862
				H24.949C11.192,8.778,0,20.142,0,34.11v2.287h3.993V34.11C3.993,22.378,13.394,12.833,24.949,12.833z M56.014,22.315v1.882
				c0,11.734-9.401,21.278-20.955,21.278H14.591l5.167-5.157l-2.8-2.89L6.849,47.518l10.668,10.426l2.769-2.921l-5.62-5.494h20.394
				c13.757,0,24.948-11.365,24.948-25.333v-1.882H56.014z"/>
		</g>
	</g>
</g>
<g id="Ebene_1">
</g>
</svg>
