<?xml version="1.0" encoding="utf-8"?>
<!-- Generator: Adobe Illustrator 19.1.0, SVG Export Plug-In . SVG Version: 6.00 Build 0)  -->
<svg version="1.1" id="Layer_1" xmlns="http://www.w3.org/2000/svg" xmlns:xlink="http://www.w3.org/1999/xlink" x="0px" y="0px"
	 width="538.2px" height="400.8px" viewBox="66 221.6 538.2 400.8" style="enable-background:new 66 221.6 538.2 400.8;"
	 xml:space="preserve">
<style type="text/css">
	.st0{fill:#E1E1E1;}
	.st1{opacity:0.6;}
	.st2{fill:#89B6CD;}
	.st3{opacity:0.6;fill:#E1E1E1;enable-background:new    ;}
	.st4{fill:#FFFFFF;}
	.st5{fill:#F8F8F8;}
	.st6{fill:#DDDDDD;}
	.st7{opacity:0.5;fill:#FFFFFF;enable-background:new    ;}
	.st8{fill:none;}
</style>
<polygon class="st0" points="326,540.9 326,574.9 185,574.9 185,540.9 88,540.9 88,575.9 426,575.9 426,540.9 "/>
<g class="st1">
	<rect x="220" y="501.9" class="st0" width="32" height="1"/>
	<rect x="260" y="501.9" class="st0" width="32" height="1"/>
</g>
<rect x="378" y="384.9" class="st0" width="1" height="120"/>
<g>
	<path class="st2" d="M296.7,317.1c-1.2,0-2,0.8-2.1,1.8h4.2C298.7,317.9,297.8,317.1,296.7,317.1z"/>
	<path class="st2" d="M224.5,317.1c-1.9,0-3,1.5-3,3.5c0,1.9,1.1,3.5,3,3.5s2.9-1.5,2.9-3.5S226.3,317.1,224.5,317.1z"/>
	<path class="st2" d="M319,301.9c0-5.5-4.5-10-10-10H201c-5.5,0-10,4.5-10,10v36c0,5.5,4.5,10,10,10h108c5.5,0,10-4.5,10-10V301.9z"
		/>
</g>
<g>
	<path class="st0" d="M326.3,368.3v206.2h-141V368.3H326.3 M327.3,367.3h-143v208.2h143V367.3L327.3,367.3z"/>
</g>
<g>
	<path class="st0" d="M432.8,362v5.2H82.5V362H432.8 M433.8,361H81.5v7.2h352.4V361H433.8z"/>
</g>
<path class="st0" d="M410,504.9v-58v-1v-61h-63v120h-6v6h75v-6H410z M348,385.9h61v60h-61V385.9z M348,446.9h61v58h-61V446.9z
	 M415,509.9h-73v-4h5h1h61h1h5V509.9z"/>
<path class="st3" d="M168,504.9v-58v-1v-61h-63v120h-6v6h75v-6H168z M137,385.9h30v60h-30V385.9z M106,385.9h30v60h-30V385.9z
	 M106,446.9h30v58h1v-58h30v58h-61V446.9z M173,509.9h-73v-4h5.5h1h61h1h4.5V509.9z"/>
<path class="st0" d="M296,566.9v-153h-80.4l-0.2,153H207v9h97v-9H296z M216.6,414.9H295v152h-39v-134h-1v134h-38.6L216.6,414.9z
	 M303,574.9h-95v-7h47h1h47V574.9z"/>
<path class="st0" d="M301,411.9h-90.5l-10.3,22h111.1L301,411.9z"/>
<polygon class="st4" points="309.7,432.9 300.4,412.9 211.1,412.9 201.8,432.9 "/>
<g>
	<path class="st0" d="M300.7,381.1v23.5h-88.3v-23.5H300.7 M301.7,380.1h-90.3v25.5h90.3V380.1L301.7,380.1z"/>
</g>
<g>
	<path class="st0" d="M447.7,259v13.2H67V259H447.7 M448.7,258H66v15.2h382.7V258L448.7,258z"/>
</g>
<g>
	<rect x="88" y="271.9" class="st0" width="1" height="90"/>
	<polygon class="st0" points="427,271.9 427,574.9 89,574.9 89,367.9 88,367.9 88,575.9 428,575.9 428,271.9 	"/>
</g>
<g>
	<path class="st2" d="M253.1,246c-4.4,0-8.1,3.6-8.1,8s3.7,8,8.1,8c4.4,0,7.9-3.6,7.9-8C260.9,249.6,257.5,246,253.1,246z
		 M253.1,259c-2.8,0-5.1-2.2-5.1-5c0-2.8,2.4-5,5.1-5c2.8,0,4.9,2.2,4.9,5C257.9,256.7,255.8,259,253.1,259z"/>
	<path class="st2" d="M253,240.5c5.9,0,11,2.8,14.2,7.1c0.8-0.6,1.6-1.2,2.4-1.8c-3.7-5-9.7-8.3-16.7-8.3c-6.9,0-13.1,3.2-17.1,8.2
		c0.7,0.7,1.4,1.4,2.2,2.1C241.5,243.4,247,240.5,253,240.5z"/>
	<path class="st2" d="M253,232.2c8.6,0,16.2,4.1,21,10.4c0.8-0.6,1.6-1.2,2.4-1.8c-5.4-7-13.9-11.6-23.5-11.6
		c-9.2,0-17.4,4.3-22.8,10.9c0.7,0.7,1.5,1.4,2.2,2.1C237.2,236.1,244.7,232.2,253,232.2z"/>
	<path class="st2" d="M253,224.6c11.1,0,20.8,5.5,26.6,14c0.8-0.6,1.6-1.2,2.4-1.8c-6.3-9.2-16.9-15.2-29-15.2
		c-11.4,0-21.6,5.3-28.3,13.5c0.8,0.7,1.5,1.3,2.3,2C233.1,229.5,242.6,224.6,253,224.6z"/>
</g>
<g>
	<path class="st4" d="M215,320.9v4.9h-1.7v-4.9l-4.6-7.1h2l3.5,5.6l3.5-5.6h1.9L215,320.9z"/>
	<path class="st4" d="M223.8,326c-2.8,0-4.6-2.1-4.6-4.9s1.8-4.9,4.6-4.9s4.6,2.1,4.6,4.9C228.4,323.9,226.7,326,223.8,326z
		 M223.8,317.6c-1.9,0-3,1.5-3,3.5c0,1.9,1.1,3.5,3,3.5s2.9-1.5,2.9-3.5C226.8,319.1,225.7,317.6,223.8,317.6z"/>
	<path class="st4" d="M238.6,316.4v9.4H237v-1.5c-0.8,1.1-1.8,1.7-3.2,1.7c-2,0-3.3-1.3-3.3-3.5v-6h1.6v5.7c0,1.1,0.3,2.4,2.1,2.4
		c1.6,0,2.8-1.2,2.8-2.9v-5.2L238.6,316.4L238.6,316.4z"/>
	<path class="st4" d="M246.4,318c-0.3-0.2-0.6-0.3-1.1-0.3c-1.2,0-2.4,1.1-2.4,3.1v4.9h-1.6v-9.4h1.6v1.6c0.6-1,1.6-1.8,2.7-1.8
		c0.5,0,1,0.2,1.3,0.3L246.4,318z"/>
	<path class="st4" d="M262.6,316l-2.1,1.3c-0.7-1-1.9-1.4-3-1.4c-1,0-1.7,0.4-1.7,1.1c0,0.9,1.2,1.1,2.4,1.3
		c2.5,0.5,4.6,1.2,4.6,3.7c0,2.3-1.8,4-5,4c-2.6,0-4.6-1.1-5.6-3l2.3-1.2c0.8,1.4,2.1,1.9,3.4,1.9c1.3,0,2.1-0.5,2.1-1.2
		c0-1-1.2-1.2-2.6-1.4c-2.4-0.4-4.5-1.2-4.5-3.7c0-2.3,1.9-3.7,4.6-3.7C259.4,313.5,261.4,314.2,262.6,316z"/>
	<path class="st4" d="M271.1,325.1c-0.7,0.5-1.5,0.8-2.7,0.8c-1.2,0-2.2-0.4-2.7-1.2c-0.4-0.6-0.6-1.2-0.6-2.2v-4.3h-1.5v-2.1h1.5
		v-2.4h2.8v2.4h2.7v2.1h-2.7v4.3c0,0.7,0.4,1,1,1c0.5,0,0.9-0.2,1.2-0.4L271.1,325.1z"/>
	<path class="st4" d="M277,326c-3.1,0-5.1-2-5.1-5s2-5,5.1-5s5.1,2,5.1,5S280.1,326,277,326z M277,318.2c-1.4,0-2.2,1.1-2.2,2.7
		c0,1.6,0.8,2.7,2.2,2.7s2.2-1.1,2.2-2.7C279.2,319.3,278.4,318.2,277,318.2z"/>
	<path class="st4" d="M289.6,319c-0.3-0.2-0.6-0.3-1.1-0.3c-1.2,0-2,1-2,2.4v4.6h-2.8v-9.6h2.8v1.4c0.6-1,1.5-1.6,2.6-1.6
		c0.5,0,1,0.1,1.2,0.3L289.6,319z"/>
	<path class="st4" d="M300.7,321.7h-6.9c0.1,1.3,1,2,2.4,2c1.1,0,2-0.4,2.6-1.1l1.8,1.7c-1.1,1.1-2.5,1.8-4.6,1.8
		c-3.4,0-5.2-2.1-5.2-5s1.9-5.1,5-5.1s4.9,2,4.9,4.9C300.7,321.1,300.7,321.4,300.7,321.7z M298,319.8c-0.1-1.2-1-1.8-2.1-1.8
		c-1.2,0-2,0.7-2.1,1.8H298z"/>
</g>
<path class="st4" d="M538.4,303.5h-0.9l0.8-1.5H395.7c-15.3,0-27.8,12.4-27.8,27.7v282.1l1.6-2.9v2.9L538.4,303.5z"/>
<g id="Layer_2">
	<g>
		<g>
			<rect x="387.7" y="370.9" class="st5" width="175" height="251"/>
		</g>
		<g>
			<path class="st6" d="M387.2,370.4v252h176v-252H387.2z M562.2,621.4h-174v-250h174V621.4z"/>
		</g>
		<g id="Rectangle_21_1_">
			<rect x="396.2" y="441.4" class="st2" width="158" height="180"/>
		</g>
		<polygon class="st7" points="543.6,453 543,452.4 539.9,455.4 536.9,452.4 536.3,453 539.3,456 536.3,459 536.9,459.6 
			539.9,456.6 543,459.6 543.6,459 540.5,456 		"/>
		<g id="Special_offer__from_your_company_1_">
			<path class="st4" d="M423.9,505l-2.4,1.5c-0.8-1.1-2.1-1.6-3.3-1.6c-1.1,0-1.9,0.4-1.9,1.3c0,1,1.3,1.2,2.7,1.4
				c2.8,0.5,5.2,1.3,5.2,4.1c0,2.5-2,4.4-5.6,4.4c-2.9,0-5.1-1.2-6.2-3.3l2.5-1.3c0.9,1.5,2.3,2.1,3.8,2.1c1.4,0,2.3-0.5,2.3-1.4
				c0-1.1-1.3-1.3-2.9-1.6c-2.7-0.5-5-1.3-5-4.1c0-2.5,2.1-4.1,5.2-4.1C420.4,502.3,422.6,503,423.9,505z"/>
			<path class="st4" d="M429.1,505.2v1.2c0.9-1,2-1.5,3.3-1.5c3,0,4.9,2.4,4.9,5.6s-1.9,5.6-4.9,5.6c-1.3,0-2.4-0.5-3.3-1.4v4.7H426
				v-14.2L429.1,505.2L429.1,505.2z M431.6,513.4c1.6,0,2.4-1.4,2.4-2.9c0-1.6-0.8-2.9-2.4-2.9c-1.7,0-2.5,1.3-2.5,2.9
				C429.1,512.1,429.9,513.4,431.6,513.4z"/>
			<path class="st4" d="M449.5,511.3h-7.7c0.1,1.5,1.2,2.2,2.7,2.2c1.2,0,2.2-0.5,2.9-1.3l2,1.8c-1.2,1.2-2.8,2-5.1,2
				c-3.8,0-5.8-2.4-5.8-5.5c0-3.2,2.1-5.6,5.6-5.6c3.4,0,5.4,2.2,5.4,5.5C449.5,510.7,449.5,511.1,449.5,511.3z M446.5,509.2
				c-0.1-1.3-1.1-2-2.3-2c-1.3,0-2.3,0.8-2.4,2H446.5z"/>
			<path class="st4" d="M461,513.5c-0.9,1.5-2.4,2.6-4.7,2.6c-3.4,0-5.5-2.4-5.5-5.6s2.1-5.6,5.5-5.6c2.3,0,3.9,1.2,4.8,2.7
				l-2.4,1.4c-0.5-0.9-1.2-1.5-2.2-1.5c-1.5,0-2.4,1.3-2.4,3c0,1.8,0.9,3,2.5,3c1.1,0,1.7-0.6,2.3-1.5L461,513.5z"/>
			<path class="st4" d="M462.6,503.8v-2.3h3.1v2.3H462.6z M462.6,515.8v-10.7h3.1v10.7H462.6z"/>
			<path class="st4" d="M467.9,506.1c1.5-0.8,3-1.2,4.6-1.2c2.7,0,4.6,1,4.6,3.7v4.6c0,0.5,0.2,0.7,0.6,0.7c0.2,0,0.4,0,0.5-0.1
				l0.3,1.9c-0.4,0.3-1.2,0.4-1.7,0.4c-1,0-1.9-0.4-2.3-1.4c-0.8,1.1-2.1,1.4-3.4,1.4c-2.2,0-3.7-1.2-3.7-3.3c0-2.6,2.3-3.1,3.9-3.3
				c1.7-0.2,2.6-0.2,2.6-1s-1-1-1.7-1c-1.1,0-2.4,0.3-3.4,1L467.9,506.1z M474.1,510.7c-0.4,0.5-1.1,0.6-2,0.7
				c-0.8,0.1-1.5,0.3-1.5,1.3c0,0.8,0.6,1.2,1.5,1.2c1.1,0,2-0.6,2-2V510.7z"/>
			<path class="st4" d="M480,515.8v-14.3h3.1v14.3H480z"/>
			<path class="st4" d="M496,516.1c-3.5,0-5.7-2.2-5.7-5.6c0-3.3,2.2-5.6,5.7-5.6s5.7,2.3,5.7,5.6
				C501.7,513.8,499.5,516.1,496,516.1z M496,507.5c-1.6,0-2.4,1.3-2.4,3c0,1.8,0.9,3,2.4,3c1.6,0,2.4-1.3,2.4-3
				C498.4,508.7,497.6,507.5,496,507.5z"/>
			<path class="st4" d="M516.7,503.9c-0.2-0.1-0.7-0.2-1.2-0.2c-0.8,0-1.2,0.3-1.2,1v0.5h2.2v2.3h-2.2v8.4h-3.1v-8.4h-4v8.4h-3.1
				v-8.4h-1.7v-2.3h1.7v-0.4c0-2,1.3-3.4,3.9-3.4c0.7,0,1.3,0.1,1.9,0.2l-0.3,2.3c-0.2-0.1-0.7-0.2-1.2-0.2c-0.8,0-1.2,0.3-1.2,1
				v0.5h4v-0.4c0-2,1.3-3.4,3.9-3.4c0.7,0,1.3,0.1,1.9,0.2L516.7,503.9z"/>
			<path class="st4" d="M528.4,511.3h-7.7c0.1,1.5,1.2,2.2,2.7,2.2c1.2,0,2.2-0.5,2.9-1.3l2,1.8c-1.2,1.2-2.8,2-5.1,2
				c-3.8,0-5.8-2.4-5.8-5.5c0-3.2,2.1-5.6,5.6-5.6c3.4,0,5.4,2.2,5.4,5.5C528.5,510.7,528.5,511.1,528.4,511.3z M525.5,509.2
				c-0.1-1.3-1.1-2-2.3-2c-1.3,0-2.3,0.8-2.4,2H525.5z"/>
			<path class="st4" d="M536.8,508.4c-0.3-0.2-0.7-0.3-1.2-0.3c-1.3,0-2.2,1.1-2.2,2.6v5.2h-3.1v-10.7h3.1v1.6
				c0.7-1.1,1.7-1.8,2.8-1.8c0.5,0,1.1,0.1,1.4,0.3L536.8,508.4z"/>
			<path class="st4" d="M414.5,522.8c-0.2-0.1-0.5-0.1-0.9-0.1c-0.7,0-1,0.3-1,1v0.9h1.7v1h-1.7v6.3h-1.2v-6.3h-1.2v-1h1.2v-0.9
				c0-1.4,0.8-2,2.2-2c0.4,0,0.9,0.1,1.1,0.2L414.5,522.8z"/>
			<path class="st4" d="M419.7,525.8c-0.2-0.1-0.5-0.2-0.8-0.2c-1,0-1.9,0.9-1.9,2.4v3.8h-1.2v-7.3h1.2v1.2c0.5-0.8,1.2-1.4,2.1-1.4
				c0.4,0,0.8,0.1,1,0.3L419.7,525.8z"/>
			<path class="st4" d="M424.3,532c-2.2,0-3.6-1.6-3.6-3.8s1.4-3.8,3.6-3.8s3.6,1.6,3.6,3.8C427.8,530.4,426.5,532,424.3,532z
				 M424.3,525.5c-1.5,0-2.3,1.2-2.3,2.7s0.8,2.7,2.3,2.7s2.3-1.2,2.3-2.7C426.5,526.7,425.7,525.5,424.3,525.5z"/>
			<path class="st4" d="M429.5,531.8v-7.3h1.2v1.2c0.6-0.9,1.3-1.3,2.4-1.3s1.8,0.5,2.2,1.5c0.6-0.9,1.5-1.5,2.6-1.5
				c1.6,0,2.5,1,2.5,2.7v4.7h-1.2v-4.5c0-0.9-0.3-1.8-1.5-1.8s-2.1,0.9-2.1,2.2v4.1h-1.2v-4.5c0-0.9-0.2-1.8-1.5-1.8
				c-1.2,0-2,0.9-2,2.2v4.1L429.5,531.8L429.5,531.8z"/>
			<path class="st4" d="M449.5,532.2c-0.6,1.5-1.1,2.2-2.5,2.2c-0.6,0-1.1-0.1-1.5-0.4l0.5-0.9c0.3,0.2,0.5,0.3,0.9,0.3
				c0.7,0,1-0.5,1.3-1.1l0.2-0.4l-3.1-7.3h1.4l2.3,5.7l2.1-5.7h1.3L449.5,532.2z"/>
			<path class="st4" d="M456.8,532c-2.2,0-3.6-1.6-3.6-3.8s1.4-3.8,3.6-3.8s3.6,1.6,3.6,3.8C460.3,530.4,459,532,456.8,532z
				 M456.8,525.5c-1.5,0-2.3,1.2-2.3,2.7s0.8,2.7,2.3,2.7s2.3-1.2,2.3-2.7C459,526.7,458.2,525.5,456.8,525.5z"/>
			<path class="st4" d="M468.2,524.6v7.3H467v-1.2c-0.6,0.9-1.4,1.4-2.5,1.4c-1.6,0-2.5-1-2.5-2.7v-4.7h1.2v4.4
				c0,0.9,0.3,1.9,1.6,1.9c1.3,0,2.2-0.9,2.2-2.3v-4L468.2,524.6L468.2,524.6z"/>
			<path class="st4" d="M474.3,525.8c-0.2-0.1-0.5-0.2-0.8-0.2c-1,0-1.9,0.9-1.9,2.4v3.8h-1.2v-7.3h1.2v1.2c0.5-0.8,1.2-1.4,2.1-1.4
				c0.4,0,0.8,0.1,1,0.3L474.3,525.8z"/>
			<path class="st4" d="M485.7,530.5c-0.6,0.9-1.6,1.5-2.9,1.5c-2.2,0-3.5-1.6-3.5-3.8c0-2.2,1.4-3.8,3.5-3.8c1.3,0,2.3,0.6,2.9,1.5
				l-0.9,0.7c-0.4-0.7-1.1-1.1-1.9-1.1c-1.4,0-2.3,1.2-2.3,2.7c0,1.6,0.9,2.7,2.3,2.7c0.9,0,1.6-0.5,2-1.1L485.7,530.5z"/>
			<path class="st4" d="M490.2,532c-2.2,0-3.6-1.6-3.6-3.8s1.4-3.8,3.6-3.8s3.6,1.6,3.6,3.8C493.8,530.4,492.4,532,490.2,532z
				 M490.2,525.5c-1.5,0-2.3,1.2-2.3,2.7s0.8,2.7,2.3,2.7s2.3-1.2,2.3-2.7S491.7,525.5,490.2,525.5z"/>
			<path class="st4" d="M495.5,531.8v-7.3h1.2v1.2c0.6-0.9,1.3-1.3,2.4-1.3s1.8,0.5,2.2,1.5c0.6-0.9,1.5-1.5,2.6-1.5
				c1.6,0,2.5,1,2.5,2.7v4.7h-1.2v-4.5c0-0.9-0.3-1.8-1.5-1.8s-2.1,0.9-2.1,2.2v4.1h-1.2v-4.5c0-0.9-0.2-1.8-1.5-1.8
				c-1.2,0-2,0.9-2,2.2v4.1L495.5,531.8L495.5,531.8z"/>
			<path class="st4" d="M509.6,524.6v1.2c0.7-1,1.6-1.4,2.6-1.4c2.1,0,3.3,1.7,3.3,3.8c0,2.2-1.3,3.8-3.3,3.8c-1,0-1.9-0.4-2.6-1.4
				v3.6h-1.2v-9.7h1.2V524.6z M512,530.9c1.5,0,2.3-1.2,2.3-2.7s-0.7-2.7-2.3-2.7s-2.4,1.2-2.4,2.7S510.5,530.9,512,530.9z"/>
			<path class="st4" d="M524,531.8c-0.2,0.1-0.6,0.1-0.8,0.1c-0.7,0-1.3-0.3-1.4-1.2c-0.6,0.9-1.6,1.2-2.5,1.2
				c-1.5,0-2.5-0.8-2.5-2.2c0-1.7,1.5-2,2.5-2.2c1.1-0.2,2.3-0.2,2.3-1.1c0-0.8-0.9-1.1-1.7-1.1c-0.8,0-1.6,0.3-2.3,0.8l-0.6-0.9
				c0.9-0.6,1.8-0.9,2.9-0.9c1.7,0,2.8,0.7,2.8,2.4v3.4c0,0.5,0.2,0.8,0.6,0.8c0.2,0,0.3,0,0.4-0.1L524,531.8z M521.6,527.8
				c-0.5,0.6-1.2,0.6-2.1,0.8c-0.8,0.1-1.5,0.3-1.5,1.2s0.7,1.2,1.5,1.2c1.1,0,2.1-0.6,2.1-2V527.8z"/>
			<path class="st4" d="M525.2,531.8v-7.3h1.2v1.2c0.6-0.9,1.4-1.4,2.5-1.4c1.6,0,2.5,1,2.5,2.8v4.7h-1.2v-4.4
				c0-0.9-0.3-1.9-1.6-1.9c-1.2,0-2.2,0.9-2.2,2.3v4L525.2,531.8L525.2,531.8z"/>
			<path class="st4" d="M536.8,532.2c-0.6,1.5-1.1,2.2-2.5,2.2c-0.6,0-1.1-0.1-1.5-0.4l0.5-0.9c0.3,0.2,0.5,0.3,0.9,0.3
				c0.7,0,1-0.5,1.3-1.1l0.2-0.4l-3.1-7.3h1.4l2.3,5.7l2.1-5.7h1.3L536.8,532.2z"/>
		</g>
		<rect x="441.1" y="549.5" class="st8" width="67.2" height="27.9"/>
		<g>
			<path class="st4" d="M512.2,557.4h-74c-1.1,0-2,0.9-2,2v16c0,1.1,0.9,2,2,2h74c1.1,0,2-0.9,2-2v-16
				C514.2,558.3,513.3,557.4,512.2,557.4z M513.2,575.4c0,0.6-0.4,1-1,1h-74c-0.6,0-1-0.4-1-1v-16c0-0.6,0.4-1,1-1h74
				c0.6,0,1,0.4,1,1V575.4z"/>
			<rect x="446.9" y="563.2" class="st4" width="1.1" height="8"/>
			<polygon class="st4" points="459.1,569.9 457.5,564.9 456.6,564.9 455,569.9 453.8,564.9 452.6,564.9 454.4,571.2 455.5,571.2 
				457,566.3 458.6,571.2 459.7,571.2 461.4,564.9 460.4,564.9 			"/>
			<path class="st4" d="M467.9,570.4c-0.3,0-0.5-0.2-0.5-0.7v-3c0-1.4-1-2-2.4-2c-1,0-1.8,0.3-2.5,0.8l0.5,0.8
				c0.6-0.4,1.3-0.7,1.9-0.7c0.7,0,1.4,0.2,1.4,0.9c0,0.8-1,0.8-2,0.9c-0.9,0.1-2.2,0.4-2.2,1.9c0,1.2,0.8,1.9,2.1,1.9
				c0.8,0,1.6-0.3,2.1-1c0.1,0.7,0.6,1,1.2,1c0.2,0,0.5,0,0.7-0.1l-0.1-0.8C468.2,570.4,468.1,570.4,467.9,570.4z M466.4,568.8
				c0,1.2-0.9,1.7-1.8,1.7c-0.7,0-1.3-0.3-1.3-1.1s0.6-0.9,1.3-1.1c0.8-0.1,1.4-0.1,1.8-0.6V568.8z"/>
			<path class="st4" d="M472.7,564.8c-0.9,0-1.6,0.4-2.1,1.2v-1h-1v6.2h1v-3.5c0-1.2,0.8-1.9,1.9-1.9c1.2,0,1.4,0.9,1.4,1.6v3.8h1
				v-4C474.9,565.7,474,564.8,472.7,564.8z"/>
			<path class="st4" d="M479,570.4c-0.6,0-1-0.4-1-1.1v-3.5h2v-0.9h-2v-1.8h-1v1.8h-1v0.9h1.1v3.5c0,0.6,0.1,0.9,0.3,1.2
				c0.3,0.5,0.9,0.8,1.6,0.8c0.5,0,1-0.1,1.4-0.4l-0.4-0.8C479.7,570.2,479.4,570.4,479,570.4z"/>
			<path class="st4" d="M487,570.4c-0.6,0-1-0.4-1-1.1v-3.5h2v-0.9h-2v-1.8h-1v1.8h-1.1v0.9h1.1v3.5c0,0.6,0.1,0.9,0.3,1.2
				c0.3,0.5,0.9,0.8,1.6,0.8c0.5,0,1-0.1,1.4-0.4l-0.4-0.8C487.6,570.2,487.4,570.4,487,570.4z"/>
			<path class="st4" d="M492.5,564.8c-0.9,0-1.6,0.4-2.1,1.2v-3.4h-1v8.6h1v-3.5c0-1.2,0.8-1.9,1.9-1.9c1.2,0,1.4,0.9,1.4,1.6v3.8h1
				v-4C494.7,565.7,493.9,564.8,492.5,564.8z"/>
			<rect x="496.5" y="562.6" class="st4" width="1" height="1.1"/>
			<rect x="496.5" y="564.9" class="st4" width="1" height="6.2"/>
			<path class="st4" d="M501.8,567.5c-0.8-0.2-1.5-0.3-1.5-0.9c0-0.6,0.7-0.8,1.3-0.8c0.8,0,1.4,0.3,1.8,0.8l0.7-0.7
				c-0.5-0.5-1.4-1-2.5-1c-1.2,0-2.3,0.6-2.3,1.8s1,1.6,2.2,1.8s1.7,0.3,1.7,1s-0.6,1-1.5,1s-1.6-0.3-2.1-1l-0.8,0.6
				c0.6,0.9,1.5,1.3,2.8,1.3c1.6,0,2.6-0.8,2.6-2C504.2,568,503,567.7,501.8,567.5z"/>
		</g>
		<g id="Ellipse_40_1_">
			<g>
				<path class="st4" d="M474.2,466.9c-13.5,0-24.5-11-24.5-24.5s11-24.5,24.5-24.5s24.5,11,24.5,24.5S487.7,466.9,474.2,466.9z"/>
			</g>
			<g>
				<path class="st6" d="M474.2,418.4c13.2,0,24,10.8,24,24c0,13.2-10.8,24-24,24s-24-10.8-24-24
					C450.2,429.2,460.9,418.4,474.2,418.4 M474.2,417.4c-13.8,0-25,11.2-25,25s11.2,25,25,25s25-11.2,25-25S488,417.4,474.2,417.4
					L474.2,417.4z"/>
			</g>
		</g>
		<g>
			<rect x="348.2" y="621.4" class="st6" width="256" height="1"/>
		</g>
		<g>
			<rect x="348.2" y="621.4" class="st6" width="256" height="1"/>
		</g>
		<g>
			<path class="st6" d="M491.7,343.2h-29.6c-2.3,0-4.1,1.8-4.1,4.1c0,2.3,1.8,4.1,4.1,4.1h29.6c2.3,0,4.1-1.8,4.1-4.1
				C495.8,345,493.9,343.2,491.7,343.2z M491.7,350.5h-29.6c-1.8,0-3.3-1.5-3.3-3.3c0-1.8,1.5-3.3,3.3-3.3h29.6
				c1.8,0,3.3,1.5,3.3,3.3C495,349,493.5,350.5,491.7,350.5z"/>
			<g>
				<path class="st6" d="M575.9,340v282.1h-1.5V340c0-14.5-11.8-26.2-26.3-26.2H405.5c-14.5,0-26.3,11.7-26.3,26.2v282.1h-1.6V340
					c0-15.3,12.5-27.7,27.8-27.7H548C563.4,312.3,575.9,324.7,575.9,340z"/>
				<path class="st4" d="M548.1,313.8H405.5c-14.5,0-26.3,11.7-26.3,26.2v281.4h7.9v-251h176v251h11.2V340
					C574.4,325.5,562.5,313.8,548.1,313.8z M476.9,327.7c2.1,0,3.8,1.7,3.8,3.8s-1.7,3.8-3.8,3.8c-2.1,0-3.8-1.7-3.8-3.8
					S474.8,327.7,476.9,327.7z M491.7,351.3h-29.6c-2.3,0-4.1-1.8-4.1-4.1c0-2.3,1.8-4.1,4.1-4.1h29.6c2.3,0,4.1,1.8,4.1,4.1
					C495.8,349.5,493.9,351.3,491.7,351.3z"/>
			</g>
			<path class="st6" d="M480.7,331.5c0,2.1-1.7,3.8-3.8,3.8c-2.1,0-3.8-1.7-3.8-3.8s1.7-3.8,3.8-3.8S480.7,329.4,480.7,331.5z"/>
		</g>
	</g>
</g>
</svg>
