<?xml version="1.0" encoding="utf-8"?>
<!-- Generator: Adobe Illustrator 19.1.0, SVG Export Plug-In . SVG Version: 6.00 Build 0)  -->
<svg version="1.1" id="Layer_1" xmlns="http://www.w3.org/2000/svg" xmlns:xlink="http://www.w3.org/1999/xlink" x="0px" y="0px"
	 width="640px" height="502px" viewBox="22 169.9 640 502" style="enable-background:new 22 169.9 640 502;" xml:space="preserve">
<style type="text/css">
	.st0{fill:#DDDDDD;}
	.st1{opacity:0.502;}
	.st2{fill:#EEEEEE;}
	.st3{fill:#89B6CD;}
	.st4{fill:#FFFFFF;}
	.st5{fill:#666666;}
	.st6{fill:#999999;}
	.st7{fill:#FFCC66;}
	.st8{fill:#CCCCCC;}
	.st9{fill:#F8F8F8;}
	.st10{fill:#222222;}
	.st11{fill:#F6F6F6;}
</style>
<g id="ear">
	<path class="st0" d="M214.4,322.3c2.4,0,4.4,2,4.4,4.4s-2,4.4-4.4,4.4h-39.3c-2.4,0-4.4-2-4.4-4.4s2-4.4,4.4-4.4H214.4
		 M214.4,321.3h-39.3c-3,0-5.4,2.4-5.4,5.4s2.4,5.4,5.4,5.4h39.3c3,0,5.4-2.4,5.4-5.4C219.8,323.7,217.4,321.3,214.4,321.3
		L214.4,321.3z"/>
</g>
<path class="st0" d="M65.1,642.6V317.1c0-19.2,15.6-34.8,34.9-34.8h189.3c19.2,0,34.9,15.6,34.9,34.8v325.5h2V317.1
	c0-20.3-16.5-36.8-36.9-36.8H99.9c-20.3,0-36.9,16.5-36.9,36.8v325.5H65.1z"/>
<path class="st0" d="M76.8,642.6V359.2h231l-0.1,283.4h1l0.1-283.6c0-0.4-0.3-0.8-0.8-0.8H76.5c-0.4,0-0.8,0.3-0.8,0.8v283.6H76.8z"
	/>
<g id="Camera_2_">
	<circle class="st0" cx="194.8" cy="305.8" r="5"/>
</g>
<g id="ear_1_">
	<path class="st0" d="M504.4,322.3c2.4,0,4.4,2,4.4,4.4s-2,4.4-4.4,4.4h-39.3c-2.4,0-4.4-2-4.4-4.4s2-4.4,4.4-4.4H504.4
		 M504.4,321.3h-39.3c-3,0-5.4,2.4-5.4,5.4s2.4,5.4,5.4,5.4h39.3c3,0,5.4-2.4,5.4-5.4S507.4,321.3,504.4,321.3L504.4,321.3z"/>
</g>
<path class="st0" d="M355.1,642.6V317.1c0-19.2,15.6-34.8,34.9-34.8h189.3c19.2,0,34.9,15.6,34.9,34.8v325.5h2V317.1
	c0-20.3-16.5-36.8-36.9-36.8H389.9c-20.3,0-36.9,16.5-36.9,36.8v325.5H355.1z"/>
<path class="st0" d="M366.8,642.6V359.2h231l-0.1,283.4h1l0.1-283.6c0-0.4-0.3-0.8-0.8-0.8H366.5c-0.4,0-0.8,0.3-0.8,0.8v283.6
	H366.8z"/>
<g id="Camera_1_">
	<circle class="st0" cx="484.8" cy="305.8" r="5"/>
</g>
<g id="Rechteck_27" class="st1">
	<g>
		<polygon class="st2" points="77,358.9 77,443.9 307.6,444 307.6,359 		"/>
	</g>
</g>
<g id="Rechteck_23">
	<g>
		<path class="st3" d="M142.1,371.8h-50c-2.8,0-5,2.2-5,5v50c0,2.8,2.2,5,5,5h50c2.8,0,5-2.2,5-5v-50
			C147.1,374.1,144.9,371.8,142.1,371.8z"/>
	</g>
</g>
<g>
	<path class="st4" d="M101.7,394.8v4.1h-1.8v-4.1l-3.9-6.1h2.1l2.7,4.5l2.7-4.5h2.1L101.7,394.8z"/>
	<path class="st4" d="M111,399.1c-3.1,0-5.1-2.3-5.1-5.3s1.9-5.3,5.1-5.3s5.1,2.3,5.1,5.3S114.1,399.1,111,399.1z M111,390.2
		c-2,0-3.2,1.5-3.2,3.6s1.2,3.6,3.2,3.6s3.2-1.5,3.2-3.6S113,390.2,111,390.2z"/>
	<path class="st4" d="M126.4,395c0,2.5-1.8,4.1-4.3,4.1s-4.3-1.5-4.3-4.1v-6.3h1.8v6.3c0,1.5,0.9,2.4,2.5,2.4c1.5,0,2.5-0.9,2.5-2.4
		v-6.3h1.8V395z"/>
	<path class="st4" d="M135.2,398.9l-2.1-3.9h-2.6v3.9h-1.8v-10.2h4.6c2.2,0,3.6,1.2,3.6,3.1c0,1.5-0.9,2.4-2,2.9l2.3,4.2H135.2z
		 M133.3,390.3h-2.7v3.2h2.8c1,0,1.7-0.6,1.7-1.6S134.4,390.3,133.3,390.3z"/>
	<path class="st4" d="M108.8,417.3l-0.5-1.9H105l-0.5,1.9h-3.2l3.6-10.2h3.5l3.6,10.2H108.8z M106.7,409.4l-1,3.7h2.1L106.7,409.4z"
		/>
	<path class="st4" d="M117.9,414.3h-2v3H113v-10.2h4.9c2.4,0,4,1.4,4,3.6S120.4,414.3,117.9,414.3z M117.9,409.7h-2v2.1h2
		c0.6,0,1.1-0.3,1.1-1S118.5,409.7,117.9,409.7z"/>
	<path class="st4" d="M128.1,414.3h-2v3h-2.9v-10.2h4.9c2.4,0,4,1.4,4,3.6S130.5,414.3,128.1,414.3z M128,409.7h-2v2.1h2
		c0.6,0,1.1-0.3,1.1-1S128.6,409.7,128,409.7z"/>
</g>
<g>
	<path class="st5" d="M160.8,380.2v2.8H159v-2.8l-2.8-4.6h2.1l1.7,2.9l1.7-2.9h2L160.8,380.2z"/>
	<path class="st5" d="M166.2,383.1c-1.9,0-3.1-1.2-3.1-3.1c0-1.8,1.2-3.1,3.1-3.1s3.1,1.2,3.1,3.1
		C169.3,381.9,168.1,383.1,166.2,383.1z M166.2,378.4c-0.9,0-1.3,0.7-1.3,1.7s0.5,1.7,1.3,1.7c0.9,0,1.3-0.7,1.3-1.7
		S167.1,378.4,166.2,378.4z"/>
	<path class="st5" d="M175.8,377.1v5.9h-1.7v-0.7c-0.5,0.5-1.1,0.8-1.8,0.8c-1.3,0-2-0.9-2-2.1v-3.9h1.7v3.5c0,0.5,0.2,1,0.9,1
		c0.6,0,1.1-0.4,1.1-1.2V377L175.8,377.1L175.8,377.1z"/>
	<path class="st5" d="M180.8,378.9c-0.2-0.1-0.4-0.2-0.7-0.2c-0.7,0-1.2,0.6-1.2,1.5v2.9h-1.7v-5.9h1.7v0.9c0.4-0.6,0.9-1,1.6-1
		c0.3,0,0.6,0.1,0.8,0.2L180.8,378.9z"/>
	<path class="st5" d="M190.8,381.8c0,0.9-0.1,1.7-0.7,2.3c-0.7,0.8-1.8,0.9-2.8,0.9s-1.8-0.2-2.6-0.6l0.6-1.3
		c0.5,0.3,1.2,0.5,1.9,0.5c1,0,1.8-0.4,1.8-1.4v-0.4c-0.5,0.5-1.1,0.8-1.8,0.8c-1.6,0-2.7-1.2-2.7-2.8s1.1-2.9,2.7-2.9
		c0.8,0,1.4,0.3,1.8,0.8V377h1.7v4.8H190.8L190.8,381.8z M187.7,378.4c-0.9,0-1.3,0.6-1.3,1.4s0.5,1.5,1.3,1.5
		c0.9,0,1.4-0.6,1.4-1.5C189.1,379,188.6,378.4,187.7,378.4z"/>
	<path class="st5" d="M195.7,378.9c-0.2-0.1-0.4-0.2-0.7-0.2c-0.7,0-1.2,0.6-1.2,1.5v2.9h-1.7v-5.9h1.7v0.9c0.4-0.6,0.9-1,1.6-1
		c0.3,0,0.6,0.1,0.8,0.2L195.7,378.9z"/>
	<path class="st5" d="M202.5,380.5h-4.2c0.1,0.8,0.6,1.2,1.5,1.2c0.7,0,1.2-0.3,1.6-0.7l1.1,1c-0.7,0.7-1.5,1.1-2.8,1.1
		c-2.1,0-3.2-1.3-3.2-3c0-1.8,1.1-3.1,3.1-3.1c1.9,0,3,1.2,3,3C202.6,380.2,202.5,380.4,202.5,380.5z M200.9,379.3
		c-0.1-0.7-0.6-1.1-1.3-1.1s-1.2,0.4-1.3,1.1H200.9z"/>
	<path class="st5" d="M203.4,377.6c0.8-0.5,1.6-0.7,2.6-0.7c1.5,0,2.5,0.6,2.5,2.1v2.5c0,0.3,0.1,0.4,0.3,0.4c0.1,0,0.2,0,0.3-0.1
		l0.2,1.1c-0.2,0.1-0.6,0.2-0.9,0.2c-0.6,0-1.1-0.2-1.2-0.8c-0.4,0.6-1.2,0.8-1.9,0.8c-1.2,0-2-0.7-2-1.8c0-1.4,1.2-1.7,2.2-1.8
		c0.9-0.1,1.4-0.1,1.4-0.6s-0.5-0.6-0.9-0.6c-0.6,0-1.3,0.2-1.9,0.6L203.4,377.6z M206.8,380.1c-0.2,0.3-0.6,0.3-1.1,0.4
		c-0.4,0.1-0.8,0.2-0.8,0.7s0.3,0.7,0.8,0.7c0.6,0,1.1-0.3,1.1-1.1V380.1z"/>
	<path class="st5" d="M214.1,382.6c-0.4,0.3-0.9,0.5-1.6,0.5c-0.8,0-1.3-0.2-1.7-0.7c-0.2-0.4-0.3-0.8-0.3-1.4v-2.7h-0.9V377h0.9
		v-1.5h1.7v1.5h1.7v1.3h-1.7v2.7c0,0.5,0.2,0.6,0.6,0.6c0.3,0,0.5-0.1,0.7-0.3L214.1,382.6z"/>
	<path class="st5" d="M217.7,377.6c0.8-0.5,1.6-0.7,2.6-0.7c1.5,0,2.5,0.6,2.5,2.1v2.5c0,0.3,0.1,0.4,0.3,0.4c0.1,0,0.2,0,0.3-0.1
		l0.2,1.1c-0.2,0.1-0.6,0.2-0.9,0.2c-0.6,0-1.1-0.2-1.2-0.8c-0.4,0.6-1.2,0.8-1.9,0.8c-1.2,0-2-0.7-2-1.8c0-1.4,1.2-1.7,2.2-1.8
		c0.9-0.1,1.4-0.1,1.4-0.6s-0.5-0.6-1-0.6c-0.6,0-1.3,0.2-1.9,0.6L217.7,377.6z M221.1,380.1c-0.2,0.3-0.6,0.3-1.1,0.4
		c-0.4,0.1-0.8,0.2-0.8,0.7s0.3,0.7,0.8,0.7c0.6,0,1.1-0.3,1.1-1.1V380.1z"/>
	<path class="st5" d="M226,377.1v0.7c0.5-0.5,1.1-0.8,1.8-0.8c1.7,0,2.7,1.3,2.7,3.1c0,1.8-1,3.1-2.7,3.1c-0.7,0-1.3-0.3-1.8-0.8
		v2.6h-1.7v-7.8h1.7V377.1z M227.4,381.7c0.9,0,1.3-0.8,1.3-1.6c0-0.9-0.4-1.6-1.3-1.6c-0.9,0-1.4,0.7-1.4,1.6
		C226,380.9,226.5,381.7,227.4,381.7z"/>
	<path class="st5" d="M233.3,377.1v0.7c0.5-0.5,1.1-0.8,1.8-0.8c1.7,0,2.7,1.3,2.7,3.1c0,1.8-1,3.1-2.7,3.1c-0.7,0-1.3-0.3-1.8-0.8
		v2.6h-1.7v-7.8h1.7V377.1z M234.7,381.7c0.9,0,1.3-0.8,1.3-1.6c0-0.9-0.4-1.6-1.3-1.6c-0.9,0-1.4,0.7-1.4,1.6
		C233.3,380.9,233.8,381.7,234.7,381.7z"/>
	<path class="st5" d="M157.8,387.1v2.3c0.4-0.5,0.9-0.8,1.5-0.8c1.3,0,2,1,2,2.3s-0.8,2.3-2,2.3c-0.6,0-1.1-0.2-1.5-0.8v0.7h-0.9
		V387h0.9V387.1z M159.1,392.5c0.8,0,1.3-0.7,1.3-1.5s-0.4-1.5-1.3-1.5c-0.9,0-1.3,0.7-1.3,1.5S158.3,392.5,159.1,392.5z"/>
	<path class="st5" d="M164.4,393.4c-0.3,0.9-0.7,1.4-1.6,1.4c-0.4,0-0.7-0.1-1-0.3l0.4-0.7c0.2,0.1,0.3,0.2,0.5,0.2
		c0.4,0,0.5-0.3,0.7-0.6l0.1-0.2l-1.9-4.4h1.1l1.3,3.2l1.1-3.2h1L164.4,393.4z"/>
	<path class="st5" d="M171.4,393.4c-0.3,0.9-0.7,1.4-1.6,1.4c-0.4,0-0.7-0.1-1-0.3l0.4-0.7c0.2,0.1,0.3,0.2,0.5,0.2
		c0.4,0,0.5-0.3,0.7-0.6l0.1-0.2l-1.9-4.4h1.1l1.3,3.2l1.1-3.2h1L171.4,393.4z"/>
	<path class="st5" d="M175.8,393.3c-1.4,0-2.3-1-2.3-2.3c0-1.4,0.9-2.3,2.3-2.3c1.4,0,2.3,1,2.3,2.3S177.2,393.3,175.8,393.3z
		 M175.8,389.5c-0.8,0-1.3,0.7-1.3,1.5c0,0.9,0.5,1.5,1.3,1.5s1.3-0.7,1.3-1.5C177.1,390.1,176.6,389.5,175.8,389.5z"/>
	<path class="st5" d="M182.9,388.7v4.5H182v-0.6c-0.4,0.5-0.9,0.7-1.5,0.7c-1,0-1.5-0.7-1.5-1.7v-2.9h0.9v2.7c0,0.5,0.1,1,0.9,1
		c0.7,0,1.2-0.5,1.2-1.2v-2.5H182.9z"/>
	<path class="st5" d="M186.7,389.7c-0.1-0.1-0.3-0.1-0.5-0.1c-0.6,0-1.1,0.5-1.1,1.3v2.3h-0.9v-4.5h0.9v0.7c0.3-0.5,0.7-0.8,1.3-0.8
		c0.2,0,0.5,0.1,0.6,0.2L186.7,389.7z"/>
	<path class="st5" d="M193.7,392.3c-0.4,0.6-1,1-1.9,1c-1.4,0-2.2-1-2.2-2.3s0.9-2.3,2.2-2.3c0.9,0,1.5,0.4,1.8,1l-0.7,0.5
		c-0.2-0.4-0.6-0.7-1.1-0.7c-0.8,0-1.3,0.6-1.3,1.5s0.5,1.5,1.3,1.5c0.5,0,0.9-0.3,1.1-0.6L193.7,392.3z"/>
	<path class="st5" d="M196.5,393.3c-1.4,0-2.3-1-2.3-2.3c0-1.4,0.9-2.3,2.3-2.3c1.4,0,2.3,1,2.3,2.3
		C198.7,392.3,197.9,393.3,196.5,393.3z M196.5,389.5c-0.8,0-1.3,0.7-1.3,1.5c0,0.9,0.5,1.5,1.3,1.5s1.3-0.7,1.3-1.5
		C197.7,390.1,197.3,389.5,196.5,389.5z"/>
	<path class="st5" d="M199.7,393.2v-4.5h0.9v0.6c0.4-0.5,0.8-0.7,1.4-0.7c0.7,0,1.1,0.3,1.3,0.9c0.4-0.6,0.9-0.9,1.6-0.9
		c1,0,1.5,0.6,1.5,1.6v2.9h-0.9v-2.7c0-0.5-0.1-1-0.8-1c-0.6,0-1.1,0.5-1.1,1.2v2.5h-0.9v-2.7c0-0.5-0.1-1-0.8-1
		c-0.6,0-1.1,0.5-1.1,1.2v2.5h-1.1L199.7,393.2L199.7,393.2z"/>
	<path class="st5" d="M208.5,388.7v0.7c0.4-0.5,0.9-0.8,1.5-0.8c1.3,0,2,1,2,2.3s-0.8,2.3-2,2.3c-0.6,0-1.1-0.2-1.5-0.7v2.1h-0.9
		v-5.9H208.5z M209.8,392.5c0.9,0,1.3-0.7,1.3-1.5s-0.4-1.5-1.3-1.5c-0.8,0-1.3,0.7-1.3,1.5S209,392.5,209.8,392.5z"/>
	<path class="st5" d="M216.6,393.3c-0.4,0-0.8-0.2-0.9-0.7c-0.4,0.5-1,0.7-1.5,0.7c-0.9,0-1.5-0.5-1.5-1.4c0-1.1,1-1.3,1.7-1.4
		c0.6-0.1,1.1-0.1,1.1-0.6c0-0.4-0.5-0.6-0.9-0.6c-0.5,0-1,0.2-1.4,0.5l-0.4-0.7c0.6-0.4,1.1-0.5,1.8-0.5c1.1,0,1.8,0.4,1.8,1.5v2
		c0,0.3,0.1,0.4,0.3,0.4c0.1,0,0.2,0,0.2-0.1l0.1,0.6C217,393.2,216.8,393.3,216.6,393.3z M215.6,390.8c-0.3,0.3-0.6,0.3-1.1,0.4
		s-0.8,0.2-0.8,0.7s0.4,0.7,0.8,0.7c0.6,0,1.1-0.3,1.1-1.1V390.8z"/>
	<path class="st5" d="M217.9,393.2v-4.5h0.9v0.7c0.4-0.5,0.9-0.8,1.5-0.8c1,0,1.5,0.7,1.5,1.7v2.9h-0.9v-2.7c0-0.5-0.2-1-0.9-1
		s-1.2,0.5-1.2,1.2v2.5L217.9,393.2L217.9,393.2z"/>
	<path class="st5" d="M225.2,393.4c-0.3,0.9-0.7,1.4-1.6,1.4c-0.4,0-0.7-0.1-1-0.3l0.4-0.7c0.2,0.1,0.3,0.2,0.5,0.2
		c0.4,0,0.5-0.3,0.7-0.6l0.1-0.2l-1.9-4.4h1.1l1.3,3.2l1.1-3.2h1L225.2,393.4z"/>
</g>
<path class="st4" d="M294.3,414.4h-50c-2.5,0-4.5,2-4.5,4.5v7c0,2.5,2,4.5,4.5,4.5h50c2.5,0,4.5-2,4.5-4.5v-7
	C298.8,416.4,296.8,414.4,294.3,414.4z"/>
<path class="st6" d="M294.3,413.9h-50c-2.8,0-5,2.2-5,5v7c0,2.8,2.2,5,5,5h50c2.8,0,5-2.2,5-5v-7
	C299.3,416.1,297.1,413.9,294.3,413.9z M298.3,425.9c0,2.2-1.8,4-4,4h-50c-2.2,0-4-1.8-4-4v-7c0-2.2,1.8-4,4-4h50c2.2,0,4,1.8,4,4
	V425.9z"/>
<g>
	<path class="st5" d="M249.9,425.8v-6.2h1.5v6.2H249.9z"/>
	<path class="st5" d="M256.5,425.8l-2.3-4.3v4.3h-1.4v-6.2h1.9l2.3,4.2v-4.2h1.4v6.2H256.5z"/>
	<path class="st5" d="M264.5,420.8l-1.1,0.7c-0.4-0.5-1-0.7-1.6-0.7c-0.5,0-0.9,0.2-0.9,0.6c0,0.5,0.6,0.6,1.3,0.7
		c1.3,0.2,2.4,0.6,2.4,1.9c0,1.2-0.9,2.1-2.6,2.1c-1.4,0-2.4-0.6-2.9-1.6l1.2-0.6c0.4,0.7,1.1,1,1.8,1c0.7,0,1.1-0.2,1.1-0.6
		c0-0.5-0.6-0.6-1.4-0.7c-1.3-0.2-2.3-0.6-2.3-1.9c0-1.2,1-1.9,2.4-1.9C262.9,419.5,263.9,419.8,264.5,420.8z"/>
	<path class="st5" d="M268.6,420.9v4.9h-1.5v-4.9h-1.9v-1.3h5.4v1.3H268.6z"/>
	<path class="st5" d="M275,425.8l-0.4-1.3h-2.2l-0.4,1.3h-1.6l2.3-6.2h1.8l2.3,6.2H275z M273.4,420.9l-0.8,2.5h1.6L273.4,420.9z"/>
	<path class="st5" d="M277.3,425.8v-6.2h1.5v4.9h3.2v1.3L277.3,425.8L277.3,425.8z"/>
	<path class="st5" d="M282.7,425.8v-6.2h1.5v4.9h3.2v1.3L282.7,425.8L282.7,425.8z"/>
</g>
<g>
	<polygon class="st7" points="162.2,421.7 160.9,419.3 159.7,421.7 157.1,422.2 158.9,424.3 158.6,427 160.9,425.8 163.3,427 
		163,424.3 164.8,422.2 	"/>
	<polygon class="st7" points="172.4,421.7 171.1,419.3 169.9,421.7 167.3,422.2 169.1,424.3 168.8,427 171.1,425.8 173.5,427 
		173.2,424.3 175,422.2 	"/>
	<polygon class="st7" points="182.6,421.7 181.3,419.3 180.1,421.7 177.5,422.2 179.3,424.3 179,427 181.3,425.8 183.7,427 
		183.4,424.3 185.2,422.2 	"/>
	<polygon class="st7" points="192.8,421.7 191.5,419.3 190.3,421.7 187.7,422.2 189.5,424.3 189.2,427 191.5,425.8 193.9,427 
		193.6,424.3 195.4,422.2 	"/>
	<polygon class="st7" points="206.4,422.2 203.9,421.7 202.6,419.3 201.3,421.7 198.8,422.2 200.6,424.3 200.2,427 202.6,425.8 
		205,427 204.6,424.3 	"/>
</g>
<g id="Rechteck_33">
	<g>
		<rect x="377" y="439.9" class="st8" width="211" height="96"/>
	</g>
</g>
<g id="Ellipse_37">
	<path class="st9" d="M421.5,457.5c17,0,30.9,13.9,30.9,30.9s-13.9,30.9-30.9,30.9s-30.9-13.9-30.9-30.9S404.5,457.5,421.5,457.5
		 M421.5,456.5c-17.6,0-31.9,14.3-31.9,31.9s14.3,31.9,31.9,31.9s31.9-14.3,31.9-31.9C453.4,470.7,439.1,456.5,421.5,456.5
		L421.5,456.5z"/>
</g>
<g>
	<path class="st4" d="M471.3,514.2H468v-6.7h3.2c1.5,0,2.3,0.6,2.3,1.7c0,0.6-0.3,1.1-0.9,1.4c0.7,0.3,1.1,0.9,1.1,1.6
		C473.6,513.5,472.8,514.2,471.3,514.2z M471,508.9h-1.4v1.2h1.5c0.5,0,0.8-0.2,0.8-0.6C471.8,509.1,471.5,508.9,471,508.9z
		 M471.2,511.4h-1.6v1.4h1.6c0.5,0,0.8-0.3,0.8-0.7C472,511.7,471.7,511.4,471.2,511.4z"/>
	<path class="st4" d="M480.5,511.7c0,1.7-1.2,2.7-2.9,2.7c-1.8,0-2.9-1-2.9-2.7v-4.1h1.6v4.1c0,0.8,0.4,1.2,1.3,1.2
		c0.8,0,1.3-0.4,1.3-1.2v-4.1h1.6V511.7z"/>
	<path class="st4" d="M485.3,511.7v2.6h-1.6v-2.5l-2.6-4.1h1.9l1.5,2.6l1.5-2.6h1.8L485.3,511.7z"/>
	<path class="st4" d="M495.3,514.2l-2.5-4.6v4.6h-1.5v-6.7h2l2.4,4.5v-4.5h1.5v6.7H495.3z"/>
	<path class="st4" d="M501.6,514.4c-2.1,0-3.4-1.5-3.4-3.4s1.3-3.4,3.4-3.4s3.4,1.5,3.4,3.4C505.1,512.8,503.8,514.4,501.6,514.4z
		 M501.6,508.9c-1.1,0-1.7,0.9-1.7,2s0.6,2,1.7,2s1.8-0.9,1.8-2S502.8,508.9,501.6,508.9z"/>
	<path class="st4" d="M513,514.2h-1.7l-1.1-4.2l-1.1,4.2h-1.7l-1.8-6.7h1.7l1,4.4l1.2-4.4h1.4l1.2,4.4l1-4.4h1.8L513,514.2z"/>
	<path class="st4" d="M467.2,515.5V515H515v0.5H467.2z"/>
</g>
<g>
	<rect x="467" y="477.9" class="st4" width="67" height="5"/>
	<rect x="467" y="489.9" class="st4" width="50" height="5"/>
	<rect x="467" y="460.9" class="st4" width="105" height="10"/>
</g>
<g id="Rechteck_33_2_">
	<g>
		<rect x="487.2" y="546.6" class="st8" width="100.8" height="95.8"/>
	</g>
</g>
<g>
	<path class="st4" d="M498.5,634.9h-3.4v-6.7h3.2c1.5,0,2.3,0.6,2.3,1.7c0,0.6-0.3,1.1-0.9,1.4c0.7,0.3,1.1,0.9,1.1,1.6
		C500.8,634.1,499.9,634.9,498.5,634.9z M498.2,629.6h-1.4v1.2h1.5c0.5,0,0.8-0.2,0.8-0.6C499,629.8,498.7,629.6,498.2,629.6z
		 M498.4,632.1h-1.6v1.4h1.6c0.5,0,0.8-0.3,0.8-0.7C499.2,632.4,498.9,632.1,498.4,632.1z"/>
	<path class="st4" d="M507.6,632.3c0,1.7-1.2,2.7-2.9,2.7c-1.8,0-2.9-1-2.9-2.7v-4.1h1.6v4.1c0,0.8,0.4,1.2,1.3,1.2
		c0.8,0,1.3-0.4,1.3-1.2v-4.1h1.6V632.3z"/>
	<path class="st4" d="M512.4,632.3v2.6h-1.6v-2.5l-2.6-4.1h1.9l1.5,2.6l1.5-2.6h1.8L512.4,632.3z"/>
	<path class="st4" d="M522.4,634.9l-2.5-4.6v4.6h-1.5v-6.7h2l2.4,4.5v-4.5h1.5v6.7H522.4z"/>
	<path class="st4" d="M528.8,635c-2.1,0-3.4-1.5-3.4-3.4c0-1.9,1.3-3.4,3.4-3.4s3.4,1.5,3.4,3.4C532.2,633.5,530.9,635,528.8,635z
		 M528.8,629.6c-1.1,0-1.7,0.9-1.7,2c0,1.1,0.6,2,1.7,2s1.8-0.9,1.8-2C530.6,630.5,529.9,629.6,528.8,629.6z"/>
	<path class="st4" d="M540.1,634.9h-1.7l-1.1-4.2l-1.1,4.2h-1.7l-1.8-6.7h1.7l1,4.4l1.2-4.4h1.4l1.2,4.4l1-4.4h1.8L540.1,634.9z"/>
	<path class="st4" d="M494.4,636.2v-0.5h47.7v0.5H494.4z"/>
</g>
<g>
	<rect x="494" y="578.9" class="st4" width="50" height="5"/>
	<rect x="494" y="590.9" class="st4" width="50" height="5"/>
	<rect x="494" y="561.9" class="st4" width="75" height="10"/>
</g>
<g id="Rechteck_33_4_">
	<g>
		<rect x="377.2" y="546.6" class="st8" width="100.8" height="95.8"/>
	</g>
</g>
<g>
	<path class="st4" d="M388.5,634.9h-3.4v-6.7h3.2c1.5,0,2.3,0.6,2.3,1.7c0,0.6-0.3,1.1-0.9,1.4c0.7,0.3,1.1,0.9,1.1,1.6
		C390.8,634.1,389.9,634.9,388.5,634.9z M388.2,629.6h-1.4v1.2h1.5c0.5,0,0.8-0.2,0.8-0.6C389,629.8,388.7,629.6,388.2,629.6z
		 M388.4,632.1h-1.6v1.4h1.6c0.5,0,0.8-0.3,0.8-0.7C389.2,632.4,388.9,632.1,388.4,632.1z"/>
	<path class="st4" d="M397.6,632.3c0,1.7-1.2,2.7-2.9,2.7c-1.8,0-2.9-1-2.9-2.7v-4.1h1.6v4.1c0,0.8,0.4,1.2,1.3,1.2
		c0.8,0,1.3-0.4,1.3-1.2v-4.1h1.6V632.3z"/>
	<path class="st4" d="M402.4,632.3v2.6h-1.6v-2.5l-2.6-4.1h1.9l1.5,2.6l1.5-2.6h1.8L402.4,632.3z"/>
	<path class="st4" d="M412.4,634.9l-2.5-4.6v4.6h-1.5v-6.7h2l2.4,4.5v-4.5h1.5v6.7H412.4z"/>
	<path class="st4" d="M418.8,635c-2.1,0-3.4-1.5-3.4-3.4c0-1.9,1.3-3.4,3.4-3.4s3.4,1.5,3.4,3.4C422.2,633.5,420.9,635,418.8,635z
		 M418.8,629.6c-1.1,0-1.7,0.9-1.7,2c0,1.1,0.6,2,1.7,2s1.8-0.9,1.8-2C420.6,630.5,419.9,629.6,418.8,629.6z"/>
	<path class="st4" d="M430.1,634.9h-1.7l-1.1-4.2l-1.1,4.2h-1.7l-1.8-6.7h1.7l1,4.4l1.2-4.4h1.4l1.2,4.4l1-4.4h1.8L430.1,634.9z"/>
	<path class="st4" d="M384.4,636.2v-0.5h47.7v0.5H384.4z"/>
</g>
<g>
	<rect x="384" y="578.9" class="st4" width="50" height="5"/>
	<rect x="384" y="590.9" class="st4" width="50" height="5"/>
	<rect x="384" y="561.9" class="st4" width="75" height="10"/>
</g>
<g id="Rechteck_23_1_">
	<path class="st3" d="M583.9,369.8h-202c-2.8,0-5,2.3-5,5v49.9c0,2.8,2.2,5,5,5h202c2.8,0,5-2.3,5-5v-49.8
		C588.9,372.1,586.7,369.8,583.9,369.8z"/>
</g>
<g>
	<path class="st4" d="M450.3,401.2v4.1h-1.8v-4.1l-3.9-6.1h2.1l2.7,4.5l2.7-4.5h2.1L450.3,401.2z"/>
	<path class="st4" d="M459.6,405.5c-3.1,0-5.1-2.3-5.1-5.3s1.9-5.3,5.1-5.3s5.1,2.3,5.1,5.3S462.7,405.5,459.6,405.5z M459.6,396.6
		c-2,0-3.2,1.5-3.2,3.6s1.2,3.6,3.2,3.6s3.2-1.5,3.2-3.6C462.8,398.1,461.6,396.6,459.6,396.6z"/>
	<path class="st4" d="M475,401.4c0,2.5-1.8,4.1-4.3,4.1s-4.3-1.5-4.3-4.1v-6.3h1.8v6.3c0,1.5,0.9,2.4,2.5,2.4c1.5,0,2.5-0.9,2.5-2.4
		v-6.3h1.8V401.4z"/>
	<path class="st4" d="M483.9,405.3l-2.1-3.9h-2.6v3.9h-1.8v-10.2h4.6c2.2,0,3.6,1.2,3.6,3.1c0,1.5-0.9,2.4-2,2.9l2.3,4.2H483.9z
		 M482,396.7h-2.7v3.2h2.8c1,0,1.7-0.6,1.7-1.6S483,396.7,482,396.7z"/>
	<path class="st4" d="M498,405.3l-0.5-1.9h-3.3l-0.5,1.9h-3.2l3.6-10.2h3.5l3.6,10.2H498z M495.8,397.5l-1,3.7h2.1L495.8,397.5z"/>
	<path class="st4" d="M507.1,402.3h-2v3h-2.9v-10.2h4.9c2.4,0,4,1.4,4,3.6S509.5,402.3,507.1,402.3z M507,397.7h-2v2.1h2
		c0.6,0,1.1-0.3,1.1-1C508.1,398.1,507.6,397.7,507,397.7z"/>
	<path class="st4" d="M517.2,402.3h-2v3h-2.9v-10.2h4.9c2.4,0,4,1.4,4,3.6S519.6,402.3,517.2,402.3z M517.2,397.7h-2v2.1h2
		c0.6,0,1.1-0.3,1.1-1C518.3,398.1,517.8,397.7,517.2,397.7z"/>
</g>
<g>
	<path class="st0" d="M427,175.9v72H249v-72H427 M428,174.9H248v74h180V174.9L428,174.9z"/>
</g>
<g id="Look_what_I_found_today_x2C__that_x2019_s_awesome_x21__http:_x2F__x2F_scm.st_x2F_1jqrbfw">
	<path class="st10" d="M259.4,196.2v-10h1.1v9h5.7v1H259.4z"/>
	<path class="st10" d="M270.7,196.4c-2.3,0-3.7-1.8-3.7-4c0-2.3,1.4-4,3.7-4c2.3,0,3.7,1.7,3.7,4C274.5,194.7,273,196.4,270.7,196.4
		z M270.7,189.2c-1.7,0-2.7,1.4-2.7,3.1c0,1.7,1,3.1,2.7,3.1c1.7,0,2.7-1.4,2.7-3.1C273.4,190.6,272.4,189.2,270.7,189.2z"/>
	<path class="st10" d="M279.6,196.4c-2.3,0-3.7-1.8-3.7-4c0-2.3,1.4-4,3.7-4c2.3,0,3.7,1.7,3.7,4
		C283.3,194.7,281.9,196.4,279.6,196.4z M279.6,189.2c-1.7,0-2.7,1.4-2.7,3.1c0,1.7,1,3.1,2.7,3.1c1.7,0,2.7-1.4,2.7-3.1
		C282.3,190.6,281.3,189.2,279.6,189.2z"/>
	<path class="st10" d="M290.5,188.5h1.3l-3.2,3.2l3.7,4.5H291l-3.1-3.9l-1.6,1.6v2.3h-1v-10.7h1v7.3L290.5,188.5z"/>
	<path class="st10" d="M305.3,196.2h-1.1l-2.1-6.5l-2.1,6.5h-1.1l-2.1-7.7h1l1.8,6.6l2.1-6.6h1l2.1,6.6l1.8-6.6h0.9L305.3,196.2z"/>
	<path class="st10" d="M309.1,196.2v-10.7h1v4.4c0.7-1,1.5-1.6,2.8-1.6c1.6,0,2.7,1,2.7,3v4.9h-1v-4.7c0-1-0.3-2.3-1.9-2.3
		c-1.5,0-2.6,1.1-2.6,2.7v4.2L309.1,196.2L309.1,196.2z"/>
	<path class="st10" d="M324.2,196.4c-0.7,0-1.4-0.4-1.5-1.3c-0.7,1.1-1.8,1.4-2.7,1.4c-1.6,0-2.6-0.9-2.6-2.3c0-1.8,1.6-2.1,2.6-2.3
		c1.3-0.2,2.7-0.2,2.7-1.3c0-0.9-1-1.3-1.9-1.3s-1.7,0.3-2.4,0.8l-0.5-0.7c0.8-0.6,1.8-1,3-1c1.7,0,2.9,0.8,2.9,2.5v3.8
		c0,0.6,0.2,0.9,0.7,0.9c0.2,0,0.4,0,0.5-0.1l0.1,0.8C324.7,196.3,324.4,196.4,324.2,196.4z M322.7,191.7c-0.6,0.8-1.5,0.7-2.5,0.9
		s-1.8,0.4-1.8,1.4s0.8,1.5,1.8,1.5c1.2,0,2.5-0.7,2.5-2.3V191.7z"/>
	<path class="st10" d="M330.6,195.9c-0.4,0.3-0.9,0.5-1.5,0.5c-0.9,0-1.6-0.3-1.9-1c-0.2-0.3-0.3-0.7-0.3-1.4v-4.6h-1.4v-0.9h1.4
		v-2.3h1v2.3h2.6v0.9h-2.6v4.6c0,1,0.4,1.5,1.3,1.5c0.5,0,0.8-0.2,1-0.3L330.6,195.9z"/>
	<path class="st10" d="M336.3,196.2v-10h1v10H336.3z"/>
	<path class="st10" d="M347.7,186.4c-0.3-0.1-0.6-0.1-1-0.1c-0.8,0-1.2,0.3-1.2,1.1v1.1h1.9v0.9h-1.9v6.8h-1v-6.8h-1.4v-0.9h1.4
		v-1.1c0-1.5,0.9-2,2.1-2c0.4,0,0.9,0.1,1.1,0.2V186.4z"/>
	<path class="st10" d="M352.2,196.4c-2.3,0-3.7-1.8-3.7-4c0-2.3,1.4-4,3.7-4c2.3,0,3.7,1.7,3.7,4
		C355.9,194.7,354.4,196.4,352.2,196.4z M352.2,189.2c-1.7,0-2.7,1.4-2.7,3.1c0,1.7,1,3.1,2.7,3.1s2.7-1.4,2.7-3.1
		C354.8,190.6,353.9,189.2,352.2,189.2z"/>
	<path class="st10" d="M364.2,188.5v7.7h-1v-1.4c-0.7,1-1.5,1.6-2.8,1.6c-1.6,0-2.7-1-2.7-3v-4.9h1v4.7c0,1,0.3,2.3,1.9,2.3
		c1.5,0,2.6-1.1,2.6-2.7v-4.2L364.2,188.5L364.2,188.5z"/>
	<path class="st10" d="M366.7,196.2v-7.7h1v1.4c0.7-1,1.5-1.6,2.8-1.6c1.6,0,2.7,1,2.7,3v4.9h-1v-4.7c0-1-0.3-2.3-1.9-2.3
		c-1.5,0-2.6,1.1-2.6,2.7v4.2L366.7,196.2L366.7,196.2z"/>
	<path class="st10" d="M381.5,196.2v-1.4c-0.8,1.2-1.8,1.6-2.9,1.6c-2.2,0-3.6-1.8-3.6-4c0-2.3,1.4-4,3.6-4c1.1,0,2.1,0.4,2.9,1.6
		v-4.4h1v10.7L381.5,196.2L381.5,196.2z M378.7,189.3c-1.8,0-2.7,1.4-2.7,3.1s0.9,3.1,2.7,3.1s2.8-1.4,2.8-3.1
		C381.5,190.6,380.5,189.3,378.7,189.3z"/>
	<path class="st10" d="M263.4,213.9c-0.4,0.3-0.9,0.5-1.5,0.5c-0.9,0-1.6-0.3-2-1c-0.2-0.3-0.3-0.7-0.3-1.4v-4.6h-1.4v-0.9h1.4v-2.3
		h1v2.3h2.6v0.9h-2.6v4.6c0,1,0.4,1.5,1.3,1.5c0.5,0,0.8-0.2,1-0.3L263.4,213.9z"/>
	<path class="st10" d="M268.1,214.4c-2.3,0-3.7-1.8-3.7-4c0-2.3,1.4-4,3.7-4s3.7,1.7,3.7,4S270.4,214.4,268.1,214.4z M268.1,207.2
		c-1.7,0-2.7,1.4-2.7,3.1c0,1.7,1,3.1,2.7,3.1s2.7-1.4,2.7-3.1S269.8,207.2,268.1,207.2z"/>
	<path class="st10" d="M279.7,214.2v-1.4c-0.8,1.2-1.8,1.6-2.9,1.6c-2.2,0-3.6-1.8-3.6-4c0-2.3,1.4-4,3.6-4c1.1,0,2.1,0.4,2.9,1.6
		v-4.4h1v10.7L279.7,214.2L279.7,214.2z M277,207.3c-1.8,0-2.7,1.4-2.7,3.1s0.9,3.1,2.7,3.1s2.8-1.4,2.8-3.1
		C279.7,208.6,278.7,207.3,277,207.3z"/>
	<path class="st10" d="M289.4,214.4c-0.7,0-1.4-0.4-1.5-1.3c-0.7,1.1-1.8,1.4-2.7,1.4c-1.6,0-2.6-0.9-2.6-2.3c0-1.8,1.6-2.1,2.6-2.3
		c1.3-0.2,2.7-0.2,2.7-1.3c0-0.9-1-1.3-1.9-1.3s-1.7,0.3-2.4,0.8l-0.5-0.7c0.8-0.6,1.8-1,3-1c1.7,0,2.9,0.8,2.9,2.5v3.8
		c0,0.6,0.2,0.9,0.7,0.9c0.2,0,0.4,0,0.5-0.1l0.1,0.8C289.9,214.3,289.6,214.4,289.4,214.4z M287.9,209.7c-0.6,0.8-1.5,0.7-2.5,0.9
		c-1,0.2-1.8,0.4-1.8,1.4s0.8,1.5,1.8,1.5c1.2,0,2.5-0.7,2.5-2.3V209.7z"/>
	<path class="st10" d="M294.5,214.6c-0.6,1.5-1.2,2.4-2.6,2.4c-0.6,0-1-0.1-1.4-0.4l0.5-0.8c0.3,0.2,0.6,0.3,0.9,0.3
		c0.8,0,1.2-0.6,1.5-1.3l0.2-0.5l-3.3-7.8h1.1l2.7,6.4l2.4-6.4h1L294.5,214.6z"/>
	<path class="st10" d="M299.9,214.3c0,0.8-0.4,1.5-1,2.1l-0.4-0.4c0.5-0.5,0.7-1,0.7-1.4v-0.4h-0.7v-1.3h1.3v1.4H299.9z"/>
	<path class="st10" d="M310.5,213.9c-0.4,0.3-0.9,0.5-1.5,0.5c-0.9,0-1.6-0.3-2-1c-0.2-0.3-0.3-0.7-0.3-1.4v-4.6h-1.4v-0.9h1.4v-2.3
		h1v2.3h2.6v0.9h-2.6v4.6c0,1,0.4,1.5,1.3,1.5c0.5,0,0.8-0.2,1-0.3L310.5,213.9z"/>
	<path class="st10" d="M312,214.2v-10.7h1v4.4c0.7-1,1.5-1.6,2.8-1.6c1.6,0,2.7,1,2.7,3v4.9h-1v-4.7c0-1-0.3-2.3-1.9-2.3
		c-1.5,0-2.6,1.1-2.6,2.7v4.2L312,214.2L312,214.2z"/>
	<path class="st10" d="M327,214.4c-0.7,0-1.4-0.4-1.5-1.3c-0.7,1.1-1.8,1.4-2.7,1.4c-1.6,0-2.6-0.9-2.6-2.3c0-1.8,1.6-2.1,2.6-2.3
		c1.3-0.2,2.7-0.2,2.7-1.3c0-0.9-1-1.3-1.9-1.3s-1.7,0.3-2.4,0.8l-0.5-0.7c0.8-0.6,1.8-1,3-1c1.7,0,2.9,0.8,2.9,2.5v3.8
		c0,0.6,0.2,0.9,0.7,0.9c0.2,0,0.4,0,0.5-0.1l0.1,0.8C327.6,214.3,327.2,214.4,327,214.4z M325.5,209.7c-0.6,0.8-1.5,0.7-2.5,0.9
		c-1,0.2-1.8,0.4-1.8,1.4s0.8,1.5,1.8,1.5c1.2,0,2.5-0.7,2.5-2.3V209.7z"/>
	<path class="st10" d="M333.4,213.9c-0.4,0.3-0.9,0.5-1.5,0.5c-0.9,0-1.6-0.3-1.9-1c-0.2-0.3-0.3-0.7-0.3-1.4v-4.6h-1.4v-0.9h1.4
		v-2.3h1v2.3h2.6v0.9h-2.6v4.6c0,1,0.4,1.5,1.3,1.5c0.5,0,0.8-0.2,1-0.3L333.4,213.9z"/>
	<path class="st10" d="M335.8,205.5c0,0.8-0.4,1.5-1,2.1l-0.4-0.4c0.5-0.4,0.7-1,0.7-1.4v-0.4h-0.7v-1.2h1.3v1.3
		C335.7,205.5,335.8,205.5,335.8,205.5z"/>
	<path class="st10" d="M340.2,214.4c-1.5,0-2.6-0.6-3.3-1.6l0.8-0.6c0.6,0.8,1.4,1.3,2.5,1.3s2-0.5,2-1.5c0-0.9-0.7-1-2.3-1.4
		c-1.4-0.3-2.6-0.7-2.6-2.2s1.4-2.2,2.8-2.2c1.3,0,2.4,0.6,2.9,1.2l-0.7,0.7c-0.6-0.7-1.4-1-2.3-1s-1.8,0.3-1.8,1.2
		c0,0.9,0.9,1.1,2,1.3c1.4,0.3,3,0.6,3,2.2C343.2,213.4,342.1,214.4,340.2,214.4z"/>
	<path class="st10" d="M355.4,214.4c-0.7,0-1.4-0.4-1.5-1.3c-0.7,1.1-1.8,1.4-2.7,1.4c-1.6,0-2.6-0.9-2.6-2.3c0-1.8,1.6-2.1,2.6-2.3
		c1.3-0.2,2.7-0.2,2.7-1.3c0-0.9-1-1.3-1.9-1.3s-1.7,0.3-2.4,0.8l-0.5-0.7c0.8-0.6,1.8-1,3-1c1.7,0,2.9,0.8,2.9,2.5v3.8
		c0,0.6,0.2,0.9,0.7,0.9c0.2,0,0.4,0,0.5-0.1l0.1,0.8C355.9,214.3,355.6,214.4,355.4,214.4z M353.9,209.7c-0.6,0.8-1.5,0.7-2.5,0.9
		c-1,0.2-1.8,0.4-1.8,1.4s0.8,1.5,1.8,1.5c1.2,0,2.5-0.7,2.5-2.3V209.7z"/>
	<path class="st10" d="M365.2,214.2h-1.1l-2.1-6.5l-2.1,6.5h-1.1l-2.1-7.7h1l1.8,6.6l2.1-6.6h1l2.1,6.6l1.8-6.6h0.9L365.2,214.2z"/>
	<path class="st10" d="M375.8,210.6h-6.2c0.1,1.8,1.2,2.9,2.8,2.9c0.9,0,1.7-0.3,2.3-1l0.7,0.7c-0.8,0.9-1.8,1.3-3,1.3
		c-2.4,0-3.9-1.7-3.9-4s1.4-4.1,3.7-4.1c2.2,0,3.6,1.7,3.6,3.8C375.8,210.4,375.8,210.5,375.8,210.6z M374.8,209.8
		c-0.2-1.7-1.3-2.5-2.6-2.5c-1.5,0-2.5,1.1-2.6,2.5H374.8z"/>
	<path class="st10" d="M380.3,214.4c-1.5,0-2.6-0.6-3.3-1.6l0.8-0.6c0.6,0.8,1.4,1.3,2.5,1.3s2-0.5,2-1.5c0-0.9-0.7-1-2.3-1.4
		c-1.4-0.3-2.6-0.7-2.6-2.2s1.4-2.2,2.8-2.2s2.4,0.6,2.9,1.2l-0.7,0.7c-0.6-0.7-1.4-1-2.3-1s-1.8,0.3-1.8,1.2c0,0.9,0.9,1.1,2,1.3
		c1.4,0.3,3,0.6,3,2.2C383.3,213.4,382.2,214.4,380.3,214.4z"/>
	<path class="st10" d="M388.4,214.4c-2.3,0-3.7-1.8-3.7-4c0-2.3,1.4-4,3.7-4s3.7,1.7,3.7,4S390.7,214.4,388.4,214.4z M388.4,207.2
		c-1.7,0-2.7,1.4-2.7,3.1c0,1.7,1,3.1,2.7,3.1s2.7-1.4,2.7-3.1S390.1,207.2,388.4,207.2z"/>
	<path class="st10" d="M394.1,214.2v-7.7h1v1.4c0.6-1,1.5-1.6,2.6-1.6s2,0.6,2.4,1.6c0.6-1,1.5-1.6,2.8-1.6c1.6,0,2.6,1,2.6,2.9v5
		h-1v-4.8c0-1.1-0.3-2.2-1.8-2.2c-1.4,0-2.5,1.1-2.5,2.7v4.3h-1v-4.8c0-1.1-0.3-2.2-1.8-2.2c-1.4,0-2.5,1.1-2.5,2.7v4.3
		C394.9,214.2,394.1,214.2,394.1,214.2z"/>
	<path class="st10" d="M414.6,210.6h-6.2c0.1,1.8,1.2,2.9,2.8,2.9c0.9,0,1.7-0.3,2.3-1l0.7,0.7c-0.8,0.9-1.8,1.3-3,1.3
		c-2.4,0-3.9-1.7-3.9-4s1.4-4.1,3.7-4.1c2.2,0,3.6,1.7,3.6,3.8C414.6,210.4,414.6,210.5,414.6,210.6z M413.6,209.8
		c-0.2-1.7-1.3-2.5-2.6-2.5c-1.5,0-2.5,1.1-2.6,2.5H413.6z"/>
	<path class="st10" d="M417.5,211.3H417l-0.3-4.9v-2.2h1.2v2.2L417.5,211.3z M416.6,214.2v-1.5h1.2v1.5H416.6z"/>
	<path class="st10" d="M259.1,232.2v-10.7h1.7v4c0.6-0.9,1.5-1.3,2.6-1.3c1.7,0,2.7,1.2,2.7,2.9v5.1h-1.6v-4.8
		c0-0.8-0.3-1.8-1.6-1.8c-1.2,0-2.1,0.8-2.1,2.1v4.4h-1.7L259.1,232.2L259.1,232.2z"/>
	<path class="st10" d="M273,231.8c-0.5,0.4-1.1,0.6-1.9,0.6c-1,0-1.7-0.3-2.1-1c-0.3-0.4-0.4-0.9-0.4-1.6v-4.1h-1.3v-1.3h1.3v-2.1
		h1.7v2.1h2.4v1.3h-2.4v4.1c0,0.8,0.4,1.2,1.1,1.2c0.4,0,0.8-0.2,1-0.3L273,231.8z"/>
	<path class="st10" d="M279.2,231.8c-0.5,0.4-1.1,0.6-1.9,0.6c-1,0-1.7-0.3-2.1-1c-0.3-0.4-0.4-0.9-0.4-1.6v-4.1h-1.3v-1.3h1.3v-2.1
		h1.7v2.1h2.4v1.3h-2.4v4.1c0,0.8,0.4,1.2,1.1,1.2c0.4,0,0.8-0.2,1-0.3L279.2,231.8z"/>
	<path class="st10" d="M282.1,224.4v1.2c0.7-0.9,1.6-1.3,2.7-1.3c2.2,0,3.6,1.8,3.6,4.1s-1.4,4.1-3.6,4.1c-1,0-1.9-0.4-2.7-1.3v3.8
		h-1.6v-10.6H282.1z M284.4,230.9c1.5,0,2.2-1.2,2.2-2.6c0-1.5-0.7-2.6-2.2-2.6s-2.3,1.2-2.3,2.6C282.1,229.8,283,230.9,284.4,230.9
		z"/>
	<path class="st10" d="M290.3,226.3v-1.9h1.9v1.9H290.3z M290.3,232.2v-1.9h1.9v1.9H290.3z"/>
	<path class="st10" d="M295.3,233.9h-1.4l3.3-12.3h1.4L295.3,233.9z"/>
	<path class="st10" d="M300.5,233.9h-1.4l3.3-12.3h1.4L300.5,233.9z"/>
	<path class="st10" d="M308.1,232.4c-1.6,0-2.9-0.6-3.7-1.8l1.2-0.8c0.6,0.8,1.6,1.2,2.6,1.2s1.6-0.4,1.6-1.1s-0.7-0.9-2-1.1
		c-1.6-0.3-3-0.8-3-2.4c0-1.6,1.5-2.4,3.1-2.4s2.7,0.7,3.4,1.4l-1.1,1c-0.5-0.6-1.4-1-2.4-1c-0.8,0-1.5,0.3-1.5,0.9
		c0,0.7,0.8,0.8,1.9,1c1.7,0.3,3.1,0.7,3.1,2.4C311.5,231.4,310.2,232.4,308.1,232.4z"/>
	<path class="st10" d="M319.8,230.7c-0.7,1-1.7,1.7-3.3,1.7c-2.4,0-3.9-1.8-3.9-4.1c0-2.4,1.5-4.1,3.9-4.1c1.5,0,2.6,0.7,3.3,1.8
		l-1.2,0.9c-0.4-0.7-1.1-1.2-1.9-1.2c-1.4,0-2.2,1.1-2.2,2.7c0,1.5,0.9,2.7,2.2,2.7c0.9,0,1.5-0.5,2-1.1L319.8,230.7z"/>
	<path class="st10" d="M321.4,232.2v-7.9h1.6v1.1c0.6-0.8,1.4-1.3,2.5-1.3c1.2,0,2,0.5,2.3,1.5c0.7-1,1.6-1.5,2.7-1.5
		c1.7,0,2.6,1.1,2.6,2.9v5.2h-1.6v-4.8c0-0.9-0.2-1.8-1.5-1.8c-1.1,0-1.9,0.8-1.9,2.1v4.4h-1.6v-4.8c0-0.9-0.2-1.8-1.5-1.8
		c-1.1,0-1.9,0.8-1.9,2.1v4.4h-1.7V232.2z"/>
	<path class="st10" d="M335.1,232.2v-1.9h1.9v1.9H335.1z"/>
	<path class="st10" d="M342.1,232.4c-1.6,0-2.9-0.6-3.7-1.8l1.2-0.8c0.6,0.8,1.6,1.2,2.6,1.2s1.6-0.4,1.6-1.1s-0.7-0.9-2-1.1
		c-1.6-0.3-3-0.8-3-2.4c0-1.6,1.5-2.4,3.1-2.4s2.7,0.7,3.4,1.4l-1,1c-0.5-0.6-1.4-1-2.4-1c-0.8,0-1.5,0.3-1.5,0.9
		c0,0.7,0.8,0.8,1.9,1c1.7,0.3,3.1,0.7,3.1,2.4C345.4,231.4,344.2,232.4,342.1,232.4z"/>
	<path class="st10" d="M352,231.8c-0.5,0.4-1.1,0.6-1.9,0.6c-1,0-1.7-0.3-2.1-1c-0.3-0.4-0.4-0.9-0.4-1.6v-4.1h-1.3v-1.3h1.3v-2.1
		h1.7v2.1h2.4v1.3h-2.4v4.1c0,0.8,0.4,1.2,1.1,1.2c0.4,0,0.8-0.2,1-0.3L352,231.8z"/>
	<path class="st10" d="M354.1,233.9h-1.4l3.3-12.3h1.4L354.1,233.9z"/>
	<path class="st10" d="M359.2,232.2v-1.5h2.5v-6.6c-0.5,0.3-1.5,0.6-2.5,0.7l-0.2-1.4c1.5-0.3,2.4-0.6,3.1-1.3h1.3v8.5h2.3v1.5h-6.5
		L359.2,232.2L359.2,232.2z"/>
	<path class="st10" d="M369.4,232.2c0,1.9-1.1,2.8-2.7,2.8c-0.5,0-1.1-0.1-1.4-0.3l0.5-1.3c0.2,0.1,0.5,0.2,0.8,0.2
		c0.9,0,1.2-0.5,1.2-1.4v-7.8h1.7v7.8C369.5,232.2,369.4,232.2,369.4,232.2z M367.7,223.1v-1.6h1.7v1.6H367.7z"/>
	<path class="st10" d="M377.3,234.8V231c-0.7,0.9-1.6,1.3-2.7,1.3c-2.2,0-3.6-1.8-3.6-4.1s1.4-4.1,3.6-4.1c1,0,2,0.4,2.7,1.3v-1.2
		h1.7v10.5L377.3,234.8L377.3,234.8z M375,225.7c-1.5,0-2.2,1.2-2.2,2.6c0,1.4,0.7,2.6,2.2,2.6s2.3-1.2,2.3-2.6
		C377.3,226.8,376.5,225.7,375,225.7z"/>
	<path class="st10" d="M385.6,226.1c-0.3-0.1-0.5-0.2-0.9-0.2c-1,0-1.9,0.9-1.9,2.4v4h-1.6v-7.9h1.6v1.3c0.5-0.8,1.3-1.4,2.2-1.4
		c0.4,0,0.8,0.1,1.1,0.3L385.6,226.1z"/>
	<path class="st10" d="M388.9,221.5v4c0.7-0.9,1.6-1.3,2.7-1.3c2.2,0,3.6,1.8,3.6,4.1c0,2.3-1.4,4.1-3.6,4.1c-1,0-1.9-0.4-2.7-1.3
		v1.2h-1.6v-10.8H388.9z M391.2,230.9c1.5,0,2.2-1.2,2.2-2.6c0-1.4-0.7-2.6-2.2-2.6s-2.3,1.2-2.3,2.6
		C388.9,229.8,389.7,230.9,391.2,230.9z"/>
	<path class="st10" d="M401.1,222.8c-0.2-0.1-0.6-0.1-0.9-0.1c-0.7,0-1,0.2-1,0.9v0.8h1.8v1.3h-1.8v6.6h-1.7v-6.6h-1.3v-1.3h1.3
		v-0.7c0-1.5,0.9-2.3,2.5-2.3c0.5,0,0.9,0,1.3,0.2L401.1,222.8z"/>
	<path class="st10" d="M410.7,232.2H409l-1.7-5.7l-1.7,5.7h-1.8l-2.2-7.9h1.8l1.4,5.8l1.7-5.8h1.5l1.7,5.8l1.4-5.8h1.8L410.7,232.2z
		"/>
	<path class="st10" d="M258,234.1v-0.7h155.3v0.7H258z"/>
</g>
<g>
	<path class="st6" d="M177.3,218.9l-0.7-1.9h-3l-0.7,1.9h-1.4l2.9-7.3h1.5l2.9,7.3H177.3z M175.1,212.7l-1.2,3.2h2.3L175.1,212.7z"
		/>
	<path class="st6" d="M182.9,216.3H181v2.6h-1.3v-7.3h3.2c1.7,0,2.7,0.9,2.7,2.4C185.6,215.3,184.6,216.3,182.9,216.3z M182.9,215.1
		c0.9,0,1.4-0.5,1.4-1.2c0-0.8-0.5-1.2-1.4-1.2H181v2.5L182.9,215.1L182.9,215.1z"/>
	<path class="st6" d="M190,216.3h-1.9v2.6h-1.3v-7.3h3.2c1.7,0,2.7,0.9,2.7,2.4C192.6,215.3,191.7,216.3,190,216.3z M190,215.1
		c0.9,0,1.4-0.5,1.4-1.2c0-0.8-0.5-1.2-1.4-1.2h-1.9v2.5L190,215.1L190,215.1z"/>
	<path class="st5" d="M201.5,218.9l-3.4-5.7v5.7h-1.2v-7.3h1.6l3.4,5.5v-5.5h1.2v7.3H201.5z"/>
	<path class="st5" d="M208,219c-2.2,0-3.6-1.6-3.6-3.8c0-2.1,1.4-3.8,3.6-3.8s3.6,1.7,3.6,3.8C211.7,217.4,210.3,219,208,219z
		 M208,212.6c-1.5,0-2.3,1.1-2.3,2.6s0.8,2.6,2.3,2.6c1.4,0,2.3-1.1,2.3-2.6S209.5,212.6,208,212.6z"/>
	<path class="st5" d="M215.9,212.7v6.2h-1.3v-6.2h-2.4v-1.1h6.1v1.1H215.9z"/>
	<path class="st6" d="M166.6,232.1v-7.3h1.3v7.3H166.6z"/>
	<path class="st6" d="M174.4,232.1l-3.4-5.7v5.7h-1.2v-7.3h1.6l3.4,5.5v-5.5h1.2v7.3H174.4z"/>
	<path class="st6" d="M183,226l-1,0.6c-0.5-0.6-1.2-0.9-1.9-0.9s-1.3,0.3-1.3,0.9c0,0.7,0.7,0.8,1.6,1c1.5,0.3,2.8,0.7,2.8,2.2
		c0,1.4-1.1,2.3-2.9,2.3c-1.5,0-2.6-0.6-3.1-1.6l1-0.6c0.5,0.8,1.3,1.1,2.2,1.1s1.5-0.4,1.5-1.1c0-0.8-0.8-0.9-1.8-1.1
		c-1.3-0.3-2.5-0.7-2.5-2.2c0-1.3,1.1-2.1,2.7-2.1C181.3,224.6,182.3,225.1,183,226z"/>
	<path class="st6" d="M187.6,225.9v6.2h-1.3v-6.2h-2.4v-1.1h6.1v1.1H187.6z"/>
	<path class="st6" d="M195.5,232.1l-0.7-1.9h-3l-0.7,1.9h-1.4l2.9-7.3h1.5l2.9,7.3H195.5z M193.3,225.9l-1.2,3.2h2.3L193.3,225.9z"
		/>
	<path class="st6" d="M197.9,232.1v-7.3h1.3v6.1h3.9v1.2H197.9z"/>
	<path class="st6" d="M204.2,232.1v-7.3h1.3v6.1h3.9v1.2H204.2z"/>
	<path class="st6" d="M210.5,232.1v-7.3h5.3v1.1h-4v1.8h3.5v1.1h-3.5v2.2h4.2v1.1C216,232.1,210.5,232.1,210.5,232.1z"/>
	<path class="st6" d="M217.3,232.1v-7.3h2.9c2.3,0,3.6,1.6,3.6,3.7s-1.3,3.7-3.6,3.7L217.3,232.1L217.3,232.1z M220.2,230.9
		c1.5,0,2.3-1,2.3-2.5s-0.8-2.5-2.3-2.5h-1.6v5H220.2z"/>
</g>
<g>
	<path class="st0" d="M208.6,185.3h-2c-0.5,0-1,0-1,0v-1h3V185.3z"/>
	<path class="st0" d="M204.6,185.3h-2c-0.5,0-1,0-1,0v-1h3V185.3z"/>
	<path class="st0" d="M197.6,185.3v-1h3v1h-2C198.1,185.3,197.6,185.3,197.6,185.3z"/>
	<polygon class="st0" points="194.6,256.3 194.6,254.3 194.6,254.3 194.6,253.3 195.6,253.3 195.6,255.3 195.6,255.3 195.6,256.3 	
		"/>
	<polygon class="st0" points="194.6,246.3 194.6,246.3 194.6,245.3 195.6,245.3 195.6,247.3 195.6,247.3 195.6,248.3 194.6,248.3 	
		"/>
	<polygon class="st0" points="194.6,250.3 194.6,250.3 194.6,249.3 195.6,249.3 195.6,251.3 195.6,251.3 195.6,252.3 194.6,252.3 	
		"/>
	<path class="st0" d="M216.6,185.3h-2c-0.5,0-1,0-1,0v-1h3V185.3z"/>
	<path class="st0" d="M232.6,185.3h-2c-0.5,0-1,0-1,0v-1h3V185.3z"/>
	<path class="st0" d="M236.6,185.3h-2c-0.5,0-1,0-1,0v-1h3V185.3z"/>
	<path class="st0" d="M228.6,185.3h-2c-0.5,0-1,0-1,0v-1h3V185.3z"/>
	<polygon class="st0" points="194.6,242.3 194.6,242.3 194.6,241.3 195.6,241.3 195.6,243.3 195.6,243.3 195.6,244.3 194.6,244.3 	
		"/>
	<path class="st0" d="M224.6,185.3h-2c-0.5,0-1,0-1,0v-1h3V185.3z"/>
	<path class="st0" d="M212.6,185.3h-2c-0.5,0-1,0-1,0v-1h3V185.3z"/>
	<path class="st0" d="M220.6,185.3h-2c-0.5,0-1,0-1,0v-1h3V185.3z"/>
	<path class="st0" d="M240.6,185.3h-2c-0.5,0-1,0-1,0v-1h3V185.3z"/>
	<polygon class="st0" points="194.6,198.3 194.6,198.3 194.6,197.3 195.6,197.3 195.6,199.3 195.6,199.3 195.6,200.3 194.6,200.3 	
		"/>
	<polygon class="st0" points="194.6,194.3 194.6,194.3 194.6,193.3 195.6,193.3 195.6,195.3 195.6,195.3 195.6,196.3 194.6,196.3 	
		"/>
	<polygon class="st0" points="194.6,202.3 194.6,202.3 194.6,201.3 195.6,201.3 195.6,203.3 195.6,203.3 195.6,204.3 194.6,204.3 	
		"/>
	<polygon class="st0" points="194.6,186.3 194.6,186.3 194.6,185.3 195.6,185.3 195.6,187.3 195.6,187.3 195.6,188.3 194.6,188.3 	
		"/>
	<polygon class="st0" points="194.6,185.3 194.6,184.3 196.6,184.3 196.6,185.3 195.6,185.3 	"/>
	<polygon class="st0" points="194.6,190.3 194.6,190.3 194.6,189.3 195.6,189.3 195.6,191.3 195.6,191.3 195.6,192.3 194.6,192.3 	
		"/>
	<polygon class="st0" points="199.3,257 195.2,261.1 190.8,256.7 	"/>
</g>
<g>
	<path class="st0" d="M468,185.3h2c0.5,0,1,0,1,0v-1h-3V185.3z"/>
	<path class="st0" d="M472,185.3h2c0.5,0,1,0,1,0v-1h-3V185.3z"/>
	<path class="st0" d="M479,185.3v-1h-3v1h2C478.5,185.3,479,185.3,479,185.3z"/>
	<polygon class="st0" points="482,256.3 482,254.3 482,254.3 482,253.3 481,253.3 481,255.3 481,255.3 481,256.3 	"/>
	<polygon class="st0" points="482,246.3 482,246.3 482,245.3 481,245.3 481,247.3 481,247.3 481,248.3 482,248.3 	"/>
	<polygon class="st0" points="482,250.3 482,250.3 482,249.3 481,249.3 481,251.3 481,251.3 481,252.3 482,252.3 	"/>
	<path class="st0" d="M460,185.3h2c0.5,0,1,0,1,0v-1h-3V185.3z"/>
	<path class="st0" d="M444,185.3h2c0.5,0,1,0,1,0v-1h-3V185.3z"/>
	<path class="st0" d="M440,185.3h2c0.5,0,1,0,1,0v-1h-3V185.3z"/>
	<path class="st0" d="M448,185.3h2c0.5,0,1,0,1,0v-1h-3V185.3z"/>
	<polygon class="st0" points="482,242.3 482,242.3 482,241.3 481,241.3 481,243.3 481,243.3 481,244.3 482,244.3 	"/>
	<path class="st0" d="M452,185.3h2c0.5,0,1,0,1,0v-1h-3V185.3z"/>
	<path class="st0" d="M464,185.3h2c0.5,0,1,0,1,0v-1h-3V185.3z"/>
	<path class="st0" d="M456,185.3h2c0.5,0,1,0,1,0v-1h-3V185.3z"/>
	<path class="st0" d="M436,185.3h2c0.5,0,1,0,1,0v-1h-3V185.3z"/>
	<polygon class="st0" points="482,198.3 482,198.3 482,197.3 481,197.3 481,199.3 481,199.3 481,200.3 482,200.3 	"/>
	<polygon class="st0" points="482,194.3 482,194.3 482,193.3 481,193.3 481,195.3 481,195.3 481,196.3 482,196.3 	"/>
	<polygon class="st0" points="482,202.3 482,202.3 482,201.3 481,201.3 481,203.3 481,203.3 481,204.3 482,204.3 	"/>
	<polygon class="st0" points="482,186.3 482,186.3 482,185.3 481,185.3 481,187.3 481,187.3 481,188.3 482,188.3 	"/>
	<polygon class="st0" points="482,185.3 482,184.3 480,184.3 480,185.3 481,185.3 	"/>
	<polygon class="st0" points="482,190.3 482,190.3 482,189.3 481,189.3 481,191.3 481,191.3 481,192.3 482,192.3 	"/>
	<polygon class="st0" points="477.4,257 481.5,261.1 485.9,256.7 	"/>
</g>
<g>
	<path class="st6" d="M473.9,217.3h3l0.7,1.9h1.4l-2.9-7.3h-1.5l-2.9,7.3h1.4L473.9,217.3z M475.4,213l1.2,3.2h-2.3L475.4,213z"/>
	<path class="st6" d="M483.3,211.8h-3.2v7.3h1.3v-2.6h1.9c1.7,0,2.7-0.9,2.7-2.3C485.9,212.8,485,211.8,483.3,211.8z M483.3,215.4
		h-1.9v-2.5h1.9c0.9,0,1.4,0.5,1.4,1.2C484.6,214.9,484.2,215.4,483.3,215.4z"/>
	<path class="st6" d="M488.4,216.5h1.9c1.7,0,2.7-0.9,2.7-2.3c0-1.4-1-2.4-2.7-2.4h-3.2v7.3h1.3L488.4,216.5L488.4,216.5z
		 M488.4,212.9h1.9c0.9,0,1.4,0.5,1.4,1.2c0,0.8-0.5,1.2-1.4,1.2h-1.9V212.9z"/>
	<rect x="454.1" y="225" class="st6" width="1.3" height="7.3"/>
	<polygon class="st6" points="462.2,230.6 458.8,225 457.2,225 457.2,232.4 458.4,232.4 458.4,226.7 461.9,232.4 463.4,232.4 
		463.4,225 462.2,225 	"/>
	<path class="st6" d="M467.9,228c-0.9-0.2-1.6-0.4-1.6-1c0-0.7,0.6-0.9,1.3-0.9c0.8,0,1.5,0.3,1.9,0.9l1-0.6
		c-0.7-0.9-1.7-1.4-2.9-1.4c-1.6,0-2.7,0.8-2.7,2.1c0,1.4,1.2,1.9,2.5,2.2c1,0.2,1.8,0.4,1.8,1.1s-0.6,1.1-1.5,1.1
		c-0.8,0-1.7-0.3-2.2-1.1l-1,0.6c0.6,1,1.7,1.6,3.1,1.6c1.8,0,2.9-1,2.9-2.3C470.6,228.7,469.3,228.3,467.9,228z"/>
	<polygon class="st6" points="477.5,225 471.4,225 471.4,226.1 473.8,226.1 473.8,232.4 475.1,232.4 475.1,226.1 477.5,226.1 	"/>
	<path class="st6" d="M480,225l-2.9,7.3h1.4l0.7-1.9h3l0.7,1.9h1.4l-2.9-7.3H480z M479.6,229.4l1.2-3.2l1.2,3.2H479.6z"/>
	<polygon class="st6" points="486.7,225 485.4,225 485.4,232.4 490.6,232.4 490.6,231.2 486.7,231.2 	"/>
	<polygon class="st6" points="493,225 491.7,225 491.7,232.4 496.9,232.4 496.9,231.2 493,231.2 	"/>
	<polygon class="st6" points="499.3,229.1 502.8,229.1 502.8,227.9 499.3,227.9 499.3,226.1 503.3,226.1 503.3,225 498,225 
		498,232.4 503.4,232.4 503.4,231.2 499.3,231.2 	"/>
	<path class="st6" d="M507.7,225h-2.9v7.3h2.9c2.3,0,3.6-1.6,3.6-3.7C511.4,226.6,510.1,225,507.7,225z M507.7,231.2h-1.6v-5h1.6
		c1.5,0,2.3,1,2.3,2.5S509.2,231.2,507.7,231.2z"/>
</g>
<g id="Rechteck_31">
	<g>
		<rect x="33" y="641.9" class="st0" width="618" height="1"/>
	</g>
</g>
<g id="Abgerundetes_Rechteck_15">
	<g>
		<path class="st0" d="M295,454.9c1.7,0,3,1.3,3,3v17c0,1.7-1.3,3-3,3H93c-1.7,0-3-1.3-3-3v-17c0-1.7,1.3-3,3-3H295 M295,453.9H93
			c-2.2,0-4,1.8-4,4v17c0,2.2,1.8,4,4,4h202c2.2,0,4-1.8,4-4v-17C299,455.7,297.2,453.9,295,453.9L295,453.9z"/>
	</g>
</g>
<g id="Abgerundetes_Rechteck_15_1_">
	<g>
		<g>
			<path class="st11" d="M93,478.4c-1.9,0-3.5-1.6-3.5-3.5v-17c0-1.9,1.6-3.5,3.5-3.5h65.5v24H93z"/>
		</g>
	</g>
	<g>
		<g>
			<path class="st0" d="M158,454.9v23H93c-1.7,0-3-1.3-3-3v-17c0-1.7,1.3-3,3-3H158 M159,453.9H93c-2.2,0-4,1.8-4,4v17
				c0,2.2,1.8,4,4,4h66V453.9L159,453.9z"/>
		</g>
	</g>
</g>
<g id="Rechteck_52">
	<g>
		<rect x="229" y="453.9" class="st0" width="1" height="25"/>
	</g>
</g>
<g>
	<path class="st5" d="M107.8,470.4v-6.7h2.6c2.1,0,3.3,1.4,3.3,3.3c0,1.9-1.2,3.3-3.3,3.3H107.8z M110.4,469.3
		c1.4,0,2.1-0.9,2.1-2.3s-0.7-2.3-2.1-2.3H109v4.5H110.4z"/>
	<path class="st5" d="M119.7,468h-4c0,1,0.7,1.5,1.6,1.5c0.6,0,1.1-0.2,1.5-0.7l0.7,0.7c-0.5,0.6-1.3,0.9-2.3,0.9
		c-1.8,0-2.7-1.2-2.7-2.7c0-1.6,1-2.8,2.6-2.8c1.6,0,2.6,1.1,2.6,2.6C119.8,467.8,119.8,467.9,119.7,468z M118.7,467.2
		c-0.1-0.9-0.7-1.3-1.4-1.3c-0.8,0-1.4,0.5-1.4,1.3H118.7z"/>
	<path class="st5" d="M124.1,470.1c-0.3,0.2-0.7,0.4-1.2,0.4c-0.6,0-1.1-0.2-1.4-0.7c-0.2-0.3-0.2-0.6-0.2-1.1V466h-0.9v-0.8h0.9
		v-1.4h1.1v1.4h1.6v0.8h-1.6v2.8c0,0.5,0.2,0.8,0.7,0.8c0.3,0,0.5-0.1,0.7-0.2L124.1,470.1z"/>
	<path class="st5" d="M129.2,470.5c-0.5,0-0.9-0.2-1-0.8c-0.4,0.6-1.1,0.8-1.7,0.8c-1.1,0-1.8-0.6-1.8-1.6c0-1.3,1.1-1.5,2-1.6
		c0.8-0.1,1.3-0.1,1.3-0.7c0-0.5-0.6-0.7-1.1-0.7c-0.5,0-1.1,0.2-1.6,0.5l-0.4-0.8c0.6-0.4,1.3-0.6,2.2-0.6c1.2,0,2.1,0.5,2.1,1.8
		v2.4c0,0.3,0.1,0.5,0.4,0.5c0.1,0,0.2,0,0.3-0.1l0.1,0.8C129.7,470.4,129.4,470.5,129.2,470.5z M128,467.6
		c-0.3,0.4-0.7,0.4-1.3,0.5c-0.6,0.1-1,0.2-1,0.8s0.4,0.8,1,0.8c0.7,0,1.3-0.4,1.3-1.2V467.6z"/>
	<path class="st5" d="M130.7,464.3v-1h1.1v1H130.7z M130.7,470.4v-5.2h1.1v5.2H130.7z"/>
	<path class="st5" d="M133.3,470.4v-7.1h1.1v7.1H133.3z"/>
	<path class="st5" d="M137.9,470.5c-1.1,0-1.9-0.4-2.4-1.2l0.8-0.5c0.4,0.6,1,0.8,1.7,0.8c0.6,0,1.1-0.2,1.1-0.7
		c0-0.5-0.5-0.6-1.3-0.7c-1.1-0.2-2-0.5-2-1.6c0-1.1,1-1.6,2.1-1.6c1.1,0,1.8,0.5,2.3,0.9l-0.7,0.6c-0.3-0.4-0.9-0.7-1.6-0.7
		c-0.5,0-1,0.2-1,0.6c0,0.5,0.6,0.6,1.2,0.7c1.1,0.2,2.1,0.5,2.1,1.6C140.1,469.8,139.3,470.5,137.9,470.5z"/>
</g>
<g>
	<path class="st5" d="M177.8,470.4l-1.3-2.5h-1.7v2.5h-1.2v-6.7h3c1.5,0,2.3,0.8,2.3,2c0,0.9-0.6,1.6-1.3,1.9l1.5,2.8H177.8z
		 M176.6,464.7h-1.8v2.1h1.8c0.7,0,1.1-0.4,1.1-1C177.7,465.1,177.2,464.7,176.6,464.7z"/>
	<path class="st5" d="M184.9,468h-4c0,1,0.7,1.5,1.6,1.5c0.6,0,1.1-0.2,1.5-0.7l0.7,0.7c-0.5,0.6-1.3,0.9-2.3,0.9
		c-1.8,0-2.7-1.2-2.7-2.7c0-1.6,1-2.8,2.6-2.8c1.6,0,2.6,1.1,2.6,2.6C184.9,467.8,184.9,467.9,184.9,468z M183.8,467.2
		c-0.1-0.9-0.7-1.3-1.4-1.3c-0.8,0-1.4,0.5-1.4,1.3H183.8z"/>
	<path class="st5" d="M188.6,470.4h-1.1l-2.1-5.2h1.2l1.4,3.9l1.4-3.9h1.2L188.6,470.4z"/>
	<path class="st5" d="M191.5,464.3v-1h1.1v1H191.5z M191.5,470.4v-5.2h1.1v5.2H191.5z"/>
	<path class="st5" d="M198.9,468h-4c0,1,0.7,1.5,1.6,1.5c0.6,0,1.1-0.2,1.5-0.7l0.7,0.7c-0.5,0.6-1.3,0.9-2.3,0.9
		c-1.8,0-2.7-1.2-2.7-2.7c0-1.6,1-2.8,2.6-2.8c1.6,0,2.6,1.1,2.6,2.6C198.9,467.8,198.9,467.9,198.9,468z M197.8,467.2
		c-0.1-0.9-0.7-1.3-1.4-1.3c-0.8,0-1.4,0.5-1.4,1.3H197.8z"/>
	<path class="st5" d="M205.6,470.4h-1.2l-1.1-3.8l-1.2,3.8H201l-1.4-5.2h1.2l0.9,3.8l1.1-3.8h1l1.1,3.8l0.9-3.8h1.2L205.6,470.4z"/>
	<path class="st5" d="M210,470.5c-1.1,0-1.9-0.4-2.4-1.2l0.8-0.5c0.4,0.6,1,0.8,1.7,0.8c0.6,0,1.1-0.2,1.1-0.7
		c0-0.5-0.5-0.6-1.3-0.7c-1.1-0.2-2-0.5-2-1.6c0-1.1,1-1.6,2.1-1.6c1.1,0,1.8,0.5,2.3,0.9l-0.7,0.6c-0.4-0.4-0.9-0.7-1.6-0.7
		c-0.5,0-1,0.2-1,0.6c0,0.5,0.6,0.6,1.2,0.7c1.1,0.2,2.1,0.5,2.1,1.6C212.3,469.8,211.4,470.5,210,470.5z"/>
</g>
<g>
	<path class="st5" d="M252.1,470.4l-1.3-2.5h-1.7v2.5h-1.2v-6.7h3c1.5,0,2.3,0.8,2.3,2c0,0.9-0.6,1.6-1.3,1.9l1.5,2.8H252.1z
		 M250.9,464.7h-1.8v2.1h1.8c0.7,0,1.1-0.4,1.1-1C252,465.1,251.5,464.7,250.9,464.7z"/>
	<path class="st5" d="M259.2,468h-4c0.1,1,0.7,1.5,1.6,1.5c0.6,0,1.1-0.2,1.5-0.7l0.7,0.7c-0.5,0.6-1.3,0.9-2.3,0.9
		c-1.8,0-2.7-1.2-2.7-2.7c0-1.6,1-2.8,2.6-2.8c1.6,0,2.6,1.1,2.6,2.6C259.2,467.8,259.2,467.9,259.2,468z M258.1,467.2
		c-0.1-0.9-0.7-1.3-1.4-1.3c-0.8,0-1.4,0.5-1.4,1.3H258.1z"/>
	<path class="st5" d="M260.3,470.4v-7.1h1.1v7.1H260.3z"/>
	<path class="st5" d="M267.1,470.5c-0.5,0-0.9-0.2-1-0.8c-0.4,0.6-1.1,0.8-1.7,0.8c-1.1,0-1.8-0.6-1.8-1.6c0-1.3,1.1-1.5,2-1.6
		c0.8-0.1,1.3-0.1,1.3-0.7c0-0.5-0.6-0.7-1.1-0.7c-0.5,0-1.1,0.2-1.6,0.5l-0.4-0.8c0.6-0.4,1.3-0.6,2.2-0.6c1.2,0,2.1,0.5,2.1,1.8
		v2.4c0,0.3,0.1,0.5,0.4,0.5c0.1,0,0.2,0,0.3-0.1l0.1,0.8C267.6,470.4,267.3,470.5,267.1,470.5z M265.9,467.6
		c-0.3,0.4-0.7,0.4-1.3,0.5s-1,0.2-1,0.8s0.4,0.8,1,0.8c0.7,0,1.3-0.4,1.3-1.2V467.6z"/>
	<path class="st5" d="M271.9,470.1c-0.3,0.2-0.7,0.4-1.2,0.4c-0.6,0-1.1-0.2-1.4-0.7c-0.2-0.3-0.2-0.6-0.2-1.1V466h-0.9v-0.8h0.9
		v-1.4h1.1v1.4h1.6v0.8H270v2.8c0,0.5,0.2,0.8,0.7,0.8c0.3,0,0.5-0.1,0.7-0.2L271.9,470.1z"/>
	<path class="st5" d="M277.6,468h-4c0,1,0.7,1.5,1.6,1.5c0.6,0,1.1-0.2,1.5-0.7l0.7,0.7c-0.5,0.6-1.3,0.9-2.3,0.9
		c-1.8,0-2.7-1.2-2.7-2.7c0-1.6,1-2.8,2.6-2.8c1.6,0,2.6,1.1,2.6,2.6C277.6,467.8,277.6,467.9,277.6,468z M276.5,467.2
		c-0.1-0.9-0.7-1.3-1.4-1.3c-0.8,0-1.4,0.5-1.4,1.3H276.5z"/>
	<path class="st5" d="M282.5,470.4v-0.8c-0.5,0.6-1.1,0.9-1.8,0.9c-1.5,0-2.4-1.2-2.4-2.7c0-1.6,0.9-2.7,2.4-2.7
		c0.7,0,1.3,0.3,1.8,0.9v-2.7h1.1v7.1H282.5z M281,466c-1,0-1.5,0.8-1.5,1.8c0,1,0.5,1.7,1.5,1.7c1,0,1.5-0.8,1.5-1.7
		C282.5,466.8,282,466,281,466z"/>
</g>
<g id="Rechteck_51">
	<g>
		<path class="st8" d="M89,641.9h137v-153H89V641.9z M234,488.9v153h74v-153H234z"/>
	</g>
</g>
<g id="Ellipse_37_2_">
	<g>
		<path class="st9" d="M157.5,512.5c17,0,30.9,13.9,30.9,30.9c0,17-13.9,30.9-30.9,30.9c-17,0-30.9-13.9-30.9-30.9
			C126.6,526.3,140.5,512.5,157.5,512.5 M157.5,511.5c-17.6,0-31.9,14.3-31.9,31.9c0,17.6,14.3,31.9,31.9,31.9
			c17.6,0,31.9-14.3,31.9-31.9C189.4,525.7,175.1,511.5,157.5,511.5L157.5,511.5z"/>
	</g>
</g>
<g id="Ellipse_37_1_">
	<g>
		<path class="st9" d="M264,508.9c7.7,0,14,6.3,14,14c0,7.7-6.3,14-14,14c-7.7,0-14-6.3-14-14C250,515.2,256.3,508.9,264,508.9
			 M264,507.9c-8.3,0-15,6.7-15,15c0,8.3,6.7,15,15,15c8.3,0,15-6.7,15-15C279,514.6,272.3,507.9,264,507.9L264,507.9z"/>
	</g>
</g>
<g id="Rechteck_27_1_">
	<g>
		<path class="st4" d="M124,592.9v5h67v-5H124z M134,607.9h47v-5h-47V607.9z"/>
	</g>
</g>
<g id="Rechteck_27_2_">
	<g>
		<path class="st4" d="M249,573.9h59v-5h-59V573.9z M249,583.9h47v-5h-47V583.9z M249,553.9v10h59v-10H249z"/>
	</g>
</g>
</svg>
