<?xml version="1.0" encoding="utf-8"?>
<!-- Generator: Adobe Illustrator 19.1.0, SVG Export Plug-In . SVG Version: 6.00 Build 0)  -->
<svg version="1.1" id="Layer_1" xmlns="http://www.w3.org/2000/svg" xmlns:xlink="http://www.w3.org/1999/xlink" x="0px" y="0px"
	 width="480.9px" height="357.2px" viewBox="101.2 242.8 480.9 357.2" style="enable-background:new 101.2 242.8 480.9 357.2;"
	 xml:space="preserve">
<style type="text/css">
	.st0{fill:#FFFFFF;}
	.st1{fill:#F8F8F8;}
</style>
<g id="screen">
	<path class="st0" d="M321,244.8l0.2,345.8l-217.9,0.3L103.2,245L321,244.8 M322.2,242.8l-220.3,0.3c-0.4,0-0.7,0.3-0.7,0.8
		l0.2,348.3c0,0.4,0.3,0.8,0.7,0.8l0,0l220.3-0.2c0.4,0,0.7-0.3,0.7-0.8L323,243.6C323,243.2,322.6,242.8,322.2,242.8L322.2,242.8z"
		/>
</g>
<path class="st0" d="M312,253.8l0.2,327.8l-199.9,0.3l-0.1-327.8L312,253.8 M312.2,252.8l-200.3,0.3c-0.4,0-0.7,0.3-0.7,0.8
	l0.2,328.3c0,0.4,0.3,0.8,0.7,0.8l0,0l200.3-0.2c0.4,0,0.7-0.3,0.7-0.8L313,253.6C313,253.2,312.6,252.8,312.2,252.8L312.2,252.8z"
	/>
<g id="Ellipse_33">
	<path class="st0" d="M212,386.1c33,0,59.8,26.8,59.8,59.8S245,505.7,212,505.7s-59.8-26.8-59.8-59.8S179,386.1,212,386.1
		 M212,385.1c-33.6,0-60.8,27.2-60.8,60.8c0,33.6,27.2,60.8,60.8,60.8s60.8-27.2,60.8-60.8S245.6,385.1,212,385.1L212,385.1z"/>
</g>
<g>
	<rect x="280" y="568.9" class="st0" width="2" height="2"/>
	<rect x="288" y="568.9" class="st0" width="2" height="2"/>
	<rect x="300" y="568.9" class="st0" width="2" height="2"/>
	<rect x="296" y="568.9" class="st0" width="2" height="2"/>
	<rect x="292" y="568.9" class="st0" width="2" height="2"/>
	<rect x="300" y="564.9" class="st0" width="2" height="2"/>
	<rect x="280" y="564.9" class="st0" width="2" height="2"/>
	<rect x="284" y="568.9" class="st0" width="2" height="2"/>
	<path class="st0" d="M260,542.9h14v-14h-14V542.9z M262,530.9h10v10h-10V530.9z"/>
	<rect x="300" y="560.9" class="st0" width="2" height="2"/>
	<path class="st0" d="M256,570.9h22v-22h-22V570.9z M258,550.9h18v18h-18V550.9z"/>
	<path class="st0" d="M260,566.9h14v-14h-14V566.9z M262,554.9h10v10h-10V554.9z"/>
	<rect x="280" y="560.9" class="st0" width="2" height="2"/>
	<path class="st0" d="M256,546.9h22v-22h-22V546.9z M258,526.9h18v18h-18V526.9z"/>
	<rect x="300" y="556.9" class="st0" width="2" height="2"/>
	<rect x="300" y="552.9" class="st0" width="2" height="2"/>
	<rect x="298" y="550.9" class="st0" width="2" height="2"/>
	<rect x="298" y="558.9" class="st0" width="2" height="2"/>
	<rect x="298" y="562.9" class="st0" width="2" height="2"/>
	<rect x="298" y="566.9" class="st0" width="2" height="2"/>
	<path class="st0" d="M298,566.9v-14h-14v2h-2v2h2v2h-2v2h2v2h-2v2h2v2h-2v2h2v-2h2v2h2v-2h2v2h2v-2h2v2h2v-2H298z M286,564.9v-10
		h10v10H286z"/>
	<rect x="280" y="556.9" class="st0" width="2" height="2"/>
	<path class="st0" d="M298,528.9h-14v14h14V528.9z M296,540.9h-10v-10h10V540.9z"/>
	<rect x="298" y="554.9" class="st0" width="2" height="2"/>
	<path class="st0" d="M280,524.9v22h22v-22H280z M300,544.9h-18v-18h18V544.9z"/>
	<rect x="300" y="548.9" class="st0" width="2" height="2"/>
	<rect x="282" y="550.9" class="st0" width="2" height="2"/>
	<rect x="284" y="548.9" class="st0" width="2" height="2"/>
	<rect x="280" y="548.9" class="st0" width="2" height="2"/>
	<rect x="288" y="548.9" class="st0" width="2" height="2"/>
	<rect x="280" y="552.9" class="st0" width="2" height="2"/>
	<rect x="294" y="550.9" class="st0" width="2" height="2"/>
	<rect x="286" y="550.9" class="st0" width="2" height="2"/>
	<rect x="290" y="550.9" class="st0" width="2" height="2"/>
	<rect x="296" y="548.9" class="st0" width="2" height="2"/>
	<rect x="292" y="548.9" class="st0" width="2" height="2"/>
</g>
<g id="Your_print_campaign_with_QR-code">
	<path class="st0" d="M168.2,299.7v5.3h-4v-5.3l-5.5-8.9h4.7l2.8,5.2l2.8-5.2h4.7L168.2,299.7z"/>
	<path class="st0" d="M178.5,305.3c-3.8,0-6.3-2.3-6.3-6c0-3.6,2.5-6,6.3-6s6.3,2.4,6.3,6S182.3,305.3,178.5,305.3z M178.5,296.5
		c-1.4,0-2.2,1.1-2.2,2.8c0,1.7,0.7,2.8,2.2,2.8c1.4,0,2.2-1.1,2.2-2.8C180.7,297.6,179.9,296.5,178.5,296.5z"/>
	<path class="st0" d="M193.4,305v-1c-0.9,0.8-2.1,1.3-3.2,1.3c-2.6,0-3.8-1.9-3.8-4v-7.7h3.9v6.8c0,0.8,0.3,1.5,1.5,1.5
		c0.9,0,1.7-0.5,1.7-1.7v-6.6h3.9v11.5h-4V305z"/>
	<path class="st0" d="M206.9,297.6c-0.3-0.2-0.7-0.4-1.3-0.4c-1.3,0-2.1,1-2.1,2.4v5.3h-3.9v-11.5h3.9v1.7c0.7-1.2,1.8-1.9,2.9-1.9
		c0.5,0,1.1,0.1,1.4,0.3L206.9,297.6z"/>
	<path class="st0" d="M221.8,305.3c-1.3,0-2.4-0.5-3.3-1.3v4.7h-3.9v-15.1h3.9v1.1c0.9-0.8,1.9-1.3,3.3-1.3c3.2,0,5.2,2.6,5.2,6
		C227,302.7,225,305.3,221.8,305.3z M220.8,296.6c-1.5,0-2.2,1.2-2.2,2.7s0.7,2.7,2.2,2.7s2.1-1.3,2.1-2.7
		C222.9,297.8,222.2,296.6,220.8,296.6z"/>
	<path class="st0" d="M236,297.6c-0.3-0.2-0.7-0.4-1.3-0.4c-1.3,0-2.1,1-2.1,2.4v5.3h-3.9v-11.5h3.9v1.7c0.7-1.2,1.8-1.9,2.9-1.9
		c0.5,0,1.1,0.1,1.4,0.3L236,297.6z"/>
	<path class="st0" d="M238.1,292.4v-2.5h3.9v2.5H238.1z M238.1,305v-11.5h3.9V305H238.1z"/>
	<path class="st0" d="M251.4,305v-6.8c0-0.8-0.3-1.5-1.5-1.5c-0.9,0-1.7,0.5-1.7,1.7v6.6h-3.9v-11.5h3.9v1.1
		c0.9-0.8,2.1-1.3,3.2-1.3c2.6,0,3.8,1.9,3.8,4v7.7H251.4L251.4,305z"/>
	<path class="st0" d="M266,304.2c-0.8,0.7-2,1.1-3.5,1.1s-2.7-0.5-3.4-1.4c-0.5-0.7-0.7-1.6-0.7-2.8v-4.6h-1.7v-2.9h1.7v-2.7h3.9
		v2.6h3.1v2.9h-3.1v4.6c0,0.7,0.4,0.8,0.9,0.8c0.6,0,1-0.2,1.4-0.5L266,304.2z"/>
	<path class="st0" d="M172,327.8c-1,1.7-2.6,2.9-5.3,2.9c-3.7,0-6.1-2.5-6.1-6c0-3.4,2.4-6,6-6c2.7,0,4.3,1.4,5.3,3.1l-2.8,1.7
		c-0.5-1-1.2-1.6-2.2-1.6c-1.4,0-2.2,1.1-2.2,2.7c0,1.7,0.8,2.8,2.2,2.8c1.1,0,1.9-0.6,2.4-1.5L172,327.8z"/>
	<path class="st0" d="M182.7,330.6c-1.1,0-2.1-0.4-2.5-1.3c-0.7,1-2.2,1.4-3.5,1.4c-2.3,0-4-1.2-4-3.6c0-2.8,2.4-3.2,4.3-3.4
		c1.6-0.2,2.5-0.3,2.5-1c0-0.7-0.9-0.8-1.5-0.8c-1.1,0-2.6,0.4-3.6,1l-1.2-2.9c1.7-0.9,3.3-1.2,5.1-1.2c3,0,5.1,1.1,5.1,4.1v4.7
		c0,0.4,0.2,0.5,0.5,0.5c0.2,0,0.4,0,0.5-0.1l0.4,2.4C184.2,330.5,183.3,330.6,182.7,330.6z M179.4,325.2c-0.3,0.4-0.9,0.4-1.6,0.5
		c-0.6,0.1-1.3,0.3-1.3,1.2c0,0.7,0.5,1.1,1.3,1.1c1,0,1.6-0.6,1.6-1.7V325.2z"/>
	<path class="st0" d="M199.7,330.4v-6.8c0-0.8-0.2-1.5-1.4-1.5c-0.9,0-1.5,0.5-1.5,1.7v6.6h-3.9v-6.8c0-0.8-0.2-1.5-1.4-1.5
		c-0.9,0-1.5,0.5-1.5,1.7v6.6h-4v-11.5h3.9v1.1c0.9-0.8,2-1.3,3.1-1.3c1.6,0,2.6,0.7,3.1,1.8c1.1-1.4,2.6-1.8,3.7-1.8
		c2.7,0,3.8,1.9,3.8,4v7.7H199.7z"/>
	<path class="st0" d="M213,330.7c-1.3,0-2.4-0.5-3.3-1.3v4.7h-3.9V319h3.9v1.1c0.9-0.8,1.9-1.3,3.3-1.3c3.2,0,5.2,2.6,5.2,6
		C218.2,328.1,216.2,330.7,213,330.7z M212,322c-1.5,0-2.2,1.2-2.2,2.7s0.7,2.7,2.2,2.7s2.1-1.3,2.1-2.7
		C214.1,323.3,213.4,322,212,322z"/>
	<path class="st0" d="M229.3,330.6c-1.1,0-2.1-0.4-2.5-1.3c-0.7,1-2.2,1.4-3.5,1.4c-2.3,0-4-1.2-4-3.6c0-2.8,2.4-3.2,4.3-3.4
		c1.6-0.2,2.5-0.3,2.5-1c0-0.7-0.9-0.8-1.5-0.8c-1.1,0-2.6,0.4-3.6,1l-1.2-2.9c1.7-0.9,3.3-1.2,5.1-1.2c3,0,5.1,1.1,5.1,4.1v4.7
		c0,0.4,0.2,0.5,0.5,0.5c0.2,0,0.4,0,0.5-0.1l0.4,2.4C230.8,330.5,229.9,330.6,229.3,330.6z M226,325.2c-0.3,0.4-0.9,0.4-1.6,0.5
		c-0.6,0.1-1.3,0.3-1.3,1.2c0,0.7,0.5,1.1,1.3,1.1c1,0,1.6-0.6,1.6-1.7V325.2z"/>
	<path class="st0" d="M232.6,317.8v-2.5h3.9v2.5H232.6z M232.6,330.4v-11.5h3.9v11.5H232.6z"/>
	<path class="st0" d="M250.5,328c0,1.9-0.3,3.3-1.3,4.5c-1.2,1.4-3.4,1.9-5.5,1.9c-2,0-3.6-0.4-5.1-1.1l1.3-2.9
		c1,0.6,2.2,0.9,3.7,0.9c1.7,0,3.1-0.6,3.1-2.2v-0.6c-0.9,0.8-1.9,1.3-3.3,1.3c-3.2,0-5.2-2.4-5.2-5.5c0-3,2-5.5,5.2-5.5
		c1.3,0,2.4,0.5,3.3,1.3V319h3.9L250.5,328L250.5,328z M244.4,321.9c-1.4,0-2.1,1-2.1,2.3c0,1.4,0.7,2.4,2.1,2.4s2.2-1,2.2-2.4
		C246.7,322.8,245.9,321.9,244.4,321.9z"/>
	<path class="st0" d="M259.9,330.4v-6.8c0-0.8-0.3-1.5-1.5-1.5c-0.9,0-1.7,0.5-1.7,1.7v6.6h-3.9v-11.5h3.9v1.1
		c0.9-0.8,2.1-1.3,3.2-1.3c2.6,0,3.8,1.9,3.8,4v7.7H259.9z"/>
	<path class="st0" d="M165,355.4h-2.1l-2-6.9l-2.1,6.9h-2.1l-2.6-9.5h2.1l1.7,6.9l2.1-6.9h1.8l2.1,6.9l1.7-6.9h2.1L165,355.4z"/>
	<path class="st0" d="M169.3,344.4v-1.9h2v1.9H169.3z M169.3,355.4v-9.5h2v9.5H169.3z"/>
	<path class="st0" d="M179.8,354.9c-0.6,0.4-1.3,0.7-2.3,0.7c-1.2,0-2-0.4-2.6-1.2c-0.3-0.5-0.4-1.1-0.4-2v-5H173v-1.5h1.6v-2.5h2
		v2.5h2.9v1.5h-2.9v5c0,1,0.5,1.4,1.3,1.4c0.5,0,0.9-0.2,1.2-0.4L179.8,354.9z"/>
	<path class="st0" d="M181.4,355.4v-12.9h2v4.8c0.8-1,1.8-1.6,3.1-1.6c2.1,0,3.3,1.4,3.3,3.5v6.2h-2v-5.7c0-1-0.3-2.1-1.9-2.1
		c-1.4,0-2.5,1-2.5,2.6v5.3L181.4,355.4L181.4,355.4z"/>
	<path class="st0" d="M206.6,354.1l1.3,1.6l-1.4,1.2l-1.4-1.7c-0.8,0.4-1.7,0.6-2.6,0.6c-3.7,0-6-2.7-6-6.2s2.3-6.2,6-6.2
		s6,2.7,6,6.2C208.4,351.3,207.8,353,206.6,354.1z M202.5,345.2c-2.4,0-3.8,1.8-3.8,4.2c0,2.5,1.4,4.3,3.8,4.3
		c0.5,0,0.9-0.1,1.3-0.3l-1.2-1.5l1.3-1.1l1.3,1.6c0.7-0.7,1-1.8,1-3.1C206.2,347,204.8,345.2,202.5,345.2z"/>
	<path class="st0" d="M218.2,355.4l-2.4-4.6h-3v4.6h-2.1v-12h5.4c2.6,0,4.2,1.5,4.2,3.6c0,1.7-1.1,2.9-2.4,3.4l2.7,5H218.2z
		 M216,345.3h-3.2v3.8h3.3c1.2,0,2.1-0.7,2.1-1.9C218.1,346,217.2,345.3,216,345.3z"/>
	<path class="st0" d="M222.2,351.3v-1.8h5.1v1.8H222.2z"/>
	<path class="st0" d="M237.7,353.6c-0.8,1.2-2.1,2.1-3.9,2.1c-2.9,0-4.7-2.1-4.7-4.9c0-2.8,1.8-5,4.7-5c1.8,0,3.1,0.9,3.9,2.1
		l-1.5,1.1c-0.5-0.9-1.3-1.4-2.3-1.4c-1.7,0-2.7,1.4-2.7,3.2c0,1.9,1,3.2,2.7,3.2c1.1,0,1.8-0.6,2.4-1.4L237.7,353.6z"/>
	<path class="st0" d="M243.6,355.6c-2.9,0-4.8-2.1-4.8-4.9c0-2.9,1.9-5,4.8-5s4.8,2.1,4.8,5C248.4,353.6,246.5,355.6,243.6,355.6z
		 M243.6,347.5c-1.7,0-2.7,1.4-2.7,3.2s1,3.2,2.7,3.2s2.7-1.4,2.7-3.2S245.3,347.5,243.6,347.5z"/>
	<path class="st0" d="M257.4,355.4V354c-0.8,1.1-2,1.6-3.2,1.6c-2.7,0-4.3-2.1-4.3-4.9s1.7-5,4.3-5c1.2,0,2.3,0.5,3.2,1.6v-4.8h2
		v12.9H257.4L257.4,355.4z M254.6,347.5c-1.8,0-2.7,1.4-2.7,3.2s0.9,3.2,2.7,3.2c1.8,0,2.8-1.4,2.8-3.2
		C257.4,348.9,256.4,347.5,254.6,347.5z"/>
	<path class="st0" d="M270.7,351.2h-7.2c0.1,1.7,1.2,2.7,2.9,2.7c1.1,0,2-0.4,2.7-1.2l1.3,1.2c-1,1-2.3,1.7-4.1,1.7
		c-3.2,0-5-2.1-5-4.9s1.8-5,4.8-5c2.9,0,4.6,2,4.6,4.8C270.8,350.8,270.7,351,270.7,351.2z M268.8,349.8c-0.1-1.6-1.2-2.4-2.6-2.4
		c-1.5,0-2.5,1-2.6,2.4H268.8z"/>
</g>
<path class="st0" d="M582,290.6c0-0.4-0.3-0.8-0.7-0.8h-6.2v-17l-30-30L354,243c-0.4,0-0.7,0.3-0.7,0.8l0.2,348.3
	c0,0.4,0.3,0.8,0.7,0.8l0,0h6.2v6.3c0,0.4,0.3,0.8,0.7,0.8l0,0l220.3-0.2c0.4,0,0.7-0.3,0.7-0.8L582,290.6z M545,245.7l27.2,27.2
	H545V245.7z M355.2,245l188.8-0.2v29.1h29l0.2,316.7l-217.9,0.3L355.2,245z M361.3,598.9v-6l213.1-0.2c0.4,0,0.7-0.3,0.7-0.8
	l-0.2-301h6l0.2,307.8L361.3,598.9z"/>
<path class="st0" d="M376.1,308.9v112h183v-112H376.1z M377.1,419.9v-21.6l20.9-27.6l8.1,6.7l7.2-6.2l7.8,6.5l7.4-6.2l7.6,6.3
	l7.6-6.3l17.2,21l36-31.1l59.3,58.3H377.1V419.9z M398.6,369.9l21-27.7l23.5,28.7l-7,5.7l-7.6-6.4l-7.4,6.1l-7.8-6.4l-7.2,6
	L398.6,369.9z M558.1,419.9h-0.4L497,360l-35.9,31.2l-41.4-50.6l-42.5,56.2v-86.9h181v110H558.1z"/>
<path class="st1" d="M522.5,321.9c-8.6,0-15.5,6.9-15.5,15.5c0,8.6,6.9,15.5,15.5,15.5S538,346,538,337.4
	C538,328.8,531.1,321.9,522.5,321.9z M522.5,351.9c-8,0-14.5-6.5-14.5-14.5s6.5-14.5,14.5-14.5s14.5,6.5,14.5,14.5
	S530.5,351.9,522.5,351.9z"/>
<g id="Your_print_campaign_with_image_recognition">
	<path class="st0" d="M420.7,463.7v5.3h-4v-5.3l-5.5-8.9h4.7l2.8,5.2l2.8-5.2h4.7L420.7,463.7z"/>
	<path class="st0" d="M431,469.3c-3.8,0-6.3-2.3-6.3-6c0-3.6,2.5-6,6.3-6s6.3,2.4,6.3,6C437.3,466.9,434.8,469.3,431,469.3z
		 M431,460.5c-1.4,0-2.2,1.1-2.2,2.8c0,1.7,0.7,2.8,2.2,2.8c1.4,0,2.2-1.1,2.2-2.8C433.2,461.6,432.4,460.5,431,460.5z"/>
	<path class="st0" d="M445.9,469v-1c-0.9,0.8-2.1,1.3-3.2,1.3c-2.6,0-3.8-1.9-3.8-4v-7.7h3.9v6.8c0,0.8,0.3,1.5,1.5,1.5
		c0.9,0,1.7-0.5,1.7-1.7v-6.6h3.9v11.5L445.9,469L445.9,469z"/>
	<path class="st0" d="M459.4,461.6c-0.3-0.2-0.7-0.4-1.3-0.4c-1.3,0-2.1,1-2.1,2.4v5.3h-3.9v-11.5h3.9v1.7c0.7-1.2,1.8-1.9,2.9-1.9
		c0.5,0,1.1,0.1,1.4,0.3L459.4,461.6z"/>
	<path class="st0" d="M474.3,469.3c-1.3,0-2.4-0.5-3.3-1.3v4.7h-3.9v-15.1h3.9v1.1c0.9-0.8,1.9-1.3,3.3-1.3c3.2,0,5.2,2.6,5.2,6
		C479.5,466.7,477.5,469.3,474.3,469.3z M473.3,460.6c-1.5,0-2.2,1.2-2.2,2.7s0.7,2.7,2.2,2.7s2.1-1.3,2.1-2.7
		C475.4,461.8,474.7,460.6,473.3,460.6z"/>
	<path class="st0" d="M488.5,461.6c-0.3-0.2-0.7-0.4-1.3-0.4c-1.3,0-2.1,1-2.1,2.4v5.3h-3.9v-11.5h3.9v1.7c0.7-1.2,1.8-1.9,2.9-1.9
		c0.5,0,1.1,0.1,1.4,0.3L488.5,461.6z"/>
	<path class="st0" d="M490.6,456.4v-2.5h3.9v2.5H490.6z M490.6,469v-11.5h3.9V469H490.6z"/>
	<path class="st0" d="M503.9,469v-6.8c0-0.8-0.3-1.5-1.5-1.5c-0.9,0-1.7,0.5-1.7,1.7v6.6h-3.9v-11.5h3.9v1.1
		c0.9-0.8,2.1-1.3,3.2-1.3c2.6,0,3.8,1.9,3.8,4v7.7L503.9,469L503.9,469z"/>
	<path class="st0" d="M518.5,468.2c-0.8,0.7-2,1.1-3.5,1.1s-2.7-0.5-3.4-1.4c-0.5-0.7-0.7-1.6-0.7-2.8v-4.6h-1.7v-2.9h1.7v-2.7h3.9
		v2.6h3.1v2.9h-3.1v4.6c0,0.7,0.4,0.8,0.9,0.8c0.6,0,1-0.2,1.4-0.5L518.5,468.2z"/>
	<path class="st0" d="M424.5,491.8c-1,1.7-2.6,2.9-5.3,2.9c-3.7,0-6.1-2.5-6.1-6c0-3.4,2.4-6,6-6c2.7,0,4.3,1.4,5.3,3.1l-2.8,1.7
		c-0.5-1-1.2-1.6-2.2-1.6c-1.4,0-2.2,1.1-2.2,2.7c0,1.7,0.8,2.8,2.2,2.8c1.1,0,1.9-0.6,2.4-1.5L424.5,491.8z"/>
	<path class="st0" d="M435.2,494.6c-1.1,0-2.1-0.4-2.5-1.3c-0.7,1-2.2,1.4-3.5,1.4c-2.3,0-4-1.2-4-3.6c0-2.8,2.4-3.2,4.3-3.4
		c1.6-0.2,2.5-0.3,2.5-1s-0.9-0.8-1.5-0.8c-1.1,0-2.6,0.4-3.6,1l-1.2-2.9c1.7-0.9,3.3-1.2,5.1-1.2c3,0,5.1,1.1,5.1,4.1v4.7
		c0,0.4,0.2,0.5,0.5,0.5c0.2,0,0.4,0,0.5-0.1l0.4,2.4C436.7,494.5,435.8,494.6,435.2,494.6z M431.9,489.2c-0.3,0.4-0.9,0.4-1.6,0.5
		c-0.6,0.1-1.3,0.3-1.3,1.2c0,0.7,0.5,1.1,1.3,1.1c1,0,1.6-0.6,1.6-1.7V489.2z"/>
	<path class="st0" d="M452.2,494.4v-6.8c0-0.8-0.2-1.5-1.4-1.5c-0.9,0-1.5,0.5-1.5,1.7v6.6h-3.9v-6.8c0-0.8-0.2-1.5-1.4-1.5
		c-0.9,0-1.5,0.5-1.5,1.7v6.6h-3.9v-11.5h3.9v1.1c0.9-0.8,2-1.3,3.1-1.3c1.6,0,2.6,0.7,3.1,1.8c1.1-1.4,2.6-1.8,3.7-1.8
		c2.7,0,3.8,1.9,3.8,4v7.7L452.2,494.4L452.2,494.4z"/>
	<path class="st0" d="M465.5,494.7c-1.3,0-2.4-0.5-3.3-1.3v4.7h-3.9V483h3.9v1.1c0.9-0.8,1.9-1.3,3.3-1.3c3.2,0,5.2,2.6,5.2,6
		C470.7,492.1,468.7,494.7,465.5,494.7z M464.5,486c-1.5,0-2.2,1.2-2.2,2.7s0.7,2.7,2.2,2.7s2.1-1.3,2.1-2.7S465.9,486,464.5,486z"
		/>
	<path class="st0" d="M481.8,494.6c-1.1,0-2.1-0.4-2.5-1.3c-0.7,1-2.2,1.4-3.5,1.4c-2.3,0-4-1.2-4-3.6c0-2.8,2.4-3.2,4.3-3.4
		c1.6-0.2,2.5-0.3,2.5-1s-0.9-0.8-1.5-0.8c-1.1,0-2.6,0.4-3.6,1l-1.2-2.9c1.7-0.9,3.3-1.2,5.1-1.2c3,0,5.1,1.1,5.1,4.1v4.7
		c0,0.4,0.2,0.5,0.5,0.5c0.2,0,0.4,0,0.5-0.1l0.4,2.4C483.3,494.5,482.4,494.6,481.8,494.6z M478.5,489.2c-0.3,0.4-0.9,0.4-1.6,0.5
		c-0.6,0.1-1.3,0.3-1.3,1.2c0,0.7,0.5,1.1,1.3,1.1c1,0,1.6-0.6,1.6-1.7V489.2z"/>
	<path class="st0" d="M485.1,481.8v-2.5h3.9v2.5H485.1z M485.1,494.4v-11.5h3.9v11.5H485.1z"/>
	<path class="st0" d="M503,492c0,1.9-0.3,3.3-1.3,4.5c-1.2,1.4-3.4,1.9-5.5,1.9c-2,0-3.6-0.4-5.1-1.1l1.3-2.9c1,0.6,2.2,0.9,3.7,0.9
		c1.7,0,3.1-0.6,3.1-2.2v-0.6c-0.9,0.8-1.9,1.3-3.3,1.3c-3.2,0-5.2-2.4-5.2-5.5c0-3,2-5.5,5.2-5.5c1.3,0,2.4,0.5,3.3,1.3V483h3.9v9
		H503z M496.9,485.9c-1.4,0-2.1,1-2.1,2.3c0,1.4,0.7,2.4,2.1,2.4s2.2-1,2.2-2.4C499.2,486.8,498.4,485.9,496.9,485.9z"/>
	<path class="st0" d="M512.4,494.4v-6.8c0-0.8-0.3-1.5-1.5-1.5c-0.9,0-1.7,0.5-1.7,1.7v6.6h-3.9v-11.5h3.9v1.1
		c0.9-0.8,2.1-1.3,3.2-1.3c2.6,0,3.8,1.9,3.8,4v7.7L512.4,494.4L512.4,494.4z"/>
	<path class="st0" d="M386,519.4h-1.9l-1.8-6.1l-1.9,6.1h-1.9l-2.3-8.4h1.9l1.5,6.1l1.8-6.1h1.6l1.8,6.1l1.5-6.1h1.9L386,519.4z"/>
	<path class="st0" d="M389.9,509.7V508h1.8v1.7H389.9z M389.9,519.4V511h1.8v8.4H389.9z"/>
	<path class="st0" d="M399.2,519c-0.5,0.4-1.2,0.6-2,0.6c-1,0-1.8-0.3-2.3-1.1c-0.3-0.4-0.4-0.9-0.4-1.8v-4.4h-1.4v-1.4h1.4v-2.3
		h1.8v2.3h2.6v1.4h-2.6v4.4c0,0.8,0.4,1.2,1.1,1.2c0.5,0,0.8-0.2,1.1-0.4L399.2,519z"/>
	<path class="st0" d="M400.6,519.4V508h1.8v4.3c0.7-0.9,1.6-1.4,2.8-1.4c1.8,0,2.9,1.2,2.9,3.1v5.5h-1.8v-5.1c0-0.9-0.3-1.9-1.7-1.9
		c-1.2,0-2.2,0.9-2.2,2.3v4.7L400.6,519.4L400.6,519.4z"/>
	<path class="st0" d="M414.5,509.7V508h1.8v1.7H414.5z M414.5,519.4V511h1.8v8.4H414.5z"/>
	<path class="st0" d="M418.6,519.4V511h1.8v1.2c0.7-0.9,1.5-1.4,2.6-1.4c1.2,0,2.1,0.6,2.4,1.6c0.7-1,1.8-1.6,2.9-1.6
		c1.8,0,2.8,1.2,2.8,3.1v5.5h-1.8v-5.1c0-0.9-0.3-1.9-1.6-1.9c-1.2,0-2.1,0.9-2.1,2.2v4.7H424v-5.1c0-0.9-0.3-1.9-1.6-1.9
		c-1.2,0-2.1,0.9-2.1,2.2v4.7h-1.7V519.4z"/>
	<path class="st0" d="M440.2,519.6c-0.8,0-1.5-0.4-1.7-1.2c-0.7,1-1.8,1.3-2.8,1.3c-1.7,0-2.9-0.9-2.9-2.6c0-2.1,1.8-2.4,3.3-2.6
		c1.2-0.1,2.1-0.2,2.1-1.1c0-0.8-0.9-1.1-1.7-1.1c-0.9,0-1.8,0.3-2.6,0.8l-0.7-1.3c1-0.7,2.1-1,3.5-1c2,0,3.4,0.8,3.4,2.8v3.8
		c0,0.5,0.2,0.8,0.6,0.8c0.2,0,0.4,0,0.5-0.1l0.2,1.2C441,519.5,440.5,519.6,440.2,519.6z M438.3,515c-0.5,0.6-1.2,0.6-2.1,0.8
		c-0.9,0.1-1.6,0.4-1.6,1.3c0,0.9,0.7,1.2,1.5,1.2c1.1,0,2.1-0.6,2.1-2V515H438.3z"/>
	<path class="st0" d="M449.7,521c-0.9,1-2.3,1.3-3.7,1.3c-1.4,0-2.6-0.3-3.6-1l0.8-1.4c0.7,0.5,1.7,0.8,2.8,0.8
		c1.6,0,2.8-0.7,2.8-2.5v-0.8c-0.7,0.9-1.8,1.4-2.9,1.4c-2.3,0-3.8-1.7-3.8-4s1.6-4.1,3.8-4.1c1.2,0,2.2,0.5,2.9,1.4v-1.2h1.8v6.9
		C450.6,519.3,450.4,520.3,449.7,521z M446.4,512.4c-1.6,0-2.4,1.1-2.4,2.5c0,1.4,0.8,2.6,2.4,2.6s2.5-1.1,2.5-2.6
		C448.9,513.5,448,512.4,446.4,512.4z"/>
	<path class="st0" d="M460.7,515.7h-6.4c0.1,1.5,1.1,2.4,2.6,2.4c1,0,1.8-0.4,2.4-1.1l1.2,1.1c-0.9,0.9-2,1.5-3.6,1.5
		c-2.8,0-4.4-1.9-4.4-4.4s1.6-4.4,4.2-4.4c2.5,0,4.1,1.8,4.1,4.2C460.7,515.3,460.7,515.5,460.7,515.7z M458.9,514.4
		c-0.1-1.4-1.1-2.1-2.3-2.1c-1.3,0-2.2,0.9-2.3,2.1H458.9z"/>
	<path class="st0" d="M471.5,512.9c-0.3-0.1-0.6-0.3-1-0.3c-1.1,0-2,0.9-2,2.5v4.3h-1.8V511h1.8v1.4c0.6-0.9,1.4-1.5,2.4-1.5
		c0.5,0,0.9,0.1,1.1,0.3L471.5,512.9z"/>
	<path class="st0" d="M480.9,515.7h-6.4c0.1,1.5,1.1,2.4,2.6,2.4c1,0,1.8-0.4,2.4-1.1l1.2,1.1c-0.9,0.9-2,1.5-3.6,1.5
		c-2.8,0-4.4-1.9-4.4-4.4s1.6-4.4,4.2-4.4c2.5,0,4.1,1.8,4.1,4.2C481,515.3,480.9,515.5,480.9,515.7z M479.2,514.4
		c-0.1-1.4-1.1-2.1-2.3-2.1c-1.3,0-2.2,0.9-2.3,2.1H479.2z"/>
	<path class="st0" d="M489.9,517.8c-0.7,1.1-1.9,1.9-3.5,1.9c-2.6,0-4.2-1.9-4.2-4.4s1.6-4.4,4.2-4.4c1.6,0,2.8,0.8,3.5,1.9
		l-1.3,0.9c-0.4-0.8-1.1-1.3-2.1-1.3c-1.5,0-2.4,1.2-2.4,2.8s0.9,2.8,2.4,2.8c1,0,1.6-0.5,2.1-1.2L489.9,517.8z"/>
	<path class="st0" d="M495.1,519.6c-2.6,0-4.3-1.8-4.3-4.4c0-2.6,1.6-4.4,4.3-4.4c2.6,0,4.3,1.8,4.3,4.4
		C499.3,517.8,497.7,519.6,495.1,519.6z M495.1,512.4c-1.5,0-2.4,1.2-2.4,2.9c0,1.6,0.9,2.8,2.4,2.8s2.4-1.2,2.4-2.8
		C497.5,513.6,496.6,512.4,495.1,512.4z"/>
	<path class="st0" d="M508.2,521c-0.9,1-2.3,1.3-3.7,1.3c-1.4,0-2.6-0.3-3.6-1l0.8-1.4c0.7,0.5,1.7,0.8,2.8,0.8
		c1.6,0,2.8-0.7,2.8-2.5v-0.8c-0.7,0.9-1.8,1.4-2.9,1.4c-2.3,0-3.8-1.7-3.8-4s1.6-4.1,3.8-4.1c1.2,0,2.2,0.5,2.9,1.4v-1.2h1.8v6.9
		C509.1,519.3,508.9,520.3,508.2,521z M504.9,512.4c-1.6,0-2.4,1.1-2.4,2.5c0,1.4,0.8,2.6,2.4,2.6s2.5-1.1,2.5-2.6
		C507.4,513.5,506.5,512.4,504.9,512.4z"/>
	<path class="st0" d="M511.4,519.4V511h1.8v1.2c0.7-0.9,1.6-1.4,2.8-1.4c1.8,0,2.9,1.2,2.9,3.1v5.5h-1.8v-5.1c0-0.9-0.3-1.9-1.7-1.9
		c-1.2,0-2.2,0.9-2.2,2.3v4.7H511.4L511.4,519.4z"/>
	<path class="st0" d="M521.1,509.7V508h1.8v1.7H521.1z M521.1,519.4V511h1.8v8.4H521.1z"/>
	<path class="st0" d="M530.4,519c-0.5,0.4-1.2,0.6-2,0.6c-1,0-1.8-0.3-2.3-1.1c-0.3-0.4-0.4-0.9-0.4-1.8v-4.4h-1.4v-1.4h1.4v-2.3
		h1.8v2.3h2.6v1.4h-2.6v4.4c0,0.8,0.4,1.2,1.1,1.2c0.5,0,0.8-0.2,1.1-0.4L530.4,519z"/>
	<path class="st0" d="M531.8,509.7V508h1.8v1.7H531.8z M531.8,519.4V511h1.8v8.4H531.8z"/>
	<path class="st0" d="M539.6,519.6c-2.6,0-4.3-1.8-4.3-4.4c0-2.6,1.6-4.4,4.3-4.4c2.6,0,4.3,1.8,4.3,4.4
		C543.9,517.8,542.2,519.6,539.6,519.6z M539.6,512.4c-1.5,0-2.4,1.2-2.4,2.9c0,1.6,0.9,2.8,2.4,2.8s2.4-1.2,2.4-2.8
		C542,513.6,541.1,512.4,539.6,512.4z"/>
	<path class="st0" d="M545.7,519.4V511h1.8v1.2c0.7-0.9,1.6-1.4,2.8-1.4c1.8,0,2.9,1.2,2.9,3.1v5.5h-1.8v-5.1c0-0.9-0.3-1.9-1.7-1.9
		c-1.2,0-2.2,0.9-2.2,2.3v4.7H545.7L545.7,519.4z"/>
</g>
</svg>
