<?xml version="1.0" standalone="no"?>
<!DOCTYPE svg PUBLIC "-//W3C//DTD SVG 20010904//EN"
 "http://www.w3.org/TR/2001/REC-SVG-20010904/DTD/svg10.dtd">
<svg version="1.0" xmlns="http://www.w3.org/2000/svg"
 width="550.000000pt" height="550.000000pt" viewBox="0 0 550.000000 550.000000"
 preserveAspectRatio="xMidYMid meet">
<metadata>
Created by potrace 1.11, written by Peter Selinger 2001-2013
</metadata>
<g transform="translate(0.000000,550.000000) scale(0.100000,-0.100000)"
fill="#000000" stroke="none">
<path d="M2515 4739 c-823 -100 -1502 -696 -1705 -1499 -46 -181 -54 -258 -54
-490 0 -244 8 -317 64 -526 53 -199 169 -459 227 -503 80 -64 203 -5 203 97 0
19 -24 81 -60 155 -68 140 -119 286 -152 437 -33 155 -33 525 0 680 52 237
159 485 290 670 86 122 290 326 412 412 185 131 433 238 670 290 93 20 133 22
340 22 207 0 247 -2 340 -22 151 -33 297 -84 437 -152 74 -36 136 -60 155 -60
73 0 137 76 124 146 -11 55 -49 88 -168 147 -181 88 -358 146 -563 183 -108
19 -443 27 -560 13z"/>
<path d="M4350 4519 c-14 -5 -214 -199 -446 -430 l-421 -421 -66 46 c-94 66
-256 141 -372 172 -132 35 -355 44 -490 21 -587 -103 -1002 -623 -972 -1217
11 -219 99 -470 218 -621 16 -20 29 -41 29 -45 0 -5 -191 -200 -424 -434 -450
-451 -447 -448 -426 -521 13 -44 47 -77 92 -90 72 -19 91 -3 533 440 225 226
414 411 418 411 5 0 29 -16 55 -36 68 -52 253 -140 353 -168 412 -117 844 -4
1145 298 227 228 344 510 344 831 0 239 -72 470 -207 664 l-44 64 425 426
c373 375 425 431 431 464 9 47 -11 103 -46 129 -31 23 -94 32 -129 17z m-1412
-875 c98 -20 208 -64 294 -117 l68 -41 -209 -211 c-218 -220 -231 -238 -216
-305 8 -39 56 -87 95 -95 67 -15 85 -2 305 216 l211 209 42 -71 c101 -168 137
-313 129 -518 -6 -157 -21 -218 -83 -351 -113 -240 -310 -407 -571 -487 -78
-23 -105 -26 -243 -27 -172 -1 -231 10 -371 69 -60 25 -143 73 -179 102 -2 2
84 92 192 201 107 108 203 208 212 222 64 97 -62 232 -167 179 -12 -6 -113
-102 -224 -212 -111 -111 -204 -199 -206 -197 -29 36 -77 119 -102 179 -59
140 -70 199 -69 371 1 139 4 165 28 245 99 326 359 570 681 638 95 21 286 21
383 1z"/>
<path d="M4323 3795 c-40 -17 -73 -69 -73 -114 0 -21 22 -79 60 -155 70 -142
120 -290 152 -448 20 -97 23 -143 23 -328 0 -185 -3 -231 -23 -328 -75 -368
-244 -679 -509 -932 -236 -226 -529 -379 -863 -452 -93 -20 -133 -22 -340 -22
-207 0 -247 2 -340 22 -149 33 -296 83 -439 152 -70 34 -137 60 -155 60 -100
0 -158 -123 -95 -203 44 -58 304 -174 503 -227 172 -45 277 -61 456 -67 259
-9 463 21 707 102 818 272 1363 1034 1363 1904 0 295 -74 611 -207 876 -62
125 -75 142 -120 161 -40 17 -59 17 -100 -1z"/>
</g>
</svg>
