<?xml version="1.0" encoding="utf-8"?>
<!-- Generator: Adobe Illustrator 19.1.0, SVG Export Plug-In . SVG Version: 6.00 Build 0)  -->
<svg version="1.1" id="Ebene_1" xmlns="http://www.w3.org/2000/svg" xmlns:xlink="http://www.w3.org/1999/xlink" x="0px" y="0px"
	 width="23px" height="23px" viewBox="0 0 23 23" style="enable-background:new 0 0 23 23;" xml:space="preserve">
<g id="qr_code">
	<g>
		<path style="fill:#010202;" d="M23,21v-1h-1v1H23z M18,23h1v-1h-1V23z M23,19v-1h-1v1H23z M16,23h1v-1h-1V23z M20,23h1v-1h-1V23z
			 M14,23h1v-1h-1V23z M12,23h1v-1h-1V23z M0,11h11V0H0V11z M1,1h9v9H1V1z M2,9h7V2H2V9z M3,3h5v5H3V3z M0,23h11V12H0V23z M1,13h9v9
			H1V13z M2,21h7v-7H2V21z M3,15h5v5H3V15z M23,17v-1h-1v1H23z M23,15v-1h-1v1H23z M23,23v-1h-1v1H23z M21,14h-1v-1h-1v1h-1v-1h-1v1
			h-1v-1h-1v1h-1v1h-1v1h1v1h-1v1h1v1h-1v1h1v1h1v1h1v-1h1v1h1v-1h1v1h1v-1h1v-1h1v-1h-1v-1h1v-1h-1v-1h1v-1h-1V14z M20,20h-5v-5h5
			V20z M21,22h1v-1h-1V22z M14,13h-1v1h1V13z M13,21v1h1v-1H13z M21,14h1v-1h-1V14z M22,13h1v-1h-1V13z M12,0v11h11V0H12z M22,10h-9
			V1h9V10z M12,20v1h1v-1H12z M21,2h-7v7h7V2z M20,8h-5V3h5V8z M15,12h-1v1h1V12z M12,12v1h1v-1H12z M12,14v1h1v-1H12z M12,16v1h1
			v-1H12z M19,12h-1v1h1V12z M21,12h-1v1h1V12z M12,18v1h1v-1H12z M17,12h-1v1h1V12z"/>
	</g>
</g>
</svg>
