<?xml version="1.0" encoding="utf-8"?>
<!-- Generator: Adobe Illustrator 19.1.0, SVG Export Plug-In . SVG Version: 6.00 Build 0)  -->
<svg version="1.1" xmlns="http://www.w3.org/2000/svg" xmlns:xlink="http://www.w3.org/1999/xlink" x="0px" y="0px" width="385.6px"
	 height="192.8px" viewBox="0 0 385.6 192.8" style="enable-background:new 0 0 385.6 192.8;" xml:space="preserve">
<g id="icons_1_" style="opacity:0.05;">
	<g id="short_url_1_">
		<g>
			<path d="M14.1,12.1v24l10-9l10,9v-24H14.1z M33.1,33.8l-8.3-7.5l-0.7-0.6l-0.7,0.6l-8.3,7.5V13.1h18V33.8z"/>
			<rect x="18.1" y="16.1" width="12" height="1"/>
		</g>
	</g>
	<g id="mdl_1_">
		<path d="M75.3,17.6l9-7h-24v14v0v13h1v-13h23L75.3,17.6z M61.3,11.6h20.1l-6.7,5.2l-1,0.8l1,0.8
			l6.7,5.2H61.3V11.6z"/>
	</g>
	<g id="qr_code">
		<g>
			<path d="M132,35.6v-1h-1v1H132z M132,33.6v-1h-1v1H132z M125,35.6h1v-1h-1V35.6z M123,35.6h1v-1h-1V35.6z M132,31.6v-1h-1v1H132z
				 M127,35.6h1v-1h-1V35.6z M129,35.6h1v-1h-1V35.6z M109,35.6h11v-11h-11V35.6z M110,25.6h9v9h-9V25.6z M111,21.6h7v-7h-7V21.6z
				 M112,15.6h5v5h-5V15.6z M109,23.6h11v-11h-11V23.6z M110,13.6h9v9h-9V13.6z M121,35.6h1v-1h-1V35.6z M132,29.6v-1h-1v1H132z
				 M132,27.6v-1h-1v1H132z M111,33.6h7v-7h-7V33.6z M112,27.6h5v5h-5V27.6z M128,24.6h-1v1h1V24.6z M130,26.6h1v-1h-1V26.6z
				 M130,26.6h-1v-1h-1v1h-1v-1h-1v1h-1v-1h-1v1h-1v1h-1v1h1v1h-1v1h1v1h-1v1h1v1h1v1h1v-1h1v1h1v-1h1v1h1v-1h1v-1h1v-1h-1v-1h1v-1
				h-1v-1h1v-1h-1V26.6z M129,32.6h-5v-5h5V32.6z M130,34.6h1v-1h-1V34.6z M122,33.6v1h1v-1H122z M130,14.6h-7v7h7V14.6z M129,20.6
				h-5v-5h5V20.6z M131,25.6h1v-1h-1V25.6z M121,12.6v11h11v-11H121z M131,22.6h-9v-9h9V22.6z M123,25.6h-1v1h1V25.6z M130,24.6h-1
				v1h1V24.6z M121,28.6v1h1v-1H121z M121,24.6v1h1v-1H121z M121,32.6v1h1v-1H121z M121,30.6v1h1v-1H121z M121,26.6v1h1v-1H121z
				 M126,24.6h-1v1h1V24.6z M124,24.6h-1v1h1V24.6z"/>
		</g>
	</g>
	<g id="instore_reach_1_">
		<path d="M168.7,26.9c1.7,0,3,1.3,3,3s-1.3,3-3,3s-3-1.3-3-3S167,26.9,168.7,26.9 M168.7,25.9
			c-2.2,0-4,1.8-4,4c0,2.2,1.8,4,4,4c2.2,0,4-1.8,4-4C172.7,27.7,170.9,25.9,168.7,25.9L168.7,25.9z M168.7,17.8
			c-5.4,0-10,3.6-11.5,8.5c0.3,0.2,0.6,0.4,0.9,0.5c1.3-4.6,5.6-8,10.6-8c5.1,0,9.4,3.5,10.7,8.2c0.3-0.2,0.6-0.4,0.9-0.5
			C178.7,21.5,174.1,17.8,168.7,17.8z M168.7,21.4c-4.1,0-7.6,3-8.3,6.9c0.3,0.2,0.6,0.4,0.9,0.6c0.5-3.6,3.6-6.4,7.4-6.4
			c3.8,0,6.9,2.8,7.4,6.5c0.3-0.2,0.6-0.4,0.9-0.5C176.3,24.4,172.8,21.4,168.7,21.4z M154.9,25c0-0.1,0-0.1,0.1-0.2
			c2.1-5.7,7.6-9.5,13.7-9.5c6.2,0,11.7,3.9,13.7,9.7c0,0.1,0,0.1,0.1,0.2c0.3-0.2,0.6-0.4,0.9-0.5c0,0,0,0,0,0
			c-2.2-6-7.9-10.3-14.7-10.3c-6.7,0-12.4,4.2-14.6,10.2c0,0,0,0,0,0C154.3,24.6,154.6,24.8,154.9,25z"/>
	</g>
	<g id="app_marketing">
		<path d="M14.1,59.8v25h20v-25H14.1z M33.1,83.8h-18v-16h18V83.8z M33.1,66.8h-18v-6h18V66.8z M18.1,65.8c1.1,0,2-0.9,2-2
			c0-1.1-0.9-2-2-2s-2,0.9-2,2C16.1,64.9,17,65.8,18.1,65.8z M31.1,62.8h-9v2h9V62.8z"/>
	</g>
	<g id="analyze">
		<path d="M62.8,61.8h-1v21h21v-1h-7v-8h-5v8h-1v-13h-5v13h-2V61.8L62.8,61.8z M65.8,81.8v-12h3v12H65.8L65.8,81.8z M71.8,81.8v-7h3
			v7H71.8L71.8,81.8z M81.8,64.8h-5v17h1v-16h3v16h1V64.8L81.8,64.8z"/>
	</g>
	<g id="share_2_">
		<path d="M182.3,60.2l-27.3,7.9l11.8,3.8l0.5,12.4L182.3,60.2z M179.4,63.1l-11.3,18.2l-0.3-9.4
			L179.4,63.1z M178.8,62.3l-11.7,8.8l-8.9-2.9L178.8,62.3z"/>
	</g>
  <g id="foo">
    <path id="A_x2F_B" d="M129,59.8h-18v17l18-10V59.8z M128,66.2l-6.2,3.4l-2.6-6.3h-1l-3.3,8h0.9
      l1-2.4h3.8l0.5,1.2l-9,5V60.8h16V66.2z M120.2,68.1h-3.2l1.6-3.9L120.2,68.1z M121.8,72.4L121.8,72.4l-1.8,1v0l-8,4.4v7h18v-17
      L121.8,72.4z M120.8,74l1.6-0.9h0.7c1.1,0,1.7,0.4,1.7,1.2c0,0.8-0.6,1.4-1.6,1.4h-2.4V74z M120.8,76.5h2.7c1.1,0,1.7,0.7,1.7,1.5
      c0,0.9-0.6,1.5-1.7,1.5h-2.6V76.5z M129,83.8h-16v-5.4l7-3.9v5.8h3.5c1.8,0,2.6-1,2.6-2.3c0-1-0.5-1.7-1.4-2.1c0.6-0.3,1-0.9,1-1.7
      c0-1-0.7-1.7-1.9-1.8l5.2-2.9V83.8z"/>
  </g>

  <use xlink:href="#short_url_1_" x="193" y="0"></use>
  <use xlink:href="#mdl_1_" x="193" y="0"></use>
  <use xlink:href="#qr_code" x="193" y="0"></use>
  <use xlink:href="#instore_reach_1_" x="193" y="0"></use>
  <use xlink:href="#app_marketing" x="193" y="0"></use>
  <use xlink:href="#analyze" x="193" y="0"></use>
  <use xlink:href="#share_2_" x="193" y="0"></use>
  <use xlink:href="#foo" x="193" y="0"></use>

  <use xlink:href="#short_url_1_" x="96.4" y="96.38"></use>
  <use xlink:href="#mdl_1_" x="96.4" y="96.38"></use>
  <use xlink:href="#qr_code" x="-96.4" y="96.38"></use>
  <use xlink:href="#instore_reach_1_" x="-96.4" y="96.38"></use>
  <use xlink:href="#app_marketing" x="96.4" y="96.38"></use>
  <use xlink:href="#analyze" x="96.4" y="96.38"></use>
  <use xlink:href="#share_2_" x="-96.4" y="96.38"></use>
  <use xlink:href="#foo" x="-96.4" y="96.38"></use>

  <use xlink:href="#short_url_1_" x="289.4" y="96.38"></use>
  <use xlink:href="#mdl_1_" x="289.4" y="96.38"></use>
  <use xlink:href="#qr_code" x="96.6" y="96.38"></use>
  <use xlink:href="#instore_reach_1_" x="96.6" y="96.38"></use>
  <use xlink:href="#app_marketing" x="289.4" y="96.38"></use>
  <use xlink:href="#analyze" x="289.4" y="96.38"></use>
  <use xlink:href="#share_2_" x="96.6" y="96.38"></use>
  <use xlink:href="#foo" x="96.6" y="96.38"></use>

</g>
</svg>
